M48
;DRILL file {Pcbnew (2013-07-07 BZR 4022)-stable} date 07/03/2014 16:01:48
;FORMAT={3:3/ absolute / metric / suppress leading zeros}
FMAT,2
METRIC,TZ
T1C0.635
T2C1.016
%
G90
G05
M71
T1
X43942Y-67564
X45974Y-70866
X47498Y-33274
X48895Y-65405
X49276Y-67818
X51562Y-34925
X54102Y-65405
X54864Y-70739
X58293Y-57658
X58420Y-59817
X58420Y-62802
X60198Y-55626
X60452Y-70866
X63182Y-33782
X63373Y-42291
X63373Y-43561
X63373Y-44704
X63373Y-45974
X63500Y-70739
X63627Y-58674
X63627Y-62484
X63627Y-65024
X63627Y-66294
X65278Y-55626
X65659Y-59817
X65913Y-66294
X66040Y-70866
X66802Y-60960
X66929Y-63754
X69088Y-51118
X69596Y-33147
X71628Y-70866
X71882Y-53213
X73152Y-34798
X73406Y-66294
X74676Y-45212
X75629Y-37846
X76708Y-44196
X76835Y-51435
X76835Y-56515
X76835Y-70866
X78232Y-40640
X78613Y-58674
X78994Y-62484
X78994Y-63754
X78994Y-65024
X78994Y-66294
X79502Y-40640
X80264Y-70739
X80645Y-63754
X80772Y-40640
X81788Y-62484
X81915Y-58674
X82804Y-70993
X83185Y-67437
X83566Y-52832
T2
X37084Y-32004
X37084Y-34544
X37084Y-37084
X37084Y-39624
X37084Y-42164
X37084Y-44704
X37084Y-47244
X37084Y-49784
X37084Y-52324
X37084Y-54864
X37084Y-66802
X37084Y-69342
X37084Y-71882
X37084Y-74422
X38100Y-58420
X38100Y-60960
X38100Y-63500
X38354Y-77978
X40640Y-48260
X40640Y-50800
X40894Y-77978
X43180Y-48260
X43180Y-50800
X43434Y-77978
X47244Y-77978
X48260Y-48260
X49784Y-77978
X50800Y-48260
X51054Y-32004
X52324Y-77978
X53340Y-48260
X53340Y-58420
X53340Y-60960
X53594Y-32004
X55880Y-48260
X56134Y-32004
X57404Y-77978
X58420Y-48260
X58674Y-32004
X59944Y-77978
X60960Y-48260
X61214Y-32004
X62484Y-77978
X63500Y-48260
X66040Y-48260
X67818Y-75438
X67818Y-77978
X71120Y-48260
X72898Y-32004
X72898Y-75438
X72898Y-77978
X73660Y-48260
X75438Y-32004
X76200Y-48260
X77978Y-32004
X77978Y-75438
X77978Y-77978
X78740Y-48260
X80518Y-32004
X81280Y-48260
X82804Y-75438
X82804Y-77978
X83058Y-32004
T0
M30
