G04 (created by PCBNEW (2013-07-07 BZR 4022)-stable) date 07/03/2014 16:09:31*
%MOIN*%
G04 Gerber Fmt 3.4, Leading zero omitted, Abs format*
%FSLAX34Y34*%
G01*
G70*
G90*
G04 APERTURE LIST*
%ADD10C,0.00590551*%
%ADD11R,0.06X0.06*%
%ADD12C,0.06*%
G04 APERTURE END LIST*
G54D10*
G54D11*
X28000Y-19000D03*
G54D12*
X29000Y-19000D03*
X30000Y-19000D03*
X31000Y-19000D03*
X32000Y-19000D03*
G54D11*
X23100Y-12600D03*
G54D12*
X22100Y-12600D03*
X21100Y-12600D03*
X20100Y-12600D03*
G54D11*
X31700Y-12600D03*
G54D12*
X30700Y-12600D03*
X29700Y-12600D03*
X28700Y-12600D03*
G54D11*
X14600Y-15600D03*
G54D12*
X14600Y-14600D03*
X14600Y-13600D03*
X14600Y-12600D03*
G54D11*
X23000Y-19000D03*
G54D12*
X24000Y-19000D03*
X25000Y-19000D03*
X26000Y-19000D03*
G54D11*
X19000Y-19000D03*
G54D12*
X20000Y-19000D03*
X21000Y-19000D03*
X22000Y-19000D03*
G54D11*
X14600Y-19600D03*
G54D12*
X14600Y-18600D03*
X14600Y-17600D03*
X14600Y-16600D03*
G54D11*
X15100Y-30700D03*
G54D12*
X16100Y-30700D03*
X17100Y-30700D03*
G54D11*
X22600Y-30700D03*
G54D12*
X23600Y-30700D03*
X24600Y-30700D03*
G54D11*
X18600Y-30700D03*
G54D12*
X19600Y-30700D03*
X20600Y-30700D03*
G54D11*
X30700Y-29700D03*
G54D12*
X30700Y-30700D03*
G54D11*
X28700Y-29700D03*
G54D12*
X28700Y-30700D03*
G54D11*
X26700Y-29700D03*
G54D12*
X26700Y-30700D03*
G54D11*
X32600Y-29700D03*
G54D12*
X32600Y-30700D03*
G54D11*
X16000Y-20000D03*
G54D12*
X17000Y-20000D03*
G54D11*
X16000Y-19000D03*
G54D12*
X17000Y-19000D03*
G54D11*
X21000Y-24000D03*
G54D12*
X21000Y-23000D03*
G54D11*
X32700Y-12600D03*
X24100Y-12600D03*
X15000Y-25000D03*
G54D12*
X15000Y-24000D03*
X15000Y-23000D03*
G54D11*
X14600Y-26300D03*
G54D12*
X14600Y-27300D03*
X14600Y-28300D03*
X14600Y-29300D03*
G54D11*
X14600Y-21600D03*
G54D12*
X14600Y-20600D03*
M02*
