G04 (created by PCBNEW (2013-07-07 BZR 4022)-stable) date 07/03/2014 16:09:31*
%MOIN*%
G04 Gerber Fmt 3.4, Leading zero omitted, Abs format*
%FSLAX34Y34*%
G01*
G70*
G90*
G04 APERTURE LIST*
%ADD10C,0.00590551*%
%ADD11R,0.06X0.06*%
%ADD12C,0.06*%
%ADD13C,0.035*%
%ADD14C,0.019685*%
%ADD15C,0.01*%
G04 APERTURE END LIST*
G54D10*
G54D11*
X28000Y-19000D03*
G54D12*
X29000Y-19000D03*
X30000Y-19000D03*
X31000Y-19000D03*
X32000Y-19000D03*
G54D11*
X23100Y-12600D03*
G54D12*
X22100Y-12600D03*
X21100Y-12600D03*
X20100Y-12600D03*
G54D11*
X31700Y-12600D03*
G54D12*
X30700Y-12600D03*
X29700Y-12600D03*
X28700Y-12600D03*
G54D11*
X14600Y-15600D03*
G54D12*
X14600Y-14600D03*
X14600Y-13600D03*
X14600Y-12600D03*
G54D11*
X23000Y-19000D03*
G54D12*
X24000Y-19000D03*
X25000Y-19000D03*
X26000Y-19000D03*
G54D11*
X19000Y-19000D03*
G54D12*
X20000Y-19000D03*
X21000Y-19000D03*
X22000Y-19000D03*
G54D11*
X14600Y-19600D03*
G54D12*
X14600Y-18600D03*
X14600Y-17600D03*
X14600Y-16600D03*
G54D11*
X15100Y-30700D03*
G54D12*
X16100Y-30700D03*
X17100Y-30700D03*
G54D11*
X22600Y-30700D03*
G54D12*
X23600Y-30700D03*
X24600Y-30700D03*
G54D11*
X18600Y-30700D03*
G54D12*
X19600Y-30700D03*
X20600Y-30700D03*
G54D11*
X30700Y-29700D03*
G54D12*
X30700Y-30700D03*
G54D11*
X28700Y-29700D03*
G54D12*
X28700Y-30700D03*
G54D11*
X26700Y-29700D03*
G54D12*
X26700Y-30700D03*
G54D11*
X32600Y-29700D03*
G54D12*
X32600Y-30700D03*
G54D11*
X16000Y-20000D03*
G54D12*
X17000Y-20000D03*
G54D11*
X16000Y-19000D03*
G54D12*
X17000Y-19000D03*
G54D11*
X21000Y-24000D03*
G54D12*
X21000Y-23000D03*
G54D11*
X32700Y-12600D03*
X24100Y-12600D03*
X15000Y-25000D03*
G54D12*
X15000Y-24000D03*
X15000Y-23000D03*
G54D11*
X14600Y-26300D03*
G54D12*
X14600Y-27300D03*
X14600Y-28300D03*
X14600Y-29300D03*
G54D11*
X14600Y-21600D03*
G54D12*
X14600Y-20600D03*
G54D13*
X28200Y-27900D03*
X31100Y-26100D03*
X26000Y-27900D03*
X31100Y-25100D03*
X18100Y-27900D03*
X25050Y-26100D03*
X32600Y-27950D03*
X32200Y-24600D03*
X19250Y-25750D03*
X21300Y-25750D03*
X32900Y-20800D03*
X29775Y-14900D03*
X23000Y-24725D03*
X25850Y-23550D03*
X23000Y-23550D03*
X30250Y-20250D03*
X30250Y-22250D03*
X28800Y-13700D03*
X20300Y-13750D03*
X24950Y-18100D03*
X32750Y-26550D03*
X30250Y-27900D03*
X31600Y-27850D03*
X31750Y-25100D03*
X25000Y-27850D03*
X31100Y-24600D03*
X31100Y-25600D03*
X28900Y-26100D03*
X21600Y-27850D03*
X25950Y-26100D03*
X26350Y-25100D03*
X23800Y-27900D03*
X17300Y-26600D03*
X25050Y-24600D03*
X19400Y-26700D03*
X25050Y-25600D03*
X27200Y-20125D03*
X24875Y-13300D03*
X28300Y-20950D03*
X25700Y-21900D03*
X23700Y-21900D03*
X22950Y-22700D03*
X27400Y-13050D03*
X18700Y-13100D03*
X24950Y-17150D03*
X31300Y-16000D03*
X29400Y-17800D03*
X24950Y-17600D03*
X31800Y-16000D03*
X24950Y-16650D03*
X30800Y-16000D03*
X30200Y-17400D03*
X30950Y-23100D03*
X25050Y-23100D03*
X32250Y-23100D03*
X26300Y-24000D03*
G54D14*
X28700Y-27900D02*
X28200Y-27900D01*
X29300Y-27300D02*
X28700Y-27900D01*
X29900Y-27300D02*
X29300Y-27300D01*
X31100Y-26100D02*
X29900Y-27300D01*
X27550Y-27900D02*
X26000Y-27900D01*
X28150Y-27300D02*
X27550Y-27900D01*
X28150Y-26100D02*
X28150Y-27300D01*
X29150Y-25100D02*
X28150Y-26100D01*
X31100Y-25100D02*
X29150Y-25100D01*
X20800Y-27900D02*
X18100Y-27900D01*
X21300Y-27400D02*
X20800Y-27900D01*
X23150Y-27400D02*
X21300Y-27400D01*
X24450Y-26100D02*
X23150Y-27400D01*
X25050Y-26100D02*
X24450Y-26100D01*
X32150Y-27500D02*
X32600Y-27950D01*
X32150Y-24650D02*
X32150Y-27500D01*
X32200Y-24600D02*
X32150Y-24650D01*
X23000Y-24725D02*
X22975Y-24725D01*
X21950Y-25750D02*
X21300Y-25750D01*
X22975Y-24725D02*
X21950Y-25750D01*
X28800Y-13700D02*
X20350Y-13700D01*
X20350Y-13700D02*
X20300Y-13750D01*
X29775Y-14900D02*
X29475Y-14900D01*
X28800Y-14225D02*
X28800Y-13700D01*
X29475Y-14900D02*
X28800Y-14225D01*
X32900Y-20800D02*
X32875Y-20775D01*
X32875Y-20775D02*
X32875Y-15925D01*
X32875Y-15925D02*
X31850Y-14900D01*
X31850Y-14900D02*
X29775Y-14900D01*
X16025Y-25775D02*
X16000Y-25800D01*
X21950Y-25775D02*
X16025Y-25775D01*
X23000Y-24725D02*
X21950Y-25775D01*
X23000Y-23550D02*
X25850Y-23550D01*
X30250Y-22250D02*
X30250Y-20250D01*
X15500Y-23000D02*
X15500Y-21100D01*
X15000Y-20600D02*
X14600Y-20600D01*
X15500Y-21100D02*
X15000Y-20600D01*
X14600Y-29300D02*
X15150Y-29300D01*
X15150Y-29300D02*
X15100Y-29250D01*
X15100Y-29250D02*
X15050Y-29300D01*
X15050Y-29300D02*
X15050Y-28900D01*
X15050Y-28900D02*
X15450Y-28500D01*
X15450Y-28500D02*
X15450Y-26350D01*
X15450Y-26350D02*
X16000Y-25800D01*
X15500Y-23000D02*
X15000Y-23000D01*
X16000Y-23500D02*
X15500Y-23000D01*
X16000Y-25800D02*
X16000Y-23500D01*
X18600Y-30100D02*
X22350Y-30100D01*
X22600Y-30350D02*
X22600Y-30700D01*
X22350Y-30100D02*
X22600Y-30350D01*
X18600Y-30100D02*
X18600Y-30700D01*
X18250Y-29750D02*
X18600Y-30100D01*
X15600Y-29750D02*
X18250Y-29750D01*
X15150Y-29300D02*
X15600Y-29750D01*
X29850Y-13450D02*
X30700Y-12600D01*
X28800Y-13700D02*
X29050Y-13450D01*
X29050Y-13450D02*
X29850Y-13450D01*
X21300Y-13400D02*
X22100Y-12600D01*
X20300Y-13750D02*
X20650Y-13400D01*
X20650Y-13400D02*
X21300Y-13400D01*
X31000Y-19000D02*
X30950Y-19000D01*
X26550Y-18100D02*
X24950Y-18100D01*
X27050Y-18600D02*
X26550Y-18100D01*
X27050Y-19150D02*
X27050Y-18600D01*
X27550Y-19650D02*
X27050Y-19150D01*
X30300Y-19650D02*
X27550Y-19650D01*
X30950Y-19000D02*
X30300Y-19650D01*
X33050Y-26850D02*
X32750Y-26550D01*
X33050Y-28100D02*
X33050Y-26850D01*
X32700Y-28450D02*
X33050Y-28100D01*
X30800Y-28450D02*
X32700Y-28450D01*
X30250Y-27900D02*
X30800Y-28450D01*
X31650Y-27850D02*
X31600Y-27850D01*
X31750Y-27750D02*
X31650Y-27850D01*
X31750Y-25100D02*
X31750Y-27750D01*
X25400Y-27450D02*
X25000Y-27850D01*
X27200Y-27450D02*
X25400Y-27450D01*
X27650Y-27000D02*
X27200Y-27450D01*
X27650Y-25900D02*
X27650Y-27000D01*
X28950Y-24600D02*
X27650Y-25900D01*
X31100Y-24600D02*
X28950Y-24600D01*
X29400Y-25600D02*
X31100Y-25600D01*
X28900Y-26100D02*
X29400Y-25600D01*
X23300Y-27850D02*
X21600Y-27850D01*
X24500Y-26650D02*
X23300Y-27850D01*
X25400Y-26650D02*
X24500Y-26650D01*
X25950Y-26100D02*
X25400Y-26650D01*
X26350Y-26300D02*
X26350Y-25100D01*
X25650Y-27000D02*
X26350Y-26300D01*
X24700Y-27000D02*
X25650Y-27000D01*
X23800Y-27900D02*
X24700Y-27000D01*
X17650Y-26250D02*
X17300Y-26600D01*
X22700Y-26250D02*
X17650Y-26250D01*
X24350Y-24600D02*
X22700Y-26250D01*
X25050Y-24600D02*
X24350Y-24600D01*
X20850Y-26700D02*
X19400Y-26700D01*
X21100Y-26950D02*
X20850Y-26700D01*
X23000Y-26950D02*
X21100Y-26950D01*
X24400Y-25550D02*
X23000Y-26950D01*
X25000Y-25550D02*
X24400Y-25550D01*
X25050Y-25600D02*
X25000Y-25550D01*
X24000Y-19000D02*
X24000Y-18900D01*
X16300Y-14600D02*
X14600Y-14600D01*
X17300Y-15600D02*
X16300Y-14600D01*
X22400Y-15600D02*
X17300Y-15600D01*
X23400Y-16600D02*
X22400Y-15600D01*
X23400Y-18300D02*
X23400Y-16600D01*
X24000Y-18900D02*
X23400Y-18300D01*
X14600Y-18600D02*
X14700Y-18600D01*
X20000Y-18200D02*
X20000Y-19000D01*
X19600Y-17800D02*
X20000Y-18200D01*
X15500Y-17800D02*
X19600Y-17800D01*
X14700Y-18600D02*
X15500Y-17800D01*
X14600Y-15600D02*
X16550Y-15600D01*
X23000Y-16850D02*
X23000Y-19000D01*
X22200Y-16050D02*
X23000Y-16850D01*
X17000Y-16050D02*
X22200Y-16050D01*
X16550Y-15600D02*
X17000Y-16050D01*
X14600Y-19600D02*
X14950Y-19600D01*
X19000Y-18450D02*
X19000Y-19000D01*
X18700Y-18150D02*
X19000Y-18450D01*
X15750Y-18150D02*
X18700Y-18150D01*
X15400Y-18500D02*
X15750Y-18150D01*
X15400Y-19150D02*
X15400Y-18500D01*
X14950Y-19600D02*
X15400Y-19150D01*
X28025Y-20950D02*
X28300Y-20950D01*
X27200Y-20125D02*
X28025Y-20950D01*
X15000Y-25000D02*
X15000Y-25900D01*
X15000Y-25900D02*
X14600Y-26300D01*
X14600Y-26300D02*
X14600Y-26175D01*
X14300Y-21900D02*
X14600Y-21600D01*
X14300Y-25875D02*
X14300Y-21900D01*
X14600Y-26175D02*
X14300Y-25875D01*
X19600Y-30700D02*
X19625Y-30700D01*
X23550Y-30700D02*
X23600Y-30700D01*
X23025Y-31225D02*
X23550Y-30700D01*
X20150Y-31225D02*
X23025Y-31225D01*
X19625Y-30700D02*
X20150Y-31225D01*
X28300Y-20950D02*
X27350Y-21900D01*
X27350Y-21900D02*
X25700Y-21900D01*
X23600Y-22000D02*
X23700Y-21900D01*
X23600Y-22050D02*
X23600Y-22000D01*
X22950Y-22700D02*
X23600Y-22050D01*
X27400Y-13050D02*
X27350Y-13050D01*
X27350Y-13050D02*
X27100Y-13300D01*
X27100Y-13300D02*
X24875Y-13300D01*
X23100Y-13100D02*
X23100Y-12600D01*
X24875Y-13300D02*
X23300Y-13300D01*
X23300Y-13300D02*
X23100Y-13100D01*
X31700Y-12600D02*
X31600Y-12600D01*
X27500Y-13050D02*
X27400Y-13050D01*
X28450Y-12100D02*
X27500Y-13050D01*
X31100Y-12100D02*
X28450Y-12100D01*
X31600Y-12600D02*
X31100Y-12100D01*
X23100Y-12600D02*
X23100Y-12550D01*
X23100Y-12550D02*
X22650Y-12100D01*
X22650Y-12100D02*
X19700Y-12100D01*
X19700Y-12100D02*
X18700Y-13100D01*
X25000Y-19000D02*
X24730Y-19000D01*
X16000Y-13600D02*
X14600Y-13600D01*
X17600Y-15200D02*
X16000Y-13600D01*
X22600Y-15200D02*
X17600Y-15200D01*
X23850Y-16450D02*
X22600Y-15200D01*
X23850Y-18119D02*
X23850Y-16450D01*
X24730Y-19000D02*
X23850Y-18119D01*
X14600Y-17600D02*
X15050Y-17600D01*
X21000Y-18200D02*
X21000Y-19000D01*
X20200Y-17400D02*
X21000Y-18200D01*
X15250Y-17400D02*
X20200Y-17400D01*
X15050Y-17600D02*
X15250Y-17400D01*
X26000Y-19000D02*
X25500Y-18500D01*
X15550Y-12600D02*
X14600Y-12600D01*
X17750Y-14800D02*
X15550Y-12600D01*
X22800Y-14800D02*
X17750Y-14800D01*
X24300Y-16300D02*
X22800Y-14800D01*
X24300Y-18000D02*
X24300Y-16300D01*
X24800Y-18500D02*
X24300Y-18000D01*
X25500Y-18500D02*
X24800Y-18500D01*
X14600Y-16600D02*
X15050Y-16600D01*
X22000Y-18150D02*
X22000Y-19000D01*
X20800Y-16950D02*
X22000Y-18150D01*
X15400Y-16950D02*
X20800Y-16950D01*
X15050Y-16600D02*
X15400Y-16950D01*
X29400Y-17800D02*
X27600Y-17800D01*
X26950Y-17150D02*
X24950Y-17150D01*
X27600Y-17800D02*
X26950Y-17150D01*
X31300Y-17400D02*
X31300Y-16000D01*
X30900Y-17800D02*
X31300Y-17400D01*
X29400Y-17800D02*
X30900Y-17800D01*
X28000Y-19000D02*
X28000Y-18950D01*
X26650Y-17600D02*
X24950Y-17600D01*
X28000Y-18950D02*
X26650Y-17600D01*
X28750Y-18250D02*
X28000Y-19000D01*
X31000Y-18250D02*
X28750Y-18250D01*
X31800Y-17450D02*
X31000Y-18250D01*
X31800Y-16000D02*
X31800Y-17450D01*
X30200Y-17400D02*
X27900Y-17400D01*
X27150Y-16650D02*
X24950Y-16650D01*
X27900Y-17400D02*
X27150Y-16650D01*
X30800Y-17200D02*
X30800Y-16000D01*
X30600Y-17400D02*
X30800Y-17200D01*
X30200Y-17400D02*
X30600Y-17400D01*
X25050Y-23100D02*
X30950Y-23100D01*
X21000Y-23000D02*
X21650Y-23000D01*
X21750Y-23100D02*
X25050Y-23100D01*
X21650Y-23000D02*
X21750Y-23100D01*
X26300Y-24000D02*
X32150Y-24000D01*
X32250Y-23150D02*
X32250Y-23100D01*
X32150Y-23250D02*
X32250Y-23150D01*
X32150Y-24000D02*
X32150Y-23250D01*
X21000Y-24000D02*
X26300Y-24000D01*
G54D10*
G36*
X18193Y-31226D02*
X17266Y-31226D01*
X17411Y-31166D01*
X17565Y-31011D01*
X17649Y-30809D01*
X17650Y-30591D01*
X17566Y-30388D01*
X17411Y-30234D01*
X17209Y-30150D01*
X16991Y-30149D01*
X16788Y-30233D01*
X16634Y-30388D01*
X16600Y-30469D01*
X16566Y-30388D01*
X16411Y-30234D01*
X16209Y-30150D01*
X15991Y-30149D01*
X15788Y-30233D01*
X15650Y-30372D01*
X15650Y-30350D01*
X15612Y-30258D01*
X15541Y-30188D01*
X15449Y-30150D01*
X15350Y-30149D01*
X14750Y-30149D01*
X14658Y-30187D01*
X14588Y-30258D01*
X14550Y-30350D01*
X14549Y-30449D01*
X14549Y-31049D01*
X14587Y-31141D01*
X14658Y-31211D01*
X14693Y-31226D01*
X14049Y-31226D01*
X14049Y-12080D01*
X14416Y-12080D01*
X14288Y-12133D01*
X14134Y-12288D01*
X14050Y-12490D01*
X14049Y-12708D01*
X14133Y-12911D01*
X14288Y-13065D01*
X14369Y-13099D01*
X14288Y-13133D01*
X14134Y-13288D01*
X14050Y-13490D01*
X14049Y-13708D01*
X14133Y-13911D01*
X14288Y-14065D01*
X14369Y-14099D01*
X14288Y-14133D01*
X14134Y-14288D01*
X14050Y-14490D01*
X14049Y-14708D01*
X14133Y-14911D01*
X14272Y-15049D01*
X14250Y-15049D01*
X14158Y-15087D01*
X14088Y-15158D01*
X14050Y-15250D01*
X14049Y-15349D01*
X14049Y-15949D01*
X14087Y-16041D01*
X14158Y-16111D01*
X14250Y-16149D01*
X14272Y-16149D01*
X14134Y-16288D01*
X14050Y-16490D01*
X14049Y-16708D01*
X14133Y-16911D01*
X14288Y-17065D01*
X14369Y-17099D01*
X14288Y-17133D01*
X14134Y-17288D01*
X14050Y-17490D01*
X14049Y-17708D01*
X14133Y-17911D01*
X14288Y-18065D01*
X14369Y-18099D01*
X14288Y-18133D01*
X14134Y-18288D01*
X14050Y-18490D01*
X14049Y-18708D01*
X14133Y-18911D01*
X14272Y-19049D01*
X14250Y-19049D01*
X14158Y-19087D01*
X14088Y-19158D01*
X14050Y-19250D01*
X14049Y-19349D01*
X14049Y-19949D01*
X14087Y-20041D01*
X14158Y-20111D01*
X14250Y-20149D01*
X14272Y-20149D01*
X14134Y-20288D01*
X14050Y-20490D01*
X14049Y-20708D01*
X14133Y-20911D01*
X14272Y-21050D01*
X14250Y-21050D01*
X14158Y-21088D01*
X14087Y-21158D01*
X14049Y-21250D01*
X14050Y-21487D01*
X14112Y-21550D01*
X14550Y-21550D01*
X14550Y-21542D01*
X14650Y-21542D01*
X14650Y-21550D01*
X15087Y-21550D01*
X15150Y-21487D01*
X15150Y-21250D01*
X15144Y-21237D01*
X15151Y-21244D01*
X15151Y-22467D01*
X15150Y-22466D01*
X15150Y-21949D01*
X15150Y-21712D01*
X15087Y-21650D01*
X14650Y-21650D01*
X14650Y-22087D01*
X14712Y-22150D01*
X14850Y-22150D01*
X14949Y-22149D01*
X15041Y-22111D01*
X15112Y-22041D01*
X15150Y-21949D01*
X15150Y-22466D01*
X15109Y-22450D01*
X14891Y-22449D01*
X14688Y-22533D01*
X14550Y-22672D01*
X14550Y-22087D01*
X14550Y-21650D01*
X14112Y-21650D01*
X14050Y-21712D01*
X14049Y-21949D01*
X14087Y-22041D01*
X14158Y-22111D01*
X14250Y-22149D01*
X14349Y-22150D01*
X14487Y-22150D01*
X14550Y-22087D01*
X14550Y-22672D01*
X14534Y-22688D01*
X14450Y-22890D01*
X14449Y-23108D01*
X14533Y-23311D01*
X14688Y-23465D01*
X14769Y-23499D01*
X14688Y-23533D01*
X14534Y-23688D01*
X14450Y-23890D01*
X14449Y-24108D01*
X14533Y-24311D01*
X14672Y-24450D01*
X14650Y-24450D01*
X14558Y-24488D01*
X14487Y-24558D01*
X14449Y-24650D01*
X14450Y-24887D01*
X14512Y-24950D01*
X14950Y-24950D01*
X14950Y-24942D01*
X15050Y-24942D01*
X15050Y-24950D01*
X15487Y-24950D01*
X15550Y-24887D01*
X15550Y-24650D01*
X15512Y-24558D01*
X15441Y-24488D01*
X15349Y-24450D01*
X15327Y-24450D01*
X15465Y-24311D01*
X15549Y-24109D01*
X15550Y-23891D01*
X15466Y-23688D01*
X15311Y-23534D01*
X15230Y-23500D01*
X15311Y-23466D01*
X15392Y-23385D01*
X15651Y-23644D01*
X15651Y-25655D01*
X15550Y-25757D01*
X15550Y-25349D01*
X15550Y-25112D01*
X15487Y-25050D01*
X15050Y-25050D01*
X15050Y-25487D01*
X15112Y-25550D01*
X15250Y-25550D01*
X15349Y-25549D01*
X15441Y-25511D01*
X15512Y-25441D01*
X15550Y-25349D01*
X15550Y-25757D01*
X15203Y-26103D01*
X15150Y-26183D01*
X15150Y-25950D01*
X15112Y-25858D01*
X15041Y-25788D01*
X14950Y-25750D01*
X14950Y-25487D01*
X14950Y-25050D01*
X14512Y-25050D01*
X14450Y-25112D01*
X14449Y-25349D01*
X14487Y-25441D01*
X14558Y-25511D01*
X14650Y-25549D01*
X14749Y-25550D01*
X14887Y-25550D01*
X14950Y-25487D01*
X14950Y-25750D01*
X14949Y-25750D01*
X14850Y-25749D01*
X14712Y-25750D01*
X14650Y-25812D01*
X14650Y-26250D01*
X14657Y-26250D01*
X14657Y-26350D01*
X14650Y-26350D01*
X14650Y-26357D01*
X14550Y-26357D01*
X14550Y-26350D01*
X14550Y-26250D01*
X14550Y-25812D01*
X14487Y-25750D01*
X14349Y-25749D01*
X14250Y-25750D01*
X14158Y-25788D01*
X14087Y-25858D01*
X14049Y-25950D01*
X14050Y-26187D01*
X14112Y-26250D01*
X14550Y-26250D01*
X14550Y-26350D01*
X14112Y-26350D01*
X14050Y-26412D01*
X14049Y-26649D01*
X14087Y-26741D01*
X14158Y-26811D01*
X14250Y-26849D01*
X14272Y-26849D01*
X14134Y-26988D01*
X14050Y-27190D01*
X14049Y-27408D01*
X14133Y-27611D01*
X14288Y-27765D01*
X14369Y-27799D01*
X14288Y-27833D01*
X14134Y-27988D01*
X14050Y-28190D01*
X14049Y-28408D01*
X14133Y-28611D01*
X14288Y-28765D01*
X14369Y-28799D01*
X14288Y-28833D01*
X14134Y-28988D01*
X14050Y-29190D01*
X14049Y-29408D01*
X14133Y-29611D01*
X14288Y-29765D01*
X14490Y-29849D01*
X14708Y-29850D01*
X14911Y-29766D01*
X15017Y-29660D01*
X15353Y-29996D01*
X15353Y-29996D01*
X15466Y-30071D01*
X15600Y-30098D01*
X15600Y-30098D01*
X15600Y-30098D01*
X18105Y-30098D01*
X18184Y-30177D01*
X18158Y-30187D01*
X18088Y-30258D01*
X18050Y-30350D01*
X18049Y-30449D01*
X18049Y-31049D01*
X18087Y-31141D01*
X18158Y-31211D01*
X18193Y-31226D01*
X18193Y-31226D01*
G37*
G54D15*
X18193Y-31226D02*
X17266Y-31226D01*
X17411Y-31166D01*
X17565Y-31011D01*
X17649Y-30809D01*
X17650Y-30591D01*
X17566Y-30388D01*
X17411Y-30234D01*
X17209Y-30150D01*
X16991Y-30149D01*
X16788Y-30233D01*
X16634Y-30388D01*
X16600Y-30469D01*
X16566Y-30388D01*
X16411Y-30234D01*
X16209Y-30150D01*
X15991Y-30149D01*
X15788Y-30233D01*
X15650Y-30372D01*
X15650Y-30350D01*
X15612Y-30258D01*
X15541Y-30188D01*
X15449Y-30150D01*
X15350Y-30149D01*
X14750Y-30149D01*
X14658Y-30187D01*
X14588Y-30258D01*
X14550Y-30350D01*
X14549Y-30449D01*
X14549Y-31049D01*
X14587Y-31141D01*
X14658Y-31211D01*
X14693Y-31226D01*
X14049Y-31226D01*
X14049Y-12080D01*
X14416Y-12080D01*
X14288Y-12133D01*
X14134Y-12288D01*
X14050Y-12490D01*
X14049Y-12708D01*
X14133Y-12911D01*
X14288Y-13065D01*
X14369Y-13099D01*
X14288Y-13133D01*
X14134Y-13288D01*
X14050Y-13490D01*
X14049Y-13708D01*
X14133Y-13911D01*
X14288Y-14065D01*
X14369Y-14099D01*
X14288Y-14133D01*
X14134Y-14288D01*
X14050Y-14490D01*
X14049Y-14708D01*
X14133Y-14911D01*
X14272Y-15049D01*
X14250Y-15049D01*
X14158Y-15087D01*
X14088Y-15158D01*
X14050Y-15250D01*
X14049Y-15349D01*
X14049Y-15949D01*
X14087Y-16041D01*
X14158Y-16111D01*
X14250Y-16149D01*
X14272Y-16149D01*
X14134Y-16288D01*
X14050Y-16490D01*
X14049Y-16708D01*
X14133Y-16911D01*
X14288Y-17065D01*
X14369Y-17099D01*
X14288Y-17133D01*
X14134Y-17288D01*
X14050Y-17490D01*
X14049Y-17708D01*
X14133Y-17911D01*
X14288Y-18065D01*
X14369Y-18099D01*
X14288Y-18133D01*
X14134Y-18288D01*
X14050Y-18490D01*
X14049Y-18708D01*
X14133Y-18911D01*
X14272Y-19049D01*
X14250Y-19049D01*
X14158Y-19087D01*
X14088Y-19158D01*
X14050Y-19250D01*
X14049Y-19349D01*
X14049Y-19949D01*
X14087Y-20041D01*
X14158Y-20111D01*
X14250Y-20149D01*
X14272Y-20149D01*
X14134Y-20288D01*
X14050Y-20490D01*
X14049Y-20708D01*
X14133Y-20911D01*
X14272Y-21050D01*
X14250Y-21050D01*
X14158Y-21088D01*
X14087Y-21158D01*
X14049Y-21250D01*
X14050Y-21487D01*
X14112Y-21550D01*
X14550Y-21550D01*
X14550Y-21542D01*
X14650Y-21542D01*
X14650Y-21550D01*
X15087Y-21550D01*
X15150Y-21487D01*
X15150Y-21250D01*
X15144Y-21237D01*
X15151Y-21244D01*
X15151Y-22467D01*
X15150Y-22466D01*
X15150Y-21949D01*
X15150Y-21712D01*
X15087Y-21650D01*
X14650Y-21650D01*
X14650Y-22087D01*
X14712Y-22150D01*
X14850Y-22150D01*
X14949Y-22149D01*
X15041Y-22111D01*
X15112Y-22041D01*
X15150Y-21949D01*
X15150Y-22466D01*
X15109Y-22450D01*
X14891Y-22449D01*
X14688Y-22533D01*
X14550Y-22672D01*
X14550Y-22087D01*
X14550Y-21650D01*
X14112Y-21650D01*
X14050Y-21712D01*
X14049Y-21949D01*
X14087Y-22041D01*
X14158Y-22111D01*
X14250Y-22149D01*
X14349Y-22150D01*
X14487Y-22150D01*
X14550Y-22087D01*
X14550Y-22672D01*
X14534Y-22688D01*
X14450Y-22890D01*
X14449Y-23108D01*
X14533Y-23311D01*
X14688Y-23465D01*
X14769Y-23499D01*
X14688Y-23533D01*
X14534Y-23688D01*
X14450Y-23890D01*
X14449Y-24108D01*
X14533Y-24311D01*
X14672Y-24450D01*
X14650Y-24450D01*
X14558Y-24488D01*
X14487Y-24558D01*
X14449Y-24650D01*
X14450Y-24887D01*
X14512Y-24950D01*
X14950Y-24950D01*
X14950Y-24942D01*
X15050Y-24942D01*
X15050Y-24950D01*
X15487Y-24950D01*
X15550Y-24887D01*
X15550Y-24650D01*
X15512Y-24558D01*
X15441Y-24488D01*
X15349Y-24450D01*
X15327Y-24450D01*
X15465Y-24311D01*
X15549Y-24109D01*
X15550Y-23891D01*
X15466Y-23688D01*
X15311Y-23534D01*
X15230Y-23500D01*
X15311Y-23466D01*
X15392Y-23385D01*
X15651Y-23644D01*
X15651Y-25655D01*
X15550Y-25757D01*
X15550Y-25349D01*
X15550Y-25112D01*
X15487Y-25050D01*
X15050Y-25050D01*
X15050Y-25487D01*
X15112Y-25550D01*
X15250Y-25550D01*
X15349Y-25549D01*
X15441Y-25511D01*
X15512Y-25441D01*
X15550Y-25349D01*
X15550Y-25757D01*
X15203Y-26103D01*
X15150Y-26183D01*
X15150Y-25950D01*
X15112Y-25858D01*
X15041Y-25788D01*
X14950Y-25750D01*
X14950Y-25487D01*
X14950Y-25050D01*
X14512Y-25050D01*
X14450Y-25112D01*
X14449Y-25349D01*
X14487Y-25441D01*
X14558Y-25511D01*
X14650Y-25549D01*
X14749Y-25550D01*
X14887Y-25550D01*
X14950Y-25487D01*
X14950Y-25750D01*
X14949Y-25750D01*
X14850Y-25749D01*
X14712Y-25750D01*
X14650Y-25812D01*
X14650Y-26250D01*
X14657Y-26250D01*
X14657Y-26350D01*
X14650Y-26350D01*
X14650Y-26357D01*
X14550Y-26357D01*
X14550Y-26350D01*
X14550Y-26250D01*
X14550Y-25812D01*
X14487Y-25750D01*
X14349Y-25749D01*
X14250Y-25750D01*
X14158Y-25788D01*
X14087Y-25858D01*
X14049Y-25950D01*
X14050Y-26187D01*
X14112Y-26250D01*
X14550Y-26250D01*
X14550Y-26350D01*
X14112Y-26350D01*
X14050Y-26412D01*
X14049Y-26649D01*
X14087Y-26741D01*
X14158Y-26811D01*
X14250Y-26849D01*
X14272Y-26849D01*
X14134Y-26988D01*
X14050Y-27190D01*
X14049Y-27408D01*
X14133Y-27611D01*
X14288Y-27765D01*
X14369Y-27799D01*
X14288Y-27833D01*
X14134Y-27988D01*
X14050Y-28190D01*
X14049Y-28408D01*
X14133Y-28611D01*
X14288Y-28765D01*
X14369Y-28799D01*
X14288Y-28833D01*
X14134Y-28988D01*
X14050Y-29190D01*
X14049Y-29408D01*
X14133Y-29611D01*
X14288Y-29765D01*
X14490Y-29849D01*
X14708Y-29850D01*
X14911Y-29766D01*
X15017Y-29660D01*
X15353Y-29996D01*
X15353Y-29996D01*
X15466Y-30071D01*
X15600Y-30098D01*
X15600Y-30098D01*
X15600Y-30098D01*
X18105Y-30098D01*
X18184Y-30177D01*
X18158Y-30187D01*
X18088Y-30258D01*
X18050Y-30350D01*
X18049Y-30449D01*
X18049Y-31049D01*
X18087Y-31141D01*
X18158Y-31211D01*
X18193Y-31226D01*
G54D10*
G36*
X20433Y-31226D02*
X19778Y-31226D01*
X19887Y-31181D01*
X19915Y-31085D01*
X19600Y-30770D01*
X19284Y-31085D01*
X19312Y-31181D01*
X19438Y-31226D01*
X19006Y-31226D01*
X19041Y-31212D01*
X19111Y-31141D01*
X19149Y-31049D01*
X19150Y-30996D01*
X19214Y-31015D01*
X19529Y-30700D01*
X19523Y-30694D01*
X19594Y-30623D01*
X19600Y-30629D01*
X19605Y-30623D01*
X19676Y-30694D01*
X19670Y-30700D01*
X19985Y-31015D01*
X20081Y-30987D01*
X20100Y-30932D01*
X20133Y-31011D01*
X20288Y-31165D01*
X20433Y-31226D01*
X20433Y-31226D01*
G37*
G54D15*
X20433Y-31226D02*
X19778Y-31226D01*
X19887Y-31181D01*
X19915Y-31085D01*
X19600Y-30770D01*
X19284Y-31085D01*
X19312Y-31181D01*
X19438Y-31226D01*
X19006Y-31226D01*
X19041Y-31212D01*
X19111Y-31141D01*
X19149Y-31049D01*
X19150Y-30996D01*
X19214Y-31015D01*
X19529Y-30700D01*
X19523Y-30694D01*
X19594Y-30623D01*
X19600Y-30629D01*
X19605Y-30623D01*
X19676Y-30694D01*
X19670Y-30700D01*
X19985Y-31015D01*
X20081Y-30987D01*
X20100Y-30932D01*
X20133Y-31011D01*
X20288Y-31165D01*
X20433Y-31226D01*
G54D10*
G36*
X29473Y-13101D02*
X29050Y-13101D01*
X28916Y-13128D01*
X28803Y-13203D01*
X28803Y-13203D01*
X28732Y-13274D01*
X28715Y-13274D01*
X28559Y-13339D01*
X28547Y-13351D01*
X21841Y-13351D01*
X22042Y-13149D01*
X22208Y-13150D01*
X22411Y-13066D01*
X22550Y-12927D01*
X22550Y-12949D01*
X22588Y-13041D01*
X22658Y-13112D01*
X22750Y-13150D01*
X22987Y-13150D01*
X23050Y-13087D01*
X23050Y-12650D01*
X23042Y-12650D01*
X23042Y-12550D01*
X23050Y-12550D01*
X23050Y-12542D01*
X23150Y-12542D01*
X23150Y-12550D01*
X23157Y-12550D01*
X23157Y-12650D01*
X23150Y-12650D01*
X23150Y-13087D01*
X23212Y-13150D01*
X23449Y-13150D01*
X23541Y-13112D01*
X23600Y-13053D01*
X23658Y-13111D01*
X23750Y-13149D01*
X23849Y-13150D01*
X24449Y-13150D01*
X24541Y-13112D01*
X24611Y-13041D01*
X24649Y-12949D01*
X24650Y-12850D01*
X24650Y-12250D01*
X24612Y-12158D01*
X24541Y-12088D01*
X24523Y-12080D01*
X28516Y-12080D01*
X28388Y-12133D01*
X28234Y-12288D01*
X28150Y-12490D01*
X28149Y-12708D01*
X28233Y-12911D01*
X28388Y-13065D01*
X28590Y-13149D01*
X28808Y-13150D01*
X29011Y-13066D01*
X29165Y-12911D01*
X29199Y-12830D01*
X29233Y-12911D01*
X29388Y-13065D01*
X29473Y-13101D01*
X29473Y-13101D01*
G37*
G54D15*
X29473Y-13101D02*
X29050Y-13101D01*
X28916Y-13128D01*
X28803Y-13203D01*
X28803Y-13203D01*
X28732Y-13274D01*
X28715Y-13274D01*
X28559Y-13339D01*
X28547Y-13351D01*
X21841Y-13351D01*
X22042Y-13149D01*
X22208Y-13150D01*
X22411Y-13066D01*
X22550Y-12927D01*
X22550Y-12949D01*
X22588Y-13041D01*
X22658Y-13112D01*
X22750Y-13150D01*
X22987Y-13150D01*
X23050Y-13087D01*
X23050Y-12650D01*
X23042Y-12650D01*
X23042Y-12550D01*
X23050Y-12550D01*
X23050Y-12542D01*
X23150Y-12542D01*
X23150Y-12550D01*
X23157Y-12550D01*
X23157Y-12650D01*
X23150Y-12650D01*
X23150Y-13087D01*
X23212Y-13150D01*
X23449Y-13150D01*
X23541Y-13112D01*
X23600Y-13053D01*
X23658Y-13111D01*
X23750Y-13149D01*
X23849Y-13150D01*
X24449Y-13150D01*
X24541Y-13112D01*
X24611Y-13041D01*
X24649Y-12949D01*
X24650Y-12850D01*
X24650Y-12250D01*
X24612Y-12158D01*
X24541Y-12088D01*
X24523Y-12080D01*
X28516Y-12080D01*
X28388Y-12133D01*
X28234Y-12288D01*
X28150Y-12490D01*
X28149Y-12708D01*
X28233Y-12911D01*
X28388Y-13065D01*
X28590Y-13149D01*
X28808Y-13150D01*
X29011Y-13066D01*
X29165Y-12911D01*
X29199Y-12830D01*
X29233Y-12911D01*
X29388Y-13065D01*
X29473Y-13101D01*
G54D10*
G36*
X31276Y-12080D02*
X31258Y-12087D01*
X31188Y-12158D01*
X31150Y-12250D01*
X31150Y-12272D01*
X31011Y-12134D01*
X30883Y-12080D01*
X31276Y-12080D01*
X31276Y-12080D01*
G37*
G54D15*
X31276Y-12080D02*
X31258Y-12087D01*
X31188Y-12158D01*
X31150Y-12250D01*
X31150Y-12272D01*
X31011Y-12134D01*
X30883Y-12080D01*
X31276Y-12080D01*
G54D10*
G36*
X32526Y-18834D02*
X32466Y-18688D01*
X32311Y-18534D01*
X32109Y-18450D01*
X31891Y-18449D01*
X31688Y-18533D01*
X31534Y-18688D01*
X31500Y-18769D01*
X31466Y-18688D01*
X31311Y-18534D01*
X31236Y-18502D01*
X31246Y-18496D01*
X32046Y-17696D01*
X32046Y-17696D01*
X32046Y-17696D01*
X32121Y-17583D01*
X32148Y-17450D01*
X32148Y-17450D01*
X32148Y-17450D01*
X32148Y-16252D01*
X32160Y-16241D01*
X32224Y-16084D01*
X32225Y-15915D01*
X32160Y-15759D01*
X32041Y-15639D01*
X31884Y-15575D01*
X31715Y-15574D01*
X31559Y-15639D01*
X31550Y-15648D01*
X31541Y-15639D01*
X31384Y-15575D01*
X31215Y-15574D01*
X31059Y-15639D01*
X31050Y-15648D01*
X31041Y-15639D01*
X30884Y-15575D01*
X30715Y-15574D01*
X30559Y-15639D01*
X30439Y-15758D01*
X30375Y-15915D01*
X30374Y-16084D01*
X30439Y-16240D01*
X30451Y-16252D01*
X30451Y-17050D01*
X30441Y-17039D01*
X30284Y-16975D01*
X30115Y-16974D01*
X29959Y-17039D01*
X29947Y-17051D01*
X28044Y-17051D01*
X27396Y-16403D01*
X27283Y-16328D01*
X27261Y-16323D01*
X27150Y-16301D01*
X27149Y-16301D01*
X25202Y-16301D01*
X25191Y-16289D01*
X25034Y-16225D01*
X24865Y-16224D01*
X24709Y-16289D01*
X24648Y-16350D01*
X24648Y-16300D01*
X24621Y-16166D01*
X24546Y-16053D01*
X24546Y-16053D01*
X23046Y-14553D01*
X22933Y-14478D01*
X22911Y-14473D01*
X22800Y-14451D01*
X22799Y-14451D01*
X17894Y-14451D01*
X15796Y-12353D01*
X15683Y-12278D01*
X15661Y-12273D01*
X15550Y-12251D01*
X15549Y-12251D01*
X15029Y-12251D01*
X14911Y-12134D01*
X14783Y-12080D01*
X19916Y-12080D01*
X19788Y-12133D01*
X19634Y-12288D01*
X19550Y-12490D01*
X19549Y-12708D01*
X19633Y-12911D01*
X19788Y-13065D01*
X19990Y-13149D01*
X20208Y-13150D01*
X20411Y-13066D01*
X20565Y-12911D01*
X20599Y-12830D01*
X20633Y-12911D01*
X20773Y-13051D01*
X20650Y-13051D01*
X20649Y-13051D01*
X20516Y-13078D01*
X20403Y-13153D01*
X20403Y-13153D01*
X20232Y-13324D01*
X20215Y-13324D01*
X20059Y-13389D01*
X19939Y-13508D01*
X19875Y-13665D01*
X19874Y-13834D01*
X19939Y-13990D01*
X20058Y-14110D01*
X20215Y-14174D01*
X20384Y-14175D01*
X20540Y-14110D01*
X20602Y-14048D01*
X28451Y-14048D01*
X28451Y-14224D01*
X28451Y-14225D01*
X28473Y-14336D01*
X28478Y-14358D01*
X28553Y-14471D01*
X29228Y-15146D01*
X29228Y-15146D01*
X29341Y-15221D01*
X29475Y-15248D01*
X29475Y-15248D01*
X29475Y-15248D01*
X29522Y-15248D01*
X29533Y-15260D01*
X29690Y-15324D01*
X29859Y-15325D01*
X30015Y-15260D01*
X30027Y-15248D01*
X31705Y-15248D01*
X32526Y-16069D01*
X32526Y-18834D01*
X32526Y-18834D01*
G37*
G54D15*
X32526Y-18834D02*
X32466Y-18688D01*
X32311Y-18534D01*
X32109Y-18450D01*
X31891Y-18449D01*
X31688Y-18533D01*
X31534Y-18688D01*
X31500Y-18769D01*
X31466Y-18688D01*
X31311Y-18534D01*
X31236Y-18502D01*
X31246Y-18496D01*
X32046Y-17696D01*
X32046Y-17696D01*
X32046Y-17696D01*
X32121Y-17583D01*
X32148Y-17450D01*
X32148Y-17450D01*
X32148Y-17450D01*
X32148Y-16252D01*
X32160Y-16241D01*
X32224Y-16084D01*
X32225Y-15915D01*
X32160Y-15759D01*
X32041Y-15639D01*
X31884Y-15575D01*
X31715Y-15574D01*
X31559Y-15639D01*
X31550Y-15648D01*
X31541Y-15639D01*
X31384Y-15575D01*
X31215Y-15574D01*
X31059Y-15639D01*
X31050Y-15648D01*
X31041Y-15639D01*
X30884Y-15575D01*
X30715Y-15574D01*
X30559Y-15639D01*
X30439Y-15758D01*
X30375Y-15915D01*
X30374Y-16084D01*
X30439Y-16240D01*
X30451Y-16252D01*
X30451Y-17050D01*
X30441Y-17039D01*
X30284Y-16975D01*
X30115Y-16974D01*
X29959Y-17039D01*
X29947Y-17051D01*
X28044Y-17051D01*
X27396Y-16403D01*
X27283Y-16328D01*
X27261Y-16323D01*
X27150Y-16301D01*
X27149Y-16301D01*
X25202Y-16301D01*
X25191Y-16289D01*
X25034Y-16225D01*
X24865Y-16224D01*
X24709Y-16289D01*
X24648Y-16350D01*
X24648Y-16300D01*
X24621Y-16166D01*
X24546Y-16053D01*
X24546Y-16053D01*
X23046Y-14553D01*
X22933Y-14478D01*
X22911Y-14473D01*
X22800Y-14451D01*
X22799Y-14451D01*
X17894Y-14451D01*
X15796Y-12353D01*
X15683Y-12278D01*
X15661Y-12273D01*
X15550Y-12251D01*
X15549Y-12251D01*
X15029Y-12251D01*
X14911Y-12134D01*
X14783Y-12080D01*
X19916Y-12080D01*
X19788Y-12133D01*
X19634Y-12288D01*
X19550Y-12490D01*
X19549Y-12708D01*
X19633Y-12911D01*
X19788Y-13065D01*
X19990Y-13149D01*
X20208Y-13150D01*
X20411Y-13066D01*
X20565Y-12911D01*
X20599Y-12830D01*
X20633Y-12911D01*
X20773Y-13051D01*
X20650Y-13051D01*
X20649Y-13051D01*
X20516Y-13078D01*
X20403Y-13153D01*
X20403Y-13153D01*
X20232Y-13324D01*
X20215Y-13324D01*
X20059Y-13389D01*
X19939Y-13508D01*
X19875Y-13665D01*
X19874Y-13834D01*
X19939Y-13990D01*
X20058Y-14110D01*
X20215Y-14174D01*
X20384Y-14175D01*
X20540Y-14110D01*
X20602Y-14048D01*
X28451Y-14048D01*
X28451Y-14224D01*
X28451Y-14225D01*
X28473Y-14336D01*
X28478Y-14358D01*
X28553Y-14471D01*
X29228Y-15146D01*
X29228Y-15146D01*
X29341Y-15221D01*
X29475Y-15248D01*
X29475Y-15248D01*
X29475Y-15248D01*
X29522Y-15248D01*
X29533Y-15260D01*
X29690Y-15324D01*
X29859Y-15325D01*
X30015Y-15260D01*
X30027Y-15248D01*
X31705Y-15248D01*
X32526Y-16069D01*
X32526Y-18834D01*
G54D10*
G36*
X33194Y-15788D02*
X33121Y-15678D01*
X33121Y-15678D01*
X32096Y-14653D01*
X31983Y-14578D01*
X31961Y-14573D01*
X31850Y-14551D01*
X31849Y-14551D01*
X30027Y-14551D01*
X30016Y-14539D01*
X29859Y-14475D01*
X29690Y-14474D01*
X29585Y-14518D01*
X29148Y-14080D01*
X29148Y-13952D01*
X29160Y-13941D01*
X29219Y-13798D01*
X29849Y-13798D01*
X29850Y-13798D01*
X29850Y-13798D01*
X29961Y-13776D01*
X29983Y-13771D01*
X29983Y-13771D01*
X30096Y-13696D01*
X30642Y-13149D01*
X30808Y-13150D01*
X31011Y-13066D01*
X31150Y-12927D01*
X31150Y-12949D01*
X31188Y-13041D01*
X31258Y-13112D01*
X31350Y-13150D01*
X31587Y-13150D01*
X31650Y-13087D01*
X31650Y-12650D01*
X31642Y-12650D01*
X31642Y-12550D01*
X31650Y-12550D01*
X31650Y-12542D01*
X31750Y-12542D01*
X31750Y-12550D01*
X31757Y-12550D01*
X31757Y-12650D01*
X31750Y-12650D01*
X31750Y-13087D01*
X31812Y-13150D01*
X32049Y-13150D01*
X32141Y-13112D01*
X32200Y-13053D01*
X32258Y-13111D01*
X32350Y-13149D01*
X32449Y-13150D01*
X33049Y-13150D01*
X33141Y-13112D01*
X33194Y-13058D01*
X33194Y-15788D01*
X33194Y-15788D01*
G37*
G54D15*
X33194Y-15788D02*
X33121Y-15678D01*
X33121Y-15678D01*
X32096Y-14653D01*
X31983Y-14578D01*
X31961Y-14573D01*
X31850Y-14551D01*
X31849Y-14551D01*
X30027Y-14551D01*
X30016Y-14539D01*
X29859Y-14475D01*
X29690Y-14474D01*
X29585Y-14518D01*
X29148Y-14080D01*
X29148Y-13952D01*
X29160Y-13941D01*
X29219Y-13798D01*
X29849Y-13798D01*
X29850Y-13798D01*
X29850Y-13798D01*
X29961Y-13776D01*
X29983Y-13771D01*
X29983Y-13771D01*
X30096Y-13696D01*
X30642Y-13149D01*
X30808Y-13150D01*
X31011Y-13066D01*
X31150Y-12927D01*
X31150Y-12949D01*
X31188Y-13041D01*
X31258Y-13112D01*
X31350Y-13150D01*
X31587Y-13150D01*
X31650Y-13087D01*
X31650Y-12650D01*
X31642Y-12650D01*
X31642Y-12550D01*
X31650Y-12550D01*
X31650Y-12542D01*
X31750Y-12542D01*
X31750Y-12550D01*
X31757Y-12550D01*
X31757Y-12650D01*
X31750Y-12650D01*
X31750Y-13087D01*
X31812Y-13150D01*
X32049Y-13150D01*
X32141Y-13112D01*
X32200Y-13053D01*
X32258Y-13111D01*
X32350Y-13149D01*
X32449Y-13150D01*
X33049Y-13150D01*
X33141Y-13112D01*
X33194Y-13058D01*
X33194Y-15788D01*
G54D10*
G36*
X33194Y-26502D02*
X33175Y-26482D01*
X33175Y-26465D01*
X33110Y-26309D01*
X32991Y-26189D01*
X32834Y-26125D01*
X32665Y-26124D01*
X32509Y-26189D01*
X32498Y-26200D01*
X32498Y-24902D01*
X32560Y-24841D01*
X32624Y-24684D01*
X32625Y-24515D01*
X32560Y-24359D01*
X32441Y-24239D01*
X32409Y-24226D01*
X32471Y-24133D01*
X32498Y-24000D01*
X32498Y-23452D01*
X32610Y-23341D01*
X32674Y-23184D01*
X32675Y-23015D01*
X32610Y-22859D01*
X32491Y-22739D01*
X32334Y-22675D01*
X32165Y-22674D01*
X32009Y-22739D01*
X31889Y-22858D01*
X31825Y-23015D01*
X31824Y-23132D01*
X31823Y-23138D01*
X31801Y-23250D01*
X31801Y-23250D01*
X31801Y-23651D01*
X26552Y-23651D01*
X26541Y-23639D01*
X26384Y-23575D01*
X26274Y-23574D01*
X26275Y-23465D01*
X26267Y-23448D01*
X30697Y-23448D01*
X30708Y-23460D01*
X30865Y-23524D01*
X31034Y-23525D01*
X31190Y-23460D01*
X31310Y-23341D01*
X31374Y-23184D01*
X31375Y-23015D01*
X31310Y-22859D01*
X31191Y-22739D01*
X31034Y-22675D01*
X30865Y-22674D01*
X30709Y-22739D01*
X30697Y-22751D01*
X25302Y-22751D01*
X25291Y-22739D01*
X25134Y-22675D01*
X24965Y-22674D01*
X24809Y-22739D01*
X24797Y-22751D01*
X21893Y-22751D01*
X21783Y-22678D01*
X21761Y-22673D01*
X21650Y-22651D01*
X21649Y-22651D01*
X21429Y-22651D01*
X21311Y-22534D01*
X21109Y-22450D01*
X20891Y-22449D01*
X20688Y-22533D01*
X20534Y-22688D01*
X20450Y-22890D01*
X20449Y-23108D01*
X20533Y-23311D01*
X20672Y-23449D01*
X20650Y-23449D01*
X20558Y-23487D01*
X20488Y-23558D01*
X20450Y-23650D01*
X20449Y-23749D01*
X20449Y-24349D01*
X20487Y-24441D01*
X20558Y-24511D01*
X20650Y-24549D01*
X20749Y-24550D01*
X21349Y-24550D01*
X21441Y-24512D01*
X21511Y-24441D01*
X21549Y-24349D01*
X21549Y-24348D01*
X22798Y-24348D01*
X22759Y-24364D01*
X22639Y-24483D01*
X22580Y-24626D01*
X21805Y-25401D01*
X21552Y-25401D01*
X21541Y-25389D01*
X21384Y-25325D01*
X21215Y-25324D01*
X21059Y-25389D01*
X21022Y-25426D01*
X19527Y-25426D01*
X19491Y-25389D01*
X19334Y-25325D01*
X19165Y-25324D01*
X19009Y-25389D01*
X18972Y-25426D01*
X16348Y-25426D01*
X16348Y-23500D01*
X16348Y-23500D01*
X16348Y-23500D01*
X16321Y-23366D01*
X16246Y-23253D01*
X16246Y-23253D01*
X15848Y-22855D01*
X15848Y-21100D01*
X15848Y-21100D01*
X15848Y-21100D01*
X15821Y-20966D01*
X15746Y-20853D01*
X15746Y-20853D01*
X15246Y-20353D01*
X15133Y-20278D01*
X15111Y-20273D01*
X15036Y-20258D01*
X14927Y-20150D01*
X14949Y-20150D01*
X15041Y-20112D01*
X15111Y-20041D01*
X15149Y-19949D01*
X15150Y-19877D01*
X15196Y-19846D01*
X15544Y-19498D01*
X15546Y-19500D01*
X15488Y-19558D01*
X15450Y-19650D01*
X15449Y-19749D01*
X15449Y-20349D01*
X15487Y-20441D01*
X15558Y-20511D01*
X15650Y-20549D01*
X15749Y-20550D01*
X16349Y-20550D01*
X16441Y-20512D01*
X16511Y-20441D01*
X16549Y-20349D01*
X16549Y-20327D01*
X16688Y-20465D01*
X16890Y-20549D01*
X17108Y-20550D01*
X17311Y-20466D01*
X17465Y-20311D01*
X17549Y-20109D01*
X17550Y-19891D01*
X17466Y-19688D01*
X17311Y-19534D01*
X17230Y-19500D01*
X17311Y-19466D01*
X17465Y-19311D01*
X17549Y-19109D01*
X17550Y-18891D01*
X17466Y-18688D01*
X17311Y-18534D01*
X17226Y-18498D01*
X18548Y-18498D01*
X18488Y-18558D01*
X18450Y-18650D01*
X18449Y-18749D01*
X18449Y-19349D01*
X18487Y-19441D01*
X18558Y-19511D01*
X18650Y-19549D01*
X18749Y-19550D01*
X19349Y-19550D01*
X19441Y-19512D01*
X19511Y-19441D01*
X19549Y-19349D01*
X19549Y-19327D01*
X19688Y-19465D01*
X19890Y-19549D01*
X20108Y-19550D01*
X20311Y-19466D01*
X20465Y-19311D01*
X20499Y-19230D01*
X20533Y-19311D01*
X20688Y-19465D01*
X20890Y-19549D01*
X21108Y-19550D01*
X21311Y-19466D01*
X21465Y-19311D01*
X21499Y-19230D01*
X21533Y-19311D01*
X21688Y-19465D01*
X21890Y-19549D01*
X22108Y-19550D01*
X22311Y-19466D01*
X22449Y-19327D01*
X22449Y-19349D01*
X22487Y-19441D01*
X22558Y-19511D01*
X22650Y-19549D01*
X22749Y-19550D01*
X23349Y-19550D01*
X23441Y-19512D01*
X23511Y-19441D01*
X23549Y-19349D01*
X23549Y-19327D01*
X23688Y-19465D01*
X23890Y-19549D01*
X24108Y-19550D01*
X24311Y-19466D01*
X24465Y-19311D01*
X24491Y-19251D01*
X24515Y-19267D01*
X24515Y-19267D01*
X24533Y-19311D01*
X24688Y-19465D01*
X24890Y-19549D01*
X25108Y-19550D01*
X25311Y-19466D01*
X25465Y-19311D01*
X25499Y-19230D01*
X25533Y-19311D01*
X25688Y-19465D01*
X25890Y-19549D01*
X26108Y-19550D01*
X26311Y-19466D01*
X26465Y-19311D01*
X26549Y-19109D01*
X26550Y-18891D01*
X26466Y-18688D01*
X26311Y-18534D01*
X26109Y-18450D01*
X25942Y-18449D01*
X25941Y-18448D01*
X26405Y-18448D01*
X26701Y-18744D01*
X26701Y-19149D01*
X26701Y-19150D01*
X26723Y-19261D01*
X26728Y-19283D01*
X26803Y-19396D01*
X27303Y-19896D01*
X27303Y-19896D01*
X27416Y-19971D01*
X27550Y-19998D01*
X27550Y-19998D01*
X27550Y-19998D01*
X29900Y-19998D01*
X29889Y-20008D01*
X29825Y-20165D01*
X29824Y-20334D01*
X29889Y-20490D01*
X29901Y-20502D01*
X29901Y-21997D01*
X29889Y-22008D01*
X29825Y-22165D01*
X29824Y-22334D01*
X29889Y-22490D01*
X30008Y-22610D01*
X30165Y-22674D01*
X30334Y-22675D01*
X30490Y-22610D01*
X30610Y-22491D01*
X30674Y-22334D01*
X30675Y-22165D01*
X30610Y-22009D01*
X30598Y-21997D01*
X30598Y-20502D01*
X30610Y-20491D01*
X30674Y-20334D01*
X30675Y-20165D01*
X30610Y-20009D01*
X30517Y-19915D01*
X30546Y-19896D01*
X30892Y-19549D01*
X31108Y-19550D01*
X31311Y-19466D01*
X31465Y-19311D01*
X31499Y-19230D01*
X31533Y-19311D01*
X31688Y-19465D01*
X31890Y-19549D01*
X32108Y-19550D01*
X32311Y-19466D01*
X32465Y-19311D01*
X32526Y-19166D01*
X32526Y-20591D01*
X32475Y-20715D01*
X32474Y-20884D01*
X32539Y-21040D01*
X32658Y-21160D01*
X32815Y-21224D01*
X32984Y-21225D01*
X33140Y-21160D01*
X33194Y-21106D01*
X33194Y-26502D01*
X33194Y-26502D01*
G37*
G54D15*
X33194Y-26502D02*
X33175Y-26482D01*
X33175Y-26465D01*
X33110Y-26309D01*
X32991Y-26189D01*
X32834Y-26125D01*
X32665Y-26124D01*
X32509Y-26189D01*
X32498Y-26200D01*
X32498Y-24902D01*
X32560Y-24841D01*
X32624Y-24684D01*
X32625Y-24515D01*
X32560Y-24359D01*
X32441Y-24239D01*
X32409Y-24226D01*
X32471Y-24133D01*
X32498Y-24000D01*
X32498Y-23452D01*
X32610Y-23341D01*
X32674Y-23184D01*
X32675Y-23015D01*
X32610Y-22859D01*
X32491Y-22739D01*
X32334Y-22675D01*
X32165Y-22674D01*
X32009Y-22739D01*
X31889Y-22858D01*
X31825Y-23015D01*
X31824Y-23132D01*
X31823Y-23138D01*
X31801Y-23250D01*
X31801Y-23250D01*
X31801Y-23651D01*
X26552Y-23651D01*
X26541Y-23639D01*
X26384Y-23575D01*
X26274Y-23574D01*
X26275Y-23465D01*
X26267Y-23448D01*
X30697Y-23448D01*
X30708Y-23460D01*
X30865Y-23524D01*
X31034Y-23525D01*
X31190Y-23460D01*
X31310Y-23341D01*
X31374Y-23184D01*
X31375Y-23015D01*
X31310Y-22859D01*
X31191Y-22739D01*
X31034Y-22675D01*
X30865Y-22674D01*
X30709Y-22739D01*
X30697Y-22751D01*
X25302Y-22751D01*
X25291Y-22739D01*
X25134Y-22675D01*
X24965Y-22674D01*
X24809Y-22739D01*
X24797Y-22751D01*
X21893Y-22751D01*
X21783Y-22678D01*
X21761Y-22673D01*
X21650Y-22651D01*
X21649Y-22651D01*
X21429Y-22651D01*
X21311Y-22534D01*
X21109Y-22450D01*
X20891Y-22449D01*
X20688Y-22533D01*
X20534Y-22688D01*
X20450Y-22890D01*
X20449Y-23108D01*
X20533Y-23311D01*
X20672Y-23449D01*
X20650Y-23449D01*
X20558Y-23487D01*
X20488Y-23558D01*
X20450Y-23650D01*
X20449Y-23749D01*
X20449Y-24349D01*
X20487Y-24441D01*
X20558Y-24511D01*
X20650Y-24549D01*
X20749Y-24550D01*
X21349Y-24550D01*
X21441Y-24512D01*
X21511Y-24441D01*
X21549Y-24349D01*
X21549Y-24348D01*
X22798Y-24348D01*
X22759Y-24364D01*
X22639Y-24483D01*
X22580Y-24626D01*
X21805Y-25401D01*
X21552Y-25401D01*
X21541Y-25389D01*
X21384Y-25325D01*
X21215Y-25324D01*
X21059Y-25389D01*
X21022Y-25426D01*
X19527Y-25426D01*
X19491Y-25389D01*
X19334Y-25325D01*
X19165Y-25324D01*
X19009Y-25389D01*
X18972Y-25426D01*
X16348Y-25426D01*
X16348Y-23500D01*
X16348Y-23500D01*
X16348Y-23500D01*
X16321Y-23366D01*
X16246Y-23253D01*
X16246Y-23253D01*
X15848Y-22855D01*
X15848Y-21100D01*
X15848Y-21100D01*
X15848Y-21100D01*
X15821Y-20966D01*
X15746Y-20853D01*
X15746Y-20853D01*
X15246Y-20353D01*
X15133Y-20278D01*
X15111Y-20273D01*
X15036Y-20258D01*
X14927Y-20150D01*
X14949Y-20150D01*
X15041Y-20112D01*
X15111Y-20041D01*
X15149Y-19949D01*
X15150Y-19877D01*
X15196Y-19846D01*
X15544Y-19498D01*
X15546Y-19500D01*
X15488Y-19558D01*
X15450Y-19650D01*
X15449Y-19749D01*
X15449Y-20349D01*
X15487Y-20441D01*
X15558Y-20511D01*
X15650Y-20549D01*
X15749Y-20550D01*
X16349Y-20550D01*
X16441Y-20512D01*
X16511Y-20441D01*
X16549Y-20349D01*
X16549Y-20327D01*
X16688Y-20465D01*
X16890Y-20549D01*
X17108Y-20550D01*
X17311Y-20466D01*
X17465Y-20311D01*
X17549Y-20109D01*
X17550Y-19891D01*
X17466Y-19688D01*
X17311Y-19534D01*
X17230Y-19500D01*
X17311Y-19466D01*
X17465Y-19311D01*
X17549Y-19109D01*
X17550Y-18891D01*
X17466Y-18688D01*
X17311Y-18534D01*
X17226Y-18498D01*
X18548Y-18498D01*
X18488Y-18558D01*
X18450Y-18650D01*
X18449Y-18749D01*
X18449Y-19349D01*
X18487Y-19441D01*
X18558Y-19511D01*
X18650Y-19549D01*
X18749Y-19550D01*
X19349Y-19550D01*
X19441Y-19512D01*
X19511Y-19441D01*
X19549Y-19349D01*
X19549Y-19327D01*
X19688Y-19465D01*
X19890Y-19549D01*
X20108Y-19550D01*
X20311Y-19466D01*
X20465Y-19311D01*
X20499Y-19230D01*
X20533Y-19311D01*
X20688Y-19465D01*
X20890Y-19549D01*
X21108Y-19550D01*
X21311Y-19466D01*
X21465Y-19311D01*
X21499Y-19230D01*
X21533Y-19311D01*
X21688Y-19465D01*
X21890Y-19549D01*
X22108Y-19550D01*
X22311Y-19466D01*
X22449Y-19327D01*
X22449Y-19349D01*
X22487Y-19441D01*
X22558Y-19511D01*
X22650Y-19549D01*
X22749Y-19550D01*
X23349Y-19550D01*
X23441Y-19512D01*
X23511Y-19441D01*
X23549Y-19349D01*
X23549Y-19327D01*
X23688Y-19465D01*
X23890Y-19549D01*
X24108Y-19550D01*
X24311Y-19466D01*
X24465Y-19311D01*
X24491Y-19251D01*
X24515Y-19267D01*
X24515Y-19267D01*
X24533Y-19311D01*
X24688Y-19465D01*
X24890Y-19549D01*
X25108Y-19550D01*
X25311Y-19466D01*
X25465Y-19311D01*
X25499Y-19230D01*
X25533Y-19311D01*
X25688Y-19465D01*
X25890Y-19549D01*
X26108Y-19550D01*
X26311Y-19466D01*
X26465Y-19311D01*
X26549Y-19109D01*
X26550Y-18891D01*
X26466Y-18688D01*
X26311Y-18534D01*
X26109Y-18450D01*
X25942Y-18449D01*
X25941Y-18448D01*
X26405Y-18448D01*
X26701Y-18744D01*
X26701Y-19149D01*
X26701Y-19150D01*
X26723Y-19261D01*
X26728Y-19283D01*
X26803Y-19396D01*
X27303Y-19896D01*
X27303Y-19896D01*
X27416Y-19971D01*
X27550Y-19998D01*
X27550Y-19998D01*
X27550Y-19998D01*
X29900Y-19998D01*
X29889Y-20008D01*
X29825Y-20165D01*
X29824Y-20334D01*
X29889Y-20490D01*
X29901Y-20502D01*
X29901Y-21997D01*
X29889Y-22008D01*
X29825Y-22165D01*
X29824Y-22334D01*
X29889Y-22490D01*
X30008Y-22610D01*
X30165Y-22674D01*
X30334Y-22675D01*
X30490Y-22610D01*
X30610Y-22491D01*
X30674Y-22334D01*
X30675Y-22165D01*
X30610Y-22009D01*
X30598Y-21997D01*
X30598Y-20502D01*
X30610Y-20491D01*
X30674Y-20334D01*
X30675Y-20165D01*
X30610Y-20009D01*
X30517Y-19915D01*
X30546Y-19896D01*
X30892Y-19549D01*
X31108Y-19550D01*
X31311Y-19466D01*
X31465Y-19311D01*
X31499Y-19230D01*
X31533Y-19311D01*
X31688Y-19465D01*
X31890Y-19549D01*
X32108Y-19550D01*
X32311Y-19466D01*
X32465Y-19311D01*
X32526Y-19166D01*
X32526Y-20591D01*
X32475Y-20715D01*
X32474Y-20884D01*
X32539Y-21040D01*
X32658Y-21160D01*
X32815Y-21224D01*
X32984Y-21225D01*
X33140Y-21160D01*
X33194Y-21106D01*
X33194Y-26502D01*
G54D10*
G36*
X33194Y-31226D02*
X32766Y-31226D01*
X32911Y-31166D01*
X33065Y-31011D01*
X33149Y-30809D01*
X33150Y-30591D01*
X33066Y-30388D01*
X32927Y-30250D01*
X32949Y-30250D01*
X33041Y-30212D01*
X33111Y-30141D01*
X33149Y-30049D01*
X33150Y-29950D01*
X33150Y-29350D01*
X33112Y-29258D01*
X33041Y-29188D01*
X32949Y-29150D01*
X32850Y-29149D01*
X32250Y-29149D01*
X32158Y-29187D01*
X32088Y-29258D01*
X32050Y-29350D01*
X32049Y-29449D01*
X32049Y-30049D01*
X32087Y-30141D01*
X32158Y-30211D01*
X32250Y-30249D01*
X32272Y-30249D01*
X32134Y-30388D01*
X32050Y-30590D01*
X32049Y-30808D01*
X32133Y-31011D01*
X32288Y-31165D01*
X32433Y-31226D01*
X30866Y-31226D01*
X31011Y-31166D01*
X31165Y-31011D01*
X31249Y-30809D01*
X31250Y-30591D01*
X31166Y-30388D01*
X31027Y-30250D01*
X31049Y-30250D01*
X31141Y-30212D01*
X31211Y-30141D01*
X31249Y-30049D01*
X31250Y-29950D01*
X31250Y-29350D01*
X31212Y-29258D01*
X31141Y-29188D01*
X31049Y-29150D01*
X30950Y-29149D01*
X30350Y-29149D01*
X30258Y-29187D01*
X30188Y-29258D01*
X30150Y-29350D01*
X30149Y-29449D01*
X30149Y-30049D01*
X30187Y-30141D01*
X30258Y-30211D01*
X30350Y-30249D01*
X30372Y-30249D01*
X30234Y-30388D01*
X30150Y-30590D01*
X30149Y-30808D01*
X30233Y-31011D01*
X30388Y-31165D01*
X30533Y-31226D01*
X28866Y-31226D01*
X29011Y-31166D01*
X29165Y-31011D01*
X29249Y-30809D01*
X29250Y-30591D01*
X29166Y-30388D01*
X29027Y-30250D01*
X29049Y-30250D01*
X29141Y-30212D01*
X29211Y-30141D01*
X29249Y-30049D01*
X29250Y-29950D01*
X29250Y-29350D01*
X29212Y-29258D01*
X29141Y-29188D01*
X29049Y-29150D01*
X28950Y-29149D01*
X28350Y-29149D01*
X28258Y-29187D01*
X28188Y-29258D01*
X28150Y-29350D01*
X28149Y-29449D01*
X28149Y-30049D01*
X28187Y-30141D01*
X28258Y-30211D01*
X28350Y-30249D01*
X28372Y-30249D01*
X28234Y-30388D01*
X28150Y-30590D01*
X28149Y-30808D01*
X28233Y-31011D01*
X28388Y-31165D01*
X28533Y-31226D01*
X26866Y-31226D01*
X27011Y-31166D01*
X27165Y-31011D01*
X27249Y-30809D01*
X27250Y-30591D01*
X27166Y-30388D01*
X27027Y-30250D01*
X27049Y-30250D01*
X27141Y-30212D01*
X27211Y-30141D01*
X27249Y-30049D01*
X27250Y-29950D01*
X27250Y-29350D01*
X27212Y-29258D01*
X27141Y-29188D01*
X27049Y-29150D01*
X26950Y-29149D01*
X26350Y-29149D01*
X26258Y-29187D01*
X26188Y-29258D01*
X26150Y-29350D01*
X26149Y-29449D01*
X26149Y-30049D01*
X26187Y-30141D01*
X26258Y-30211D01*
X26350Y-30249D01*
X26372Y-30249D01*
X26234Y-30388D01*
X26150Y-30590D01*
X26149Y-30808D01*
X26233Y-31011D01*
X26388Y-31165D01*
X26533Y-31226D01*
X24766Y-31226D01*
X24911Y-31166D01*
X25065Y-31011D01*
X25149Y-30809D01*
X25150Y-30591D01*
X25066Y-30388D01*
X24911Y-30234D01*
X24709Y-30150D01*
X24491Y-30149D01*
X24288Y-30233D01*
X24134Y-30388D01*
X24102Y-30463D01*
X24081Y-30412D01*
X23985Y-30384D01*
X23915Y-30455D01*
X23915Y-30314D01*
X23887Y-30218D01*
X23681Y-30145D01*
X23463Y-30156D01*
X23312Y-30218D01*
X23284Y-30314D01*
X23600Y-30629D01*
X23915Y-30314D01*
X23915Y-30455D01*
X23670Y-30700D01*
X23985Y-31015D01*
X24081Y-30987D01*
X24100Y-30932D01*
X24133Y-31011D01*
X24288Y-31165D01*
X24433Y-31226D01*
X23778Y-31226D01*
X23887Y-31181D01*
X23915Y-31085D01*
X23600Y-30770D01*
X23284Y-31085D01*
X23312Y-31181D01*
X23438Y-31226D01*
X23006Y-31226D01*
X23041Y-31212D01*
X23111Y-31141D01*
X23149Y-31049D01*
X23150Y-30996D01*
X23214Y-31015D01*
X23529Y-30700D01*
X23214Y-30384D01*
X23150Y-30403D01*
X23150Y-30350D01*
X23112Y-30258D01*
X23041Y-30188D01*
X22949Y-30150D01*
X22877Y-30149D01*
X22846Y-30103D01*
X22846Y-30103D01*
X22596Y-29853D01*
X22483Y-29778D01*
X22461Y-29773D01*
X22350Y-29751D01*
X22349Y-29751D01*
X18744Y-29751D01*
X18496Y-29503D01*
X18383Y-29428D01*
X18361Y-29423D01*
X18250Y-29401D01*
X18249Y-29401D01*
X15744Y-29401D01*
X15398Y-29055D01*
X15398Y-29044D01*
X15696Y-28746D01*
X15696Y-28746D01*
X15696Y-28746D01*
X15771Y-28633D01*
X15798Y-28500D01*
X15798Y-28500D01*
X15798Y-28500D01*
X15798Y-26494D01*
X16169Y-26123D01*
X17283Y-26123D01*
X17232Y-26174D01*
X17215Y-26174D01*
X17059Y-26239D01*
X16939Y-26358D01*
X16875Y-26515D01*
X16874Y-26684D01*
X16939Y-26840D01*
X17058Y-26960D01*
X17215Y-27024D01*
X17384Y-27025D01*
X17540Y-26960D01*
X17660Y-26841D01*
X17724Y-26684D01*
X17724Y-26667D01*
X17794Y-26598D01*
X18981Y-26598D01*
X18975Y-26615D01*
X18974Y-26784D01*
X19039Y-26940D01*
X19158Y-27060D01*
X19315Y-27124D01*
X19484Y-27125D01*
X19640Y-27060D01*
X19652Y-27048D01*
X20705Y-27048D01*
X20853Y-27196D01*
X20853Y-27196D01*
X20947Y-27259D01*
X20655Y-27551D01*
X18352Y-27551D01*
X18341Y-27539D01*
X18184Y-27475D01*
X18015Y-27474D01*
X17859Y-27539D01*
X17739Y-27658D01*
X17675Y-27815D01*
X17674Y-27984D01*
X17739Y-28140D01*
X17858Y-28260D01*
X18015Y-28324D01*
X18184Y-28325D01*
X18340Y-28260D01*
X18352Y-28248D01*
X20799Y-28248D01*
X20800Y-28248D01*
X20800Y-28248D01*
X20911Y-28226D01*
X20933Y-28221D01*
X20933Y-28221D01*
X21046Y-28146D01*
X21199Y-27993D01*
X21239Y-28090D01*
X21358Y-28210D01*
X21515Y-28274D01*
X21684Y-28275D01*
X21840Y-28210D01*
X21852Y-28198D01*
X23299Y-28198D01*
X23300Y-28198D01*
X23300Y-28198D01*
X23411Y-28176D01*
X23433Y-28171D01*
X23433Y-28171D01*
X23455Y-28156D01*
X23558Y-28260D01*
X23715Y-28324D01*
X23884Y-28325D01*
X24040Y-28260D01*
X24160Y-28141D01*
X24224Y-27984D01*
X24224Y-27967D01*
X24844Y-27348D01*
X25008Y-27348D01*
X24932Y-27424D01*
X24915Y-27424D01*
X24759Y-27489D01*
X24639Y-27608D01*
X24575Y-27765D01*
X24574Y-27934D01*
X24639Y-28090D01*
X24758Y-28210D01*
X24915Y-28274D01*
X25084Y-28275D01*
X25240Y-28210D01*
X25360Y-28091D01*
X25424Y-27934D01*
X25424Y-27917D01*
X25544Y-27798D01*
X25581Y-27798D01*
X25575Y-27815D01*
X25574Y-27984D01*
X25639Y-28140D01*
X25758Y-28260D01*
X25915Y-28324D01*
X26084Y-28325D01*
X26240Y-28260D01*
X26252Y-28248D01*
X27549Y-28248D01*
X27550Y-28248D01*
X27550Y-28248D01*
X27661Y-28226D01*
X27683Y-28221D01*
X27683Y-28221D01*
X27796Y-28146D01*
X27828Y-28114D01*
X27839Y-28140D01*
X27958Y-28260D01*
X28115Y-28324D01*
X28284Y-28325D01*
X28440Y-28260D01*
X28452Y-28248D01*
X28699Y-28248D01*
X28700Y-28248D01*
X28700Y-28248D01*
X28811Y-28226D01*
X28833Y-28221D01*
X28833Y-28221D01*
X28946Y-28146D01*
X29444Y-27648D01*
X29899Y-27648D01*
X29900Y-27648D01*
X29900Y-27648D01*
X29900Y-27648D01*
X29889Y-27658D01*
X29825Y-27815D01*
X29824Y-27984D01*
X29889Y-28140D01*
X30008Y-28260D01*
X30165Y-28324D01*
X30182Y-28324D01*
X30553Y-28696D01*
X30553Y-28696D01*
X30666Y-28771D01*
X30800Y-28798D01*
X32699Y-28798D01*
X32700Y-28798D01*
X32700Y-28798D01*
X32811Y-28776D01*
X32833Y-28771D01*
X32833Y-28771D01*
X32946Y-28696D01*
X33194Y-28447D01*
X33194Y-31226D01*
X33194Y-31226D01*
G37*
G54D15*
X33194Y-31226D02*
X32766Y-31226D01*
X32911Y-31166D01*
X33065Y-31011D01*
X33149Y-30809D01*
X33150Y-30591D01*
X33066Y-30388D01*
X32927Y-30250D01*
X32949Y-30250D01*
X33041Y-30212D01*
X33111Y-30141D01*
X33149Y-30049D01*
X33150Y-29950D01*
X33150Y-29350D01*
X33112Y-29258D01*
X33041Y-29188D01*
X32949Y-29150D01*
X32850Y-29149D01*
X32250Y-29149D01*
X32158Y-29187D01*
X32088Y-29258D01*
X32050Y-29350D01*
X32049Y-29449D01*
X32049Y-30049D01*
X32087Y-30141D01*
X32158Y-30211D01*
X32250Y-30249D01*
X32272Y-30249D01*
X32134Y-30388D01*
X32050Y-30590D01*
X32049Y-30808D01*
X32133Y-31011D01*
X32288Y-31165D01*
X32433Y-31226D01*
X30866Y-31226D01*
X31011Y-31166D01*
X31165Y-31011D01*
X31249Y-30809D01*
X31250Y-30591D01*
X31166Y-30388D01*
X31027Y-30250D01*
X31049Y-30250D01*
X31141Y-30212D01*
X31211Y-30141D01*
X31249Y-30049D01*
X31250Y-29950D01*
X31250Y-29350D01*
X31212Y-29258D01*
X31141Y-29188D01*
X31049Y-29150D01*
X30950Y-29149D01*
X30350Y-29149D01*
X30258Y-29187D01*
X30188Y-29258D01*
X30150Y-29350D01*
X30149Y-29449D01*
X30149Y-30049D01*
X30187Y-30141D01*
X30258Y-30211D01*
X30350Y-30249D01*
X30372Y-30249D01*
X30234Y-30388D01*
X30150Y-30590D01*
X30149Y-30808D01*
X30233Y-31011D01*
X30388Y-31165D01*
X30533Y-31226D01*
X28866Y-31226D01*
X29011Y-31166D01*
X29165Y-31011D01*
X29249Y-30809D01*
X29250Y-30591D01*
X29166Y-30388D01*
X29027Y-30250D01*
X29049Y-30250D01*
X29141Y-30212D01*
X29211Y-30141D01*
X29249Y-30049D01*
X29250Y-29950D01*
X29250Y-29350D01*
X29212Y-29258D01*
X29141Y-29188D01*
X29049Y-29150D01*
X28950Y-29149D01*
X28350Y-29149D01*
X28258Y-29187D01*
X28188Y-29258D01*
X28150Y-29350D01*
X28149Y-29449D01*
X28149Y-30049D01*
X28187Y-30141D01*
X28258Y-30211D01*
X28350Y-30249D01*
X28372Y-30249D01*
X28234Y-30388D01*
X28150Y-30590D01*
X28149Y-30808D01*
X28233Y-31011D01*
X28388Y-31165D01*
X28533Y-31226D01*
X26866Y-31226D01*
X27011Y-31166D01*
X27165Y-31011D01*
X27249Y-30809D01*
X27250Y-30591D01*
X27166Y-30388D01*
X27027Y-30250D01*
X27049Y-30250D01*
X27141Y-30212D01*
X27211Y-30141D01*
X27249Y-30049D01*
X27250Y-29950D01*
X27250Y-29350D01*
X27212Y-29258D01*
X27141Y-29188D01*
X27049Y-29150D01*
X26950Y-29149D01*
X26350Y-29149D01*
X26258Y-29187D01*
X26188Y-29258D01*
X26150Y-29350D01*
X26149Y-29449D01*
X26149Y-30049D01*
X26187Y-30141D01*
X26258Y-30211D01*
X26350Y-30249D01*
X26372Y-30249D01*
X26234Y-30388D01*
X26150Y-30590D01*
X26149Y-30808D01*
X26233Y-31011D01*
X26388Y-31165D01*
X26533Y-31226D01*
X24766Y-31226D01*
X24911Y-31166D01*
X25065Y-31011D01*
X25149Y-30809D01*
X25150Y-30591D01*
X25066Y-30388D01*
X24911Y-30234D01*
X24709Y-30150D01*
X24491Y-30149D01*
X24288Y-30233D01*
X24134Y-30388D01*
X24102Y-30463D01*
X24081Y-30412D01*
X23985Y-30384D01*
X23915Y-30455D01*
X23915Y-30314D01*
X23887Y-30218D01*
X23681Y-30145D01*
X23463Y-30156D01*
X23312Y-30218D01*
X23284Y-30314D01*
X23600Y-30629D01*
X23915Y-30314D01*
X23915Y-30455D01*
X23670Y-30700D01*
X23985Y-31015D01*
X24081Y-30987D01*
X24100Y-30932D01*
X24133Y-31011D01*
X24288Y-31165D01*
X24433Y-31226D01*
X23778Y-31226D01*
X23887Y-31181D01*
X23915Y-31085D01*
X23600Y-30770D01*
X23284Y-31085D01*
X23312Y-31181D01*
X23438Y-31226D01*
X23006Y-31226D01*
X23041Y-31212D01*
X23111Y-31141D01*
X23149Y-31049D01*
X23150Y-30996D01*
X23214Y-31015D01*
X23529Y-30700D01*
X23214Y-30384D01*
X23150Y-30403D01*
X23150Y-30350D01*
X23112Y-30258D01*
X23041Y-30188D01*
X22949Y-30150D01*
X22877Y-30149D01*
X22846Y-30103D01*
X22846Y-30103D01*
X22596Y-29853D01*
X22483Y-29778D01*
X22461Y-29773D01*
X22350Y-29751D01*
X22349Y-29751D01*
X18744Y-29751D01*
X18496Y-29503D01*
X18383Y-29428D01*
X18361Y-29423D01*
X18250Y-29401D01*
X18249Y-29401D01*
X15744Y-29401D01*
X15398Y-29055D01*
X15398Y-29044D01*
X15696Y-28746D01*
X15696Y-28746D01*
X15696Y-28746D01*
X15771Y-28633D01*
X15798Y-28500D01*
X15798Y-28500D01*
X15798Y-28500D01*
X15798Y-26494D01*
X16169Y-26123D01*
X17283Y-26123D01*
X17232Y-26174D01*
X17215Y-26174D01*
X17059Y-26239D01*
X16939Y-26358D01*
X16875Y-26515D01*
X16874Y-26684D01*
X16939Y-26840D01*
X17058Y-26960D01*
X17215Y-27024D01*
X17384Y-27025D01*
X17540Y-26960D01*
X17660Y-26841D01*
X17724Y-26684D01*
X17724Y-26667D01*
X17794Y-26598D01*
X18981Y-26598D01*
X18975Y-26615D01*
X18974Y-26784D01*
X19039Y-26940D01*
X19158Y-27060D01*
X19315Y-27124D01*
X19484Y-27125D01*
X19640Y-27060D01*
X19652Y-27048D01*
X20705Y-27048D01*
X20853Y-27196D01*
X20853Y-27196D01*
X20947Y-27259D01*
X20655Y-27551D01*
X18352Y-27551D01*
X18341Y-27539D01*
X18184Y-27475D01*
X18015Y-27474D01*
X17859Y-27539D01*
X17739Y-27658D01*
X17675Y-27815D01*
X17674Y-27984D01*
X17739Y-28140D01*
X17858Y-28260D01*
X18015Y-28324D01*
X18184Y-28325D01*
X18340Y-28260D01*
X18352Y-28248D01*
X20799Y-28248D01*
X20800Y-28248D01*
X20800Y-28248D01*
X20911Y-28226D01*
X20933Y-28221D01*
X20933Y-28221D01*
X21046Y-28146D01*
X21199Y-27993D01*
X21239Y-28090D01*
X21358Y-28210D01*
X21515Y-28274D01*
X21684Y-28275D01*
X21840Y-28210D01*
X21852Y-28198D01*
X23299Y-28198D01*
X23300Y-28198D01*
X23300Y-28198D01*
X23411Y-28176D01*
X23433Y-28171D01*
X23433Y-28171D01*
X23455Y-28156D01*
X23558Y-28260D01*
X23715Y-28324D01*
X23884Y-28325D01*
X24040Y-28260D01*
X24160Y-28141D01*
X24224Y-27984D01*
X24224Y-27967D01*
X24844Y-27348D01*
X25008Y-27348D01*
X24932Y-27424D01*
X24915Y-27424D01*
X24759Y-27489D01*
X24639Y-27608D01*
X24575Y-27765D01*
X24574Y-27934D01*
X24639Y-28090D01*
X24758Y-28210D01*
X24915Y-28274D01*
X25084Y-28275D01*
X25240Y-28210D01*
X25360Y-28091D01*
X25424Y-27934D01*
X25424Y-27917D01*
X25544Y-27798D01*
X25581Y-27798D01*
X25575Y-27815D01*
X25574Y-27984D01*
X25639Y-28140D01*
X25758Y-28260D01*
X25915Y-28324D01*
X26084Y-28325D01*
X26240Y-28260D01*
X26252Y-28248D01*
X27549Y-28248D01*
X27550Y-28248D01*
X27550Y-28248D01*
X27661Y-28226D01*
X27683Y-28221D01*
X27683Y-28221D01*
X27796Y-28146D01*
X27828Y-28114D01*
X27839Y-28140D01*
X27958Y-28260D01*
X28115Y-28324D01*
X28284Y-28325D01*
X28440Y-28260D01*
X28452Y-28248D01*
X28699Y-28248D01*
X28700Y-28248D01*
X28700Y-28248D01*
X28811Y-28226D01*
X28833Y-28221D01*
X28833Y-28221D01*
X28946Y-28146D01*
X29444Y-27648D01*
X29899Y-27648D01*
X29900Y-27648D01*
X29900Y-27648D01*
X29900Y-27648D01*
X29889Y-27658D01*
X29825Y-27815D01*
X29824Y-27984D01*
X29889Y-28140D01*
X30008Y-28260D01*
X30165Y-28324D01*
X30182Y-28324D01*
X30553Y-28696D01*
X30553Y-28696D01*
X30666Y-28771D01*
X30800Y-28798D01*
X32699Y-28798D01*
X32700Y-28798D01*
X32700Y-28798D01*
X32811Y-28776D01*
X32833Y-28771D01*
X32833Y-28771D01*
X32946Y-28696D01*
X33194Y-28447D01*
X33194Y-31226D01*
M02*
