G04 (created by PCBNEW (2013-07-07 BZR 4022)-stable) date 07/03/2014 16:09:31*
%MOIN*%
G04 Gerber Fmt 3.4, Leading zero omitted, Abs format*
%FSLAX34Y34*%
G01*
G70*
G90*
G04 APERTURE LIST*
%ADD10C,0.00590551*%
%ADD11C,0.00984252*%
%ADD12C,0.005*%
%ADD13C,0.012*%
%ADD14C,0.01*%
%ADD15C,0.006*%
%ADD16C,0.0026*%
%ADD17C,0.004*%
%ADD18C,0.008*%
%ADD19C,0.0035*%
G04 APERTURE END LIST*
G54D10*
G54D11*
X17253Y-25310D02*
X17309Y-25339D01*
X17403Y-25339D01*
X17440Y-25310D01*
X17459Y-25282D01*
X17478Y-25226D01*
X17478Y-25170D01*
X17459Y-25114D01*
X17440Y-25085D01*
X17403Y-25057D01*
X17328Y-25029D01*
X17290Y-25001D01*
X17272Y-24973D01*
X17253Y-24917D01*
X17253Y-24860D01*
X17272Y-24804D01*
X17290Y-24776D01*
X17328Y-24748D01*
X17422Y-24748D01*
X17478Y-24776D01*
X17797Y-25310D02*
X17759Y-25339D01*
X17684Y-25339D01*
X17647Y-25310D01*
X17628Y-25254D01*
X17628Y-25029D01*
X17647Y-24973D01*
X17684Y-24945D01*
X17759Y-24945D01*
X17797Y-24973D01*
X17815Y-25029D01*
X17815Y-25085D01*
X17628Y-25142D01*
X17984Y-24945D02*
X17984Y-25339D01*
X17984Y-25001D02*
X18003Y-24973D01*
X18040Y-24945D01*
X18097Y-24945D01*
X18134Y-24973D01*
X18153Y-25029D01*
X18153Y-25339D01*
X18321Y-25310D02*
X18359Y-25339D01*
X18434Y-25339D01*
X18471Y-25310D01*
X18490Y-25254D01*
X18490Y-25226D01*
X18471Y-25170D01*
X18434Y-25142D01*
X18378Y-25142D01*
X18340Y-25114D01*
X18321Y-25057D01*
X18321Y-25029D01*
X18340Y-24973D01*
X18378Y-24945D01*
X18434Y-24945D01*
X18471Y-24973D01*
X18715Y-25339D02*
X18678Y-25310D01*
X18659Y-25282D01*
X18640Y-25226D01*
X18640Y-25057D01*
X18659Y-25001D01*
X18678Y-24973D01*
X18715Y-24945D01*
X18771Y-24945D01*
X18809Y-24973D01*
X18828Y-25001D01*
X18846Y-25057D01*
X18846Y-25226D01*
X18828Y-25282D01*
X18809Y-25310D01*
X18771Y-25339D01*
X18715Y-25339D01*
X19015Y-25339D02*
X19015Y-24945D01*
X19015Y-25057D02*
X19034Y-25001D01*
X19053Y-24973D01*
X19090Y-24945D01*
X19128Y-24945D01*
X19259Y-25339D02*
X19259Y-24748D01*
X19409Y-24748D01*
X19446Y-24776D01*
X19465Y-24804D01*
X19484Y-24860D01*
X19484Y-24945D01*
X19465Y-25001D01*
X19446Y-25029D01*
X19409Y-25057D01*
X19259Y-25057D01*
X19653Y-25339D02*
X19653Y-24945D01*
X19653Y-24748D02*
X19634Y-24776D01*
X19653Y-24804D01*
X19671Y-24776D01*
X19653Y-24748D01*
X19653Y-24804D01*
X20084Y-24748D02*
X20215Y-25339D01*
X20346Y-24748D01*
X20552Y-24748D02*
X20590Y-24748D01*
X20627Y-24776D01*
X20646Y-24804D01*
X20665Y-24860D01*
X20684Y-24973D01*
X20684Y-25114D01*
X20665Y-25226D01*
X20646Y-25282D01*
X20627Y-25310D01*
X20590Y-25339D01*
X20552Y-25339D01*
X20515Y-25310D01*
X20496Y-25282D01*
X20477Y-25226D01*
X20459Y-25114D01*
X20459Y-24973D01*
X20477Y-24860D01*
X20496Y-24804D01*
X20515Y-24776D01*
X20552Y-24748D01*
X20852Y-25282D02*
X20871Y-25310D01*
X20852Y-25339D01*
X20834Y-25310D01*
X20852Y-25282D01*
X20852Y-25339D01*
X21115Y-24748D02*
X21152Y-24748D01*
X21190Y-24776D01*
X21209Y-24804D01*
X21227Y-24860D01*
X21246Y-24973D01*
X21246Y-25114D01*
X21227Y-25226D01*
X21209Y-25282D01*
X21190Y-25310D01*
X21152Y-25339D01*
X21115Y-25339D01*
X21077Y-25310D01*
X21059Y-25282D01*
X21040Y-25226D01*
X21021Y-25114D01*
X21021Y-24973D01*
X21040Y-24860D01*
X21059Y-24804D01*
X21077Y-24776D01*
X21115Y-24748D01*
X17037Y-25701D02*
X17000Y-25673D01*
X16944Y-25673D01*
X16887Y-25701D01*
X16850Y-25758D01*
X16831Y-25814D01*
X16812Y-25926D01*
X16812Y-26011D01*
X16831Y-26123D01*
X16850Y-26179D01*
X16887Y-26236D01*
X16944Y-26264D01*
X16981Y-26264D01*
X17037Y-26236D01*
X17056Y-26207D01*
X17056Y-26011D01*
X16981Y-26011D01*
X17393Y-25870D02*
X17393Y-26264D01*
X17225Y-25870D02*
X17225Y-26179D01*
X17244Y-26236D01*
X17281Y-26264D01*
X17337Y-26264D01*
X17375Y-26236D01*
X17393Y-26207D01*
X17750Y-26264D02*
X17750Y-25954D01*
X17731Y-25898D01*
X17693Y-25870D01*
X17618Y-25870D01*
X17581Y-25898D01*
X17750Y-26236D02*
X17712Y-26264D01*
X17618Y-26264D01*
X17581Y-26236D01*
X17562Y-26179D01*
X17562Y-26123D01*
X17581Y-26067D01*
X17618Y-26039D01*
X17712Y-26039D01*
X17750Y-26011D01*
X17918Y-26236D02*
X17956Y-26264D01*
X18031Y-26264D01*
X18068Y-26236D01*
X18087Y-26179D01*
X18087Y-26151D01*
X18068Y-26095D01*
X18031Y-26067D01*
X17975Y-26067D01*
X17937Y-26039D01*
X17918Y-25983D01*
X17918Y-25954D01*
X17937Y-25898D01*
X17975Y-25870D01*
X18031Y-25870D01*
X18068Y-25898D01*
X18425Y-26236D02*
X18387Y-26264D01*
X18312Y-26264D01*
X18275Y-26236D01*
X18256Y-26207D01*
X18237Y-26151D01*
X18237Y-25983D01*
X18256Y-25926D01*
X18275Y-25898D01*
X18312Y-25870D01*
X18387Y-25870D01*
X18425Y-25898D01*
X18593Y-26264D02*
X18593Y-25673D01*
X18762Y-26264D02*
X18762Y-25954D01*
X18743Y-25898D01*
X18706Y-25870D01*
X18650Y-25870D01*
X18612Y-25898D01*
X18593Y-25926D01*
X19137Y-25673D02*
X18950Y-25673D01*
X18931Y-25954D01*
X18950Y-25926D01*
X18987Y-25898D01*
X19081Y-25898D01*
X19118Y-25926D01*
X19137Y-25954D01*
X19156Y-26011D01*
X19156Y-26151D01*
X19137Y-26207D01*
X19118Y-26236D01*
X19081Y-26264D01*
X18987Y-26264D01*
X18950Y-26236D01*
X18931Y-26207D01*
X19399Y-25673D02*
X19437Y-25673D01*
X19474Y-25701D01*
X19493Y-25729D01*
X19512Y-25786D01*
X19531Y-25898D01*
X19531Y-26039D01*
X19512Y-26151D01*
X19493Y-26207D01*
X19474Y-26236D01*
X19437Y-26264D01*
X19399Y-26264D01*
X19362Y-26236D01*
X19343Y-26207D01*
X19324Y-26151D01*
X19306Y-26039D01*
X19306Y-25898D01*
X19324Y-25786D01*
X19343Y-25729D01*
X19362Y-25701D01*
X19399Y-25673D01*
X19774Y-25673D02*
X19812Y-25673D01*
X19849Y-25701D01*
X19868Y-25729D01*
X19887Y-25786D01*
X19906Y-25898D01*
X19906Y-26039D01*
X19887Y-26151D01*
X19868Y-26207D01*
X19849Y-26236D01*
X19812Y-26264D01*
X19774Y-26264D01*
X19737Y-26236D01*
X19718Y-26207D01*
X19699Y-26151D01*
X19681Y-26039D01*
X19681Y-25898D01*
X19699Y-25786D01*
X19718Y-25729D01*
X19737Y-25701D01*
X19774Y-25673D01*
X20149Y-25673D02*
X20187Y-25673D01*
X20224Y-25701D01*
X20243Y-25729D01*
X20262Y-25786D01*
X20281Y-25898D01*
X20281Y-26039D01*
X20262Y-26151D01*
X20243Y-26207D01*
X20224Y-26236D01*
X20187Y-26264D01*
X20149Y-26264D01*
X20112Y-26236D01*
X20093Y-26207D01*
X20074Y-26151D01*
X20056Y-26039D01*
X20056Y-25898D01*
X20074Y-25786D01*
X20093Y-25729D01*
X20112Y-25701D01*
X20149Y-25673D01*
X20449Y-26207D02*
X20468Y-26236D01*
X20449Y-26264D01*
X20431Y-26236D01*
X20449Y-26207D01*
X20449Y-26264D01*
X20806Y-26236D02*
X20768Y-26264D01*
X20693Y-26264D01*
X20656Y-26236D01*
X20637Y-26207D01*
X20618Y-26151D01*
X20618Y-25983D01*
X20637Y-25926D01*
X20656Y-25898D01*
X20693Y-25870D01*
X20768Y-25870D01*
X20806Y-25898D01*
X21031Y-26264D02*
X20993Y-26236D01*
X20974Y-26207D01*
X20956Y-26151D01*
X20956Y-25983D01*
X20974Y-25926D01*
X20993Y-25898D01*
X21031Y-25870D01*
X21087Y-25870D01*
X21124Y-25898D01*
X21143Y-25926D01*
X21162Y-25983D01*
X21162Y-26151D01*
X21143Y-26207D01*
X21124Y-26236D01*
X21087Y-26264D01*
X21031Y-26264D01*
X21330Y-26264D02*
X21330Y-25870D01*
X21330Y-25926D02*
X21349Y-25898D01*
X21387Y-25870D01*
X21443Y-25870D01*
X21480Y-25898D01*
X21499Y-25954D01*
X21499Y-26264D01*
X21499Y-25954D02*
X21518Y-25898D01*
X21555Y-25870D01*
X21612Y-25870D01*
X21649Y-25898D01*
X21668Y-25954D01*
X21668Y-26264D01*
G54D10*
X20550Y-15900D02*
G75*
G03X20550Y-15900I-250J0D01*
G74*
G01*
X23800Y-14400D02*
X23800Y-16400D01*
X23800Y-16400D02*
X19800Y-16400D01*
X19800Y-16400D02*
X19800Y-14400D01*
X19800Y-14400D02*
X23800Y-14400D01*
X32350Y-26100D02*
G75*
G03X32350Y-26100I-250J0D01*
G74*
G01*
X30600Y-22600D02*
X32600Y-22600D01*
X32600Y-22600D02*
X32600Y-26600D01*
X32600Y-26600D02*
X30600Y-26600D01*
X30600Y-26600D02*
X30600Y-22600D01*
X26450Y-26100D02*
G75*
G03X26450Y-26100I-250J0D01*
G74*
G01*
X24700Y-22600D02*
X26700Y-22600D01*
X26700Y-22600D02*
X26700Y-26600D01*
X26700Y-26600D02*
X24700Y-26600D01*
X24700Y-26600D02*
X24700Y-22600D01*
X29050Y-15900D02*
G75*
G03X29050Y-15900I-250J0D01*
G74*
G01*
X32300Y-14400D02*
X32300Y-16400D01*
X32300Y-16400D02*
X28300Y-16400D01*
X28300Y-16400D02*
X28300Y-14400D01*
X28300Y-14400D02*
X32300Y-14400D01*
X16212Y-13918D02*
X16212Y-16281D01*
X17787Y-13918D02*
X17787Y-16281D01*
X16212Y-16281D02*
G75*
G03X17000Y-17068I787J0D01*
G74*
G01*
X17000Y-17068D02*
G75*
G03X17787Y-16281I0J787D01*
G74*
G01*
X17000Y-13131D02*
G75*
G03X16212Y-13918I0J-787D01*
G74*
G01*
X17787Y-13918D02*
G75*
G03X17000Y-13131I-787J0D01*
G74*
G01*
X17984Y-12934D02*
X17984Y-17265D01*
X17984Y-17265D02*
X16015Y-17265D01*
X16015Y-17265D02*
X16015Y-12934D01*
X16015Y-12934D02*
X17984Y-12934D01*
X24912Y-13918D02*
X24912Y-16281D01*
X26487Y-13918D02*
X26487Y-16281D01*
X24912Y-16281D02*
G75*
G03X25700Y-17068I787J0D01*
G74*
G01*
X25700Y-17068D02*
G75*
G03X26487Y-16281I0J787D01*
G74*
G01*
X25700Y-13131D02*
G75*
G03X24912Y-13918I0J-787D01*
G74*
G01*
X26487Y-13918D02*
G75*
G03X25700Y-13131I-787J0D01*
G74*
G01*
X26684Y-12934D02*
X26684Y-17265D01*
X26684Y-17265D02*
X24715Y-17265D01*
X24715Y-17265D02*
X24715Y-12934D01*
X24715Y-12934D02*
X26684Y-12934D01*
G54D12*
X16650Y-26900D02*
X15750Y-26900D01*
X15750Y-26900D02*
X15750Y-27550D01*
X16650Y-28250D02*
X16650Y-28900D01*
X16650Y-28900D02*
X15750Y-28900D01*
X15750Y-28900D02*
X15750Y-28250D01*
X16650Y-27550D02*
X16650Y-26900D01*
X27900Y-24650D02*
X27900Y-25550D01*
X27900Y-25550D02*
X28550Y-25550D01*
X29250Y-24650D02*
X29900Y-24650D01*
X29900Y-24650D02*
X29900Y-25550D01*
X29900Y-25550D02*
X29250Y-25550D01*
X28550Y-24650D02*
X27900Y-24650D01*
X29900Y-26550D02*
X29900Y-25650D01*
X29900Y-25650D02*
X29250Y-25650D01*
X28550Y-26550D02*
X27900Y-26550D01*
X27900Y-26550D02*
X27900Y-25650D01*
X27900Y-25650D02*
X28550Y-25650D01*
X29250Y-26550D02*
X29900Y-26550D01*
X22000Y-22550D02*
X22000Y-23450D01*
X22000Y-23450D02*
X22650Y-23450D01*
X23350Y-22550D02*
X24000Y-22550D01*
X24000Y-22550D02*
X24000Y-23450D01*
X24000Y-23450D02*
X23350Y-23450D01*
X22650Y-22550D02*
X22000Y-22550D01*
X24000Y-24450D02*
X24000Y-23550D01*
X24000Y-23550D02*
X23350Y-23550D01*
X22650Y-24450D02*
X22000Y-24450D01*
X22000Y-24450D02*
X22000Y-23550D01*
X22000Y-23550D02*
X22650Y-23550D01*
X23350Y-24450D02*
X24000Y-24450D01*
X22000Y-24650D02*
X22000Y-25550D01*
X22000Y-25550D02*
X22650Y-25550D01*
X23350Y-24650D02*
X24000Y-24650D01*
X24000Y-24650D02*
X24000Y-25550D01*
X24000Y-25550D02*
X23350Y-25550D01*
X22650Y-24650D02*
X22000Y-24650D01*
X24000Y-26550D02*
X24000Y-25650D01*
X24000Y-25650D02*
X23350Y-25650D01*
X22650Y-26550D02*
X22000Y-26550D01*
X22000Y-26550D02*
X22000Y-25650D01*
X22000Y-25650D02*
X22650Y-25650D01*
X23350Y-26550D02*
X24000Y-26550D01*
X18850Y-26900D02*
X17950Y-26900D01*
X17950Y-26900D02*
X17950Y-27550D01*
X18850Y-28250D02*
X18850Y-28900D01*
X18850Y-28900D02*
X17950Y-28900D01*
X17950Y-28900D02*
X17950Y-28250D01*
X18850Y-27550D02*
X18850Y-26900D01*
X18950Y-28900D02*
X19850Y-28900D01*
X19850Y-28900D02*
X19850Y-28250D01*
X18950Y-27550D02*
X18950Y-26900D01*
X18950Y-26900D02*
X19850Y-26900D01*
X19850Y-26900D02*
X19850Y-27550D01*
X18950Y-28250D02*
X18950Y-28900D01*
X16750Y-28900D02*
X17650Y-28900D01*
X17650Y-28900D02*
X17650Y-28250D01*
X16750Y-27550D02*
X16750Y-26900D01*
X16750Y-26900D02*
X17650Y-26900D01*
X17650Y-26900D02*
X17650Y-27550D01*
X16750Y-28250D02*
X16750Y-28900D01*
X21050Y-26900D02*
X20150Y-26900D01*
X20150Y-26900D02*
X20150Y-27550D01*
X21050Y-28250D02*
X21050Y-28900D01*
X21050Y-28900D02*
X20150Y-28900D01*
X20150Y-28900D02*
X20150Y-28250D01*
X21050Y-27550D02*
X21050Y-26900D01*
X21150Y-28900D02*
X22050Y-28900D01*
X22050Y-28900D02*
X22050Y-28250D01*
X21150Y-27550D02*
X21150Y-26900D01*
X21150Y-26900D02*
X22050Y-26900D01*
X22050Y-26900D02*
X22050Y-27550D01*
X21150Y-28250D02*
X21150Y-28900D01*
X23250Y-26900D02*
X22350Y-26900D01*
X22350Y-26900D02*
X22350Y-27550D01*
X23250Y-28250D02*
X23250Y-28900D01*
X23250Y-28900D02*
X22350Y-28900D01*
X22350Y-28900D02*
X22350Y-28250D01*
X23250Y-27550D02*
X23250Y-26900D01*
X23350Y-28900D02*
X24250Y-28900D01*
X24250Y-28900D02*
X24250Y-28250D01*
X23350Y-27550D02*
X23350Y-26900D01*
X23350Y-26900D02*
X24250Y-26900D01*
X24250Y-26900D02*
X24250Y-27550D01*
X23350Y-28250D02*
X23350Y-28900D01*
X30850Y-26900D02*
X29950Y-26900D01*
X29950Y-26900D02*
X29950Y-27550D01*
X30850Y-28250D02*
X30850Y-28900D01*
X30850Y-28900D02*
X29950Y-28900D01*
X29950Y-28900D02*
X29950Y-28250D01*
X30850Y-27550D02*
X30850Y-26900D01*
X29900Y-24450D02*
X29900Y-23550D01*
X29900Y-23550D02*
X29250Y-23550D01*
X28550Y-24450D02*
X27900Y-24450D01*
X27900Y-24450D02*
X27900Y-23550D01*
X27900Y-23550D02*
X28550Y-23550D01*
X29250Y-24450D02*
X29900Y-24450D01*
X18250Y-18300D02*
X19150Y-18300D01*
X19150Y-18300D02*
X19150Y-17650D01*
X18250Y-16950D02*
X18250Y-16300D01*
X18250Y-16300D02*
X19150Y-16300D01*
X19150Y-16300D02*
X19150Y-16950D01*
X18250Y-17650D02*
X18250Y-18300D01*
X19150Y-12100D02*
X18250Y-12100D01*
X18250Y-12100D02*
X18250Y-12750D01*
X19150Y-13450D02*
X19150Y-14100D01*
X19150Y-14100D02*
X18250Y-14100D01*
X18250Y-14100D02*
X18250Y-13450D01*
X19150Y-12750D02*
X19150Y-12100D01*
X27850Y-14200D02*
X26950Y-14200D01*
X26950Y-14200D02*
X26950Y-14850D01*
X27850Y-15550D02*
X27850Y-16200D01*
X27850Y-16200D02*
X26950Y-16200D01*
X26950Y-16200D02*
X26950Y-15550D01*
X27850Y-14850D02*
X27850Y-14200D01*
X26950Y-18300D02*
X27850Y-18300D01*
X27850Y-18300D02*
X27850Y-17650D01*
X26950Y-16950D02*
X26950Y-16300D01*
X26950Y-16300D02*
X27850Y-16300D01*
X27850Y-16300D02*
X27850Y-16950D01*
X26950Y-17650D02*
X26950Y-18300D01*
X27850Y-12100D02*
X26950Y-12100D01*
X26950Y-12100D02*
X26950Y-12750D01*
X27850Y-13450D02*
X27850Y-14100D01*
X27850Y-14100D02*
X26950Y-14100D01*
X26950Y-14100D02*
X26950Y-13450D01*
X27850Y-12750D02*
X27850Y-12100D01*
X19150Y-14200D02*
X18250Y-14200D01*
X18250Y-14200D02*
X18250Y-14850D01*
X19150Y-15550D02*
X19150Y-16200D01*
X19150Y-16200D02*
X18250Y-16200D01*
X18250Y-16200D02*
X18250Y-15550D01*
X19150Y-14850D02*
X19150Y-14200D01*
X31150Y-28900D02*
X32050Y-28900D01*
X32050Y-28900D02*
X32050Y-28250D01*
X31150Y-27550D02*
X31150Y-26900D01*
X31150Y-26900D02*
X32050Y-26900D01*
X32050Y-26900D02*
X32050Y-27550D01*
X31150Y-28250D02*
X31150Y-28900D01*
X28950Y-28900D02*
X29850Y-28900D01*
X29850Y-28900D02*
X29850Y-28250D01*
X28950Y-27550D02*
X28950Y-26900D01*
X28950Y-26900D02*
X29850Y-26900D01*
X29850Y-26900D02*
X29850Y-27550D01*
X28950Y-28250D02*
X28950Y-28900D01*
X33050Y-26900D02*
X32150Y-26900D01*
X32150Y-26900D02*
X32150Y-27550D01*
X33050Y-28250D02*
X33050Y-28900D01*
X33050Y-28900D02*
X32150Y-28900D01*
X32150Y-28900D02*
X32150Y-28250D01*
X33050Y-27550D02*
X33050Y-26900D01*
X26750Y-28900D02*
X27650Y-28900D01*
X27650Y-28900D02*
X27650Y-28250D01*
X26750Y-27550D02*
X26750Y-26900D01*
X26750Y-26900D02*
X27650Y-26900D01*
X27650Y-26900D02*
X27650Y-27550D01*
X26750Y-28250D02*
X26750Y-28900D01*
X28650Y-26900D02*
X27750Y-26900D01*
X27750Y-26900D02*
X27750Y-27550D01*
X28650Y-28250D02*
X28650Y-28900D01*
X28650Y-28900D02*
X27750Y-28900D01*
X27750Y-28900D02*
X27750Y-28250D01*
X28650Y-27550D02*
X28650Y-26900D01*
X24550Y-28900D02*
X25450Y-28900D01*
X25450Y-28900D02*
X25450Y-28250D01*
X24550Y-27550D02*
X24550Y-26900D01*
X24550Y-26900D02*
X25450Y-26900D01*
X25450Y-26900D02*
X25450Y-27550D01*
X24550Y-28250D02*
X24550Y-28900D01*
X26450Y-26900D02*
X25550Y-26900D01*
X25550Y-26900D02*
X25550Y-27550D01*
X26450Y-28250D02*
X26450Y-28900D01*
X26450Y-28900D02*
X25550Y-28900D01*
X25550Y-28900D02*
X25550Y-28250D01*
X26450Y-27550D02*
X26450Y-26900D01*
X27900Y-22550D02*
X27900Y-23450D01*
X27900Y-23450D02*
X28550Y-23450D01*
X29250Y-22550D02*
X29900Y-22550D01*
X29900Y-22550D02*
X29900Y-23450D01*
X29900Y-23450D02*
X29250Y-23450D01*
X28550Y-22550D02*
X27900Y-22550D01*
G54D13*
X27500Y-18500D02*
X27500Y-19500D01*
X32500Y-19500D02*
X32500Y-18500D01*
X27500Y-18500D02*
X32500Y-18500D01*
X32500Y-19500D02*
X27500Y-19500D01*
G54D14*
X19600Y-12100D02*
X23600Y-12100D01*
X19600Y-13100D02*
X23600Y-13100D01*
X23600Y-13100D02*
X23600Y-12100D01*
X19600Y-12100D02*
X19600Y-13100D01*
X28200Y-12100D02*
X32200Y-12100D01*
X28200Y-13100D02*
X32200Y-13100D01*
X32200Y-13100D02*
X32200Y-12100D01*
X28200Y-12100D02*
X28200Y-13100D01*
X15100Y-12100D02*
X15100Y-16100D01*
X14100Y-12100D02*
X14100Y-16100D01*
X14100Y-16100D02*
X15100Y-16100D01*
X15100Y-12100D02*
X14100Y-12100D01*
X26500Y-19500D02*
X22500Y-19500D01*
X26500Y-18500D02*
X22500Y-18500D01*
X22500Y-18500D02*
X22500Y-19500D01*
X26500Y-19500D02*
X26500Y-18500D01*
X22500Y-19500D02*
X18500Y-19500D01*
X22500Y-18500D02*
X18500Y-18500D01*
X18500Y-18500D02*
X18500Y-19500D01*
X22500Y-19500D02*
X22500Y-18500D01*
X15100Y-16100D02*
X15100Y-20100D01*
X14100Y-16100D02*
X14100Y-20100D01*
X14100Y-20100D02*
X15100Y-20100D01*
X15100Y-16100D02*
X14100Y-16100D01*
G54D15*
X14600Y-31200D02*
X14600Y-30200D01*
X14600Y-30200D02*
X17600Y-30200D01*
X17600Y-30200D02*
X17600Y-31200D01*
X17600Y-31200D02*
X14600Y-31200D01*
X15600Y-30200D02*
X15600Y-31200D01*
X22100Y-31200D02*
X22100Y-30200D01*
X22100Y-30200D02*
X25100Y-30200D01*
X25100Y-30200D02*
X25100Y-31200D01*
X25100Y-31200D02*
X22100Y-31200D01*
X23100Y-30200D02*
X23100Y-31200D01*
X18100Y-31200D02*
X18100Y-30200D01*
X18100Y-30200D02*
X21100Y-30200D01*
X21100Y-30200D02*
X21100Y-31200D01*
X21100Y-31200D02*
X18100Y-31200D01*
X19100Y-30200D02*
X19100Y-31200D01*
X30200Y-29200D02*
X31200Y-29200D01*
X31200Y-29200D02*
X31200Y-31200D01*
X31200Y-31200D02*
X30200Y-31200D01*
X30200Y-31200D02*
X30200Y-29200D01*
X28200Y-29200D02*
X29200Y-29200D01*
X29200Y-29200D02*
X29200Y-31200D01*
X29200Y-31200D02*
X28200Y-31200D01*
X28200Y-31200D02*
X28200Y-29200D01*
X26200Y-29200D02*
X27200Y-29200D01*
X27200Y-29200D02*
X27200Y-31200D01*
X27200Y-31200D02*
X26200Y-31200D01*
X26200Y-31200D02*
X26200Y-29200D01*
X32100Y-29200D02*
X33100Y-29200D01*
X33100Y-29200D02*
X33100Y-31200D01*
X33100Y-31200D02*
X32100Y-31200D01*
X32100Y-31200D02*
X32100Y-29200D01*
X15500Y-20500D02*
X15500Y-19500D01*
X15500Y-19500D02*
X17500Y-19500D01*
X17500Y-19500D02*
X17500Y-20500D01*
X17500Y-20500D02*
X15500Y-20500D01*
X15500Y-19500D02*
X15500Y-18500D01*
X15500Y-18500D02*
X17500Y-18500D01*
X17500Y-18500D02*
X17500Y-19500D01*
X17500Y-19500D02*
X15500Y-19500D01*
X21500Y-24500D02*
X20500Y-24500D01*
X20500Y-24500D02*
X20500Y-22500D01*
X20500Y-22500D02*
X21500Y-22500D01*
X21500Y-22500D02*
X21500Y-24500D01*
X33200Y-13100D02*
X32200Y-13100D01*
X32200Y-12100D02*
X33200Y-12100D01*
X32200Y-13100D02*
X32200Y-12100D01*
X33200Y-12100D02*
X33200Y-13100D01*
X24600Y-13100D02*
X23600Y-13100D01*
X23600Y-12100D02*
X24600Y-12100D01*
X23600Y-13100D02*
X23600Y-12100D01*
X24600Y-12100D02*
X24600Y-13100D01*
X15500Y-25500D02*
X14500Y-25500D01*
X14500Y-25500D02*
X14500Y-22500D01*
X14500Y-22500D02*
X15500Y-22500D01*
X15500Y-22500D02*
X15500Y-25500D01*
X14500Y-24500D02*
X15500Y-24500D01*
G54D12*
X30650Y-21900D02*
X31550Y-21900D01*
X31550Y-21900D02*
X31550Y-21250D01*
X30650Y-20550D02*
X30650Y-19900D01*
X30650Y-19900D02*
X31550Y-19900D01*
X31550Y-19900D02*
X31550Y-20550D01*
X30650Y-21250D02*
X30650Y-21900D01*
X31650Y-21900D02*
X32550Y-21900D01*
X32550Y-21900D02*
X32550Y-21250D01*
X31650Y-20550D02*
X31650Y-19900D01*
X31650Y-19900D02*
X32550Y-19900D01*
X32550Y-19900D02*
X32550Y-20550D01*
X31650Y-21250D02*
X31650Y-21900D01*
X28950Y-21900D02*
X29850Y-21900D01*
X29850Y-21900D02*
X29850Y-21250D01*
X28950Y-20550D02*
X28950Y-19900D01*
X28950Y-19900D02*
X29850Y-19900D01*
X29850Y-19900D02*
X29850Y-20550D01*
X28950Y-21250D02*
X28950Y-21900D01*
X27850Y-21900D02*
X28750Y-21900D01*
X28750Y-21900D02*
X28750Y-21250D01*
X27850Y-20550D02*
X27850Y-19900D01*
X27850Y-19900D02*
X28750Y-19900D01*
X28750Y-19900D02*
X28750Y-20550D01*
X27850Y-21250D02*
X27850Y-21900D01*
G54D14*
X14100Y-29800D02*
X14100Y-25800D01*
X15100Y-29800D02*
X15100Y-25800D01*
X15100Y-25800D02*
X14100Y-25800D01*
X14100Y-29800D02*
X15100Y-29800D01*
G54D12*
X15650Y-26100D02*
X16550Y-26100D01*
X16550Y-26100D02*
X16550Y-25450D01*
X15650Y-24750D02*
X15650Y-24100D01*
X15650Y-24100D02*
X16550Y-24100D01*
X16550Y-24100D02*
X16550Y-24750D01*
X15650Y-25450D02*
X15650Y-26100D01*
G54D15*
X15100Y-22100D02*
X14100Y-22100D01*
X14100Y-22100D02*
X14100Y-20100D01*
X14100Y-20100D02*
X15100Y-20100D01*
X15100Y-20100D02*
X15100Y-22100D01*
G54D16*
X16061Y-22961D02*
X16061Y-23039D01*
X16061Y-23039D02*
X16139Y-23039D01*
X16139Y-22961D02*
X16139Y-23039D01*
X16061Y-22961D02*
X16139Y-22961D01*
X15825Y-23177D02*
X15825Y-23314D01*
X15825Y-23314D02*
X15923Y-23314D01*
X15923Y-23177D02*
X15923Y-23314D01*
X15825Y-23177D02*
X15923Y-23177D01*
X15825Y-23314D02*
X15825Y-23354D01*
X15825Y-23354D02*
X16296Y-23354D01*
X16296Y-23314D02*
X16296Y-23354D01*
X15825Y-23314D02*
X16296Y-23314D01*
X16316Y-23314D02*
X16316Y-23354D01*
X16316Y-23354D02*
X16375Y-23354D01*
X16375Y-23314D02*
X16375Y-23354D01*
X16316Y-23314D02*
X16375Y-23314D01*
X15825Y-22646D02*
X15825Y-22686D01*
X15825Y-22686D02*
X16296Y-22686D01*
X16296Y-22646D02*
X16296Y-22686D01*
X15825Y-22646D02*
X16296Y-22646D01*
X16316Y-22646D02*
X16316Y-22686D01*
X16316Y-22686D02*
X16375Y-22686D01*
X16375Y-22646D02*
X16375Y-22686D01*
X16316Y-22646D02*
X16375Y-22646D01*
X15825Y-23177D02*
X15825Y-23236D01*
X15825Y-23236D02*
X15923Y-23236D01*
X15923Y-23177D02*
X15923Y-23236D01*
X15825Y-23177D02*
X15923Y-23177D01*
G54D17*
X15805Y-23610D02*
X15805Y-22390D01*
X15805Y-22390D02*
X16395Y-22390D01*
X16395Y-22390D02*
X16395Y-23610D01*
X16395Y-23610D02*
X15805Y-23610D01*
X15903Y-22784D02*
G75*
G03X15904Y-23216I196J-215D01*
G74*
G01*
X16296Y-22784D02*
G75*
G03X15904Y-22783I-196J-215D01*
G74*
G01*
X16296Y-23215D02*
G75*
G03X16295Y-22783I-196J215D01*
G74*
G01*
X15903Y-23215D02*
G75*
G03X16295Y-23216I196J215D01*
G74*
G01*
G54D12*
X22400Y-22350D02*
X22400Y-21450D01*
X22400Y-21450D02*
X21750Y-21450D01*
X21050Y-22350D02*
X20400Y-22350D01*
X20400Y-22350D02*
X20400Y-21450D01*
X20400Y-21450D02*
X21050Y-21450D01*
X21750Y-22350D02*
X22400Y-22350D01*
X26800Y-22350D02*
X26800Y-21450D01*
X26800Y-21450D02*
X26150Y-21450D01*
X25450Y-22350D02*
X24800Y-22350D01*
X24800Y-22350D02*
X24800Y-21450D01*
X24800Y-21450D02*
X25450Y-21450D01*
X26150Y-22350D02*
X26800Y-22350D01*
X22600Y-21450D02*
X22600Y-22350D01*
X22600Y-22350D02*
X23250Y-22350D01*
X23950Y-21450D02*
X24600Y-21450D01*
X24600Y-21450D02*
X24600Y-22350D01*
X24600Y-22350D02*
X23950Y-22350D01*
X23250Y-21450D02*
X22600Y-21450D01*
X18200Y-21450D02*
X18200Y-22350D01*
X18200Y-22350D02*
X18850Y-22350D01*
X19550Y-21450D02*
X20200Y-21450D01*
X20200Y-21450D02*
X20200Y-22350D01*
X20200Y-22350D02*
X19550Y-22350D01*
X18850Y-21450D02*
X18200Y-21450D01*
G54D16*
X21961Y-20361D02*
X21961Y-20439D01*
X21961Y-20439D02*
X22039Y-20439D01*
X22039Y-20361D02*
X22039Y-20439D01*
X21961Y-20361D02*
X22039Y-20361D01*
X21725Y-20577D02*
X21725Y-20714D01*
X21725Y-20714D02*
X21823Y-20714D01*
X21823Y-20577D02*
X21823Y-20714D01*
X21725Y-20577D02*
X21823Y-20577D01*
X21725Y-20714D02*
X21725Y-20754D01*
X21725Y-20754D02*
X22196Y-20754D01*
X22196Y-20714D02*
X22196Y-20754D01*
X21725Y-20714D02*
X22196Y-20714D01*
X22216Y-20714D02*
X22216Y-20754D01*
X22216Y-20754D02*
X22275Y-20754D01*
X22275Y-20714D02*
X22275Y-20754D01*
X22216Y-20714D02*
X22275Y-20714D01*
X21725Y-20046D02*
X21725Y-20086D01*
X21725Y-20086D02*
X22196Y-20086D01*
X22196Y-20046D02*
X22196Y-20086D01*
X21725Y-20046D02*
X22196Y-20046D01*
X22216Y-20046D02*
X22216Y-20086D01*
X22216Y-20086D02*
X22275Y-20086D01*
X22275Y-20046D02*
X22275Y-20086D01*
X22216Y-20046D02*
X22275Y-20046D01*
X21725Y-20577D02*
X21725Y-20636D01*
X21725Y-20636D02*
X21823Y-20636D01*
X21823Y-20577D02*
X21823Y-20636D01*
X21725Y-20577D02*
X21823Y-20577D01*
G54D17*
X21705Y-21010D02*
X21705Y-19790D01*
X21705Y-19790D02*
X22295Y-19790D01*
X22295Y-19790D02*
X22295Y-21010D01*
X22295Y-21010D02*
X21705Y-21010D01*
X21803Y-20184D02*
G75*
G03X21804Y-20616I196J-215D01*
G74*
G01*
X22196Y-20184D02*
G75*
G03X21804Y-20183I-196J-215D01*
G74*
G01*
X22196Y-20615D02*
G75*
G03X22195Y-20183I-196J215D01*
G74*
G01*
X21803Y-20615D02*
G75*
G03X22195Y-20616I196J215D01*
G74*
G01*
G54D16*
X20961Y-20361D02*
X20961Y-20439D01*
X20961Y-20439D02*
X21039Y-20439D01*
X21039Y-20361D02*
X21039Y-20439D01*
X20961Y-20361D02*
X21039Y-20361D01*
X20725Y-20577D02*
X20725Y-20714D01*
X20725Y-20714D02*
X20823Y-20714D01*
X20823Y-20577D02*
X20823Y-20714D01*
X20725Y-20577D02*
X20823Y-20577D01*
X20725Y-20714D02*
X20725Y-20754D01*
X20725Y-20754D02*
X21196Y-20754D01*
X21196Y-20714D02*
X21196Y-20754D01*
X20725Y-20714D02*
X21196Y-20714D01*
X21216Y-20714D02*
X21216Y-20754D01*
X21216Y-20754D02*
X21275Y-20754D01*
X21275Y-20714D02*
X21275Y-20754D01*
X21216Y-20714D02*
X21275Y-20714D01*
X20725Y-20046D02*
X20725Y-20086D01*
X20725Y-20086D02*
X21196Y-20086D01*
X21196Y-20046D02*
X21196Y-20086D01*
X20725Y-20046D02*
X21196Y-20046D01*
X21216Y-20046D02*
X21216Y-20086D01*
X21216Y-20086D02*
X21275Y-20086D01*
X21275Y-20046D02*
X21275Y-20086D01*
X21216Y-20046D02*
X21275Y-20046D01*
X20725Y-20577D02*
X20725Y-20636D01*
X20725Y-20636D02*
X20823Y-20636D01*
X20823Y-20577D02*
X20823Y-20636D01*
X20725Y-20577D02*
X20823Y-20577D01*
G54D17*
X20705Y-21010D02*
X20705Y-19790D01*
X20705Y-19790D02*
X21295Y-19790D01*
X21295Y-19790D02*
X21295Y-21010D01*
X21295Y-21010D02*
X20705Y-21010D01*
X20803Y-20184D02*
G75*
G03X20804Y-20616I196J-215D01*
G74*
G01*
X21196Y-20184D02*
G75*
G03X20804Y-20183I-196J-215D01*
G74*
G01*
X21196Y-20615D02*
G75*
G03X21195Y-20183I-196J215D01*
G74*
G01*
X20803Y-20615D02*
G75*
G03X21195Y-20616I196J215D01*
G74*
G01*
G54D16*
X25961Y-20361D02*
X25961Y-20439D01*
X25961Y-20439D02*
X26039Y-20439D01*
X26039Y-20361D02*
X26039Y-20439D01*
X25961Y-20361D02*
X26039Y-20361D01*
X25725Y-20577D02*
X25725Y-20714D01*
X25725Y-20714D02*
X25823Y-20714D01*
X25823Y-20577D02*
X25823Y-20714D01*
X25725Y-20577D02*
X25823Y-20577D01*
X25725Y-20714D02*
X25725Y-20754D01*
X25725Y-20754D02*
X26196Y-20754D01*
X26196Y-20714D02*
X26196Y-20754D01*
X25725Y-20714D02*
X26196Y-20714D01*
X26216Y-20714D02*
X26216Y-20754D01*
X26216Y-20754D02*
X26275Y-20754D01*
X26275Y-20714D02*
X26275Y-20754D01*
X26216Y-20714D02*
X26275Y-20714D01*
X25725Y-20046D02*
X25725Y-20086D01*
X25725Y-20086D02*
X26196Y-20086D01*
X26196Y-20046D02*
X26196Y-20086D01*
X25725Y-20046D02*
X26196Y-20046D01*
X26216Y-20046D02*
X26216Y-20086D01*
X26216Y-20086D02*
X26275Y-20086D01*
X26275Y-20046D02*
X26275Y-20086D01*
X26216Y-20046D02*
X26275Y-20046D01*
X25725Y-20577D02*
X25725Y-20636D01*
X25725Y-20636D02*
X25823Y-20636D01*
X25823Y-20577D02*
X25823Y-20636D01*
X25725Y-20577D02*
X25823Y-20577D01*
G54D17*
X25705Y-21010D02*
X25705Y-19790D01*
X25705Y-19790D02*
X26295Y-19790D01*
X26295Y-19790D02*
X26295Y-21010D01*
X26295Y-21010D02*
X25705Y-21010D01*
X25803Y-20184D02*
G75*
G03X25804Y-20616I196J-215D01*
G74*
G01*
X26196Y-20184D02*
G75*
G03X25804Y-20183I-196J-215D01*
G74*
G01*
X26196Y-20615D02*
G75*
G03X26195Y-20183I-196J215D01*
G74*
G01*
X25803Y-20615D02*
G75*
G03X26195Y-20616I196J215D01*
G74*
G01*
G54D16*
X24961Y-20361D02*
X24961Y-20439D01*
X24961Y-20439D02*
X25039Y-20439D01*
X25039Y-20361D02*
X25039Y-20439D01*
X24961Y-20361D02*
X25039Y-20361D01*
X24725Y-20577D02*
X24725Y-20714D01*
X24725Y-20714D02*
X24823Y-20714D01*
X24823Y-20577D02*
X24823Y-20714D01*
X24725Y-20577D02*
X24823Y-20577D01*
X24725Y-20714D02*
X24725Y-20754D01*
X24725Y-20754D02*
X25196Y-20754D01*
X25196Y-20714D02*
X25196Y-20754D01*
X24725Y-20714D02*
X25196Y-20714D01*
X25216Y-20714D02*
X25216Y-20754D01*
X25216Y-20754D02*
X25275Y-20754D01*
X25275Y-20714D02*
X25275Y-20754D01*
X25216Y-20714D02*
X25275Y-20714D01*
X24725Y-20046D02*
X24725Y-20086D01*
X24725Y-20086D02*
X25196Y-20086D01*
X25196Y-20046D02*
X25196Y-20086D01*
X24725Y-20046D02*
X25196Y-20046D01*
X25216Y-20046D02*
X25216Y-20086D01*
X25216Y-20086D02*
X25275Y-20086D01*
X25275Y-20046D02*
X25275Y-20086D01*
X25216Y-20046D02*
X25275Y-20046D01*
X24725Y-20577D02*
X24725Y-20636D01*
X24725Y-20636D02*
X24823Y-20636D01*
X24823Y-20577D02*
X24823Y-20636D01*
X24725Y-20577D02*
X24823Y-20577D01*
G54D17*
X24705Y-21010D02*
X24705Y-19790D01*
X24705Y-19790D02*
X25295Y-19790D01*
X25295Y-19790D02*
X25295Y-21010D01*
X25295Y-21010D02*
X24705Y-21010D01*
X24803Y-20184D02*
G75*
G03X24804Y-20616I196J-215D01*
G74*
G01*
X25196Y-20184D02*
G75*
G03X24804Y-20183I-196J-215D01*
G74*
G01*
X25196Y-20615D02*
G75*
G03X25195Y-20183I-196J215D01*
G74*
G01*
X24803Y-20615D02*
G75*
G03X25195Y-20616I196J215D01*
G74*
G01*
G54D16*
X19961Y-20361D02*
X19961Y-20439D01*
X19961Y-20439D02*
X20039Y-20439D01*
X20039Y-20361D02*
X20039Y-20439D01*
X19961Y-20361D02*
X20039Y-20361D01*
X19725Y-20577D02*
X19725Y-20714D01*
X19725Y-20714D02*
X19823Y-20714D01*
X19823Y-20577D02*
X19823Y-20714D01*
X19725Y-20577D02*
X19823Y-20577D01*
X19725Y-20714D02*
X19725Y-20754D01*
X19725Y-20754D02*
X20196Y-20754D01*
X20196Y-20714D02*
X20196Y-20754D01*
X19725Y-20714D02*
X20196Y-20714D01*
X20216Y-20714D02*
X20216Y-20754D01*
X20216Y-20754D02*
X20275Y-20754D01*
X20275Y-20714D02*
X20275Y-20754D01*
X20216Y-20714D02*
X20275Y-20714D01*
X19725Y-20046D02*
X19725Y-20086D01*
X19725Y-20086D02*
X20196Y-20086D01*
X20196Y-20046D02*
X20196Y-20086D01*
X19725Y-20046D02*
X20196Y-20046D01*
X20216Y-20046D02*
X20216Y-20086D01*
X20216Y-20086D02*
X20275Y-20086D01*
X20275Y-20046D02*
X20275Y-20086D01*
X20216Y-20046D02*
X20275Y-20046D01*
X19725Y-20577D02*
X19725Y-20636D01*
X19725Y-20636D02*
X19823Y-20636D01*
X19823Y-20577D02*
X19823Y-20636D01*
X19725Y-20577D02*
X19823Y-20577D01*
G54D17*
X19705Y-21010D02*
X19705Y-19790D01*
X19705Y-19790D02*
X20295Y-19790D01*
X20295Y-19790D02*
X20295Y-21010D01*
X20295Y-21010D02*
X19705Y-21010D01*
X19803Y-20184D02*
G75*
G03X19804Y-20616I196J-215D01*
G74*
G01*
X20196Y-20184D02*
G75*
G03X19804Y-20183I-196J-215D01*
G74*
G01*
X20196Y-20615D02*
G75*
G03X20195Y-20183I-196J215D01*
G74*
G01*
X19803Y-20615D02*
G75*
G03X20195Y-20616I196J215D01*
G74*
G01*
G54D16*
X18961Y-20361D02*
X18961Y-20439D01*
X18961Y-20439D02*
X19039Y-20439D01*
X19039Y-20361D02*
X19039Y-20439D01*
X18961Y-20361D02*
X19039Y-20361D01*
X18725Y-20577D02*
X18725Y-20714D01*
X18725Y-20714D02*
X18823Y-20714D01*
X18823Y-20577D02*
X18823Y-20714D01*
X18725Y-20577D02*
X18823Y-20577D01*
X18725Y-20714D02*
X18725Y-20754D01*
X18725Y-20754D02*
X19196Y-20754D01*
X19196Y-20714D02*
X19196Y-20754D01*
X18725Y-20714D02*
X19196Y-20714D01*
X19216Y-20714D02*
X19216Y-20754D01*
X19216Y-20754D02*
X19275Y-20754D01*
X19275Y-20714D02*
X19275Y-20754D01*
X19216Y-20714D02*
X19275Y-20714D01*
X18725Y-20046D02*
X18725Y-20086D01*
X18725Y-20086D02*
X19196Y-20086D01*
X19196Y-20046D02*
X19196Y-20086D01*
X18725Y-20046D02*
X19196Y-20046D01*
X19216Y-20046D02*
X19216Y-20086D01*
X19216Y-20086D02*
X19275Y-20086D01*
X19275Y-20046D02*
X19275Y-20086D01*
X19216Y-20046D02*
X19275Y-20046D01*
X18725Y-20577D02*
X18725Y-20636D01*
X18725Y-20636D02*
X18823Y-20636D01*
X18823Y-20577D02*
X18823Y-20636D01*
X18725Y-20577D02*
X18823Y-20577D01*
G54D17*
X18705Y-21010D02*
X18705Y-19790D01*
X18705Y-19790D02*
X19295Y-19790D01*
X19295Y-19790D02*
X19295Y-21010D01*
X19295Y-21010D02*
X18705Y-21010D01*
X18803Y-20184D02*
G75*
G03X18804Y-20616I196J-215D01*
G74*
G01*
X19196Y-20184D02*
G75*
G03X18804Y-20183I-196J-215D01*
G74*
G01*
X19196Y-20615D02*
G75*
G03X19195Y-20183I-196J215D01*
G74*
G01*
X18803Y-20615D02*
G75*
G03X19195Y-20616I196J215D01*
G74*
G01*
G54D16*
X23961Y-20361D02*
X23961Y-20439D01*
X23961Y-20439D02*
X24039Y-20439D01*
X24039Y-20361D02*
X24039Y-20439D01*
X23961Y-20361D02*
X24039Y-20361D01*
X23725Y-20577D02*
X23725Y-20714D01*
X23725Y-20714D02*
X23823Y-20714D01*
X23823Y-20577D02*
X23823Y-20714D01*
X23725Y-20577D02*
X23823Y-20577D01*
X23725Y-20714D02*
X23725Y-20754D01*
X23725Y-20754D02*
X24196Y-20754D01*
X24196Y-20714D02*
X24196Y-20754D01*
X23725Y-20714D02*
X24196Y-20714D01*
X24216Y-20714D02*
X24216Y-20754D01*
X24216Y-20754D02*
X24275Y-20754D01*
X24275Y-20714D02*
X24275Y-20754D01*
X24216Y-20714D02*
X24275Y-20714D01*
X23725Y-20046D02*
X23725Y-20086D01*
X23725Y-20086D02*
X24196Y-20086D01*
X24196Y-20046D02*
X24196Y-20086D01*
X23725Y-20046D02*
X24196Y-20046D01*
X24216Y-20046D02*
X24216Y-20086D01*
X24216Y-20086D02*
X24275Y-20086D01*
X24275Y-20046D02*
X24275Y-20086D01*
X24216Y-20046D02*
X24275Y-20046D01*
X23725Y-20577D02*
X23725Y-20636D01*
X23725Y-20636D02*
X23823Y-20636D01*
X23823Y-20577D02*
X23823Y-20636D01*
X23725Y-20577D02*
X23823Y-20577D01*
G54D17*
X23705Y-21010D02*
X23705Y-19790D01*
X23705Y-19790D02*
X24295Y-19790D01*
X24295Y-19790D02*
X24295Y-21010D01*
X24295Y-21010D02*
X23705Y-21010D01*
X23803Y-20184D02*
G75*
G03X23804Y-20616I196J-215D01*
G74*
G01*
X24196Y-20184D02*
G75*
G03X23804Y-20183I-196J-215D01*
G74*
G01*
X24196Y-20615D02*
G75*
G03X24195Y-20183I-196J215D01*
G74*
G01*
X23803Y-20615D02*
G75*
G03X24195Y-20616I196J215D01*
G74*
G01*
G54D16*
X22961Y-20361D02*
X22961Y-20439D01*
X22961Y-20439D02*
X23039Y-20439D01*
X23039Y-20361D02*
X23039Y-20439D01*
X22961Y-20361D02*
X23039Y-20361D01*
X22725Y-20577D02*
X22725Y-20714D01*
X22725Y-20714D02*
X22823Y-20714D01*
X22823Y-20577D02*
X22823Y-20714D01*
X22725Y-20577D02*
X22823Y-20577D01*
X22725Y-20714D02*
X22725Y-20754D01*
X22725Y-20754D02*
X23196Y-20754D01*
X23196Y-20714D02*
X23196Y-20754D01*
X22725Y-20714D02*
X23196Y-20714D01*
X23216Y-20714D02*
X23216Y-20754D01*
X23216Y-20754D02*
X23275Y-20754D01*
X23275Y-20714D02*
X23275Y-20754D01*
X23216Y-20714D02*
X23275Y-20714D01*
X22725Y-20046D02*
X22725Y-20086D01*
X22725Y-20086D02*
X23196Y-20086D01*
X23196Y-20046D02*
X23196Y-20086D01*
X22725Y-20046D02*
X23196Y-20046D01*
X23216Y-20046D02*
X23216Y-20086D01*
X23216Y-20086D02*
X23275Y-20086D01*
X23275Y-20046D02*
X23275Y-20086D01*
X23216Y-20046D02*
X23275Y-20046D01*
X22725Y-20577D02*
X22725Y-20636D01*
X22725Y-20636D02*
X22823Y-20636D01*
X22823Y-20577D02*
X22823Y-20636D01*
X22725Y-20577D02*
X22823Y-20577D01*
G54D17*
X22705Y-21010D02*
X22705Y-19790D01*
X22705Y-19790D02*
X23295Y-19790D01*
X23295Y-19790D02*
X23295Y-21010D01*
X23295Y-21010D02*
X22705Y-21010D01*
X22803Y-20184D02*
G75*
G03X22804Y-20616I196J-215D01*
G74*
G01*
X23196Y-20184D02*
G75*
G03X22804Y-20183I-196J-215D01*
G74*
G01*
X23196Y-20615D02*
G75*
G03X23195Y-20183I-196J215D01*
G74*
G01*
X22803Y-20615D02*
G75*
G03X23195Y-20616I196J215D01*
G74*
G01*
G54D10*
X21003Y-15290D02*
X21059Y-15309D01*
X21153Y-15309D01*
X21190Y-15290D01*
X21209Y-15271D01*
X21228Y-15234D01*
X21228Y-15196D01*
X21209Y-15159D01*
X21190Y-15140D01*
X21153Y-15121D01*
X21078Y-15103D01*
X21040Y-15084D01*
X21021Y-15065D01*
X21003Y-15028D01*
X21003Y-14990D01*
X21021Y-14953D01*
X21040Y-14934D01*
X21078Y-14915D01*
X21171Y-14915D01*
X21228Y-14934D01*
X21471Y-14915D02*
X21546Y-14915D01*
X21584Y-14934D01*
X21621Y-14971D01*
X21640Y-15046D01*
X21640Y-15178D01*
X21621Y-15253D01*
X21584Y-15290D01*
X21546Y-15309D01*
X21471Y-15309D01*
X21434Y-15290D01*
X21396Y-15253D01*
X21378Y-15178D01*
X21378Y-15046D01*
X21396Y-14971D01*
X21434Y-14934D01*
X21471Y-14915D01*
X21809Y-15309D02*
X21809Y-14915D01*
X22221Y-15271D02*
X22203Y-15290D01*
X22146Y-15309D01*
X22109Y-15309D01*
X22053Y-15290D01*
X22015Y-15253D01*
X21996Y-15215D01*
X21978Y-15140D01*
X21978Y-15084D01*
X21996Y-15009D01*
X22015Y-14971D01*
X22053Y-14934D01*
X22109Y-14915D01*
X22146Y-14915D01*
X22203Y-14934D01*
X22221Y-14953D01*
X22596Y-15309D02*
X22371Y-15309D01*
X22484Y-15309D02*
X22484Y-14915D01*
X22446Y-14971D01*
X22409Y-15009D01*
X22371Y-15028D01*
X31840Y-25446D02*
X31859Y-25390D01*
X31859Y-25296D01*
X31840Y-25259D01*
X31821Y-25240D01*
X31784Y-25221D01*
X31746Y-25221D01*
X31709Y-25240D01*
X31690Y-25259D01*
X31671Y-25296D01*
X31653Y-25371D01*
X31634Y-25409D01*
X31615Y-25428D01*
X31578Y-25446D01*
X31540Y-25446D01*
X31503Y-25428D01*
X31484Y-25409D01*
X31465Y-25371D01*
X31465Y-25278D01*
X31484Y-25221D01*
X31465Y-24978D02*
X31465Y-24903D01*
X31484Y-24865D01*
X31521Y-24828D01*
X31596Y-24809D01*
X31728Y-24809D01*
X31803Y-24828D01*
X31840Y-24865D01*
X31859Y-24903D01*
X31859Y-24978D01*
X31840Y-25015D01*
X31803Y-25053D01*
X31728Y-25071D01*
X31596Y-25071D01*
X31521Y-25053D01*
X31484Y-25015D01*
X31465Y-24978D01*
X31859Y-24640D02*
X31465Y-24640D01*
X31821Y-24228D02*
X31840Y-24246D01*
X31859Y-24303D01*
X31859Y-24340D01*
X31840Y-24396D01*
X31803Y-24434D01*
X31765Y-24453D01*
X31690Y-24471D01*
X31634Y-24471D01*
X31559Y-24453D01*
X31521Y-24434D01*
X31484Y-24396D01*
X31465Y-24340D01*
X31465Y-24303D01*
X31484Y-24246D01*
X31503Y-24228D01*
X31896Y-24153D02*
X31896Y-23853D01*
X31859Y-23553D02*
X31859Y-23778D01*
X31859Y-23665D02*
X31465Y-23665D01*
X31521Y-23703D01*
X31559Y-23740D01*
X31578Y-23778D01*
X25840Y-25546D02*
X25859Y-25490D01*
X25859Y-25396D01*
X25840Y-25359D01*
X25821Y-25340D01*
X25784Y-25321D01*
X25746Y-25321D01*
X25709Y-25340D01*
X25690Y-25359D01*
X25671Y-25396D01*
X25653Y-25471D01*
X25634Y-25509D01*
X25615Y-25528D01*
X25578Y-25546D01*
X25540Y-25546D01*
X25503Y-25528D01*
X25484Y-25509D01*
X25465Y-25471D01*
X25465Y-25378D01*
X25484Y-25321D01*
X25465Y-25078D02*
X25465Y-25003D01*
X25484Y-24965D01*
X25521Y-24928D01*
X25596Y-24909D01*
X25728Y-24909D01*
X25803Y-24928D01*
X25840Y-24965D01*
X25859Y-25003D01*
X25859Y-25078D01*
X25840Y-25115D01*
X25803Y-25153D01*
X25728Y-25171D01*
X25596Y-25171D01*
X25521Y-25153D01*
X25484Y-25115D01*
X25465Y-25078D01*
X25859Y-24740D02*
X25465Y-24740D01*
X25821Y-24328D02*
X25840Y-24346D01*
X25859Y-24403D01*
X25859Y-24440D01*
X25840Y-24496D01*
X25803Y-24534D01*
X25765Y-24553D01*
X25690Y-24571D01*
X25634Y-24571D01*
X25559Y-24553D01*
X25521Y-24534D01*
X25484Y-24496D01*
X25465Y-24440D01*
X25465Y-24403D01*
X25484Y-24346D01*
X25503Y-24328D01*
X25896Y-24253D02*
X25896Y-23953D01*
X25503Y-23878D02*
X25484Y-23859D01*
X25465Y-23821D01*
X25465Y-23728D01*
X25484Y-23690D01*
X25503Y-23671D01*
X25540Y-23653D01*
X25578Y-23653D01*
X25634Y-23671D01*
X25859Y-23896D01*
X25859Y-23653D01*
X29503Y-15290D02*
X29559Y-15309D01*
X29653Y-15309D01*
X29690Y-15290D01*
X29709Y-15271D01*
X29728Y-15234D01*
X29728Y-15196D01*
X29709Y-15159D01*
X29690Y-15140D01*
X29653Y-15121D01*
X29578Y-15103D01*
X29540Y-15084D01*
X29521Y-15065D01*
X29503Y-15028D01*
X29503Y-14990D01*
X29521Y-14953D01*
X29540Y-14934D01*
X29578Y-14915D01*
X29671Y-14915D01*
X29728Y-14934D01*
X29971Y-14915D02*
X30046Y-14915D01*
X30084Y-14934D01*
X30121Y-14971D01*
X30140Y-15046D01*
X30140Y-15178D01*
X30121Y-15253D01*
X30084Y-15290D01*
X30046Y-15309D01*
X29971Y-15309D01*
X29934Y-15290D01*
X29896Y-15253D01*
X29878Y-15178D01*
X29878Y-15046D01*
X29896Y-14971D01*
X29934Y-14934D01*
X29971Y-14915D01*
X30309Y-15309D02*
X30309Y-14915D01*
X30721Y-15271D02*
X30703Y-15290D01*
X30646Y-15309D01*
X30609Y-15309D01*
X30553Y-15290D01*
X30515Y-15253D01*
X30496Y-15215D01*
X30478Y-15140D01*
X30478Y-15084D01*
X30496Y-15009D01*
X30515Y-14971D01*
X30553Y-14934D01*
X30609Y-14915D01*
X30646Y-14915D01*
X30703Y-14934D01*
X30721Y-14953D01*
X30871Y-14953D02*
X30890Y-14934D01*
X30928Y-14915D01*
X31021Y-14915D01*
X31059Y-14934D01*
X31078Y-14953D01*
X31096Y-14990D01*
X31096Y-15028D01*
X31078Y-15084D01*
X30853Y-15309D01*
X31096Y-15309D01*
X12840Y-15321D02*
X12859Y-15265D01*
X12859Y-15171D01*
X12840Y-15134D01*
X12821Y-15115D01*
X12784Y-15096D01*
X12746Y-15096D01*
X12709Y-15115D01*
X12690Y-15134D01*
X12671Y-15171D01*
X12653Y-15246D01*
X12634Y-15284D01*
X12615Y-15303D01*
X12578Y-15321D01*
X12540Y-15321D01*
X12503Y-15303D01*
X12484Y-15284D01*
X12465Y-15246D01*
X12465Y-15153D01*
X12484Y-15096D01*
X12859Y-14928D02*
X12465Y-14928D01*
X12746Y-14796D01*
X12465Y-14665D01*
X12859Y-14665D01*
X12859Y-14478D02*
X12465Y-14478D01*
X12465Y-14384D01*
X12484Y-14328D01*
X12521Y-14290D01*
X12559Y-14271D01*
X12634Y-14253D01*
X12690Y-14253D01*
X12765Y-14271D01*
X12803Y-14290D01*
X12840Y-14328D01*
X12859Y-14384D01*
X12859Y-14478D01*
X12859Y-13878D02*
X12859Y-14103D01*
X12859Y-13990D02*
X12465Y-13990D01*
X12521Y-14028D01*
X12559Y-14065D01*
X12578Y-14103D01*
X17171Y-9652D02*
X17190Y-9671D01*
X17209Y-9727D01*
X17209Y-9765D01*
X17190Y-9821D01*
X17153Y-9859D01*
X17115Y-9877D01*
X17040Y-9896D01*
X16984Y-9896D01*
X16909Y-9877D01*
X16871Y-9859D01*
X16834Y-9821D01*
X16815Y-9765D01*
X16815Y-9727D01*
X16834Y-9671D01*
X16853Y-9652D01*
X17209Y-9259D02*
X17021Y-9390D01*
X17209Y-9484D02*
X16815Y-9484D01*
X16815Y-9334D01*
X16834Y-9296D01*
X16853Y-9277D01*
X16890Y-9259D01*
X16946Y-9259D01*
X16984Y-9277D01*
X17003Y-9296D01*
X17021Y-9334D01*
X17021Y-9484D01*
X17021Y-9015D02*
X17209Y-9015D01*
X16815Y-9146D02*
X17021Y-9015D01*
X16815Y-8884D01*
X17190Y-8771D02*
X17209Y-8715D01*
X17209Y-8621D01*
X17190Y-8584D01*
X17171Y-8565D01*
X17134Y-8546D01*
X17096Y-8546D01*
X17059Y-8565D01*
X17040Y-8584D01*
X17021Y-8621D01*
X17003Y-8696D01*
X16984Y-8734D01*
X16965Y-8752D01*
X16928Y-8771D01*
X16890Y-8771D01*
X16853Y-8752D01*
X16834Y-8734D01*
X16815Y-8696D01*
X16815Y-8602D01*
X16834Y-8546D01*
X16815Y-8434D02*
X16815Y-8209D01*
X17209Y-8321D02*
X16815Y-8321D01*
X17096Y-8096D02*
X17096Y-7909D01*
X17209Y-8134D02*
X16815Y-8003D01*
X17209Y-7871D01*
X17209Y-7553D02*
X17209Y-7740D01*
X16815Y-7740D01*
X17246Y-7515D02*
X17246Y-7215D01*
X16946Y-6953D02*
X17209Y-6953D01*
X16796Y-7046D02*
X17078Y-7140D01*
X17078Y-6896D01*
X16815Y-6671D02*
X16815Y-6634D01*
X16834Y-6597D01*
X16853Y-6578D01*
X16890Y-6559D01*
X16965Y-6540D01*
X17059Y-6540D01*
X17134Y-6559D01*
X17171Y-6578D01*
X17190Y-6597D01*
X17209Y-6634D01*
X17209Y-6671D01*
X17190Y-6709D01*
X17171Y-6728D01*
X17134Y-6746D01*
X17059Y-6765D01*
X16965Y-6765D01*
X16890Y-6746D01*
X16853Y-6728D01*
X16834Y-6709D01*
X16815Y-6671D01*
X17209Y-6372D02*
X16815Y-6372D01*
X17096Y-6240D01*
X16815Y-6109D01*
X17209Y-6109D01*
X17209Y-5922D02*
X16815Y-5922D01*
X17003Y-5922D02*
X17003Y-5697D01*
X17209Y-5697D02*
X16815Y-5697D01*
X16815Y-5547D02*
X16815Y-5284D01*
X17209Y-5547D01*
X17209Y-5284D01*
X26240Y-9921D02*
X26259Y-9865D01*
X26259Y-9771D01*
X26240Y-9734D01*
X26221Y-9715D01*
X26184Y-9696D01*
X26146Y-9696D01*
X26109Y-9715D01*
X26090Y-9734D01*
X26071Y-9771D01*
X26053Y-9846D01*
X26034Y-9884D01*
X26015Y-9903D01*
X25978Y-9921D01*
X25940Y-9921D01*
X25903Y-9903D01*
X25884Y-9884D01*
X25865Y-9846D01*
X25865Y-9753D01*
X25884Y-9696D01*
X26259Y-9528D02*
X25865Y-9528D01*
X26146Y-9396D01*
X25865Y-9265D01*
X26259Y-9265D01*
X26259Y-9078D02*
X25865Y-9078D01*
X25865Y-8984D01*
X25884Y-8928D01*
X25921Y-8890D01*
X25959Y-8871D01*
X26034Y-8853D01*
X26090Y-8853D01*
X26165Y-8871D01*
X26203Y-8890D01*
X26240Y-8928D01*
X26259Y-8984D01*
X26259Y-9078D01*
X25903Y-8703D02*
X25884Y-8684D01*
X25865Y-8646D01*
X25865Y-8553D01*
X25884Y-8515D01*
X25903Y-8496D01*
X25940Y-8478D01*
X25978Y-8478D01*
X26034Y-8496D01*
X26259Y-8721D01*
X26259Y-8478D01*
X24671Y-10652D02*
X24690Y-10671D01*
X24709Y-10727D01*
X24709Y-10765D01*
X24690Y-10821D01*
X24653Y-10859D01*
X24615Y-10877D01*
X24540Y-10896D01*
X24484Y-10896D01*
X24409Y-10877D01*
X24371Y-10859D01*
X24334Y-10821D01*
X24315Y-10765D01*
X24315Y-10727D01*
X24334Y-10671D01*
X24353Y-10652D01*
X24709Y-10259D02*
X24521Y-10390D01*
X24709Y-10484D02*
X24315Y-10484D01*
X24315Y-10334D01*
X24334Y-10296D01*
X24353Y-10277D01*
X24390Y-10259D01*
X24446Y-10259D01*
X24484Y-10277D01*
X24503Y-10296D01*
X24521Y-10334D01*
X24521Y-10484D01*
X24521Y-10015D02*
X24709Y-10015D01*
X24315Y-10146D02*
X24521Y-10015D01*
X24315Y-9884D01*
X24690Y-9771D02*
X24709Y-9715D01*
X24709Y-9621D01*
X24690Y-9584D01*
X24671Y-9565D01*
X24634Y-9546D01*
X24596Y-9546D01*
X24559Y-9565D01*
X24540Y-9584D01*
X24521Y-9621D01*
X24503Y-9696D01*
X24484Y-9734D01*
X24465Y-9752D01*
X24428Y-9771D01*
X24390Y-9771D01*
X24353Y-9752D01*
X24334Y-9734D01*
X24315Y-9696D01*
X24315Y-9602D01*
X24334Y-9546D01*
X24315Y-9434D02*
X24315Y-9209D01*
X24709Y-9321D02*
X24315Y-9321D01*
X24596Y-9096D02*
X24596Y-8909D01*
X24709Y-9134D02*
X24315Y-9003D01*
X24709Y-8871D01*
X24709Y-8553D02*
X24709Y-8740D01*
X24315Y-8740D01*
X24746Y-8515D02*
X24746Y-8215D01*
X24446Y-7953D02*
X24709Y-7953D01*
X24296Y-8046D02*
X24578Y-8140D01*
X24578Y-7896D01*
X24315Y-7671D02*
X24315Y-7634D01*
X24334Y-7597D01*
X24353Y-7578D01*
X24390Y-7559D01*
X24465Y-7540D01*
X24559Y-7540D01*
X24634Y-7559D01*
X24671Y-7578D01*
X24690Y-7597D01*
X24709Y-7634D01*
X24709Y-7671D01*
X24690Y-7709D01*
X24671Y-7728D01*
X24634Y-7746D01*
X24559Y-7765D01*
X24465Y-7765D01*
X24390Y-7746D01*
X24353Y-7728D01*
X24334Y-7709D01*
X24315Y-7671D01*
X24709Y-7372D02*
X24315Y-7372D01*
X24596Y-7240D01*
X24315Y-7109D01*
X24709Y-7109D01*
X24709Y-6922D02*
X24315Y-6922D01*
X24503Y-6922D02*
X24503Y-6697D01*
X24709Y-6697D02*
X24315Y-6697D01*
X24315Y-6547D02*
X24315Y-6284D01*
X24709Y-6547D01*
X24709Y-6284D01*
G54D12*
X16007Y-28021D02*
X15907Y-27878D01*
X15835Y-28021D02*
X15835Y-27721D01*
X15950Y-27721D01*
X15978Y-27735D01*
X15992Y-27750D01*
X16007Y-27778D01*
X16007Y-27821D01*
X15992Y-27850D01*
X15978Y-27864D01*
X15950Y-27878D01*
X15835Y-27878D01*
X16121Y-27750D02*
X16135Y-27735D01*
X16164Y-27721D01*
X16235Y-27721D01*
X16264Y-27735D01*
X16278Y-27750D01*
X16292Y-27778D01*
X16292Y-27807D01*
X16278Y-27850D01*
X16107Y-28021D01*
X16292Y-28021D01*
X16407Y-27750D02*
X16421Y-27735D01*
X16450Y-27721D01*
X16521Y-27721D01*
X16550Y-27735D01*
X16564Y-27750D01*
X16578Y-27778D01*
X16578Y-27807D01*
X16564Y-27850D01*
X16392Y-28021D01*
X16578Y-28021D01*
X29021Y-25292D02*
X28878Y-25392D01*
X29021Y-25464D02*
X28721Y-25464D01*
X28721Y-25350D01*
X28735Y-25321D01*
X28750Y-25307D01*
X28778Y-25292D01*
X28821Y-25292D01*
X28850Y-25307D01*
X28864Y-25321D01*
X28878Y-25350D01*
X28878Y-25464D01*
X28750Y-25178D02*
X28735Y-25164D01*
X28721Y-25135D01*
X28721Y-25064D01*
X28735Y-25035D01*
X28750Y-25021D01*
X28778Y-25007D01*
X28807Y-25007D01*
X28850Y-25021D01*
X29021Y-25192D01*
X29021Y-25007D01*
X28721Y-24907D02*
X28721Y-24721D01*
X28835Y-24821D01*
X28835Y-24778D01*
X28850Y-24750D01*
X28864Y-24735D01*
X28892Y-24721D01*
X28964Y-24721D01*
X28992Y-24735D01*
X29007Y-24750D01*
X29021Y-24778D01*
X29021Y-24864D01*
X29007Y-24892D01*
X28992Y-24907D01*
X29021Y-26292D02*
X28878Y-26392D01*
X29021Y-26464D02*
X28721Y-26464D01*
X28721Y-26350D01*
X28735Y-26321D01*
X28750Y-26307D01*
X28778Y-26292D01*
X28821Y-26292D01*
X28850Y-26307D01*
X28864Y-26321D01*
X28878Y-26350D01*
X28878Y-26464D01*
X28750Y-26178D02*
X28735Y-26164D01*
X28721Y-26135D01*
X28721Y-26064D01*
X28735Y-26035D01*
X28750Y-26021D01*
X28778Y-26007D01*
X28807Y-26007D01*
X28850Y-26021D01*
X29021Y-26192D01*
X29021Y-26007D01*
X28821Y-25750D02*
X29021Y-25750D01*
X28707Y-25821D02*
X28921Y-25892D01*
X28921Y-25707D01*
X23121Y-23192D02*
X22978Y-23292D01*
X23121Y-23364D02*
X22821Y-23364D01*
X22821Y-23250D01*
X22835Y-23221D01*
X22850Y-23207D01*
X22878Y-23192D01*
X22921Y-23192D01*
X22950Y-23207D01*
X22964Y-23221D01*
X22978Y-23250D01*
X22978Y-23364D01*
X23121Y-22907D02*
X23121Y-23078D01*
X23121Y-22992D02*
X22821Y-22992D01*
X22864Y-23021D01*
X22892Y-23050D01*
X22907Y-23078D01*
X23121Y-22764D02*
X23121Y-22707D01*
X23107Y-22678D01*
X23092Y-22664D01*
X23050Y-22635D01*
X22992Y-22621D01*
X22878Y-22621D01*
X22850Y-22635D01*
X22835Y-22650D01*
X22821Y-22678D01*
X22821Y-22735D01*
X22835Y-22764D01*
X22850Y-22778D01*
X22878Y-22792D01*
X22950Y-22792D01*
X22978Y-22778D01*
X22992Y-22764D01*
X23007Y-22735D01*
X23007Y-22678D01*
X22992Y-22650D01*
X22978Y-22635D01*
X22950Y-22621D01*
X23121Y-24192D02*
X22978Y-24292D01*
X23121Y-24364D02*
X22821Y-24364D01*
X22821Y-24250D01*
X22835Y-24221D01*
X22850Y-24207D01*
X22878Y-24192D01*
X22921Y-24192D01*
X22950Y-24207D01*
X22964Y-24221D01*
X22978Y-24250D01*
X22978Y-24364D01*
X22850Y-24078D02*
X22835Y-24064D01*
X22821Y-24035D01*
X22821Y-23964D01*
X22835Y-23935D01*
X22850Y-23921D01*
X22878Y-23907D01*
X22907Y-23907D01*
X22950Y-23921D01*
X23121Y-24092D01*
X23121Y-23907D01*
X22821Y-23721D02*
X22821Y-23692D01*
X22835Y-23664D01*
X22850Y-23650D01*
X22878Y-23635D01*
X22935Y-23621D01*
X23007Y-23621D01*
X23064Y-23635D01*
X23092Y-23650D01*
X23107Y-23664D01*
X23121Y-23692D01*
X23121Y-23721D01*
X23107Y-23750D01*
X23092Y-23764D01*
X23064Y-23778D01*
X23007Y-23792D01*
X22935Y-23792D01*
X22878Y-23778D01*
X22850Y-23764D01*
X22835Y-23750D01*
X22821Y-23721D01*
X23121Y-25292D02*
X22978Y-25392D01*
X23121Y-25464D02*
X22821Y-25464D01*
X22821Y-25350D01*
X22835Y-25321D01*
X22850Y-25307D01*
X22878Y-25292D01*
X22921Y-25292D01*
X22950Y-25307D01*
X22964Y-25321D01*
X22978Y-25350D01*
X22978Y-25464D01*
X22850Y-25178D02*
X22835Y-25164D01*
X22821Y-25135D01*
X22821Y-25064D01*
X22835Y-25035D01*
X22850Y-25021D01*
X22878Y-25007D01*
X22907Y-25007D01*
X22950Y-25021D01*
X23121Y-25192D01*
X23121Y-25007D01*
X22821Y-24735D02*
X22821Y-24878D01*
X22964Y-24892D01*
X22950Y-24878D01*
X22935Y-24850D01*
X22935Y-24778D01*
X22950Y-24750D01*
X22964Y-24735D01*
X22992Y-24721D01*
X23064Y-24721D01*
X23092Y-24735D01*
X23107Y-24750D01*
X23121Y-24778D01*
X23121Y-24850D01*
X23107Y-24878D01*
X23092Y-24892D01*
X23121Y-26292D02*
X22978Y-26392D01*
X23121Y-26464D02*
X22821Y-26464D01*
X22821Y-26350D01*
X22835Y-26321D01*
X22850Y-26307D01*
X22878Y-26292D01*
X22921Y-26292D01*
X22950Y-26307D01*
X22964Y-26321D01*
X22978Y-26350D01*
X22978Y-26464D01*
X22850Y-26178D02*
X22835Y-26164D01*
X22821Y-26135D01*
X22821Y-26064D01*
X22835Y-26035D01*
X22850Y-26021D01*
X22878Y-26007D01*
X22907Y-26007D01*
X22950Y-26021D01*
X23121Y-26192D01*
X23121Y-26007D01*
X22821Y-25750D02*
X22821Y-25807D01*
X22835Y-25835D01*
X22850Y-25850D01*
X22892Y-25878D01*
X22950Y-25892D01*
X23064Y-25892D01*
X23092Y-25878D01*
X23107Y-25864D01*
X23121Y-25835D01*
X23121Y-25778D01*
X23107Y-25750D01*
X23092Y-25735D01*
X23064Y-25721D01*
X22992Y-25721D01*
X22964Y-25735D01*
X22950Y-25750D01*
X22935Y-25778D01*
X22935Y-25835D01*
X22950Y-25864D01*
X22964Y-25878D01*
X22992Y-25892D01*
X18207Y-28021D02*
X18107Y-27878D01*
X18035Y-28021D02*
X18035Y-27721D01*
X18150Y-27721D01*
X18178Y-27735D01*
X18192Y-27750D01*
X18207Y-27778D01*
X18207Y-27821D01*
X18192Y-27850D01*
X18178Y-27864D01*
X18150Y-27878D01*
X18035Y-27878D01*
X18492Y-28021D02*
X18321Y-28021D01*
X18407Y-28021D02*
X18407Y-27721D01*
X18378Y-27764D01*
X18350Y-27792D01*
X18321Y-27807D01*
X18750Y-27821D02*
X18750Y-28021D01*
X18678Y-27707D02*
X18607Y-27921D01*
X18792Y-27921D01*
X19207Y-28021D02*
X19107Y-27878D01*
X19035Y-28021D02*
X19035Y-27721D01*
X19150Y-27721D01*
X19178Y-27735D01*
X19192Y-27750D01*
X19207Y-27778D01*
X19207Y-27821D01*
X19192Y-27850D01*
X19178Y-27864D01*
X19150Y-27878D01*
X19035Y-27878D01*
X19492Y-28021D02*
X19321Y-28021D01*
X19407Y-28021D02*
X19407Y-27721D01*
X19378Y-27764D01*
X19350Y-27792D01*
X19321Y-27807D01*
X19592Y-27721D02*
X19778Y-27721D01*
X19678Y-27835D01*
X19721Y-27835D01*
X19750Y-27850D01*
X19764Y-27864D01*
X19778Y-27892D01*
X19778Y-27964D01*
X19764Y-27992D01*
X19750Y-28007D01*
X19721Y-28021D01*
X19635Y-28021D01*
X19607Y-28007D01*
X19592Y-27992D01*
X17007Y-28021D02*
X16907Y-27878D01*
X16835Y-28021D02*
X16835Y-27721D01*
X16950Y-27721D01*
X16978Y-27735D01*
X16992Y-27750D01*
X17007Y-27778D01*
X17007Y-27821D01*
X16992Y-27850D01*
X16978Y-27864D01*
X16950Y-27878D01*
X16835Y-27878D01*
X17121Y-27750D02*
X17135Y-27735D01*
X17164Y-27721D01*
X17235Y-27721D01*
X17264Y-27735D01*
X17278Y-27750D01*
X17292Y-27778D01*
X17292Y-27807D01*
X17278Y-27850D01*
X17107Y-28021D01*
X17292Y-28021D01*
X17578Y-28021D02*
X17407Y-28021D01*
X17492Y-28021D02*
X17492Y-27721D01*
X17464Y-27764D01*
X17435Y-27792D01*
X17407Y-27807D01*
X20407Y-28021D02*
X20307Y-27878D01*
X20235Y-28021D02*
X20235Y-27721D01*
X20350Y-27721D01*
X20378Y-27735D01*
X20392Y-27750D01*
X20407Y-27778D01*
X20407Y-27821D01*
X20392Y-27850D01*
X20378Y-27864D01*
X20350Y-27878D01*
X20235Y-27878D01*
X20692Y-28021D02*
X20521Y-28021D01*
X20607Y-28021D02*
X20607Y-27721D01*
X20578Y-27764D01*
X20550Y-27792D01*
X20521Y-27807D01*
X20878Y-27721D02*
X20907Y-27721D01*
X20935Y-27735D01*
X20950Y-27750D01*
X20964Y-27778D01*
X20978Y-27835D01*
X20978Y-27907D01*
X20964Y-27964D01*
X20950Y-27992D01*
X20935Y-28007D01*
X20907Y-28021D01*
X20878Y-28021D01*
X20850Y-28007D01*
X20835Y-27992D01*
X20821Y-27964D01*
X20807Y-27907D01*
X20807Y-27835D01*
X20821Y-27778D01*
X20835Y-27750D01*
X20850Y-27735D01*
X20878Y-27721D01*
X21550Y-28021D02*
X21450Y-27878D01*
X21378Y-28021D02*
X21378Y-27721D01*
X21492Y-27721D01*
X21521Y-27735D01*
X21535Y-27750D01*
X21550Y-27778D01*
X21550Y-27821D01*
X21535Y-27850D01*
X21521Y-27864D01*
X21492Y-27878D01*
X21378Y-27878D01*
X21692Y-28021D02*
X21750Y-28021D01*
X21778Y-28007D01*
X21792Y-27992D01*
X21821Y-27950D01*
X21835Y-27892D01*
X21835Y-27778D01*
X21821Y-27750D01*
X21807Y-27735D01*
X21778Y-27721D01*
X21721Y-27721D01*
X21692Y-27735D01*
X21678Y-27750D01*
X21664Y-27778D01*
X21664Y-27850D01*
X21678Y-27878D01*
X21692Y-27892D01*
X21721Y-27907D01*
X21778Y-27907D01*
X21807Y-27892D01*
X21821Y-27878D01*
X21835Y-27850D01*
X22750Y-28021D02*
X22650Y-27878D01*
X22578Y-28021D02*
X22578Y-27721D01*
X22692Y-27721D01*
X22721Y-27735D01*
X22735Y-27750D01*
X22750Y-27778D01*
X22750Y-27821D01*
X22735Y-27850D01*
X22721Y-27864D01*
X22692Y-27878D01*
X22578Y-27878D01*
X23007Y-27721D02*
X22950Y-27721D01*
X22921Y-27735D01*
X22907Y-27750D01*
X22878Y-27792D01*
X22864Y-27850D01*
X22864Y-27964D01*
X22878Y-27992D01*
X22892Y-28007D01*
X22921Y-28021D01*
X22978Y-28021D01*
X23007Y-28007D01*
X23021Y-27992D01*
X23035Y-27964D01*
X23035Y-27892D01*
X23021Y-27864D01*
X23007Y-27850D01*
X22978Y-27835D01*
X22921Y-27835D01*
X22892Y-27850D01*
X22878Y-27864D01*
X22864Y-27892D01*
X23750Y-28021D02*
X23650Y-27878D01*
X23578Y-28021D02*
X23578Y-27721D01*
X23692Y-27721D01*
X23721Y-27735D01*
X23735Y-27750D01*
X23750Y-27778D01*
X23750Y-27821D01*
X23735Y-27850D01*
X23721Y-27864D01*
X23692Y-27878D01*
X23578Y-27878D01*
X24021Y-27721D02*
X23878Y-27721D01*
X23864Y-27864D01*
X23878Y-27850D01*
X23907Y-27835D01*
X23978Y-27835D01*
X24007Y-27850D01*
X24021Y-27864D01*
X24035Y-27892D01*
X24035Y-27964D01*
X24021Y-27992D01*
X24007Y-28007D01*
X23978Y-28021D01*
X23907Y-28021D01*
X23878Y-28007D01*
X23864Y-27992D01*
X30350Y-28021D02*
X30250Y-27878D01*
X30178Y-28021D02*
X30178Y-27721D01*
X30292Y-27721D01*
X30321Y-27735D01*
X30335Y-27750D01*
X30350Y-27778D01*
X30350Y-27821D01*
X30335Y-27850D01*
X30321Y-27864D01*
X30292Y-27878D01*
X30178Y-27878D01*
X30521Y-27850D02*
X30492Y-27835D01*
X30478Y-27821D01*
X30464Y-27792D01*
X30464Y-27778D01*
X30478Y-27750D01*
X30492Y-27735D01*
X30521Y-27721D01*
X30578Y-27721D01*
X30607Y-27735D01*
X30621Y-27750D01*
X30635Y-27778D01*
X30635Y-27792D01*
X30621Y-27821D01*
X30607Y-27835D01*
X30578Y-27850D01*
X30521Y-27850D01*
X30492Y-27864D01*
X30478Y-27878D01*
X30464Y-27907D01*
X30464Y-27964D01*
X30478Y-27992D01*
X30492Y-28007D01*
X30521Y-28021D01*
X30578Y-28021D01*
X30607Y-28007D01*
X30621Y-27992D01*
X30635Y-27964D01*
X30635Y-27907D01*
X30621Y-27878D01*
X30607Y-27864D01*
X30578Y-27850D01*
X29021Y-24192D02*
X28878Y-24292D01*
X29021Y-24364D02*
X28721Y-24364D01*
X28721Y-24250D01*
X28735Y-24221D01*
X28750Y-24207D01*
X28778Y-24192D01*
X28821Y-24192D01*
X28850Y-24207D01*
X28864Y-24221D01*
X28878Y-24250D01*
X28878Y-24364D01*
X29021Y-23907D02*
X29021Y-24078D01*
X29021Y-23992D02*
X28721Y-23992D01*
X28764Y-24021D01*
X28792Y-24050D01*
X28807Y-24078D01*
X28721Y-23650D02*
X28721Y-23707D01*
X28735Y-23735D01*
X28750Y-23750D01*
X28792Y-23778D01*
X28850Y-23792D01*
X28964Y-23792D01*
X28992Y-23778D01*
X29007Y-23764D01*
X29021Y-23735D01*
X29021Y-23678D01*
X29007Y-23650D01*
X28992Y-23635D01*
X28964Y-23621D01*
X28892Y-23621D01*
X28864Y-23635D01*
X28850Y-23650D01*
X28835Y-23678D01*
X28835Y-23735D01*
X28850Y-23764D01*
X28864Y-23778D01*
X28892Y-23792D01*
X18650Y-17392D02*
X18635Y-17407D01*
X18592Y-17421D01*
X18564Y-17421D01*
X18521Y-17407D01*
X18492Y-17378D01*
X18478Y-17350D01*
X18464Y-17292D01*
X18464Y-17250D01*
X18478Y-17192D01*
X18492Y-17164D01*
X18521Y-17135D01*
X18564Y-17121D01*
X18592Y-17121D01*
X18635Y-17135D01*
X18650Y-17150D01*
X18750Y-17121D02*
X18935Y-17121D01*
X18835Y-17235D01*
X18878Y-17235D01*
X18907Y-17250D01*
X18921Y-17264D01*
X18935Y-17292D01*
X18935Y-17364D01*
X18921Y-17392D01*
X18907Y-17407D01*
X18878Y-17421D01*
X18792Y-17421D01*
X18764Y-17407D01*
X18750Y-17392D01*
X18650Y-13192D02*
X18635Y-13207D01*
X18592Y-13221D01*
X18564Y-13221D01*
X18521Y-13207D01*
X18492Y-13178D01*
X18478Y-13150D01*
X18464Y-13092D01*
X18464Y-13050D01*
X18478Y-12992D01*
X18492Y-12964D01*
X18521Y-12935D01*
X18564Y-12921D01*
X18592Y-12921D01*
X18635Y-12935D01*
X18650Y-12950D01*
X18935Y-13221D02*
X18764Y-13221D01*
X18850Y-13221D02*
X18850Y-12921D01*
X18821Y-12964D01*
X18792Y-12992D01*
X18764Y-13007D01*
X27350Y-15321D02*
X27250Y-15178D01*
X27178Y-15321D02*
X27178Y-15021D01*
X27292Y-15021D01*
X27321Y-15035D01*
X27335Y-15050D01*
X27350Y-15078D01*
X27350Y-15121D01*
X27335Y-15150D01*
X27321Y-15164D01*
X27292Y-15178D01*
X27178Y-15178D01*
X27464Y-15050D02*
X27478Y-15035D01*
X27507Y-15021D01*
X27578Y-15021D01*
X27607Y-15035D01*
X27621Y-15050D01*
X27635Y-15078D01*
X27635Y-15107D01*
X27621Y-15150D01*
X27450Y-15321D01*
X27635Y-15321D01*
X27350Y-17392D02*
X27335Y-17407D01*
X27292Y-17421D01*
X27264Y-17421D01*
X27221Y-17407D01*
X27192Y-17378D01*
X27178Y-17350D01*
X27164Y-17292D01*
X27164Y-17250D01*
X27178Y-17192D01*
X27192Y-17164D01*
X27221Y-17135D01*
X27264Y-17121D01*
X27292Y-17121D01*
X27335Y-17135D01*
X27350Y-17150D01*
X27607Y-17221D02*
X27607Y-17421D01*
X27535Y-17107D02*
X27464Y-17321D01*
X27650Y-17321D01*
X27350Y-13192D02*
X27335Y-13207D01*
X27292Y-13221D01*
X27264Y-13221D01*
X27221Y-13207D01*
X27192Y-13178D01*
X27178Y-13150D01*
X27164Y-13092D01*
X27164Y-13050D01*
X27178Y-12992D01*
X27192Y-12964D01*
X27221Y-12935D01*
X27264Y-12921D01*
X27292Y-12921D01*
X27335Y-12935D01*
X27350Y-12950D01*
X27464Y-12950D02*
X27478Y-12935D01*
X27507Y-12921D01*
X27578Y-12921D01*
X27607Y-12935D01*
X27621Y-12950D01*
X27635Y-12978D01*
X27635Y-13007D01*
X27621Y-13050D01*
X27450Y-13221D01*
X27635Y-13221D01*
X18650Y-15321D02*
X18550Y-15178D01*
X18478Y-15321D02*
X18478Y-15021D01*
X18592Y-15021D01*
X18621Y-15035D01*
X18635Y-15050D01*
X18650Y-15078D01*
X18650Y-15121D01*
X18635Y-15150D01*
X18621Y-15164D01*
X18592Y-15178D01*
X18478Y-15178D01*
X18935Y-15321D02*
X18764Y-15321D01*
X18850Y-15321D02*
X18850Y-15021D01*
X18821Y-15064D01*
X18792Y-15092D01*
X18764Y-15107D01*
X31550Y-28021D02*
X31450Y-27878D01*
X31378Y-28021D02*
X31378Y-27721D01*
X31492Y-27721D01*
X31521Y-27735D01*
X31535Y-27750D01*
X31550Y-27778D01*
X31550Y-27821D01*
X31535Y-27850D01*
X31521Y-27864D01*
X31492Y-27878D01*
X31378Y-27878D01*
X31650Y-27721D02*
X31835Y-27721D01*
X31735Y-27835D01*
X31778Y-27835D01*
X31807Y-27850D01*
X31821Y-27864D01*
X31835Y-27892D01*
X31835Y-27964D01*
X31821Y-27992D01*
X31807Y-28007D01*
X31778Y-28021D01*
X31692Y-28021D01*
X31664Y-28007D01*
X31650Y-27992D01*
X29350Y-28021D02*
X29250Y-27878D01*
X29178Y-28021D02*
X29178Y-27721D01*
X29292Y-27721D01*
X29321Y-27735D01*
X29335Y-27750D01*
X29350Y-27778D01*
X29350Y-27821D01*
X29335Y-27850D01*
X29321Y-27864D01*
X29292Y-27878D01*
X29178Y-27878D01*
X29450Y-27721D02*
X29650Y-27721D01*
X29521Y-28021D01*
X32550Y-28021D02*
X32450Y-27878D01*
X32378Y-28021D02*
X32378Y-27721D01*
X32492Y-27721D01*
X32521Y-27735D01*
X32535Y-27750D01*
X32550Y-27778D01*
X32550Y-27821D01*
X32535Y-27850D01*
X32521Y-27864D01*
X32492Y-27878D01*
X32378Y-27878D01*
X32807Y-27821D02*
X32807Y-28021D01*
X32735Y-27707D02*
X32664Y-27921D01*
X32850Y-27921D01*
X27007Y-28021D02*
X26907Y-27878D01*
X26835Y-28021D02*
X26835Y-27721D01*
X26950Y-27721D01*
X26978Y-27735D01*
X26992Y-27750D01*
X27007Y-27778D01*
X27007Y-27821D01*
X26992Y-27850D01*
X26978Y-27864D01*
X26950Y-27878D01*
X26835Y-27878D01*
X27292Y-28021D02*
X27121Y-28021D01*
X27207Y-28021D02*
X27207Y-27721D01*
X27178Y-27764D01*
X27150Y-27792D01*
X27121Y-27807D01*
X27578Y-28021D02*
X27407Y-28021D01*
X27492Y-28021D02*
X27492Y-27721D01*
X27464Y-27764D01*
X27435Y-27792D01*
X27407Y-27807D01*
X28007Y-28021D02*
X27907Y-27878D01*
X27835Y-28021D02*
X27835Y-27721D01*
X27950Y-27721D01*
X27978Y-27735D01*
X27992Y-27750D01*
X28007Y-27778D01*
X28007Y-27821D01*
X27992Y-27850D01*
X27978Y-27864D01*
X27950Y-27878D01*
X27835Y-27878D01*
X28292Y-28021D02*
X28121Y-28021D01*
X28207Y-28021D02*
X28207Y-27721D01*
X28178Y-27764D01*
X28150Y-27792D01*
X28121Y-27807D01*
X28407Y-27750D02*
X28421Y-27735D01*
X28450Y-27721D01*
X28521Y-27721D01*
X28550Y-27735D01*
X28564Y-27750D01*
X28578Y-27778D01*
X28578Y-27807D01*
X28564Y-27850D01*
X28392Y-28021D01*
X28578Y-28021D01*
X24807Y-28021D02*
X24707Y-27878D01*
X24635Y-28021D02*
X24635Y-27721D01*
X24750Y-27721D01*
X24778Y-27735D01*
X24792Y-27750D01*
X24807Y-27778D01*
X24807Y-27821D01*
X24792Y-27850D01*
X24778Y-27864D01*
X24750Y-27878D01*
X24635Y-27878D01*
X25092Y-28021D02*
X24921Y-28021D01*
X25007Y-28021D02*
X25007Y-27721D01*
X24978Y-27764D01*
X24950Y-27792D01*
X24921Y-27807D01*
X25192Y-27721D02*
X25392Y-27721D01*
X25264Y-28021D01*
X25807Y-28021D02*
X25707Y-27878D01*
X25635Y-28021D02*
X25635Y-27721D01*
X25750Y-27721D01*
X25778Y-27735D01*
X25792Y-27750D01*
X25807Y-27778D01*
X25807Y-27821D01*
X25792Y-27850D01*
X25778Y-27864D01*
X25750Y-27878D01*
X25635Y-27878D01*
X26092Y-28021D02*
X25921Y-28021D01*
X26007Y-28021D02*
X26007Y-27721D01*
X25978Y-27764D01*
X25950Y-27792D01*
X25921Y-27807D01*
X26264Y-27850D02*
X26235Y-27835D01*
X26221Y-27821D01*
X26207Y-27792D01*
X26207Y-27778D01*
X26221Y-27750D01*
X26235Y-27735D01*
X26264Y-27721D01*
X26321Y-27721D01*
X26350Y-27735D01*
X26364Y-27750D01*
X26378Y-27778D01*
X26378Y-27792D01*
X26364Y-27821D01*
X26350Y-27835D01*
X26321Y-27850D01*
X26264Y-27850D01*
X26235Y-27864D01*
X26221Y-27878D01*
X26207Y-27907D01*
X26207Y-27964D01*
X26221Y-27992D01*
X26235Y-28007D01*
X26264Y-28021D01*
X26321Y-28021D01*
X26350Y-28007D01*
X26364Y-27992D01*
X26378Y-27964D01*
X26378Y-27907D01*
X26364Y-27878D01*
X26350Y-27864D01*
X26321Y-27850D01*
X29021Y-23192D02*
X28878Y-23292D01*
X29021Y-23364D02*
X28721Y-23364D01*
X28721Y-23250D01*
X28735Y-23221D01*
X28750Y-23207D01*
X28778Y-23192D01*
X28821Y-23192D01*
X28850Y-23207D01*
X28864Y-23221D01*
X28878Y-23250D01*
X28878Y-23364D01*
X29021Y-22907D02*
X29021Y-23078D01*
X29021Y-22992D02*
X28721Y-22992D01*
X28764Y-23021D01*
X28792Y-23050D01*
X28807Y-23078D01*
X28721Y-22635D02*
X28721Y-22778D01*
X28864Y-22792D01*
X28850Y-22778D01*
X28835Y-22750D01*
X28835Y-22678D01*
X28850Y-22650D01*
X28864Y-22635D01*
X28892Y-22621D01*
X28964Y-22621D01*
X28992Y-22635D01*
X29007Y-22650D01*
X29021Y-22678D01*
X29021Y-22750D01*
X29007Y-22778D01*
X28992Y-22792D01*
G54D18*
X29800Y-18192D02*
X29857Y-18211D01*
X29952Y-18211D01*
X29990Y-18192D01*
X30009Y-18173D01*
X30028Y-18135D01*
X30028Y-18097D01*
X30009Y-18059D01*
X29990Y-18040D01*
X29952Y-18021D01*
X29876Y-18002D01*
X29838Y-17983D01*
X29819Y-17964D01*
X29800Y-17926D01*
X29800Y-17888D01*
X29819Y-17850D01*
X29838Y-17830D01*
X29876Y-17811D01*
X29971Y-17811D01*
X30028Y-17830D01*
X30200Y-18211D02*
X30200Y-17811D01*
X30352Y-17811D01*
X30390Y-17830D01*
X30409Y-17850D01*
X30428Y-17888D01*
X30428Y-17945D01*
X30409Y-17983D01*
X30390Y-18002D01*
X30352Y-18021D01*
X30200Y-18021D01*
X30600Y-18211D02*
X30600Y-17811D01*
X31000Y-18211D02*
X30771Y-18211D01*
X30885Y-18211D02*
X30885Y-17811D01*
X30847Y-17869D01*
X30809Y-17907D01*
X30771Y-17926D01*
X20814Y-13452D02*
X20947Y-13452D01*
X21004Y-13661D02*
X20814Y-13661D01*
X20814Y-13261D01*
X21004Y-13261D01*
X21176Y-13395D02*
X21176Y-13661D01*
X21176Y-13433D02*
X21195Y-13414D01*
X21233Y-13395D01*
X21290Y-13395D01*
X21328Y-13414D01*
X21347Y-13452D01*
X21347Y-13661D01*
X21709Y-13642D02*
X21671Y-13661D01*
X21595Y-13661D01*
X21557Y-13642D01*
X21538Y-13623D01*
X21519Y-13585D01*
X21519Y-13471D01*
X21538Y-13433D01*
X21557Y-13414D01*
X21595Y-13395D01*
X21671Y-13395D01*
X21709Y-13414D01*
X21938Y-13661D02*
X21900Y-13642D01*
X21880Y-13623D01*
X21861Y-13585D01*
X21861Y-13471D01*
X21880Y-13433D01*
X21900Y-13414D01*
X21938Y-13395D01*
X21995Y-13395D01*
X22033Y-13414D01*
X22052Y-13433D01*
X22071Y-13471D01*
X22071Y-13585D01*
X22052Y-13623D01*
X22033Y-13642D01*
X21995Y-13661D01*
X21938Y-13661D01*
X22414Y-13661D02*
X22414Y-13261D01*
X22414Y-13642D02*
X22376Y-13661D01*
X22300Y-13661D01*
X22261Y-13642D01*
X22242Y-13623D01*
X22223Y-13585D01*
X22223Y-13471D01*
X22242Y-13433D01*
X22261Y-13414D01*
X22300Y-13395D01*
X22376Y-13395D01*
X22414Y-13414D01*
X22757Y-13642D02*
X22719Y-13661D01*
X22642Y-13661D01*
X22604Y-13642D01*
X22585Y-13604D01*
X22585Y-13452D01*
X22604Y-13414D01*
X22642Y-13395D01*
X22719Y-13395D01*
X22757Y-13414D01*
X22776Y-13452D01*
X22776Y-13490D01*
X22585Y-13528D01*
X22947Y-13661D02*
X22947Y-13395D01*
X22947Y-13471D02*
X22966Y-13433D01*
X22985Y-13414D01*
X23023Y-13395D01*
X23061Y-13395D01*
X23176Y-13300D02*
X23195Y-13280D01*
X23233Y-13261D01*
X23328Y-13261D01*
X23366Y-13280D01*
X23385Y-13300D01*
X23404Y-13338D01*
X23404Y-13376D01*
X23385Y-13433D01*
X23157Y-13661D01*
X23404Y-13661D01*
X29464Y-13502D02*
X29597Y-13502D01*
X29654Y-13711D02*
X29464Y-13711D01*
X29464Y-13311D01*
X29654Y-13311D01*
X29826Y-13445D02*
X29826Y-13711D01*
X29826Y-13483D02*
X29845Y-13464D01*
X29883Y-13445D01*
X29940Y-13445D01*
X29978Y-13464D01*
X29997Y-13502D01*
X29997Y-13711D01*
X30359Y-13692D02*
X30321Y-13711D01*
X30245Y-13711D01*
X30207Y-13692D01*
X30188Y-13673D01*
X30169Y-13635D01*
X30169Y-13521D01*
X30188Y-13483D01*
X30207Y-13464D01*
X30245Y-13445D01*
X30321Y-13445D01*
X30359Y-13464D01*
X30588Y-13711D02*
X30550Y-13692D01*
X30530Y-13673D01*
X30511Y-13635D01*
X30511Y-13521D01*
X30530Y-13483D01*
X30550Y-13464D01*
X30588Y-13445D01*
X30645Y-13445D01*
X30683Y-13464D01*
X30702Y-13483D01*
X30721Y-13521D01*
X30721Y-13635D01*
X30702Y-13673D01*
X30683Y-13692D01*
X30645Y-13711D01*
X30588Y-13711D01*
X31064Y-13711D02*
X31064Y-13311D01*
X31064Y-13692D02*
X31026Y-13711D01*
X30950Y-13711D01*
X30911Y-13692D01*
X30892Y-13673D01*
X30873Y-13635D01*
X30873Y-13521D01*
X30892Y-13483D01*
X30911Y-13464D01*
X30950Y-13445D01*
X31026Y-13445D01*
X31064Y-13464D01*
X31407Y-13692D02*
X31369Y-13711D01*
X31292Y-13711D01*
X31254Y-13692D01*
X31235Y-13654D01*
X31235Y-13502D01*
X31254Y-13464D01*
X31292Y-13445D01*
X31369Y-13445D01*
X31407Y-13464D01*
X31426Y-13502D01*
X31426Y-13540D01*
X31235Y-13578D01*
X31597Y-13711D02*
X31597Y-13445D01*
X31597Y-13521D02*
X31616Y-13483D01*
X31635Y-13464D01*
X31673Y-13445D01*
X31711Y-13445D01*
X32054Y-13711D02*
X31826Y-13711D01*
X31940Y-13711D02*
X31940Y-13311D01*
X31902Y-13369D01*
X31864Y-13407D01*
X31826Y-13426D01*
X15761Y-14345D02*
X15361Y-14345D01*
X15647Y-14211D01*
X15361Y-14078D01*
X15761Y-14078D01*
X15361Y-13811D02*
X15361Y-13735D01*
X15380Y-13697D01*
X15419Y-13659D01*
X15495Y-13640D01*
X15628Y-13640D01*
X15704Y-13659D01*
X15742Y-13697D01*
X15761Y-13735D01*
X15761Y-13811D01*
X15742Y-13849D01*
X15704Y-13888D01*
X15628Y-13907D01*
X15495Y-13907D01*
X15419Y-13888D01*
X15380Y-13849D01*
X15361Y-13811D01*
X15361Y-13526D02*
X15361Y-13297D01*
X15761Y-13411D02*
X15361Y-13411D01*
X15361Y-13088D02*
X15361Y-13011D01*
X15380Y-12973D01*
X15419Y-12935D01*
X15495Y-12916D01*
X15628Y-12916D01*
X15704Y-12935D01*
X15742Y-12973D01*
X15761Y-13011D01*
X15761Y-13088D01*
X15742Y-13126D01*
X15704Y-13164D01*
X15628Y-13183D01*
X15495Y-13183D01*
X15419Y-13164D01*
X15380Y-13126D01*
X15361Y-13088D01*
X15761Y-12516D02*
X15571Y-12649D01*
X15761Y-12745D02*
X15361Y-12745D01*
X15361Y-12592D01*
X15380Y-12554D01*
X15400Y-12535D01*
X15438Y-12516D01*
X15495Y-12516D01*
X15533Y-12535D01*
X15552Y-12554D01*
X15571Y-12592D01*
X15571Y-12745D01*
X15400Y-12364D02*
X15380Y-12345D01*
X15361Y-12307D01*
X15361Y-12211D01*
X15380Y-12173D01*
X15400Y-12154D01*
X15438Y-12135D01*
X15476Y-12135D01*
X15533Y-12154D01*
X15761Y-12383D01*
X15761Y-12135D01*
X23109Y-17780D02*
X23071Y-17761D01*
X23014Y-17761D01*
X22957Y-17780D01*
X22919Y-17819D01*
X22900Y-17857D01*
X22880Y-17933D01*
X22880Y-17990D01*
X22900Y-18066D01*
X22919Y-18104D01*
X22957Y-18142D01*
X23014Y-18161D01*
X23052Y-18161D01*
X23109Y-18142D01*
X23128Y-18123D01*
X23128Y-17990D01*
X23052Y-17990D01*
X23300Y-18161D02*
X23300Y-17761D01*
X23452Y-17761D01*
X23490Y-17780D01*
X23509Y-17800D01*
X23528Y-17838D01*
X23528Y-17895D01*
X23509Y-17933D01*
X23490Y-17952D01*
X23452Y-17971D01*
X23300Y-17971D01*
X23700Y-18161D02*
X23700Y-17761D01*
X23966Y-17761D02*
X24042Y-17761D01*
X24080Y-17780D01*
X24119Y-17819D01*
X24138Y-17895D01*
X24138Y-18028D01*
X24119Y-18104D01*
X24080Y-18142D01*
X24042Y-18161D01*
X23966Y-18161D01*
X23928Y-18142D01*
X23890Y-18104D01*
X23871Y-18028D01*
X23871Y-17895D01*
X23890Y-17819D01*
X23928Y-17780D01*
X23966Y-17761D01*
X24290Y-17800D02*
X24309Y-17780D01*
X24347Y-17761D01*
X24442Y-17761D01*
X24480Y-17780D01*
X24500Y-17800D01*
X24519Y-17838D01*
X24519Y-17876D01*
X24500Y-17933D01*
X24271Y-18161D01*
X24519Y-18161D01*
X20509Y-17780D02*
X20471Y-17761D01*
X20414Y-17761D01*
X20357Y-17780D01*
X20319Y-17819D01*
X20300Y-17857D01*
X20280Y-17933D01*
X20280Y-17990D01*
X20300Y-18066D01*
X20319Y-18104D01*
X20357Y-18142D01*
X20414Y-18161D01*
X20452Y-18161D01*
X20509Y-18142D01*
X20528Y-18123D01*
X20528Y-17990D01*
X20452Y-17990D01*
X20700Y-18161D02*
X20700Y-17761D01*
X20852Y-17761D01*
X20890Y-17780D01*
X20909Y-17800D01*
X20928Y-17838D01*
X20928Y-17895D01*
X20909Y-17933D01*
X20890Y-17952D01*
X20852Y-17971D01*
X20700Y-17971D01*
X21100Y-18161D02*
X21100Y-17761D01*
X21366Y-17761D02*
X21442Y-17761D01*
X21480Y-17780D01*
X21519Y-17819D01*
X21538Y-17895D01*
X21538Y-18028D01*
X21519Y-18104D01*
X21480Y-18142D01*
X21442Y-18161D01*
X21366Y-18161D01*
X21328Y-18142D01*
X21290Y-18104D01*
X21271Y-18028D01*
X21271Y-17895D01*
X21290Y-17819D01*
X21328Y-17780D01*
X21366Y-17761D01*
X21919Y-18161D02*
X21690Y-18161D01*
X21804Y-18161D02*
X21804Y-17761D01*
X21766Y-17819D01*
X21728Y-17857D01*
X21690Y-17876D01*
X15761Y-18295D02*
X15361Y-18295D01*
X15647Y-18161D01*
X15361Y-18028D01*
X15761Y-18028D01*
X15361Y-17761D02*
X15361Y-17685D01*
X15380Y-17647D01*
X15419Y-17609D01*
X15495Y-17590D01*
X15628Y-17590D01*
X15704Y-17609D01*
X15742Y-17647D01*
X15761Y-17685D01*
X15761Y-17761D01*
X15742Y-17799D01*
X15704Y-17838D01*
X15628Y-17857D01*
X15495Y-17857D01*
X15419Y-17838D01*
X15380Y-17799D01*
X15361Y-17761D01*
X15361Y-17476D02*
X15361Y-17247D01*
X15761Y-17361D02*
X15361Y-17361D01*
X15361Y-17038D02*
X15361Y-16961D01*
X15380Y-16923D01*
X15419Y-16885D01*
X15495Y-16866D01*
X15628Y-16866D01*
X15704Y-16885D01*
X15742Y-16923D01*
X15761Y-16961D01*
X15761Y-17038D01*
X15742Y-17076D01*
X15704Y-17114D01*
X15628Y-17133D01*
X15495Y-17133D01*
X15419Y-17114D01*
X15380Y-17076D01*
X15361Y-17038D01*
X15761Y-16466D02*
X15571Y-16599D01*
X15761Y-16695D02*
X15361Y-16695D01*
X15361Y-16542D01*
X15380Y-16504D01*
X15400Y-16485D01*
X15438Y-16466D01*
X15495Y-16466D01*
X15533Y-16485D01*
X15552Y-16504D01*
X15571Y-16542D01*
X15571Y-16695D01*
X15761Y-16085D02*
X15761Y-16314D01*
X15761Y-16199D02*
X15361Y-16199D01*
X15419Y-16238D01*
X15457Y-16276D01*
X15476Y-16314D01*
G54D15*
X15380Y-29752D02*
X15438Y-29771D01*
X15457Y-29790D01*
X15476Y-29828D01*
X15476Y-29885D01*
X15457Y-29923D01*
X15438Y-29942D01*
X15400Y-29961D01*
X15247Y-29961D01*
X15247Y-29561D01*
X15380Y-29561D01*
X15419Y-29580D01*
X15438Y-29600D01*
X15457Y-29638D01*
X15457Y-29676D01*
X15438Y-29714D01*
X15419Y-29733D01*
X15380Y-29752D01*
X15247Y-29752D01*
X15819Y-29961D02*
X15819Y-29752D01*
X15800Y-29714D01*
X15761Y-29695D01*
X15685Y-29695D01*
X15647Y-29714D01*
X15819Y-29942D02*
X15780Y-29961D01*
X15685Y-29961D01*
X15647Y-29942D01*
X15628Y-29904D01*
X15628Y-29866D01*
X15647Y-29828D01*
X15685Y-29809D01*
X15780Y-29809D01*
X15819Y-29790D01*
X15952Y-29695D02*
X16104Y-29695D01*
X16009Y-29561D02*
X16009Y-29904D01*
X16028Y-29942D01*
X16066Y-29961D01*
X16104Y-29961D01*
X16180Y-29695D02*
X16333Y-29695D01*
X16238Y-29561D02*
X16238Y-29904D01*
X16257Y-29942D01*
X16295Y-29961D01*
X16333Y-29961D01*
X16619Y-29942D02*
X16580Y-29961D01*
X16504Y-29961D01*
X16466Y-29942D01*
X16447Y-29904D01*
X16447Y-29752D01*
X16466Y-29714D01*
X16504Y-29695D01*
X16580Y-29695D01*
X16619Y-29714D01*
X16638Y-29752D01*
X16638Y-29790D01*
X16447Y-29828D01*
X16809Y-29961D02*
X16809Y-29695D01*
X16809Y-29771D02*
X16828Y-29733D01*
X16847Y-29714D01*
X16885Y-29695D01*
X16923Y-29695D01*
X17019Y-29695D02*
X17114Y-29961D01*
X17209Y-29695D02*
X17114Y-29961D01*
X17076Y-30057D01*
X17057Y-30076D01*
X17019Y-30095D01*
X17571Y-29961D02*
X17342Y-29961D01*
X17457Y-29961D02*
X17457Y-29561D01*
X17419Y-29619D01*
X17380Y-29657D01*
X17342Y-29676D01*
X22628Y-29942D02*
X22685Y-29961D01*
X22780Y-29961D01*
X22819Y-29942D01*
X22838Y-29923D01*
X22857Y-29885D01*
X22857Y-29847D01*
X22838Y-29809D01*
X22819Y-29790D01*
X22780Y-29771D01*
X22704Y-29752D01*
X22666Y-29733D01*
X22647Y-29714D01*
X22628Y-29676D01*
X22628Y-29638D01*
X22647Y-29600D01*
X22666Y-29580D01*
X22704Y-29561D01*
X22800Y-29561D01*
X22857Y-29580D01*
X23028Y-29961D02*
X23028Y-29561D01*
X23200Y-29961D02*
X23200Y-29752D01*
X23180Y-29714D01*
X23142Y-29695D01*
X23085Y-29695D01*
X23047Y-29714D01*
X23028Y-29733D01*
X23561Y-29961D02*
X23561Y-29752D01*
X23542Y-29714D01*
X23504Y-29695D01*
X23428Y-29695D01*
X23390Y-29714D01*
X23561Y-29942D02*
X23523Y-29961D01*
X23428Y-29961D01*
X23390Y-29942D01*
X23371Y-29904D01*
X23371Y-29866D01*
X23390Y-29828D01*
X23428Y-29809D01*
X23523Y-29809D01*
X23561Y-29790D01*
X23752Y-29961D02*
X23752Y-29695D01*
X23752Y-29771D02*
X23771Y-29733D01*
X23790Y-29714D01*
X23828Y-29695D01*
X23866Y-29695D01*
X24000Y-29695D02*
X24000Y-30095D01*
X24000Y-29714D02*
X24038Y-29695D01*
X24114Y-29695D01*
X24152Y-29714D01*
X24171Y-29733D01*
X24190Y-29771D01*
X24190Y-29885D01*
X24171Y-29923D01*
X24152Y-29942D01*
X24114Y-29961D01*
X24038Y-29961D01*
X24000Y-29942D01*
X24571Y-29961D02*
X24342Y-29961D01*
X24457Y-29961D02*
X24457Y-29561D01*
X24419Y-29619D01*
X24380Y-29657D01*
X24342Y-29676D01*
X18628Y-29942D02*
X18685Y-29961D01*
X18780Y-29961D01*
X18819Y-29942D01*
X18838Y-29923D01*
X18857Y-29885D01*
X18857Y-29847D01*
X18838Y-29809D01*
X18819Y-29790D01*
X18780Y-29771D01*
X18704Y-29752D01*
X18666Y-29733D01*
X18647Y-29714D01*
X18628Y-29676D01*
X18628Y-29638D01*
X18647Y-29600D01*
X18666Y-29580D01*
X18704Y-29561D01*
X18800Y-29561D01*
X18857Y-29580D01*
X19028Y-29961D02*
X19028Y-29561D01*
X19200Y-29961D02*
X19200Y-29752D01*
X19180Y-29714D01*
X19142Y-29695D01*
X19085Y-29695D01*
X19047Y-29714D01*
X19028Y-29733D01*
X19561Y-29961D02*
X19561Y-29752D01*
X19542Y-29714D01*
X19504Y-29695D01*
X19428Y-29695D01*
X19390Y-29714D01*
X19561Y-29942D02*
X19523Y-29961D01*
X19428Y-29961D01*
X19390Y-29942D01*
X19371Y-29904D01*
X19371Y-29866D01*
X19390Y-29828D01*
X19428Y-29809D01*
X19523Y-29809D01*
X19561Y-29790D01*
X19752Y-29961D02*
X19752Y-29695D01*
X19752Y-29771D02*
X19771Y-29733D01*
X19790Y-29714D01*
X19828Y-29695D01*
X19866Y-29695D01*
X20000Y-29695D02*
X20000Y-30095D01*
X20000Y-29714D02*
X20038Y-29695D01*
X20114Y-29695D01*
X20152Y-29714D01*
X20171Y-29733D01*
X20190Y-29771D01*
X20190Y-29885D01*
X20171Y-29923D01*
X20152Y-29942D01*
X20114Y-29961D01*
X20038Y-29961D01*
X20000Y-29942D01*
X20342Y-29600D02*
X20361Y-29580D01*
X20400Y-29561D01*
X20495Y-29561D01*
X20533Y-29580D01*
X20552Y-29600D01*
X20571Y-29638D01*
X20571Y-29676D01*
X20552Y-29733D01*
X20323Y-29961D01*
X20571Y-29961D01*
X30007Y-30942D02*
X30021Y-30900D01*
X30021Y-30828D01*
X30007Y-30800D01*
X29992Y-30785D01*
X29964Y-30771D01*
X29935Y-30771D01*
X29907Y-30785D01*
X29892Y-30800D01*
X29878Y-30828D01*
X29864Y-30885D01*
X29850Y-30914D01*
X29835Y-30928D01*
X29807Y-30942D01*
X29778Y-30942D01*
X29750Y-30928D01*
X29735Y-30914D01*
X29721Y-30885D01*
X29721Y-30814D01*
X29735Y-30771D01*
X30007Y-30528D02*
X30021Y-30557D01*
X30021Y-30614D01*
X30007Y-30642D01*
X29978Y-30657D01*
X29864Y-30657D01*
X29835Y-30642D01*
X29821Y-30614D01*
X29821Y-30557D01*
X29835Y-30528D01*
X29864Y-30514D01*
X29892Y-30514D01*
X29921Y-30657D01*
X29821Y-30385D02*
X30021Y-30385D01*
X29850Y-30385D02*
X29835Y-30371D01*
X29821Y-30342D01*
X29821Y-30300D01*
X29835Y-30271D01*
X29864Y-30257D01*
X30021Y-30257D01*
X30007Y-30128D02*
X30021Y-30100D01*
X30021Y-30042D01*
X30007Y-30014D01*
X29978Y-30000D01*
X29964Y-30000D01*
X29935Y-30014D01*
X29921Y-30042D01*
X29921Y-30085D01*
X29907Y-30114D01*
X29878Y-30128D01*
X29864Y-30128D01*
X29835Y-30114D01*
X29821Y-30085D01*
X29821Y-30042D01*
X29835Y-30014D01*
X30007Y-29757D02*
X30021Y-29785D01*
X30021Y-29842D01*
X30007Y-29871D01*
X29978Y-29885D01*
X29864Y-29885D01*
X29835Y-29871D01*
X29821Y-29842D01*
X29821Y-29785D01*
X29835Y-29757D01*
X29864Y-29742D01*
X29892Y-29742D01*
X29921Y-29885D01*
X29750Y-29628D02*
X29735Y-29614D01*
X29721Y-29585D01*
X29721Y-29514D01*
X29735Y-29485D01*
X29750Y-29471D01*
X29778Y-29457D01*
X29807Y-29457D01*
X29850Y-29471D01*
X30021Y-29642D01*
X30021Y-29457D01*
X28007Y-30942D02*
X28021Y-30900D01*
X28021Y-30828D01*
X28007Y-30800D01*
X27992Y-30785D01*
X27964Y-30771D01*
X27935Y-30771D01*
X27907Y-30785D01*
X27892Y-30800D01*
X27878Y-30828D01*
X27864Y-30885D01*
X27850Y-30914D01*
X27835Y-30928D01*
X27807Y-30942D01*
X27778Y-30942D01*
X27750Y-30928D01*
X27735Y-30914D01*
X27721Y-30885D01*
X27721Y-30814D01*
X27735Y-30771D01*
X28007Y-30528D02*
X28021Y-30557D01*
X28021Y-30614D01*
X28007Y-30642D01*
X27978Y-30657D01*
X27864Y-30657D01*
X27835Y-30642D01*
X27821Y-30614D01*
X27821Y-30557D01*
X27835Y-30528D01*
X27864Y-30514D01*
X27892Y-30514D01*
X27921Y-30657D01*
X27821Y-30385D02*
X28021Y-30385D01*
X27850Y-30385D02*
X27835Y-30371D01*
X27821Y-30342D01*
X27821Y-30300D01*
X27835Y-30271D01*
X27864Y-30257D01*
X28021Y-30257D01*
X28007Y-30128D02*
X28021Y-30100D01*
X28021Y-30042D01*
X28007Y-30014D01*
X27978Y-30000D01*
X27964Y-30000D01*
X27935Y-30014D01*
X27921Y-30042D01*
X27921Y-30085D01*
X27907Y-30114D01*
X27878Y-30128D01*
X27864Y-30128D01*
X27835Y-30114D01*
X27821Y-30085D01*
X27821Y-30042D01*
X27835Y-30014D01*
X28007Y-29757D02*
X28021Y-29785D01*
X28021Y-29842D01*
X28007Y-29871D01*
X27978Y-29885D01*
X27864Y-29885D01*
X27835Y-29871D01*
X27821Y-29842D01*
X27821Y-29785D01*
X27835Y-29757D01*
X27864Y-29742D01*
X27892Y-29742D01*
X27921Y-29885D01*
X27721Y-29642D02*
X27721Y-29457D01*
X27835Y-29557D01*
X27835Y-29514D01*
X27850Y-29485D01*
X27864Y-29471D01*
X27892Y-29457D01*
X27964Y-29457D01*
X27992Y-29471D01*
X28007Y-29485D01*
X28021Y-29514D01*
X28021Y-29600D01*
X28007Y-29628D01*
X27992Y-29642D01*
X26007Y-30942D02*
X26021Y-30900D01*
X26021Y-30828D01*
X26007Y-30800D01*
X25992Y-30785D01*
X25964Y-30771D01*
X25935Y-30771D01*
X25907Y-30785D01*
X25892Y-30800D01*
X25878Y-30828D01*
X25864Y-30885D01*
X25850Y-30914D01*
X25835Y-30928D01*
X25807Y-30942D01*
X25778Y-30942D01*
X25750Y-30928D01*
X25735Y-30914D01*
X25721Y-30885D01*
X25721Y-30814D01*
X25735Y-30771D01*
X26007Y-30528D02*
X26021Y-30557D01*
X26021Y-30614D01*
X26007Y-30642D01*
X25978Y-30657D01*
X25864Y-30657D01*
X25835Y-30642D01*
X25821Y-30614D01*
X25821Y-30557D01*
X25835Y-30528D01*
X25864Y-30514D01*
X25892Y-30514D01*
X25921Y-30657D01*
X25821Y-30385D02*
X26021Y-30385D01*
X25850Y-30385D02*
X25835Y-30371D01*
X25821Y-30342D01*
X25821Y-30300D01*
X25835Y-30271D01*
X25864Y-30257D01*
X26021Y-30257D01*
X26007Y-30128D02*
X26021Y-30100D01*
X26021Y-30042D01*
X26007Y-30014D01*
X25978Y-30000D01*
X25964Y-30000D01*
X25935Y-30014D01*
X25921Y-30042D01*
X25921Y-30085D01*
X25907Y-30114D01*
X25878Y-30128D01*
X25864Y-30128D01*
X25835Y-30114D01*
X25821Y-30085D01*
X25821Y-30042D01*
X25835Y-30014D01*
X26007Y-29757D02*
X26021Y-29785D01*
X26021Y-29842D01*
X26007Y-29871D01*
X25978Y-29885D01*
X25864Y-29885D01*
X25835Y-29871D01*
X25821Y-29842D01*
X25821Y-29785D01*
X25835Y-29757D01*
X25864Y-29742D01*
X25892Y-29742D01*
X25921Y-29885D01*
X25821Y-29485D02*
X26021Y-29485D01*
X25707Y-29557D02*
X25921Y-29628D01*
X25921Y-29442D01*
X31907Y-30942D02*
X31921Y-30900D01*
X31921Y-30828D01*
X31907Y-30800D01*
X31892Y-30785D01*
X31864Y-30771D01*
X31835Y-30771D01*
X31807Y-30785D01*
X31792Y-30800D01*
X31778Y-30828D01*
X31764Y-30885D01*
X31750Y-30914D01*
X31735Y-30928D01*
X31707Y-30942D01*
X31678Y-30942D01*
X31650Y-30928D01*
X31635Y-30914D01*
X31621Y-30885D01*
X31621Y-30814D01*
X31635Y-30771D01*
X31907Y-30528D02*
X31921Y-30557D01*
X31921Y-30614D01*
X31907Y-30642D01*
X31878Y-30657D01*
X31764Y-30657D01*
X31735Y-30642D01*
X31721Y-30614D01*
X31721Y-30557D01*
X31735Y-30528D01*
X31764Y-30514D01*
X31792Y-30514D01*
X31821Y-30657D01*
X31721Y-30385D02*
X31921Y-30385D01*
X31750Y-30385D02*
X31735Y-30371D01*
X31721Y-30342D01*
X31721Y-30300D01*
X31735Y-30271D01*
X31764Y-30257D01*
X31921Y-30257D01*
X31907Y-30128D02*
X31921Y-30100D01*
X31921Y-30042D01*
X31907Y-30014D01*
X31878Y-30000D01*
X31864Y-30000D01*
X31835Y-30014D01*
X31821Y-30042D01*
X31821Y-30085D01*
X31807Y-30114D01*
X31778Y-30128D01*
X31764Y-30128D01*
X31735Y-30114D01*
X31721Y-30085D01*
X31721Y-30042D01*
X31735Y-30014D01*
X31907Y-29757D02*
X31921Y-29785D01*
X31921Y-29842D01*
X31907Y-29871D01*
X31878Y-29885D01*
X31764Y-29885D01*
X31735Y-29871D01*
X31721Y-29842D01*
X31721Y-29785D01*
X31735Y-29757D01*
X31764Y-29742D01*
X31792Y-29742D01*
X31821Y-29885D01*
X31921Y-29457D02*
X31921Y-29628D01*
X31921Y-29542D02*
X31621Y-29542D01*
X31664Y-29571D01*
X31692Y-29600D01*
X31707Y-29628D01*
X15750Y-20621D02*
X15921Y-20621D01*
X15835Y-20921D02*
X15835Y-20621D01*
X15992Y-20621D02*
X16192Y-20921D01*
X16192Y-20621D02*
X15992Y-20921D01*
X16935Y-20921D02*
X16835Y-20778D01*
X16764Y-20921D02*
X16764Y-20621D01*
X16878Y-20621D01*
X16907Y-20635D01*
X16921Y-20650D01*
X16935Y-20678D01*
X16935Y-20721D01*
X16921Y-20750D01*
X16907Y-20764D01*
X16878Y-20778D01*
X16764Y-20778D01*
X17035Y-20621D02*
X17235Y-20921D01*
X17235Y-20621D02*
X17035Y-20921D01*
X10035Y-19421D02*
X10035Y-19664D01*
X10050Y-19692D01*
X10064Y-19707D01*
X10092Y-19721D01*
X10150Y-19721D01*
X10178Y-19707D01*
X10192Y-19692D01*
X10207Y-19664D01*
X10207Y-19421D01*
X10335Y-19635D02*
X10478Y-19635D01*
X10307Y-19721D02*
X10407Y-19421D01*
X10507Y-19721D01*
X10778Y-19721D02*
X10678Y-19578D01*
X10607Y-19721D02*
X10607Y-19421D01*
X10721Y-19421D01*
X10750Y-19435D01*
X10764Y-19450D01*
X10778Y-19478D01*
X10778Y-19521D01*
X10764Y-19550D01*
X10750Y-19564D01*
X10721Y-19578D01*
X10607Y-19578D01*
X10864Y-19421D02*
X11035Y-19421D01*
X10950Y-19721D02*
X10950Y-19421D01*
X11064Y-19750D02*
X11292Y-19750D01*
X11364Y-19721D02*
X11364Y-19421D01*
X11507Y-19721D02*
X11507Y-19421D01*
X11678Y-19721D01*
X11678Y-19421D01*
X11978Y-19721D02*
X11807Y-19721D01*
X11892Y-19721D02*
X11892Y-19421D01*
X11864Y-19464D01*
X11835Y-19492D01*
X11807Y-19507D01*
X20321Y-24349D02*
X20021Y-24349D01*
X20050Y-24221D02*
X20035Y-24207D01*
X20021Y-24178D01*
X20021Y-24107D01*
X20035Y-24078D01*
X20050Y-24064D01*
X20078Y-24050D01*
X20107Y-24050D01*
X20150Y-24064D01*
X20321Y-24235D01*
X20321Y-24050D01*
X20292Y-23750D02*
X20307Y-23764D01*
X20321Y-23807D01*
X20321Y-23835D01*
X20307Y-23878D01*
X20278Y-23907D01*
X20250Y-23921D01*
X20192Y-23935D01*
X20150Y-23935D01*
X20092Y-23921D01*
X20064Y-23907D01*
X20035Y-23878D01*
X20021Y-23835D01*
X20021Y-23807D01*
X20035Y-23764D01*
X20050Y-23750D01*
X20207Y-23621D02*
X20207Y-23392D01*
X20321Y-23249D02*
X20021Y-23249D01*
X20321Y-23107D02*
X20021Y-23107D01*
X20321Y-22935D01*
X20021Y-22935D01*
X20321Y-22635D02*
X20321Y-22807D01*
X20321Y-22721D02*
X20021Y-22721D01*
X20064Y-22749D01*
X20092Y-22778D01*
X20107Y-22807D01*
X32921Y-14664D02*
X32621Y-14664D01*
X32721Y-14521D02*
X32921Y-14521D01*
X32750Y-14521D02*
X32735Y-14507D01*
X32721Y-14478D01*
X32721Y-14435D01*
X32735Y-14407D01*
X32764Y-14392D01*
X32921Y-14392D01*
X32921Y-14121D02*
X32621Y-14121D01*
X32907Y-14121D02*
X32921Y-14149D01*
X32921Y-14207D01*
X32907Y-14235D01*
X32892Y-14249D01*
X32864Y-14264D01*
X32778Y-14264D01*
X32750Y-14249D01*
X32735Y-14235D01*
X32721Y-14207D01*
X32721Y-14149D01*
X32735Y-14121D01*
X32907Y-13864D02*
X32921Y-13892D01*
X32921Y-13949D01*
X32907Y-13978D01*
X32878Y-13992D01*
X32764Y-13992D01*
X32735Y-13978D01*
X32721Y-13949D01*
X32721Y-13892D01*
X32735Y-13864D01*
X32764Y-13849D01*
X32792Y-13849D01*
X32821Y-13992D01*
X32921Y-13749D02*
X32721Y-13592D01*
X32721Y-13749D02*
X32921Y-13592D01*
X32650Y-13492D02*
X32635Y-13478D01*
X32621Y-13449D01*
X32621Y-13378D01*
X32635Y-13349D01*
X32650Y-13335D01*
X32678Y-13321D01*
X32707Y-13321D01*
X32750Y-13335D01*
X32921Y-13507D01*
X32921Y-13321D01*
X24271Y-14614D02*
X23971Y-14614D01*
X24071Y-14471D02*
X24271Y-14471D01*
X24100Y-14471D02*
X24085Y-14457D01*
X24071Y-14428D01*
X24071Y-14385D01*
X24085Y-14357D01*
X24114Y-14342D01*
X24271Y-14342D01*
X24271Y-14071D02*
X23971Y-14071D01*
X24257Y-14071D02*
X24271Y-14099D01*
X24271Y-14157D01*
X24257Y-14185D01*
X24242Y-14199D01*
X24214Y-14214D01*
X24128Y-14214D01*
X24100Y-14199D01*
X24085Y-14185D01*
X24071Y-14157D01*
X24071Y-14099D01*
X24085Y-14071D01*
X24257Y-13814D02*
X24271Y-13842D01*
X24271Y-13899D01*
X24257Y-13928D01*
X24228Y-13942D01*
X24114Y-13942D01*
X24085Y-13928D01*
X24071Y-13899D01*
X24071Y-13842D01*
X24085Y-13814D01*
X24114Y-13799D01*
X24142Y-13799D01*
X24171Y-13942D01*
X24271Y-13699D02*
X24071Y-13542D01*
X24071Y-13699D02*
X24271Y-13542D01*
X24271Y-13271D02*
X24271Y-13442D01*
X24271Y-13357D02*
X23971Y-13357D01*
X24014Y-13385D01*
X24042Y-13414D01*
X24057Y-13442D01*
X11161Y-25571D02*
X10761Y-25571D01*
X10761Y-25419D01*
X10780Y-25380D01*
X10800Y-25361D01*
X10838Y-25342D01*
X10895Y-25342D01*
X10933Y-25361D01*
X10952Y-25380D01*
X10971Y-25419D01*
X10971Y-25571D01*
X10761Y-25095D02*
X10761Y-25019D01*
X10780Y-24980D01*
X10819Y-24942D01*
X10895Y-24923D01*
X11028Y-24923D01*
X11104Y-24942D01*
X11142Y-24980D01*
X11161Y-25019D01*
X11161Y-25095D01*
X11142Y-25133D01*
X11104Y-25171D01*
X11028Y-25190D01*
X10895Y-25190D01*
X10819Y-25171D01*
X10780Y-25133D01*
X10761Y-25095D01*
X10761Y-24790D02*
X11161Y-24695D01*
X10876Y-24619D01*
X11161Y-24542D01*
X10761Y-24447D01*
X10952Y-24295D02*
X10952Y-24161D01*
X11161Y-24104D02*
X11161Y-24295D01*
X10761Y-24295D01*
X10761Y-24104D01*
X11161Y-23704D02*
X10971Y-23838D01*
X11161Y-23933D02*
X10761Y-23933D01*
X10761Y-23780D01*
X10780Y-23742D01*
X10800Y-23723D01*
X10838Y-23704D01*
X10895Y-23704D01*
X10933Y-23723D01*
X10952Y-23742D01*
X10971Y-23780D01*
X10971Y-23933D01*
X11200Y-23628D02*
X11200Y-23323D01*
X11161Y-23228D02*
X10761Y-23228D01*
X11161Y-23038D02*
X10761Y-23038D01*
X11161Y-22809D01*
X10761Y-22809D01*
X11161Y-22409D02*
X11161Y-22638D01*
X11161Y-22523D02*
X10761Y-22523D01*
X10819Y-22561D01*
X10857Y-22599D01*
X10876Y-22638D01*
G54D12*
X31050Y-20992D02*
X31035Y-21007D01*
X30992Y-21021D01*
X30964Y-21021D01*
X30921Y-21007D01*
X30892Y-20978D01*
X30878Y-20950D01*
X30864Y-20892D01*
X30864Y-20850D01*
X30878Y-20792D01*
X30892Y-20764D01*
X30921Y-20735D01*
X30964Y-20721D01*
X30992Y-20721D01*
X31035Y-20735D01*
X31050Y-20750D01*
X31221Y-20850D02*
X31192Y-20835D01*
X31178Y-20821D01*
X31164Y-20792D01*
X31164Y-20778D01*
X31178Y-20750D01*
X31192Y-20735D01*
X31221Y-20721D01*
X31278Y-20721D01*
X31307Y-20735D01*
X31321Y-20750D01*
X31335Y-20778D01*
X31335Y-20792D01*
X31321Y-20821D01*
X31307Y-20835D01*
X31278Y-20850D01*
X31221Y-20850D01*
X31192Y-20864D01*
X31178Y-20878D01*
X31164Y-20907D01*
X31164Y-20964D01*
X31178Y-20992D01*
X31192Y-21007D01*
X31221Y-21021D01*
X31278Y-21021D01*
X31307Y-21007D01*
X31321Y-20992D01*
X31335Y-20964D01*
X31335Y-20907D01*
X31321Y-20878D01*
X31307Y-20864D01*
X31278Y-20850D01*
X32050Y-20992D02*
X32035Y-21007D01*
X31992Y-21021D01*
X31964Y-21021D01*
X31921Y-21007D01*
X31892Y-20978D01*
X31878Y-20950D01*
X31864Y-20892D01*
X31864Y-20850D01*
X31878Y-20792D01*
X31892Y-20764D01*
X31921Y-20735D01*
X31964Y-20721D01*
X31992Y-20721D01*
X32035Y-20735D01*
X32050Y-20750D01*
X32321Y-20721D02*
X32178Y-20721D01*
X32164Y-20864D01*
X32178Y-20850D01*
X32207Y-20835D01*
X32278Y-20835D01*
X32307Y-20850D01*
X32321Y-20864D01*
X32335Y-20892D01*
X32335Y-20964D01*
X32321Y-20992D01*
X32307Y-21007D01*
X32278Y-21021D01*
X32207Y-21021D01*
X32178Y-21007D01*
X32164Y-20992D01*
X29350Y-20992D02*
X29335Y-21007D01*
X29292Y-21021D01*
X29264Y-21021D01*
X29221Y-21007D01*
X29192Y-20978D01*
X29178Y-20950D01*
X29164Y-20892D01*
X29164Y-20850D01*
X29178Y-20792D01*
X29192Y-20764D01*
X29221Y-20735D01*
X29264Y-20721D01*
X29292Y-20721D01*
X29335Y-20735D01*
X29350Y-20750D01*
X29450Y-20721D02*
X29650Y-20721D01*
X29521Y-21021D01*
X28250Y-20992D02*
X28235Y-21007D01*
X28192Y-21021D01*
X28164Y-21021D01*
X28121Y-21007D01*
X28092Y-20978D01*
X28078Y-20950D01*
X28064Y-20892D01*
X28064Y-20850D01*
X28078Y-20792D01*
X28092Y-20764D01*
X28121Y-20735D01*
X28164Y-20721D01*
X28192Y-20721D01*
X28235Y-20735D01*
X28250Y-20750D01*
X28507Y-20721D02*
X28450Y-20721D01*
X28421Y-20735D01*
X28407Y-20750D01*
X28378Y-20792D01*
X28364Y-20850D01*
X28364Y-20964D01*
X28378Y-20992D01*
X28392Y-21007D01*
X28421Y-21021D01*
X28478Y-21021D01*
X28507Y-21007D01*
X28521Y-20992D01*
X28535Y-20964D01*
X28535Y-20892D01*
X28521Y-20864D01*
X28507Y-20850D01*
X28478Y-20835D01*
X28421Y-20835D01*
X28392Y-20850D01*
X28378Y-20864D01*
X28364Y-20892D01*
G54D18*
X15611Y-28959D02*
X15211Y-28959D01*
X15250Y-28788D02*
X15230Y-28769D01*
X15211Y-28730D01*
X15211Y-28635D01*
X15230Y-28597D01*
X15250Y-28578D01*
X15288Y-28559D01*
X15326Y-28559D01*
X15383Y-28578D01*
X15611Y-28807D01*
X15611Y-28559D01*
X15573Y-28159D02*
X15592Y-28178D01*
X15611Y-28235D01*
X15611Y-28273D01*
X15592Y-28330D01*
X15554Y-28369D01*
X15516Y-28388D01*
X15440Y-28407D01*
X15383Y-28407D01*
X15307Y-28388D01*
X15269Y-28369D01*
X15230Y-28330D01*
X15211Y-28273D01*
X15211Y-28235D01*
X15230Y-28178D01*
X15250Y-28159D01*
X15459Y-27988D02*
X15459Y-27683D01*
X15211Y-27416D02*
X15211Y-27340D01*
X15230Y-27302D01*
X15269Y-27264D01*
X15345Y-27245D01*
X15478Y-27245D01*
X15554Y-27264D01*
X15592Y-27302D01*
X15611Y-27340D01*
X15611Y-27416D01*
X15592Y-27454D01*
X15554Y-27492D01*
X15478Y-27511D01*
X15345Y-27511D01*
X15269Y-27492D01*
X15230Y-27454D01*
X15211Y-27416D01*
X15211Y-27073D02*
X15535Y-27073D01*
X15573Y-27054D01*
X15592Y-27035D01*
X15611Y-26997D01*
X15611Y-26921D01*
X15592Y-26883D01*
X15573Y-26864D01*
X15535Y-26845D01*
X15211Y-26845D01*
X15211Y-26711D02*
X15211Y-26483D01*
X15611Y-26597D02*
X15211Y-26597D01*
G54D12*
X15907Y-25221D02*
X15807Y-25078D01*
X15735Y-25221D02*
X15735Y-24921D01*
X15850Y-24921D01*
X15878Y-24935D01*
X15892Y-24950D01*
X15907Y-24978D01*
X15907Y-25021D01*
X15892Y-25050D01*
X15878Y-25064D01*
X15850Y-25078D01*
X15735Y-25078D01*
X16021Y-24950D02*
X16035Y-24935D01*
X16064Y-24921D01*
X16135Y-24921D01*
X16164Y-24935D01*
X16178Y-24950D01*
X16192Y-24978D01*
X16192Y-25007D01*
X16178Y-25050D01*
X16007Y-25221D01*
X16192Y-25221D01*
X16292Y-24921D02*
X16492Y-24921D01*
X16364Y-25221D01*
G54D15*
X15135Y-21828D02*
X15121Y-21857D01*
X15121Y-21899D01*
X15135Y-21942D01*
X15164Y-21971D01*
X15192Y-21985D01*
X15250Y-21999D01*
X15292Y-21999D01*
X15350Y-21985D01*
X15378Y-21971D01*
X15407Y-21942D01*
X15421Y-21899D01*
X15421Y-21871D01*
X15407Y-21828D01*
X15392Y-21814D01*
X15292Y-21814D01*
X15292Y-21871D01*
X15421Y-21685D02*
X15121Y-21685D01*
X15421Y-21514D01*
X15121Y-21514D01*
X15421Y-21371D02*
X15121Y-21371D01*
X15121Y-21299D01*
X15135Y-21257D01*
X15164Y-21228D01*
X15192Y-21214D01*
X15250Y-21199D01*
X15292Y-21199D01*
X15350Y-21214D01*
X15378Y-21228D01*
X15407Y-21257D01*
X15421Y-21299D01*
X15421Y-21371D01*
X15121Y-20471D02*
X15121Y-20614D01*
X15264Y-20628D01*
X15250Y-20614D01*
X15235Y-20585D01*
X15235Y-20514D01*
X15250Y-20485D01*
X15264Y-20471D01*
X15292Y-20457D01*
X15364Y-20457D01*
X15392Y-20471D01*
X15407Y-20485D01*
X15421Y-20514D01*
X15421Y-20585D01*
X15407Y-20614D01*
X15392Y-20628D01*
X15121Y-20371D02*
X15421Y-20271D01*
X15121Y-20171D01*
G54D19*
X15878Y-23171D02*
X15878Y-22871D01*
X15950Y-22871D01*
X15992Y-22885D01*
X16021Y-22914D01*
X16035Y-22942D01*
X16050Y-23000D01*
X16050Y-23042D01*
X16035Y-23100D01*
X16021Y-23128D01*
X15992Y-23157D01*
X15950Y-23171D01*
X15878Y-23171D01*
X16335Y-23171D02*
X16164Y-23171D01*
X16250Y-23171D02*
X16250Y-22871D01*
X16221Y-22914D01*
X16192Y-22942D01*
X16164Y-22957D01*
X13471Y-23242D02*
X13471Y-23385D01*
X13171Y-23385D01*
X13314Y-23142D02*
X13314Y-23042D01*
X13471Y-23000D02*
X13471Y-23142D01*
X13171Y-23142D01*
X13171Y-23000D01*
X13471Y-22871D02*
X13171Y-22871D01*
X13171Y-22800D01*
X13185Y-22757D01*
X13214Y-22728D01*
X13242Y-22714D01*
X13300Y-22700D01*
X13342Y-22700D01*
X13400Y-22714D01*
X13428Y-22728D01*
X13457Y-22757D01*
X13471Y-22800D01*
X13471Y-22871D01*
G54D12*
X21521Y-22092D02*
X21378Y-22192D01*
X21521Y-22264D02*
X21221Y-22264D01*
X21221Y-22150D01*
X21235Y-22121D01*
X21250Y-22107D01*
X21278Y-22092D01*
X21321Y-22092D01*
X21350Y-22107D01*
X21364Y-22121D01*
X21378Y-22150D01*
X21378Y-22264D01*
X21250Y-21978D02*
X21235Y-21964D01*
X21221Y-21935D01*
X21221Y-21864D01*
X21235Y-21835D01*
X21250Y-21821D01*
X21278Y-21807D01*
X21307Y-21807D01*
X21350Y-21821D01*
X21521Y-21992D01*
X21521Y-21807D01*
X21521Y-21664D02*
X21521Y-21607D01*
X21507Y-21578D01*
X21492Y-21564D01*
X21450Y-21535D01*
X21392Y-21521D01*
X21278Y-21521D01*
X21250Y-21535D01*
X21235Y-21550D01*
X21221Y-21578D01*
X21221Y-21635D01*
X21235Y-21664D01*
X21250Y-21678D01*
X21278Y-21692D01*
X21350Y-21692D01*
X21378Y-21678D01*
X21392Y-21664D01*
X21407Y-21635D01*
X21407Y-21578D01*
X21392Y-21550D01*
X21378Y-21535D01*
X21350Y-21521D01*
X25921Y-22092D02*
X25778Y-22192D01*
X25921Y-22264D02*
X25621Y-22264D01*
X25621Y-22150D01*
X25635Y-22121D01*
X25650Y-22107D01*
X25678Y-22092D01*
X25721Y-22092D01*
X25750Y-22107D01*
X25764Y-22121D01*
X25778Y-22150D01*
X25778Y-22264D01*
X25650Y-21978D02*
X25635Y-21964D01*
X25621Y-21935D01*
X25621Y-21864D01*
X25635Y-21835D01*
X25650Y-21821D01*
X25678Y-21807D01*
X25707Y-21807D01*
X25750Y-21821D01*
X25921Y-21992D01*
X25921Y-21807D01*
X25750Y-21635D02*
X25735Y-21664D01*
X25721Y-21678D01*
X25692Y-21692D01*
X25678Y-21692D01*
X25650Y-21678D01*
X25635Y-21664D01*
X25621Y-21635D01*
X25621Y-21578D01*
X25635Y-21550D01*
X25650Y-21535D01*
X25678Y-21521D01*
X25692Y-21521D01*
X25721Y-21535D01*
X25735Y-21550D01*
X25750Y-21578D01*
X25750Y-21635D01*
X25764Y-21664D01*
X25778Y-21678D01*
X25807Y-21692D01*
X25864Y-21692D01*
X25892Y-21678D01*
X25907Y-21664D01*
X25921Y-21635D01*
X25921Y-21578D01*
X25907Y-21550D01*
X25892Y-21535D01*
X25864Y-21521D01*
X25807Y-21521D01*
X25778Y-21535D01*
X25764Y-21550D01*
X25750Y-21578D01*
X23721Y-22092D02*
X23578Y-22192D01*
X23721Y-22264D02*
X23421Y-22264D01*
X23421Y-22150D01*
X23435Y-22121D01*
X23450Y-22107D01*
X23478Y-22092D01*
X23521Y-22092D01*
X23550Y-22107D01*
X23564Y-22121D01*
X23578Y-22150D01*
X23578Y-22264D01*
X23421Y-21992D02*
X23421Y-21807D01*
X23535Y-21907D01*
X23535Y-21864D01*
X23550Y-21835D01*
X23564Y-21821D01*
X23592Y-21807D01*
X23664Y-21807D01*
X23692Y-21821D01*
X23707Y-21835D01*
X23721Y-21864D01*
X23721Y-21950D01*
X23707Y-21978D01*
X23692Y-21992D01*
X23421Y-21621D02*
X23421Y-21592D01*
X23435Y-21564D01*
X23450Y-21550D01*
X23478Y-21535D01*
X23535Y-21521D01*
X23607Y-21521D01*
X23664Y-21535D01*
X23692Y-21550D01*
X23707Y-21564D01*
X23721Y-21592D01*
X23721Y-21621D01*
X23707Y-21650D01*
X23692Y-21664D01*
X23664Y-21678D01*
X23607Y-21692D01*
X23535Y-21692D01*
X23478Y-21678D01*
X23450Y-21664D01*
X23435Y-21650D01*
X23421Y-21621D01*
X19321Y-22092D02*
X19178Y-22192D01*
X19321Y-22264D02*
X19021Y-22264D01*
X19021Y-22150D01*
X19035Y-22121D01*
X19050Y-22107D01*
X19078Y-22092D01*
X19121Y-22092D01*
X19150Y-22107D01*
X19164Y-22121D01*
X19178Y-22150D01*
X19178Y-22264D01*
X19021Y-21992D02*
X19021Y-21807D01*
X19135Y-21907D01*
X19135Y-21864D01*
X19150Y-21835D01*
X19164Y-21821D01*
X19192Y-21807D01*
X19264Y-21807D01*
X19292Y-21821D01*
X19307Y-21835D01*
X19321Y-21864D01*
X19321Y-21950D01*
X19307Y-21978D01*
X19292Y-21992D01*
X19321Y-21521D02*
X19321Y-21692D01*
X19321Y-21607D02*
X19021Y-21607D01*
X19064Y-21635D01*
X19092Y-21664D01*
X19107Y-21692D01*
G54D19*
X21828Y-20571D02*
X21828Y-20271D01*
X21900Y-20271D01*
X21942Y-20285D01*
X21971Y-20314D01*
X21985Y-20342D01*
X22000Y-20400D01*
X22000Y-20442D01*
X21985Y-20500D01*
X21971Y-20528D01*
X21942Y-20557D01*
X21900Y-20571D01*
X21828Y-20571D01*
X22271Y-20271D02*
X22128Y-20271D01*
X22114Y-20414D01*
X22128Y-20400D01*
X22157Y-20385D01*
X22228Y-20385D01*
X22257Y-20400D01*
X22271Y-20414D01*
X22285Y-20442D01*
X22285Y-20514D01*
X22271Y-20542D01*
X22257Y-20557D01*
X22228Y-20571D01*
X22157Y-20571D01*
X22128Y-20557D01*
X22114Y-20542D01*
X13021Y-18642D02*
X13021Y-18785D01*
X12721Y-18785D01*
X12864Y-18542D02*
X12864Y-18442D01*
X13021Y-18400D02*
X13021Y-18542D01*
X12721Y-18542D01*
X12721Y-18400D01*
X13021Y-18271D02*
X12721Y-18271D01*
X12721Y-18200D01*
X12735Y-18157D01*
X12764Y-18128D01*
X12792Y-18114D01*
X12850Y-18100D01*
X12892Y-18100D01*
X12950Y-18114D01*
X12978Y-18128D01*
X13007Y-18157D01*
X13021Y-18200D01*
X13021Y-18271D01*
X20828Y-20521D02*
X20828Y-20221D01*
X20900Y-20221D01*
X20942Y-20235D01*
X20971Y-20264D01*
X20985Y-20292D01*
X21000Y-20350D01*
X21000Y-20392D01*
X20985Y-20450D01*
X20971Y-20478D01*
X20942Y-20507D01*
X20900Y-20521D01*
X20828Y-20521D01*
X21257Y-20321D02*
X21257Y-20521D01*
X21185Y-20207D02*
X21114Y-20421D01*
X21300Y-20421D01*
X11271Y-21392D02*
X11271Y-21535D01*
X10971Y-21535D01*
X11114Y-21292D02*
X11114Y-21192D01*
X11271Y-21150D02*
X11271Y-21292D01*
X10971Y-21292D01*
X10971Y-21150D01*
X11271Y-21021D02*
X10971Y-21021D01*
X10971Y-20950D01*
X10985Y-20907D01*
X11014Y-20878D01*
X11042Y-20864D01*
X11100Y-20850D01*
X11142Y-20850D01*
X11200Y-20864D01*
X11228Y-20878D01*
X11257Y-20907D01*
X11271Y-20950D01*
X11271Y-21021D01*
X25778Y-20571D02*
X25778Y-20271D01*
X25850Y-20271D01*
X25892Y-20285D01*
X25921Y-20314D01*
X25935Y-20342D01*
X25950Y-20400D01*
X25950Y-20442D01*
X25935Y-20500D01*
X25921Y-20528D01*
X25892Y-20557D01*
X25850Y-20571D01*
X25778Y-20571D01*
X26050Y-20271D02*
X26235Y-20271D01*
X26135Y-20385D01*
X26178Y-20385D01*
X26207Y-20400D01*
X26221Y-20414D01*
X26235Y-20442D01*
X26235Y-20514D01*
X26221Y-20542D01*
X26207Y-20557D01*
X26178Y-20571D01*
X26092Y-20571D01*
X26064Y-20557D01*
X26050Y-20542D01*
X13271Y-22342D02*
X13271Y-22485D01*
X12971Y-22485D01*
X13114Y-22242D02*
X13114Y-22142D01*
X13271Y-22100D02*
X13271Y-22242D01*
X12971Y-22242D01*
X12971Y-22100D01*
X13271Y-21971D02*
X12971Y-21971D01*
X12971Y-21900D01*
X12985Y-21857D01*
X13014Y-21828D01*
X13042Y-21814D01*
X13100Y-21800D01*
X13142Y-21800D01*
X13200Y-21814D01*
X13228Y-21828D01*
X13257Y-21857D01*
X13271Y-21900D01*
X13271Y-21971D01*
X24828Y-20571D02*
X24828Y-20271D01*
X24900Y-20271D01*
X24942Y-20285D01*
X24971Y-20314D01*
X24985Y-20342D01*
X25000Y-20400D01*
X25000Y-20442D01*
X24985Y-20500D01*
X24971Y-20528D01*
X24942Y-20557D01*
X24900Y-20571D01*
X24828Y-20571D01*
X25114Y-20300D02*
X25128Y-20285D01*
X25157Y-20271D01*
X25228Y-20271D01*
X25257Y-20285D01*
X25271Y-20300D01*
X25285Y-20328D01*
X25285Y-20357D01*
X25271Y-20400D01*
X25100Y-20571D01*
X25285Y-20571D01*
X12471Y-22442D02*
X12471Y-22585D01*
X12171Y-22585D01*
X12314Y-22342D02*
X12314Y-22242D01*
X12471Y-22200D02*
X12471Y-22342D01*
X12171Y-22342D01*
X12171Y-22200D01*
X12471Y-22071D02*
X12171Y-22071D01*
X12171Y-22000D01*
X12185Y-21957D01*
X12214Y-21928D01*
X12242Y-21914D01*
X12300Y-21900D01*
X12342Y-21900D01*
X12400Y-21914D01*
X12428Y-21928D01*
X12457Y-21957D01*
X12471Y-22000D01*
X12471Y-22071D01*
X19828Y-20571D02*
X19828Y-20271D01*
X19900Y-20271D01*
X19942Y-20285D01*
X19971Y-20314D01*
X19985Y-20342D01*
X20000Y-20400D01*
X20000Y-20442D01*
X19985Y-20500D01*
X19971Y-20528D01*
X19942Y-20557D01*
X19900Y-20571D01*
X19828Y-20571D01*
X20142Y-20571D02*
X20200Y-20571D01*
X20228Y-20557D01*
X20242Y-20542D01*
X20271Y-20500D01*
X20285Y-20442D01*
X20285Y-20328D01*
X20271Y-20300D01*
X20257Y-20285D01*
X20228Y-20271D01*
X20171Y-20271D01*
X20142Y-20285D01*
X20128Y-20300D01*
X20114Y-20328D01*
X20114Y-20400D01*
X20128Y-20428D01*
X20142Y-20442D01*
X20171Y-20457D01*
X20228Y-20457D01*
X20257Y-20442D01*
X20271Y-20428D01*
X20285Y-20400D01*
X12421Y-21192D02*
X12421Y-21335D01*
X12121Y-21335D01*
X12264Y-21092D02*
X12264Y-20992D01*
X12421Y-20950D02*
X12421Y-21092D01*
X12121Y-21092D01*
X12121Y-20950D01*
X12421Y-20821D02*
X12121Y-20821D01*
X12121Y-20750D01*
X12135Y-20707D01*
X12164Y-20678D01*
X12192Y-20664D01*
X12250Y-20650D01*
X12292Y-20650D01*
X12350Y-20664D01*
X12378Y-20678D01*
X12407Y-20707D01*
X12421Y-20750D01*
X12421Y-20821D01*
X18778Y-20571D02*
X18778Y-20271D01*
X18850Y-20271D01*
X18892Y-20285D01*
X18921Y-20314D01*
X18935Y-20342D01*
X18950Y-20400D01*
X18950Y-20442D01*
X18935Y-20500D01*
X18921Y-20528D01*
X18892Y-20557D01*
X18850Y-20571D01*
X18778Y-20571D01*
X19121Y-20400D02*
X19092Y-20385D01*
X19078Y-20371D01*
X19064Y-20342D01*
X19064Y-20328D01*
X19078Y-20300D01*
X19092Y-20285D01*
X19121Y-20271D01*
X19178Y-20271D01*
X19207Y-20285D01*
X19221Y-20300D01*
X19235Y-20328D01*
X19235Y-20342D01*
X19221Y-20371D01*
X19207Y-20385D01*
X19178Y-20400D01*
X19121Y-20400D01*
X19092Y-20414D01*
X19078Y-20428D01*
X19064Y-20457D01*
X19064Y-20514D01*
X19078Y-20542D01*
X19092Y-20557D01*
X19121Y-20571D01*
X19178Y-20571D01*
X19207Y-20557D01*
X19221Y-20542D01*
X19235Y-20514D01*
X19235Y-20457D01*
X19221Y-20428D01*
X19207Y-20414D01*
X19178Y-20400D01*
X13271Y-21592D02*
X13271Y-21735D01*
X12971Y-21735D01*
X13114Y-21492D02*
X13114Y-21392D01*
X13271Y-21350D02*
X13271Y-21492D01*
X12971Y-21492D01*
X12971Y-21350D01*
X13271Y-21221D02*
X12971Y-21221D01*
X12971Y-21150D01*
X12985Y-21107D01*
X13014Y-21078D01*
X13042Y-21064D01*
X13100Y-21050D01*
X13142Y-21050D01*
X13200Y-21064D01*
X13228Y-21078D01*
X13257Y-21107D01*
X13271Y-21150D01*
X13271Y-21221D01*
X23828Y-20571D02*
X23828Y-20271D01*
X23900Y-20271D01*
X23942Y-20285D01*
X23971Y-20314D01*
X23985Y-20342D01*
X24000Y-20400D01*
X24000Y-20442D01*
X23985Y-20500D01*
X23971Y-20528D01*
X23942Y-20557D01*
X23900Y-20571D01*
X23828Y-20571D01*
X24100Y-20271D02*
X24300Y-20271D01*
X24171Y-20571D01*
X12921Y-20292D02*
X12921Y-20435D01*
X12621Y-20435D01*
X12764Y-20192D02*
X12764Y-20092D01*
X12921Y-20050D02*
X12921Y-20192D01*
X12621Y-20192D01*
X12621Y-20050D01*
X12921Y-19921D02*
X12621Y-19921D01*
X12621Y-19850D01*
X12635Y-19807D01*
X12664Y-19778D01*
X12692Y-19764D01*
X12750Y-19750D01*
X12792Y-19750D01*
X12850Y-19764D01*
X12878Y-19778D01*
X12907Y-19807D01*
X12921Y-19850D01*
X12921Y-19921D01*
X22828Y-20571D02*
X22828Y-20271D01*
X22900Y-20271D01*
X22942Y-20285D01*
X22971Y-20314D01*
X22985Y-20342D01*
X23000Y-20400D01*
X23000Y-20442D01*
X22985Y-20500D01*
X22971Y-20528D01*
X22942Y-20557D01*
X22900Y-20571D01*
X22828Y-20571D01*
X23257Y-20271D02*
X23200Y-20271D01*
X23171Y-20285D01*
X23157Y-20300D01*
X23128Y-20342D01*
X23114Y-20400D01*
X23114Y-20514D01*
X23128Y-20542D01*
X23142Y-20557D01*
X23171Y-20571D01*
X23228Y-20571D01*
X23257Y-20557D01*
X23271Y-20542D01*
X23285Y-20514D01*
X23285Y-20442D01*
X23271Y-20414D01*
X23257Y-20400D01*
X23228Y-20385D01*
X23171Y-20385D01*
X23142Y-20400D01*
X23128Y-20414D01*
X23114Y-20442D01*
X13571Y-20242D02*
X13571Y-20385D01*
X13271Y-20385D01*
X13414Y-20142D02*
X13414Y-20042D01*
X13571Y-20000D02*
X13571Y-20142D01*
X13271Y-20142D01*
X13271Y-20000D01*
X13571Y-19871D02*
X13271Y-19871D01*
X13271Y-19800D01*
X13285Y-19757D01*
X13314Y-19728D01*
X13342Y-19714D01*
X13400Y-19700D01*
X13442Y-19700D01*
X13500Y-19714D01*
X13528Y-19728D01*
X13557Y-19757D01*
X13571Y-19800D01*
X13571Y-19871D01*
M02*
