M48
;DRILL file {Pcbnew (2013-07-07 BZR 4022)-stable} date 21/02/2014 11:26:56
;FORMAT={3:3/ absolute / metric / suppress leading zeros}
FMAT,2
METRIC,TZ
T1C0.635
T2C1.001
T3C1.016
T4C3.048
%
G90
G05
M71
T1
X67691Y-46990
X67691Y-50673
X67945Y-38633
X68834Y-59436
X69215Y-33655
X69342Y-62230
X71120Y-52705
X72390Y-33655
X72771Y-58039
X74320Y-50673
X75565Y-33782
X75692Y-70866
X76454Y-58674
X76708Y-64516
X77089Y-46990
X78740Y-33655
X80264Y-46990
X81915Y-33655
X83439Y-46990
X83566Y-65532
X83820Y-58674
X85090Y-33655
X86360Y-71882
X86614Y-46990
X88138Y-59436
X88265Y-33655
X89916Y-46990
X91440Y-33655
X93472Y-51816
X94615Y-33655
X96266Y-46990
X96774Y-57150
X97790Y-33655
X99314Y-46990
X99822Y-51816
X100965Y-29540
X100965Y-33655
X102616Y-46990
X103378Y-64770
X103378Y-67818
X103632Y-58674
X104140Y-29540
X104140Y-33655
X105664Y-46990
X106807Y-67818
X106807Y-71120
X106934Y-64770
X107239Y-29566
X107315Y-33655
X107696Y-56388
X108966Y-46990
X110236Y-64516
X110236Y-67818
X110236Y-71120
X110490Y-33655
X111252Y-59690
X111760Y-27178
X111760Y-29464
T3
X66040Y-52705
X66040Y-55245
X66040Y-57785
X67310Y-26670
X67310Y-29210
X68580Y-42545
X69850Y-26670
X69850Y-29210
X71120Y-42545
X72390Y-26670
X72390Y-29210
X74930Y-26670
X74930Y-29210
X76200Y-42545
X77470Y-26670
X77470Y-29210
X78740Y-42545
X80010Y-26670
X80010Y-29210
X81280Y-42545
X81280Y-52705
X81280Y-55245
X82550Y-26670
X82550Y-29210
X83820Y-42545
X85090Y-26670
X85090Y-29210
X86360Y-42545
X87630Y-26670
X87630Y-29210
X88900Y-42545
X90170Y-26670
X90170Y-29210
X91440Y-42545
X92710Y-26670
X92710Y-29210
X93980Y-42545
X95250Y-26670
X95250Y-29210
X97790Y-26670
X97790Y-29210
X99060Y-42545
X101600Y-42545
X104140Y-42545
X106680Y-42545
X109220Y-42545
T4
X91440Y-62230
T2
X66241Y-65041G85X66241Y-67039
G05
X68241Y-70739G85X70240Y-70739
G05
X72240Y-65041G85X72240Y-67039
G05
T0
M30
