G04 (created by PCBNEW (2013-07-07 BZR 4022)-stable) date 21/02/2014 11:26:53*
%MOIN*%
G04 Gerber Fmt 3.4, Leading zero omitted, Abs format*
%FSLAX34Y34*%
G01*
G70*
G90*
G04 APERTURE LIST*
%ADD10C,0.00590551*%
%ADD11R,0.06X0.06*%
%ADD12C,0.06*%
%ADD13R,0.1378X0.1378*%
%ADD14C,0.16*%
%ADD15C,0.035*%
%ADD16C,0.019685*%
%ADD17C,0.0393701*%
%ADD18C,0.00984252*%
%ADD19C,0.01*%
G04 APERTURE END LIST*
G54D10*
G54D11*
X39000Y-16750D03*
G54D12*
X40000Y-16750D03*
X41000Y-16750D03*
X42000Y-16750D03*
X43000Y-16750D03*
G54D11*
X27000Y-16750D03*
G54D12*
X28000Y-16750D03*
G54D11*
X26500Y-11500D03*
G54D12*
X26500Y-10500D03*
X27500Y-11500D03*
X27500Y-10500D03*
X28500Y-11500D03*
X28500Y-10500D03*
X29500Y-11500D03*
X29500Y-10500D03*
X30500Y-11500D03*
X30500Y-10500D03*
X31500Y-11500D03*
X31500Y-10500D03*
X32500Y-11500D03*
X32500Y-10500D03*
X33500Y-11500D03*
X33500Y-10500D03*
X34500Y-11500D03*
X34500Y-10500D03*
X35500Y-11500D03*
X35500Y-10500D03*
X36500Y-11500D03*
X36500Y-10500D03*
X37500Y-11500D03*
X37500Y-10500D03*
X38500Y-11500D03*
X38500Y-10500D03*
G54D13*
X28441Y-26000D03*
X26079Y-26000D03*
X27260Y-27850D03*
G54D11*
X26000Y-22750D03*
G54D12*
X26000Y-21750D03*
X26000Y-20750D03*
G54D14*
X36000Y-24500D03*
G54D11*
X34000Y-16750D03*
G54D12*
X35000Y-16750D03*
X36000Y-16750D03*
X37000Y-16750D03*
G54D11*
X30000Y-16750D03*
G54D12*
X31000Y-16750D03*
X32000Y-16750D03*
X33000Y-16750D03*
G54D11*
X32000Y-21750D03*
G54D12*
X32000Y-20750D03*
G54D15*
X26750Y-15210D03*
X29750Y-13300D03*
X31000Y-13250D03*
X32250Y-13250D03*
X28500Y-13250D03*
X28000Y-20750D03*
X27250Y-13250D03*
X33500Y-13250D03*
X34750Y-13250D03*
X36000Y-13250D03*
X37250Y-13250D03*
X38500Y-13250D03*
X39750Y-13250D03*
X41000Y-13250D03*
X42250Y-13250D03*
X43500Y-13250D03*
X42220Y-11640D03*
X37900Y-18500D03*
X39100Y-18500D03*
X40400Y-18500D03*
X41600Y-18500D03*
X42900Y-18500D03*
X35400Y-18500D03*
X34100Y-18500D03*
X32850Y-18500D03*
X31600Y-18500D03*
X30350Y-18500D03*
X44000Y-10700D03*
X44000Y-11600D03*
X42050Y-28000D03*
X43400Y-28000D03*
X42100Y-25500D03*
X40700Y-25500D03*
X43400Y-25400D03*
X30100Y-23100D03*
X33000Y-23100D03*
X34700Y-23400D03*
X27100Y-23400D03*
X27300Y-24500D03*
X36800Y-20400D03*
X39300Y-20400D03*
X38100Y-22500D03*
X43800Y-23500D03*
X42400Y-22200D03*
X40800Y-23100D03*
X43400Y-26700D03*
X42050Y-26700D03*
X40700Y-26700D03*
X26650Y-19950D03*
X26650Y-18500D03*
X34000Y-28300D03*
X32900Y-25800D03*
X30200Y-25400D03*
X29800Y-27900D03*
X39750Y-11630D03*
X29260Y-19950D03*
X41000Y-11630D03*
X28650Y-22850D03*
G54D16*
X37250Y-13250D02*
X37950Y-13950D01*
X28590Y-23360D02*
X26980Y-21750D01*
X28870Y-23360D02*
X28590Y-23360D01*
X29250Y-22980D02*
X28870Y-23360D01*
X29250Y-21360D02*
X29250Y-22980D01*
X30720Y-19890D02*
X29250Y-21360D01*
X35480Y-19890D02*
X30720Y-19890D01*
X37950Y-17420D02*
X35480Y-19890D01*
X37950Y-13950D02*
X37950Y-17420D01*
X27250Y-13250D02*
X27250Y-14710D01*
X27250Y-14710D02*
X26750Y-15210D01*
X34500Y-11500D02*
X34500Y-11850D01*
X34750Y-12100D02*
X34750Y-13250D01*
X34500Y-11850D02*
X34750Y-12100D01*
X31000Y-13250D02*
X29750Y-13250D01*
X29750Y-13250D02*
X29750Y-13300D01*
X32250Y-13250D02*
X31000Y-13250D01*
X33500Y-13250D02*
X32250Y-13250D01*
X27250Y-13250D02*
X28500Y-13250D01*
X26500Y-11500D02*
X26500Y-12500D01*
X26500Y-12500D02*
X27250Y-13250D01*
X28000Y-20750D02*
X28000Y-18500D01*
X28750Y-14750D02*
X27250Y-13250D01*
X28750Y-17750D02*
X28750Y-14750D01*
X28000Y-18500D02*
X28750Y-17750D01*
X27000Y-21750D02*
X26980Y-21750D01*
X28000Y-20750D02*
X27000Y-21750D01*
X26980Y-21750D02*
X26000Y-21750D01*
X34750Y-13250D02*
X33500Y-13250D01*
X36000Y-13250D02*
X34750Y-13250D01*
X37250Y-13250D02*
X36000Y-13250D01*
X38500Y-13250D02*
X37250Y-13250D01*
X39750Y-13250D02*
X38500Y-13250D01*
X41000Y-13250D02*
X39750Y-13250D01*
X42250Y-13250D02*
X41000Y-13250D01*
X43500Y-13250D02*
X42250Y-13250D01*
G54D17*
X26500Y-10500D02*
X26100Y-10500D01*
X25800Y-20550D02*
X26000Y-20750D01*
X25800Y-10800D02*
X25800Y-20550D01*
X26100Y-10500D02*
X25800Y-10800D01*
X26500Y-10500D02*
X27500Y-10500D01*
X26500Y-10500D02*
X26500Y-10500D01*
G54D18*
X37500Y-10500D02*
X37500Y-10480D01*
X42220Y-10810D02*
X42220Y-11640D01*
X41410Y-10000D02*
X42220Y-10810D01*
X37980Y-10000D02*
X41410Y-10000D01*
X37500Y-10480D02*
X37980Y-10000D01*
X44000Y-10700D02*
X43100Y-10100D01*
X36250Y-9750D02*
X35500Y-10500D01*
X42750Y-9750D02*
X36250Y-9750D01*
X43100Y-10100D02*
X42750Y-9750D01*
G54D16*
X42900Y-18500D02*
X44100Y-18500D01*
X37900Y-18500D02*
X39100Y-18500D01*
X40400Y-18500D02*
X41600Y-18500D01*
X32850Y-18500D02*
X34100Y-18500D01*
X30350Y-18500D02*
X31600Y-18500D01*
X44000Y-18400D02*
X44000Y-11600D01*
X44100Y-18500D02*
X44000Y-18400D01*
G54D18*
X37800Y-28000D02*
X42050Y-28000D01*
G54D16*
X37800Y-28000D02*
X40700Y-28000D01*
X42100Y-28000D02*
X40700Y-28000D01*
G54D18*
X30500Y-11500D02*
X30000Y-11000D01*
X29000Y-11000D02*
X28500Y-10500D01*
X30000Y-11000D02*
X29000Y-11000D01*
G54D16*
X42100Y-28000D02*
X43400Y-28000D01*
X42400Y-22200D02*
X42400Y-25200D01*
X42400Y-25200D02*
X42100Y-25500D01*
X40800Y-23100D02*
X40800Y-25400D01*
X40800Y-25400D02*
X40700Y-25500D01*
X43800Y-23500D02*
X43800Y-25000D01*
X43800Y-25000D02*
X43400Y-25400D01*
X38100Y-22500D02*
X35600Y-22500D01*
X33000Y-23100D02*
X30100Y-23100D01*
X35600Y-22500D02*
X34700Y-23400D01*
X26079Y-26000D02*
X26079Y-25721D01*
X26079Y-25721D02*
X27300Y-24500D01*
X40800Y-23100D02*
X38700Y-23100D01*
X39300Y-20400D02*
X36800Y-20400D01*
X38700Y-23100D02*
X38100Y-22500D01*
X43400Y-23900D02*
X42300Y-23900D01*
X43800Y-23500D02*
X43400Y-23900D01*
X41700Y-22200D02*
X42400Y-22200D01*
X40800Y-23100D02*
X41700Y-22200D01*
X42050Y-26700D02*
X43400Y-26700D01*
X42050Y-26700D02*
X40700Y-26700D01*
X26650Y-18500D02*
X26650Y-19950D01*
G54D17*
X34000Y-26900D02*
X34000Y-28300D01*
X32900Y-25800D02*
X34000Y-26900D01*
X30200Y-27500D02*
X30200Y-25400D01*
X29800Y-27900D02*
X30200Y-27500D01*
G54D18*
X32500Y-10500D02*
X32490Y-10500D01*
X31000Y-11000D02*
X30500Y-11500D01*
X31990Y-11000D02*
X31000Y-11000D01*
X32490Y-10500D02*
X31990Y-11000D01*
G54D17*
X26079Y-26000D02*
X26079Y-22829D01*
X26079Y-22829D02*
X26000Y-22750D01*
X26079Y-26000D02*
X26079Y-26669D01*
X26079Y-26669D02*
X27260Y-27850D01*
G54D18*
X36500Y-11500D02*
X36500Y-11510D01*
X39330Y-11630D02*
X39750Y-11630D01*
X38960Y-12000D02*
X39330Y-11630D01*
X36990Y-12000D02*
X38960Y-12000D01*
X36500Y-11510D02*
X36990Y-12000D01*
X28500Y-11500D02*
X28500Y-12020D01*
X29260Y-12780D02*
X29260Y-19950D01*
X28500Y-12020D02*
X29260Y-12780D01*
X37500Y-11500D02*
X38010Y-10990D01*
X40360Y-10990D02*
X41000Y-11630D01*
X38010Y-10990D02*
X40360Y-10990D01*
X27500Y-11500D02*
X29040Y-13040D01*
X28650Y-18230D02*
X28650Y-22850D01*
X29040Y-17840D02*
X28650Y-18230D01*
X29040Y-13040D02*
X29040Y-17840D01*
G54D10*
G36*
X28401Y-17605D02*
X27753Y-18253D01*
X27678Y-18366D01*
X27673Y-18388D01*
X27651Y-18500D01*
X27651Y-18500D01*
X27651Y-20497D01*
X27639Y-20508D01*
X27575Y-20665D01*
X27575Y-20682D01*
X26855Y-21401D01*
X26429Y-21401D01*
X26311Y-21284D01*
X26230Y-21250D01*
X26311Y-21216D01*
X26465Y-21061D01*
X26549Y-20859D01*
X26550Y-20641D01*
X26466Y-20438D01*
X26311Y-20284D01*
X26246Y-20256D01*
X26246Y-12736D01*
X26253Y-12746D01*
X26824Y-13317D01*
X26824Y-13334D01*
X26889Y-13490D01*
X26901Y-13502D01*
X26901Y-14565D01*
X26682Y-14784D01*
X26665Y-14784D01*
X26509Y-14849D01*
X26389Y-14968D01*
X26325Y-15125D01*
X26324Y-15294D01*
X26389Y-15450D01*
X26508Y-15570D01*
X26665Y-15634D01*
X26834Y-15635D01*
X26990Y-15570D01*
X27110Y-15451D01*
X27174Y-15294D01*
X27174Y-15277D01*
X27496Y-14956D01*
X27496Y-14956D01*
X27496Y-14956D01*
X27571Y-14843D01*
X27598Y-14710D01*
X27598Y-14710D01*
X27598Y-14709D01*
X27598Y-14091D01*
X28401Y-14894D01*
X28401Y-16373D01*
X28311Y-16284D01*
X28109Y-16200D01*
X27891Y-16199D01*
X27688Y-16283D01*
X27550Y-16422D01*
X27550Y-16400D01*
X27512Y-16308D01*
X27441Y-16238D01*
X27349Y-16200D01*
X27250Y-16199D01*
X26650Y-16199D01*
X26558Y-16237D01*
X26488Y-16308D01*
X26450Y-16400D01*
X26449Y-16499D01*
X26449Y-17099D01*
X26487Y-17191D01*
X26558Y-17261D01*
X26650Y-17299D01*
X26749Y-17300D01*
X27349Y-17300D01*
X27441Y-17262D01*
X27511Y-17191D01*
X27549Y-17099D01*
X27549Y-17077D01*
X27688Y-17215D01*
X27890Y-17299D01*
X28108Y-17300D01*
X28311Y-17216D01*
X28401Y-17126D01*
X28401Y-17605D01*
X28401Y-17605D01*
G37*
G54D19*
X28401Y-17605D02*
X27753Y-18253D01*
X27678Y-18366D01*
X27673Y-18388D01*
X27651Y-18500D01*
X27651Y-18500D01*
X27651Y-20497D01*
X27639Y-20508D01*
X27575Y-20665D01*
X27575Y-20682D01*
X26855Y-21401D01*
X26429Y-21401D01*
X26311Y-21284D01*
X26230Y-21250D01*
X26311Y-21216D01*
X26465Y-21061D01*
X26549Y-20859D01*
X26550Y-20641D01*
X26466Y-20438D01*
X26311Y-20284D01*
X26246Y-20256D01*
X26246Y-12736D01*
X26253Y-12746D01*
X26824Y-13317D01*
X26824Y-13334D01*
X26889Y-13490D01*
X26901Y-13502D01*
X26901Y-14565D01*
X26682Y-14784D01*
X26665Y-14784D01*
X26509Y-14849D01*
X26389Y-14968D01*
X26325Y-15125D01*
X26324Y-15294D01*
X26389Y-15450D01*
X26508Y-15570D01*
X26665Y-15634D01*
X26834Y-15635D01*
X26990Y-15570D01*
X27110Y-15451D01*
X27174Y-15294D01*
X27174Y-15277D01*
X27496Y-14956D01*
X27496Y-14956D01*
X27496Y-14956D01*
X27571Y-14843D01*
X27598Y-14710D01*
X27598Y-14710D01*
X27598Y-14709D01*
X27598Y-14091D01*
X28401Y-14894D01*
X28401Y-16373D01*
X28311Y-16284D01*
X28109Y-16200D01*
X27891Y-16199D01*
X27688Y-16283D01*
X27550Y-16422D01*
X27550Y-16400D01*
X27512Y-16308D01*
X27441Y-16238D01*
X27349Y-16200D01*
X27250Y-16199D01*
X26650Y-16199D01*
X26558Y-16237D01*
X26488Y-16308D01*
X26450Y-16400D01*
X26449Y-16499D01*
X26449Y-17099D01*
X26487Y-17191D01*
X26558Y-17261D01*
X26650Y-17299D01*
X26749Y-17300D01*
X27349Y-17300D01*
X27441Y-17262D01*
X27511Y-17191D01*
X27549Y-17099D01*
X27549Y-17077D01*
X27688Y-17215D01*
X27890Y-17299D01*
X28108Y-17300D01*
X28311Y-17216D01*
X28401Y-17126D01*
X28401Y-17605D01*
G54D10*
G36*
X34401Y-12901D02*
X33752Y-12901D01*
X33741Y-12889D01*
X33584Y-12825D01*
X33415Y-12824D01*
X33259Y-12889D01*
X33247Y-12901D01*
X32502Y-12901D01*
X32491Y-12889D01*
X32334Y-12825D01*
X32165Y-12824D01*
X32009Y-12889D01*
X31997Y-12901D01*
X31252Y-12901D01*
X31241Y-12889D01*
X31084Y-12825D01*
X30915Y-12824D01*
X30815Y-12866D01*
X30815Y-11885D01*
X30500Y-11570D01*
X30184Y-11885D01*
X30212Y-11981D01*
X30418Y-12054D01*
X30636Y-12043D01*
X30787Y-11981D01*
X30815Y-11885D01*
X30815Y-12866D01*
X30759Y-12889D01*
X30747Y-12901D01*
X29898Y-12901D01*
X29834Y-12875D01*
X29665Y-12874D01*
X29559Y-12918D01*
X29559Y-12780D01*
X29559Y-12779D01*
X29536Y-12665D01*
X29536Y-12665D01*
X29514Y-12633D01*
X29471Y-12568D01*
X29471Y-12568D01*
X28840Y-11937D01*
X28965Y-11811D01*
X28999Y-11730D01*
X29033Y-11811D01*
X29188Y-11965D01*
X29390Y-12049D01*
X29608Y-12050D01*
X29811Y-11966D01*
X29965Y-11811D01*
X29997Y-11736D01*
X30018Y-11787D01*
X30114Y-11815D01*
X30429Y-11500D01*
X30114Y-11184D01*
X30018Y-11212D01*
X29999Y-11267D01*
X29966Y-11188D01*
X29811Y-11034D01*
X29730Y-11000D01*
X29811Y-10966D01*
X29965Y-10811D01*
X29999Y-10730D01*
X30033Y-10811D01*
X30188Y-10965D01*
X30263Y-10997D01*
X30212Y-11018D01*
X30184Y-11114D01*
X30500Y-11429D01*
X30815Y-11114D01*
X30787Y-11018D01*
X30732Y-10999D01*
X30811Y-10966D01*
X30965Y-10811D01*
X30999Y-10730D01*
X31033Y-10811D01*
X31188Y-10965D01*
X31269Y-10999D01*
X31188Y-11033D01*
X31034Y-11188D01*
X31002Y-11263D01*
X30981Y-11212D01*
X30885Y-11184D01*
X30570Y-11500D01*
X30885Y-11815D01*
X30981Y-11787D01*
X31000Y-11732D01*
X31033Y-11811D01*
X31188Y-11965D01*
X31390Y-12049D01*
X31608Y-12050D01*
X31811Y-11966D01*
X31965Y-11811D01*
X31999Y-11730D01*
X32033Y-11811D01*
X32188Y-11965D01*
X32390Y-12049D01*
X32608Y-12050D01*
X32811Y-11966D01*
X32965Y-11811D01*
X32999Y-11730D01*
X33033Y-11811D01*
X33188Y-11965D01*
X33390Y-12049D01*
X33608Y-12050D01*
X33811Y-11966D01*
X33965Y-11811D01*
X33999Y-11730D01*
X34033Y-11811D01*
X34171Y-11949D01*
X34173Y-11961D01*
X34178Y-11983D01*
X34253Y-12096D01*
X34401Y-12244D01*
X34401Y-12901D01*
X34401Y-12901D01*
G37*
G54D19*
X34401Y-12901D02*
X33752Y-12901D01*
X33741Y-12889D01*
X33584Y-12825D01*
X33415Y-12824D01*
X33259Y-12889D01*
X33247Y-12901D01*
X32502Y-12901D01*
X32491Y-12889D01*
X32334Y-12825D01*
X32165Y-12824D01*
X32009Y-12889D01*
X31997Y-12901D01*
X31252Y-12901D01*
X31241Y-12889D01*
X31084Y-12825D01*
X30915Y-12824D01*
X30815Y-12866D01*
X30815Y-11885D01*
X30500Y-11570D01*
X30184Y-11885D01*
X30212Y-11981D01*
X30418Y-12054D01*
X30636Y-12043D01*
X30787Y-11981D01*
X30815Y-11885D01*
X30815Y-12866D01*
X30759Y-12889D01*
X30747Y-12901D01*
X29898Y-12901D01*
X29834Y-12875D01*
X29665Y-12874D01*
X29559Y-12918D01*
X29559Y-12780D01*
X29559Y-12779D01*
X29536Y-12665D01*
X29536Y-12665D01*
X29514Y-12633D01*
X29471Y-12568D01*
X29471Y-12568D01*
X28840Y-11937D01*
X28965Y-11811D01*
X28999Y-11730D01*
X29033Y-11811D01*
X29188Y-11965D01*
X29390Y-12049D01*
X29608Y-12050D01*
X29811Y-11966D01*
X29965Y-11811D01*
X29997Y-11736D01*
X30018Y-11787D01*
X30114Y-11815D01*
X30429Y-11500D01*
X30114Y-11184D01*
X30018Y-11212D01*
X29999Y-11267D01*
X29966Y-11188D01*
X29811Y-11034D01*
X29730Y-11000D01*
X29811Y-10966D01*
X29965Y-10811D01*
X29999Y-10730D01*
X30033Y-10811D01*
X30188Y-10965D01*
X30263Y-10997D01*
X30212Y-11018D01*
X30184Y-11114D01*
X30500Y-11429D01*
X30815Y-11114D01*
X30787Y-11018D01*
X30732Y-10999D01*
X30811Y-10966D01*
X30965Y-10811D01*
X30999Y-10730D01*
X31033Y-10811D01*
X31188Y-10965D01*
X31269Y-10999D01*
X31188Y-11033D01*
X31034Y-11188D01*
X31002Y-11263D01*
X30981Y-11212D01*
X30885Y-11184D01*
X30570Y-11500D01*
X30885Y-11815D01*
X30981Y-11787D01*
X31000Y-11732D01*
X31033Y-11811D01*
X31188Y-11965D01*
X31390Y-12049D01*
X31608Y-12050D01*
X31811Y-11966D01*
X31965Y-11811D01*
X31999Y-11730D01*
X32033Y-11811D01*
X32188Y-11965D01*
X32390Y-12049D01*
X32608Y-12050D01*
X32811Y-11966D01*
X32965Y-11811D01*
X32999Y-11730D01*
X33033Y-11811D01*
X33188Y-11965D01*
X33390Y-12049D01*
X33608Y-12050D01*
X33811Y-11966D01*
X33965Y-11811D01*
X33999Y-11730D01*
X34033Y-11811D01*
X34171Y-11949D01*
X34173Y-11961D01*
X34178Y-11983D01*
X34253Y-12096D01*
X34401Y-12244D01*
X34401Y-12901D01*
G54D10*
G36*
X37601Y-17275D02*
X35335Y-19541D01*
X30720Y-19541D01*
X30586Y-19568D01*
X30473Y-19643D01*
X30473Y-19643D01*
X29003Y-21113D01*
X28949Y-21195D01*
X28949Y-20240D01*
X29018Y-20310D01*
X29175Y-20374D01*
X29344Y-20375D01*
X29500Y-20310D01*
X29620Y-20191D01*
X29684Y-20034D01*
X29685Y-19865D01*
X29620Y-19709D01*
X29559Y-19648D01*
X29559Y-17262D01*
X29650Y-17299D01*
X29749Y-17300D01*
X30349Y-17300D01*
X30441Y-17262D01*
X30511Y-17191D01*
X30549Y-17099D01*
X30549Y-17077D01*
X30688Y-17215D01*
X30890Y-17299D01*
X31108Y-17300D01*
X31311Y-17216D01*
X31465Y-17061D01*
X31499Y-16980D01*
X31533Y-17061D01*
X31688Y-17215D01*
X31890Y-17299D01*
X32108Y-17300D01*
X32311Y-17216D01*
X32465Y-17061D01*
X32499Y-16980D01*
X32533Y-17061D01*
X32688Y-17215D01*
X32890Y-17299D01*
X33108Y-17300D01*
X33311Y-17216D01*
X33449Y-17077D01*
X33449Y-17099D01*
X33487Y-17191D01*
X33558Y-17261D01*
X33650Y-17299D01*
X33749Y-17300D01*
X34349Y-17300D01*
X34441Y-17262D01*
X34511Y-17191D01*
X34549Y-17099D01*
X34549Y-17077D01*
X34688Y-17215D01*
X34890Y-17299D01*
X35108Y-17300D01*
X35311Y-17216D01*
X35465Y-17061D01*
X35499Y-16980D01*
X35533Y-17061D01*
X35688Y-17215D01*
X35890Y-17299D01*
X36108Y-17300D01*
X36311Y-17216D01*
X36465Y-17061D01*
X36499Y-16980D01*
X36533Y-17061D01*
X36688Y-17215D01*
X36890Y-17299D01*
X37108Y-17300D01*
X37311Y-17216D01*
X37465Y-17061D01*
X37549Y-16859D01*
X37550Y-16641D01*
X37466Y-16438D01*
X37311Y-16284D01*
X37109Y-16200D01*
X36891Y-16199D01*
X36688Y-16283D01*
X36534Y-16438D01*
X36500Y-16519D01*
X36466Y-16438D01*
X36311Y-16284D01*
X36109Y-16200D01*
X35891Y-16199D01*
X35688Y-16283D01*
X35534Y-16438D01*
X35500Y-16519D01*
X35466Y-16438D01*
X35311Y-16284D01*
X35109Y-16200D01*
X34891Y-16199D01*
X34688Y-16283D01*
X34550Y-16422D01*
X34550Y-16400D01*
X34512Y-16308D01*
X34441Y-16238D01*
X34349Y-16200D01*
X34250Y-16199D01*
X33650Y-16199D01*
X33558Y-16237D01*
X33488Y-16308D01*
X33450Y-16400D01*
X33450Y-16422D01*
X33311Y-16284D01*
X33109Y-16200D01*
X32891Y-16199D01*
X32688Y-16283D01*
X32534Y-16438D01*
X32500Y-16519D01*
X32466Y-16438D01*
X32311Y-16284D01*
X32109Y-16200D01*
X31891Y-16199D01*
X31688Y-16283D01*
X31534Y-16438D01*
X31500Y-16519D01*
X31466Y-16438D01*
X31311Y-16284D01*
X31109Y-16200D01*
X30891Y-16199D01*
X30688Y-16283D01*
X30550Y-16422D01*
X30550Y-16400D01*
X30512Y-16308D01*
X30441Y-16238D01*
X30349Y-16200D01*
X30250Y-16199D01*
X29650Y-16199D01*
X29559Y-16237D01*
X29559Y-13680D01*
X29665Y-13724D01*
X29834Y-13725D01*
X29990Y-13660D01*
X30052Y-13598D01*
X30747Y-13598D01*
X30758Y-13610D01*
X30915Y-13674D01*
X31084Y-13675D01*
X31240Y-13610D01*
X31252Y-13598D01*
X31997Y-13598D01*
X32008Y-13610D01*
X32165Y-13674D01*
X32334Y-13675D01*
X32490Y-13610D01*
X32502Y-13598D01*
X33247Y-13598D01*
X33258Y-13610D01*
X33415Y-13674D01*
X33584Y-13675D01*
X33740Y-13610D01*
X33752Y-13598D01*
X34497Y-13598D01*
X34508Y-13610D01*
X34665Y-13674D01*
X34834Y-13675D01*
X34990Y-13610D01*
X35002Y-13598D01*
X35747Y-13598D01*
X35758Y-13610D01*
X35915Y-13674D01*
X36084Y-13675D01*
X36240Y-13610D01*
X36252Y-13598D01*
X36997Y-13598D01*
X37008Y-13610D01*
X37165Y-13674D01*
X37182Y-13674D01*
X37601Y-14094D01*
X37601Y-17275D01*
X37601Y-17275D01*
G37*
G54D19*
X37601Y-17275D02*
X35335Y-19541D01*
X30720Y-19541D01*
X30586Y-19568D01*
X30473Y-19643D01*
X30473Y-19643D01*
X29003Y-21113D01*
X28949Y-21195D01*
X28949Y-20240D01*
X29018Y-20310D01*
X29175Y-20374D01*
X29344Y-20375D01*
X29500Y-20310D01*
X29620Y-20191D01*
X29684Y-20034D01*
X29685Y-19865D01*
X29620Y-19709D01*
X29559Y-19648D01*
X29559Y-17262D01*
X29650Y-17299D01*
X29749Y-17300D01*
X30349Y-17300D01*
X30441Y-17262D01*
X30511Y-17191D01*
X30549Y-17099D01*
X30549Y-17077D01*
X30688Y-17215D01*
X30890Y-17299D01*
X31108Y-17300D01*
X31311Y-17216D01*
X31465Y-17061D01*
X31499Y-16980D01*
X31533Y-17061D01*
X31688Y-17215D01*
X31890Y-17299D01*
X32108Y-17300D01*
X32311Y-17216D01*
X32465Y-17061D01*
X32499Y-16980D01*
X32533Y-17061D01*
X32688Y-17215D01*
X32890Y-17299D01*
X33108Y-17300D01*
X33311Y-17216D01*
X33449Y-17077D01*
X33449Y-17099D01*
X33487Y-17191D01*
X33558Y-17261D01*
X33650Y-17299D01*
X33749Y-17300D01*
X34349Y-17300D01*
X34441Y-17262D01*
X34511Y-17191D01*
X34549Y-17099D01*
X34549Y-17077D01*
X34688Y-17215D01*
X34890Y-17299D01*
X35108Y-17300D01*
X35311Y-17216D01*
X35465Y-17061D01*
X35499Y-16980D01*
X35533Y-17061D01*
X35688Y-17215D01*
X35890Y-17299D01*
X36108Y-17300D01*
X36311Y-17216D01*
X36465Y-17061D01*
X36499Y-16980D01*
X36533Y-17061D01*
X36688Y-17215D01*
X36890Y-17299D01*
X37108Y-17300D01*
X37311Y-17216D01*
X37465Y-17061D01*
X37549Y-16859D01*
X37550Y-16641D01*
X37466Y-16438D01*
X37311Y-16284D01*
X37109Y-16200D01*
X36891Y-16199D01*
X36688Y-16283D01*
X36534Y-16438D01*
X36500Y-16519D01*
X36466Y-16438D01*
X36311Y-16284D01*
X36109Y-16200D01*
X35891Y-16199D01*
X35688Y-16283D01*
X35534Y-16438D01*
X35500Y-16519D01*
X35466Y-16438D01*
X35311Y-16284D01*
X35109Y-16200D01*
X34891Y-16199D01*
X34688Y-16283D01*
X34550Y-16422D01*
X34550Y-16400D01*
X34512Y-16308D01*
X34441Y-16238D01*
X34349Y-16200D01*
X34250Y-16199D01*
X33650Y-16199D01*
X33558Y-16237D01*
X33488Y-16308D01*
X33450Y-16400D01*
X33450Y-16422D01*
X33311Y-16284D01*
X33109Y-16200D01*
X32891Y-16199D01*
X32688Y-16283D01*
X32534Y-16438D01*
X32500Y-16519D01*
X32466Y-16438D01*
X32311Y-16284D01*
X32109Y-16200D01*
X31891Y-16199D01*
X31688Y-16283D01*
X31534Y-16438D01*
X31500Y-16519D01*
X31466Y-16438D01*
X31311Y-16284D01*
X31109Y-16200D01*
X30891Y-16199D01*
X30688Y-16283D01*
X30550Y-16422D01*
X30550Y-16400D01*
X30512Y-16308D01*
X30441Y-16238D01*
X30349Y-16200D01*
X30250Y-16199D01*
X29650Y-16199D01*
X29559Y-16237D01*
X29559Y-13680D01*
X29665Y-13724D01*
X29834Y-13725D01*
X29990Y-13660D01*
X30052Y-13598D01*
X30747Y-13598D01*
X30758Y-13610D01*
X30915Y-13674D01*
X31084Y-13675D01*
X31240Y-13610D01*
X31252Y-13598D01*
X31997Y-13598D01*
X32008Y-13610D01*
X32165Y-13674D01*
X32334Y-13675D01*
X32490Y-13610D01*
X32502Y-13598D01*
X33247Y-13598D01*
X33258Y-13610D01*
X33415Y-13674D01*
X33584Y-13675D01*
X33740Y-13610D01*
X33752Y-13598D01*
X34497Y-13598D01*
X34508Y-13610D01*
X34665Y-13674D01*
X34834Y-13675D01*
X34990Y-13610D01*
X35002Y-13598D01*
X35747Y-13598D01*
X35758Y-13610D01*
X35915Y-13674D01*
X36084Y-13675D01*
X36240Y-13610D01*
X36252Y-13598D01*
X36997Y-13598D01*
X37008Y-13610D01*
X37165Y-13674D01*
X37182Y-13674D01*
X37601Y-14094D01*
X37601Y-17275D01*
G54D10*
G36*
X38576Y-11505D02*
X38505Y-11576D01*
X38500Y-11570D01*
X38494Y-11576D01*
X38423Y-11505D01*
X38429Y-11500D01*
X38423Y-11494D01*
X38494Y-11423D01*
X38500Y-11429D01*
X38505Y-11423D01*
X38576Y-11494D01*
X38570Y-11500D01*
X38576Y-11505D01*
X38576Y-11505D01*
G37*
G54D19*
X38576Y-11505D02*
X38505Y-11576D01*
X38500Y-11570D01*
X38494Y-11576D01*
X38423Y-11505D01*
X38429Y-11500D01*
X38423Y-11494D01*
X38494Y-11423D01*
X38500Y-11429D01*
X38505Y-11423D01*
X38576Y-11494D01*
X38570Y-11500D01*
X38576Y-11505D01*
G54D10*
G36*
X44250Y-28895D02*
X43550Y-28895D01*
X43550Y-16641D01*
X43466Y-16438D01*
X43311Y-16284D01*
X43109Y-16200D01*
X42891Y-16199D01*
X42688Y-16283D01*
X42534Y-16438D01*
X42500Y-16519D01*
X42466Y-16438D01*
X42311Y-16284D01*
X42109Y-16200D01*
X41891Y-16199D01*
X41688Y-16283D01*
X41534Y-16438D01*
X41500Y-16519D01*
X41466Y-16438D01*
X41311Y-16284D01*
X41109Y-16200D01*
X40891Y-16199D01*
X40688Y-16283D01*
X40534Y-16438D01*
X40500Y-16519D01*
X40466Y-16438D01*
X40311Y-16284D01*
X40109Y-16200D01*
X39891Y-16199D01*
X39688Y-16283D01*
X39550Y-16422D01*
X39550Y-16400D01*
X39512Y-16308D01*
X39441Y-16238D01*
X39349Y-16200D01*
X39250Y-16199D01*
X38650Y-16199D01*
X38558Y-16237D01*
X38488Y-16308D01*
X38450Y-16400D01*
X38449Y-16499D01*
X38449Y-17099D01*
X38487Y-17191D01*
X38558Y-17261D01*
X38650Y-17299D01*
X38749Y-17300D01*
X39349Y-17300D01*
X39441Y-17262D01*
X39511Y-17191D01*
X39549Y-17099D01*
X39549Y-17077D01*
X39688Y-17215D01*
X39890Y-17299D01*
X40108Y-17300D01*
X40311Y-17216D01*
X40465Y-17061D01*
X40499Y-16980D01*
X40533Y-17061D01*
X40688Y-17215D01*
X40890Y-17299D01*
X41108Y-17300D01*
X41311Y-17216D01*
X41465Y-17061D01*
X41499Y-16980D01*
X41533Y-17061D01*
X41688Y-17215D01*
X41890Y-17299D01*
X42108Y-17300D01*
X42311Y-17216D01*
X42465Y-17061D01*
X42499Y-16980D01*
X42533Y-17061D01*
X42688Y-17215D01*
X42890Y-17299D01*
X43108Y-17300D01*
X43311Y-17216D01*
X43465Y-17061D01*
X43549Y-16859D01*
X43550Y-16641D01*
X43550Y-28895D01*
X37050Y-28895D01*
X37050Y-24292D01*
X36890Y-23906D01*
X36595Y-23610D01*
X36209Y-23450D01*
X35792Y-23449D01*
X35406Y-23609D01*
X35110Y-23904D01*
X34950Y-24290D01*
X34949Y-24707D01*
X35109Y-25094D01*
X35404Y-25389D01*
X35790Y-25549D01*
X36207Y-25550D01*
X36594Y-25390D01*
X36889Y-25095D01*
X37049Y-24709D01*
X37050Y-24292D01*
X37050Y-28895D01*
X29380Y-28895D01*
X29380Y-26639D01*
X29380Y-25261D01*
X29342Y-25169D01*
X29271Y-25099D01*
X29179Y-25061D01*
X29080Y-25060D01*
X27702Y-25060D01*
X27610Y-25098D01*
X27540Y-25169D01*
X27502Y-25261D01*
X27501Y-25360D01*
X27501Y-26738D01*
X27539Y-26830D01*
X27610Y-26900D01*
X27634Y-26910D01*
X27372Y-26911D01*
X27310Y-26973D01*
X27310Y-27800D01*
X28136Y-27800D01*
X28199Y-27737D01*
X28199Y-27210D01*
X28198Y-27111D01*
X28160Y-27019D01*
X28090Y-26948D01*
X28066Y-26939D01*
X29179Y-26939D01*
X29271Y-26901D01*
X29341Y-26830D01*
X29379Y-26738D01*
X29380Y-26639D01*
X29380Y-28895D01*
X28199Y-28895D01*
X28199Y-28489D01*
X28199Y-27962D01*
X28136Y-27900D01*
X27310Y-27900D01*
X27310Y-28726D01*
X27372Y-28789D01*
X27998Y-28789D01*
X28090Y-28751D01*
X28160Y-28680D01*
X28198Y-28588D01*
X28199Y-28489D01*
X28199Y-28895D01*
X27210Y-28895D01*
X27210Y-28726D01*
X27210Y-27900D01*
X27210Y-27800D01*
X27210Y-26973D01*
X27147Y-26911D01*
X26885Y-26910D01*
X26909Y-26901D01*
X26979Y-26830D01*
X27017Y-26738D01*
X27018Y-26639D01*
X27018Y-25360D01*
X27017Y-25261D01*
X26979Y-25169D01*
X26909Y-25098D01*
X26817Y-25060D01*
X26550Y-25060D01*
X26550Y-23099D01*
X26550Y-22862D01*
X26487Y-22800D01*
X26050Y-22800D01*
X26050Y-23237D01*
X26112Y-23300D01*
X26250Y-23300D01*
X26349Y-23299D01*
X26441Y-23261D01*
X26512Y-23191D01*
X26550Y-23099D01*
X26550Y-25060D01*
X26191Y-25061D01*
X26129Y-25123D01*
X26129Y-25950D01*
X26955Y-25950D01*
X27018Y-25887D01*
X27018Y-25360D01*
X27018Y-26639D01*
X27018Y-26112D01*
X26955Y-26050D01*
X26129Y-26050D01*
X26129Y-26876D01*
X26191Y-26939D01*
X26453Y-26939D01*
X26429Y-26948D01*
X26359Y-27019D01*
X26321Y-27111D01*
X26320Y-27210D01*
X26321Y-27737D01*
X26383Y-27800D01*
X27210Y-27800D01*
X27210Y-27900D01*
X26383Y-27900D01*
X26321Y-27962D01*
X26320Y-28489D01*
X26321Y-28588D01*
X26359Y-28680D01*
X26429Y-28751D01*
X26521Y-28789D01*
X27147Y-28789D01*
X27210Y-28726D01*
X27210Y-28895D01*
X26029Y-28895D01*
X26029Y-26876D01*
X26029Y-26050D01*
X26029Y-25950D01*
X26029Y-25123D01*
X25966Y-25061D01*
X25950Y-25060D01*
X25950Y-23237D01*
X25950Y-22800D01*
X25512Y-22800D01*
X25450Y-22862D01*
X25449Y-23099D01*
X25487Y-23191D01*
X25558Y-23261D01*
X25650Y-23299D01*
X25749Y-23300D01*
X25887Y-23300D01*
X25950Y-23237D01*
X25950Y-25060D01*
X25340Y-25060D01*
X25248Y-25098D01*
X25178Y-25169D01*
X25140Y-25261D01*
X25139Y-25360D01*
X25140Y-25887D01*
X25202Y-25950D01*
X26029Y-25950D01*
X26029Y-26050D01*
X25202Y-26050D01*
X25140Y-26112D01*
X25139Y-26639D01*
X25140Y-26738D01*
X25178Y-26830D01*
X25248Y-26901D01*
X25340Y-26939D01*
X25966Y-26939D01*
X26029Y-26876D01*
X26029Y-28895D01*
X25104Y-28895D01*
X25104Y-9750D01*
X37825Y-9750D01*
X37768Y-9788D01*
X37606Y-9950D01*
X37391Y-9949D01*
X37188Y-10033D01*
X37034Y-10188D01*
X37000Y-10269D01*
X36966Y-10188D01*
X36811Y-10034D01*
X36609Y-9950D01*
X36391Y-9949D01*
X36188Y-10033D01*
X36034Y-10188D01*
X36002Y-10263D01*
X35981Y-10212D01*
X35885Y-10184D01*
X35815Y-10255D01*
X35815Y-10114D01*
X35787Y-10018D01*
X35581Y-9945D01*
X35363Y-9956D01*
X35212Y-10018D01*
X35184Y-10114D01*
X35500Y-10429D01*
X35815Y-10114D01*
X35815Y-10255D01*
X35570Y-10500D01*
X35885Y-10815D01*
X35981Y-10787D01*
X36000Y-10732D01*
X36033Y-10811D01*
X36188Y-10965D01*
X36269Y-10999D01*
X36188Y-11033D01*
X36034Y-11188D01*
X36000Y-11269D01*
X35966Y-11188D01*
X35811Y-11034D01*
X35736Y-11002D01*
X35787Y-10981D01*
X35815Y-10885D01*
X35500Y-10570D01*
X35184Y-10885D01*
X35212Y-10981D01*
X35267Y-11000D01*
X35188Y-11033D01*
X35034Y-11188D01*
X35000Y-11269D01*
X34966Y-11188D01*
X34811Y-11034D01*
X34730Y-11000D01*
X34811Y-10966D01*
X34965Y-10811D01*
X34997Y-10736D01*
X35018Y-10787D01*
X35114Y-10815D01*
X35429Y-10500D01*
X35114Y-10184D01*
X35018Y-10212D01*
X34999Y-10267D01*
X34966Y-10188D01*
X34811Y-10034D01*
X34609Y-9950D01*
X34391Y-9949D01*
X34188Y-10033D01*
X34034Y-10188D01*
X34000Y-10269D01*
X33966Y-10188D01*
X33811Y-10034D01*
X33609Y-9950D01*
X33391Y-9949D01*
X33188Y-10033D01*
X33034Y-10188D01*
X33002Y-10263D01*
X32981Y-10212D01*
X32885Y-10184D01*
X32815Y-10255D01*
X32815Y-10114D01*
X32787Y-10018D01*
X32581Y-9945D01*
X32363Y-9956D01*
X32212Y-10018D01*
X32184Y-10114D01*
X32500Y-10429D01*
X32815Y-10114D01*
X32815Y-10255D01*
X32570Y-10500D01*
X32885Y-10815D01*
X32981Y-10787D01*
X33000Y-10732D01*
X33033Y-10811D01*
X33188Y-10965D01*
X33269Y-10999D01*
X33188Y-11033D01*
X33034Y-11188D01*
X33000Y-11269D01*
X32966Y-11188D01*
X32811Y-11034D01*
X32736Y-11002D01*
X32787Y-10981D01*
X32815Y-10885D01*
X32500Y-10570D01*
X32184Y-10885D01*
X32212Y-10981D01*
X32267Y-11000D01*
X32188Y-11033D01*
X32034Y-11188D01*
X32000Y-11269D01*
X31966Y-11188D01*
X31811Y-11034D01*
X31730Y-11000D01*
X31811Y-10966D01*
X31965Y-10811D01*
X31997Y-10736D01*
X32018Y-10787D01*
X32114Y-10815D01*
X32429Y-10500D01*
X32114Y-10184D01*
X32018Y-10212D01*
X31999Y-10267D01*
X31966Y-10188D01*
X31811Y-10034D01*
X31609Y-9950D01*
X31391Y-9949D01*
X31188Y-10033D01*
X31034Y-10188D01*
X31000Y-10269D01*
X30966Y-10188D01*
X30811Y-10034D01*
X30609Y-9950D01*
X30391Y-9949D01*
X30188Y-10033D01*
X30034Y-10188D01*
X30000Y-10269D01*
X29966Y-10188D01*
X29811Y-10034D01*
X29609Y-9950D01*
X29391Y-9949D01*
X29188Y-10033D01*
X29034Y-10188D01*
X29002Y-10263D01*
X28981Y-10212D01*
X28885Y-10184D01*
X28815Y-10255D01*
X28815Y-10114D01*
X28787Y-10018D01*
X28581Y-9945D01*
X28363Y-9956D01*
X28212Y-10018D01*
X28184Y-10114D01*
X28500Y-10429D01*
X28815Y-10114D01*
X28815Y-10255D01*
X28570Y-10500D01*
X28885Y-10815D01*
X28981Y-10787D01*
X29000Y-10732D01*
X29033Y-10811D01*
X29188Y-10965D01*
X29269Y-10999D01*
X29188Y-11033D01*
X29034Y-11188D01*
X29000Y-11269D01*
X28966Y-11188D01*
X28811Y-11034D01*
X28736Y-11002D01*
X28787Y-10981D01*
X28815Y-10885D01*
X28500Y-10570D01*
X28184Y-10885D01*
X28212Y-10981D01*
X28267Y-11000D01*
X28188Y-11033D01*
X28034Y-11188D01*
X28000Y-11269D01*
X27966Y-11188D01*
X27811Y-11034D01*
X27730Y-11000D01*
X27811Y-10966D01*
X27965Y-10811D01*
X27997Y-10736D01*
X28018Y-10787D01*
X28114Y-10815D01*
X28429Y-10500D01*
X28114Y-10184D01*
X28018Y-10212D01*
X27999Y-10267D01*
X27966Y-10188D01*
X27811Y-10034D01*
X27609Y-9950D01*
X27391Y-9949D01*
X27188Y-10033D01*
X27169Y-10053D01*
X26831Y-10053D01*
X26811Y-10034D01*
X26609Y-9950D01*
X26391Y-9949D01*
X26188Y-10033D01*
X26169Y-10053D01*
X26100Y-10053D01*
X25928Y-10087D01*
X25784Y-10184D01*
X25484Y-10484D01*
X25387Y-10628D01*
X25353Y-10800D01*
X25353Y-20550D01*
X25387Y-20721D01*
X25449Y-20814D01*
X25449Y-20858D01*
X25533Y-21061D01*
X25688Y-21215D01*
X25769Y-21249D01*
X25688Y-21283D01*
X25534Y-21438D01*
X25450Y-21640D01*
X25449Y-21858D01*
X25533Y-22061D01*
X25672Y-22200D01*
X25650Y-22200D01*
X25558Y-22238D01*
X25487Y-22308D01*
X25449Y-22400D01*
X25450Y-22637D01*
X25512Y-22700D01*
X25950Y-22700D01*
X25950Y-22692D01*
X26050Y-22692D01*
X26050Y-22700D01*
X26487Y-22700D01*
X26550Y-22637D01*
X26550Y-22400D01*
X26512Y-22308D01*
X26441Y-22238D01*
X26349Y-22200D01*
X26327Y-22200D01*
X26429Y-22098D01*
X26835Y-22098D01*
X28343Y-23606D01*
X28343Y-23606D01*
X28456Y-23681D01*
X28589Y-23708D01*
X28589Y-23708D01*
X28590Y-23708D01*
X28869Y-23708D01*
X28870Y-23708D01*
X28870Y-23708D01*
X28981Y-23686D01*
X29003Y-23681D01*
X29003Y-23681D01*
X29116Y-23606D01*
X29496Y-23226D01*
X29496Y-23226D01*
X29496Y-23226D01*
X29571Y-23113D01*
X29598Y-22980D01*
X29598Y-22980D01*
X29598Y-22980D01*
X29598Y-21504D01*
X30864Y-20238D01*
X31797Y-20238D01*
X31688Y-20283D01*
X31534Y-20438D01*
X31450Y-20640D01*
X31449Y-20858D01*
X31533Y-21061D01*
X31672Y-21199D01*
X31650Y-21199D01*
X31558Y-21237D01*
X31488Y-21308D01*
X31450Y-21400D01*
X31449Y-21499D01*
X31449Y-22099D01*
X31487Y-22191D01*
X31558Y-22261D01*
X31650Y-22299D01*
X31749Y-22300D01*
X32349Y-22300D01*
X32441Y-22262D01*
X32511Y-22191D01*
X32549Y-22099D01*
X32550Y-22000D01*
X32550Y-21400D01*
X32512Y-21308D01*
X32441Y-21238D01*
X32349Y-21200D01*
X32327Y-21200D01*
X32465Y-21061D01*
X32549Y-20859D01*
X32550Y-20641D01*
X32466Y-20438D01*
X32311Y-20284D01*
X32202Y-20238D01*
X35479Y-20238D01*
X35480Y-20238D01*
X35480Y-20238D01*
X35591Y-20216D01*
X35613Y-20211D01*
X35613Y-20211D01*
X35726Y-20136D01*
X38196Y-17666D01*
X38196Y-17666D01*
X38196Y-17666D01*
X38271Y-17553D01*
X38271Y-17553D01*
X38276Y-17531D01*
X38298Y-17420D01*
X38298Y-17420D01*
X38298Y-17419D01*
X38298Y-13950D01*
X38298Y-13949D01*
X38298Y-13949D01*
X38271Y-13816D01*
X38196Y-13703D01*
X38196Y-13703D01*
X38091Y-13598D01*
X38247Y-13598D01*
X38258Y-13610D01*
X38415Y-13674D01*
X38584Y-13675D01*
X38740Y-13610D01*
X38752Y-13598D01*
X39497Y-13598D01*
X39508Y-13610D01*
X39665Y-13674D01*
X39834Y-13675D01*
X39990Y-13610D01*
X40002Y-13598D01*
X40747Y-13598D01*
X40758Y-13610D01*
X40915Y-13674D01*
X41084Y-13675D01*
X41240Y-13610D01*
X41252Y-13598D01*
X41997Y-13598D01*
X42008Y-13610D01*
X42165Y-13674D01*
X42334Y-13675D01*
X42490Y-13610D01*
X42502Y-13598D01*
X43247Y-13598D01*
X43258Y-13610D01*
X43415Y-13674D01*
X43584Y-13675D01*
X43740Y-13610D01*
X43860Y-13491D01*
X43924Y-13334D01*
X43925Y-13165D01*
X43860Y-13009D01*
X43741Y-12889D01*
X43584Y-12825D01*
X43415Y-12824D01*
X43259Y-12889D01*
X43247Y-12901D01*
X42502Y-12901D01*
X42491Y-12889D01*
X42334Y-12825D01*
X42165Y-12824D01*
X42009Y-12889D01*
X41997Y-12901D01*
X41252Y-12901D01*
X41241Y-12889D01*
X41084Y-12825D01*
X40915Y-12824D01*
X40759Y-12889D01*
X40747Y-12901D01*
X40002Y-12901D01*
X39991Y-12889D01*
X39834Y-12825D01*
X39665Y-12824D01*
X39509Y-12889D01*
X39497Y-12901D01*
X38752Y-12901D01*
X38741Y-12889D01*
X38584Y-12825D01*
X38415Y-12824D01*
X38259Y-12889D01*
X38247Y-12901D01*
X37502Y-12901D01*
X37491Y-12889D01*
X37334Y-12825D01*
X37165Y-12824D01*
X37009Y-12889D01*
X36997Y-12901D01*
X36252Y-12901D01*
X36241Y-12889D01*
X36084Y-12825D01*
X35915Y-12824D01*
X35759Y-12889D01*
X35747Y-12901D01*
X35098Y-12901D01*
X35098Y-12100D01*
X35071Y-11966D01*
X34996Y-11853D01*
X34996Y-11853D01*
X34960Y-11817D01*
X34965Y-11811D01*
X34999Y-11730D01*
X35033Y-11811D01*
X35188Y-11965D01*
X35390Y-12049D01*
X35608Y-12050D01*
X35811Y-11966D01*
X35965Y-11811D01*
X35999Y-11730D01*
X36033Y-11811D01*
X36188Y-11965D01*
X36390Y-12049D01*
X36608Y-12050D01*
X36614Y-12047D01*
X36778Y-12211D01*
X36875Y-12276D01*
X36875Y-12276D01*
X36990Y-12299D01*
X38960Y-12299D01*
X39074Y-12276D01*
X39171Y-12211D01*
X39451Y-11932D01*
X39508Y-11990D01*
X39665Y-12054D01*
X39834Y-12055D01*
X39990Y-11990D01*
X40110Y-11871D01*
X40174Y-11714D01*
X40175Y-11545D01*
X40110Y-11389D01*
X40010Y-11289D01*
X40236Y-11289D01*
X40575Y-11628D01*
X40574Y-11714D01*
X40639Y-11870D01*
X40758Y-11990D01*
X40915Y-12054D01*
X41084Y-12055D01*
X41240Y-11990D01*
X41360Y-11871D01*
X41424Y-11714D01*
X41425Y-11545D01*
X41360Y-11389D01*
X41241Y-11269D01*
X41084Y-11205D01*
X40998Y-11204D01*
X40571Y-10778D01*
X40474Y-10713D01*
X40360Y-10690D01*
X39016Y-10690D01*
X39049Y-10609D01*
X39050Y-10391D01*
X39012Y-10299D01*
X41286Y-10299D01*
X41920Y-10933D01*
X41920Y-11338D01*
X41859Y-11398D01*
X41795Y-11555D01*
X41794Y-11724D01*
X41859Y-11880D01*
X41978Y-12000D01*
X42135Y-12064D01*
X42304Y-12065D01*
X42460Y-12000D01*
X42580Y-11881D01*
X42644Y-11724D01*
X42645Y-11555D01*
X42580Y-11399D01*
X42519Y-11338D01*
X42519Y-10810D01*
X42519Y-10809D01*
X42496Y-10695D01*
X42496Y-10695D01*
X42431Y-10598D01*
X42431Y-10598D01*
X41621Y-9788D01*
X41564Y-9750D01*
X44250Y-9750D01*
X44250Y-28895D01*
X44250Y-28895D01*
G37*
G54D19*
X44250Y-28895D02*
X43550Y-28895D01*
X43550Y-16641D01*
X43466Y-16438D01*
X43311Y-16284D01*
X43109Y-16200D01*
X42891Y-16199D01*
X42688Y-16283D01*
X42534Y-16438D01*
X42500Y-16519D01*
X42466Y-16438D01*
X42311Y-16284D01*
X42109Y-16200D01*
X41891Y-16199D01*
X41688Y-16283D01*
X41534Y-16438D01*
X41500Y-16519D01*
X41466Y-16438D01*
X41311Y-16284D01*
X41109Y-16200D01*
X40891Y-16199D01*
X40688Y-16283D01*
X40534Y-16438D01*
X40500Y-16519D01*
X40466Y-16438D01*
X40311Y-16284D01*
X40109Y-16200D01*
X39891Y-16199D01*
X39688Y-16283D01*
X39550Y-16422D01*
X39550Y-16400D01*
X39512Y-16308D01*
X39441Y-16238D01*
X39349Y-16200D01*
X39250Y-16199D01*
X38650Y-16199D01*
X38558Y-16237D01*
X38488Y-16308D01*
X38450Y-16400D01*
X38449Y-16499D01*
X38449Y-17099D01*
X38487Y-17191D01*
X38558Y-17261D01*
X38650Y-17299D01*
X38749Y-17300D01*
X39349Y-17300D01*
X39441Y-17262D01*
X39511Y-17191D01*
X39549Y-17099D01*
X39549Y-17077D01*
X39688Y-17215D01*
X39890Y-17299D01*
X40108Y-17300D01*
X40311Y-17216D01*
X40465Y-17061D01*
X40499Y-16980D01*
X40533Y-17061D01*
X40688Y-17215D01*
X40890Y-17299D01*
X41108Y-17300D01*
X41311Y-17216D01*
X41465Y-17061D01*
X41499Y-16980D01*
X41533Y-17061D01*
X41688Y-17215D01*
X41890Y-17299D01*
X42108Y-17300D01*
X42311Y-17216D01*
X42465Y-17061D01*
X42499Y-16980D01*
X42533Y-17061D01*
X42688Y-17215D01*
X42890Y-17299D01*
X43108Y-17300D01*
X43311Y-17216D01*
X43465Y-17061D01*
X43549Y-16859D01*
X43550Y-16641D01*
X43550Y-28895D01*
X37050Y-28895D01*
X37050Y-24292D01*
X36890Y-23906D01*
X36595Y-23610D01*
X36209Y-23450D01*
X35792Y-23449D01*
X35406Y-23609D01*
X35110Y-23904D01*
X34950Y-24290D01*
X34949Y-24707D01*
X35109Y-25094D01*
X35404Y-25389D01*
X35790Y-25549D01*
X36207Y-25550D01*
X36594Y-25390D01*
X36889Y-25095D01*
X37049Y-24709D01*
X37050Y-24292D01*
X37050Y-28895D01*
X29380Y-28895D01*
X29380Y-26639D01*
X29380Y-25261D01*
X29342Y-25169D01*
X29271Y-25099D01*
X29179Y-25061D01*
X29080Y-25060D01*
X27702Y-25060D01*
X27610Y-25098D01*
X27540Y-25169D01*
X27502Y-25261D01*
X27501Y-25360D01*
X27501Y-26738D01*
X27539Y-26830D01*
X27610Y-26900D01*
X27634Y-26910D01*
X27372Y-26911D01*
X27310Y-26973D01*
X27310Y-27800D01*
X28136Y-27800D01*
X28199Y-27737D01*
X28199Y-27210D01*
X28198Y-27111D01*
X28160Y-27019D01*
X28090Y-26948D01*
X28066Y-26939D01*
X29179Y-26939D01*
X29271Y-26901D01*
X29341Y-26830D01*
X29379Y-26738D01*
X29380Y-26639D01*
X29380Y-28895D01*
X28199Y-28895D01*
X28199Y-28489D01*
X28199Y-27962D01*
X28136Y-27900D01*
X27310Y-27900D01*
X27310Y-28726D01*
X27372Y-28789D01*
X27998Y-28789D01*
X28090Y-28751D01*
X28160Y-28680D01*
X28198Y-28588D01*
X28199Y-28489D01*
X28199Y-28895D01*
X27210Y-28895D01*
X27210Y-28726D01*
X27210Y-27900D01*
X27210Y-27800D01*
X27210Y-26973D01*
X27147Y-26911D01*
X26885Y-26910D01*
X26909Y-26901D01*
X26979Y-26830D01*
X27017Y-26738D01*
X27018Y-26639D01*
X27018Y-25360D01*
X27017Y-25261D01*
X26979Y-25169D01*
X26909Y-25098D01*
X26817Y-25060D01*
X26550Y-25060D01*
X26550Y-23099D01*
X26550Y-22862D01*
X26487Y-22800D01*
X26050Y-22800D01*
X26050Y-23237D01*
X26112Y-23300D01*
X26250Y-23300D01*
X26349Y-23299D01*
X26441Y-23261D01*
X26512Y-23191D01*
X26550Y-23099D01*
X26550Y-25060D01*
X26191Y-25061D01*
X26129Y-25123D01*
X26129Y-25950D01*
X26955Y-25950D01*
X27018Y-25887D01*
X27018Y-25360D01*
X27018Y-26639D01*
X27018Y-26112D01*
X26955Y-26050D01*
X26129Y-26050D01*
X26129Y-26876D01*
X26191Y-26939D01*
X26453Y-26939D01*
X26429Y-26948D01*
X26359Y-27019D01*
X26321Y-27111D01*
X26320Y-27210D01*
X26321Y-27737D01*
X26383Y-27800D01*
X27210Y-27800D01*
X27210Y-27900D01*
X26383Y-27900D01*
X26321Y-27962D01*
X26320Y-28489D01*
X26321Y-28588D01*
X26359Y-28680D01*
X26429Y-28751D01*
X26521Y-28789D01*
X27147Y-28789D01*
X27210Y-28726D01*
X27210Y-28895D01*
X26029Y-28895D01*
X26029Y-26876D01*
X26029Y-26050D01*
X26029Y-25950D01*
X26029Y-25123D01*
X25966Y-25061D01*
X25950Y-25060D01*
X25950Y-23237D01*
X25950Y-22800D01*
X25512Y-22800D01*
X25450Y-22862D01*
X25449Y-23099D01*
X25487Y-23191D01*
X25558Y-23261D01*
X25650Y-23299D01*
X25749Y-23300D01*
X25887Y-23300D01*
X25950Y-23237D01*
X25950Y-25060D01*
X25340Y-25060D01*
X25248Y-25098D01*
X25178Y-25169D01*
X25140Y-25261D01*
X25139Y-25360D01*
X25140Y-25887D01*
X25202Y-25950D01*
X26029Y-25950D01*
X26029Y-26050D01*
X25202Y-26050D01*
X25140Y-26112D01*
X25139Y-26639D01*
X25140Y-26738D01*
X25178Y-26830D01*
X25248Y-26901D01*
X25340Y-26939D01*
X25966Y-26939D01*
X26029Y-26876D01*
X26029Y-28895D01*
X25104Y-28895D01*
X25104Y-9750D01*
X37825Y-9750D01*
X37768Y-9788D01*
X37606Y-9950D01*
X37391Y-9949D01*
X37188Y-10033D01*
X37034Y-10188D01*
X37000Y-10269D01*
X36966Y-10188D01*
X36811Y-10034D01*
X36609Y-9950D01*
X36391Y-9949D01*
X36188Y-10033D01*
X36034Y-10188D01*
X36002Y-10263D01*
X35981Y-10212D01*
X35885Y-10184D01*
X35815Y-10255D01*
X35815Y-10114D01*
X35787Y-10018D01*
X35581Y-9945D01*
X35363Y-9956D01*
X35212Y-10018D01*
X35184Y-10114D01*
X35500Y-10429D01*
X35815Y-10114D01*
X35815Y-10255D01*
X35570Y-10500D01*
X35885Y-10815D01*
X35981Y-10787D01*
X36000Y-10732D01*
X36033Y-10811D01*
X36188Y-10965D01*
X36269Y-10999D01*
X36188Y-11033D01*
X36034Y-11188D01*
X36000Y-11269D01*
X35966Y-11188D01*
X35811Y-11034D01*
X35736Y-11002D01*
X35787Y-10981D01*
X35815Y-10885D01*
X35500Y-10570D01*
X35184Y-10885D01*
X35212Y-10981D01*
X35267Y-11000D01*
X35188Y-11033D01*
X35034Y-11188D01*
X35000Y-11269D01*
X34966Y-11188D01*
X34811Y-11034D01*
X34730Y-11000D01*
X34811Y-10966D01*
X34965Y-10811D01*
X34997Y-10736D01*
X35018Y-10787D01*
X35114Y-10815D01*
X35429Y-10500D01*
X35114Y-10184D01*
X35018Y-10212D01*
X34999Y-10267D01*
X34966Y-10188D01*
X34811Y-10034D01*
X34609Y-9950D01*
X34391Y-9949D01*
X34188Y-10033D01*
X34034Y-10188D01*
X34000Y-10269D01*
X33966Y-10188D01*
X33811Y-10034D01*
X33609Y-9950D01*
X33391Y-9949D01*
X33188Y-10033D01*
X33034Y-10188D01*
X33002Y-10263D01*
X32981Y-10212D01*
X32885Y-10184D01*
X32815Y-10255D01*
X32815Y-10114D01*
X32787Y-10018D01*
X32581Y-9945D01*
X32363Y-9956D01*
X32212Y-10018D01*
X32184Y-10114D01*
X32500Y-10429D01*
X32815Y-10114D01*
X32815Y-10255D01*
X32570Y-10500D01*
X32885Y-10815D01*
X32981Y-10787D01*
X33000Y-10732D01*
X33033Y-10811D01*
X33188Y-10965D01*
X33269Y-10999D01*
X33188Y-11033D01*
X33034Y-11188D01*
X33000Y-11269D01*
X32966Y-11188D01*
X32811Y-11034D01*
X32736Y-11002D01*
X32787Y-10981D01*
X32815Y-10885D01*
X32500Y-10570D01*
X32184Y-10885D01*
X32212Y-10981D01*
X32267Y-11000D01*
X32188Y-11033D01*
X32034Y-11188D01*
X32000Y-11269D01*
X31966Y-11188D01*
X31811Y-11034D01*
X31730Y-11000D01*
X31811Y-10966D01*
X31965Y-10811D01*
X31997Y-10736D01*
X32018Y-10787D01*
X32114Y-10815D01*
X32429Y-10500D01*
X32114Y-10184D01*
X32018Y-10212D01*
X31999Y-10267D01*
X31966Y-10188D01*
X31811Y-10034D01*
X31609Y-9950D01*
X31391Y-9949D01*
X31188Y-10033D01*
X31034Y-10188D01*
X31000Y-10269D01*
X30966Y-10188D01*
X30811Y-10034D01*
X30609Y-9950D01*
X30391Y-9949D01*
X30188Y-10033D01*
X30034Y-10188D01*
X30000Y-10269D01*
X29966Y-10188D01*
X29811Y-10034D01*
X29609Y-9950D01*
X29391Y-9949D01*
X29188Y-10033D01*
X29034Y-10188D01*
X29002Y-10263D01*
X28981Y-10212D01*
X28885Y-10184D01*
X28815Y-10255D01*
X28815Y-10114D01*
X28787Y-10018D01*
X28581Y-9945D01*
X28363Y-9956D01*
X28212Y-10018D01*
X28184Y-10114D01*
X28500Y-10429D01*
X28815Y-10114D01*
X28815Y-10255D01*
X28570Y-10500D01*
X28885Y-10815D01*
X28981Y-10787D01*
X29000Y-10732D01*
X29033Y-10811D01*
X29188Y-10965D01*
X29269Y-10999D01*
X29188Y-11033D01*
X29034Y-11188D01*
X29000Y-11269D01*
X28966Y-11188D01*
X28811Y-11034D01*
X28736Y-11002D01*
X28787Y-10981D01*
X28815Y-10885D01*
X28500Y-10570D01*
X28184Y-10885D01*
X28212Y-10981D01*
X28267Y-11000D01*
X28188Y-11033D01*
X28034Y-11188D01*
X28000Y-11269D01*
X27966Y-11188D01*
X27811Y-11034D01*
X27730Y-11000D01*
X27811Y-10966D01*
X27965Y-10811D01*
X27997Y-10736D01*
X28018Y-10787D01*
X28114Y-10815D01*
X28429Y-10500D01*
X28114Y-10184D01*
X28018Y-10212D01*
X27999Y-10267D01*
X27966Y-10188D01*
X27811Y-10034D01*
X27609Y-9950D01*
X27391Y-9949D01*
X27188Y-10033D01*
X27169Y-10053D01*
X26831Y-10053D01*
X26811Y-10034D01*
X26609Y-9950D01*
X26391Y-9949D01*
X26188Y-10033D01*
X26169Y-10053D01*
X26100Y-10053D01*
X25928Y-10087D01*
X25784Y-10184D01*
X25484Y-10484D01*
X25387Y-10628D01*
X25353Y-10800D01*
X25353Y-20550D01*
X25387Y-20721D01*
X25449Y-20814D01*
X25449Y-20858D01*
X25533Y-21061D01*
X25688Y-21215D01*
X25769Y-21249D01*
X25688Y-21283D01*
X25534Y-21438D01*
X25450Y-21640D01*
X25449Y-21858D01*
X25533Y-22061D01*
X25672Y-22200D01*
X25650Y-22200D01*
X25558Y-22238D01*
X25487Y-22308D01*
X25449Y-22400D01*
X25450Y-22637D01*
X25512Y-22700D01*
X25950Y-22700D01*
X25950Y-22692D01*
X26050Y-22692D01*
X26050Y-22700D01*
X26487Y-22700D01*
X26550Y-22637D01*
X26550Y-22400D01*
X26512Y-22308D01*
X26441Y-22238D01*
X26349Y-22200D01*
X26327Y-22200D01*
X26429Y-22098D01*
X26835Y-22098D01*
X28343Y-23606D01*
X28343Y-23606D01*
X28456Y-23681D01*
X28589Y-23708D01*
X28589Y-23708D01*
X28590Y-23708D01*
X28869Y-23708D01*
X28870Y-23708D01*
X28870Y-23708D01*
X28981Y-23686D01*
X29003Y-23681D01*
X29003Y-23681D01*
X29116Y-23606D01*
X29496Y-23226D01*
X29496Y-23226D01*
X29496Y-23226D01*
X29571Y-23113D01*
X29598Y-22980D01*
X29598Y-22980D01*
X29598Y-22980D01*
X29598Y-21504D01*
X30864Y-20238D01*
X31797Y-20238D01*
X31688Y-20283D01*
X31534Y-20438D01*
X31450Y-20640D01*
X31449Y-20858D01*
X31533Y-21061D01*
X31672Y-21199D01*
X31650Y-21199D01*
X31558Y-21237D01*
X31488Y-21308D01*
X31450Y-21400D01*
X31449Y-21499D01*
X31449Y-22099D01*
X31487Y-22191D01*
X31558Y-22261D01*
X31650Y-22299D01*
X31749Y-22300D01*
X32349Y-22300D01*
X32441Y-22262D01*
X32511Y-22191D01*
X32549Y-22099D01*
X32550Y-22000D01*
X32550Y-21400D01*
X32512Y-21308D01*
X32441Y-21238D01*
X32349Y-21200D01*
X32327Y-21200D01*
X32465Y-21061D01*
X32549Y-20859D01*
X32550Y-20641D01*
X32466Y-20438D01*
X32311Y-20284D01*
X32202Y-20238D01*
X35479Y-20238D01*
X35480Y-20238D01*
X35480Y-20238D01*
X35591Y-20216D01*
X35613Y-20211D01*
X35613Y-20211D01*
X35726Y-20136D01*
X38196Y-17666D01*
X38196Y-17666D01*
X38196Y-17666D01*
X38271Y-17553D01*
X38271Y-17553D01*
X38276Y-17531D01*
X38298Y-17420D01*
X38298Y-17420D01*
X38298Y-17419D01*
X38298Y-13950D01*
X38298Y-13949D01*
X38298Y-13949D01*
X38271Y-13816D01*
X38196Y-13703D01*
X38196Y-13703D01*
X38091Y-13598D01*
X38247Y-13598D01*
X38258Y-13610D01*
X38415Y-13674D01*
X38584Y-13675D01*
X38740Y-13610D01*
X38752Y-13598D01*
X39497Y-13598D01*
X39508Y-13610D01*
X39665Y-13674D01*
X39834Y-13675D01*
X39990Y-13610D01*
X40002Y-13598D01*
X40747Y-13598D01*
X40758Y-13610D01*
X40915Y-13674D01*
X41084Y-13675D01*
X41240Y-13610D01*
X41252Y-13598D01*
X41997Y-13598D01*
X42008Y-13610D01*
X42165Y-13674D01*
X42334Y-13675D01*
X42490Y-13610D01*
X42502Y-13598D01*
X43247Y-13598D01*
X43258Y-13610D01*
X43415Y-13674D01*
X43584Y-13675D01*
X43740Y-13610D01*
X43860Y-13491D01*
X43924Y-13334D01*
X43925Y-13165D01*
X43860Y-13009D01*
X43741Y-12889D01*
X43584Y-12825D01*
X43415Y-12824D01*
X43259Y-12889D01*
X43247Y-12901D01*
X42502Y-12901D01*
X42491Y-12889D01*
X42334Y-12825D01*
X42165Y-12824D01*
X42009Y-12889D01*
X41997Y-12901D01*
X41252Y-12901D01*
X41241Y-12889D01*
X41084Y-12825D01*
X40915Y-12824D01*
X40759Y-12889D01*
X40747Y-12901D01*
X40002Y-12901D01*
X39991Y-12889D01*
X39834Y-12825D01*
X39665Y-12824D01*
X39509Y-12889D01*
X39497Y-12901D01*
X38752Y-12901D01*
X38741Y-12889D01*
X38584Y-12825D01*
X38415Y-12824D01*
X38259Y-12889D01*
X38247Y-12901D01*
X37502Y-12901D01*
X37491Y-12889D01*
X37334Y-12825D01*
X37165Y-12824D01*
X37009Y-12889D01*
X36997Y-12901D01*
X36252Y-12901D01*
X36241Y-12889D01*
X36084Y-12825D01*
X35915Y-12824D01*
X35759Y-12889D01*
X35747Y-12901D01*
X35098Y-12901D01*
X35098Y-12100D01*
X35071Y-11966D01*
X34996Y-11853D01*
X34996Y-11853D01*
X34960Y-11817D01*
X34965Y-11811D01*
X34999Y-11730D01*
X35033Y-11811D01*
X35188Y-11965D01*
X35390Y-12049D01*
X35608Y-12050D01*
X35811Y-11966D01*
X35965Y-11811D01*
X35999Y-11730D01*
X36033Y-11811D01*
X36188Y-11965D01*
X36390Y-12049D01*
X36608Y-12050D01*
X36614Y-12047D01*
X36778Y-12211D01*
X36875Y-12276D01*
X36875Y-12276D01*
X36990Y-12299D01*
X38960Y-12299D01*
X39074Y-12276D01*
X39171Y-12211D01*
X39451Y-11932D01*
X39508Y-11990D01*
X39665Y-12054D01*
X39834Y-12055D01*
X39990Y-11990D01*
X40110Y-11871D01*
X40174Y-11714D01*
X40175Y-11545D01*
X40110Y-11389D01*
X40010Y-11289D01*
X40236Y-11289D01*
X40575Y-11628D01*
X40574Y-11714D01*
X40639Y-11870D01*
X40758Y-11990D01*
X40915Y-12054D01*
X41084Y-12055D01*
X41240Y-11990D01*
X41360Y-11871D01*
X41424Y-11714D01*
X41425Y-11545D01*
X41360Y-11389D01*
X41241Y-11269D01*
X41084Y-11205D01*
X40998Y-11204D01*
X40571Y-10778D01*
X40474Y-10713D01*
X40360Y-10690D01*
X39016Y-10690D01*
X39049Y-10609D01*
X39050Y-10391D01*
X39012Y-10299D01*
X41286Y-10299D01*
X41920Y-10933D01*
X41920Y-11338D01*
X41859Y-11398D01*
X41795Y-11555D01*
X41794Y-11724D01*
X41859Y-11880D01*
X41978Y-12000D01*
X42135Y-12064D01*
X42304Y-12065D01*
X42460Y-12000D01*
X42580Y-11881D01*
X42644Y-11724D01*
X42645Y-11555D01*
X42580Y-11399D01*
X42519Y-11338D01*
X42519Y-10810D01*
X42519Y-10809D01*
X42496Y-10695D01*
X42496Y-10695D01*
X42431Y-10598D01*
X42431Y-10598D01*
X41621Y-9788D01*
X41564Y-9750D01*
X44250Y-9750D01*
X44250Y-28895D01*
M02*
