G04 (created by PCBNEW (2013-07-07 BZR 4022)-stable) date 21/02/2014 11:26:53*
%MOIN*%
G04 Gerber Fmt 3.4, Leading zero omitted, Abs format*
%FSLAX34Y34*%
G01*
G70*
G90*
G04 APERTURE LIST*
%ADD10C,0.00590551*%
%ADD11R,0.08X0.06*%
%ADD12R,0.09X0.045*%
%ADD13R,0.3937X0.4252*%
%ADD14R,0.0315X0.0394*%
%ADD15R,0.0394X0.0315*%
%ADD16R,0.06X0.08*%
%ADD17R,0.06X0.06*%
%ADD18C,0.06*%
%ADD19R,0.0866X0.0709*%
%ADD20R,0.1575X0.0945*%
%ADD21R,0.1378X0.1378*%
%ADD22C,0.16*%
%ADD23R,0.0787X0.2165*%
%ADD24R,0.0748X0.1732*%
%ADD25C,0.035*%
%ADD26C,0.00984252*%
%ADD27C,0.019685*%
%ADD28C,0.0393701*%
%ADD29C,0.01*%
G04 APERTURE END LIST*
G54D10*
G54D11*
X33500Y-19150D03*
X33500Y-17850D03*
G54D12*
X37800Y-26031D03*
G54D13*
X42050Y-26700D03*
G54D12*
X37800Y-27369D03*
X37800Y-26700D03*
X37800Y-25361D03*
X37800Y-28039D03*
G54D14*
X29750Y-14817D03*
X30125Y-15683D03*
X29375Y-15683D03*
X42250Y-14817D03*
X42625Y-15683D03*
X41875Y-15683D03*
X41000Y-15683D03*
X40625Y-14817D03*
X41375Y-14817D03*
X43500Y-15683D03*
X43125Y-14817D03*
X43875Y-14817D03*
X39750Y-14817D03*
X40125Y-15683D03*
X39375Y-15683D03*
X26000Y-15683D03*
X25625Y-14817D03*
X26375Y-14817D03*
X38500Y-15683D03*
X38125Y-14817D03*
X38875Y-14817D03*
X33500Y-15683D03*
X33125Y-14817D03*
X33875Y-14817D03*
X27250Y-14817D03*
X27625Y-15683D03*
X26875Y-15683D03*
X32250Y-14817D03*
X32625Y-15683D03*
X31875Y-15683D03*
X31000Y-15683D03*
X30625Y-14817D03*
X31375Y-14817D03*
X34750Y-14817D03*
X35125Y-15683D03*
X34375Y-15683D03*
X37250Y-14817D03*
X37625Y-15683D03*
X36875Y-15683D03*
X36000Y-15683D03*
X35625Y-14817D03*
X36375Y-14817D03*
G54D15*
X29817Y-20750D03*
X30683Y-20375D03*
X30683Y-21125D03*
G54D14*
X28500Y-15683D03*
X28125Y-14817D03*
X28875Y-14817D03*
G54D15*
X30683Y-22000D03*
X29817Y-22375D03*
X29817Y-21625D03*
G54D11*
X27250Y-13900D03*
X27250Y-12600D03*
X43500Y-13900D03*
X43500Y-12600D03*
X37250Y-19150D03*
X37250Y-17850D03*
X43500Y-19150D03*
X43500Y-17850D03*
X37250Y-13900D03*
X37250Y-12600D03*
X26000Y-13900D03*
X26000Y-12600D03*
X26000Y-19150D03*
X26000Y-17850D03*
X34750Y-19150D03*
X34750Y-17850D03*
X36000Y-19150D03*
X36000Y-17850D03*
X27250Y-19150D03*
X27250Y-17850D03*
X31000Y-13900D03*
X31000Y-12600D03*
X41000Y-19150D03*
X41000Y-17850D03*
X31000Y-19150D03*
X31000Y-17850D03*
X34750Y-13900D03*
X34750Y-12600D03*
X36000Y-13900D03*
X36000Y-12600D03*
X42250Y-13900D03*
X42250Y-12600D03*
G54D16*
X28650Y-20750D03*
X27350Y-20750D03*
X34650Y-20750D03*
X33350Y-20750D03*
X28650Y-22000D03*
X27350Y-22000D03*
X34650Y-22000D03*
X33350Y-22000D03*
G54D11*
X28500Y-13900D03*
X28500Y-12600D03*
X28500Y-19150D03*
X28500Y-17850D03*
X29750Y-13900D03*
X29750Y-12600D03*
X29750Y-19150D03*
X29750Y-17850D03*
X32250Y-13900D03*
X32250Y-12600D03*
X33500Y-13900D03*
X33500Y-12600D03*
X38500Y-13900D03*
X38500Y-12600D03*
X38500Y-19150D03*
X38500Y-17850D03*
X39750Y-19150D03*
X39750Y-17850D03*
X39750Y-13900D03*
X39750Y-12600D03*
X41000Y-13900D03*
X41000Y-12600D03*
X32250Y-19150D03*
X32250Y-17850D03*
X42250Y-19150D03*
X42250Y-17850D03*
G54D17*
X39000Y-16750D03*
G54D18*
X40000Y-16750D03*
X41000Y-16750D03*
X42000Y-16750D03*
X43000Y-16750D03*
G54D17*
X27000Y-16750D03*
G54D18*
X28000Y-16750D03*
G54D17*
X26500Y-11500D03*
G54D18*
X26500Y-10500D03*
X27500Y-11500D03*
X27500Y-10500D03*
X28500Y-11500D03*
X28500Y-10500D03*
X29500Y-11500D03*
X29500Y-10500D03*
X30500Y-11500D03*
X30500Y-10500D03*
X31500Y-11500D03*
X31500Y-10500D03*
X32500Y-11500D03*
X32500Y-10500D03*
X33500Y-11500D03*
X33500Y-10500D03*
X34500Y-11500D03*
X34500Y-10500D03*
X35500Y-11500D03*
X35500Y-10500D03*
X36500Y-11500D03*
X36500Y-10500D03*
X37500Y-11500D03*
X37500Y-10500D03*
X38500Y-11500D03*
X38500Y-10500D03*
G54D19*
X35250Y-28290D03*
X35250Y-26710D03*
G54D20*
X36385Y-21640D03*
X39535Y-21640D03*
G54D21*
X28441Y-26000D03*
X26079Y-26000D03*
X27260Y-27850D03*
G54D17*
X26000Y-22750D03*
G54D18*
X26000Y-21750D03*
X26000Y-20750D03*
G54D22*
X36000Y-24500D03*
G54D23*
X31900Y-23950D03*
X31900Y-27650D03*
G54D24*
X42450Y-20448D03*
X42450Y-23873D03*
G54D17*
X34000Y-16750D03*
G54D18*
X35000Y-16750D03*
X36000Y-16750D03*
X37000Y-16750D03*
G54D17*
X30000Y-16750D03*
G54D18*
X31000Y-16750D03*
X32000Y-16750D03*
X33000Y-16750D03*
G54D17*
X32000Y-21750D03*
G54D18*
X32000Y-20750D03*
G54D25*
X26750Y-15210D03*
X29750Y-13300D03*
X31000Y-13250D03*
X32250Y-13250D03*
X28500Y-13250D03*
X28000Y-20750D03*
X27250Y-13250D03*
X33500Y-13250D03*
X34750Y-13250D03*
X36000Y-13250D03*
X37250Y-13250D03*
X38500Y-13250D03*
X39750Y-13250D03*
X41000Y-13250D03*
X42250Y-13250D03*
X43500Y-13250D03*
X42220Y-11640D03*
X37900Y-18500D03*
X39100Y-18500D03*
X40400Y-18500D03*
X41600Y-18500D03*
X42900Y-18500D03*
X35400Y-18500D03*
X34100Y-18500D03*
X32850Y-18500D03*
X31600Y-18500D03*
X30350Y-18500D03*
X44000Y-10700D03*
X44000Y-11600D03*
X42050Y-28000D03*
X43400Y-28000D03*
X42100Y-25500D03*
X40700Y-25500D03*
X43400Y-25400D03*
X30100Y-23100D03*
X33000Y-23100D03*
X34700Y-23400D03*
X27100Y-23400D03*
X27300Y-24500D03*
X36800Y-20400D03*
X39300Y-20400D03*
X38100Y-22500D03*
X43800Y-23500D03*
X42400Y-22200D03*
X40800Y-23100D03*
X43400Y-26700D03*
X42050Y-26700D03*
X40700Y-26700D03*
X26650Y-19950D03*
X26650Y-18500D03*
X34000Y-28300D03*
X32900Y-25800D03*
X30200Y-25400D03*
X29800Y-27900D03*
X39750Y-11630D03*
X29260Y-19950D03*
X41000Y-11630D03*
X28650Y-22850D03*
G54D26*
X38875Y-14817D02*
X38875Y-14815D01*
X38500Y-14440D02*
X38500Y-13900D01*
X38875Y-14815D02*
X38500Y-14440D01*
X39375Y-15683D02*
X39375Y-15317D01*
X39375Y-15317D02*
X38875Y-14817D01*
X41375Y-14817D02*
X41375Y-14815D01*
X41000Y-14440D02*
X41000Y-13900D01*
X41375Y-14815D02*
X41000Y-14440D01*
X41875Y-15683D02*
X41875Y-15317D01*
X41875Y-15317D02*
X41375Y-14817D01*
X28875Y-14817D02*
X28875Y-14715D01*
X28500Y-14340D02*
X28500Y-13900D01*
X28875Y-14715D02*
X28500Y-14340D01*
G54D27*
X26749Y-15209D02*
X26749Y-15191D01*
X26750Y-15210D02*
X26749Y-15209D01*
G54D26*
X26875Y-15683D02*
X26875Y-15317D01*
X26875Y-15317D02*
X26749Y-15191D01*
X26749Y-15191D02*
X26375Y-14817D01*
X26000Y-13900D02*
X26000Y-14442D01*
X26000Y-14442D02*
X26375Y-14817D01*
X33875Y-14817D02*
X33875Y-14815D01*
X33500Y-14440D02*
X33500Y-13900D01*
X33875Y-14815D02*
X33500Y-14440D01*
X34375Y-15683D02*
X34375Y-15317D01*
X34375Y-15317D02*
X33875Y-14817D01*
X36375Y-14817D02*
X36377Y-14817D01*
X36875Y-15315D02*
X36875Y-15683D01*
X36377Y-14817D02*
X36875Y-15315D01*
X36000Y-13900D02*
X36000Y-14442D01*
X36000Y-14442D02*
X36375Y-14817D01*
X31375Y-14817D02*
X31397Y-14817D01*
X31875Y-15295D02*
X31875Y-15683D01*
X31397Y-14817D02*
X31875Y-15295D01*
X31000Y-13900D02*
X31000Y-14442D01*
X31000Y-14442D02*
X31375Y-14817D01*
X29375Y-15683D02*
X29375Y-15317D01*
X29375Y-15317D02*
X28875Y-14817D01*
G54D27*
X29750Y-13300D02*
X29750Y-13900D01*
X31000Y-13250D02*
X31000Y-13900D01*
X32250Y-13250D02*
X32250Y-13900D01*
X28500Y-13250D02*
X28500Y-13900D01*
X28650Y-22000D02*
X28250Y-22000D01*
X28000Y-21750D02*
X28000Y-20750D01*
X28250Y-22000D02*
X28000Y-21750D01*
X28650Y-20750D02*
X28000Y-20750D01*
X27250Y-13250D02*
X27250Y-13900D01*
X33500Y-13250D02*
X33500Y-13900D01*
X34750Y-13250D02*
X34750Y-13900D01*
X36000Y-13250D02*
X36000Y-13900D01*
X37250Y-13250D02*
X37250Y-13900D01*
X38500Y-13250D02*
X38500Y-13900D01*
X39750Y-13250D02*
X39750Y-13900D01*
X41000Y-13250D02*
X41000Y-13900D01*
X43500Y-13900D02*
X43500Y-13250D01*
X42250Y-13250D02*
X42250Y-13900D01*
G54D26*
X43500Y-13900D02*
X43500Y-14442D01*
X43500Y-14442D02*
X43875Y-14817D01*
X29817Y-21625D02*
X29025Y-21625D01*
X29025Y-21625D02*
X28650Y-22000D01*
X30683Y-21125D02*
X30325Y-21125D01*
X29825Y-21625D02*
X29817Y-21625D01*
X30325Y-21125D02*
X29825Y-21625D01*
G54D28*
X42450Y-20448D02*
X40727Y-20448D01*
X40727Y-20448D02*
X39535Y-21640D01*
X37800Y-27369D02*
X38749Y-27369D01*
X39480Y-21695D02*
X39535Y-21640D01*
X39480Y-26638D02*
X39480Y-21695D01*
X38749Y-27369D02*
X39480Y-26638D01*
X27250Y-19150D02*
X26000Y-19150D01*
X28500Y-19150D02*
X27250Y-19150D01*
X29750Y-19150D02*
X28500Y-19150D01*
X31000Y-19150D02*
X29750Y-19150D01*
X32250Y-19150D02*
X31000Y-19150D01*
X33500Y-19150D02*
X32250Y-19150D01*
X34750Y-19150D02*
X33500Y-19150D01*
X34650Y-20750D02*
X34650Y-22000D01*
X34750Y-19150D02*
X34750Y-20650D01*
X34750Y-20650D02*
X34650Y-20750D01*
X36000Y-19150D02*
X34750Y-19150D01*
X37250Y-19150D02*
X36000Y-19150D01*
X38500Y-19150D02*
X37250Y-19150D01*
X39750Y-19150D02*
X38500Y-19150D01*
X41000Y-19150D02*
X39750Y-19150D01*
X42250Y-19150D02*
X41000Y-19150D01*
X43500Y-19150D02*
X42250Y-19150D01*
X42426Y-21074D02*
X42930Y-20750D01*
X43500Y-20180D02*
X43500Y-19150D01*
X42930Y-20750D02*
X43500Y-20180D01*
X26000Y-19150D02*
X26000Y-20750D01*
G54D26*
X42250Y-11670D02*
X42250Y-12600D01*
X42220Y-11640D02*
X42250Y-11670D01*
X42625Y-15683D02*
X42625Y-15255D01*
X41630Y-13220D02*
X42250Y-12600D01*
X41630Y-14300D02*
X41630Y-13220D01*
X41730Y-14400D02*
X41630Y-14300D01*
X42500Y-14400D02*
X41730Y-14400D01*
X42700Y-14600D02*
X42500Y-14400D01*
X42700Y-15180D02*
X42700Y-14600D01*
X42625Y-15255D02*
X42700Y-15180D01*
G54D29*
X38500Y-10500D02*
X43070Y-10500D01*
X43500Y-10930D02*
X43500Y-12600D01*
X43070Y-10500D02*
X43500Y-10930D01*
G54D26*
X43125Y-14817D02*
X43125Y-14635D01*
X42880Y-13220D02*
X43500Y-12600D01*
X42880Y-14390D02*
X42880Y-13220D01*
X43125Y-14635D02*
X42880Y-14390D01*
G54D27*
X39100Y-18500D02*
X40400Y-18500D01*
X41600Y-18500D02*
X42900Y-18500D01*
X26650Y-18500D02*
X30350Y-18500D01*
X34100Y-18500D02*
X35400Y-18500D01*
X31600Y-18500D02*
X32850Y-18500D01*
X35400Y-18500D02*
X37900Y-18500D01*
X44000Y-11600D02*
X44000Y-10700D01*
G54D26*
X42050Y-28000D02*
X42050Y-26700D01*
G54D27*
X43400Y-28000D02*
X42100Y-26700D01*
X42100Y-26700D02*
X42050Y-26700D01*
X42050Y-25550D02*
X42050Y-26700D01*
X42100Y-25500D02*
X42050Y-25550D01*
X40700Y-25500D02*
X41900Y-26700D01*
X41900Y-26700D02*
X42050Y-26700D01*
X43400Y-25400D02*
X42100Y-26700D01*
X42100Y-26700D02*
X42050Y-26700D01*
X34400Y-23100D02*
X33000Y-23100D01*
X34700Y-23400D02*
X34400Y-23100D01*
X27100Y-24300D02*
X27100Y-23400D01*
X27300Y-24500D02*
X27100Y-24300D01*
X38100Y-20400D02*
X39300Y-20400D01*
X38100Y-22500D02*
X38100Y-20400D01*
X42450Y-23873D02*
X41573Y-23873D01*
X42700Y-22400D02*
X43800Y-23500D01*
X42600Y-22400D02*
X42700Y-22400D01*
X42400Y-22200D02*
X42600Y-22400D01*
X41573Y-23873D02*
X40800Y-23100D01*
X43400Y-26700D02*
X42050Y-26700D01*
X40700Y-26700D02*
X42050Y-26700D01*
X42450Y-23873D02*
X42450Y-26300D01*
X42450Y-26300D02*
X42050Y-26700D01*
X26000Y-22750D02*
X25300Y-22750D01*
X25450Y-18500D02*
X26650Y-18500D01*
X25250Y-18700D02*
X25450Y-18500D01*
X25250Y-22700D02*
X25250Y-18700D01*
X25300Y-22750D02*
X25250Y-22700D01*
G54D28*
X27260Y-27850D02*
X29750Y-27850D01*
X34000Y-28300D02*
X34000Y-28290D01*
X30600Y-25800D02*
X32900Y-25800D01*
X30200Y-25400D02*
X30600Y-25800D01*
X29750Y-27850D02*
X29800Y-27900D01*
X37800Y-26700D02*
X37170Y-26700D01*
X36100Y-27770D02*
X36100Y-28050D01*
X37170Y-26700D02*
X36100Y-27770D01*
X35250Y-28290D02*
X35860Y-28290D01*
X35860Y-28290D02*
X36100Y-28050D01*
X36100Y-28050D02*
X36111Y-28039D01*
X31900Y-27650D02*
X32620Y-27580D01*
X32620Y-27580D02*
X33330Y-28290D01*
X33330Y-28290D02*
X34000Y-28290D01*
X34000Y-28290D02*
X35250Y-28290D01*
X27260Y-27850D02*
X31630Y-27920D01*
X31630Y-27920D02*
X31900Y-27650D01*
G54D26*
X38500Y-11500D02*
X38500Y-11490D01*
X38500Y-11490D02*
X38020Y-11010D01*
X38020Y-11010D02*
X38020Y-10360D01*
X38020Y-10360D02*
X37421Y-9761D01*
X37421Y-9761D02*
X35858Y-9761D01*
X35858Y-9761D02*
X35500Y-10120D01*
X35500Y-10120D02*
X35500Y-10500D01*
G54D28*
X42450Y-23430D02*
X42500Y-26250D01*
X42500Y-26250D02*
X42050Y-26700D01*
X37800Y-28039D02*
X40711Y-28039D01*
X40711Y-28039D02*
X42050Y-26700D01*
X37800Y-28039D02*
X36111Y-28039D01*
G54D26*
X31500Y-11500D02*
X31490Y-11500D01*
X30300Y-12050D02*
X29750Y-12600D01*
X30940Y-12050D02*
X30300Y-12050D01*
X31490Y-11500D02*
X30940Y-12050D01*
X30125Y-15683D02*
X30125Y-15185D01*
X29120Y-13230D02*
X29750Y-12600D01*
X29120Y-14310D02*
X29120Y-13230D01*
X29230Y-14420D02*
X29120Y-14310D01*
X30040Y-14420D02*
X29230Y-14420D01*
X30190Y-14570D02*
X30040Y-14420D01*
X30190Y-15120D02*
X30190Y-14570D01*
X30125Y-15185D02*
X30190Y-15120D01*
X31500Y-10500D02*
X31500Y-10520D01*
X31190Y-12600D02*
X31000Y-12600D01*
X32000Y-11790D02*
X31190Y-12600D01*
X32000Y-11020D02*
X32000Y-11790D01*
X31500Y-10520D02*
X32000Y-11020D01*
X30625Y-14817D02*
X30625Y-14665D01*
X30370Y-13230D02*
X31000Y-12600D01*
X30370Y-14410D02*
X30370Y-13230D01*
X30625Y-14665D02*
X30370Y-14410D01*
X33500Y-11500D02*
X33500Y-12600D01*
X33125Y-14817D02*
X33125Y-14665D01*
X32890Y-13210D02*
X33500Y-12600D01*
X32890Y-14430D02*
X32890Y-13210D01*
X33125Y-14665D02*
X32890Y-14430D01*
X33500Y-10500D02*
X33990Y-10990D01*
X34610Y-12600D02*
X34750Y-12600D01*
X33990Y-11980D02*
X34610Y-12600D01*
X33990Y-10990D02*
X33990Y-11980D01*
X34120Y-13220D02*
X34130Y-13220D01*
X35125Y-15215D02*
X35190Y-15150D01*
X35190Y-15150D02*
X35190Y-14600D01*
X35190Y-14600D02*
X34980Y-14390D01*
X34980Y-14390D02*
X34200Y-14390D01*
X34200Y-14390D02*
X34120Y-14310D01*
X34120Y-14310D02*
X34120Y-13220D01*
X35125Y-15683D02*
X35125Y-15215D01*
X34130Y-13220D02*
X34750Y-12600D01*
X34500Y-10500D02*
X35010Y-11010D01*
X35450Y-12050D02*
X36000Y-12600D01*
X35200Y-12050D02*
X35450Y-12050D01*
X35010Y-11860D02*
X35200Y-12050D01*
X35010Y-11010D02*
X35010Y-11860D01*
X35625Y-14817D02*
X35625Y-14595D01*
X35370Y-13230D02*
X36000Y-12600D01*
X35370Y-14340D02*
X35370Y-13230D01*
X35625Y-14595D02*
X35370Y-14340D01*
X36500Y-10500D02*
X36500Y-10820D01*
X36690Y-12040D02*
X37250Y-12600D01*
X36280Y-12040D02*
X36690Y-12040D01*
X36020Y-11780D02*
X36280Y-12040D01*
X36020Y-11300D02*
X36020Y-11780D01*
X36500Y-10820D02*
X36020Y-11300D01*
X37625Y-15683D02*
X37625Y-15195D01*
X36620Y-13230D02*
X37250Y-12600D01*
X36620Y-14300D02*
X36620Y-13230D01*
X36720Y-14400D02*
X36620Y-14300D01*
X37490Y-14400D02*
X36720Y-14400D01*
X37670Y-14580D02*
X37490Y-14400D01*
X37670Y-15150D02*
X37670Y-14580D01*
X37625Y-15195D02*
X37670Y-15150D01*
X32500Y-11500D02*
X32500Y-12350D01*
X32500Y-12350D02*
X32250Y-12600D01*
X32625Y-15683D02*
X32625Y-15225D01*
X31620Y-13230D02*
X32250Y-12600D01*
X31620Y-14320D02*
X31620Y-13230D01*
X31700Y-14400D02*
X31620Y-14320D01*
X32510Y-14400D02*
X31700Y-14400D01*
X32690Y-14580D02*
X32510Y-14400D01*
X32690Y-15160D02*
X32690Y-14580D01*
X32625Y-15225D02*
X32690Y-15160D01*
X29500Y-11500D02*
X29500Y-11600D01*
X29500Y-11600D02*
X28500Y-12600D01*
X28125Y-14817D02*
X28125Y-14625D01*
X27880Y-13220D02*
X28500Y-12600D01*
X27880Y-14380D02*
X27880Y-13220D01*
X28125Y-14625D02*
X27880Y-14380D01*
X42000Y-16750D02*
X42000Y-17600D01*
X42000Y-17600D02*
X42250Y-17850D01*
X42250Y-14817D02*
X42250Y-16500D01*
X42250Y-16500D02*
X42000Y-16750D01*
X43000Y-16750D02*
X43000Y-17350D01*
X43000Y-17350D02*
X43500Y-17850D01*
X43500Y-15683D02*
X43500Y-16250D01*
X43500Y-16250D02*
X43000Y-16750D01*
X30525Y-17255D02*
X30345Y-17255D01*
X30345Y-17255D02*
X29750Y-17850D01*
X31000Y-16750D02*
X31000Y-16780D01*
X31000Y-16780D02*
X30525Y-17255D01*
X30525Y-17255D02*
X30520Y-17260D01*
X29750Y-14817D02*
X29750Y-15950D01*
X30450Y-16200D02*
X31000Y-16750D01*
X30000Y-16200D02*
X30450Y-16200D01*
X29750Y-15950D02*
X30000Y-16200D01*
X32000Y-16750D02*
X32000Y-16683D01*
X32000Y-16683D02*
X31000Y-15683D01*
X32000Y-16850D02*
X31000Y-17850D01*
X32000Y-16750D02*
X32000Y-16850D01*
X34000Y-16750D02*
X34000Y-17350D01*
X34000Y-17350D02*
X33500Y-17850D01*
X33500Y-15683D02*
X33500Y-16250D01*
X33500Y-16250D02*
X34000Y-16750D01*
X34750Y-17850D02*
X34750Y-17000D01*
X34750Y-17000D02*
X35000Y-16750D01*
X34750Y-14817D02*
X34750Y-16500D01*
X34750Y-16500D02*
X35000Y-16750D01*
X36000Y-16750D02*
X36000Y-17850D01*
X36000Y-15683D02*
X36000Y-16750D01*
X37000Y-16750D02*
X37000Y-17600D01*
X37000Y-17600D02*
X37250Y-17850D01*
X37250Y-14817D02*
X37250Y-16500D01*
X37250Y-16500D02*
X37000Y-16750D01*
X33000Y-16750D02*
X33000Y-17100D01*
X33000Y-17100D02*
X32250Y-17850D01*
X32250Y-14817D02*
X32250Y-16000D01*
X32250Y-16000D02*
X33000Y-16750D01*
X30000Y-16750D02*
X29600Y-16750D01*
X29600Y-16750D02*
X28500Y-17850D01*
X28500Y-15683D02*
X28500Y-15850D01*
X29400Y-16750D02*
X30000Y-16750D01*
X28500Y-15850D02*
X29400Y-16750D01*
X40000Y-16750D02*
X40000Y-17600D01*
X40000Y-17600D02*
X39750Y-17850D01*
X39750Y-14817D02*
X39750Y-16500D01*
X39750Y-16500D02*
X40000Y-16750D01*
X39000Y-16750D02*
X39000Y-17350D01*
X39000Y-17350D02*
X38500Y-17850D01*
X39000Y-16750D02*
X38900Y-16750D01*
X38500Y-16350D02*
X38500Y-15683D01*
X38900Y-16750D02*
X38500Y-16350D01*
X28000Y-16750D02*
X28000Y-17100D01*
X28000Y-17100D02*
X27250Y-17850D01*
X27250Y-14817D02*
X27250Y-16150D01*
X27850Y-16750D02*
X28000Y-16750D01*
X27250Y-16150D02*
X27850Y-16750D01*
X32000Y-20750D02*
X29817Y-20750D01*
X32000Y-20750D02*
X33350Y-20750D01*
X41000Y-16750D02*
X41000Y-17850D01*
X41000Y-15683D02*
X41000Y-16750D01*
X32000Y-21750D02*
X33100Y-21750D01*
X33100Y-21750D02*
X33350Y-22000D01*
X30683Y-22000D02*
X31750Y-22000D01*
X31750Y-22000D02*
X32000Y-21750D01*
X26000Y-17850D02*
X26000Y-17750D01*
X26000Y-17750D02*
X27000Y-16750D01*
X26000Y-15683D02*
X26000Y-15750D01*
X26000Y-15750D02*
X27000Y-16750D01*
X39750Y-11630D02*
X39750Y-12600D01*
X40125Y-15683D02*
X40125Y-15215D01*
X39120Y-13230D02*
X39750Y-12600D01*
X39120Y-14310D02*
X39120Y-13230D01*
X39210Y-14400D02*
X39120Y-14310D01*
X40000Y-14400D02*
X39210Y-14400D01*
X40190Y-14590D02*
X40000Y-14400D01*
X40190Y-15150D02*
X40190Y-14590D01*
X40125Y-15215D02*
X40190Y-15150D01*
X35500Y-11500D02*
X35500Y-11230D01*
X37940Y-12040D02*
X38500Y-12600D01*
X37260Y-12040D02*
X37940Y-12040D01*
X37010Y-11790D02*
X37260Y-12040D01*
X37010Y-10240D02*
X37010Y-11790D01*
X36730Y-9960D02*
X37010Y-10240D01*
X36150Y-9960D02*
X36730Y-9960D01*
X35980Y-10130D02*
X36150Y-9960D01*
X35980Y-10750D02*
X35980Y-10130D01*
X35500Y-11230D02*
X35980Y-10750D01*
X38125Y-14817D02*
X38125Y-14645D01*
X37870Y-13230D02*
X38500Y-12600D01*
X37870Y-14390D02*
X37870Y-13230D01*
X38125Y-14645D02*
X37870Y-14390D01*
X30500Y-10500D02*
X30500Y-10520D01*
X27010Y-12360D02*
X27250Y-12600D01*
X27010Y-11260D02*
X27010Y-12360D01*
X27270Y-11000D02*
X27010Y-11260D01*
X30020Y-11000D02*
X27270Y-11000D01*
X30500Y-10520D02*
X30020Y-11000D01*
X27625Y-15683D02*
X27625Y-15175D01*
X26630Y-13220D02*
X27250Y-12600D01*
X26630Y-14310D02*
X26630Y-13220D01*
X26720Y-14400D02*
X26630Y-14310D01*
X27510Y-14400D02*
X26720Y-14400D01*
X27690Y-14580D02*
X27510Y-14400D01*
X27690Y-15110D02*
X27690Y-14580D01*
X27625Y-15175D02*
X27690Y-15110D01*
X29260Y-19950D02*
X29300Y-19950D01*
X30683Y-20375D02*
X30625Y-20375D01*
X28150Y-19950D02*
X27350Y-20750D01*
X30200Y-19950D02*
X29310Y-19950D01*
X29310Y-19950D02*
X29300Y-19950D01*
X29300Y-19950D02*
X28150Y-19950D01*
X30625Y-20375D02*
X30200Y-19950D01*
X41000Y-11630D02*
X41000Y-12600D01*
X40625Y-14817D02*
X40625Y-14625D01*
X40370Y-13230D02*
X41000Y-12600D01*
X40370Y-14370D02*
X40370Y-13230D01*
X40625Y-14625D02*
X40370Y-14370D01*
X29300Y-22850D02*
X28950Y-22850D01*
X28950Y-22850D02*
X28800Y-22850D01*
X28800Y-22850D02*
X28700Y-22850D01*
X28700Y-22850D02*
X28650Y-22850D01*
X28650Y-22850D02*
X28100Y-22850D01*
X29775Y-22375D02*
X29300Y-22850D01*
X29817Y-22375D02*
X29775Y-22375D01*
X27350Y-22100D02*
X27350Y-22000D01*
X28100Y-22850D02*
X27350Y-22100D01*
X29500Y-10500D02*
X29500Y-10000D01*
X25800Y-12400D02*
X26000Y-12600D01*
X25800Y-10000D02*
X25800Y-12400D01*
X26000Y-9800D02*
X25800Y-10000D01*
X29300Y-9800D02*
X26000Y-9800D01*
X29500Y-10000D02*
X29300Y-9800D01*
X26000Y-12600D02*
X25850Y-12600D01*
X25300Y-14492D02*
X25625Y-14817D01*
X25300Y-13150D02*
X25300Y-14492D01*
X25850Y-12600D02*
X25300Y-13150D01*
G54D28*
X37800Y-25361D02*
X36939Y-25361D01*
X33150Y-23950D02*
X31900Y-23950D01*
X35000Y-25800D02*
X33150Y-23950D01*
X36500Y-25800D02*
X35000Y-25800D01*
X36939Y-25361D02*
X36500Y-25800D01*
X28441Y-26000D02*
X28441Y-25559D01*
X30050Y-23950D02*
X31900Y-23950D01*
X28441Y-25559D02*
X30050Y-23950D01*
X37800Y-26031D02*
X37109Y-26031D01*
X36430Y-26710D02*
X35250Y-26710D01*
X37109Y-26031D02*
X36430Y-26710D01*
X37800Y-26031D02*
X38459Y-26031D01*
X36385Y-22635D02*
X36385Y-21640D01*
X38840Y-25090D02*
X36385Y-22635D01*
X38840Y-25650D02*
X38840Y-25090D01*
X38459Y-26031D02*
X38840Y-25650D01*
G54D10*
G36*
X29122Y-10099D02*
X29034Y-10188D01*
X29002Y-10263D01*
X28981Y-10212D01*
X28885Y-10184D01*
X28570Y-10500D01*
X28576Y-10505D01*
X28505Y-10576D01*
X28500Y-10570D01*
X28494Y-10576D01*
X28423Y-10505D01*
X28429Y-10500D01*
X28114Y-10184D01*
X28018Y-10212D01*
X27999Y-10267D01*
X27966Y-10188D01*
X27877Y-10099D01*
X28189Y-10099D01*
X28184Y-10114D01*
X28500Y-10429D01*
X28815Y-10114D01*
X28810Y-10099D01*
X29122Y-10099D01*
X29122Y-10099D01*
G37*
G54D29*
X29122Y-10099D02*
X29034Y-10188D01*
X29002Y-10263D01*
X28981Y-10212D01*
X28885Y-10184D01*
X28570Y-10500D01*
X28576Y-10505D01*
X28505Y-10576D01*
X28500Y-10570D01*
X28494Y-10576D01*
X28423Y-10505D01*
X28429Y-10500D01*
X28114Y-10184D01*
X28018Y-10212D01*
X27999Y-10267D01*
X27966Y-10188D01*
X27877Y-10099D01*
X28189Y-10099D01*
X28184Y-10114D01*
X28500Y-10429D01*
X28815Y-10114D01*
X28810Y-10099D01*
X29122Y-10099D01*
G54D10*
G36*
X31269Y-10999D02*
X31188Y-11033D01*
X31034Y-11188D01*
X31002Y-11263D01*
X30981Y-11212D01*
X30885Y-11184D01*
X30570Y-11500D01*
X30576Y-11505D01*
X30505Y-11576D01*
X30500Y-11570D01*
X30494Y-11576D01*
X30423Y-11505D01*
X30429Y-11500D01*
X30423Y-11494D01*
X30494Y-11423D01*
X30500Y-11429D01*
X30815Y-11114D01*
X30787Y-11018D01*
X30732Y-10999D01*
X30811Y-10966D01*
X30965Y-10811D01*
X30999Y-10730D01*
X31033Y-10811D01*
X31188Y-10965D01*
X31269Y-10999D01*
X31269Y-10999D01*
G37*
G54D29*
X31269Y-10999D02*
X31188Y-11033D01*
X31034Y-11188D01*
X31002Y-11263D01*
X30981Y-11212D01*
X30885Y-11184D01*
X30570Y-11500D01*
X30576Y-11505D01*
X30505Y-11576D01*
X30500Y-11570D01*
X30494Y-11576D01*
X30423Y-11505D01*
X30429Y-11500D01*
X30423Y-11494D01*
X30494Y-11423D01*
X30500Y-11429D01*
X30815Y-11114D01*
X30787Y-11018D01*
X30732Y-10999D01*
X30811Y-10966D01*
X30965Y-10811D01*
X30999Y-10730D01*
X31033Y-10811D01*
X31188Y-10965D01*
X31269Y-10999D01*
G54D10*
G36*
X35936Y-9750D02*
X35768Y-9918D01*
X35718Y-9993D01*
X35581Y-9945D01*
X35363Y-9956D01*
X35212Y-10018D01*
X35184Y-10114D01*
X35500Y-10429D01*
X35505Y-10423D01*
X35576Y-10494D01*
X35570Y-10500D01*
X35576Y-10505D01*
X35505Y-10576D01*
X35500Y-10570D01*
X35494Y-10576D01*
X35423Y-10505D01*
X35429Y-10500D01*
X35114Y-10184D01*
X35018Y-10212D01*
X34999Y-10267D01*
X34966Y-10188D01*
X34811Y-10034D01*
X34609Y-9950D01*
X34391Y-9949D01*
X34188Y-10033D01*
X34034Y-10188D01*
X34000Y-10269D01*
X33966Y-10188D01*
X33811Y-10034D01*
X33609Y-9950D01*
X33391Y-9949D01*
X33188Y-10033D01*
X33034Y-10188D01*
X33002Y-10263D01*
X32981Y-10212D01*
X32885Y-10184D01*
X32815Y-10255D01*
X32815Y-10114D01*
X32787Y-10018D01*
X32581Y-9945D01*
X32363Y-9956D01*
X32212Y-10018D01*
X32184Y-10114D01*
X32500Y-10429D01*
X32815Y-10114D01*
X32815Y-10255D01*
X32570Y-10500D01*
X32885Y-10815D01*
X32981Y-10787D01*
X33000Y-10732D01*
X33033Y-10811D01*
X33188Y-10965D01*
X33269Y-10999D01*
X33188Y-11033D01*
X33034Y-11188D01*
X33000Y-11269D01*
X32966Y-11188D01*
X32811Y-11034D01*
X32736Y-11002D01*
X32787Y-10981D01*
X32815Y-10885D01*
X32500Y-10570D01*
X32494Y-10576D01*
X32423Y-10505D01*
X32429Y-10500D01*
X32114Y-10184D01*
X32018Y-10212D01*
X31999Y-10267D01*
X31966Y-10188D01*
X31811Y-10034D01*
X31609Y-9950D01*
X31391Y-9949D01*
X31188Y-10033D01*
X31034Y-10188D01*
X31000Y-10269D01*
X30966Y-10188D01*
X30811Y-10034D01*
X30609Y-9950D01*
X30391Y-9949D01*
X30188Y-10033D01*
X30034Y-10188D01*
X30000Y-10269D01*
X29966Y-10188D01*
X29811Y-10034D01*
X29799Y-10028D01*
X29799Y-10000D01*
X29776Y-9885D01*
X29776Y-9885D01*
X29711Y-9788D01*
X29673Y-9750D01*
X35936Y-9750D01*
X35936Y-9750D01*
G37*
G54D29*
X35936Y-9750D02*
X35768Y-9918D01*
X35718Y-9993D01*
X35581Y-9945D01*
X35363Y-9956D01*
X35212Y-10018D01*
X35184Y-10114D01*
X35500Y-10429D01*
X35505Y-10423D01*
X35576Y-10494D01*
X35570Y-10500D01*
X35576Y-10505D01*
X35505Y-10576D01*
X35500Y-10570D01*
X35494Y-10576D01*
X35423Y-10505D01*
X35429Y-10500D01*
X35114Y-10184D01*
X35018Y-10212D01*
X34999Y-10267D01*
X34966Y-10188D01*
X34811Y-10034D01*
X34609Y-9950D01*
X34391Y-9949D01*
X34188Y-10033D01*
X34034Y-10188D01*
X34000Y-10269D01*
X33966Y-10188D01*
X33811Y-10034D01*
X33609Y-9950D01*
X33391Y-9949D01*
X33188Y-10033D01*
X33034Y-10188D01*
X33002Y-10263D01*
X32981Y-10212D01*
X32885Y-10184D01*
X32815Y-10255D01*
X32815Y-10114D01*
X32787Y-10018D01*
X32581Y-9945D01*
X32363Y-9956D01*
X32212Y-10018D01*
X32184Y-10114D01*
X32500Y-10429D01*
X32815Y-10114D01*
X32815Y-10255D01*
X32570Y-10500D01*
X32885Y-10815D01*
X32981Y-10787D01*
X33000Y-10732D01*
X33033Y-10811D01*
X33188Y-10965D01*
X33269Y-10999D01*
X33188Y-11033D01*
X33034Y-11188D01*
X33000Y-11269D01*
X32966Y-11188D01*
X32811Y-11034D01*
X32736Y-11002D01*
X32787Y-10981D01*
X32815Y-10885D01*
X32500Y-10570D01*
X32494Y-10576D01*
X32423Y-10505D01*
X32429Y-10500D01*
X32114Y-10184D01*
X32018Y-10212D01*
X31999Y-10267D01*
X31966Y-10188D01*
X31811Y-10034D01*
X31609Y-9950D01*
X31391Y-9949D01*
X31188Y-10033D01*
X31034Y-10188D01*
X31000Y-10269D01*
X30966Y-10188D01*
X30811Y-10034D01*
X30609Y-9950D01*
X30391Y-9949D01*
X30188Y-10033D01*
X30034Y-10188D01*
X30000Y-10269D01*
X29966Y-10188D01*
X29811Y-10034D01*
X29799Y-10028D01*
X29799Y-10000D01*
X29776Y-9885D01*
X29776Y-9885D01*
X29711Y-9788D01*
X29673Y-9750D01*
X35936Y-9750D01*
G54D10*
G36*
X42107Y-26750D02*
X42100Y-26750D01*
X42100Y-26757D01*
X42000Y-26757D01*
X42000Y-26750D01*
X41992Y-26750D01*
X41992Y-26650D01*
X42000Y-26650D01*
X42000Y-26642D01*
X42100Y-26642D01*
X42100Y-26650D01*
X42107Y-26650D01*
X42107Y-26750D01*
X42107Y-26750D01*
G37*
G54D29*
X42107Y-26750D02*
X42100Y-26750D01*
X42100Y-26757D01*
X42000Y-26757D01*
X42000Y-26750D01*
X41992Y-26750D01*
X41992Y-26650D01*
X42000Y-26650D01*
X42000Y-26642D01*
X42100Y-26642D01*
X42100Y-26650D01*
X42107Y-26650D01*
X42107Y-26750D01*
G54D10*
G36*
X43200Y-12049D02*
X43050Y-12049D01*
X42958Y-12087D01*
X42888Y-12158D01*
X42875Y-12189D01*
X42862Y-12158D01*
X42791Y-12088D01*
X42699Y-12050D01*
X42600Y-12049D01*
X42549Y-12049D01*
X42549Y-11911D01*
X42580Y-11881D01*
X42644Y-11724D01*
X42645Y-11555D01*
X42580Y-11399D01*
X42461Y-11279D01*
X42304Y-11215D01*
X42135Y-11214D01*
X41979Y-11279D01*
X41859Y-11398D01*
X41795Y-11555D01*
X41794Y-11724D01*
X41859Y-11880D01*
X41950Y-11971D01*
X41950Y-12049D01*
X41800Y-12049D01*
X41708Y-12087D01*
X41638Y-12158D01*
X41625Y-12189D01*
X41612Y-12158D01*
X41541Y-12088D01*
X41449Y-12050D01*
X41350Y-12049D01*
X41299Y-12049D01*
X41299Y-11931D01*
X41360Y-11871D01*
X41424Y-11714D01*
X41425Y-11545D01*
X41360Y-11389D01*
X41241Y-11269D01*
X41084Y-11205D01*
X40915Y-11204D01*
X40759Y-11269D01*
X40639Y-11388D01*
X40575Y-11545D01*
X40574Y-11714D01*
X40639Y-11870D01*
X40700Y-11931D01*
X40700Y-12049D01*
X40550Y-12049D01*
X40458Y-12087D01*
X40388Y-12158D01*
X40375Y-12189D01*
X40362Y-12158D01*
X40291Y-12088D01*
X40199Y-12050D01*
X40100Y-12049D01*
X40049Y-12049D01*
X40049Y-11931D01*
X40110Y-11871D01*
X40174Y-11714D01*
X40175Y-11545D01*
X40110Y-11389D01*
X39991Y-11269D01*
X39834Y-11205D01*
X39665Y-11204D01*
X39509Y-11269D01*
X39389Y-11388D01*
X39325Y-11545D01*
X39324Y-11714D01*
X39389Y-11870D01*
X39450Y-11931D01*
X39450Y-12049D01*
X39300Y-12049D01*
X39208Y-12087D01*
X39138Y-12158D01*
X39125Y-12189D01*
X39112Y-12158D01*
X39054Y-12101D01*
X39054Y-11581D01*
X39043Y-11363D01*
X38981Y-11212D01*
X38885Y-11184D01*
X38570Y-11500D01*
X38885Y-11815D01*
X38981Y-11787D01*
X39054Y-11581D01*
X39054Y-12101D01*
X39041Y-12088D01*
X38949Y-12050D01*
X38850Y-12049D01*
X38514Y-12049D01*
X38636Y-12043D01*
X38787Y-11981D01*
X38815Y-11885D01*
X38500Y-11570D01*
X38494Y-11576D01*
X38423Y-11505D01*
X38429Y-11500D01*
X38114Y-11184D01*
X38018Y-11212D01*
X37999Y-11267D01*
X37966Y-11188D01*
X37811Y-11034D01*
X37730Y-11000D01*
X37811Y-10966D01*
X37965Y-10811D01*
X37999Y-10730D01*
X38033Y-10811D01*
X38188Y-10965D01*
X38263Y-10997D01*
X38212Y-11018D01*
X38184Y-11114D01*
X38500Y-11429D01*
X38815Y-11114D01*
X38787Y-11018D01*
X38732Y-10999D01*
X38811Y-10966D01*
X38965Y-10811D01*
X38970Y-10800D01*
X42945Y-10800D01*
X43200Y-11054D01*
X43200Y-12049D01*
X43200Y-12049D01*
G37*
G54D29*
X43200Y-12049D02*
X43050Y-12049D01*
X42958Y-12087D01*
X42888Y-12158D01*
X42875Y-12189D01*
X42862Y-12158D01*
X42791Y-12088D01*
X42699Y-12050D01*
X42600Y-12049D01*
X42549Y-12049D01*
X42549Y-11911D01*
X42580Y-11881D01*
X42644Y-11724D01*
X42645Y-11555D01*
X42580Y-11399D01*
X42461Y-11279D01*
X42304Y-11215D01*
X42135Y-11214D01*
X41979Y-11279D01*
X41859Y-11398D01*
X41795Y-11555D01*
X41794Y-11724D01*
X41859Y-11880D01*
X41950Y-11971D01*
X41950Y-12049D01*
X41800Y-12049D01*
X41708Y-12087D01*
X41638Y-12158D01*
X41625Y-12189D01*
X41612Y-12158D01*
X41541Y-12088D01*
X41449Y-12050D01*
X41350Y-12049D01*
X41299Y-12049D01*
X41299Y-11931D01*
X41360Y-11871D01*
X41424Y-11714D01*
X41425Y-11545D01*
X41360Y-11389D01*
X41241Y-11269D01*
X41084Y-11205D01*
X40915Y-11204D01*
X40759Y-11269D01*
X40639Y-11388D01*
X40575Y-11545D01*
X40574Y-11714D01*
X40639Y-11870D01*
X40700Y-11931D01*
X40700Y-12049D01*
X40550Y-12049D01*
X40458Y-12087D01*
X40388Y-12158D01*
X40375Y-12189D01*
X40362Y-12158D01*
X40291Y-12088D01*
X40199Y-12050D01*
X40100Y-12049D01*
X40049Y-12049D01*
X40049Y-11931D01*
X40110Y-11871D01*
X40174Y-11714D01*
X40175Y-11545D01*
X40110Y-11389D01*
X39991Y-11269D01*
X39834Y-11205D01*
X39665Y-11204D01*
X39509Y-11269D01*
X39389Y-11388D01*
X39325Y-11545D01*
X39324Y-11714D01*
X39389Y-11870D01*
X39450Y-11931D01*
X39450Y-12049D01*
X39300Y-12049D01*
X39208Y-12087D01*
X39138Y-12158D01*
X39125Y-12189D01*
X39112Y-12158D01*
X39054Y-12101D01*
X39054Y-11581D01*
X39043Y-11363D01*
X38981Y-11212D01*
X38885Y-11184D01*
X38570Y-11500D01*
X38885Y-11815D01*
X38981Y-11787D01*
X39054Y-11581D01*
X39054Y-12101D01*
X39041Y-12088D01*
X38949Y-12050D01*
X38850Y-12049D01*
X38514Y-12049D01*
X38636Y-12043D01*
X38787Y-11981D01*
X38815Y-11885D01*
X38500Y-11570D01*
X38494Y-11576D01*
X38423Y-11505D01*
X38429Y-11500D01*
X38114Y-11184D01*
X38018Y-11212D01*
X37999Y-11267D01*
X37966Y-11188D01*
X37811Y-11034D01*
X37730Y-11000D01*
X37811Y-10966D01*
X37965Y-10811D01*
X37999Y-10730D01*
X38033Y-10811D01*
X38188Y-10965D01*
X38263Y-10997D01*
X38212Y-11018D01*
X38184Y-11114D01*
X38500Y-11429D01*
X38815Y-11114D01*
X38787Y-11018D01*
X38732Y-10999D01*
X38811Y-10966D01*
X38965Y-10811D01*
X38970Y-10800D01*
X42945Y-10800D01*
X43200Y-11054D01*
X43200Y-12049D01*
G54D10*
G36*
X44250Y-14491D02*
X44244Y-14478D01*
X44174Y-14408D01*
X44083Y-14370D01*
X44111Y-14341D01*
X44149Y-14249D01*
X44150Y-14150D01*
X44150Y-13550D01*
X44112Y-13458D01*
X44041Y-13388D01*
X43949Y-13350D01*
X43918Y-13350D01*
X43924Y-13334D01*
X43925Y-13165D01*
X43918Y-13150D01*
X43949Y-13150D01*
X44041Y-13112D01*
X44111Y-13041D01*
X44149Y-12949D01*
X44150Y-12850D01*
X44150Y-12250D01*
X44112Y-12158D01*
X44041Y-12088D01*
X43949Y-12050D01*
X43850Y-12049D01*
X43800Y-12049D01*
X43800Y-10930D01*
X43777Y-10815D01*
X43712Y-10717D01*
X43282Y-10287D01*
X43184Y-10222D01*
X43070Y-10200D01*
X38971Y-10200D01*
X38966Y-10188D01*
X38811Y-10034D01*
X38609Y-9950D01*
X38391Y-9949D01*
X38188Y-10033D01*
X38034Y-10188D01*
X38000Y-10269D01*
X37966Y-10188D01*
X37811Y-10034D01*
X37609Y-9950D01*
X37391Y-9949D01*
X37215Y-10022D01*
X36943Y-9750D01*
X44250Y-9750D01*
X44250Y-14491D01*
X44250Y-14491D01*
G37*
G54D29*
X44250Y-14491D02*
X44244Y-14478D01*
X44174Y-14408D01*
X44083Y-14370D01*
X44111Y-14341D01*
X44149Y-14249D01*
X44150Y-14150D01*
X44150Y-13550D01*
X44112Y-13458D01*
X44041Y-13388D01*
X43949Y-13350D01*
X43918Y-13350D01*
X43924Y-13334D01*
X43925Y-13165D01*
X43918Y-13150D01*
X43949Y-13150D01*
X44041Y-13112D01*
X44111Y-13041D01*
X44149Y-12949D01*
X44150Y-12850D01*
X44150Y-12250D01*
X44112Y-12158D01*
X44041Y-12088D01*
X43949Y-12050D01*
X43850Y-12049D01*
X43800Y-12049D01*
X43800Y-10930D01*
X43777Y-10815D01*
X43712Y-10717D01*
X43282Y-10287D01*
X43184Y-10222D01*
X43070Y-10200D01*
X38971Y-10200D01*
X38966Y-10188D01*
X38811Y-10034D01*
X38609Y-9950D01*
X38391Y-9949D01*
X38188Y-10033D01*
X38034Y-10188D01*
X38000Y-10269D01*
X37966Y-10188D01*
X37811Y-10034D01*
X37609Y-9950D01*
X37391Y-9949D01*
X37215Y-10022D01*
X36943Y-9750D01*
X44250Y-9750D01*
X44250Y-14491D01*
G54D10*
G36*
X44250Y-24479D02*
X44230Y-24432D01*
X44160Y-24362D01*
X44068Y-24324D01*
X43968Y-24323D01*
X43074Y-24323D01*
X43074Y-22957D01*
X43036Y-22865D01*
X42965Y-22795D01*
X42873Y-22757D01*
X42774Y-22756D01*
X42562Y-22757D01*
X42500Y-22819D01*
X42500Y-23823D01*
X43011Y-23823D01*
X43074Y-23760D01*
X43074Y-22957D01*
X43074Y-24323D01*
X43074Y-24323D01*
X43074Y-23985D01*
X43011Y-23923D01*
X42500Y-23923D01*
X42500Y-23930D01*
X42400Y-23930D01*
X42400Y-23923D01*
X42400Y-23823D01*
X42400Y-22819D01*
X42337Y-22757D01*
X42125Y-22756D01*
X42026Y-22757D01*
X41934Y-22795D01*
X41863Y-22865D01*
X41825Y-22957D01*
X41826Y-23760D01*
X41888Y-23823D01*
X42400Y-23823D01*
X42400Y-23923D01*
X41888Y-23923D01*
X41826Y-23985D01*
X41825Y-24323D01*
X40131Y-24323D01*
X40031Y-24324D01*
X39939Y-24362D01*
X39926Y-24375D01*
X39926Y-22362D01*
X40372Y-22362D01*
X40463Y-22324D01*
X40534Y-22254D01*
X40572Y-22162D01*
X40572Y-22062D01*
X40572Y-21234D01*
X40912Y-20894D01*
X41825Y-20894D01*
X41825Y-21363D01*
X41863Y-21455D01*
X41934Y-21525D01*
X42026Y-21563D01*
X42125Y-21564D01*
X42873Y-21564D01*
X42965Y-21526D01*
X43035Y-21455D01*
X43073Y-21363D01*
X43074Y-21264D01*
X43074Y-21189D01*
X43172Y-21125D01*
X43208Y-21091D01*
X43245Y-21065D01*
X43815Y-20495D01*
X43912Y-20351D01*
X43946Y-20180D01*
X43946Y-20180D01*
X43946Y-19700D01*
X43949Y-19700D01*
X44041Y-19662D01*
X44111Y-19591D01*
X44149Y-19499D01*
X44150Y-19400D01*
X44150Y-18800D01*
X44112Y-18708D01*
X44041Y-18638D01*
X43949Y-18600D01*
X43850Y-18599D01*
X43050Y-18599D01*
X42958Y-18637D01*
X42893Y-18703D01*
X42856Y-18703D01*
X42791Y-18638D01*
X42699Y-18600D01*
X42600Y-18599D01*
X41800Y-18599D01*
X41708Y-18637D01*
X41643Y-18703D01*
X41606Y-18703D01*
X41541Y-18638D01*
X41449Y-18600D01*
X41350Y-18599D01*
X40550Y-18599D01*
X40458Y-18637D01*
X40393Y-18703D01*
X40356Y-18703D01*
X40291Y-18638D01*
X40199Y-18600D01*
X40100Y-18599D01*
X39300Y-18599D01*
X39208Y-18637D01*
X39143Y-18703D01*
X39106Y-18703D01*
X39041Y-18638D01*
X38949Y-18600D01*
X38850Y-18599D01*
X38050Y-18599D01*
X37958Y-18637D01*
X37893Y-18703D01*
X37856Y-18703D01*
X37791Y-18638D01*
X37699Y-18600D01*
X37600Y-18599D01*
X36800Y-18599D01*
X36708Y-18637D01*
X36643Y-18703D01*
X36606Y-18703D01*
X36541Y-18638D01*
X36449Y-18600D01*
X36350Y-18599D01*
X35550Y-18599D01*
X35458Y-18637D01*
X35393Y-18703D01*
X35356Y-18703D01*
X35291Y-18638D01*
X35199Y-18600D01*
X35100Y-18599D01*
X34300Y-18599D01*
X34208Y-18637D01*
X34143Y-18703D01*
X34106Y-18703D01*
X34041Y-18638D01*
X33949Y-18600D01*
X33850Y-18599D01*
X33050Y-18599D01*
X32958Y-18637D01*
X32893Y-18703D01*
X32856Y-18703D01*
X32791Y-18638D01*
X32699Y-18600D01*
X32600Y-18599D01*
X31800Y-18599D01*
X31708Y-18637D01*
X31643Y-18703D01*
X31606Y-18703D01*
X31541Y-18638D01*
X31449Y-18600D01*
X31350Y-18599D01*
X30550Y-18599D01*
X30458Y-18637D01*
X30393Y-18703D01*
X30356Y-18703D01*
X30291Y-18638D01*
X30199Y-18600D01*
X30100Y-18599D01*
X29300Y-18599D01*
X29208Y-18637D01*
X29143Y-18703D01*
X29106Y-18703D01*
X29041Y-18638D01*
X28949Y-18600D01*
X28850Y-18599D01*
X28050Y-18599D01*
X27958Y-18637D01*
X27893Y-18703D01*
X27856Y-18703D01*
X27791Y-18638D01*
X27699Y-18600D01*
X27600Y-18599D01*
X26800Y-18599D01*
X26708Y-18637D01*
X26643Y-18703D01*
X26606Y-18703D01*
X26541Y-18638D01*
X26449Y-18600D01*
X26350Y-18599D01*
X25550Y-18599D01*
X25458Y-18637D01*
X25388Y-18708D01*
X25350Y-18800D01*
X25349Y-18899D01*
X25349Y-19499D01*
X25387Y-19591D01*
X25458Y-19661D01*
X25550Y-19699D01*
X25553Y-19699D01*
X25553Y-20418D01*
X25534Y-20438D01*
X25450Y-20640D01*
X25449Y-20858D01*
X25533Y-21061D01*
X25688Y-21215D01*
X25769Y-21249D01*
X25688Y-21283D01*
X25534Y-21438D01*
X25450Y-21640D01*
X25449Y-21858D01*
X25533Y-22061D01*
X25672Y-22200D01*
X25650Y-22200D01*
X25558Y-22238D01*
X25487Y-22308D01*
X25449Y-22400D01*
X25450Y-22637D01*
X25512Y-22700D01*
X25950Y-22700D01*
X25950Y-22692D01*
X26050Y-22692D01*
X26050Y-22700D01*
X26487Y-22700D01*
X26550Y-22637D01*
X26550Y-22400D01*
X26512Y-22308D01*
X26441Y-22238D01*
X26349Y-22200D01*
X26327Y-22200D01*
X26465Y-22061D01*
X26549Y-21859D01*
X26550Y-21641D01*
X26466Y-21438D01*
X26311Y-21284D01*
X26230Y-21250D01*
X26311Y-21216D01*
X26465Y-21061D01*
X26549Y-20859D01*
X26550Y-20641D01*
X26466Y-20438D01*
X26446Y-20419D01*
X26446Y-19700D01*
X26449Y-19700D01*
X26541Y-19662D01*
X26606Y-19596D01*
X26643Y-19596D01*
X26708Y-19661D01*
X26800Y-19699D01*
X26899Y-19700D01*
X27699Y-19700D01*
X27791Y-19662D01*
X27856Y-19596D01*
X27893Y-19596D01*
X27958Y-19661D01*
X28016Y-19686D01*
X27938Y-19738D01*
X27938Y-19738D01*
X27938Y-19738D01*
X27576Y-20099D01*
X27000Y-20099D01*
X26908Y-20137D01*
X26838Y-20208D01*
X26800Y-20300D01*
X26799Y-20399D01*
X26799Y-21199D01*
X26837Y-21291D01*
X26908Y-21361D01*
X26939Y-21374D01*
X26908Y-21387D01*
X26838Y-21458D01*
X26800Y-21550D01*
X26799Y-21649D01*
X26799Y-22449D01*
X26837Y-22541D01*
X26908Y-22611D01*
X27000Y-22649D01*
X27099Y-22650D01*
X27476Y-22650D01*
X27888Y-23061D01*
X27888Y-23061D01*
X27953Y-23104D01*
X27985Y-23126D01*
X27985Y-23126D01*
X28099Y-23149D01*
X28100Y-23149D01*
X28348Y-23149D01*
X28408Y-23210D01*
X28565Y-23274D01*
X28734Y-23275D01*
X28890Y-23210D01*
X28951Y-23149D01*
X29300Y-23149D01*
X29414Y-23126D01*
X29511Y-23061D01*
X29790Y-22782D01*
X30063Y-22782D01*
X30155Y-22744D01*
X30225Y-22674D01*
X30263Y-22582D01*
X30264Y-22482D01*
X30264Y-22274D01*
X30273Y-22298D01*
X30344Y-22369D01*
X30436Y-22407D01*
X30535Y-22407D01*
X30929Y-22407D01*
X31021Y-22369D01*
X31091Y-22299D01*
X31091Y-22299D01*
X31648Y-22299D01*
X31650Y-22299D01*
X31749Y-22300D01*
X32349Y-22300D01*
X32441Y-22262D01*
X32511Y-22191D01*
X32549Y-22099D01*
X32550Y-22049D01*
X32799Y-22049D01*
X32799Y-22449D01*
X32837Y-22541D01*
X32908Y-22611D01*
X33000Y-22649D01*
X33099Y-22650D01*
X33699Y-22650D01*
X33791Y-22612D01*
X33861Y-22541D01*
X33899Y-22449D01*
X33900Y-22350D01*
X33900Y-21550D01*
X33862Y-21458D01*
X33791Y-21388D01*
X33760Y-21375D01*
X33791Y-21362D01*
X33861Y-21291D01*
X33899Y-21199D01*
X33900Y-21100D01*
X33900Y-20300D01*
X33862Y-20208D01*
X33791Y-20138D01*
X33699Y-20100D01*
X33600Y-20099D01*
X33000Y-20099D01*
X32908Y-20137D01*
X32838Y-20208D01*
X32800Y-20300D01*
X32799Y-20399D01*
X32799Y-20450D01*
X32471Y-20450D01*
X32466Y-20438D01*
X32311Y-20284D01*
X32109Y-20200D01*
X31891Y-20199D01*
X31688Y-20283D01*
X31534Y-20438D01*
X31528Y-20450D01*
X31130Y-20450D01*
X31130Y-20167D01*
X31092Y-20076D01*
X31021Y-20005D01*
X30929Y-19967D01*
X30830Y-19967D01*
X30640Y-19967D01*
X30411Y-19738D01*
X30314Y-19673D01*
X30280Y-19666D01*
X30291Y-19662D01*
X30356Y-19596D01*
X30393Y-19596D01*
X30458Y-19661D01*
X30550Y-19699D01*
X30649Y-19700D01*
X31449Y-19700D01*
X31541Y-19662D01*
X31606Y-19596D01*
X31643Y-19596D01*
X31708Y-19661D01*
X31800Y-19699D01*
X31899Y-19700D01*
X32699Y-19700D01*
X32791Y-19662D01*
X32856Y-19596D01*
X32893Y-19596D01*
X32958Y-19661D01*
X33050Y-19699D01*
X33149Y-19700D01*
X33949Y-19700D01*
X34041Y-19662D01*
X34106Y-19596D01*
X34143Y-19596D01*
X34208Y-19661D01*
X34300Y-19699D01*
X34303Y-19699D01*
X34303Y-20099D01*
X34300Y-20099D01*
X34208Y-20137D01*
X34138Y-20208D01*
X34100Y-20300D01*
X34099Y-20399D01*
X34099Y-21199D01*
X34137Y-21291D01*
X34203Y-21356D01*
X34203Y-21393D01*
X34138Y-21458D01*
X34100Y-21550D01*
X34099Y-21649D01*
X34099Y-22449D01*
X34137Y-22541D01*
X34208Y-22611D01*
X34300Y-22649D01*
X34399Y-22650D01*
X34999Y-22650D01*
X35091Y-22612D01*
X35161Y-22541D01*
X35199Y-22449D01*
X35200Y-22350D01*
X35200Y-21550D01*
X35162Y-21458D01*
X35096Y-21393D01*
X35096Y-21356D01*
X35161Y-21291D01*
X35199Y-21199D01*
X35200Y-21100D01*
X35200Y-20300D01*
X35196Y-20292D01*
X35196Y-19700D01*
X35199Y-19700D01*
X35291Y-19662D01*
X35356Y-19596D01*
X35393Y-19596D01*
X35458Y-19661D01*
X35550Y-19699D01*
X35649Y-19700D01*
X36449Y-19700D01*
X36541Y-19662D01*
X36606Y-19596D01*
X36643Y-19596D01*
X36708Y-19661D01*
X36800Y-19699D01*
X36899Y-19700D01*
X37699Y-19700D01*
X37791Y-19662D01*
X37856Y-19596D01*
X37893Y-19596D01*
X37958Y-19661D01*
X38050Y-19699D01*
X38149Y-19700D01*
X38949Y-19700D01*
X39041Y-19662D01*
X39106Y-19596D01*
X39143Y-19596D01*
X39208Y-19661D01*
X39300Y-19699D01*
X39399Y-19700D01*
X40199Y-19700D01*
X40291Y-19662D01*
X40356Y-19596D01*
X40393Y-19596D01*
X40458Y-19661D01*
X40550Y-19699D01*
X40649Y-19700D01*
X41449Y-19700D01*
X41541Y-19662D01*
X41606Y-19596D01*
X41643Y-19596D01*
X41708Y-19661D01*
X41800Y-19699D01*
X41825Y-19699D01*
X41825Y-20001D01*
X40727Y-20001D01*
X40555Y-20035D01*
X40411Y-20132D01*
X39625Y-20917D01*
X38697Y-20917D01*
X38606Y-20955D01*
X38535Y-21025D01*
X38497Y-21117D01*
X38497Y-21217D01*
X38497Y-22162D01*
X38535Y-22253D01*
X38605Y-22324D01*
X38697Y-22362D01*
X38797Y-22362D01*
X39033Y-22362D01*
X39033Y-24651D01*
X36831Y-22449D01*
X36831Y-22362D01*
X37222Y-22362D01*
X37313Y-22324D01*
X37384Y-22254D01*
X37422Y-22162D01*
X37422Y-22062D01*
X37422Y-21117D01*
X37384Y-21026D01*
X37314Y-20955D01*
X37222Y-20917D01*
X37122Y-20917D01*
X35547Y-20917D01*
X35456Y-20955D01*
X35385Y-21025D01*
X35347Y-21117D01*
X35347Y-21217D01*
X35347Y-22162D01*
X35385Y-22253D01*
X35455Y-22324D01*
X35547Y-22362D01*
X35647Y-22362D01*
X35938Y-22362D01*
X35938Y-22635D01*
X35972Y-22806D01*
X36069Y-22950D01*
X38004Y-24885D01*
X37300Y-24885D01*
X37232Y-24914D01*
X36964Y-24914D01*
X37049Y-24709D01*
X37050Y-24292D01*
X36890Y-23906D01*
X36595Y-23610D01*
X36209Y-23450D01*
X35792Y-23449D01*
X35406Y-23609D01*
X35110Y-23904D01*
X34950Y-24290D01*
X34949Y-24707D01*
X35109Y-25094D01*
X35368Y-25353D01*
X35185Y-25353D01*
X33465Y-23634D01*
X33321Y-23537D01*
X33150Y-23503D01*
X32543Y-23503D01*
X32543Y-22817D01*
X32505Y-22726D01*
X32435Y-22655D01*
X32343Y-22617D01*
X32243Y-22617D01*
X31456Y-22617D01*
X31365Y-22655D01*
X31294Y-22725D01*
X31256Y-22817D01*
X31256Y-22917D01*
X31256Y-23503D01*
X30050Y-23503D01*
X29878Y-23537D01*
X29734Y-23634D01*
X28307Y-25060D01*
X27702Y-25060D01*
X27610Y-25098D01*
X27540Y-25169D01*
X27502Y-25261D01*
X27501Y-25360D01*
X27501Y-26738D01*
X27539Y-26830D01*
X27610Y-26900D01*
X27634Y-26910D01*
X27372Y-26911D01*
X27310Y-26973D01*
X27310Y-27800D01*
X28136Y-27800D01*
X28199Y-27737D01*
X28199Y-27210D01*
X28198Y-27111D01*
X28160Y-27019D01*
X28090Y-26948D01*
X28066Y-26939D01*
X29179Y-26939D01*
X29271Y-26901D01*
X29341Y-26830D01*
X29379Y-26738D01*
X29380Y-26639D01*
X29380Y-25261D01*
X29377Y-25254D01*
X30235Y-24396D01*
X31256Y-24396D01*
X31256Y-25082D01*
X31294Y-25173D01*
X31364Y-25244D01*
X31456Y-25282D01*
X31556Y-25282D01*
X32343Y-25282D01*
X32434Y-25244D01*
X32505Y-25174D01*
X32543Y-25082D01*
X32543Y-24982D01*
X32543Y-24396D01*
X32964Y-24396D01*
X34684Y-26115D01*
X34684Y-26115D01*
X34706Y-26130D01*
X34706Y-26130D01*
X34675Y-26143D01*
X34605Y-26213D01*
X34567Y-26305D01*
X34566Y-26405D01*
X34566Y-27114D01*
X34604Y-27205D01*
X34675Y-27276D01*
X34767Y-27314D01*
X34866Y-27314D01*
X35732Y-27314D01*
X35824Y-27276D01*
X35894Y-27206D01*
X35915Y-27156D01*
X36430Y-27156D01*
X36601Y-27122D01*
X36601Y-27122D01*
X36745Y-27025D01*
X37142Y-26629D01*
X37162Y-26650D01*
X37750Y-26650D01*
X37750Y-26642D01*
X37850Y-26642D01*
X37850Y-26650D01*
X38437Y-26650D01*
X38500Y-26587D01*
X38500Y-26469D01*
X38630Y-26443D01*
X38630Y-26443D01*
X38774Y-26346D01*
X39033Y-26088D01*
X39033Y-26452D01*
X38563Y-26922D01*
X38500Y-26922D01*
X38500Y-26812D01*
X38437Y-26750D01*
X37850Y-26750D01*
X37850Y-26757D01*
X37750Y-26757D01*
X37750Y-26750D01*
X37162Y-26750D01*
X37100Y-26812D01*
X37099Y-26974D01*
X37124Y-27034D01*
X37100Y-27094D01*
X37099Y-27193D01*
X37099Y-27643D01*
X37124Y-27704D01*
X37099Y-27764D01*
X37100Y-27926D01*
X37162Y-27989D01*
X37750Y-27989D01*
X37750Y-27981D01*
X37850Y-27981D01*
X37850Y-27989D01*
X38437Y-27989D01*
X38500Y-27926D01*
X38500Y-27815D01*
X38749Y-27815D01*
X38920Y-27781D01*
X38920Y-27781D01*
X39064Y-27684D01*
X39795Y-26953D01*
X39795Y-26953D01*
X39831Y-26900D01*
X39831Y-28875D01*
X39839Y-28895D01*
X38500Y-28895D01*
X38500Y-28313D01*
X38500Y-28151D01*
X38437Y-28089D01*
X37850Y-28089D01*
X37850Y-28451D01*
X37912Y-28514D01*
X38200Y-28514D01*
X38299Y-28513D01*
X38391Y-28475D01*
X38462Y-28405D01*
X38500Y-28313D01*
X38500Y-28895D01*
X37750Y-28895D01*
X37750Y-28451D01*
X37750Y-28089D01*
X37162Y-28089D01*
X37100Y-28151D01*
X37099Y-28313D01*
X37137Y-28405D01*
X37208Y-28475D01*
X37300Y-28513D01*
X37399Y-28514D01*
X37687Y-28514D01*
X37750Y-28451D01*
X37750Y-28895D01*
X35933Y-28895D01*
X35933Y-28694D01*
X35933Y-27885D01*
X35895Y-27794D01*
X35824Y-27723D01*
X35732Y-27685D01*
X35633Y-27685D01*
X35362Y-27685D01*
X35300Y-27748D01*
X35300Y-28240D01*
X35870Y-28240D01*
X35933Y-28177D01*
X35933Y-27885D01*
X35933Y-28694D01*
X35933Y-28402D01*
X35870Y-28340D01*
X35300Y-28340D01*
X35300Y-28832D01*
X35362Y-28894D01*
X35633Y-28894D01*
X35732Y-28894D01*
X35824Y-28856D01*
X35895Y-28785D01*
X35933Y-28694D01*
X35933Y-28895D01*
X35200Y-28895D01*
X35200Y-28832D01*
X35200Y-28340D01*
X35200Y-28240D01*
X35200Y-27748D01*
X35137Y-27685D01*
X34866Y-27685D01*
X34767Y-27685D01*
X34675Y-27723D01*
X34604Y-27794D01*
X34566Y-27885D01*
X34567Y-28177D01*
X34629Y-28240D01*
X35200Y-28240D01*
X35200Y-28340D01*
X34629Y-28340D01*
X34567Y-28402D01*
X34566Y-28694D01*
X34604Y-28785D01*
X34675Y-28856D01*
X34767Y-28894D01*
X34866Y-28894D01*
X35137Y-28894D01*
X35200Y-28832D01*
X35200Y-28895D01*
X32483Y-28895D01*
X32505Y-28873D01*
X32543Y-28782D01*
X32543Y-26517D01*
X32505Y-26426D01*
X32435Y-26355D01*
X32343Y-26317D01*
X32243Y-26317D01*
X32012Y-26317D01*
X31950Y-26380D01*
X31950Y-27600D01*
X32481Y-27600D01*
X32543Y-27537D01*
X32543Y-26517D01*
X32543Y-28782D01*
X32543Y-27762D01*
X32481Y-27700D01*
X31950Y-27700D01*
X31950Y-27707D01*
X31850Y-27707D01*
X31850Y-27700D01*
X31850Y-27600D01*
X31850Y-26380D01*
X31787Y-26317D01*
X31556Y-26317D01*
X31456Y-26317D01*
X31364Y-26355D01*
X31294Y-26426D01*
X31256Y-26517D01*
X31256Y-27537D01*
X31319Y-27600D01*
X31850Y-27600D01*
X31850Y-27700D01*
X31319Y-27700D01*
X31256Y-27762D01*
X31256Y-28782D01*
X31294Y-28873D01*
X31316Y-28895D01*
X28199Y-28895D01*
X28199Y-28489D01*
X28199Y-27962D01*
X28136Y-27900D01*
X27310Y-27900D01*
X27310Y-28726D01*
X27372Y-28789D01*
X27998Y-28789D01*
X28090Y-28751D01*
X28160Y-28680D01*
X28198Y-28588D01*
X28199Y-28489D01*
X28199Y-28895D01*
X27210Y-28895D01*
X27210Y-28726D01*
X27210Y-27900D01*
X27210Y-27800D01*
X27210Y-26973D01*
X27147Y-26911D01*
X26885Y-26910D01*
X26909Y-26901D01*
X26979Y-26830D01*
X27017Y-26738D01*
X27018Y-26639D01*
X27018Y-25360D01*
X27017Y-25261D01*
X26979Y-25169D01*
X26909Y-25098D01*
X26817Y-25060D01*
X26550Y-25060D01*
X26550Y-23099D01*
X26550Y-22862D01*
X26487Y-22800D01*
X26050Y-22800D01*
X26050Y-23237D01*
X26112Y-23300D01*
X26250Y-23300D01*
X26349Y-23299D01*
X26441Y-23261D01*
X26512Y-23191D01*
X26550Y-23099D01*
X26550Y-25060D01*
X26191Y-25061D01*
X26129Y-25123D01*
X26129Y-25950D01*
X26955Y-25950D01*
X27018Y-25887D01*
X27018Y-25360D01*
X27018Y-26639D01*
X27018Y-26112D01*
X26955Y-26050D01*
X26129Y-26050D01*
X26129Y-26876D01*
X26191Y-26939D01*
X26453Y-26939D01*
X26429Y-26948D01*
X26359Y-27019D01*
X26321Y-27111D01*
X26320Y-27210D01*
X26321Y-27737D01*
X26383Y-27800D01*
X27210Y-27800D01*
X27210Y-27900D01*
X26383Y-27900D01*
X26321Y-27962D01*
X26320Y-28489D01*
X26321Y-28588D01*
X26359Y-28680D01*
X26429Y-28751D01*
X26521Y-28789D01*
X27147Y-28789D01*
X27210Y-28726D01*
X27210Y-28895D01*
X26029Y-28895D01*
X26029Y-26876D01*
X26029Y-26050D01*
X26029Y-25950D01*
X26029Y-25123D01*
X25966Y-25061D01*
X25950Y-25060D01*
X25950Y-23237D01*
X25950Y-22800D01*
X25512Y-22800D01*
X25450Y-22862D01*
X25449Y-23099D01*
X25487Y-23191D01*
X25558Y-23261D01*
X25650Y-23299D01*
X25749Y-23300D01*
X25887Y-23300D01*
X25950Y-23237D01*
X25950Y-25060D01*
X25340Y-25060D01*
X25248Y-25098D01*
X25178Y-25169D01*
X25140Y-25261D01*
X25139Y-25360D01*
X25140Y-25887D01*
X25202Y-25950D01*
X26029Y-25950D01*
X26029Y-26050D01*
X25202Y-26050D01*
X25140Y-26112D01*
X25139Y-26639D01*
X25140Y-26738D01*
X25178Y-26830D01*
X25248Y-26901D01*
X25340Y-26939D01*
X25966Y-26939D01*
X26029Y-26876D01*
X26029Y-28895D01*
X25104Y-28895D01*
X25104Y-14719D01*
X25217Y-14832D01*
X25217Y-15063D01*
X25255Y-15155D01*
X25325Y-15225D01*
X25417Y-15263D01*
X25517Y-15264D01*
X25725Y-15264D01*
X25701Y-15273D01*
X25630Y-15344D01*
X25592Y-15436D01*
X25592Y-15535D01*
X25592Y-15929D01*
X25630Y-16021D01*
X25700Y-16091D01*
X25792Y-16129D01*
X25892Y-16130D01*
X25956Y-16130D01*
X26449Y-16623D01*
X26449Y-16876D01*
X26026Y-17299D01*
X25550Y-17299D01*
X25458Y-17337D01*
X25388Y-17408D01*
X25350Y-17500D01*
X25349Y-17599D01*
X25349Y-18199D01*
X25387Y-18291D01*
X25458Y-18361D01*
X25550Y-18399D01*
X25649Y-18400D01*
X26449Y-18400D01*
X26541Y-18362D01*
X26611Y-18291D01*
X26624Y-18260D01*
X26637Y-18291D01*
X26708Y-18361D01*
X26800Y-18399D01*
X26899Y-18400D01*
X27699Y-18400D01*
X27791Y-18362D01*
X27861Y-18291D01*
X27874Y-18260D01*
X27887Y-18291D01*
X27958Y-18361D01*
X28050Y-18399D01*
X28149Y-18400D01*
X28949Y-18400D01*
X29041Y-18362D01*
X29111Y-18291D01*
X29124Y-18260D01*
X29137Y-18291D01*
X29208Y-18361D01*
X29300Y-18399D01*
X29399Y-18400D01*
X30199Y-18400D01*
X30291Y-18362D01*
X30361Y-18291D01*
X30374Y-18260D01*
X30387Y-18291D01*
X30458Y-18361D01*
X30550Y-18399D01*
X30649Y-18400D01*
X31449Y-18400D01*
X31541Y-18362D01*
X31611Y-18291D01*
X31624Y-18260D01*
X31637Y-18291D01*
X31708Y-18361D01*
X31800Y-18399D01*
X31899Y-18400D01*
X32699Y-18400D01*
X32791Y-18362D01*
X32861Y-18291D01*
X32874Y-18260D01*
X32887Y-18291D01*
X32958Y-18361D01*
X33050Y-18399D01*
X33149Y-18400D01*
X33949Y-18400D01*
X34041Y-18362D01*
X34111Y-18291D01*
X34124Y-18260D01*
X34137Y-18291D01*
X34208Y-18361D01*
X34300Y-18399D01*
X34399Y-18400D01*
X35199Y-18400D01*
X35291Y-18362D01*
X35361Y-18291D01*
X35374Y-18260D01*
X35387Y-18291D01*
X35458Y-18361D01*
X35550Y-18399D01*
X35649Y-18400D01*
X36449Y-18400D01*
X36541Y-18362D01*
X36611Y-18291D01*
X36624Y-18260D01*
X36637Y-18291D01*
X36708Y-18361D01*
X36800Y-18399D01*
X36899Y-18400D01*
X37699Y-18400D01*
X37791Y-18362D01*
X37861Y-18291D01*
X37874Y-18260D01*
X37887Y-18291D01*
X37958Y-18361D01*
X38050Y-18399D01*
X38149Y-18400D01*
X38949Y-18400D01*
X39041Y-18362D01*
X39111Y-18291D01*
X39124Y-18260D01*
X39137Y-18291D01*
X39208Y-18361D01*
X39300Y-18399D01*
X39399Y-18400D01*
X40199Y-18400D01*
X40291Y-18362D01*
X40361Y-18291D01*
X40374Y-18260D01*
X40387Y-18291D01*
X40458Y-18361D01*
X40550Y-18399D01*
X40649Y-18400D01*
X41449Y-18400D01*
X41541Y-18362D01*
X41611Y-18291D01*
X41624Y-18260D01*
X41637Y-18291D01*
X41708Y-18361D01*
X41800Y-18399D01*
X41899Y-18400D01*
X42699Y-18400D01*
X42791Y-18362D01*
X42861Y-18291D01*
X42874Y-18260D01*
X42887Y-18291D01*
X42958Y-18361D01*
X43050Y-18399D01*
X43149Y-18400D01*
X43949Y-18400D01*
X44041Y-18362D01*
X44111Y-18291D01*
X44149Y-18199D01*
X44150Y-18100D01*
X44150Y-17500D01*
X44112Y-17408D01*
X44041Y-17338D01*
X43949Y-17300D01*
X43850Y-17299D01*
X43373Y-17299D01*
X43299Y-17226D01*
X43299Y-17221D01*
X43311Y-17216D01*
X43465Y-17061D01*
X43549Y-16859D01*
X43550Y-16641D01*
X43544Y-16628D01*
X43711Y-16461D01*
X43776Y-16364D01*
X43776Y-16364D01*
X43799Y-16250D01*
X43799Y-16091D01*
X43869Y-16021D01*
X43907Y-15929D01*
X43907Y-15830D01*
X43907Y-15436D01*
X43869Y-15344D01*
X43799Y-15274D01*
X43774Y-15264D01*
X44082Y-15264D01*
X44173Y-15226D01*
X44244Y-15155D01*
X44250Y-15142D01*
X44250Y-24479D01*
X44250Y-24479D01*
G37*
G54D29*
X44250Y-24479D02*
X44230Y-24432D01*
X44160Y-24362D01*
X44068Y-24324D01*
X43968Y-24323D01*
X43074Y-24323D01*
X43074Y-22957D01*
X43036Y-22865D01*
X42965Y-22795D01*
X42873Y-22757D01*
X42774Y-22756D01*
X42562Y-22757D01*
X42500Y-22819D01*
X42500Y-23823D01*
X43011Y-23823D01*
X43074Y-23760D01*
X43074Y-22957D01*
X43074Y-24323D01*
X43074Y-24323D01*
X43074Y-23985D01*
X43011Y-23923D01*
X42500Y-23923D01*
X42500Y-23930D01*
X42400Y-23930D01*
X42400Y-23923D01*
X42400Y-23823D01*
X42400Y-22819D01*
X42337Y-22757D01*
X42125Y-22756D01*
X42026Y-22757D01*
X41934Y-22795D01*
X41863Y-22865D01*
X41825Y-22957D01*
X41826Y-23760D01*
X41888Y-23823D01*
X42400Y-23823D01*
X42400Y-23923D01*
X41888Y-23923D01*
X41826Y-23985D01*
X41825Y-24323D01*
X40131Y-24323D01*
X40031Y-24324D01*
X39939Y-24362D01*
X39926Y-24375D01*
X39926Y-22362D01*
X40372Y-22362D01*
X40463Y-22324D01*
X40534Y-22254D01*
X40572Y-22162D01*
X40572Y-22062D01*
X40572Y-21234D01*
X40912Y-20894D01*
X41825Y-20894D01*
X41825Y-21363D01*
X41863Y-21455D01*
X41934Y-21525D01*
X42026Y-21563D01*
X42125Y-21564D01*
X42873Y-21564D01*
X42965Y-21526D01*
X43035Y-21455D01*
X43073Y-21363D01*
X43074Y-21264D01*
X43074Y-21189D01*
X43172Y-21125D01*
X43208Y-21091D01*
X43245Y-21065D01*
X43815Y-20495D01*
X43912Y-20351D01*
X43946Y-20180D01*
X43946Y-20180D01*
X43946Y-19700D01*
X43949Y-19700D01*
X44041Y-19662D01*
X44111Y-19591D01*
X44149Y-19499D01*
X44150Y-19400D01*
X44150Y-18800D01*
X44112Y-18708D01*
X44041Y-18638D01*
X43949Y-18600D01*
X43850Y-18599D01*
X43050Y-18599D01*
X42958Y-18637D01*
X42893Y-18703D01*
X42856Y-18703D01*
X42791Y-18638D01*
X42699Y-18600D01*
X42600Y-18599D01*
X41800Y-18599D01*
X41708Y-18637D01*
X41643Y-18703D01*
X41606Y-18703D01*
X41541Y-18638D01*
X41449Y-18600D01*
X41350Y-18599D01*
X40550Y-18599D01*
X40458Y-18637D01*
X40393Y-18703D01*
X40356Y-18703D01*
X40291Y-18638D01*
X40199Y-18600D01*
X40100Y-18599D01*
X39300Y-18599D01*
X39208Y-18637D01*
X39143Y-18703D01*
X39106Y-18703D01*
X39041Y-18638D01*
X38949Y-18600D01*
X38850Y-18599D01*
X38050Y-18599D01*
X37958Y-18637D01*
X37893Y-18703D01*
X37856Y-18703D01*
X37791Y-18638D01*
X37699Y-18600D01*
X37600Y-18599D01*
X36800Y-18599D01*
X36708Y-18637D01*
X36643Y-18703D01*
X36606Y-18703D01*
X36541Y-18638D01*
X36449Y-18600D01*
X36350Y-18599D01*
X35550Y-18599D01*
X35458Y-18637D01*
X35393Y-18703D01*
X35356Y-18703D01*
X35291Y-18638D01*
X35199Y-18600D01*
X35100Y-18599D01*
X34300Y-18599D01*
X34208Y-18637D01*
X34143Y-18703D01*
X34106Y-18703D01*
X34041Y-18638D01*
X33949Y-18600D01*
X33850Y-18599D01*
X33050Y-18599D01*
X32958Y-18637D01*
X32893Y-18703D01*
X32856Y-18703D01*
X32791Y-18638D01*
X32699Y-18600D01*
X32600Y-18599D01*
X31800Y-18599D01*
X31708Y-18637D01*
X31643Y-18703D01*
X31606Y-18703D01*
X31541Y-18638D01*
X31449Y-18600D01*
X31350Y-18599D01*
X30550Y-18599D01*
X30458Y-18637D01*
X30393Y-18703D01*
X30356Y-18703D01*
X30291Y-18638D01*
X30199Y-18600D01*
X30100Y-18599D01*
X29300Y-18599D01*
X29208Y-18637D01*
X29143Y-18703D01*
X29106Y-18703D01*
X29041Y-18638D01*
X28949Y-18600D01*
X28850Y-18599D01*
X28050Y-18599D01*
X27958Y-18637D01*
X27893Y-18703D01*
X27856Y-18703D01*
X27791Y-18638D01*
X27699Y-18600D01*
X27600Y-18599D01*
X26800Y-18599D01*
X26708Y-18637D01*
X26643Y-18703D01*
X26606Y-18703D01*
X26541Y-18638D01*
X26449Y-18600D01*
X26350Y-18599D01*
X25550Y-18599D01*
X25458Y-18637D01*
X25388Y-18708D01*
X25350Y-18800D01*
X25349Y-18899D01*
X25349Y-19499D01*
X25387Y-19591D01*
X25458Y-19661D01*
X25550Y-19699D01*
X25553Y-19699D01*
X25553Y-20418D01*
X25534Y-20438D01*
X25450Y-20640D01*
X25449Y-20858D01*
X25533Y-21061D01*
X25688Y-21215D01*
X25769Y-21249D01*
X25688Y-21283D01*
X25534Y-21438D01*
X25450Y-21640D01*
X25449Y-21858D01*
X25533Y-22061D01*
X25672Y-22200D01*
X25650Y-22200D01*
X25558Y-22238D01*
X25487Y-22308D01*
X25449Y-22400D01*
X25450Y-22637D01*
X25512Y-22700D01*
X25950Y-22700D01*
X25950Y-22692D01*
X26050Y-22692D01*
X26050Y-22700D01*
X26487Y-22700D01*
X26550Y-22637D01*
X26550Y-22400D01*
X26512Y-22308D01*
X26441Y-22238D01*
X26349Y-22200D01*
X26327Y-22200D01*
X26465Y-22061D01*
X26549Y-21859D01*
X26550Y-21641D01*
X26466Y-21438D01*
X26311Y-21284D01*
X26230Y-21250D01*
X26311Y-21216D01*
X26465Y-21061D01*
X26549Y-20859D01*
X26550Y-20641D01*
X26466Y-20438D01*
X26446Y-20419D01*
X26446Y-19700D01*
X26449Y-19700D01*
X26541Y-19662D01*
X26606Y-19596D01*
X26643Y-19596D01*
X26708Y-19661D01*
X26800Y-19699D01*
X26899Y-19700D01*
X27699Y-19700D01*
X27791Y-19662D01*
X27856Y-19596D01*
X27893Y-19596D01*
X27958Y-19661D01*
X28016Y-19686D01*
X27938Y-19738D01*
X27938Y-19738D01*
X27938Y-19738D01*
X27576Y-20099D01*
X27000Y-20099D01*
X26908Y-20137D01*
X26838Y-20208D01*
X26800Y-20300D01*
X26799Y-20399D01*
X26799Y-21199D01*
X26837Y-21291D01*
X26908Y-21361D01*
X26939Y-21374D01*
X26908Y-21387D01*
X26838Y-21458D01*
X26800Y-21550D01*
X26799Y-21649D01*
X26799Y-22449D01*
X26837Y-22541D01*
X26908Y-22611D01*
X27000Y-22649D01*
X27099Y-22650D01*
X27476Y-22650D01*
X27888Y-23061D01*
X27888Y-23061D01*
X27953Y-23104D01*
X27985Y-23126D01*
X27985Y-23126D01*
X28099Y-23149D01*
X28100Y-23149D01*
X28348Y-23149D01*
X28408Y-23210D01*
X28565Y-23274D01*
X28734Y-23275D01*
X28890Y-23210D01*
X28951Y-23149D01*
X29300Y-23149D01*
X29414Y-23126D01*
X29511Y-23061D01*
X29790Y-22782D01*
X30063Y-22782D01*
X30155Y-22744D01*
X30225Y-22674D01*
X30263Y-22582D01*
X30264Y-22482D01*
X30264Y-22274D01*
X30273Y-22298D01*
X30344Y-22369D01*
X30436Y-22407D01*
X30535Y-22407D01*
X30929Y-22407D01*
X31021Y-22369D01*
X31091Y-22299D01*
X31091Y-22299D01*
X31648Y-22299D01*
X31650Y-22299D01*
X31749Y-22300D01*
X32349Y-22300D01*
X32441Y-22262D01*
X32511Y-22191D01*
X32549Y-22099D01*
X32550Y-22049D01*
X32799Y-22049D01*
X32799Y-22449D01*
X32837Y-22541D01*
X32908Y-22611D01*
X33000Y-22649D01*
X33099Y-22650D01*
X33699Y-22650D01*
X33791Y-22612D01*
X33861Y-22541D01*
X33899Y-22449D01*
X33900Y-22350D01*
X33900Y-21550D01*
X33862Y-21458D01*
X33791Y-21388D01*
X33760Y-21375D01*
X33791Y-21362D01*
X33861Y-21291D01*
X33899Y-21199D01*
X33900Y-21100D01*
X33900Y-20300D01*
X33862Y-20208D01*
X33791Y-20138D01*
X33699Y-20100D01*
X33600Y-20099D01*
X33000Y-20099D01*
X32908Y-20137D01*
X32838Y-20208D01*
X32800Y-20300D01*
X32799Y-20399D01*
X32799Y-20450D01*
X32471Y-20450D01*
X32466Y-20438D01*
X32311Y-20284D01*
X32109Y-20200D01*
X31891Y-20199D01*
X31688Y-20283D01*
X31534Y-20438D01*
X31528Y-20450D01*
X31130Y-20450D01*
X31130Y-20167D01*
X31092Y-20076D01*
X31021Y-20005D01*
X30929Y-19967D01*
X30830Y-19967D01*
X30640Y-19967D01*
X30411Y-19738D01*
X30314Y-19673D01*
X30280Y-19666D01*
X30291Y-19662D01*
X30356Y-19596D01*
X30393Y-19596D01*
X30458Y-19661D01*
X30550Y-19699D01*
X30649Y-19700D01*
X31449Y-19700D01*
X31541Y-19662D01*
X31606Y-19596D01*
X31643Y-19596D01*
X31708Y-19661D01*
X31800Y-19699D01*
X31899Y-19700D01*
X32699Y-19700D01*
X32791Y-19662D01*
X32856Y-19596D01*
X32893Y-19596D01*
X32958Y-19661D01*
X33050Y-19699D01*
X33149Y-19700D01*
X33949Y-19700D01*
X34041Y-19662D01*
X34106Y-19596D01*
X34143Y-19596D01*
X34208Y-19661D01*
X34300Y-19699D01*
X34303Y-19699D01*
X34303Y-20099D01*
X34300Y-20099D01*
X34208Y-20137D01*
X34138Y-20208D01*
X34100Y-20300D01*
X34099Y-20399D01*
X34099Y-21199D01*
X34137Y-21291D01*
X34203Y-21356D01*
X34203Y-21393D01*
X34138Y-21458D01*
X34100Y-21550D01*
X34099Y-21649D01*
X34099Y-22449D01*
X34137Y-22541D01*
X34208Y-22611D01*
X34300Y-22649D01*
X34399Y-22650D01*
X34999Y-22650D01*
X35091Y-22612D01*
X35161Y-22541D01*
X35199Y-22449D01*
X35200Y-22350D01*
X35200Y-21550D01*
X35162Y-21458D01*
X35096Y-21393D01*
X35096Y-21356D01*
X35161Y-21291D01*
X35199Y-21199D01*
X35200Y-21100D01*
X35200Y-20300D01*
X35196Y-20292D01*
X35196Y-19700D01*
X35199Y-19700D01*
X35291Y-19662D01*
X35356Y-19596D01*
X35393Y-19596D01*
X35458Y-19661D01*
X35550Y-19699D01*
X35649Y-19700D01*
X36449Y-19700D01*
X36541Y-19662D01*
X36606Y-19596D01*
X36643Y-19596D01*
X36708Y-19661D01*
X36800Y-19699D01*
X36899Y-19700D01*
X37699Y-19700D01*
X37791Y-19662D01*
X37856Y-19596D01*
X37893Y-19596D01*
X37958Y-19661D01*
X38050Y-19699D01*
X38149Y-19700D01*
X38949Y-19700D01*
X39041Y-19662D01*
X39106Y-19596D01*
X39143Y-19596D01*
X39208Y-19661D01*
X39300Y-19699D01*
X39399Y-19700D01*
X40199Y-19700D01*
X40291Y-19662D01*
X40356Y-19596D01*
X40393Y-19596D01*
X40458Y-19661D01*
X40550Y-19699D01*
X40649Y-19700D01*
X41449Y-19700D01*
X41541Y-19662D01*
X41606Y-19596D01*
X41643Y-19596D01*
X41708Y-19661D01*
X41800Y-19699D01*
X41825Y-19699D01*
X41825Y-20001D01*
X40727Y-20001D01*
X40555Y-20035D01*
X40411Y-20132D01*
X39625Y-20917D01*
X38697Y-20917D01*
X38606Y-20955D01*
X38535Y-21025D01*
X38497Y-21117D01*
X38497Y-21217D01*
X38497Y-22162D01*
X38535Y-22253D01*
X38605Y-22324D01*
X38697Y-22362D01*
X38797Y-22362D01*
X39033Y-22362D01*
X39033Y-24651D01*
X36831Y-22449D01*
X36831Y-22362D01*
X37222Y-22362D01*
X37313Y-22324D01*
X37384Y-22254D01*
X37422Y-22162D01*
X37422Y-22062D01*
X37422Y-21117D01*
X37384Y-21026D01*
X37314Y-20955D01*
X37222Y-20917D01*
X37122Y-20917D01*
X35547Y-20917D01*
X35456Y-20955D01*
X35385Y-21025D01*
X35347Y-21117D01*
X35347Y-21217D01*
X35347Y-22162D01*
X35385Y-22253D01*
X35455Y-22324D01*
X35547Y-22362D01*
X35647Y-22362D01*
X35938Y-22362D01*
X35938Y-22635D01*
X35972Y-22806D01*
X36069Y-22950D01*
X38004Y-24885D01*
X37300Y-24885D01*
X37232Y-24914D01*
X36964Y-24914D01*
X37049Y-24709D01*
X37050Y-24292D01*
X36890Y-23906D01*
X36595Y-23610D01*
X36209Y-23450D01*
X35792Y-23449D01*
X35406Y-23609D01*
X35110Y-23904D01*
X34950Y-24290D01*
X34949Y-24707D01*
X35109Y-25094D01*
X35368Y-25353D01*
X35185Y-25353D01*
X33465Y-23634D01*
X33321Y-23537D01*
X33150Y-23503D01*
X32543Y-23503D01*
X32543Y-22817D01*
X32505Y-22726D01*
X32435Y-22655D01*
X32343Y-22617D01*
X32243Y-22617D01*
X31456Y-22617D01*
X31365Y-22655D01*
X31294Y-22725D01*
X31256Y-22817D01*
X31256Y-22917D01*
X31256Y-23503D01*
X30050Y-23503D01*
X29878Y-23537D01*
X29734Y-23634D01*
X28307Y-25060D01*
X27702Y-25060D01*
X27610Y-25098D01*
X27540Y-25169D01*
X27502Y-25261D01*
X27501Y-25360D01*
X27501Y-26738D01*
X27539Y-26830D01*
X27610Y-26900D01*
X27634Y-26910D01*
X27372Y-26911D01*
X27310Y-26973D01*
X27310Y-27800D01*
X28136Y-27800D01*
X28199Y-27737D01*
X28199Y-27210D01*
X28198Y-27111D01*
X28160Y-27019D01*
X28090Y-26948D01*
X28066Y-26939D01*
X29179Y-26939D01*
X29271Y-26901D01*
X29341Y-26830D01*
X29379Y-26738D01*
X29380Y-26639D01*
X29380Y-25261D01*
X29377Y-25254D01*
X30235Y-24396D01*
X31256Y-24396D01*
X31256Y-25082D01*
X31294Y-25173D01*
X31364Y-25244D01*
X31456Y-25282D01*
X31556Y-25282D01*
X32343Y-25282D01*
X32434Y-25244D01*
X32505Y-25174D01*
X32543Y-25082D01*
X32543Y-24982D01*
X32543Y-24396D01*
X32964Y-24396D01*
X34684Y-26115D01*
X34684Y-26115D01*
X34706Y-26130D01*
X34706Y-26130D01*
X34675Y-26143D01*
X34605Y-26213D01*
X34567Y-26305D01*
X34566Y-26405D01*
X34566Y-27114D01*
X34604Y-27205D01*
X34675Y-27276D01*
X34767Y-27314D01*
X34866Y-27314D01*
X35732Y-27314D01*
X35824Y-27276D01*
X35894Y-27206D01*
X35915Y-27156D01*
X36430Y-27156D01*
X36601Y-27122D01*
X36601Y-27122D01*
X36745Y-27025D01*
X37142Y-26629D01*
X37162Y-26650D01*
X37750Y-26650D01*
X37750Y-26642D01*
X37850Y-26642D01*
X37850Y-26650D01*
X38437Y-26650D01*
X38500Y-26587D01*
X38500Y-26469D01*
X38630Y-26443D01*
X38630Y-26443D01*
X38774Y-26346D01*
X39033Y-26088D01*
X39033Y-26452D01*
X38563Y-26922D01*
X38500Y-26922D01*
X38500Y-26812D01*
X38437Y-26750D01*
X37850Y-26750D01*
X37850Y-26757D01*
X37750Y-26757D01*
X37750Y-26750D01*
X37162Y-26750D01*
X37100Y-26812D01*
X37099Y-26974D01*
X37124Y-27034D01*
X37100Y-27094D01*
X37099Y-27193D01*
X37099Y-27643D01*
X37124Y-27704D01*
X37099Y-27764D01*
X37100Y-27926D01*
X37162Y-27989D01*
X37750Y-27989D01*
X37750Y-27981D01*
X37850Y-27981D01*
X37850Y-27989D01*
X38437Y-27989D01*
X38500Y-27926D01*
X38500Y-27815D01*
X38749Y-27815D01*
X38920Y-27781D01*
X38920Y-27781D01*
X39064Y-27684D01*
X39795Y-26953D01*
X39795Y-26953D01*
X39831Y-26900D01*
X39831Y-28875D01*
X39839Y-28895D01*
X38500Y-28895D01*
X38500Y-28313D01*
X38500Y-28151D01*
X38437Y-28089D01*
X37850Y-28089D01*
X37850Y-28451D01*
X37912Y-28514D01*
X38200Y-28514D01*
X38299Y-28513D01*
X38391Y-28475D01*
X38462Y-28405D01*
X38500Y-28313D01*
X38500Y-28895D01*
X37750Y-28895D01*
X37750Y-28451D01*
X37750Y-28089D01*
X37162Y-28089D01*
X37100Y-28151D01*
X37099Y-28313D01*
X37137Y-28405D01*
X37208Y-28475D01*
X37300Y-28513D01*
X37399Y-28514D01*
X37687Y-28514D01*
X37750Y-28451D01*
X37750Y-28895D01*
X35933Y-28895D01*
X35933Y-28694D01*
X35933Y-27885D01*
X35895Y-27794D01*
X35824Y-27723D01*
X35732Y-27685D01*
X35633Y-27685D01*
X35362Y-27685D01*
X35300Y-27748D01*
X35300Y-28240D01*
X35870Y-28240D01*
X35933Y-28177D01*
X35933Y-27885D01*
X35933Y-28694D01*
X35933Y-28402D01*
X35870Y-28340D01*
X35300Y-28340D01*
X35300Y-28832D01*
X35362Y-28894D01*
X35633Y-28894D01*
X35732Y-28894D01*
X35824Y-28856D01*
X35895Y-28785D01*
X35933Y-28694D01*
X35933Y-28895D01*
X35200Y-28895D01*
X35200Y-28832D01*
X35200Y-28340D01*
X35200Y-28240D01*
X35200Y-27748D01*
X35137Y-27685D01*
X34866Y-27685D01*
X34767Y-27685D01*
X34675Y-27723D01*
X34604Y-27794D01*
X34566Y-27885D01*
X34567Y-28177D01*
X34629Y-28240D01*
X35200Y-28240D01*
X35200Y-28340D01*
X34629Y-28340D01*
X34567Y-28402D01*
X34566Y-28694D01*
X34604Y-28785D01*
X34675Y-28856D01*
X34767Y-28894D01*
X34866Y-28894D01*
X35137Y-28894D01*
X35200Y-28832D01*
X35200Y-28895D01*
X32483Y-28895D01*
X32505Y-28873D01*
X32543Y-28782D01*
X32543Y-26517D01*
X32505Y-26426D01*
X32435Y-26355D01*
X32343Y-26317D01*
X32243Y-26317D01*
X32012Y-26317D01*
X31950Y-26380D01*
X31950Y-27600D01*
X32481Y-27600D01*
X32543Y-27537D01*
X32543Y-26517D01*
X32543Y-28782D01*
X32543Y-27762D01*
X32481Y-27700D01*
X31950Y-27700D01*
X31950Y-27707D01*
X31850Y-27707D01*
X31850Y-27700D01*
X31850Y-27600D01*
X31850Y-26380D01*
X31787Y-26317D01*
X31556Y-26317D01*
X31456Y-26317D01*
X31364Y-26355D01*
X31294Y-26426D01*
X31256Y-26517D01*
X31256Y-27537D01*
X31319Y-27600D01*
X31850Y-27600D01*
X31850Y-27700D01*
X31319Y-27700D01*
X31256Y-27762D01*
X31256Y-28782D01*
X31294Y-28873D01*
X31316Y-28895D01*
X28199Y-28895D01*
X28199Y-28489D01*
X28199Y-27962D01*
X28136Y-27900D01*
X27310Y-27900D01*
X27310Y-28726D01*
X27372Y-28789D01*
X27998Y-28789D01*
X28090Y-28751D01*
X28160Y-28680D01*
X28198Y-28588D01*
X28199Y-28489D01*
X28199Y-28895D01*
X27210Y-28895D01*
X27210Y-28726D01*
X27210Y-27900D01*
X27210Y-27800D01*
X27210Y-26973D01*
X27147Y-26911D01*
X26885Y-26910D01*
X26909Y-26901D01*
X26979Y-26830D01*
X27017Y-26738D01*
X27018Y-26639D01*
X27018Y-25360D01*
X27017Y-25261D01*
X26979Y-25169D01*
X26909Y-25098D01*
X26817Y-25060D01*
X26550Y-25060D01*
X26550Y-23099D01*
X26550Y-22862D01*
X26487Y-22800D01*
X26050Y-22800D01*
X26050Y-23237D01*
X26112Y-23300D01*
X26250Y-23300D01*
X26349Y-23299D01*
X26441Y-23261D01*
X26512Y-23191D01*
X26550Y-23099D01*
X26550Y-25060D01*
X26191Y-25061D01*
X26129Y-25123D01*
X26129Y-25950D01*
X26955Y-25950D01*
X27018Y-25887D01*
X27018Y-25360D01*
X27018Y-26639D01*
X27018Y-26112D01*
X26955Y-26050D01*
X26129Y-26050D01*
X26129Y-26876D01*
X26191Y-26939D01*
X26453Y-26939D01*
X26429Y-26948D01*
X26359Y-27019D01*
X26321Y-27111D01*
X26320Y-27210D01*
X26321Y-27737D01*
X26383Y-27800D01*
X27210Y-27800D01*
X27210Y-27900D01*
X26383Y-27900D01*
X26321Y-27962D01*
X26320Y-28489D01*
X26321Y-28588D01*
X26359Y-28680D01*
X26429Y-28751D01*
X26521Y-28789D01*
X27147Y-28789D01*
X27210Y-28726D01*
X27210Y-28895D01*
X26029Y-28895D01*
X26029Y-26876D01*
X26029Y-26050D01*
X26029Y-25950D01*
X26029Y-25123D01*
X25966Y-25061D01*
X25950Y-25060D01*
X25950Y-23237D01*
X25950Y-22800D01*
X25512Y-22800D01*
X25450Y-22862D01*
X25449Y-23099D01*
X25487Y-23191D01*
X25558Y-23261D01*
X25650Y-23299D01*
X25749Y-23300D01*
X25887Y-23300D01*
X25950Y-23237D01*
X25950Y-25060D01*
X25340Y-25060D01*
X25248Y-25098D01*
X25178Y-25169D01*
X25140Y-25261D01*
X25139Y-25360D01*
X25140Y-25887D01*
X25202Y-25950D01*
X26029Y-25950D01*
X26029Y-26050D01*
X25202Y-26050D01*
X25140Y-26112D01*
X25139Y-26639D01*
X25140Y-26738D01*
X25178Y-26830D01*
X25248Y-26901D01*
X25340Y-26939D01*
X25966Y-26939D01*
X26029Y-26876D01*
X26029Y-28895D01*
X25104Y-28895D01*
X25104Y-14719D01*
X25217Y-14832D01*
X25217Y-15063D01*
X25255Y-15155D01*
X25325Y-15225D01*
X25417Y-15263D01*
X25517Y-15264D01*
X25725Y-15264D01*
X25701Y-15273D01*
X25630Y-15344D01*
X25592Y-15436D01*
X25592Y-15535D01*
X25592Y-15929D01*
X25630Y-16021D01*
X25700Y-16091D01*
X25792Y-16129D01*
X25892Y-16130D01*
X25956Y-16130D01*
X26449Y-16623D01*
X26449Y-16876D01*
X26026Y-17299D01*
X25550Y-17299D01*
X25458Y-17337D01*
X25388Y-17408D01*
X25350Y-17500D01*
X25349Y-17599D01*
X25349Y-18199D01*
X25387Y-18291D01*
X25458Y-18361D01*
X25550Y-18399D01*
X25649Y-18400D01*
X26449Y-18400D01*
X26541Y-18362D01*
X26611Y-18291D01*
X26624Y-18260D01*
X26637Y-18291D01*
X26708Y-18361D01*
X26800Y-18399D01*
X26899Y-18400D01*
X27699Y-18400D01*
X27791Y-18362D01*
X27861Y-18291D01*
X27874Y-18260D01*
X27887Y-18291D01*
X27958Y-18361D01*
X28050Y-18399D01*
X28149Y-18400D01*
X28949Y-18400D01*
X29041Y-18362D01*
X29111Y-18291D01*
X29124Y-18260D01*
X29137Y-18291D01*
X29208Y-18361D01*
X29300Y-18399D01*
X29399Y-18400D01*
X30199Y-18400D01*
X30291Y-18362D01*
X30361Y-18291D01*
X30374Y-18260D01*
X30387Y-18291D01*
X30458Y-18361D01*
X30550Y-18399D01*
X30649Y-18400D01*
X31449Y-18400D01*
X31541Y-18362D01*
X31611Y-18291D01*
X31624Y-18260D01*
X31637Y-18291D01*
X31708Y-18361D01*
X31800Y-18399D01*
X31899Y-18400D01*
X32699Y-18400D01*
X32791Y-18362D01*
X32861Y-18291D01*
X32874Y-18260D01*
X32887Y-18291D01*
X32958Y-18361D01*
X33050Y-18399D01*
X33149Y-18400D01*
X33949Y-18400D01*
X34041Y-18362D01*
X34111Y-18291D01*
X34124Y-18260D01*
X34137Y-18291D01*
X34208Y-18361D01*
X34300Y-18399D01*
X34399Y-18400D01*
X35199Y-18400D01*
X35291Y-18362D01*
X35361Y-18291D01*
X35374Y-18260D01*
X35387Y-18291D01*
X35458Y-18361D01*
X35550Y-18399D01*
X35649Y-18400D01*
X36449Y-18400D01*
X36541Y-18362D01*
X36611Y-18291D01*
X36624Y-18260D01*
X36637Y-18291D01*
X36708Y-18361D01*
X36800Y-18399D01*
X36899Y-18400D01*
X37699Y-18400D01*
X37791Y-18362D01*
X37861Y-18291D01*
X37874Y-18260D01*
X37887Y-18291D01*
X37958Y-18361D01*
X38050Y-18399D01*
X38149Y-18400D01*
X38949Y-18400D01*
X39041Y-18362D01*
X39111Y-18291D01*
X39124Y-18260D01*
X39137Y-18291D01*
X39208Y-18361D01*
X39300Y-18399D01*
X39399Y-18400D01*
X40199Y-18400D01*
X40291Y-18362D01*
X40361Y-18291D01*
X40374Y-18260D01*
X40387Y-18291D01*
X40458Y-18361D01*
X40550Y-18399D01*
X40649Y-18400D01*
X41449Y-18400D01*
X41541Y-18362D01*
X41611Y-18291D01*
X41624Y-18260D01*
X41637Y-18291D01*
X41708Y-18361D01*
X41800Y-18399D01*
X41899Y-18400D01*
X42699Y-18400D01*
X42791Y-18362D01*
X42861Y-18291D01*
X42874Y-18260D01*
X42887Y-18291D01*
X42958Y-18361D01*
X43050Y-18399D01*
X43149Y-18400D01*
X43949Y-18400D01*
X44041Y-18362D01*
X44111Y-18291D01*
X44149Y-18199D01*
X44150Y-18100D01*
X44150Y-17500D01*
X44112Y-17408D01*
X44041Y-17338D01*
X43949Y-17300D01*
X43850Y-17299D01*
X43373Y-17299D01*
X43299Y-17226D01*
X43299Y-17221D01*
X43311Y-17216D01*
X43465Y-17061D01*
X43549Y-16859D01*
X43550Y-16641D01*
X43544Y-16628D01*
X43711Y-16461D01*
X43776Y-16364D01*
X43776Y-16364D01*
X43799Y-16250D01*
X43799Y-16091D01*
X43869Y-16021D01*
X43907Y-15929D01*
X43907Y-15830D01*
X43907Y-15436D01*
X43869Y-15344D01*
X43799Y-15274D01*
X43774Y-15264D01*
X44082Y-15264D01*
X44173Y-15226D01*
X44244Y-15155D01*
X44250Y-15142D01*
X44250Y-24479D01*
M02*
