G04 (created by PCBNEW (2013-07-07 BZR 4022)-stable) date 21/02/2014 11:26:53*
%MOIN*%
G04 Gerber Fmt 3.4, Leading zero omitted, Abs format*
%FSLAX34Y34*%
G01*
G70*
G90*
G04 APERTURE LIST*
%ADD10C,0.00590551*%
%ADD11C,0.00984252*%
%ADD12C,0.005*%
%ADD13C,0.0078*%
%ADD14C,0.0031*%
%ADD15C,0.012*%
%ADD16C,0.006*%
%ADD17C,0.008*%
%ADD18C,0.015*%
%ADD19C,0.01*%
%ADD20C,0.0047*%
%ADD21C,0.0039*%
%ADD22C,0.0062*%
G04 APERTURE END LIST*
G54D10*
G54D11*
X39437Y-9776D02*
X39400Y-9748D01*
X39344Y-9748D01*
X39287Y-9776D01*
X39250Y-9832D01*
X39231Y-9889D01*
X39212Y-10001D01*
X39212Y-10085D01*
X39231Y-10198D01*
X39250Y-10254D01*
X39287Y-10310D01*
X39344Y-10339D01*
X39381Y-10339D01*
X39437Y-10310D01*
X39456Y-10282D01*
X39456Y-10085D01*
X39381Y-10085D01*
X39793Y-9945D02*
X39793Y-10339D01*
X39625Y-9945D02*
X39625Y-10254D01*
X39644Y-10310D01*
X39681Y-10339D01*
X39737Y-10339D01*
X39775Y-10310D01*
X39793Y-10282D01*
X40150Y-10339D02*
X40150Y-10029D01*
X40131Y-9973D01*
X40093Y-9945D01*
X40018Y-9945D01*
X39981Y-9973D01*
X40150Y-10310D02*
X40112Y-10339D01*
X40018Y-10339D01*
X39981Y-10310D01*
X39962Y-10254D01*
X39962Y-10198D01*
X39981Y-10142D01*
X40018Y-10114D01*
X40112Y-10114D01*
X40150Y-10085D01*
X40318Y-10310D02*
X40356Y-10339D01*
X40431Y-10339D01*
X40468Y-10310D01*
X40487Y-10254D01*
X40487Y-10226D01*
X40468Y-10170D01*
X40431Y-10142D01*
X40375Y-10142D01*
X40337Y-10114D01*
X40318Y-10057D01*
X40318Y-10029D01*
X40337Y-9973D01*
X40375Y-9945D01*
X40431Y-9945D01*
X40468Y-9973D01*
X40825Y-10310D02*
X40787Y-10339D01*
X40712Y-10339D01*
X40675Y-10310D01*
X40656Y-10282D01*
X40637Y-10226D01*
X40637Y-10057D01*
X40656Y-10001D01*
X40675Y-9973D01*
X40712Y-9945D01*
X40787Y-9945D01*
X40825Y-9973D01*
X40993Y-10339D02*
X40993Y-9748D01*
X41162Y-10339D02*
X41162Y-10029D01*
X41143Y-9973D01*
X41106Y-9945D01*
X41050Y-9945D01*
X41012Y-9973D01*
X40993Y-10001D01*
X41537Y-9748D02*
X41350Y-9748D01*
X41331Y-10029D01*
X41350Y-10001D01*
X41387Y-9973D01*
X41481Y-9973D01*
X41518Y-10001D01*
X41537Y-10029D01*
X41556Y-10085D01*
X41556Y-10226D01*
X41537Y-10282D01*
X41518Y-10310D01*
X41481Y-10339D01*
X41387Y-10339D01*
X41350Y-10310D01*
X41331Y-10282D01*
X41799Y-9748D02*
X41837Y-9748D01*
X41874Y-9776D01*
X41893Y-9804D01*
X41912Y-9860D01*
X41931Y-9973D01*
X41931Y-10114D01*
X41912Y-10226D01*
X41893Y-10282D01*
X41874Y-10310D01*
X41837Y-10339D01*
X41799Y-10339D01*
X41762Y-10310D01*
X41743Y-10282D01*
X41724Y-10226D01*
X41706Y-10114D01*
X41706Y-9973D01*
X41724Y-9860D01*
X41743Y-9804D01*
X41762Y-9776D01*
X41799Y-9748D01*
X42174Y-9748D02*
X42212Y-9748D01*
X42249Y-9776D01*
X42268Y-9804D01*
X42287Y-9860D01*
X42306Y-9973D01*
X42306Y-10114D01*
X42287Y-10226D01*
X42268Y-10282D01*
X42249Y-10310D01*
X42212Y-10339D01*
X42174Y-10339D01*
X42137Y-10310D01*
X42118Y-10282D01*
X42099Y-10226D01*
X42081Y-10114D01*
X42081Y-9973D01*
X42099Y-9860D01*
X42118Y-9804D01*
X42137Y-9776D01*
X42174Y-9748D01*
X42549Y-9748D02*
X42587Y-9748D01*
X42624Y-9776D01*
X42643Y-9804D01*
X42662Y-9860D01*
X42681Y-9973D01*
X42681Y-10114D01*
X42662Y-10226D01*
X42643Y-10282D01*
X42624Y-10310D01*
X42587Y-10339D01*
X42549Y-10339D01*
X42512Y-10310D01*
X42493Y-10282D01*
X42474Y-10226D01*
X42456Y-10114D01*
X42456Y-9973D01*
X42474Y-9860D01*
X42493Y-9804D01*
X42512Y-9776D01*
X42549Y-9748D01*
X42849Y-10282D02*
X42868Y-10310D01*
X42849Y-10339D01*
X42831Y-10310D01*
X42849Y-10282D01*
X42849Y-10339D01*
X43206Y-10310D02*
X43168Y-10339D01*
X43093Y-10339D01*
X43056Y-10310D01*
X43037Y-10282D01*
X43018Y-10226D01*
X43018Y-10057D01*
X43037Y-10001D01*
X43056Y-9973D01*
X43093Y-9945D01*
X43168Y-9945D01*
X43206Y-9973D01*
X43431Y-10339D02*
X43393Y-10310D01*
X43374Y-10282D01*
X43356Y-10226D01*
X43356Y-10057D01*
X43374Y-10001D01*
X43393Y-9973D01*
X43431Y-9945D01*
X43487Y-9945D01*
X43524Y-9973D01*
X43543Y-10001D01*
X43562Y-10057D01*
X43562Y-10226D01*
X43543Y-10282D01*
X43524Y-10310D01*
X43487Y-10339D01*
X43431Y-10339D01*
X43730Y-10339D02*
X43730Y-9945D01*
X43730Y-10001D02*
X43749Y-9973D01*
X43787Y-9945D01*
X43843Y-9945D01*
X43880Y-9973D01*
X43899Y-10029D01*
X43899Y-10339D01*
X43899Y-10029D02*
X43918Y-9973D01*
X43955Y-9945D01*
X44012Y-9945D01*
X44049Y-9973D01*
X44068Y-10029D01*
X44068Y-10339D01*
X39672Y-11236D02*
X39728Y-11264D01*
X39822Y-11264D01*
X39859Y-11236D01*
X39878Y-11207D01*
X39897Y-11151D01*
X39897Y-11095D01*
X39878Y-11039D01*
X39859Y-11011D01*
X39822Y-10983D01*
X39747Y-10954D01*
X39709Y-10926D01*
X39690Y-10898D01*
X39672Y-10842D01*
X39672Y-10786D01*
X39690Y-10729D01*
X39709Y-10701D01*
X39747Y-10673D01*
X39840Y-10673D01*
X39897Y-10701D01*
X40215Y-11236D02*
X40178Y-11264D01*
X40103Y-11264D01*
X40065Y-11236D01*
X40047Y-11179D01*
X40047Y-10954D01*
X40065Y-10898D01*
X40103Y-10870D01*
X40178Y-10870D01*
X40215Y-10898D01*
X40234Y-10954D01*
X40234Y-11011D01*
X40047Y-11067D01*
X40572Y-11236D02*
X40534Y-11264D01*
X40459Y-11264D01*
X40422Y-11236D01*
X40403Y-11207D01*
X40384Y-11151D01*
X40384Y-10983D01*
X40403Y-10926D01*
X40422Y-10898D01*
X40459Y-10870D01*
X40534Y-10870D01*
X40572Y-10898D01*
X40909Y-10870D02*
X40909Y-11264D01*
X40740Y-10870D02*
X40740Y-11179D01*
X40759Y-11236D01*
X40796Y-11264D01*
X40853Y-11264D01*
X40890Y-11236D01*
X40909Y-11207D01*
X41096Y-11264D02*
X41096Y-10870D01*
X41096Y-10983D02*
X41115Y-10926D01*
X41134Y-10898D01*
X41171Y-10870D01*
X41209Y-10870D01*
X41490Y-11236D02*
X41453Y-11264D01*
X41378Y-11264D01*
X41340Y-11236D01*
X41321Y-11179D01*
X41321Y-10954D01*
X41340Y-10898D01*
X41378Y-10870D01*
X41453Y-10870D01*
X41490Y-10898D01*
X41509Y-10954D01*
X41509Y-11011D01*
X41321Y-11067D01*
X41678Y-11264D02*
X41678Y-10673D01*
X41828Y-10673D01*
X41865Y-10701D01*
X41884Y-10729D01*
X41903Y-10786D01*
X41903Y-10870D01*
X41884Y-10926D01*
X41865Y-10954D01*
X41828Y-10983D01*
X41678Y-10983D01*
X42071Y-11264D02*
X42071Y-10870D01*
X42071Y-10673D02*
X42053Y-10701D01*
X42071Y-10729D01*
X42090Y-10701D01*
X42071Y-10673D01*
X42071Y-10729D01*
X42521Y-10870D02*
X42615Y-11264D01*
X42709Y-10870D01*
X42934Y-10673D02*
X42971Y-10673D01*
X43009Y-10701D01*
X43027Y-10729D01*
X43046Y-10786D01*
X43065Y-10898D01*
X43065Y-11039D01*
X43046Y-11151D01*
X43027Y-11207D01*
X43009Y-11236D01*
X42971Y-11264D01*
X42934Y-11264D01*
X42896Y-11236D01*
X42877Y-11207D01*
X42859Y-11151D01*
X42840Y-11039D01*
X42840Y-10898D01*
X42859Y-10786D01*
X42877Y-10729D01*
X42896Y-10701D01*
X42934Y-10673D01*
X43234Y-11207D02*
X43252Y-11236D01*
X43234Y-11264D01*
X43215Y-11236D01*
X43234Y-11207D01*
X43234Y-11264D01*
X43496Y-10673D02*
X43534Y-10673D01*
X43571Y-10701D01*
X43590Y-10729D01*
X43609Y-10786D01*
X43627Y-10898D01*
X43627Y-11039D01*
X43609Y-11151D01*
X43590Y-11207D01*
X43571Y-11236D01*
X43534Y-11264D01*
X43496Y-11264D01*
X43459Y-11236D01*
X43440Y-11207D01*
X43421Y-11151D01*
X43402Y-11039D01*
X43402Y-10898D01*
X43421Y-10786D01*
X43440Y-10729D01*
X43459Y-10701D01*
X43496Y-10673D01*
G54D12*
X33050Y-19500D02*
X33950Y-19500D01*
X33950Y-19500D02*
X33950Y-18850D01*
X33050Y-18150D02*
X33050Y-17500D01*
X33050Y-17500D02*
X33950Y-17500D01*
X33950Y-17500D02*
X33950Y-18150D01*
X33050Y-18850D02*
X33050Y-19500D01*
G54D13*
X38745Y-28354D02*
X37209Y-28354D01*
X38745Y-27724D02*
X37170Y-27724D01*
X38745Y-25007D02*
X37209Y-25007D01*
X38745Y-25676D02*
X37209Y-25676D01*
X38750Y-26350D02*
X37200Y-26350D01*
X37200Y-27050D02*
X38750Y-27050D01*
X39700Y-25250D02*
G75*
G03X39700Y-25250I-300J0D01*
G74*
G01*
X38750Y-24600D02*
X42950Y-24600D01*
X42950Y-24600D02*
X43200Y-24850D01*
X43200Y-24850D02*
X43200Y-28400D01*
X43200Y-28400D02*
X43200Y-28500D01*
X43200Y-28500D02*
X43200Y-28550D01*
X43200Y-28550D02*
X42950Y-28800D01*
X42950Y-28800D02*
X38750Y-28800D01*
X38750Y-24600D02*
X38750Y-28800D01*
X42750Y-28800D02*
X42750Y-24600D01*
G54D14*
X29349Y-15388D02*
G75*
G03X29349Y-15388I-62J0D01*
G74*
G01*
X30250Y-15050D02*
X30250Y-15450D01*
X29225Y-15050D02*
X29225Y-15450D01*
X30250Y-15450D02*
X29225Y-15450D01*
X29225Y-15050D02*
X30250Y-15050D01*
X41849Y-15388D02*
G75*
G03X41849Y-15388I-62J0D01*
G74*
G01*
X42750Y-15050D02*
X42750Y-15450D01*
X41725Y-15050D02*
X41725Y-15450D01*
X42750Y-15450D02*
X41725Y-15450D01*
X41725Y-15050D02*
X42750Y-15050D01*
X41525Y-15112D02*
G75*
G03X41525Y-15112I-62J0D01*
G74*
G01*
X40500Y-15450D02*
X40500Y-15050D01*
X41525Y-15450D02*
X41525Y-15050D01*
X40500Y-15050D02*
X41525Y-15050D01*
X41525Y-15450D02*
X40500Y-15450D01*
X44025Y-15112D02*
G75*
G03X44025Y-15112I-62J0D01*
G74*
G01*
X43000Y-15450D02*
X43000Y-15050D01*
X44025Y-15450D02*
X44025Y-15050D01*
X43000Y-15050D02*
X44025Y-15050D01*
X44025Y-15450D02*
X43000Y-15450D01*
X39349Y-15388D02*
G75*
G03X39349Y-15388I-62J0D01*
G74*
G01*
X40250Y-15050D02*
X40250Y-15450D01*
X39225Y-15050D02*
X39225Y-15450D01*
X40250Y-15450D02*
X39225Y-15450D01*
X39225Y-15050D02*
X40250Y-15050D01*
X26525Y-15112D02*
G75*
G03X26525Y-15112I-62J0D01*
G74*
G01*
X25500Y-15450D02*
X25500Y-15050D01*
X26525Y-15450D02*
X26525Y-15050D01*
X25500Y-15050D02*
X26525Y-15050D01*
X26525Y-15450D02*
X25500Y-15450D01*
X39025Y-15112D02*
G75*
G03X39025Y-15112I-62J0D01*
G74*
G01*
X38000Y-15450D02*
X38000Y-15050D01*
X39025Y-15450D02*
X39025Y-15050D01*
X38000Y-15050D02*
X39025Y-15050D01*
X39025Y-15450D02*
X38000Y-15450D01*
X34025Y-15112D02*
G75*
G03X34025Y-15112I-62J0D01*
G74*
G01*
X33000Y-15450D02*
X33000Y-15050D01*
X34025Y-15450D02*
X34025Y-15050D01*
X33000Y-15050D02*
X34025Y-15050D01*
X34025Y-15450D02*
X33000Y-15450D01*
X26849Y-15388D02*
G75*
G03X26849Y-15388I-62J0D01*
G74*
G01*
X27750Y-15050D02*
X27750Y-15450D01*
X26725Y-15050D02*
X26725Y-15450D01*
X27750Y-15450D02*
X26725Y-15450D01*
X26725Y-15050D02*
X27750Y-15050D01*
X31849Y-15388D02*
G75*
G03X31849Y-15388I-62J0D01*
G74*
G01*
X32750Y-15050D02*
X32750Y-15450D01*
X31725Y-15050D02*
X31725Y-15450D01*
X32750Y-15450D02*
X31725Y-15450D01*
X31725Y-15050D02*
X32750Y-15050D01*
X31525Y-15112D02*
G75*
G03X31525Y-15112I-62J0D01*
G74*
G01*
X30500Y-15450D02*
X30500Y-15050D01*
X31525Y-15450D02*
X31525Y-15050D01*
X30500Y-15050D02*
X31525Y-15050D01*
X31525Y-15450D02*
X30500Y-15450D01*
X34349Y-15388D02*
G75*
G03X34349Y-15388I-62J0D01*
G74*
G01*
X35250Y-15050D02*
X35250Y-15450D01*
X34225Y-15050D02*
X34225Y-15450D01*
X35250Y-15450D02*
X34225Y-15450D01*
X34225Y-15050D02*
X35250Y-15050D01*
X36849Y-15388D02*
G75*
G03X36849Y-15388I-62J0D01*
G74*
G01*
X37750Y-15050D02*
X37750Y-15450D01*
X36725Y-15050D02*
X36725Y-15450D01*
X37750Y-15450D02*
X36725Y-15450D01*
X36725Y-15050D02*
X37750Y-15050D01*
X36525Y-15112D02*
G75*
G03X36525Y-15112I-62J0D01*
G74*
G01*
X35500Y-15450D02*
X35500Y-15050D01*
X36525Y-15450D02*
X36525Y-15050D01*
X35500Y-15050D02*
X36525Y-15050D01*
X36525Y-15450D02*
X35500Y-15450D01*
X30450Y-21213D02*
G75*
G03X30450Y-21213I-62J0D01*
G74*
G01*
X30050Y-20250D02*
X30450Y-20250D01*
X30050Y-21275D02*
X30450Y-21275D01*
X30450Y-20250D02*
X30450Y-21275D01*
X30050Y-21275D02*
X30050Y-20250D01*
X29025Y-15112D02*
G75*
G03X29025Y-15112I-62J0D01*
G74*
G01*
X28000Y-15450D02*
X28000Y-15050D01*
X29025Y-15450D02*
X29025Y-15050D01*
X28000Y-15050D02*
X29025Y-15050D01*
X29025Y-15450D02*
X28000Y-15450D01*
X30174Y-21537D02*
G75*
G03X30174Y-21537I-62J0D01*
G74*
G01*
X30450Y-22500D02*
X30050Y-22500D01*
X30450Y-21475D02*
X30050Y-21475D01*
X30050Y-22500D02*
X30050Y-21475D01*
X30450Y-21475D02*
X30450Y-22500D01*
G54D12*
X26800Y-14250D02*
X27700Y-14250D01*
X27700Y-14250D02*
X27700Y-13600D01*
X26800Y-12900D02*
X26800Y-12250D01*
X26800Y-12250D02*
X27700Y-12250D01*
X27700Y-12250D02*
X27700Y-12900D01*
X26800Y-13600D02*
X26800Y-14250D01*
X43050Y-14250D02*
X43950Y-14250D01*
X43950Y-14250D02*
X43950Y-13600D01*
X43050Y-12900D02*
X43050Y-12250D01*
X43050Y-12250D02*
X43950Y-12250D01*
X43950Y-12250D02*
X43950Y-12900D01*
X43050Y-13600D02*
X43050Y-14250D01*
X36800Y-19500D02*
X37700Y-19500D01*
X37700Y-19500D02*
X37700Y-18850D01*
X36800Y-18150D02*
X36800Y-17500D01*
X36800Y-17500D02*
X37700Y-17500D01*
X37700Y-17500D02*
X37700Y-18150D01*
X36800Y-18850D02*
X36800Y-19500D01*
X43050Y-19500D02*
X43950Y-19500D01*
X43950Y-19500D02*
X43950Y-18850D01*
X43050Y-18150D02*
X43050Y-17500D01*
X43050Y-17500D02*
X43950Y-17500D01*
X43950Y-17500D02*
X43950Y-18150D01*
X43050Y-18850D02*
X43050Y-19500D01*
X36800Y-14250D02*
X37700Y-14250D01*
X37700Y-14250D02*
X37700Y-13600D01*
X36800Y-12900D02*
X36800Y-12250D01*
X36800Y-12250D02*
X37700Y-12250D01*
X37700Y-12250D02*
X37700Y-12900D01*
X36800Y-13600D02*
X36800Y-14250D01*
X25550Y-14250D02*
X26450Y-14250D01*
X26450Y-14250D02*
X26450Y-13600D01*
X25550Y-12900D02*
X25550Y-12250D01*
X25550Y-12250D02*
X26450Y-12250D01*
X26450Y-12250D02*
X26450Y-12900D01*
X25550Y-13600D02*
X25550Y-14250D01*
X25550Y-19500D02*
X26450Y-19500D01*
X26450Y-19500D02*
X26450Y-18850D01*
X25550Y-18150D02*
X25550Y-17500D01*
X25550Y-17500D02*
X26450Y-17500D01*
X26450Y-17500D02*
X26450Y-18150D01*
X25550Y-18850D02*
X25550Y-19500D01*
X34300Y-19500D02*
X35200Y-19500D01*
X35200Y-19500D02*
X35200Y-18850D01*
X34300Y-18150D02*
X34300Y-17500D01*
X34300Y-17500D02*
X35200Y-17500D01*
X35200Y-17500D02*
X35200Y-18150D01*
X34300Y-18850D02*
X34300Y-19500D01*
X35550Y-19500D02*
X36450Y-19500D01*
X36450Y-19500D02*
X36450Y-18850D01*
X35550Y-18150D02*
X35550Y-17500D01*
X35550Y-17500D02*
X36450Y-17500D01*
X36450Y-17500D02*
X36450Y-18150D01*
X35550Y-18850D02*
X35550Y-19500D01*
X26800Y-19500D02*
X27700Y-19500D01*
X27700Y-19500D02*
X27700Y-18850D01*
X26800Y-18150D02*
X26800Y-17500D01*
X26800Y-17500D02*
X27700Y-17500D01*
X27700Y-17500D02*
X27700Y-18150D01*
X26800Y-18850D02*
X26800Y-19500D01*
X30550Y-14250D02*
X31450Y-14250D01*
X31450Y-14250D02*
X31450Y-13600D01*
X30550Y-12900D02*
X30550Y-12250D01*
X30550Y-12250D02*
X31450Y-12250D01*
X31450Y-12250D02*
X31450Y-12900D01*
X30550Y-13600D02*
X30550Y-14250D01*
X40550Y-19500D02*
X41450Y-19500D01*
X41450Y-19500D02*
X41450Y-18850D01*
X40550Y-18150D02*
X40550Y-17500D01*
X40550Y-17500D02*
X41450Y-17500D01*
X41450Y-17500D02*
X41450Y-18150D01*
X40550Y-18850D02*
X40550Y-19500D01*
X30550Y-19500D02*
X31450Y-19500D01*
X31450Y-19500D02*
X31450Y-18850D01*
X30550Y-18150D02*
X30550Y-17500D01*
X30550Y-17500D02*
X31450Y-17500D01*
X31450Y-17500D02*
X31450Y-18150D01*
X30550Y-18850D02*
X30550Y-19500D01*
X34300Y-14250D02*
X35200Y-14250D01*
X35200Y-14250D02*
X35200Y-13600D01*
X34300Y-12900D02*
X34300Y-12250D01*
X34300Y-12250D02*
X35200Y-12250D01*
X35200Y-12250D02*
X35200Y-12900D01*
X34300Y-13600D02*
X34300Y-14250D01*
X35550Y-14250D02*
X36450Y-14250D01*
X36450Y-14250D02*
X36450Y-13600D01*
X35550Y-12900D02*
X35550Y-12250D01*
X35550Y-12250D02*
X36450Y-12250D01*
X36450Y-12250D02*
X36450Y-12900D01*
X35550Y-13600D02*
X35550Y-14250D01*
X41800Y-14250D02*
X42700Y-14250D01*
X42700Y-14250D02*
X42700Y-13600D01*
X41800Y-12900D02*
X41800Y-12250D01*
X41800Y-12250D02*
X42700Y-12250D01*
X42700Y-12250D02*
X42700Y-12900D01*
X41800Y-13600D02*
X41800Y-14250D01*
X29000Y-21200D02*
X29000Y-20300D01*
X29000Y-20300D02*
X28350Y-20300D01*
X27650Y-21200D02*
X27000Y-21200D01*
X27000Y-21200D02*
X27000Y-20300D01*
X27000Y-20300D02*
X27650Y-20300D01*
X28350Y-21200D02*
X29000Y-21200D01*
X35000Y-21200D02*
X35000Y-20300D01*
X35000Y-20300D02*
X34350Y-20300D01*
X33650Y-21200D02*
X33000Y-21200D01*
X33000Y-21200D02*
X33000Y-20300D01*
X33000Y-20300D02*
X33650Y-20300D01*
X34350Y-21200D02*
X35000Y-21200D01*
X29000Y-22450D02*
X29000Y-21550D01*
X29000Y-21550D02*
X28350Y-21550D01*
X27650Y-22450D02*
X27000Y-22450D01*
X27000Y-22450D02*
X27000Y-21550D01*
X27000Y-21550D02*
X27650Y-21550D01*
X28350Y-22450D02*
X29000Y-22450D01*
X35000Y-22450D02*
X35000Y-21550D01*
X35000Y-21550D02*
X34350Y-21550D01*
X33650Y-22450D02*
X33000Y-22450D01*
X33000Y-22450D02*
X33000Y-21550D01*
X33000Y-21550D02*
X33650Y-21550D01*
X34350Y-22450D02*
X35000Y-22450D01*
X28050Y-14250D02*
X28950Y-14250D01*
X28950Y-14250D02*
X28950Y-13600D01*
X28050Y-12900D02*
X28050Y-12250D01*
X28050Y-12250D02*
X28950Y-12250D01*
X28950Y-12250D02*
X28950Y-12900D01*
X28050Y-13600D02*
X28050Y-14250D01*
X28050Y-19500D02*
X28950Y-19500D01*
X28950Y-19500D02*
X28950Y-18850D01*
X28050Y-18150D02*
X28050Y-17500D01*
X28050Y-17500D02*
X28950Y-17500D01*
X28950Y-17500D02*
X28950Y-18150D01*
X28050Y-18850D02*
X28050Y-19500D01*
X29300Y-14250D02*
X30200Y-14250D01*
X30200Y-14250D02*
X30200Y-13600D01*
X29300Y-12900D02*
X29300Y-12250D01*
X29300Y-12250D02*
X30200Y-12250D01*
X30200Y-12250D02*
X30200Y-12900D01*
X29300Y-13600D02*
X29300Y-14250D01*
X29300Y-19500D02*
X30200Y-19500D01*
X30200Y-19500D02*
X30200Y-18850D01*
X29300Y-18150D02*
X29300Y-17500D01*
X29300Y-17500D02*
X30200Y-17500D01*
X30200Y-17500D02*
X30200Y-18150D01*
X29300Y-18850D02*
X29300Y-19500D01*
X31800Y-14250D02*
X32700Y-14250D01*
X32700Y-14250D02*
X32700Y-13600D01*
X31800Y-12900D02*
X31800Y-12250D01*
X31800Y-12250D02*
X32700Y-12250D01*
X32700Y-12250D02*
X32700Y-12900D01*
X31800Y-13600D02*
X31800Y-14250D01*
X33050Y-14250D02*
X33950Y-14250D01*
X33950Y-14250D02*
X33950Y-13600D01*
X33050Y-12900D02*
X33050Y-12250D01*
X33050Y-12250D02*
X33950Y-12250D01*
X33950Y-12250D02*
X33950Y-12900D01*
X33050Y-13600D02*
X33050Y-14250D01*
X38050Y-14250D02*
X38950Y-14250D01*
X38950Y-14250D02*
X38950Y-13600D01*
X38050Y-12900D02*
X38050Y-12250D01*
X38050Y-12250D02*
X38950Y-12250D01*
X38950Y-12250D02*
X38950Y-12900D01*
X38050Y-13600D02*
X38050Y-14250D01*
X38050Y-19500D02*
X38950Y-19500D01*
X38950Y-19500D02*
X38950Y-18850D01*
X38050Y-18150D02*
X38050Y-17500D01*
X38050Y-17500D02*
X38950Y-17500D01*
X38950Y-17500D02*
X38950Y-18150D01*
X38050Y-18850D02*
X38050Y-19500D01*
X39300Y-19500D02*
X40200Y-19500D01*
X40200Y-19500D02*
X40200Y-18850D01*
X39300Y-18150D02*
X39300Y-17500D01*
X39300Y-17500D02*
X40200Y-17500D01*
X40200Y-17500D02*
X40200Y-18150D01*
X39300Y-18850D02*
X39300Y-19500D01*
X39300Y-14250D02*
X40200Y-14250D01*
X40200Y-14250D02*
X40200Y-13600D01*
X39300Y-12900D02*
X39300Y-12250D01*
X39300Y-12250D02*
X40200Y-12250D01*
X40200Y-12250D02*
X40200Y-12900D01*
X39300Y-13600D02*
X39300Y-14250D01*
X40550Y-14250D02*
X41450Y-14250D01*
X41450Y-14250D02*
X41450Y-13600D01*
X40550Y-12900D02*
X40550Y-12250D01*
X40550Y-12250D02*
X41450Y-12250D01*
X41450Y-12250D02*
X41450Y-12900D01*
X40550Y-13600D02*
X40550Y-14250D01*
X31800Y-19500D02*
X32700Y-19500D01*
X32700Y-19500D02*
X32700Y-18850D01*
X31800Y-18150D02*
X31800Y-17500D01*
X31800Y-17500D02*
X32700Y-17500D01*
X32700Y-17500D02*
X32700Y-18150D01*
X31800Y-18850D02*
X31800Y-19500D01*
X41800Y-19500D02*
X42700Y-19500D01*
X42700Y-19500D02*
X42700Y-18850D01*
X41800Y-18150D02*
X41800Y-17500D01*
X41800Y-17500D02*
X42700Y-17500D01*
X42700Y-17500D02*
X42700Y-18150D01*
X41800Y-18850D02*
X41800Y-19500D01*
G54D15*
X38500Y-16250D02*
X38500Y-17250D01*
X43500Y-17250D02*
X43500Y-16250D01*
X38500Y-16250D02*
X43500Y-16250D01*
X43500Y-17250D02*
X38500Y-17250D01*
G54D16*
X26500Y-17250D02*
X26500Y-16250D01*
X26500Y-16250D02*
X28500Y-16250D01*
X28500Y-16250D02*
X28500Y-17250D01*
X28500Y-17250D02*
X26500Y-17250D01*
G54D17*
X26000Y-12000D02*
X39000Y-12000D01*
X39000Y-10000D02*
X26000Y-10000D01*
X26000Y-10000D02*
X26000Y-12000D01*
X39000Y-12000D02*
X39000Y-10000D01*
G54D12*
X35250Y-27800D02*
X35250Y-27880D01*
X34500Y-28400D02*
X34500Y-26600D01*
X34500Y-26600D02*
X34750Y-26600D01*
X36000Y-27240D02*
X34500Y-27240D01*
X36000Y-27110D02*
X34500Y-27110D01*
X35750Y-28400D02*
X36000Y-28400D01*
X36000Y-28400D02*
X36000Y-26600D01*
X36000Y-26600D02*
X35750Y-26600D01*
X34750Y-28400D02*
X34500Y-28400D01*
X35250Y-27550D02*
X35063Y-27800D01*
X35063Y-27800D02*
X35250Y-27800D01*
X35250Y-27800D02*
X35437Y-27800D01*
X35437Y-27800D02*
X35250Y-27550D01*
X35250Y-27550D02*
X35125Y-27550D01*
X35125Y-27550D02*
X35063Y-27612D01*
X35250Y-27550D02*
X35375Y-27550D01*
X35375Y-27550D02*
X35437Y-27488D01*
X35250Y-27550D02*
X35250Y-27113D01*
X39860Y-21240D02*
X39860Y-22040D01*
X39810Y-22190D02*
X39810Y-21040D01*
X39760Y-20940D02*
X39760Y-22340D01*
X39710Y-22490D02*
X39710Y-20790D01*
X39660Y-20690D02*
X39660Y-22590D01*
X39610Y-22640D02*
X39610Y-20640D01*
X39910Y-21640D02*
G75*
G03X39910Y-21640I-1950J0D01*
G74*
G01*
X40010Y-23690D02*
X40010Y-19590D01*
X40010Y-19590D02*
X36210Y-19590D01*
X36210Y-19590D02*
X35910Y-19890D01*
X35910Y-19890D02*
X35910Y-23390D01*
X35910Y-23390D02*
X36210Y-23690D01*
X36210Y-23690D02*
X40010Y-23690D01*
X36160Y-21640D02*
X36460Y-21640D01*
X36310Y-21790D02*
X36310Y-21490D01*
G54D18*
X24425Y-24228D02*
X24425Y-27772D01*
X23047Y-24228D02*
X23047Y-27772D01*
X23047Y-27772D02*
X28756Y-27772D01*
X28756Y-27772D02*
X28756Y-24228D01*
X28756Y-24228D02*
X23047Y-24228D01*
G54D16*
X26500Y-23250D02*
X25500Y-23250D01*
X25500Y-23250D02*
X25500Y-20250D01*
X25500Y-20250D02*
X26500Y-20250D01*
X26500Y-20250D02*
X26500Y-23250D01*
X25500Y-22250D02*
X26500Y-22250D01*
G54D18*
X36900Y-24500D02*
G75*
G03X36900Y-24500I-900J0D01*
G74*
G01*
G54D10*
X32550Y-23850D02*
X32400Y-23850D01*
X31250Y-23850D02*
X31400Y-23850D01*
X31250Y-27750D02*
X31400Y-27750D01*
X32550Y-27750D02*
X32400Y-27750D01*
X32900Y-28050D02*
X32400Y-28050D01*
X30900Y-28050D02*
X31400Y-28050D01*
X30900Y-23550D02*
X31400Y-23550D01*
X32900Y-23550D02*
X32400Y-23550D01*
X31250Y-23850D02*
X31000Y-24100D01*
X31000Y-24100D02*
X31000Y-27500D01*
X31000Y-27500D02*
X31250Y-27750D01*
X32550Y-27750D02*
X32800Y-27500D01*
X32800Y-27500D02*
X32800Y-24100D01*
X32800Y-24100D02*
X32550Y-23850D01*
X30900Y-28050D02*
X30900Y-23550D01*
X32900Y-23550D02*
X32900Y-28050D01*
G54D17*
X40800Y-20030D02*
X41900Y-20030D01*
X44100Y-20030D02*
X43000Y-20030D01*
X40400Y-24330D02*
X41900Y-24330D01*
X44500Y-24330D02*
X43000Y-24330D01*
X44379Y-22180D02*
G75*
G03X44379Y-22180I-1929J0D01*
G74*
G01*
X44497Y-24345D02*
X44497Y-20408D01*
X44497Y-20408D02*
X44104Y-20015D01*
X40796Y-20015D02*
X40403Y-20408D01*
X40403Y-20408D02*
X40403Y-24345D01*
G54D19*
X37500Y-17250D02*
X33500Y-17250D01*
X37500Y-16250D02*
X33500Y-16250D01*
X33500Y-16250D02*
X33500Y-17250D01*
X37500Y-17250D02*
X37500Y-16250D01*
X33500Y-17250D02*
X29500Y-17250D01*
X33500Y-16250D02*
X29500Y-16250D01*
X29500Y-16250D02*
X29500Y-17250D01*
X33500Y-17250D02*
X33500Y-16250D01*
G54D16*
X32500Y-22250D02*
X31500Y-22250D01*
X31500Y-22250D02*
X31500Y-20250D01*
X31500Y-20250D02*
X32500Y-20250D01*
X32500Y-20250D02*
X32500Y-22250D01*
G54D12*
X33621Y-18692D02*
X33478Y-18792D01*
X33621Y-18864D02*
X33321Y-18864D01*
X33321Y-18750D01*
X33335Y-18721D01*
X33350Y-18707D01*
X33378Y-18692D01*
X33421Y-18692D01*
X33450Y-18707D01*
X33464Y-18721D01*
X33478Y-18750D01*
X33478Y-18864D01*
X33621Y-18407D02*
X33621Y-18578D01*
X33621Y-18492D02*
X33321Y-18492D01*
X33364Y-18521D01*
X33392Y-18550D01*
X33407Y-18578D01*
X33350Y-18292D02*
X33335Y-18278D01*
X33321Y-18250D01*
X33321Y-18178D01*
X33335Y-18150D01*
X33350Y-18135D01*
X33378Y-18121D01*
X33407Y-18121D01*
X33450Y-18135D01*
X33621Y-18307D01*
X33621Y-18121D01*
G54D19*
X39792Y-27004D02*
X40278Y-27004D01*
X40335Y-26985D01*
X40364Y-26966D01*
X40392Y-26928D01*
X40392Y-26852D01*
X40364Y-26814D01*
X40335Y-26795D01*
X40278Y-26776D01*
X39792Y-26776D01*
X40392Y-26376D02*
X40392Y-26604D01*
X40392Y-26490D02*
X39792Y-26490D01*
X39878Y-26528D01*
X39935Y-26566D01*
X39964Y-26604D01*
X39592Y-28480D02*
X39592Y-28671D01*
X38992Y-28671D01*
X39592Y-28347D02*
X38992Y-28347D01*
X39421Y-28214D01*
X38992Y-28080D01*
X39592Y-28080D01*
X39050Y-27909D02*
X39021Y-27890D01*
X38992Y-27852D01*
X38992Y-27757D01*
X39021Y-27719D01*
X39050Y-27700D01*
X39107Y-27680D01*
X39164Y-27680D01*
X39250Y-27700D01*
X39592Y-27928D01*
X39592Y-27680D01*
X38992Y-27319D02*
X38992Y-27509D01*
X39278Y-27528D01*
X39250Y-27509D01*
X39221Y-27471D01*
X39221Y-27376D01*
X39250Y-27338D01*
X39278Y-27319D01*
X39335Y-27300D01*
X39478Y-27300D01*
X39535Y-27319D01*
X39564Y-27338D01*
X39592Y-27376D01*
X39592Y-27471D01*
X39564Y-27509D01*
X39535Y-27528D01*
X39592Y-27109D02*
X39592Y-27033D01*
X39564Y-26995D01*
X39535Y-26976D01*
X39450Y-26938D01*
X39335Y-26919D01*
X39107Y-26919D01*
X39050Y-26938D01*
X39021Y-26957D01*
X38992Y-26995D01*
X38992Y-27071D01*
X39021Y-27109D01*
X39050Y-27128D01*
X39107Y-27147D01*
X39250Y-27147D01*
X39307Y-27128D01*
X39335Y-27109D01*
X39364Y-27071D01*
X39364Y-26995D01*
X39335Y-26957D01*
X39307Y-26938D01*
X39250Y-26919D01*
X38992Y-26576D02*
X38992Y-26652D01*
X39021Y-26690D01*
X39050Y-26709D01*
X39135Y-26747D01*
X39250Y-26766D01*
X39478Y-26766D01*
X39535Y-26747D01*
X39564Y-26728D01*
X39592Y-26690D01*
X39592Y-26614D01*
X39564Y-26576D01*
X39535Y-26557D01*
X39478Y-26538D01*
X39335Y-26538D01*
X39278Y-26557D01*
X39250Y-26576D01*
X39221Y-26614D01*
X39221Y-26690D01*
X39250Y-26728D01*
X39278Y-26747D01*
X39335Y-26766D01*
X39564Y-26385D02*
X39592Y-26328D01*
X39592Y-26233D01*
X39564Y-26195D01*
X39535Y-26176D01*
X39478Y-26157D01*
X39421Y-26157D01*
X39364Y-26176D01*
X39335Y-26195D01*
X39307Y-26233D01*
X39278Y-26309D01*
X39250Y-26347D01*
X39221Y-26366D01*
X39164Y-26385D01*
X39107Y-26385D01*
X39050Y-26366D01*
X39021Y-26347D01*
X38992Y-26309D01*
X38992Y-26214D01*
X39021Y-26157D01*
X39364Y-25985D02*
X39364Y-25680D01*
X38992Y-25300D02*
X38992Y-25490D01*
X39278Y-25509D01*
X39250Y-25490D01*
X39221Y-25452D01*
X39221Y-25357D01*
X39250Y-25319D01*
X39278Y-25300D01*
X39335Y-25280D01*
X39478Y-25280D01*
X39535Y-25300D01*
X39564Y-25319D01*
X39592Y-25357D01*
X39592Y-25452D01*
X39564Y-25490D01*
X39535Y-25509D01*
X39535Y-25109D02*
X39564Y-25090D01*
X39592Y-25109D01*
X39564Y-25128D01*
X39535Y-25109D01*
X39592Y-25109D01*
X38992Y-24842D02*
X38992Y-24804D01*
X39021Y-24766D01*
X39050Y-24747D01*
X39107Y-24728D01*
X39221Y-24709D01*
X39364Y-24709D01*
X39478Y-24728D01*
X39535Y-24747D01*
X39564Y-24766D01*
X39592Y-24804D01*
X39592Y-24842D01*
X39564Y-24880D01*
X39535Y-24899D01*
X39478Y-24919D01*
X39364Y-24938D01*
X39221Y-24938D01*
X39107Y-24919D01*
X39050Y-24899D01*
X39021Y-24880D01*
X38992Y-24842D01*
G54D20*
X30687Y-15239D02*
X30672Y-15268D01*
X30644Y-15296D01*
X30601Y-15339D01*
X30587Y-15368D01*
X30587Y-15396D01*
X30658Y-15382D02*
X30644Y-15411D01*
X30615Y-15439D01*
X30558Y-15453D01*
X30458Y-15453D01*
X30401Y-15439D01*
X30372Y-15411D01*
X30358Y-15382D01*
X30358Y-15325D01*
X30372Y-15296D01*
X30401Y-15268D01*
X30458Y-15253D01*
X30558Y-15253D01*
X30615Y-15268D01*
X30644Y-15296D01*
X30658Y-15325D01*
X30658Y-15382D01*
X30458Y-14996D02*
X30658Y-14996D01*
X30344Y-15068D02*
X30558Y-15139D01*
X30558Y-14953D01*
G54D21*
X29320Y-15226D02*
X29348Y-15235D01*
X29357Y-15245D01*
X29366Y-15264D01*
X29366Y-15292D01*
X29357Y-15310D01*
X29348Y-15320D01*
X29329Y-15329D01*
X29254Y-15329D01*
X29254Y-15132D01*
X29320Y-15132D01*
X29338Y-15142D01*
X29348Y-15151D01*
X29357Y-15170D01*
X29357Y-15189D01*
X29348Y-15207D01*
X29338Y-15217D01*
X29320Y-15226D01*
X29254Y-15226D01*
X29441Y-15320D02*
X29470Y-15329D01*
X29517Y-15329D01*
X29535Y-15320D01*
X29545Y-15310D01*
X29554Y-15292D01*
X29554Y-15273D01*
X29545Y-15254D01*
X29535Y-15245D01*
X29517Y-15235D01*
X29479Y-15226D01*
X29460Y-15217D01*
X29451Y-15207D01*
X29441Y-15189D01*
X29441Y-15170D01*
X29451Y-15151D01*
X29460Y-15142D01*
X29479Y-15132D01*
X29526Y-15132D01*
X29554Y-15142D01*
X29629Y-15320D02*
X29657Y-15329D01*
X29704Y-15329D01*
X29723Y-15320D01*
X29732Y-15310D01*
X29742Y-15292D01*
X29742Y-15273D01*
X29732Y-15254D01*
X29723Y-15245D01*
X29704Y-15235D01*
X29667Y-15226D01*
X29648Y-15217D01*
X29638Y-15207D01*
X29629Y-15189D01*
X29629Y-15170D01*
X29638Y-15151D01*
X29648Y-15142D01*
X29667Y-15132D01*
X29714Y-15132D01*
X29742Y-15142D01*
X29929Y-15329D02*
X29817Y-15329D01*
X29873Y-15329D02*
X29873Y-15132D01*
X29854Y-15160D01*
X29835Y-15179D01*
X29817Y-15189D01*
X29995Y-15132D02*
X30117Y-15132D01*
X30051Y-15207D01*
X30079Y-15207D01*
X30098Y-15217D01*
X30108Y-15226D01*
X30117Y-15245D01*
X30117Y-15292D01*
X30108Y-15310D01*
X30098Y-15320D01*
X30079Y-15329D01*
X30023Y-15329D01*
X30004Y-15320D01*
X29995Y-15310D01*
X30229Y-15217D02*
X30211Y-15207D01*
X30201Y-15198D01*
X30192Y-15179D01*
X30192Y-15170D01*
X30201Y-15151D01*
X30211Y-15142D01*
X30229Y-15132D01*
X30267Y-15132D01*
X30286Y-15142D01*
X30295Y-15151D01*
X30305Y-15170D01*
X30305Y-15179D01*
X30295Y-15198D01*
X30286Y-15207D01*
X30267Y-15217D01*
X30229Y-15217D01*
X30211Y-15226D01*
X30201Y-15235D01*
X30192Y-15254D01*
X30192Y-15292D01*
X30201Y-15310D01*
X30211Y-15320D01*
X30229Y-15329D01*
X30267Y-15329D01*
X30286Y-15320D01*
X30295Y-15310D01*
X30305Y-15292D01*
X30305Y-15254D01*
X30295Y-15235D01*
X30286Y-15226D01*
X30267Y-15217D01*
G54D20*
X43187Y-15382D02*
X43172Y-15411D01*
X43144Y-15439D01*
X43101Y-15482D01*
X43087Y-15511D01*
X43087Y-15539D01*
X43158Y-15525D02*
X43144Y-15553D01*
X43115Y-15582D01*
X43058Y-15596D01*
X42958Y-15596D01*
X42901Y-15582D01*
X42872Y-15553D01*
X42858Y-15525D01*
X42858Y-15468D01*
X42872Y-15439D01*
X42901Y-15411D01*
X42958Y-15396D01*
X43058Y-15396D01*
X43115Y-15411D01*
X43144Y-15439D01*
X43158Y-15468D01*
X43158Y-15525D01*
X43158Y-15111D02*
X43158Y-15282D01*
X43158Y-15196D02*
X42858Y-15196D01*
X42901Y-15225D01*
X42929Y-15253D01*
X42944Y-15282D01*
X42858Y-14925D02*
X42858Y-14896D01*
X42872Y-14868D01*
X42887Y-14853D01*
X42915Y-14839D01*
X42972Y-14825D01*
X43044Y-14825D01*
X43101Y-14839D01*
X43129Y-14853D01*
X43144Y-14868D01*
X43158Y-14896D01*
X43158Y-14925D01*
X43144Y-14953D01*
X43129Y-14968D01*
X43101Y-14982D01*
X43044Y-14996D01*
X42972Y-14996D01*
X42915Y-14982D01*
X42887Y-14968D01*
X42872Y-14953D01*
X42858Y-14925D01*
G54D21*
X41820Y-15226D02*
X41848Y-15235D01*
X41857Y-15245D01*
X41866Y-15264D01*
X41866Y-15292D01*
X41857Y-15310D01*
X41848Y-15320D01*
X41829Y-15329D01*
X41754Y-15329D01*
X41754Y-15132D01*
X41820Y-15132D01*
X41838Y-15142D01*
X41848Y-15151D01*
X41857Y-15170D01*
X41857Y-15189D01*
X41848Y-15207D01*
X41838Y-15217D01*
X41820Y-15226D01*
X41754Y-15226D01*
X41941Y-15320D02*
X41970Y-15329D01*
X42017Y-15329D01*
X42035Y-15320D01*
X42045Y-15310D01*
X42054Y-15292D01*
X42054Y-15273D01*
X42045Y-15254D01*
X42035Y-15245D01*
X42017Y-15235D01*
X41979Y-15226D01*
X41960Y-15217D01*
X41951Y-15207D01*
X41941Y-15189D01*
X41941Y-15170D01*
X41951Y-15151D01*
X41960Y-15142D01*
X41979Y-15132D01*
X42026Y-15132D01*
X42054Y-15142D01*
X42129Y-15320D02*
X42157Y-15329D01*
X42204Y-15329D01*
X42223Y-15320D01*
X42232Y-15310D01*
X42242Y-15292D01*
X42242Y-15273D01*
X42232Y-15254D01*
X42223Y-15245D01*
X42204Y-15235D01*
X42167Y-15226D01*
X42148Y-15217D01*
X42138Y-15207D01*
X42129Y-15189D01*
X42129Y-15170D01*
X42138Y-15151D01*
X42148Y-15142D01*
X42167Y-15132D01*
X42214Y-15132D01*
X42242Y-15142D01*
X42429Y-15329D02*
X42317Y-15329D01*
X42373Y-15329D02*
X42373Y-15132D01*
X42354Y-15160D01*
X42335Y-15179D01*
X42317Y-15189D01*
X42495Y-15132D02*
X42617Y-15132D01*
X42551Y-15207D01*
X42579Y-15207D01*
X42598Y-15217D01*
X42608Y-15226D01*
X42617Y-15245D01*
X42617Y-15292D01*
X42608Y-15310D01*
X42598Y-15320D01*
X42579Y-15329D01*
X42523Y-15329D01*
X42504Y-15320D01*
X42495Y-15310D01*
X42729Y-15217D02*
X42711Y-15207D01*
X42701Y-15198D01*
X42692Y-15179D01*
X42692Y-15170D01*
X42701Y-15151D01*
X42711Y-15142D01*
X42729Y-15132D01*
X42767Y-15132D01*
X42786Y-15142D01*
X42795Y-15151D01*
X42805Y-15170D01*
X42805Y-15179D01*
X42795Y-15198D01*
X42786Y-15207D01*
X42767Y-15217D01*
X42729Y-15217D01*
X42711Y-15226D01*
X42701Y-15235D01*
X42692Y-15254D01*
X42692Y-15292D01*
X42701Y-15310D01*
X42711Y-15320D01*
X42729Y-15329D01*
X42767Y-15329D01*
X42786Y-15320D01*
X42795Y-15310D01*
X42805Y-15292D01*
X42805Y-15254D01*
X42795Y-15235D01*
X42786Y-15226D01*
X42767Y-15217D01*
G54D20*
X40363Y-15317D02*
X40348Y-15346D01*
X40320Y-15374D01*
X40277Y-15417D01*
X40263Y-15446D01*
X40263Y-15474D01*
X40334Y-15460D02*
X40320Y-15489D01*
X40291Y-15517D01*
X40234Y-15531D01*
X40134Y-15531D01*
X40077Y-15517D01*
X40048Y-15489D01*
X40034Y-15460D01*
X40034Y-15403D01*
X40048Y-15374D01*
X40077Y-15346D01*
X40134Y-15331D01*
X40234Y-15331D01*
X40291Y-15346D01*
X40320Y-15374D01*
X40334Y-15403D01*
X40334Y-15460D01*
X40334Y-15189D02*
X40334Y-15131D01*
X40320Y-15103D01*
X40305Y-15089D01*
X40263Y-15060D01*
X40205Y-15046D01*
X40091Y-15046D01*
X40063Y-15060D01*
X40048Y-15074D01*
X40034Y-15103D01*
X40034Y-15160D01*
X40048Y-15189D01*
X40063Y-15203D01*
X40091Y-15217D01*
X40163Y-15217D01*
X40191Y-15203D01*
X40205Y-15189D01*
X40220Y-15160D01*
X40220Y-15103D01*
X40205Y-15074D01*
X40191Y-15060D01*
X40163Y-15046D01*
G54D21*
X40520Y-15226D02*
X40548Y-15235D01*
X40557Y-15245D01*
X40566Y-15264D01*
X40566Y-15292D01*
X40557Y-15310D01*
X40548Y-15320D01*
X40529Y-15329D01*
X40454Y-15329D01*
X40454Y-15132D01*
X40520Y-15132D01*
X40538Y-15142D01*
X40548Y-15151D01*
X40557Y-15170D01*
X40557Y-15189D01*
X40548Y-15207D01*
X40538Y-15217D01*
X40520Y-15226D01*
X40454Y-15226D01*
X40641Y-15320D02*
X40670Y-15329D01*
X40717Y-15329D01*
X40735Y-15320D01*
X40745Y-15310D01*
X40754Y-15292D01*
X40754Y-15273D01*
X40745Y-15254D01*
X40735Y-15245D01*
X40717Y-15235D01*
X40679Y-15226D01*
X40660Y-15217D01*
X40651Y-15207D01*
X40641Y-15189D01*
X40641Y-15170D01*
X40651Y-15151D01*
X40660Y-15142D01*
X40679Y-15132D01*
X40726Y-15132D01*
X40754Y-15142D01*
X40829Y-15320D02*
X40857Y-15329D01*
X40904Y-15329D01*
X40923Y-15320D01*
X40932Y-15310D01*
X40942Y-15292D01*
X40942Y-15273D01*
X40932Y-15254D01*
X40923Y-15245D01*
X40904Y-15235D01*
X40867Y-15226D01*
X40848Y-15217D01*
X40838Y-15207D01*
X40829Y-15189D01*
X40829Y-15170D01*
X40838Y-15151D01*
X40848Y-15142D01*
X40867Y-15132D01*
X40914Y-15132D01*
X40942Y-15142D01*
X41129Y-15329D02*
X41017Y-15329D01*
X41073Y-15329D02*
X41073Y-15132D01*
X41054Y-15160D01*
X41035Y-15179D01*
X41017Y-15189D01*
X41195Y-15132D02*
X41317Y-15132D01*
X41251Y-15207D01*
X41279Y-15207D01*
X41298Y-15217D01*
X41308Y-15226D01*
X41317Y-15245D01*
X41317Y-15292D01*
X41308Y-15310D01*
X41298Y-15320D01*
X41279Y-15329D01*
X41223Y-15329D01*
X41204Y-15320D01*
X41195Y-15310D01*
X41429Y-15217D02*
X41411Y-15207D01*
X41401Y-15198D01*
X41392Y-15179D01*
X41392Y-15170D01*
X41401Y-15151D01*
X41411Y-15142D01*
X41429Y-15132D01*
X41467Y-15132D01*
X41486Y-15142D01*
X41495Y-15151D01*
X41505Y-15170D01*
X41505Y-15179D01*
X41495Y-15198D01*
X41486Y-15207D01*
X41467Y-15217D01*
X41429Y-15217D01*
X41411Y-15226D01*
X41401Y-15235D01*
X41392Y-15254D01*
X41392Y-15292D01*
X41401Y-15310D01*
X41411Y-15320D01*
X41429Y-15329D01*
X41467Y-15329D01*
X41486Y-15320D01*
X41495Y-15310D01*
X41505Y-15292D01*
X41505Y-15254D01*
X41495Y-15235D01*
X41486Y-15226D01*
X41467Y-15217D01*
G54D20*
X42863Y-15460D02*
X42848Y-15489D01*
X42820Y-15517D01*
X42777Y-15560D01*
X42763Y-15589D01*
X42763Y-15617D01*
X42834Y-15603D02*
X42820Y-15631D01*
X42791Y-15660D01*
X42734Y-15674D01*
X42634Y-15674D01*
X42577Y-15660D01*
X42548Y-15631D01*
X42534Y-15603D01*
X42534Y-15546D01*
X42548Y-15517D01*
X42577Y-15489D01*
X42634Y-15474D01*
X42734Y-15474D01*
X42791Y-15489D01*
X42820Y-15517D01*
X42834Y-15546D01*
X42834Y-15603D01*
X42834Y-15189D02*
X42834Y-15360D01*
X42834Y-15274D02*
X42534Y-15274D01*
X42577Y-15303D01*
X42605Y-15331D01*
X42620Y-15360D01*
X42834Y-14903D02*
X42834Y-15074D01*
X42834Y-14989D02*
X42534Y-14989D01*
X42577Y-15017D01*
X42605Y-15046D01*
X42620Y-15074D01*
G54D21*
X43020Y-15226D02*
X43048Y-15235D01*
X43057Y-15245D01*
X43066Y-15264D01*
X43066Y-15292D01*
X43057Y-15310D01*
X43048Y-15320D01*
X43029Y-15329D01*
X42954Y-15329D01*
X42954Y-15132D01*
X43020Y-15132D01*
X43038Y-15142D01*
X43048Y-15151D01*
X43057Y-15170D01*
X43057Y-15189D01*
X43048Y-15207D01*
X43038Y-15217D01*
X43020Y-15226D01*
X42954Y-15226D01*
X43141Y-15320D02*
X43170Y-15329D01*
X43217Y-15329D01*
X43235Y-15320D01*
X43245Y-15310D01*
X43254Y-15292D01*
X43254Y-15273D01*
X43245Y-15254D01*
X43235Y-15245D01*
X43217Y-15235D01*
X43179Y-15226D01*
X43160Y-15217D01*
X43151Y-15207D01*
X43141Y-15189D01*
X43141Y-15170D01*
X43151Y-15151D01*
X43160Y-15142D01*
X43179Y-15132D01*
X43226Y-15132D01*
X43254Y-15142D01*
X43329Y-15320D02*
X43357Y-15329D01*
X43404Y-15329D01*
X43423Y-15320D01*
X43432Y-15310D01*
X43442Y-15292D01*
X43442Y-15273D01*
X43432Y-15254D01*
X43423Y-15245D01*
X43404Y-15235D01*
X43367Y-15226D01*
X43348Y-15217D01*
X43338Y-15207D01*
X43329Y-15189D01*
X43329Y-15170D01*
X43338Y-15151D01*
X43348Y-15142D01*
X43367Y-15132D01*
X43414Y-15132D01*
X43442Y-15142D01*
X43629Y-15329D02*
X43517Y-15329D01*
X43573Y-15329D02*
X43573Y-15132D01*
X43554Y-15160D01*
X43535Y-15179D01*
X43517Y-15189D01*
X43695Y-15132D02*
X43817Y-15132D01*
X43751Y-15207D01*
X43779Y-15207D01*
X43798Y-15217D01*
X43808Y-15226D01*
X43817Y-15245D01*
X43817Y-15292D01*
X43808Y-15310D01*
X43798Y-15320D01*
X43779Y-15329D01*
X43723Y-15329D01*
X43704Y-15320D01*
X43695Y-15310D01*
X43929Y-15217D02*
X43911Y-15207D01*
X43901Y-15198D01*
X43892Y-15179D01*
X43892Y-15170D01*
X43901Y-15151D01*
X43911Y-15142D01*
X43929Y-15132D01*
X43967Y-15132D01*
X43986Y-15142D01*
X43995Y-15151D01*
X44005Y-15170D01*
X44005Y-15179D01*
X43995Y-15198D01*
X43986Y-15207D01*
X43967Y-15217D01*
X43929Y-15217D01*
X43911Y-15226D01*
X43901Y-15235D01*
X43892Y-15254D01*
X43892Y-15292D01*
X43901Y-15310D01*
X43911Y-15320D01*
X43929Y-15329D01*
X43967Y-15329D01*
X43986Y-15320D01*
X43995Y-15310D01*
X44005Y-15292D01*
X44005Y-15254D01*
X43995Y-15235D01*
X43986Y-15226D01*
X43967Y-15217D01*
G54D20*
X40687Y-15239D02*
X40672Y-15268D01*
X40644Y-15296D01*
X40601Y-15339D01*
X40587Y-15368D01*
X40587Y-15396D01*
X40658Y-15382D02*
X40644Y-15411D01*
X40615Y-15439D01*
X40558Y-15453D01*
X40458Y-15453D01*
X40401Y-15439D01*
X40372Y-15411D01*
X40358Y-15382D01*
X40358Y-15325D01*
X40372Y-15296D01*
X40401Y-15268D01*
X40458Y-15253D01*
X40558Y-15253D01*
X40615Y-15268D01*
X40644Y-15296D01*
X40658Y-15325D01*
X40658Y-15382D01*
X40487Y-15082D02*
X40472Y-15111D01*
X40458Y-15125D01*
X40429Y-15139D01*
X40415Y-15139D01*
X40387Y-15125D01*
X40372Y-15111D01*
X40358Y-15082D01*
X40358Y-15025D01*
X40372Y-14996D01*
X40387Y-14982D01*
X40415Y-14968D01*
X40429Y-14968D01*
X40458Y-14982D01*
X40472Y-14996D01*
X40487Y-15025D01*
X40487Y-15082D01*
X40501Y-15111D01*
X40515Y-15125D01*
X40544Y-15139D01*
X40601Y-15139D01*
X40629Y-15125D01*
X40644Y-15111D01*
X40658Y-15082D01*
X40658Y-15025D01*
X40644Y-14996D01*
X40629Y-14982D01*
X40601Y-14968D01*
X40544Y-14968D01*
X40515Y-14982D01*
X40501Y-14996D01*
X40487Y-15025D01*
G54D21*
X39320Y-15226D02*
X39348Y-15235D01*
X39357Y-15245D01*
X39366Y-15264D01*
X39366Y-15292D01*
X39357Y-15310D01*
X39348Y-15320D01*
X39329Y-15329D01*
X39254Y-15329D01*
X39254Y-15132D01*
X39320Y-15132D01*
X39338Y-15142D01*
X39348Y-15151D01*
X39357Y-15170D01*
X39357Y-15189D01*
X39348Y-15207D01*
X39338Y-15217D01*
X39320Y-15226D01*
X39254Y-15226D01*
X39441Y-15320D02*
X39470Y-15329D01*
X39517Y-15329D01*
X39535Y-15320D01*
X39545Y-15310D01*
X39554Y-15292D01*
X39554Y-15273D01*
X39545Y-15254D01*
X39535Y-15245D01*
X39517Y-15235D01*
X39479Y-15226D01*
X39460Y-15217D01*
X39451Y-15207D01*
X39441Y-15189D01*
X39441Y-15170D01*
X39451Y-15151D01*
X39460Y-15142D01*
X39479Y-15132D01*
X39526Y-15132D01*
X39554Y-15142D01*
X39629Y-15320D02*
X39657Y-15329D01*
X39704Y-15329D01*
X39723Y-15320D01*
X39732Y-15310D01*
X39742Y-15292D01*
X39742Y-15273D01*
X39732Y-15254D01*
X39723Y-15245D01*
X39704Y-15235D01*
X39667Y-15226D01*
X39648Y-15217D01*
X39638Y-15207D01*
X39629Y-15189D01*
X39629Y-15170D01*
X39638Y-15151D01*
X39648Y-15142D01*
X39667Y-15132D01*
X39714Y-15132D01*
X39742Y-15142D01*
X39929Y-15329D02*
X39817Y-15329D01*
X39873Y-15329D02*
X39873Y-15132D01*
X39854Y-15160D01*
X39835Y-15179D01*
X39817Y-15189D01*
X39995Y-15132D02*
X40117Y-15132D01*
X40051Y-15207D01*
X40079Y-15207D01*
X40098Y-15217D01*
X40108Y-15226D01*
X40117Y-15245D01*
X40117Y-15292D01*
X40108Y-15310D01*
X40098Y-15320D01*
X40079Y-15329D01*
X40023Y-15329D01*
X40004Y-15320D01*
X39995Y-15310D01*
X40229Y-15217D02*
X40211Y-15207D01*
X40201Y-15198D01*
X40192Y-15179D01*
X40192Y-15170D01*
X40201Y-15151D01*
X40211Y-15142D01*
X40229Y-15132D01*
X40267Y-15132D01*
X40286Y-15142D01*
X40295Y-15151D01*
X40305Y-15170D01*
X40305Y-15179D01*
X40295Y-15198D01*
X40286Y-15207D01*
X40267Y-15217D01*
X40229Y-15217D01*
X40211Y-15226D01*
X40201Y-15235D01*
X40192Y-15254D01*
X40192Y-15292D01*
X40201Y-15310D01*
X40211Y-15320D01*
X40229Y-15329D01*
X40267Y-15329D01*
X40286Y-15320D01*
X40295Y-15310D01*
X40305Y-15292D01*
X40305Y-15254D01*
X40295Y-15235D01*
X40286Y-15226D01*
X40267Y-15217D01*
G54D20*
X25363Y-15460D02*
X25348Y-15489D01*
X25320Y-15517D01*
X25277Y-15560D01*
X25263Y-15589D01*
X25263Y-15617D01*
X25334Y-15603D02*
X25320Y-15631D01*
X25291Y-15660D01*
X25234Y-15674D01*
X25134Y-15674D01*
X25077Y-15660D01*
X25048Y-15631D01*
X25034Y-15603D01*
X25034Y-15546D01*
X25048Y-15517D01*
X25077Y-15489D01*
X25134Y-15474D01*
X25234Y-15474D01*
X25291Y-15489D01*
X25320Y-15517D01*
X25334Y-15546D01*
X25334Y-15603D01*
X25334Y-15189D02*
X25334Y-15360D01*
X25334Y-15274D02*
X25034Y-15274D01*
X25077Y-15303D01*
X25105Y-15331D01*
X25120Y-15360D01*
X25063Y-15074D02*
X25048Y-15060D01*
X25034Y-15031D01*
X25034Y-14960D01*
X25048Y-14931D01*
X25063Y-14917D01*
X25091Y-14903D01*
X25120Y-14903D01*
X25163Y-14917D01*
X25334Y-15089D01*
X25334Y-14903D01*
G54D21*
X25520Y-15226D02*
X25548Y-15235D01*
X25557Y-15245D01*
X25566Y-15264D01*
X25566Y-15292D01*
X25557Y-15310D01*
X25548Y-15320D01*
X25529Y-15329D01*
X25454Y-15329D01*
X25454Y-15132D01*
X25520Y-15132D01*
X25538Y-15142D01*
X25548Y-15151D01*
X25557Y-15170D01*
X25557Y-15189D01*
X25548Y-15207D01*
X25538Y-15217D01*
X25520Y-15226D01*
X25454Y-15226D01*
X25641Y-15320D02*
X25670Y-15329D01*
X25717Y-15329D01*
X25735Y-15320D01*
X25745Y-15310D01*
X25754Y-15292D01*
X25754Y-15273D01*
X25745Y-15254D01*
X25735Y-15245D01*
X25717Y-15235D01*
X25679Y-15226D01*
X25660Y-15217D01*
X25651Y-15207D01*
X25641Y-15189D01*
X25641Y-15170D01*
X25651Y-15151D01*
X25660Y-15142D01*
X25679Y-15132D01*
X25726Y-15132D01*
X25754Y-15142D01*
X25829Y-15320D02*
X25857Y-15329D01*
X25904Y-15329D01*
X25923Y-15320D01*
X25932Y-15310D01*
X25942Y-15292D01*
X25942Y-15273D01*
X25932Y-15254D01*
X25923Y-15245D01*
X25904Y-15235D01*
X25867Y-15226D01*
X25848Y-15217D01*
X25838Y-15207D01*
X25829Y-15189D01*
X25829Y-15170D01*
X25838Y-15151D01*
X25848Y-15142D01*
X25867Y-15132D01*
X25914Y-15132D01*
X25942Y-15142D01*
X26129Y-15329D02*
X26017Y-15329D01*
X26073Y-15329D02*
X26073Y-15132D01*
X26054Y-15160D01*
X26035Y-15179D01*
X26017Y-15189D01*
X26195Y-15132D02*
X26317Y-15132D01*
X26251Y-15207D01*
X26279Y-15207D01*
X26298Y-15217D01*
X26308Y-15226D01*
X26317Y-15245D01*
X26317Y-15292D01*
X26308Y-15310D01*
X26298Y-15320D01*
X26279Y-15329D01*
X26223Y-15329D01*
X26204Y-15320D01*
X26195Y-15310D01*
X26429Y-15217D02*
X26411Y-15207D01*
X26401Y-15198D01*
X26392Y-15179D01*
X26392Y-15170D01*
X26401Y-15151D01*
X26411Y-15142D01*
X26429Y-15132D01*
X26467Y-15132D01*
X26486Y-15142D01*
X26495Y-15151D01*
X26505Y-15170D01*
X26505Y-15179D01*
X26495Y-15198D01*
X26486Y-15207D01*
X26467Y-15217D01*
X26429Y-15217D01*
X26411Y-15226D01*
X26401Y-15235D01*
X26392Y-15254D01*
X26392Y-15292D01*
X26401Y-15310D01*
X26411Y-15320D01*
X26429Y-15329D01*
X26467Y-15329D01*
X26486Y-15320D01*
X26495Y-15310D01*
X26505Y-15292D01*
X26505Y-15254D01*
X26495Y-15235D01*
X26486Y-15226D01*
X26467Y-15217D01*
G54D20*
X37863Y-15317D02*
X37848Y-15346D01*
X37820Y-15374D01*
X37777Y-15417D01*
X37763Y-15446D01*
X37763Y-15474D01*
X37834Y-15460D02*
X37820Y-15489D01*
X37791Y-15517D01*
X37734Y-15531D01*
X37634Y-15531D01*
X37577Y-15517D01*
X37548Y-15489D01*
X37534Y-15460D01*
X37534Y-15403D01*
X37548Y-15374D01*
X37577Y-15346D01*
X37634Y-15331D01*
X37734Y-15331D01*
X37791Y-15346D01*
X37820Y-15374D01*
X37834Y-15403D01*
X37834Y-15460D01*
X37534Y-15231D02*
X37534Y-15031D01*
X37834Y-15160D01*
G54D21*
X38020Y-15226D02*
X38048Y-15235D01*
X38057Y-15245D01*
X38066Y-15264D01*
X38066Y-15292D01*
X38057Y-15310D01*
X38048Y-15320D01*
X38029Y-15329D01*
X37954Y-15329D01*
X37954Y-15132D01*
X38020Y-15132D01*
X38038Y-15142D01*
X38048Y-15151D01*
X38057Y-15170D01*
X38057Y-15189D01*
X38048Y-15207D01*
X38038Y-15217D01*
X38020Y-15226D01*
X37954Y-15226D01*
X38141Y-15320D02*
X38170Y-15329D01*
X38217Y-15329D01*
X38235Y-15320D01*
X38245Y-15310D01*
X38254Y-15292D01*
X38254Y-15273D01*
X38245Y-15254D01*
X38235Y-15245D01*
X38217Y-15235D01*
X38179Y-15226D01*
X38160Y-15217D01*
X38151Y-15207D01*
X38141Y-15189D01*
X38141Y-15170D01*
X38151Y-15151D01*
X38160Y-15142D01*
X38179Y-15132D01*
X38226Y-15132D01*
X38254Y-15142D01*
X38329Y-15320D02*
X38357Y-15329D01*
X38404Y-15329D01*
X38423Y-15320D01*
X38432Y-15310D01*
X38442Y-15292D01*
X38442Y-15273D01*
X38432Y-15254D01*
X38423Y-15245D01*
X38404Y-15235D01*
X38367Y-15226D01*
X38348Y-15217D01*
X38338Y-15207D01*
X38329Y-15189D01*
X38329Y-15170D01*
X38338Y-15151D01*
X38348Y-15142D01*
X38367Y-15132D01*
X38414Y-15132D01*
X38442Y-15142D01*
X38629Y-15329D02*
X38517Y-15329D01*
X38573Y-15329D02*
X38573Y-15132D01*
X38554Y-15160D01*
X38535Y-15179D01*
X38517Y-15189D01*
X38695Y-15132D02*
X38817Y-15132D01*
X38751Y-15207D01*
X38779Y-15207D01*
X38798Y-15217D01*
X38808Y-15226D01*
X38817Y-15245D01*
X38817Y-15292D01*
X38808Y-15310D01*
X38798Y-15320D01*
X38779Y-15329D01*
X38723Y-15329D01*
X38704Y-15320D01*
X38695Y-15310D01*
X38929Y-15217D02*
X38911Y-15207D01*
X38901Y-15198D01*
X38892Y-15179D01*
X38892Y-15170D01*
X38901Y-15151D01*
X38911Y-15142D01*
X38929Y-15132D01*
X38967Y-15132D01*
X38986Y-15142D01*
X38995Y-15151D01*
X39005Y-15170D01*
X39005Y-15179D01*
X38995Y-15198D01*
X38986Y-15207D01*
X38967Y-15217D01*
X38929Y-15217D01*
X38911Y-15226D01*
X38901Y-15235D01*
X38892Y-15254D01*
X38892Y-15292D01*
X38901Y-15310D01*
X38911Y-15320D01*
X38929Y-15329D01*
X38967Y-15329D01*
X38986Y-15320D01*
X38995Y-15310D01*
X39005Y-15292D01*
X39005Y-15254D01*
X38995Y-15235D01*
X38986Y-15226D01*
X38967Y-15217D01*
G54D20*
X32863Y-15317D02*
X32848Y-15346D01*
X32820Y-15374D01*
X32777Y-15417D01*
X32763Y-15446D01*
X32763Y-15474D01*
X32834Y-15460D02*
X32820Y-15489D01*
X32791Y-15517D01*
X32734Y-15531D01*
X32634Y-15531D01*
X32577Y-15517D01*
X32548Y-15489D01*
X32534Y-15460D01*
X32534Y-15403D01*
X32548Y-15374D01*
X32577Y-15346D01*
X32634Y-15331D01*
X32734Y-15331D01*
X32791Y-15346D01*
X32820Y-15374D01*
X32834Y-15403D01*
X32834Y-15460D01*
X32534Y-15074D02*
X32534Y-15131D01*
X32548Y-15160D01*
X32563Y-15174D01*
X32605Y-15203D01*
X32663Y-15217D01*
X32777Y-15217D01*
X32805Y-15203D01*
X32820Y-15189D01*
X32834Y-15160D01*
X32834Y-15103D01*
X32820Y-15074D01*
X32805Y-15060D01*
X32777Y-15046D01*
X32705Y-15046D01*
X32677Y-15060D01*
X32663Y-15074D01*
X32648Y-15103D01*
X32648Y-15160D01*
X32663Y-15189D01*
X32677Y-15203D01*
X32705Y-15217D01*
G54D21*
X33020Y-15226D02*
X33048Y-15235D01*
X33057Y-15245D01*
X33066Y-15264D01*
X33066Y-15292D01*
X33057Y-15310D01*
X33048Y-15320D01*
X33029Y-15329D01*
X32954Y-15329D01*
X32954Y-15132D01*
X33020Y-15132D01*
X33038Y-15142D01*
X33048Y-15151D01*
X33057Y-15170D01*
X33057Y-15189D01*
X33048Y-15207D01*
X33038Y-15217D01*
X33020Y-15226D01*
X32954Y-15226D01*
X33141Y-15320D02*
X33170Y-15329D01*
X33217Y-15329D01*
X33235Y-15320D01*
X33245Y-15310D01*
X33254Y-15292D01*
X33254Y-15273D01*
X33245Y-15254D01*
X33235Y-15245D01*
X33217Y-15235D01*
X33179Y-15226D01*
X33160Y-15217D01*
X33151Y-15207D01*
X33141Y-15189D01*
X33141Y-15170D01*
X33151Y-15151D01*
X33160Y-15142D01*
X33179Y-15132D01*
X33226Y-15132D01*
X33254Y-15142D01*
X33329Y-15320D02*
X33357Y-15329D01*
X33404Y-15329D01*
X33423Y-15320D01*
X33432Y-15310D01*
X33442Y-15292D01*
X33442Y-15273D01*
X33432Y-15254D01*
X33423Y-15245D01*
X33404Y-15235D01*
X33367Y-15226D01*
X33348Y-15217D01*
X33338Y-15207D01*
X33329Y-15189D01*
X33329Y-15170D01*
X33338Y-15151D01*
X33348Y-15142D01*
X33367Y-15132D01*
X33414Y-15132D01*
X33442Y-15142D01*
X33629Y-15329D02*
X33517Y-15329D01*
X33573Y-15329D02*
X33573Y-15132D01*
X33554Y-15160D01*
X33535Y-15179D01*
X33517Y-15189D01*
X33695Y-15132D02*
X33817Y-15132D01*
X33751Y-15207D01*
X33779Y-15207D01*
X33798Y-15217D01*
X33808Y-15226D01*
X33817Y-15245D01*
X33817Y-15292D01*
X33808Y-15310D01*
X33798Y-15320D01*
X33779Y-15329D01*
X33723Y-15329D01*
X33704Y-15320D01*
X33695Y-15310D01*
X33929Y-15217D02*
X33911Y-15207D01*
X33901Y-15198D01*
X33892Y-15179D01*
X33892Y-15170D01*
X33901Y-15151D01*
X33911Y-15142D01*
X33929Y-15132D01*
X33967Y-15132D01*
X33986Y-15142D01*
X33995Y-15151D01*
X34005Y-15170D01*
X34005Y-15179D01*
X33995Y-15198D01*
X33986Y-15207D01*
X33967Y-15217D01*
X33929Y-15217D01*
X33911Y-15226D01*
X33901Y-15235D01*
X33892Y-15254D01*
X33892Y-15292D01*
X33901Y-15310D01*
X33911Y-15320D01*
X33929Y-15329D01*
X33967Y-15329D01*
X33986Y-15320D01*
X33995Y-15310D01*
X34005Y-15292D01*
X34005Y-15254D01*
X33995Y-15235D01*
X33986Y-15226D01*
X33967Y-15217D01*
G54D20*
X28187Y-15382D02*
X28172Y-15411D01*
X28144Y-15439D01*
X28101Y-15482D01*
X28087Y-15511D01*
X28087Y-15539D01*
X28158Y-15525D02*
X28144Y-15553D01*
X28115Y-15582D01*
X28058Y-15596D01*
X27958Y-15596D01*
X27901Y-15582D01*
X27872Y-15553D01*
X27858Y-15525D01*
X27858Y-15468D01*
X27872Y-15439D01*
X27901Y-15411D01*
X27958Y-15396D01*
X28058Y-15396D01*
X28115Y-15411D01*
X28144Y-15439D01*
X28158Y-15468D01*
X28158Y-15525D01*
X28158Y-15111D02*
X28158Y-15282D01*
X28158Y-15196D02*
X27858Y-15196D01*
X27901Y-15225D01*
X27929Y-15253D01*
X27944Y-15282D01*
X27858Y-15011D02*
X27858Y-14825D01*
X27972Y-14925D01*
X27972Y-14882D01*
X27987Y-14853D01*
X28001Y-14839D01*
X28029Y-14825D01*
X28101Y-14825D01*
X28129Y-14839D01*
X28144Y-14853D01*
X28158Y-14882D01*
X28158Y-14968D01*
X28144Y-14996D01*
X28129Y-15011D01*
G54D21*
X26820Y-15226D02*
X26848Y-15235D01*
X26857Y-15245D01*
X26866Y-15264D01*
X26866Y-15292D01*
X26857Y-15310D01*
X26848Y-15320D01*
X26829Y-15329D01*
X26754Y-15329D01*
X26754Y-15132D01*
X26820Y-15132D01*
X26838Y-15142D01*
X26848Y-15151D01*
X26857Y-15170D01*
X26857Y-15189D01*
X26848Y-15207D01*
X26838Y-15217D01*
X26820Y-15226D01*
X26754Y-15226D01*
X26941Y-15320D02*
X26970Y-15329D01*
X27017Y-15329D01*
X27035Y-15320D01*
X27045Y-15310D01*
X27054Y-15292D01*
X27054Y-15273D01*
X27045Y-15254D01*
X27035Y-15245D01*
X27017Y-15235D01*
X26979Y-15226D01*
X26960Y-15217D01*
X26951Y-15207D01*
X26941Y-15189D01*
X26941Y-15170D01*
X26951Y-15151D01*
X26960Y-15142D01*
X26979Y-15132D01*
X27026Y-15132D01*
X27054Y-15142D01*
X27129Y-15320D02*
X27157Y-15329D01*
X27204Y-15329D01*
X27223Y-15320D01*
X27232Y-15310D01*
X27242Y-15292D01*
X27242Y-15273D01*
X27232Y-15254D01*
X27223Y-15245D01*
X27204Y-15235D01*
X27167Y-15226D01*
X27148Y-15217D01*
X27138Y-15207D01*
X27129Y-15189D01*
X27129Y-15170D01*
X27138Y-15151D01*
X27148Y-15142D01*
X27167Y-15132D01*
X27214Y-15132D01*
X27242Y-15142D01*
X27429Y-15329D02*
X27317Y-15329D01*
X27373Y-15329D02*
X27373Y-15132D01*
X27354Y-15160D01*
X27335Y-15179D01*
X27317Y-15189D01*
X27495Y-15132D02*
X27617Y-15132D01*
X27551Y-15207D01*
X27579Y-15207D01*
X27598Y-15217D01*
X27608Y-15226D01*
X27617Y-15245D01*
X27617Y-15292D01*
X27608Y-15310D01*
X27598Y-15320D01*
X27579Y-15329D01*
X27523Y-15329D01*
X27504Y-15320D01*
X27495Y-15310D01*
X27729Y-15217D02*
X27711Y-15207D01*
X27701Y-15198D01*
X27692Y-15179D01*
X27692Y-15170D01*
X27701Y-15151D01*
X27711Y-15142D01*
X27729Y-15132D01*
X27767Y-15132D01*
X27786Y-15142D01*
X27795Y-15151D01*
X27805Y-15170D01*
X27805Y-15179D01*
X27795Y-15198D01*
X27786Y-15207D01*
X27767Y-15217D01*
X27729Y-15217D01*
X27711Y-15226D01*
X27701Y-15235D01*
X27692Y-15254D01*
X27692Y-15292D01*
X27701Y-15310D01*
X27711Y-15320D01*
X27729Y-15329D01*
X27767Y-15329D01*
X27786Y-15320D01*
X27795Y-15310D01*
X27805Y-15292D01*
X27805Y-15254D01*
X27795Y-15235D01*
X27786Y-15226D01*
X27767Y-15217D01*
G54D20*
X33187Y-15239D02*
X33172Y-15268D01*
X33144Y-15296D01*
X33101Y-15339D01*
X33087Y-15368D01*
X33087Y-15396D01*
X33158Y-15382D02*
X33144Y-15411D01*
X33115Y-15439D01*
X33058Y-15453D01*
X32958Y-15453D01*
X32901Y-15439D01*
X32872Y-15411D01*
X32858Y-15382D01*
X32858Y-15325D01*
X32872Y-15296D01*
X32901Y-15268D01*
X32958Y-15253D01*
X33058Y-15253D01*
X33115Y-15268D01*
X33144Y-15296D01*
X33158Y-15325D01*
X33158Y-15382D01*
X32858Y-14982D02*
X32858Y-15125D01*
X33001Y-15139D01*
X32987Y-15125D01*
X32972Y-15096D01*
X32972Y-15025D01*
X32987Y-14996D01*
X33001Y-14982D01*
X33029Y-14968D01*
X33101Y-14968D01*
X33129Y-14982D01*
X33144Y-14996D01*
X33158Y-15025D01*
X33158Y-15096D01*
X33144Y-15125D01*
X33129Y-15139D01*
G54D21*
X31820Y-15226D02*
X31848Y-15235D01*
X31857Y-15245D01*
X31866Y-15264D01*
X31866Y-15292D01*
X31857Y-15310D01*
X31848Y-15320D01*
X31829Y-15329D01*
X31754Y-15329D01*
X31754Y-15132D01*
X31820Y-15132D01*
X31838Y-15142D01*
X31848Y-15151D01*
X31857Y-15170D01*
X31857Y-15189D01*
X31848Y-15207D01*
X31838Y-15217D01*
X31820Y-15226D01*
X31754Y-15226D01*
X31941Y-15320D02*
X31970Y-15329D01*
X32017Y-15329D01*
X32035Y-15320D01*
X32045Y-15310D01*
X32054Y-15292D01*
X32054Y-15273D01*
X32045Y-15254D01*
X32035Y-15245D01*
X32017Y-15235D01*
X31979Y-15226D01*
X31960Y-15217D01*
X31951Y-15207D01*
X31941Y-15189D01*
X31941Y-15170D01*
X31951Y-15151D01*
X31960Y-15142D01*
X31979Y-15132D01*
X32026Y-15132D01*
X32054Y-15142D01*
X32129Y-15320D02*
X32157Y-15329D01*
X32204Y-15329D01*
X32223Y-15320D01*
X32232Y-15310D01*
X32242Y-15292D01*
X32242Y-15273D01*
X32232Y-15254D01*
X32223Y-15245D01*
X32204Y-15235D01*
X32167Y-15226D01*
X32148Y-15217D01*
X32138Y-15207D01*
X32129Y-15189D01*
X32129Y-15170D01*
X32138Y-15151D01*
X32148Y-15142D01*
X32167Y-15132D01*
X32214Y-15132D01*
X32242Y-15142D01*
X32429Y-15329D02*
X32317Y-15329D01*
X32373Y-15329D02*
X32373Y-15132D01*
X32354Y-15160D01*
X32335Y-15179D01*
X32317Y-15189D01*
X32495Y-15132D02*
X32617Y-15132D01*
X32551Y-15207D01*
X32579Y-15207D01*
X32598Y-15217D01*
X32608Y-15226D01*
X32617Y-15245D01*
X32617Y-15292D01*
X32608Y-15310D01*
X32598Y-15320D01*
X32579Y-15329D01*
X32523Y-15329D01*
X32504Y-15320D01*
X32495Y-15310D01*
X32729Y-15217D02*
X32711Y-15207D01*
X32701Y-15198D01*
X32692Y-15179D01*
X32692Y-15170D01*
X32701Y-15151D01*
X32711Y-15142D01*
X32729Y-15132D01*
X32767Y-15132D01*
X32786Y-15142D01*
X32795Y-15151D01*
X32805Y-15170D01*
X32805Y-15179D01*
X32795Y-15198D01*
X32786Y-15207D01*
X32767Y-15217D01*
X32729Y-15217D01*
X32711Y-15226D01*
X32701Y-15235D01*
X32692Y-15254D01*
X32692Y-15292D01*
X32701Y-15310D01*
X32711Y-15320D01*
X32729Y-15329D01*
X32767Y-15329D01*
X32786Y-15320D01*
X32795Y-15310D01*
X32805Y-15292D01*
X32805Y-15254D01*
X32795Y-15235D01*
X32786Y-15226D01*
X32767Y-15217D01*
G54D20*
X30363Y-15460D02*
X30348Y-15489D01*
X30320Y-15517D01*
X30277Y-15560D01*
X30263Y-15589D01*
X30263Y-15617D01*
X30334Y-15603D02*
X30320Y-15631D01*
X30291Y-15660D01*
X30234Y-15674D01*
X30134Y-15674D01*
X30077Y-15660D01*
X30048Y-15631D01*
X30034Y-15603D01*
X30034Y-15546D01*
X30048Y-15517D01*
X30077Y-15489D01*
X30134Y-15474D01*
X30234Y-15474D01*
X30291Y-15489D01*
X30320Y-15517D01*
X30334Y-15546D01*
X30334Y-15603D01*
X30334Y-15189D02*
X30334Y-15360D01*
X30334Y-15274D02*
X30034Y-15274D01*
X30077Y-15303D01*
X30105Y-15331D01*
X30120Y-15360D01*
X30134Y-14931D02*
X30334Y-14931D01*
X30020Y-15003D02*
X30234Y-15074D01*
X30234Y-14889D01*
G54D21*
X30520Y-15226D02*
X30548Y-15235D01*
X30557Y-15245D01*
X30566Y-15264D01*
X30566Y-15292D01*
X30557Y-15310D01*
X30548Y-15320D01*
X30529Y-15329D01*
X30454Y-15329D01*
X30454Y-15132D01*
X30520Y-15132D01*
X30538Y-15142D01*
X30548Y-15151D01*
X30557Y-15170D01*
X30557Y-15189D01*
X30548Y-15207D01*
X30538Y-15217D01*
X30520Y-15226D01*
X30454Y-15226D01*
X30641Y-15320D02*
X30670Y-15329D01*
X30717Y-15329D01*
X30735Y-15320D01*
X30745Y-15310D01*
X30754Y-15292D01*
X30754Y-15273D01*
X30745Y-15254D01*
X30735Y-15245D01*
X30717Y-15235D01*
X30679Y-15226D01*
X30660Y-15217D01*
X30651Y-15207D01*
X30641Y-15189D01*
X30641Y-15170D01*
X30651Y-15151D01*
X30660Y-15142D01*
X30679Y-15132D01*
X30726Y-15132D01*
X30754Y-15142D01*
X30829Y-15320D02*
X30857Y-15329D01*
X30904Y-15329D01*
X30923Y-15320D01*
X30932Y-15310D01*
X30942Y-15292D01*
X30942Y-15273D01*
X30932Y-15254D01*
X30923Y-15245D01*
X30904Y-15235D01*
X30867Y-15226D01*
X30848Y-15217D01*
X30838Y-15207D01*
X30829Y-15189D01*
X30829Y-15170D01*
X30838Y-15151D01*
X30848Y-15142D01*
X30867Y-15132D01*
X30914Y-15132D01*
X30942Y-15142D01*
X31129Y-15329D02*
X31017Y-15329D01*
X31073Y-15329D02*
X31073Y-15132D01*
X31054Y-15160D01*
X31035Y-15179D01*
X31017Y-15189D01*
X31195Y-15132D02*
X31317Y-15132D01*
X31251Y-15207D01*
X31279Y-15207D01*
X31298Y-15217D01*
X31308Y-15226D01*
X31317Y-15245D01*
X31317Y-15292D01*
X31308Y-15310D01*
X31298Y-15320D01*
X31279Y-15329D01*
X31223Y-15329D01*
X31204Y-15320D01*
X31195Y-15310D01*
X31429Y-15217D02*
X31411Y-15207D01*
X31401Y-15198D01*
X31392Y-15179D01*
X31392Y-15170D01*
X31401Y-15151D01*
X31411Y-15142D01*
X31429Y-15132D01*
X31467Y-15132D01*
X31486Y-15142D01*
X31495Y-15151D01*
X31505Y-15170D01*
X31505Y-15179D01*
X31495Y-15198D01*
X31486Y-15207D01*
X31467Y-15217D01*
X31429Y-15217D01*
X31411Y-15226D01*
X31401Y-15235D01*
X31392Y-15254D01*
X31392Y-15292D01*
X31401Y-15310D01*
X31411Y-15320D01*
X31429Y-15329D01*
X31467Y-15329D01*
X31486Y-15320D01*
X31495Y-15310D01*
X31505Y-15292D01*
X31505Y-15254D01*
X31495Y-15235D01*
X31486Y-15226D01*
X31467Y-15217D01*
G54D20*
X35687Y-15382D02*
X35672Y-15411D01*
X35644Y-15439D01*
X35601Y-15482D01*
X35587Y-15511D01*
X35587Y-15539D01*
X35658Y-15525D02*
X35644Y-15553D01*
X35615Y-15582D01*
X35558Y-15596D01*
X35458Y-15596D01*
X35401Y-15582D01*
X35372Y-15553D01*
X35358Y-15525D01*
X35358Y-15468D01*
X35372Y-15439D01*
X35401Y-15411D01*
X35458Y-15396D01*
X35558Y-15396D01*
X35615Y-15411D01*
X35644Y-15439D01*
X35658Y-15468D01*
X35658Y-15525D01*
X35658Y-15111D02*
X35658Y-15282D01*
X35658Y-15196D02*
X35358Y-15196D01*
X35401Y-15225D01*
X35429Y-15253D01*
X35444Y-15282D01*
X35358Y-14839D02*
X35358Y-14982D01*
X35501Y-14996D01*
X35487Y-14982D01*
X35472Y-14953D01*
X35472Y-14882D01*
X35487Y-14853D01*
X35501Y-14839D01*
X35529Y-14825D01*
X35601Y-14825D01*
X35629Y-14839D01*
X35644Y-14853D01*
X35658Y-14882D01*
X35658Y-14953D01*
X35644Y-14982D01*
X35629Y-14996D01*
G54D21*
X34320Y-15226D02*
X34348Y-15235D01*
X34357Y-15245D01*
X34366Y-15264D01*
X34366Y-15292D01*
X34357Y-15310D01*
X34348Y-15320D01*
X34329Y-15329D01*
X34254Y-15329D01*
X34254Y-15132D01*
X34320Y-15132D01*
X34338Y-15142D01*
X34348Y-15151D01*
X34357Y-15170D01*
X34357Y-15189D01*
X34348Y-15207D01*
X34338Y-15217D01*
X34320Y-15226D01*
X34254Y-15226D01*
X34441Y-15320D02*
X34470Y-15329D01*
X34517Y-15329D01*
X34535Y-15320D01*
X34545Y-15310D01*
X34554Y-15292D01*
X34554Y-15273D01*
X34545Y-15254D01*
X34535Y-15245D01*
X34517Y-15235D01*
X34479Y-15226D01*
X34460Y-15217D01*
X34451Y-15207D01*
X34441Y-15189D01*
X34441Y-15170D01*
X34451Y-15151D01*
X34460Y-15142D01*
X34479Y-15132D01*
X34526Y-15132D01*
X34554Y-15142D01*
X34629Y-15320D02*
X34657Y-15329D01*
X34704Y-15329D01*
X34723Y-15320D01*
X34732Y-15310D01*
X34742Y-15292D01*
X34742Y-15273D01*
X34732Y-15254D01*
X34723Y-15245D01*
X34704Y-15235D01*
X34667Y-15226D01*
X34648Y-15217D01*
X34638Y-15207D01*
X34629Y-15189D01*
X34629Y-15170D01*
X34638Y-15151D01*
X34648Y-15142D01*
X34667Y-15132D01*
X34714Y-15132D01*
X34742Y-15142D01*
X34929Y-15329D02*
X34817Y-15329D01*
X34873Y-15329D02*
X34873Y-15132D01*
X34854Y-15160D01*
X34835Y-15179D01*
X34817Y-15189D01*
X34995Y-15132D02*
X35117Y-15132D01*
X35051Y-15207D01*
X35079Y-15207D01*
X35098Y-15217D01*
X35108Y-15226D01*
X35117Y-15245D01*
X35117Y-15292D01*
X35108Y-15310D01*
X35098Y-15320D01*
X35079Y-15329D01*
X35023Y-15329D01*
X35004Y-15320D01*
X34995Y-15310D01*
X35229Y-15217D02*
X35211Y-15207D01*
X35201Y-15198D01*
X35192Y-15179D01*
X35192Y-15170D01*
X35201Y-15151D01*
X35211Y-15142D01*
X35229Y-15132D01*
X35267Y-15132D01*
X35286Y-15142D01*
X35295Y-15151D01*
X35305Y-15170D01*
X35305Y-15179D01*
X35295Y-15198D01*
X35286Y-15207D01*
X35267Y-15217D01*
X35229Y-15217D01*
X35211Y-15226D01*
X35201Y-15235D01*
X35192Y-15254D01*
X35192Y-15292D01*
X35201Y-15310D01*
X35211Y-15320D01*
X35229Y-15329D01*
X35267Y-15329D01*
X35286Y-15320D01*
X35295Y-15310D01*
X35305Y-15292D01*
X35305Y-15254D01*
X35295Y-15235D01*
X35286Y-15226D01*
X35267Y-15217D01*
G54D20*
X38187Y-15382D02*
X38172Y-15411D01*
X38144Y-15439D01*
X38101Y-15482D01*
X38087Y-15511D01*
X38087Y-15539D01*
X38158Y-15525D02*
X38144Y-15553D01*
X38115Y-15582D01*
X38058Y-15596D01*
X37958Y-15596D01*
X37901Y-15582D01*
X37872Y-15553D01*
X37858Y-15525D01*
X37858Y-15468D01*
X37872Y-15439D01*
X37901Y-15411D01*
X37958Y-15396D01*
X38058Y-15396D01*
X38115Y-15411D01*
X38144Y-15439D01*
X38158Y-15468D01*
X38158Y-15525D01*
X38158Y-15111D02*
X38158Y-15282D01*
X38158Y-15196D02*
X37858Y-15196D01*
X37901Y-15225D01*
X37929Y-15253D01*
X37944Y-15282D01*
X37858Y-15011D02*
X37858Y-14811D01*
X38158Y-14939D01*
G54D21*
X36820Y-15226D02*
X36848Y-15235D01*
X36857Y-15245D01*
X36866Y-15264D01*
X36866Y-15292D01*
X36857Y-15310D01*
X36848Y-15320D01*
X36829Y-15329D01*
X36754Y-15329D01*
X36754Y-15132D01*
X36820Y-15132D01*
X36838Y-15142D01*
X36848Y-15151D01*
X36857Y-15170D01*
X36857Y-15189D01*
X36848Y-15207D01*
X36838Y-15217D01*
X36820Y-15226D01*
X36754Y-15226D01*
X36941Y-15320D02*
X36970Y-15329D01*
X37017Y-15329D01*
X37035Y-15320D01*
X37045Y-15310D01*
X37054Y-15292D01*
X37054Y-15273D01*
X37045Y-15254D01*
X37035Y-15245D01*
X37017Y-15235D01*
X36979Y-15226D01*
X36960Y-15217D01*
X36951Y-15207D01*
X36941Y-15189D01*
X36941Y-15170D01*
X36951Y-15151D01*
X36960Y-15142D01*
X36979Y-15132D01*
X37026Y-15132D01*
X37054Y-15142D01*
X37129Y-15320D02*
X37157Y-15329D01*
X37204Y-15329D01*
X37223Y-15320D01*
X37232Y-15310D01*
X37242Y-15292D01*
X37242Y-15273D01*
X37232Y-15254D01*
X37223Y-15245D01*
X37204Y-15235D01*
X37167Y-15226D01*
X37148Y-15217D01*
X37138Y-15207D01*
X37129Y-15189D01*
X37129Y-15170D01*
X37138Y-15151D01*
X37148Y-15142D01*
X37167Y-15132D01*
X37214Y-15132D01*
X37242Y-15142D01*
X37429Y-15329D02*
X37317Y-15329D01*
X37373Y-15329D02*
X37373Y-15132D01*
X37354Y-15160D01*
X37335Y-15179D01*
X37317Y-15189D01*
X37495Y-15132D02*
X37617Y-15132D01*
X37551Y-15207D01*
X37579Y-15207D01*
X37598Y-15217D01*
X37608Y-15226D01*
X37617Y-15245D01*
X37617Y-15292D01*
X37608Y-15310D01*
X37598Y-15320D01*
X37579Y-15329D01*
X37523Y-15329D01*
X37504Y-15320D01*
X37495Y-15310D01*
X37729Y-15217D02*
X37711Y-15207D01*
X37701Y-15198D01*
X37692Y-15179D01*
X37692Y-15170D01*
X37701Y-15151D01*
X37711Y-15142D01*
X37729Y-15132D01*
X37767Y-15132D01*
X37786Y-15142D01*
X37795Y-15151D01*
X37805Y-15170D01*
X37805Y-15179D01*
X37795Y-15198D01*
X37786Y-15207D01*
X37767Y-15217D01*
X37729Y-15217D01*
X37711Y-15226D01*
X37701Y-15235D01*
X37692Y-15254D01*
X37692Y-15292D01*
X37701Y-15310D01*
X37711Y-15320D01*
X37729Y-15329D01*
X37767Y-15329D01*
X37786Y-15320D01*
X37795Y-15310D01*
X37805Y-15292D01*
X37805Y-15254D01*
X37795Y-15235D01*
X37786Y-15226D01*
X37767Y-15217D01*
G54D20*
X35363Y-15460D02*
X35348Y-15489D01*
X35320Y-15517D01*
X35277Y-15560D01*
X35263Y-15589D01*
X35263Y-15617D01*
X35334Y-15603D02*
X35320Y-15631D01*
X35291Y-15660D01*
X35234Y-15674D01*
X35134Y-15674D01*
X35077Y-15660D01*
X35048Y-15631D01*
X35034Y-15603D01*
X35034Y-15546D01*
X35048Y-15517D01*
X35077Y-15489D01*
X35134Y-15474D01*
X35234Y-15474D01*
X35291Y-15489D01*
X35320Y-15517D01*
X35334Y-15546D01*
X35334Y-15603D01*
X35334Y-15189D02*
X35334Y-15360D01*
X35334Y-15274D02*
X35034Y-15274D01*
X35077Y-15303D01*
X35105Y-15331D01*
X35120Y-15360D01*
X35034Y-14931D02*
X35034Y-14989D01*
X35048Y-15017D01*
X35063Y-15031D01*
X35105Y-15060D01*
X35163Y-15074D01*
X35277Y-15074D01*
X35305Y-15060D01*
X35320Y-15046D01*
X35334Y-15017D01*
X35334Y-14960D01*
X35320Y-14931D01*
X35305Y-14917D01*
X35277Y-14903D01*
X35205Y-14903D01*
X35177Y-14917D01*
X35163Y-14931D01*
X35148Y-14960D01*
X35148Y-15017D01*
X35163Y-15046D01*
X35177Y-15060D01*
X35205Y-15074D01*
G54D21*
X35520Y-15226D02*
X35548Y-15235D01*
X35557Y-15245D01*
X35566Y-15264D01*
X35566Y-15292D01*
X35557Y-15310D01*
X35548Y-15320D01*
X35529Y-15329D01*
X35454Y-15329D01*
X35454Y-15132D01*
X35520Y-15132D01*
X35538Y-15142D01*
X35548Y-15151D01*
X35557Y-15170D01*
X35557Y-15189D01*
X35548Y-15207D01*
X35538Y-15217D01*
X35520Y-15226D01*
X35454Y-15226D01*
X35641Y-15320D02*
X35670Y-15329D01*
X35717Y-15329D01*
X35735Y-15320D01*
X35745Y-15310D01*
X35754Y-15292D01*
X35754Y-15273D01*
X35745Y-15254D01*
X35735Y-15245D01*
X35717Y-15235D01*
X35679Y-15226D01*
X35660Y-15217D01*
X35651Y-15207D01*
X35641Y-15189D01*
X35641Y-15170D01*
X35651Y-15151D01*
X35660Y-15142D01*
X35679Y-15132D01*
X35726Y-15132D01*
X35754Y-15142D01*
X35829Y-15320D02*
X35857Y-15329D01*
X35904Y-15329D01*
X35923Y-15320D01*
X35932Y-15310D01*
X35942Y-15292D01*
X35942Y-15273D01*
X35932Y-15254D01*
X35923Y-15245D01*
X35904Y-15235D01*
X35867Y-15226D01*
X35848Y-15217D01*
X35838Y-15207D01*
X35829Y-15189D01*
X35829Y-15170D01*
X35838Y-15151D01*
X35848Y-15142D01*
X35867Y-15132D01*
X35914Y-15132D01*
X35942Y-15142D01*
X36129Y-15329D02*
X36017Y-15329D01*
X36073Y-15329D02*
X36073Y-15132D01*
X36054Y-15160D01*
X36035Y-15179D01*
X36017Y-15189D01*
X36195Y-15132D02*
X36317Y-15132D01*
X36251Y-15207D01*
X36279Y-15207D01*
X36298Y-15217D01*
X36308Y-15226D01*
X36317Y-15245D01*
X36317Y-15292D01*
X36308Y-15310D01*
X36298Y-15320D01*
X36279Y-15329D01*
X36223Y-15329D01*
X36204Y-15320D01*
X36195Y-15310D01*
X36429Y-15217D02*
X36411Y-15207D01*
X36401Y-15198D01*
X36392Y-15179D01*
X36392Y-15170D01*
X36401Y-15151D01*
X36411Y-15142D01*
X36429Y-15132D01*
X36467Y-15132D01*
X36486Y-15142D01*
X36495Y-15151D01*
X36505Y-15170D01*
X36505Y-15179D01*
X36495Y-15198D01*
X36486Y-15207D01*
X36467Y-15217D01*
X36429Y-15217D01*
X36411Y-15226D01*
X36401Y-15235D01*
X36392Y-15254D01*
X36392Y-15292D01*
X36401Y-15310D01*
X36411Y-15320D01*
X36429Y-15329D01*
X36467Y-15329D01*
X36486Y-15320D01*
X36495Y-15310D01*
X36505Y-15292D01*
X36505Y-15254D01*
X36495Y-15235D01*
X36486Y-15226D01*
X36467Y-15217D01*
G54D20*
X30182Y-20113D02*
X30153Y-20098D01*
X30125Y-20070D01*
X30082Y-20027D01*
X30053Y-20013D01*
X30025Y-20013D01*
X30039Y-20084D02*
X30011Y-20070D01*
X29982Y-20041D01*
X29968Y-19984D01*
X29968Y-19884D01*
X29982Y-19827D01*
X30011Y-19798D01*
X30039Y-19784D01*
X30096Y-19784D01*
X30125Y-19798D01*
X30153Y-19827D01*
X30168Y-19884D01*
X30168Y-19984D01*
X30153Y-20041D01*
X30125Y-20070D01*
X30096Y-20084D01*
X30039Y-20084D01*
X30282Y-19813D02*
X30296Y-19798D01*
X30325Y-19784D01*
X30396Y-19784D01*
X30425Y-19798D01*
X30439Y-19813D01*
X30453Y-19841D01*
X30453Y-19870D01*
X30439Y-19913D01*
X30268Y-20084D01*
X30453Y-20084D01*
G54D21*
X30226Y-21179D02*
X30235Y-21151D01*
X30245Y-21142D01*
X30264Y-21133D01*
X30292Y-21133D01*
X30310Y-21142D01*
X30320Y-21151D01*
X30329Y-21170D01*
X30329Y-21245D01*
X30132Y-21245D01*
X30132Y-21179D01*
X30142Y-21161D01*
X30151Y-21151D01*
X30170Y-21142D01*
X30189Y-21142D01*
X30207Y-21151D01*
X30217Y-21161D01*
X30226Y-21179D01*
X30226Y-21245D01*
X30320Y-21058D02*
X30329Y-21029D01*
X30329Y-20982D01*
X30320Y-20964D01*
X30310Y-20954D01*
X30292Y-20945D01*
X30273Y-20945D01*
X30254Y-20954D01*
X30245Y-20964D01*
X30235Y-20982D01*
X30226Y-21020D01*
X30217Y-21039D01*
X30207Y-21048D01*
X30189Y-21058D01*
X30170Y-21058D01*
X30151Y-21048D01*
X30142Y-21039D01*
X30132Y-21020D01*
X30132Y-20973D01*
X30142Y-20945D01*
X30320Y-20870D02*
X30329Y-20842D01*
X30329Y-20795D01*
X30320Y-20776D01*
X30310Y-20767D01*
X30292Y-20757D01*
X30273Y-20757D01*
X30254Y-20767D01*
X30245Y-20776D01*
X30235Y-20795D01*
X30226Y-20832D01*
X30217Y-20851D01*
X30207Y-20861D01*
X30189Y-20870D01*
X30170Y-20870D01*
X30151Y-20861D01*
X30142Y-20851D01*
X30132Y-20832D01*
X30132Y-20785D01*
X30142Y-20757D01*
X30329Y-20570D02*
X30329Y-20682D01*
X30329Y-20626D02*
X30132Y-20626D01*
X30160Y-20645D01*
X30179Y-20664D01*
X30189Y-20682D01*
X30132Y-20504D02*
X30132Y-20382D01*
X30207Y-20448D01*
X30207Y-20420D01*
X30217Y-20401D01*
X30226Y-20391D01*
X30245Y-20382D01*
X30292Y-20382D01*
X30310Y-20391D01*
X30320Y-20401D01*
X30329Y-20420D01*
X30329Y-20476D01*
X30320Y-20495D01*
X30310Y-20504D01*
X30217Y-20270D02*
X30207Y-20288D01*
X30198Y-20298D01*
X30179Y-20307D01*
X30170Y-20307D01*
X30151Y-20298D01*
X30142Y-20288D01*
X30132Y-20270D01*
X30132Y-20232D01*
X30142Y-20213D01*
X30151Y-20204D01*
X30170Y-20194D01*
X30179Y-20194D01*
X30198Y-20204D01*
X30207Y-20213D01*
X30217Y-20232D01*
X30217Y-20270D01*
X30226Y-20288D01*
X30235Y-20298D01*
X30254Y-20307D01*
X30292Y-20307D01*
X30310Y-20298D01*
X30320Y-20288D01*
X30329Y-20270D01*
X30329Y-20232D01*
X30320Y-20213D01*
X30310Y-20204D01*
X30292Y-20194D01*
X30254Y-20194D01*
X30235Y-20204D01*
X30226Y-20213D01*
X30217Y-20232D01*
G54D20*
X27863Y-15317D02*
X27848Y-15346D01*
X27820Y-15374D01*
X27777Y-15417D01*
X27763Y-15446D01*
X27763Y-15474D01*
X27834Y-15460D02*
X27820Y-15489D01*
X27791Y-15517D01*
X27734Y-15531D01*
X27634Y-15531D01*
X27577Y-15517D01*
X27548Y-15489D01*
X27534Y-15460D01*
X27534Y-15403D01*
X27548Y-15374D01*
X27577Y-15346D01*
X27634Y-15331D01*
X27734Y-15331D01*
X27791Y-15346D01*
X27820Y-15374D01*
X27834Y-15403D01*
X27834Y-15460D01*
X27534Y-15231D02*
X27534Y-15046D01*
X27648Y-15146D01*
X27648Y-15103D01*
X27663Y-15074D01*
X27677Y-15060D01*
X27705Y-15046D01*
X27777Y-15046D01*
X27805Y-15060D01*
X27820Y-15074D01*
X27834Y-15103D01*
X27834Y-15189D01*
X27820Y-15217D01*
X27805Y-15231D01*
G54D21*
X28020Y-15226D02*
X28048Y-15235D01*
X28057Y-15245D01*
X28066Y-15264D01*
X28066Y-15292D01*
X28057Y-15310D01*
X28048Y-15320D01*
X28029Y-15329D01*
X27954Y-15329D01*
X27954Y-15132D01*
X28020Y-15132D01*
X28038Y-15142D01*
X28048Y-15151D01*
X28057Y-15170D01*
X28057Y-15189D01*
X28048Y-15207D01*
X28038Y-15217D01*
X28020Y-15226D01*
X27954Y-15226D01*
X28141Y-15320D02*
X28170Y-15329D01*
X28217Y-15329D01*
X28235Y-15320D01*
X28245Y-15310D01*
X28254Y-15292D01*
X28254Y-15273D01*
X28245Y-15254D01*
X28235Y-15245D01*
X28217Y-15235D01*
X28179Y-15226D01*
X28160Y-15217D01*
X28151Y-15207D01*
X28141Y-15189D01*
X28141Y-15170D01*
X28151Y-15151D01*
X28160Y-15142D01*
X28179Y-15132D01*
X28226Y-15132D01*
X28254Y-15142D01*
X28329Y-15320D02*
X28357Y-15329D01*
X28404Y-15329D01*
X28423Y-15320D01*
X28432Y-15310D01*
X28442Y-15292D01*
X28442Y-15273D01*
X28432Y-15254D01*
X28423Y-15245D01*
X28404Y-15235D01*
X28367Y-15226D01*
X28348Y-15217D01*
X28338Y-15207D01*
X28329Y-15189D01*
X28329Y-15170D01*
X28338Y-15151D01*
X28348Y-15142D01*
X28367Y-15132D01*
X28414Y-15132D01*
X28442Y-15142D01*
X28629Y-15329D02*
X28517Y-15329D01*
X28573Y-15329D02*
X28573Y-15132D01*
X28554Y-15160D01*
X28535Y-15179D01*
X28517Y-15189D01*
X28695Y-15132D02*
X28817Y-15132D01*
X28751Y-15207D01*
X28779Y-15207D01*
X28798Y-15217D01*
X28808Y-15226D01*
X28817Y-15245D01*
X28817Y-15292D01*
X28808Y-15310D01*
X28798Y-15320D01*
X28779Y-15329D01*
X28723Y-15329D01*
X28704Y-15320D01*
X28695Y-15310D01*
X28929Y-15217D02*
X28911Y-15207D01*
X28901Y-15198D01*
X28892Y-15179D01*
X28892Y-15170D01*
X28901Y-15151D01*
X28911Y-15142D01*
X28929Y-15132D01*
X28967Y-15132D01*
X28986Y-15142D01*
X28995Y-15151D01*
X29005Y-15170D01*
X29005Y-15179D01*
X28995Y-15198D01*
X28986Y-15207D01*
X28967Y-15217D01*
X28929Y-15217D01*
X28911Y-15226D01*
X28901Y-15235D01*
X28892Y-15254D01*
X28892Y-15292D01*
X28901Y-15310D01*
X28911Y-15320D01*
X28929Y-15329D01*
X28967Y-15329D01*
X28986Y-15320D01*
X28995Y-15310D01*
X29005Y-15292D01*
X29005Y-15254D01*
X28995Y-15235D01*
X28986Y-15226D01*
X28967Y-15217D01*
G54D20*
X30260Y-22937D02*
X30231Y-22922D01*
X30203Y-22894D01*
X30160Y-22851D01*
X30131Y-22837D01*
X30103Y-22837D01*
X30117Y-22908D02*
X30089Y-22894D01*
X30060Y-22865D01*
X30046Y-22808D01*
X30046Y-22708D01*
X30060Y-22651D01*
X30089Y-22622D01*
X30117Y-22608D01*
X30174Y-22608D01*
X30203Y-22622D01*
X30231Y-22651D01*
X30246Y-22708D01*
X30246Y-22808D01*
X30231Y-22865D01*
X30203Y-22894D01*
X30174Y-22908D01*
X30117Y-22908D01*
X30531Y-22908D02*
X30360Y-22908D01*
X30446Y-22908D02*
X30446Y-22608D01*
X30417Y-22651D01*
X30389Y-22679D01*
X30360Y-22694D01*
G54D21*
X30226Y-22479D02*
X30235Y-22451D01*
X30245Y-22442D01*
X30264Y-22433D01*
X30292Y-22433D01*
X30310Y-22442D01*
X30320Y-22451D01*
X30329Y-22470D01*
X30329Y-22545D01*
X30132Y-22545D01*
X30132Y-22479D01*
X30142Y-22461D01*
X30151Y-22451D01*
X30170Y-22442D01*
X30189Y-22442D01*
X30207Y-22451D01*
X30217Y-22461D01*
X30226Y-22479D01*
X30226Y-22545D01*
X30320Y-22358D02*
X30329Y-22329D01*
X30329Y-22282D01*
X30320Y-22264D01*
X30310Y-22254D01*
X30292Y-22245D01*
X30273Y-22245D01*
X30254Y-22254D01*
X30245Y-22264D01*
X30235Y-22282D01*
X30226Y-22320D01*
X30217Y-22339D01*
X30207Y-22348D01*
X30189Y-22358D01*
X30170Y-22358D01*
X30151Y-22348D01*
X30142Y-22339D01*
X30132Y-22320D01*
X30132Y-22273D01*
X30142Y-22245D01*
X30320Y-22170D02*
X30329Y-22142D01*
X30329Y-22095D01*
X30320Y-22076D01*
X30310Y-22067D01*
X30292Y-22057D01*
X30273Y-22057D01*
X30254Y-22067D01*
X30245Y-22076D01*
X30235Y-22095D01*
X30226Y-22132D01*
X30217Y-22151D01*
X30207Y-22161D01*
X30189Y-22170D01*
X30170Y-22170D01*
X30151Y-22161D01*
X30142Y-22151D01*
X30132Y-22132D01*
X30132Y-22085D01*
X30142Y-22057D01*
X30329Y-21870D02*
X30329Y-21982D01*
X30329Y-21926D02*
X30132Y-21926D01*
X30160Y-21945D01*
X30179Y-21964D01*
X30189Y-21982D01*
X30132Y-21804D02*
X30132Y-21682D01*
X30207Y-21748D01*
X30207Y-21720D01*
X30217Y-21701D01*
X30226Y-21691D01*
X30245Y-21682D01*
X30292Y-21682D01*
X30310Y-21691D01*
X30320Y-21701D01*
X30329Y-21720D01*
X30329Y-21776D01*
X30320Y-21795D01*
X30310Y-21804D01*
X30217Y-21570D02*
X30207Y-21588D01*
X30198Y-21598D01*
X30179Y-21607D01*
X30170Y-21607D01*
X30151Y-21598D01*
X30142Y-21588D01*
X30132Y-21570D01*
X30132Y-21532D01*
X30142Y-21513D01*
X30151Y-21504D01*
X30170Y-21494D01*
X30179Y-21494D01*
X30198Y-21504D01*
X30207Y-21513D01*
X30217Y-21532D01*
X30217Y-21570D01*
X30226Y-21588D01*
X30235Y-21598D01*
X30254Y-21607D01*
X30292Y-21607D01*
X30310Y-21598D01*
X30320Y-21588D01*
X30329Y-21570D01*
X30329Y-21532D01*
X30320Y-21513D01*
X30310Y-21504D01*
X30292Y-21494D01*
X30254Y-21494D01*
X30235Y-21504D01*
X30226Y-21513D01*
X30217Y-21532D01*
G54D12*
X27371Y-13442D02*
X27228Y-13542D01*
X27371Y-13614D02*
X27071Y-13614D01*
X27071Y-13500D01*
X27085Y-13471D01*
X27100Y-13457D01*
X27128Y-13442D01*
X27171Y-13442D01*
X27200Y-13457D01*
X27214Y-13471D01*
X27228Y-13500D01*
X27228Y-13614D01*
X27100Y-13328D02*
X27085Y-13314D01*
X27071Y-13285D01*
X27071Y-13214D01*
X27085Y-13185D01*
X27100Y-13171D01*
X27128Y-13157D01*
X27157Y-13157D01*
X27200Y-13171D01*
X27371Y-13342D01*
X27371Y-13157D01*
X27071Y-12885D02*
X27071Y-13028D01*
X27214Y-13042D01*
X27200Y-13028D01*
X27185Y-13000D01*
X27185Y-12928D01*
X27200Y-12900D01*
X27214Y-12885D01*
X27242Y-12871D01*
X27314Y-12871D01*
X27342Y-12885D01*
X27357Y-12900D01*
X27371Y-12928D01*
X27371Y-13000D01*
X27357Y-13028D01*
X27342Y-13042D01*
X43621Y-13442D02*
X43478Y-13542D01*
X43621Y-13614D02*
X43321Y-13614D01*
X43321Y-13500D01*
X43335Y-13471D01*
X43350Y-13457D01*
X43378Y-13442D01*
X43421Y-13442D01*
X43450Y-13457D01*
X43464Y-13471D01*
X43478Y-13500D01*
X43478Y-13614D01*
X43350Y-13328D02*
X43335Y-13314D01*
X43321Y-13285D01*
X43321Y-13214D01*
X43335Y-13185D01*
X43350Y-13171D01*
X43378Y-13157D01*
X43407Y-13157D01*
X43450Y-13171D01*
X43621Y-13342D01*
X43621Y-13157D01*
X43621Y-12871D02*
X43621Y-13042D01*
X43621Y-12957D02*
X43321Y-12957D01*
X43364Y-12985D01*
X43392Y-13014D01*
X43407Y-13042D01*
X37371Y-18692D02*
X37228Y-18792D01*
X37371Y-18864D02*
X37071Y-18864D01*
X37071Y-18750D01*
X37085Y-18721D01*
X37100Y-18707D01*
X37128Y-18692D01*
X37171Y-18692D01*
X37200Y-18707D01*
X37214Y-18721D01*
X37228Y-18750D01*
X37228Y-18864D01*
X37071Y-18592D02*
X37071Y-18407D01*
X37185Y-18507D01*
X37185Y-18464D01*
X37200Y-18435D01*
X37214Y-18421D01*
X37242Y-18407D01*
X37314Y-18407D01*
X37342Y-18421D01*
X37357Y-18435D01*
X37371Y-18464D01*
X37371Y-18550D01*
X37357Y-18578D01*
X37342Y-18592D01*
X37171Y-18150D02*
X37371Y-18150D01*
X37057Y-18221D02*
X37271Y-18292D01*
X37271Y-18107D01*
X43621Y-18692D02*
X43478Y-18792D01*
X43621Y-18864D02*
X43321Y-18864D01*
X43321Y-18750D01*
X43335Y-18721D01*
X43350Y-18707D01*
X43378Y-18692D01*
X43421Y-18692D01*
X43450Y-18707D01*
X43464Y-18721D01*
X43478Y-18750D01*
X43478Y-18864D01*
X43350Y-18578D02*
X43335Y-18564D01*
X43321Y-18535D01*
X43321Y-18464D01*
X43335Y-18435D01*
X43350Y-18421D01*
X43378Y-18407D01*
X43407Y-18407D01*
X43450Y-18421D01*
X43621Y-18592D01*
X43621Y-18407D01*
X43350Y-18292D02*
X43335Y-18278D01*
X43321Y-18250D01*
X43321Y-18178D01*
X43335Y-18150D01*
X43350Y-18135D01*
X43378Y-18121D01*
X43407Y-18121D01*
X43450Y-18135D01*
X43621Y-18307D01*
X43621Y-18121D01*
X37371Y-13442D02*
X37228Y-13542D01*
X37371Y-13614D02*
X37071Y-13614D01*
X37071Y-13500D01*
X37085Y-13471D01*
X37100Y-13457D01*
X37128Y-13442D01*
X37171Y-13442D01*
X37200Y-13457D01*
X37214Y-13471D01*
X37228Y-13500D01*
X37228Y-13614D01*
X37071Y-13342D02*
X37071Y-13157D01*
X37185Y-13257D01*
X37185Y-13214D01*
X37200Y-13185D01*
X37214Y-13171D01*
X37242Y-13157D01*
X37314Y-13157D01*
X37342Y-13171D01*
X37357Y-13185D01*
X37371Y-13214D01*
X37371Y-13300D01*
X37357Y-13328D01*
X37342Y-13342D01*
X37071Y-13057D02*
X37071Y-12871D01*
X37185Y-12971D01*
X37185Y-12928D01*
X37200Y-12900D01*
X37214Y-12885D01*
X37242Y-12871D01*
X37314Y-12871D01*
X37342Y-12885D01*
X37357Y-12900D01*
X37371Y-12928D01*
X37371Y-13014D01*
X37357Y-13042D01*
X37342Y-13057D01*
X26121Y-13442D02*
X25978Y-13542D01*
X26121Y-13614D02*
X25821Y-13614D01*
X25821Y-13500D01*
X25835Y-13471D01*
X25850Y-13457D01*
X25878Y-13442D01*
X25921Y-13442D01*
X25950Y-13457D01*
X25964Y-13471D01*
X25978Y-13500D01*
X25978Y-13614D01*
X25850Y-13328D02*
X25835Y-13314D01*
X25821Y-13285D01*
X25821Y-13214D01*
X25835Y-13185D01*
X25850Y-13171D01*
X25878Y-13157D01*
X25907Y-13157D01*
X25950Y-13171D01*
X26121Y-13342D01*
X26121Y-13157D01*
X25821Y-13057D02*
X25821Y-12871D01*
X25935Y-12971D01*
X25935Y-12928D01*
X25950Y-12900D01*
X25964Y-12885D01*
X25992Y-12871D01*
X26064Y-12871D01*
X26092Y-12885D01*
X26107Y-12900D01*
X26121Y-12928D01*
X26121Y-13014D01*
X26107Y-13042D01*
X26092Y-13057D01*
X26121Y-18692D02*
X25978Y-18792D01*
X26121Y-18864D02*
X25821Y-18864D01*
X25821Y-18750D01*
X25835Y-18721D01*
X25850Y-18707D01*
X25878Y-18692D01*
X25921Y-18692D01*
X25950Y-18707D01*
X25964Y-18721D01*
X25978Y-18750D01*
X25978Y-18864D01*
X25850Y-18578D02*
X25835Y-18564D01*
X25821Y-18535D01*
X25821Y-18464D01*
X25835Y-18435D01*
X25850Y-18421D01*
X25878Y-18407D01*
X25907Y-18407D01*
X25950Y-18421D01*
X26121Y-18592D01*
X26121Y-18407D01*
X25921Y-18150D02*
X26121Y-18150D01*
X25807Y-18221D02*
X26021Y-18292D01*
X26021Y-18107D01*
X34871Y-18692D02*
X34728Y-18792D01*
X34871Y-18864D02*
X34571Y-18864D01*
X34571Y-18750D01*
X34585Y-18721D01*
X34600Y-18707D01*
X34628Y-18692D01*
X34671Y-18692D01*
X34700Y-18707D01*
X34714Y-18721D01*
X34728Y-18750D01*
X34728Y-18864D01*
X34571Y-18592D02*
X34571Y-18407D01*
X34685Y-18507D01*
X34685Y-18464D01*
X34700Y-18435D01*
X34714Y-18421D01*
X34742Y-18407D01*
X34814Y-18407D01*
X34842Y-18421D01*
X34857Y-18435D01*
X34871Y-18464D01*
X34871Y-18550D01*
X34857Y-18578D01*
X34842Y-18592D01*
X34571Y-18221D02*
X34571Y-18192D01*
X34585Y-18164D01*
X34600Y-18150D01*
X34628Y-18135D01*
X34685Y-18121D01*
X34757Y-18121D01*
X34814Y-18135D01*
X34842Y-18150D01*
X34857Y-18164D01*
X34871Y-18192D01*
X34871Y-18221D01*
X34857Y-18250D01*
X34842Y-18264D01*
X34814Y-18278D01*
X34757Y-18292D01*
X34685Y-18292D01*
X34628Y-18278D01*
X34600Y-18264D01*
X34585Y-18250D01*
X34571Y-18221D01*
X36121Y-18692D02*
X35978Y-18792D01*
X36121Y-18864D02*
X35821Y-18864D01*
X35821Y-18750D01*
X35835Y-18721D01*
X35850Y-18707D01*
X35878Y-18692D01*
X35921Y-18692D01*
X35950Y-18707D01*
X35964Y-18721D01*
X35978Y-18750D01*
X35978Y-18864D01*
X35821Y-18592D02*
X35821Y-18407D01*
X35935Y-18507D01*
X35935Y-18464D01*
X35950Y-18435D01*
X35964Y-18421D01*
X35992Y-18407D01*
X36064Y-18407D01*
X36092Y-18421D01*
X36107Y-18435D01*
X36121Y-18464D01*
X36121Y-18550D01*
X36107Y-18578D01*
X36092Y-18592D01*
X35850Y-18292D02*
X35835Y-18278D01*
X35821Y-18250D01*
X35821Y-18178D01*
X35835Y-18150D01*
X35850Y-18135D01*
X35878Y-18121D01*
X35907Y-18121D01*
X35950Y-18135D01*
X36121Y-18307D01*
X36121Y-18121D01*
X27371Y-18692D02*
X27228Y-18792D01*
X27371Y-18864D02*
X27071Y-18864D01*
X27071Y-18750D01*
X27085Y-18721D01*
X27100Y-18707D01*
X27128Y-18692D01*
X27171Y-18692D01*
X27200Y-18707D01*
X27214Y-18721D01*
X27228Y-18750D01*
X27228Y-18864D01*
X27100Y-18578D02*
X27085Y-18564D01*
X27071Y-18535D01*
X27071Y-18464D01*
X27085Y-18435D01*
X27100Y-18421D01*
X27128Y-18407D01*
X27157Y-18407D01*
X27200Y-18421D01*
X27371Y-18592D01*
X27371Y-18407D01*
X27071Y-18150D02*
X27071Y-18207D01*
X27085Y-18235D01*
X27100Y-18250D01*
X27142Y-18278D01*
X27200Y-18292D01*
X27314Y-18292D01*
X27342Y-18278D01*
X27357Y-18264D01*
X27371Y-18235D01*
X27371Y-18178D01*
X27357Y-18150D01*
X27342Y-18135D01*
X27314Y-18121D01*
X27242Y-18121D01*
X27214Y-18135D01*
X27200Y-18150D01*
X27185Y-18178D01*
X27185Y-18235D01*
X27200Y-18264D01*
X27214Y-18278D01*
X27242Y-18292D01*
X31121Y-13442D02*
X30978Y-13542D01*
X31121Y-13614D02*
X30821Y-13614D01*
X30821Y-13500D01*
X30835Y-13471D01*
X30850Y-13457D01*
X30878Y-13442D01*
X30921Y-13442D01*
X30950Y-13457D01*
X30964Y-13471D01*
X30978Y-13500D01*
X30978Y-13614D01*
X30850Y-13328D02*
X30835Y-13314D01*
X30821Y-13285D01*
X30821Y-13214D01*
X30835Y-13185D01*
X30850Y-13171D01*
X30878Y-13157D01*
X30907Y-13157D01*
X30950Y-13171D01*
X31121Y-13342D01*
X31121Y-13157D01*
X30821Y-13057D02*
X30821Y-12857D01*
X31121Y-12985D01*
X41121Y-18692D02*
X40978Y-18792D01*
X41121Y-18864D02*
X40821Y-18864D01*
X40821Y-18750D01*
X40835Y-18721D01*
X40850Y-18707D01*
X40878Y-18692D01*
X40921Y-18692D01*
X40950Y-18707D01*
X40964Y-18721D01*
X40978Y-18750D01*
X40978Y-18864D01*
X41121Y-18407D02*
X41121Y-18578D01*
X41121Y-18492D02*
X40821Y-18492D01*
X40864Y-18521D01*
X40892Y-18550D01*
X40907Y-18578D01*
X40950Y-18235D02*
X40935Y-18264D01*
X40921Y-18278D01*
X40892Y-18292D01*
X40878Y-18292D01*
X40850Y-18278D01*
X40835Y-18264D01*
X40821Y-18235D01*
X40821Y-18178D01*
X40835Y-18150D01*
X40850Y-18135D01*
X40878Y-18121D01*
X40892Y-18121D01*
X40921Y-18135D01*
X40935Y-18150D01*
X40950Y-18178D01*
X40950Y-18235D01*
X40964Y-18264D01*
X40978Y-18278D01*
X41007Y-18292D01*
X41064Y-18292D01*
X41092Y-18278D01*
X41107Y-18264D01*
X41121Y-18235D01*
X41121Y-18178D01*
X41107Y-18150D01*
X41092Y-18135D01*
X41064Y-18121D01*
X41007Y-18121D01*
X40978Y-18135D01*
X40964Y-18150D01*
X40950Y-18178D01*
X31121Y-18692D02*
X30978Y-18792D01*
X31121Y-18864D02*
X30821Y-18864D01*
X30821Y-18750D01*
X30835Y-18721D01*
X30850Y-18707D01*
X30878Y-18692D01*
X30921Y-18692D01*
X30950Y-18707D01*
X30964Y-18721D01*
X30978Y-18750D01*
X30978Y-18864D01*
X30850Y-18578D02*
X30835Y-18564D01*
X30821Y-18535D01*
X30821Y-18464D01*
X30835Y-18435D01*
X30850Y-18421D01*
X30878Y-18407D01*
X30907Y-18407D01*
X30950Y-18421D01*
X31121Y-18592D01*
X31121Y-18407D01*
X30950Y-18235D02*
X30935Y-18264D01*
X30921Y-18278D01*
X30892Y-18292D01*
X30878Y-18292D01*
X30850Y-18278D01*
X30835Y-18264D01*
X30821Y-18235D01*
X30821Y-18178D01*
X30835Y-18150D01*
X30850Y-18135D01*
X30878Y-18121D01*
X30892Y-18121D01*
X30921Y-18135D01*
X30935Y-18150D01*
X30950Y-18178D01*
X30950Y-18235D01*
X30964Y-18264D01*
X30978Y-18278D01*
X31007Y-18292D01*
X31064Y-18292D01*
X31092Y-18278D01*
X31107Y-18264D01*
X31121Y-18235D01*
X31121Y-18178D01*
X31107Y-18150D01*
X31092Y-18135D01*
X31064Y-18121D01*
X31007Y-18121D01*
X30978Y-18135D01*
X30964Y-18150D01*
X30950Y-18178D01*
X34871Y-13442D02*
X34728Y-13542D01*
X34871Y-13614D02*
X34571Y-13614D01*
X34571Y-13500D01*
X34585Y-13471D01*
X34600Y-13457D01*
X34628Y-13442D01*
X34671Y-13442D01*
X34700Y-13457D01*
X34714Y-13471D01*
X34728Y-13500D01*
X34728Y-13614D01*
X34600Y-13328D02*
X34585Y-13314D01*
X34571Y-13285D01*
X34571Y-13214D01*
X34585Y-13185D01*
X34600Y-13171D01*
X34628Y-13157D01*
X34657Y-13157D01*
X34700Y-13171D01*
X34871Y-13342D01*
X34871Y-13157D01*
X34871Y-13014D02*
X34871Y-12957D01*
X34857Y-12928D01*
X34842Y-12914D01*
X34800Y-12885D01*
X34742Y-12871D01*
X34628Y-12871D01*
X34600Y-12885D01*
X34585Y-12900D01*
X34571Y-12928D01*
X34571Y-12985D01*
X34585Y-13014D01*
X34600Y-13028D01*
X34628Y-13042D01*
X34700Y-13042D01*
X34728Y-13028D01*
X34742Y-13014D01*
X34757Y-12985D01*
X34757Y-12928D01*
X34742Y-12900D01*
X34728Y-12885D01*
X34700Y-12871D01*
X36121Y-13442D02*
X35978Y-13542D01*
X36121Y-13614D02*
X35821Y-13614D01*
X35821Y-13500D01*
X35835Y-13471D01*
X35850Y-13457D01*
X35878Y-13442D01*
X35921Y-13442D01*
X35950Y-13457D01*
X35964Y-13471D01*
X35978Y-13500D01*
X35978Y-13614D01*
X35821Y-13342D02*
X35821Y-13157D01*
X35935Y-13257D01*
X35935Y-13214D01*
X35950Y-13185D01*
X35964Y-13171D01*
X35992Y-13157D01*
X36064Y-13157D01*
X36092Y-13171D01*
X36107Y-13185D01*
X36121Y-13214D01*
X36121Y-13300D01*
X36107Y-13328D01*
X36092Y-13342D01*
X36121Y-12871D02*
X36121Y-13042D01*
X36121Y-12957D02*
X35821Y-12957D01*
X35864Y-12985D01*
X35892Y-13014D01*
X35907Y-13042D01*
X42371Y-13442D02*
X42228Y-13542D01*
X42371Y-13614D02*
X42071Y-13614D01*
X42071Y-13500D01*
X42085Y-13471D01*
X42100Y-13457D01*
X42128Y-13442D01*
X42171Y-13442D01*
X42200Y-13457D01*
X42214Y-13471D01*
X42228Y-13500D01*
X42228Y-13614D01*
X42371Y-13157D02*
X42371Y-13328D01*
X42371Y-13242D02*
X42071Y-13242D01*
X42114Y-13271D01*
X42142Y-13300D01*
X42157Y-13328D01*
X42371Y-13014D02*
X42371Y-12957D01*
X42357Y-12928D01*
X42342Y-12914D01*
X42300Y-12885D01*
X42242Y-12871D01*
X42128Y-12871D01*
X42100Y-12885D01*
X42085Y-12900D01*
X42071Y-12928D01*
X42071Y-12985D01*
X42085Y-13014D01*
X42100Y-13028D01*
X42128Y-13042D01*
X42200Y-13042D01*
X42228Y-13028D01*
X42242Y-13014D01*
X42257Y-12985D01*
X42257Y-12928D01*
X42242Y-12900D01*
X42228Y-12885D01*
X42200Y-12871D01*
X27950Y-20871D02*
X27850Y-20728D01*
X27778Y-20871D02*
X27778Y-20571D01*
X27892Y-20571D01*
X27921Y-20585D01*
X27935Y-20600D01*
X27950Y-20628D01*
X27950Y-20671D01*
X27935Y-20700D01*
X27921Y-20714D01*
X27892Y-20728D01*
X27778Y-20728D01*
X28050Y-20571D02*
X28235Y-20571D01*
X28135Y-20685D01*
X28178Y-20685D01*
X28207Y-20700D01*
X28221Y-20714D01*
X28235Y-20742D01*
X28235Y-20814D01*
X28221Y-20842D01*
X28207Y-20857D01*
X28178Y-20871D01*
X28092Y-20871D01*
X28064Y-20857D01*
X28050Y-20842D01*
X33950Y-20871D02*
X33850Y-20728D01*
X33778Y-20871D02*
X33778Y-20571D01*
X33892Y-20571D01*
X33921Y-20585D01*
X33935Y-20600D01*
X33950Y-20628D01*
X33950Y-20671D01*
X33935Y-20700D01*
X33921Y-20714D01*
X33892Y-20728D01*
X33778Y-20728D01*
X34207Y-20671D02*
X34207Y-20871D01*
X34135Y-20557D02*
X34064Y-20771D01*
X34250Y-20771D01*
X27950Y-22121D02*
X27850Y-21978D01*
X27778Y-22121D02*
X27778Y-21821D01*
X27892Y-21821D01*
X27921Y-21835D01*
X27935Y-21850D01*
X27950Y-21878D01*
X27950Y-21921D01*
X27935Y-21950D01*
X27921Y-21964D01*
X27892Y-21978D01*
X27778Y-21978D01*
X28235Y-22121D02*
X28064Y-22121D01*
X28150Y-22121D02*
X28150Y-21821D01*
X28121Y-21864D01*
X28092Y-21892D01*
X28064Y-21907D01*
X33950Y-22121D02*
X33850Y-21978D01*
X33778Y-22121D02*
X33778Y-21821D01*
X33892Y-21821D01*
X33921Y-21835D01*
X33935Y-21850D01*
X33950Y-21878D01*
X33950Y-21921D01*
X33935Y-21950D01*
X33921Y-21964D01*
X33892Y-21978D01*
X33778Y-21978D01*
X34064Y-21850D02*
X34078Y-21835D01*
X34107Y-21821D01*
X34178Y-21821D01*
X34207Y-21835D01*
X34221Y-21850D01*
X34235Y-21878D01*
X34235Y-21907D01*
X34221Y-21950D01*
X34050Y-22121D01*
X34235Y-22121D01*
X28621Y-13300D02*
X28478Y-13400D01*
X28621Y-13471D02*
X28321Y-13471D01*
X28321Y-13357D01*
X28335Y-13328D01*
X28350Y-13314D01*
X28378Y-13300D01*
X28421Y-13300D01*
X28450Y-13314D01*
X28464Y-13328D01*
X28478Y-13357D01*
X28478Y-13471D01*
X28321Y-13028D02*
X28321Y-13171D01*
X28464Y-13185D01*
X28450Y-13171D01*
X28435Y-13142D01*
X28435Y-13071D01*
X28450Y-13042D01*
X28464Y-13028D01*
X28492Y-13014D01*
X28564Y-13014D01*
X28592Y-13028D01*
X28607Y-13042D01*
X28621Y-13071D01*
X28621Y-13142D01*
X28607Y-13171D01*
X28592Y-13185D01*
X28621Y-18550D02*
X28478Y-18650D01*
X28621Y-18721D02*
X28321Y-18721D01*
X28321Y-18607D01*
X28335Y-18578D01*
X28350Y-18564D01*
X28378Y-18550D01*
X28421Y-18550D01*
X28450Y-18564D01*
X28464Y-18578D01*
X28478Y-18607D01*
X28478Y-18721D01*
X28321Y-18292D02*
X28321Y-18350D01*
X28335Y-18378D01*
X28350Y-18392D01*
X28392Y-18421D01*
X28450Y-18435D01*
X28564Y-18435D01*
X28592Y-18421D01*
X28607Y-18407D01*
X28621Y-18378D01*
X28621Y-18321D01*
X28607Y-18292D01*
X28592Y-18278D01*
X28564Y-18264D01*
X28492Y-18264D01*
X28464Y-18278D01*
X28450Y-18292D01*
X28435Y-18321D01*
X28435Y-18378D01*
X28450Y-18407D01*
X28464Y-18421D01*
X28492Y-18435D01*
X29871Y-13300D02*
X29728Y-13400D01*
X29871Y-13471D02*
X29571Y-13471D01*
X29571Y-13357D01*
X29585Y-13328D01*
X29600Y-13314D01*
X29628Y-13300D01*
X29671Y-13300D01*
X29700Y-13314D01*
X29714Y-13328D01*
X29728Y-13357D01*
X29728Y-13471D01*
X29571Y-13200D02*
X29571Y-13000D01*
X29871Y-13128D01*
X29871Y-18550D02*
X29728Y-18650D01*
X29871Y-18721D02*
X29571Y-18721D01*
X29571Y-18607D01*
X29585Y-18578D01*
X29600Y-18564D01*
X29628Y-18550D01*
X29671Y-18550D01*
X29700Y-18564D01*
X29714Y-18578D01*
X29728Y-18607D01*
X29728Y-18721D01*
X29700Y-18378D02*
X29685Y-18407D01*
X29671Y-18421D01*
X29642Y-18435D01*
X29628Y-18435D01*
X29600Y-18421D01*
X29585Y-18407D01*
X29571Y-18378D01*
X29571Y-18321D01*
X29585Y-18292D01*
X29600Y-18278D01*
X29628Y-18264D01*
X29642Y-18264D01*
X29671Y-18278D01*
X29685Y-18292D01*
X29700Y-18321D01*
X29700Y-18378D01*
X29714Y-18407D01*
X29728Y-18421D01*
X29757Y-18435D01*
X29814Y-18435D01*
X29842Y-18421D01*
X29857Y-18407D01*
X29871Y-18378D01*
X29871Y-18321D01*
X29857Y-18292D01*
X29842Y-18278D01*
X29814Y-18264D01*
X29757Y-18264D01*
X29728Y-18278D01*
X29714Y-18292D01*
X29700Y-18321D01*
X32371Y-13300D02*
X32228Y-13400D01*
X32371Y-13471D02*
X32071Y-13471D01*
X32071Y-13357D01*
X32085Y-13328D01*
X32100Y-13314D01*
X32128Y-13300D01*
X32171Y-13300D01*
X32200Y-13314D01*
X32214Y-13328D01*
X32228Y-13357D01*
X32228Y-13471D01*
X32371Y-13157D02*
X32371Y-13100D01*
X32357Y-13071D01*
X32342Y-13057D01*
X32300Y-13028D01*
X32242Y-13014D01*
X32128Y-13014D01*
X32100Y-13028D01*
X32085Y-13042D01*
X32071Y-13071D01*
X32071Y-13128D01*
X32085Y-13157D01*
X32100Y-13171D01*
X32128Y-13185D01*
X32200Y-13185D01*
X32228Y-13171D01*
X32242Y-13157D01*
X32257Y-13128D01*
X32257Y-13071D01*
X32242Y-13042D01*
X32228Y-13028D01*
X32200Y-13014D01*
X33621Y-13442D02*
X33478Y-13542D01*
X33621Y-13614D02*
X33321Y-13614D01*
X33321Y-13500D01*
X33335Y-13471D01*
X33350Y-13457D01*
X33378Y-13442D01*
X33421Y-13442D01*
X33450Y-13457D01*
X33464Y-13471D01*
X33478Y-13500D01*
X33478Y-13614D01*
X33621Y-13157D02*
X33621Y-13328D01*
X33621Y-13242D02*
X33321Y-13242D01*
X33364Y-13271D01*
X33392Y-13300D01*
X33407Y-13328D01*
X33621Y-12871D02*
X33621Y-13042D01*
X33621Y-12957D02*
X33321Y-12957D01*
X33364Y-12985D01*
X33392Y-13014D01*
X33407Y-13042D01*
X38621Y-13442D02*
X38478Y-13542D01*
X38621Y-13614D02*
X38321Y-13614D01*
X38321Y-13500D01*
X38335Y-13471D01*
X38350Y-13457D01*
X38378Y-13442D01*
X38421Y-13442D01*
X38450Y-13457D01*
X38464Y-13471D01*
X38478Y-13500D01*
X38478Y-13614D01*
X38621Y-13157D02*
X38621Y-13328D01*
X38621Y-13242D02*
X38321Y-13242D01*
X38364Y-13271D01*
X38392Y-13300D01*
X38407Y-13328D01*
X38321Y-13057D02*
X38321Y-12871D01*
X38435Y-12971D01*
X38435Y-12928D01*
X38450Y-12900D01*
X38464Y-12885D01*
X38492Y-12871D01*
X38564Y-12871D01*
X38592Y-12885D01*
X38607Y-12900D01*
X38621Y-12928D01*
X38621Y-13014D01*
X38607Y-13042D01*
X38592Y-13057D01*
X38621Y-18692D02*
X38478Y-18792D01*
X38621Y-18864D02*
X38321Y-18864D01*
X38321Y-18750D01*
X38335Y-18721D01*
X38350Y-18707D01*
X38378Y-18692D01*
X38421Y-18692D01*
X38450Y-18707D01*
X38464Y-18721D01*
X38478Y-18750D01*
X38478Y-18864D01*
X38621Y-18407D02*
X38621Y-18578D01*
X38621Y-18492D02*
X38321Y-18492D01*
X38364Y-18521D01*
X38392Y-18550D01*
X38407Y-18578D01*
X38421Y-18150D02*
X38621Y-18150D01*
X38307Y-18221D02*
X38521Y-18292D01*
X38521Y-18107D01*
X39871Y-18692D02*
X39728Y-18792D01*
X39871Y-18864D02*
X39571Y-18864D01*
X39571Y-18750D01*
X39585Y-18721D01*
X39600Y-18707D01*
X39628Y-18692D01*
X39671Y-18692D01*
X39700Y-18707D01*
X39714Y-18721D01*
X39728Y-18750D01*
X39728Y-18864D01*
X39871Y-18407D02*
X39871Y-18578D01*
X39871Y-18492D02*
X39571Y-18492D01*
X39614Y-18521D01*
X39642Y-18550D01*
X39657Y-18578D01*
X39571Y-18150D02*
X39571Y-18207D01*
X39585Y-18235D01*
X39600Y-18250D01*
X39642Y-18278D01*
X39700Y-18292D01*
X39814Y-18292D01*
X39842Y-18278D01*
X39857Y-18264D01*
X39871Y-18235D01*
X39871Y-18178D01*
X39857Y-18150D01*
X39842Y-18135D01*
X39814Y-18121D01*
X39742Y-18121D01*
X39714Y-18135D01*
X39700Y-18150D01*
X39685Y-18178D01*
X39685Y-18235D01*
X39700Y-18264D01*
X39714Y-18278D01*
X39742Y-18292D01*
X39871Y-13442D02*
X39728Y-13542D01*
X39871Y-13614D02*
X39571Y-13614D01*
X39571Y-13500D01*
X39585Y-13471D01*
X39600Y-13457D01*
X39628Y-13442D01*
X39671Y-13442D01*
X39700Y-13457D01*
X39714Y-13471D01*
X39728Y-13500D01*
X39728Y-13614D01*
X39871Y-13157D02*
X39871Y-13328D01*
X39871Y-13242D02*
X39571Y-13242D01*
X39614Y-13271D01*
X39642Y-13300D01*
X39657Y-13328D01*
X39571Y-12885D02*
X39571Y-13028D01*
X39714Y-13042D01*
X39700Y-13028D01*
X39685Y-13000D01*
X39685Y-12928D01*
X39700Y-12900D01*
X39714Y-12885D01*
X39742Y-12871D01*
X39814Y-12871D01*
X39842Y-12885D01*
X39857Y-12900D01*
X39871Y-12928D01*
X39871Y-13000D01*
X39857Y-13028D01*
X39842Y-13042D01*
X41121Y-13442D02*
X40978Y-13542D01*
X41121Y-13614D02*
X40821Y-13614D01*
X40821Y-13500D01*
X40835Y-13471D01*
X40850Y-13457D01*
X40878Y-13442D01*
X40921Y-13442D01*
X40950Y-13457D01*
X40964Y-13471D01*
X40978Y-13500D01*
X40978Y-13614D01*
X41121Y-13157D02*
X41121Y-13328D01*
X41121Y-13242D02*
X40821Y-13242D01*
X40864Y-13271D01*
X40892Y-13300D01*
X40907Y-13328D01*
X40821Y-13057D02*
X40821Y-12857D01*
X41121Y-12985D01*
X32371Y-18692D02*
X32228Y-18792D01*
X32371Y-18864D02*
X32071Y-18864D01*
X32071Y-18750D01*
X32085Y-18721D01*
X32100Y-18707D01*
X32128Y-18692D01*
X32171Y-18692D01*
X32200Y-18707D01*
X32214Y-18721D01*
X32228Y-18750D01*
X32228Y-18864D01*
X32371Y-18407D02*
X32371Y-18578D01*
X32371Y-18492D02*
X32071Y-18492D01*
X32114Y-18521D01*
X32142Y-18550D01*
X32157Y-18578D01*
X32071Y-18221D02*
X32071Y-18192D01*
X32085Y-18164D01*
X32100Y-18150D01*
X32128Y-18135D01*
X32185Y-18121D01*
X32257Y-18121D01*
X32314Y-18135D01*
X32342Y-18150D01*
X32357Y-18164D01*
X32371Y-18192D01*
X32371Y-18221D01*
X32357Y-18250D01*
X32342Y-18264D01*
X32314Y-18278D01*
X32257Y-18292D01*
X32185Y-18292D01*
X32128Y-18278D01*
X32100Y-18264D01*
X32085Y-18250D01*
X32071Y-18221D01*
X42371Y-18692D02*
X42228Y-18792D01*
X42371Y-18864D02*
X42071Y-18864D01*
X42071Y-18750D01*
X42085Y-18721D01*
X42100Y-18707D01*
X42128Y-18692D01*
X42171Y-18692D01*
X42200Y-18707D01*
X42214Y-18721D01*
X42228Y-18750D01*
X42228Y-18864D01*
X42100Y-18578D02*
X42085Y-18564D01*
X42071Y-18535D01*
X42071Y-18464D01*
X42085Y-18435D01*
X42100Y-18421D01*
X42128Y-18407D01*
X42157Y-18407D01*
X42200Y-18421D01*
X42371Y-18592D01*
X42371Y-18407D01*
X42071Y-18221D02*
X42071Y-18192D01*
X42085Y-18164D01*
X42100Y-18150D01*
X42128Y-18135D01*
X42185Y-18121D01*
X42257Y-18121D01*
X42314Y-18135D01*
X42342Y-18150D01*
X42357Y-18164D01*
X42371Y-18192D01*
X42371Y-18221D01*
X42357Y-18250D01*
X42342Y-18264D01*
X42314Y-18278D01*
X42257Y-18292D01*
X42185Y-18292D01*
X42128Y-18278D01*
X42100Y-18264D01*
X42085Y-18250D01*
X42071Y-18221D01*
G54D17*
X40400Y-15892D02*
X40457Y-15911D01*
X40552Y-15911D01*
X40590Y-15892D01*
X40609Y-15873D01*
X40628Y-15835D01*
X40628Y-15797D01*
X40609Y-15759D01*
X40590Y-15740D01*
X40552Y-15721D01*
X40476Y-15702D01*
X40438Y-15683D01*
X40419Y-15664D01*
X40400Y-15626D01*
X40400Y-15588D01*
X40419Y-15550D01*
X40438Y-15530D01*
X40476Y-15511D01*
X40571Y-15511D01*
X40628Y-15530D01*
X40800Y-15911D02*
X40800Y-15511D01*
X40952Y-15511D01*
X40990Y-15530D01*
X41009Y-15550D01*
X41028Y-15588D01*
X41028Y-15645D01*
X41009Y-15683D01*
X40990Y-15702D01*
X40952Y-15721D01*
X40800Y-15721D01*
X41200Y-15911D02*
X41200Y-15511D01*
X41600Y-15911D02*
X41371Y-15911D01*
X41485Y-15911D02*
X41485Y-15511D01*
X41447Y-15569D01*
X41409Y-15607D01*
X41371Y-15626D01*
G54D16*
X26878Y-15821D02*
X26878Y-16064D01*
X26892Y-16092D01*
X26907Y-16107D01*
X26935Y-16121D01*
X26992Y-16121D01*
X27021Y-16107D01*
X27035Y-16092D01*
X27050Y-16064D01*
X27050Y-15821D01*
X27178Y-16035D02*
X27321Y-16035D01*
X27150Y-16121D02*
X27250Y-15821D01*
X27350Y-16121D01*
X27621Y-16121D02*
X27521Y-15978D01*
X27450Y-16121D02*
X27450Y-15821D01*
X27564Y-15821D01*
X27592Y-15835D01*
X27607Y-15850D01*
X27621Y-15878D01*
X27621Y-15921D01*
X27607Y-15950D01*
X27592Y-15964D01*
X27564Y-15978D01*
X27450Y-15978D01*
X27707Y-15821D02*
X27878Y-15821D01*
X27792Y-16121D02*
X27792Y-15821D01*
X28135Y-16121D02*
X27964Y-16121D01*
X28050Y-16121D02*
X28050Y-15821D01*
X28021Y-15864D01*
X27992Y-15892D01*
X27964Y-15907D01*
G54D17*
X28795Y-9661D02*
X28661Y-9471D01*
X28566Y-9661D02*
X28566Y-9261D01*
X28719Y-9261D01*
X28757Y-9280D01*
X28776Y-9300D01*
X28795Y-9338D01*
X28795Y-9395D01*
X28776Y-9433D01*
X28757Y-9452D01*
X28719Y-9471D01*
X28566Y-9471D01*
X29138Y-9661D02*
X29138Y-9452D01*
X29119Y-9414D01*
X29080Y-9395D01*
X29004Y-9395D01*
X28966Y-9414D01*
X29138Y-9642D02*
X29100Y-9661D01*
X29004Y-9661D01*
X28966Y-9642D01*
X28947Y-9604D01*
X28947Y-9566D01*
X28966Y-9528D01*
X29004Y-9509D01*
X29100Y-9509D01*
X29138Y-9490D01*
X29309Y-9642D02*
X29347Y-9661D01*
X29423Y-9661D01*
X29461Y-9642D01*
X29480Y-9604D01*
X29480Y-9585D01*
X29461Y-9547D01*
X29423Y-9528D01*
X29366Y-9528D01*
X29328Y-9509D01*
X29309Y-9471D01*
X29309Y-9452D01*
X29328Y-9414D01*
X29366Y-9395D01*
X29423Y-9395D01*
X29461Y-9414D01*
X29652Y-9661D02*
X29652Y-9261D01*
X29804Y-9261D01*
X29842Y-9280D01*
X29861Y-9300D01*
X29880Y-9338D01*
X29880Y-9395D01*
X29861Y-9433D01*
X29842Y-9452D01*
X29804Y-9471D01*
X29652Y-9471D01*
X30052Y-9661D02*
X30052Y-9395D01*
X30052Y-9261D02*
X30033Y-9280D01*
X30052Y-9300D01*
X30071Y-9280D01*
X30052Y-9261D01*
X30052Y-9300D01*
X30452Y-9661D02*
X30223Y-9661D01*
X30338Y-9661D02*
X30338Y-9261D01*
X30300Y-9319D01*
X30261Y-9357D01*
X30223Y-9376D01*
X34757Y-9661D02*
X34757Y-9261D01*
X34852Y-9261D01*
X34909Y-9280D01*
X34947Y-9319D01*
X34966Y-9357D01*
X34985Y-9433D01*
X34985Y-9490D01*
X34966Y-9566D01*
X34947Y-9604D01*
X34909Y-9642D01*
X34852Y-9661D01*
X34757Y-9661D01*
X35157Y-9661D02*
X35157Y-9261D01*
X35538Y-9661D02*
X35347Y-9661D01*
X35347Y-9261D01*
X35652Y-9300D02*
X35671Y-9280D01*
X35709Y-9261D01*
X35804Y-9261D01*
X35842Y-9280D01*
X35861Y-9300D01*
X35880Y-9338D01*
X35880Y-9376D01*
X35861Y-9433D01*
X35633Y-9661D01*
X35880Y-9661D01*
X36223Y-9261D02*
X36147Y-9261D01*
X36109Y-9280D01*
X36090Y-9300D01*
X36052Y-9357D01*
X36033Y-9433D01*
X36033Y-9585D01*
X36052Y-9623D01*
X36071Y-9642D01*
X36109Y-9661D01*
X36185Y-9661D01*
X36223Y-9642D01*
X36242Y-9623D01*
X36261Y-9585D01*
X36261Y-9490D01*
X36242Y-9452D01*
X36223Y-9433D01*
X36185Y-9414D01*
X36109Y-9414D01*
X36071Y-9433D01*
X36052Y-9452D01*
X36033Y-9490D01*
G54D20*
X34385Y-27790D02*
X33991Y-27790D01*
X33991Y-27697D01*
X34010Y-27640D01*
X34047Y-27603D01*
X34085Y-27584D01*
X34160Y-27565D01*
X34216Y-27565D01*
X34291Y-27584D01*
X34329Y-27603D01*
X34366Y-27640D01*
X34385Y-27697D01*
X34385Y-27790D01*
X34385Y-27190D02*
X34385Y-27415D01*
X34385Y-27303D02*
X33991Y-27303D01*
X34047Y-27340D01*
X34085Y-27378D01*
X34104Y-27415D01*
X36511Y-28344D02*
X36511Y-28569D01*
X36511Y-28456D02*
X36117Y-28456D01*
X36173Y-28494D01*
X36211Y-28531D01*
X36230Y-28569D01*
X36511Y-28175D02*
X36117Y-28175D01*
X36511Y-27950D01*
X36117Y-27950D01*
X36117Y-27575D02*
X36117Y-27762D01*
X36305Y-27781D01*
X36286Y-27762D01*
X36267Y-27725D01*
X36267Y-27631D01*
X36286Y-27593D01*
X36305Y-27575D01*
X36342Y-27556D01*
X36436Y-27556D01*
X36473Y-27575D01*
X36492Y-27593D01*
X36511Y-27631D01*
X36511Y-27725D01*
X36492Y-27762D01*
X36473Y-27781D01*
X36286Y-27331D02*
X36267Y-27368D01*
X36248Y-27387D01*
X36211Y-27406D01*
X36192Y-27406D01*
X36155Y-27387D01*
X36136Y-27368D01*
X36117Y-27331D01*
X36117Y-27256D01*
X36136Y-27218D01*
X36155Y-27199D01*
X36192Y-27181D01*
X36211Y-27181D01*
X36248Y-27199D01*
X36267Y-27218D01*
X36286Y-27256D01*
X36286Y-27331D01*
X36305Y-27368D01*
X36323Y-27387D01*
X36361Y-27406D01*
X36436Y-27406D01*
X36473Y-27387D01*
X36492Y-27368D01*
X36511Y-27331D01*
X36511Y-27256D01*
X36492Y-27218D01*
X36473Y-27199D01*
X36436Y-27181D01*
X36361Y-27181D01*
X36323Y-27199D01*
X36305Y-27218D01*
X36286Y-27256D01*
X36155Y-27030D02*
X36136Y-27012D01*
X36117Y-26974D01*
X36117Y-26880D01*
X36136Y-26843D01*
X36155Y-26824D01*
X36192Y-26805D01*
X36230Y-26805D01*
X36286Y-26824D01*
X36511Y-27049D01*
X36511Y-26805D01*
X36248Y-26468D02*
X36511Y-26468D01*
X36098Y-26561D02*
X36380Y-26655D01*
X36380Y-26411D01*
X37927Y-24019D02*
X37833Y-24019D01*
X37833Y-23822D01*
X38096Y-24019D02*
X37983Y-24019D01*
X38039Y-24019D02*
X38039Y-23822D01*
X38020Y-23850D01*
X38002Y-23869D01*
X37983Y-23879D01*
G54D17*
X30099Y-26485D02*
X30118Y-26504D01*
X30137Y-26561D01*
X30137Y-26600D01*
X30118Y-26657D01*
X30080Y-26695D01*
X30042Y-26714D01*
X29966Y-26733D01*
X29909Y-26733D01*
X29833Y-26714D01*
X29795Y-26695D01*
X29756Y-26657D01*
X29737Y-26600D01*
X29737Y-26561D01*
X29756Y-26504D01*
X29776Y-26485D01*
X29737Y-26238D02*
X29737Y-26161D01*
X29756Y-26123D01*
X29795Y-26085D01*
X29871Y-26066D01*
X30004Y-26066D01*
X30080Y-26085D01*
X30118Y-26123D01*
X30137Y-26161D01*
X30137Y-26238D01*
X30118Y-26276D01*
X30080Y-26314D01*
X30004Y-26333D01*
X29871Y-26333D01*
X29795Y-26314D01*
X29756Y-26276D01*
X29737Y-26238D01*
X30137Y-25895D02*
X29737Y-25895D01*
X30137Y-25666D01*
X29737Y-25666D01*
X30137Y-25266D02*
X30137Y-25495D01*
X30137Y-25380D02*
X29737Y-25380D01*
X29795Y-25419D01*
X29833Y-25457D01*
X29852Y-25495D01*
G54D16*
X25311Y-22630D02*
X24911Y-22630D01*
X24911Y-22478D01*
X24930Y-22440D01*
X24950Y-22421D01*
X24988Y-22402D01*
X25045Y-22402D01*
X25083Y-22421D01*
X25102Y-22440D01*
X25121Y-22478D01*
X25121Y-22630D01*
X25311Y-22173D02*
X25292Y-22211D01*
X25273Y-22230D01*
X25235Y-22249D01*
X25121Y-22249D01*
X25083Y-22230D01*
X25064Y-22211D01*
X25045Y-22173D01*
X25045Y-22116D01*
X25064Y-22078D01*
X25083Y-22059D01*
X25121Y-22040D01*
X25235Y-22040D01*
X25273Y-22059D01*
X25292Y-22078D01*
X25311Y-22116D01*
X25311Y-22173D01*
X25045Y-21907D02*
X25311Y-21830D01*
X25121Y-21754D01*
X25311Y-21678D01*
X25045Y-21602D01*
X25292Y-21297D02*
X25311Y-21335D01*
X25311Y-21411D01*
X25292Y-21449D01*
X25254Y-21469D01*
X25102Y-21469D01*
X25064Y-21449D01*
X25045Y-21411D01*
X25045Y-21335D01*
X25064Y-21297D01*
X25102Y-21278D01*
X25140Y-21278D01*
X25178Y-21469D01*
X25311Y-21107D02*
X25045Y-21107D01*
X25121Y-21107D02*
X25083Y-21088D01*
X25064Y-21069D01*
X25045Y-21030D01*
X25045Y-20992D01*
X25311Y-20650D02*
X25311Y-20878D01*
X25311Y-20764D02*
X24911Y-20764D01*
X24969Y-20802D01*
X25007Y-20840D01*
X25026Y-20878D01*
G54D19*
X35238Y-23461D02*
X35238Y-23061D01*
X35238Y-23252D02*
X35466Y-23252D01*
X35466Y-23461D02*
X35466Y-23061D01*
X35714Y-23461D02*
X35676Y-23442D01*
X35657Y-23423D01*
X35638Y-23385D01*
X35638Y-23271D01*
X35657Y-23233D01*
X35676Y-23214D01*
X35714Y-23195D01*
X35771Y-23195D01*
X35809Y-23214D01*
X35828Y-23233D01*
X35847Y-23271D01*
X35847Y-23385D01*
X35828Y-23423D01*
X35809Y-23442D01*
X35771Y-23461D01*
X35714Y-23461D01*
X36076Y-23461D02*
X36038Y-23442D01*
X36019Y-23404D01*
X36019Y-23061D01*
X36380Y-23442D02*
X36342Y-23461D01*
X36266Y-23461D01*
X36228Y-23442D01*
X36209Y-23404D01*
X36209Y-23252D01*
X36228Y-23214D01*
X36266Y-23195D01*
X36342Y-23195D01*
X36380Y-23214D01*
X36400Y-23252D01*
X36400Y-23290D01*
X36209Y-23328D01*
X36780Y-23461D02*
X36552Y-23461D01*
X36666Y-23461D02*
X36666Y-23061D01*
X36628Y-23119D01*
X36590Y-23157D01*
X36552Y-23176D01*
G54D10*
X32627Y-25813D02*
X32642Y-25828D01*
X32657Y-25873D01*
X32657Y-25903D01*
X32642Y-25948D01*
X32612Y-25978D01*
X32582Y-25993D01*
X32522Y-26008D01*
X32477Y-26008D01*
X32417Y-25993D01*
X32387Y-25978D01*
X32357Y-25948D01*
X32342Y-25903D01*
X32342Y-25873D01*
X32357Y-25828D01*
X32372Y-25813D01*
X32657Y-25513D02*
X32657Y-25693D01*
X32657Y-25603D02*
X32342Y-25603D01*
X32387Y-25633D01*
X32417Y-25663D01*
X32432Y-25693D01*
X31043Y-26317D02*
X31043Y-26377D01*
X31058Y-26407D01*
X31073Y-26422D01*
X31118Y-26452D01*
X31178Y-26467D01*
X31298Y-26467D01*
X31328Y-26452D01*
X31343Y-26437D01*
X31358Y-26407D01*
X31358Y-26347D01*
X31343Y-26317D01*
X31328Y-26302D01*
X31298Y-26287D01*
X31223Y-26287D01*
X31193Y-26302D01*
X31178Y-26317D01*
X31163Y-26347D01*
X31163Y-26407D01*
X31178Y-26437D01*
X31193Y-26452D01*
X31223Y-26467D01*
X31178Y-26107D02*
X31163Y-26137D01*
X31148Y-26152D01*
X31118Y-26167D01*
X31103Y-26167D01*
X31073Y-26152D01*
X31058Y-26137D01*
X31043Y-26107D01*
X31043Y-26047D01*
X31058Y-26017D01*
X31073Y-26002D01*
X31103Y-25987D01*
X31118Y-25987D01*
X31148Y-26002D01*
X31163Y-26017D01*
X31178Y-26047D01*
X31178Y-26107D01*
X31193Y-26137D01*
X31208Y-26152D01*
X31238Y-26167D01*
X31298Y-26167D01*
X31328Y-26152D01*
X31343Y-26137D01*
X31358Y-26107D01*
X31358Y-26047D01*
X31343Y-26017D01*
X31328Y-26002D01*
X31298Y-25987D01*
X31238Y-25987D01*
X31208Y-26002D01*
X31193Y-26017D01*
X31178Y-26047D01*
X31043Y-25792D02*
X31043Y-25762D01*
X31058Y-25732D01*
X31073Y-25717D01*
X31103Y-25702D01*
X31163Y-25687D01*
X31238Y-25687D01*
X31298Y-25702D01*
X31328Y-25717D01*
X31343Y-25732D01*
X31358Y-25762D01*
X31358Y-25792D01*
X31343Y-25822D01*
X31328Y-25837D01*
X31298Y-25852D01*
X31238Y-25867D01*
X31163Y-25867D01*
X31103Y-25852D01*
X31073Y-25837D01*
X31058Y-25822D01*
X31043Y-25792D01*
X31148Y-25417D02*
X31358Y-25417D01*
X31148Y-25552D02*
X31313Y-25552D01*
X31343Y-25537D01*
X31358Y-25507D01*
X31358Y-25462D01*
X31343Y-25432D01*
X31328Y-25417D01*
X31193Y-25162D02*
X31193Y-25267D01*
X31358Y-25267D02*
X31043Y-25267D01*
X31043Y-25117D01*
G54D22*
X43423Y-22245D02*
X43442Y-22264D01*
X43461Y-22320D01*
X43461Y-22358D01*
X43442Y-22414D01*
X43404Y-22452D01*
X43366Y-22470D01*
X43290Y-22489D01*
X43233Y-22489D01*
X43157Y-22470D01*
X43119Y-22452D01*
X43080Y-22414D01*
X43061Y-22358D01*
X43061Y-22320D01*
X43080Y-22264D01*
X43100Y-22245D01*
X43100Y-22095D02*
X43080Y-22076D01*
X43061Y-22039D01*
X43061Y-21945D01*
X43080Y-21907D01*
X43100Y-21889D01*
X43138Y-21870D01*
X43176Y-21870D01*
X43233Y-21889D01*
X43461Y-22114D01*
X43461Y-21870D01*
G54D17*
X41148Y-23014D02*
X41128Y-22996D01*
X41109Y-22958D01*
X41109Y-22864D01*
X41128Y-22827D01*
X41148Y-22808D01*
X41186Y-22789D01*
X41224Y-22789D01*
X41281Y-22808D01*
X41509Y-23033D01*
X41509Y-22789D01*
X41148Y-22639D02*
X41128Y-22620D01*
X41109Y-22583D01*
X41109Y-22489D01*
X41128Y-22452D01*
X41148Y-22433D01*
X41186Y-22414D01*
X41224Y-22414D01*
X41281Y-22433D01*
X41509Y-22658D01*
X41509Y-22414D01*
X41109Y-22170D02*
X41109Y-22133D01*
X41128Y-22095D01*
X41148Y-22076D01*
X41186Y-22058D01*
X41262Y-22039D01*
X41357Y-22039D01*
X41433Y-22058D01*
X41471Y-22076D01*
X41490Y-22095D01*
X41509Y-22133D01*
X41509Y-22170D01*
X41490Y-22208D01*
X41471Y-22226D01*
X41433Y-22245D01*
X41357Y-22264D01*
X41262Y-22264D01*
X41186Y-22245D01*
X41148Y-22226D01*
X41128Y-22208D01*
X41109Y-22170D01*
X41243Y-21701D02*
X41509Y-21701D01*
X41243Y-21870D02*
X41452Y-21870D01*
X41490Y-21851D01*
X41509Y-21814D01*
X41509Y-21757D01*
X41490Y-21720D01*
X41471Y-21701D01*
X41300Y-21382D02*
X41300Y-21513D01*
X41509Y-21513D02*
X41109Y-21513D01*
X41109Y-21326D01*
G54D15*
X41714Y-20958D02*
X41714Y-20501D01*
X41942Y-20729D02*
X41485Y-20729D01*
G54D17*
X34909Y-15530D02*
X34871Y-15511D01*
X34814Y-15511D01*
X34757Y-15530D01*
X34719Y-15569D01*
X34700Y-15607D01*
X34680Y-15683D01*
X34680Y-15740D01*
X34700Y-15816D01*
X34719Y-15854D01*
X34757Y-15892D01*
X34814Y-15911D01*
X34852Y-15911D01*
X34909Y-15892D01*
X34928Y-15873D01*
X34928Y-15740D01*
X34852Y-15740D01*
X35100Y-15911D02*
X35100Y-15511D01*
X35252Y-15511D01*
X35290Y-15530D01*
X35309Y-15550D01*
X35328Y-15588D01*
X35328Y-15645D01*
X35309Y-15683D01*
X35290Y-15702D01*
X35252Y-15721D01*
X35100Y-15721D01*
X35500Y-15911D02*
X35500Y-15511D01*
X35766Y-15511D02*
X35842Y-15511D01*
X35880Y-15530D01*
X35919Y-15569D01*
X35938Y-15645D01*
X35938Y-15778D01*
X35919Y-15854D01*
X35880Y-15892D01*
X35842Y-15911D01*
X35766Y-15911D01*
X35728Y-15892D01*
X35690Y-15854D01*
X35671Y-15778D01*
X35671Y-15645D01*
X35690Y-15569D01*
X35728Y-15530D01*
X35766Y-15511D01*
X36090Y-15550D02*
X36109Y-15530D01*
X36147Y-15511D01*
X36242Y-15511D01*
X36280Y-15530D01*
X36300Y-15550D01*
X36319Y-15588D01*
X36319Y-15626D01*
X36300Y-15683D01*
X36071Y-15911D01*
X36319Y-15911D01*
X30909Y-15530D02*
X30871Y-15511D01*
X30814Y-15511D01*
X30757Y-15530D01*
X30719Y-15569D01*
X30700Y-15607D01*
X30680Y-15683D01*
X30680Y-15740D01*
X30700Y-15816D01*
X30719Y-15854D01*
X30757Y-15892D01*
X30814Y-15911D01*
X30852Y-15911D01*
X30909Y-15892D01*
X30928Y-15873D01*
X30928Y-15740D01*
X30852Y-15740D01*
X31100Y-15911D02*
X31100Y-15511D01*
X31252Y-15511D01*
X31290Y-15530D01*
X31309Y-15550D01*
X31328Y-15588D01*
X31328Y-15645D01*
X31309Y-15683D01*
X31290Y-15702D01*
X31252Y-15721D01*
X31100Y-15721D01*
X31500Y-15911D02*
X31500Y-15511D01*
X31766Y-15511D02*
X31842Y-15511D01*
X31880Y-15530D01*
X31919Y-15569D01*
X31938Y-15645D01*
X31938Y-15778D01*
X31919Y-15854D01*
X31880Y-15892D01*
X31842Y-15911D01*
X31766Y-15911D01*
X31728Y-15892D01*
X31690Y-15854D01*
X31671Y-15778D01*
X31671Y-15645D01*
X31690Y-15569D01*
X31728Y-15530D01*
X31766Y-15511D01*
X32319Y-15911D02*
X32090Y-15911D01*
X32204Y-15911D02*
X32204Y-15511D01*
X32166Y-15569D01*
X32128Y-15607D01*
X32090Y-15626D01*
G54D16*
X31371Y-21685D02*
X31071Y-21685D01*
X31100Y-21557D02*
X31085Y-21542D01*
X31071Y-21514D01*
X31071Y-21442D01*
X31085Y-21414D01*
X31100Y-21399D01*
X31128Y-21385D01*
X31157Y-21385D01*
X31200Y-21399D01*
X31371Y-21571D01*
X31371Y-21385D01*
X31342Y-21085D02*
X31357Y-21100D01*
X31371Y-21142D01*
X31371Y-21171D01*
X31357Y-21214D01*
X31328Y-21242D01*
X31300Y-21257D01*
X31242Y-21271D01*
X31200Y-21271D01*
X31142Y-21257D01*
X31114Y-21242D01*
X31085Y-21214D01*
X31071Y-21171D01*
X31071Y-21142D01*
X31085Y-21100D01*
X31100Y-21085D01*
X31371Y-20800D02*
X31371Y-20971D01*
X31371Y-20885D02*
X31071Y-20885D01*
X31114Y-20914D01*
X31142Y-20942D01*
X31157Y-20971D01*
M02*
