M48
;DRILL file {Pcbnew (2013-mar-13)-testing} date Thu 06 Mar 2014 12:46:09 CET
;FORMAT={3:3/ absolute / metric / suppress leading zeros}
FMAT,2
METRIC,TZ
T1C0.635
T2C0.813
T3C1.016
T4C1.300
%
G90
G05
M71
T1
X72644Y-53340
X74168Y-53340
X75864Y-53340
X79121Y-83439
X79842Y-49362
X86995Y-54610
X87122Y-52578
X88265Y-54737
X88265Y-83439
X88773Y-78867
X89154Y-49657
X91440Y-51181
X91567Y-76327
X91567Y-77597
X91567Y-80137
X93091Y-66548
X100711Y-66548
X102489Y-76327
X102489Y-78867
X102616Y-56769
X103759Y-84201
X104013Y-49530
X104140Y-64389
X105410Y-77597
X105537Y-52959
X105537Y-54229
X105537Y-55753
X105664Y-63119
X105791Y-66421
X105918Y-51181
X106680Y-81915
T2
X73025Y-96520
X74295Y-86360
X74295Y-93980
X75565Y-96520
X76835Y-86360
X76835Y-93980
X78105Y-96520
X79375Y-86360
X79375Y-93980
X80645Y-96520
X81915Y-86360
X81915Y-93980
X83185Y-96520
X84455Y-86360
X84455Y-93980
X85725Y-96520
X86995Y-86360
X86995Y-93980
X88265Y-96520
X89535Y-86360
X89535Y-93980
X90805Y-96520
X92075Y-86360
X92075Y-93980
X93345Y-96520
X94615Y-86360
X94615Y-93980
X95885Y-96520
X102108Y-88773
X102108Y-96393
X104648Y-88773
X104648Y-96393
X106934Y-93472
X106934Y-96012
X114554Y-93472
X114554Y-96012
T3
X75692Y-60325
X75692Y-62865
X75692Y-65405
X75692Y-67945
X75692Y-70485
X75692Y-73025
X78740Y-62865
X78740Y-65405
X78740Y-67945
X78740Y-70485
X98425Y-96520
X116205Y-62230
X116205Y-64770
X116205Y-67310
X116205Y-69850
X119126Y-62230
X119126Y-64770
X119126Y-67310
X119126Y-69850
T4
X74295Y-50840
X74295Y-55840
X74295Y-77510
X74295Y-82510
X117856Y-50840
X117856Y-55840
X117856Y-77256
X117856Y-82256
X117856Y-90083
X117856Y-95083
T0
M30
