G04 (created by PCBNEW (2013-mar-13)-testing) date Thu 06 Mar 2014 12:46:27 CET*
%MOIN*%
G04 Gerber Fmt 3.4, Leading zero omitted, Abs format*
%FSLAX34Y34*%
G01*
G70*
G90*
G04 APERTURE LIST*
%ADD10C,0.005906*%
%ADD11C,0.055000*%
%ADD12R,0.055000X0.055000*%
%ADD13R,0.060000X0.060000*%
%ADD14C,0.060000*%
%ADD15C,0.098425*%
%ADD16R,0.098425X0.098425*%
G04 APERTURE END LIST*
G54D10*
G54D11*
X37250Y-34000D03*
G54D12*
X36250Y-34000D03*
G54D11*
X35250Y-34000D03*
X34250Y-34000D03*
X33250Y-34000D03*
X32250Y-34000D03*
X31250Y-34000D03*
X30250Y-34000D03*
X29250Y-34000D03*
X29250Y-37000D03*
X30250Y-37000D03*
X31250Y-37000D03*
X32250Y-37000D03*
X33250Y-37000D03*
X34250Y-37000D03*
X35250Y-37000D03*
X36250Y-37000D03*
X37250Y-37000D03*
X37750Y-38000D03*
X36750Y-38000D03*
X35750Y-38000D03*
X34750Y-38000D03*
X33750Y-38000D03*
X32750Y-38000D03*
X31750Y-38000D03*
X30750Y-38000D03*
X29750Y-38000D03*
X28750Y-38000D03*
G54D13*
X46900Y-27500D03*
G54D14*
X46900Y-26500D03*
G54D11*
X42100Y-37800D03*
X45100Y-37800D03*
X42100Y-36800D03*
X45100Y-36800D03*
X41200Y-34950D03*
X41200Y-37950D03*
X40200Y-37950D03*
X40200Y-34950D03*
G54D15*
X29250Y-32484D03*
X29250Y-30515D03*
X46400Y-30415D03*
X46400Y-32384D03*
X46400Y-20015D03*
X46400Y-21984D03*
X29250Y-21984D03*
X29250Y-20015D03*
G54D14*
X46900Y-24500D03*
X46900Y-25500D03*
X29800Y-23750D03*
X29800Y-24750D03*
X29800Y-25750D03*
X29800Y-26750D03*
X29800Y-27750D03*
X29800Y-28750D03*
G54D13*
X45750Y-24500D03*
G54D14*
X45750Y-25500D03*
X45750Y-26500D03*
G54D13*
X45750Y-27500D03*
X31000Y-27750D03*
G54D14*
X31000Y-26750D03*
X31000Y-25750D03*
G54D13*
X31000Y-24750D03*
G54D16*
X46400Y-35465D03*
G54D15*
X46400Y-37434D03*
G54D13*
X38750Y-38000D03*
M02*
