G04 (created by PCBNEW (2013-mar-13)-testing) date Thu 06 Mar 2014 12:46:27 CET*
%MOIN*%
G04 Gerber Fmt 3.4, Leading zero omitted, Abs format*
%FSLAX34Y34*%
G01*
G70*
G90*
G04 APERTURE LIST*
%ADD10C,0.005906*%
%ADD11R,0.082677X0.055118*%
%ADD12C,0.055000*%
%ADD13R,0.055000X0.055000*%
%ADD14R,0.196850X0.696850*%
%ADD15R,0.066929X0.027559*%
%ADD16R,0.370079X0.582677*%
%ADD17R,0.080000X0.060000*%
%ADD18R,0.060000X0.060000*%
%ADD19C,0.060000*%
%ADD20C,0.098425*%
%ADD21R,0.098425X0.098425*%
G04 APERTURE END LIST*
G54D10*
G54D11*
X42850Y-21166D03*
X42850Y-19433D03*
X42850Y-23666D03*
X42850Y-21933D03*
X32250Y-31133D03*
X32250Y-32866D03*
X32250Y-28633D03*
X32250Y-30366D03*
X44150Y-21166D03*
X44150Y-19433D03*
X44150Y-23666D03*
X44150Y-21933D03*
X33550Y-31133D03*
X33550Y-32866D03*
X33550Y-28633D03*
X33550Y-30366D03*
X44150Y-31233D03*
X44150Y-32966D03*
X44150Y-28733D03*
X44150Y-30466D03*
X32250Y-21166D03*
X32250Y-19433D03*
X32250Y-23666D03*
X32250Y-21933D03*
X42850Y-31233D03*
X42850Y-32966D03*
X42850Y-28733D03*
X42850Y-30466D03*
X33550Y-21166D03*
X33550Y-19433D03*
X33550Y-23666D03*
X33550Y-21933D03*
G54D12*
X37250Y-34000D03*
G54D13*
X36250Y-34000D03*
G54D12*
X35250Y-34000D03*
X34250Y-34000D03*
X33250Y-34000D03*
X32250Y-34000D03*
X31250Y-34000D03*
X30250Y-34000D03*
X29250Y-34000D03*
X29250Y-37000D03*
X30250Y-37000D03*
X31250Y-37000D03*
X32250Y-37000D03*
X33250Y-37000D03*
X34250Y-37000D03*
X35250Y-37000D03*
X36250Y-37000D03*
X37250Y-37000D03*
G54D14*
X38200Y-29800D03*
G54D15*
X35503Y-29550D03*
G54D16*
X38200Y-29800D03*
G54D15*
X35503Y-29050D03*
X35503Y-28550D03*
X35503Y-28050D03*
X35503Y-27550D03*
X35500Y-30050D03*
X35500Y-30550D03*
X35500Y-31050D03*
X35500Y-31550D03*
X35500Y-32050D03*
X40900Y-32050D03*
X40900Y-31550D03*
X40900Y-31050D03*
X40900Y-30550D03*
X40900Y-30050D03*
X40900Y-29550D03*
X40900Y-29050D03*
X40900Y-28550D03*
X40900Y-28050D03*
X40900Y-27550D03*
G54D14*
X38200Y-22600D03*
G54D15*
X40896Y-22850D03*
G54D16*
X38200Y-22600D03*
G54D15*
X40896Y-23350D03*
X40896Y-23850D03*
X40896Y-24350D03*
X40896Y-24850D03*
X40900Y-22350D03*
X40900Y-21850D03*
X40900Y-21350D03*
X40900Y-20850D03*
X40900Y-20350D03*
X35500Y-20350D03*
X35500Y-20850D03*
X35500Y-21350D03*
X35500Y-21850D03*
X35500Y-22350D03*
X35500Y-22850D03*
X35500Y-23350D03*
X35500Y-23850D03*
X35500Y-24350D03*
X35500Y-24850D03*
G54D17*
X42850Y-24500D03*
X42850Y-25800D03*
G54D12*
X37750Y-38000D03*
X36750Y-38000D03*
X35750Y-38000D03*
X34750Y-38000D03*
X33750Y-38000D03*
X32750Y-38000D03*
X31750Y-38000D03*
X30750Y-38000D03*
X29750Y-38000D03*
X28750Y-38000D03*
G54D18*
X46900Y-27500D03*
G54D19*
X46900Y-26500D03*
G54D17*
X33550Y-24500D03*
X33550Y-25800D03*
X33550Y-27900D03*
X33550Y-26600D03*
X42850Y-27900D03*
X42850Y-26600D03*
X44150Y-25800D03*
X44150Y-24500D03*
X32250Y-25800D03*
X32250Y-24500D03*
X44150Y-26600D03*
X44150Y-27900D03*
G54D12*
X42100Y-37800D03*
X45100Y-37800D03*
X42100Y-36800D03*
X45100Y-36800D03*
X41200Y-34950D03*
X41200Y-37950D03*
G54D17*
X32250Y-26600D03*
X32250Y-27900D03*
G54D12*
X40200Y-37950D03*
X40200Y-34950D03*
G54D20*
X29250Y-32484D03*
X29250Y-30515D03*
X46400Y-30415D03*
X46400Y-32384D03*
X46400Y-20015D03*
X46400Y-21984D03*
X29250Y-21984D03*
X29250Y-20015D03*
G54D19*
X46900Y-24500D03*
X46900Y-25500D03*
X29800Y-23750D03*
X29800Y-24750D03*
X29800Y-25750D03*
X29800Y-26750D03*
X29800Y-27750D03*
X29800Y-28750D03*
G54D18*
X45750Y-24500D03*
G54D19*
X45750Y-25500D03*
X45750Y-26500D03*
G54D18*
X45750Y-27500D03*
X31000Y-27750D03*
G54D19*
X31000Y-26750D03*
X31000Y-25750D03*
G54D18*
X31000Y-24750D03*
G54D17*
X39000Y-34850D03*
X39000Y-36150D03*
G54D21*
X46400Y-35465D03*
G54D20*
X46400Y-37434D03*
G54D18*
X38750Y-38000D03*
M02*
