G04 (created by PCBNEW (2013-mar-13)-testing) date Thu 06 Mar 2014 12:46:27 CET*
%MOIN*%
G04 Gerber Fmt 3.4, Leading zero omitted, Abs format*
%FSLAX34Y34*%
G01*
G70*
G90*
G04 APERTURE LIST*
%ADD10C,0.005906*%
%ADD11C,0.055000*%
%ADD12R,0.055000X0.055000*%
%ADD13R,0.060000X0.060000*%
%ADD14C,0.060000*%
%ADD15C,0.098425*%
%ADD16R,0.098425X0.098425*%
%ADD17C,0.035000*%
%ADD18C,0.019685*%
%ADD19C,0.039370*%
%ADD20C,0.059055*%
%ADD21C,0.010000*%
G04 APERTURE END LIST*
G54D10*
G54D11*
X37250Y-34000D03*
G54D12*
X36250Y-34000D03*
G54D11*
X35250Y-34000D03*
X34250Y-34000D03*
X33250Y-34000D03*
X32250Y-34000D03*
X31250Y-34000D03*
X30250Y-34000D03*
X29250Y-34000D03*
X29250Y-37000D03*
X30250Y-37000D03*
X31250Y-37000D03*
X32250Y-37000D03*
X33250Y-37000D03*
X34250Y-37000D03*
X35250Y-37000D03*
X36250Y-37000D03*
X37250Y-37000D03*
X37750Y-38000D03*
X36750Y-38000D03*
X35750Y-38000D03*
X34750Y-38000D03*
X33750Y-38000D03*
X32750Y-38000D03*
X31750Y-38000D03*
X30750Y-38000D03*
X29750Y-38000D03*
X28750Y-38000D03*
G54D13*
X46900Y-27500D03*
G54D14*
X46900Y-26500D03*
G54D11*
X42100Y-37800D03*
X45100Y-37800D03*
X42100Y-36800D03*
X45100Y-36800D03*
X41200Y-34950D03*
X41200Y-37950D03*
X40200Y-37950D03*
X40200Y-34950D03*
G54D15*
X29250Y-32484D03*
X29250Y-30515D03*
X46400Y-30415D03*
X46400Y-32384D03*
X46400Y-20015D03*
X46400Y-21984D03*
X29250Y-21984D03*
X29250Y-20015D03*
G54D14*
X46900Y-24500D03*
X46900Y-25500D03*
X29800Y-23750D03*
X29800Y-24750D03*
X29800Y-25750D03*
X29800Y-26750D03*
X29800Y-27750D03*
X29800Y-28750D03*
G54D13*
X45750Y-24500D03*
G54D14*
X45750Y-25500D03*
X45750Y-26500D03*
G54D13*
X45750Y-27500D03*
X31000Y-27750D03*
G54D14*
X31000Y-26750D03*
X31000Y-25750D03*
G54D13*
X31000Y-24750D03*
G54D16*
X46400Y-35465D03*
G54D15*
X46400Y-37434D03*
G54D13*
X38750Y-38000D03*
G54D17*
X40400Y-22350D03*
X36050Y-30050D03*
X41600Y-24850D03*
X39650Y-26200D03*
X36650Y-26200D03*
X36000Y-20150D03*
X41700Y-20150D03*
X40850Y-33150D03*
X34950Y-31050D03*
X41500Y-30550D03*
X41650Y-26150D03*
X41000Y-25350D03*
X36050Y-30550D03*
X40350Y-30050D03*
X36050Y-31550D03*
X40350Y-31050D03*
X41550Y-21350D03*
X34750Y-21550D03*
X34250Y-21500D03*
X41550Y-21950D03*
X41550Y-20850D03*
X34300Y-20700D03*
X29867Y-21000D03*
X31433Y-19433D03*
X29200Y-21000D03*
X28600Y-21000D03*
X40950Y-19500D03*
X35100Y-19550D03*
X42000Y-32250D03*
X31150Y-32850D03*
X34750Y-32850D03*
G54D18*
X46900Y-26500D02*
X46750Y-26500D01*
X46750Y-26500D02*
X46250Y-27000D01*
X46250Y-27000D02*
X45400Y-27000D01*
X45400Y-27000D02*
X44100Y-25700D01*
X44100Y-25700D02*
X41300Y-25700D01*
X41300Y-25700D02*
X40800Y-26200D01*
X40800Y-26200D02*
X40800Y-26500D01*
X40800Y-26500D02*
X40300Y-27000D01*
X40400Y-22350D02*
X40300Y-22450D01*
X40300Y-22450D02*
X40300Y-27000D01*
X40300Y-27000D02*
X37250Y-30050D01*
X37250Y-30050D02*
X36050Y-30050D01*
G54D19*
X39650Y-26200D02*
X36650Y-26200D01*
X41700Y-20150D02*
X36000Y-20150D01*
X44900Y-23650D02*
X45750Y-24500D01*
X43400Y-23650D02*
X44900Y-23650D01*
X42800Y-23050D02*
X43400Y-23650D01*
X42800Y-21250D02*
X42800Y-23050D01*
X41700Y-20150D02*
X42800Y-21250D01*
X46400Y-35465D02*
X46400Y-35300D01*
X45100Y-28150D02*
X45750Y-27500D01*
X45100Y-34000D02*
X45100Y-28150D01*
X46400Y-35300D02*
X45100Y-34000D01*
X40950Y-33100D02*
X41000Y-33150D01*
X40900Y-33100D02*
X40950Y-33100D01*
X40850Y-33150D02*
X40900Y-33100D01*
X45100Y-36800D02*
X44650Y-36800D01*
X37100Y-33150D02*
X36250Y-34000D01*
X41000Y-33150D02*
X37100Y-33150D01*
X44650Y-36800D02*
X41000Y-33150D01*
G54D18*
X41200Y-37950D02*
X41200Y-38100D01*
X43600Y-38300D02*
X45100Y-36800D01*
X41400Y-38300D02*
X43600Y-38300D01*
X41200Y-38100D02*
X41400Y-38300D01*
G54D19*
X46400Y-35465D02*
X46400Y-35500D01*
X46400Y-35500D02*
X45100Y-36800D01*
G54D18*
X42100Y-36800D02*
X38450Y-36800D01*
X35100Y-35850D02*
X33250Y-34000D01*
X37500Y-35850D02*
X35100Y-35850D01*
X38450Y-36800D02*
X37500Y-35850D01*
X42100Y-37800D02*
X42100Y-36800D01*
X31700Y-29650D02*
X29800Y-27750D01*
X33550Y-29650D02*
X31700Y-29650D01*
X34950Y-31050D02*
X33550Y-29650D01*
X41500Y-30550D02*
X41650Y-30400D01*
X41650Y-30400D02*
X41650Y-26150D01*
X41000Y-25350D02*
X44800Y-25350D01*
X44800Y-25350D02*
X45450Y-26000D01*
X45450Y-26000D02*
X46350Y-26000D01*
X46350Y-26000D02*
X46850Y-25500D01*
X46850Y-25500D02*
X46900Y-25500D01*
X36050Y-30550D02*
X35050Y-30550D01*
X30300Y-27250D02*
X29800Y-26750D01*
X31500Y-27250D02*
X30300Y-27250D01*
X31550Y-27300D02*
X31500Y-27250D01*
X31550Y-28400D02*
X31550Y-27300D01*
X32400Y-29250D02*
X31550Y-28400D01*
X33750Y-29250D02*
X32400Y-29250D01*
X35050Y-30550D02*
X33750Y-29250D01*
X37300Y-30550D02*
X36050Y-30550D01*
X37800Y-30050D02*
X37300Y-30550D01*
X40350Y-30050D02*
X37800Y-30050D01*
X36050Y-31550D02*
X34850Y-31550D01*
X31100Y-30050D02*
X29800Y-28750D01*
X33350Y-30050D02*
X31100Y-30050D01*
X34850Y-31550D02*
X33350Y-30050D01*
X37300Y-31550D02*
X36050Y-31550D01*
X37850Y-31000D02*
X37300Y-31550D01*
X40300Y-31000D02*
X37850Y-31000D01*
X40350Y-31050D02*
X40300Y-31000D01*
X46900Y-24500D02*
X46800Y-24500D01*
X41650Y-21350D02*
X41550Y-21350D01*
X42000Y-21700D02*
X41650Y-21350D01*
X42000Y-24750D02*
X42000Y-21700D01*
X42250Y-25000D02*
X42000Y-24750D01*
X46300Y-25000D02*
X42250Y-25000D01*
X46800Y-24500D02*
X46300Y-25000D01*
X29800Y-24750D02*
X31150Y-23400D01*
X31150Y-22600D02*
X31150Y-23400D01*
X32650Y-21100D02*
X31150Y-22600D01*
X34400Y-21100D02*
X32650Y-21100D01*
X34650Y-21350D02*
X34400Y-21100D01*
X34650Y-21450D02*
X34650Y-21350D01*
X34650Y-21450D02*
X34750Y-21550D01*
X34250Y-21500D02*
X32800Y-21500D01*
X30400Y-25250D02*
X29800Y-25750D01*
X31400Y-25250D02*
X30400Y-25250D01*
X31600Y-25200D02*
X31400Y-25250D01*
X31600Y-22950D02*
X31600Y-25200D01*
X32800Y-21500D02*
X31600Y-22950D01*
X34250Y-21500D02*
X34250Y-21600D01*
X34250Y-21600D02*
X34250Y-21500D01*
X41550Y-21950D02*
X41450Y-21850D01*
X41450Y-21850D02*
X37100Y-21850D01*
X37100Y-21850D02*
X36600Y-22350D01*
X36600Y-22350D02*
X35000Y-22350D01*
X35000Y-22350D02*
X34250Y-21600D01*
X34250Y-21600D02*
X34250Y-21500D01*
X34450Y-20700D02*
X34300Y-20700D01*
X35100Y-21350D02*
X34450Y-20700D01*
X36550Y-21350D02*
X35100Y-21350D01*
X37050Y-20850D02*
X36550Y-21350D01*
X41550Y-20850D02*
X37050Y-20850D01*
X30700Y-22850D02*
X29800Y-23750D01*
X30700Y-22450D02*
X30700Y-22850D01*
X32450Y-20700D02*
X30700Y-22450D01*
X34300Y-20700D02*
X32450Y-20700D01*
X31250Y-34000D02*
X32250Y-34000D01*
X32250Y-34000D02*
X34450Y-36200D01*
X34450Y-36200D02*
X37300Y-36200D01*
X37300Y-36200D02*
X38300Y-37200D01*
X38300Y-37200D02*
X39450Y-37200D01*
X39450Y-37200D02*
X40200Y-37950D01*
X40200Y-34950D02*
X40150Y-34950D01*
X35700Y-35450D02*
X34250Y-34000D01*
X39650Y-35450D02*
X35700Y-35450D01*
X40150Y-34950D02*
X39650Y-35450D01*
X41200Y-34950D02*
X40200Y-34950D01*
G54D20*
X35100Y-19550D02*
X40942Y-19550D01*
X40942Y-19550D02*
X40950Y-19557D01*
X40950Y-19557D02*
X40950Y-19500D01*
G54D19*
X29200Y-21000D02*
X29867Y-21000D01*
X31433Y-19433D02*
X29867Y-21000D01*
X29867Y-21000D02*
X29200Y-21000D01*
X40950Y-19500D02*
X40900Y-19550D01*
X40900Y-19550D02*
X35100Y-19550D01*
G54D20*
X36150Y-32850D02*
X34750Y-32850D01*
X36800Y-32200D02*
X36150Y-32850D01*
X41950Y-32200D02*
X36800Y-32200D01*
X42000Y-32250D02*
X41950Y-32200D01*
X46400Y-37434D02*
X46400Y-37450D01*
X46400Y-37450D02*
X46050Y-37800D01*
X46050Y-37800D02*
X45100Y-37800D01*
G54D19*
X31150Y-32850D02*
X31200Y-32850D01*
X34750Y-32850D02*
X31200Y-32850D01*
X46050Y-37800D02*
X45100Y-37800D01*
X46400Y-37450D02*
X46050Y-37800D01*
G54D18*
X38750Y-38000D02*
X38250Y-37500D01*
X29850Y-34600D02*
X29250Y-34000D01*
X32100Y-34600D02*
X29850Y-34600D01*
X33750Y-36250D02*
X32100Y-34600D01*
X33750Y-37250D02*
X33750Y-36250D01*
X34000Y-37500D02*
X33750Y-37250D01*
X38250Y-37500D02*
X34000Y-37500D01*
G54D10*
G36*
X31251Y-24200D02*
X31250Y-24200D01*
X31112Y-24200D01*
X31050Y-24262D01*
X31050Y-24700D01*
X31057Y-24700D01*
X31057Y-24800D01*
X31050Y-24800D01*
X31050Y-24807D01*
X30950Y-24807D01*
X30950Y-24800D01*
X30512Y-24800D01*
X30450Y-24862D01*
X30450Y-24901D01*
X30400Y-24901D01*
X30348Y-24911D01*
X30327Y-24914D01*
X30349Y-24859D01*
X30350Y-24692D01*
X30450Y-24592D01*
X30450Y-24637D01*
X30512Y-24700D01*
X30950Y-24700D01*
X30950Y-24262D01*
X30887Y-24200D01*
X30842Y-24200D01*
X31251Y-23791D01*
X31251Y-24200D01*
X31251Y-24200D01*
G37*
G54D21*
X31251Y-24200D02*
X31250Y-24200D01*
X31112Y-24200D01*
X31050Y-24262D01*
X31050Y-24700D01*
X31057Y-24700D01*
X31057Y-24800D01*
X31050Y-24800D01*
X31050Y-24807D01*
X30950Y-24807D01*
X30950Y-24800D01*
X30512Y-24800D01*
X30450Y-24862D01*
X30450Y-24901D01*
X30400Y-24901D01*
X30348Y-24911D01*
X30327Y-24914D01*
X30349Y-24859D01*
X30350Y-24692D01*
X30450Y-24592D01*
X30450Y-24637D01*
X30512Y-24700D01*
X30950Y-24700D01*
X30950Y-24262D01*
X30887Y-24200D01*
X30842Y-24200D01*
X31251Y-23791D01*
X31251Y-24200D01*
G54D10*
G36*
X31958Y-29301D02*
X31844Y-29301D01*
X30842Y-28300D01*
X30887Y-28300D01*
X30950Y-28237D01*
X30950Y-27800D01*
X30512Y-27800D01*
X30450Y-27862D01*
X30450Y-27907D01*
X30349Y-27807D01*
X30350Y-27641D01*
X30332Y-27598D01*
X30450Y-27598D01*
X30450Y-27637D01*
X30512Y-27700D01*
X30950Y-27700D01*
X30950Y-27692D01*
X31050Y-27692D01*
X31050Y-27700D01*
X31057Y-27700D01*
X31057Y-27800D01*
X31050Y-27800D01*
X31050Y-28237D01*
X31112Y-28300D01*
X31201Y-28300D01*
X31201Y-28399D01*
X31201Y-28400D01*
X31223Y-28511D01*
X31228Y-28533D01*
X31303Y-28646D01*
X31958Y-29301D01*
X31958Y-29301D01*
G37*
G54D21*
X31958Y-29301D02*
X31844Y-29301D01*
X30842Y-28300D01*
X30887Y-28300D01*
X30950Y-28237D01*
X30950Y-27800D01*
X30512Y-27800D01*
X30450Y-27862D01*
X30450Y-27907D01*
X30349Y-27807D01*
X30350Y-27641D01*
X30332Y-27598D01*
X30450Y-27598D01*
X30450Y-27637D01*
X30512Y-27700D01*
X30950Y-27700D01*
X30950Y-27692D01*
X31050Y-27692D01*
X31050Y-27700D01*
X31057Y-27700D01*
X31057Y-27800D01*
X31050Y-27800D01*
X31050Y-28237D01*
X31112Y-28300D01*
X31201Y-28300D01*
X31201Y-28399D01*
X31201Y-28400D01*
X31223Y-28511D01*
X31228Y-28533D01*
X31303Y-28646D01*
X31958Y-29301D01*
G54D10*
G36*
X40002Y-22198D02*
X39975Y-22265D01*
X39975Y-22332D01*
X39973Y-22338D01*
X39951Y-22450D01*
X39951Y-22450D01*
X39951Y-26855D01*
X37105Y-29701D01*
X36302Y-29701D01*
X36291Y-29689D01*
X36134Y-29625D01*
X35965Y-29624D01*
X35809Y-29689D01*
X35689Y-29808D01*
X35625Y-29965D01*
X35624Y-30134D01*
X35652Y-30201D01*
X35194Y-30201D01*
X33996Y-29003D01*
X33883Y-28928D01*
X33861Y-28923D01*
X33750Y-28901D01*
X33749Y-28901D01*
X32544Y-28901D01*
X31898Y-28255D01*
X31898Y-27300D01*
X31898Y-27300D01*
X31898Y-27300D01*
X31871Y-27166D01*
X31796Y-27053D01*
X31796Y-27053D01*
X31746Y-27003D01*
X31633Y-26928D01*
X31611Y-26923D01*
X31530Y-26907D01*
X31549Y-26859D01*
X31550Y-26641D01*
X31466Y-26438D01*
X31311Y-26284D01*
X31230Y-26250D01*
X31311Y-26216D01*
X31465Y-26061D01*
X31549Y-25859D01*
X31550Y-25641D01*
X31524Y-25578D01*
X31684Y-25538D01*
X31707Y-25526D01*
X31733Y-25521D01*
X31768Y-25498D01*
X31807Y-25479D01*
X31824Y-25460D01*
X31846Y-25446D01*
X31870Y-25410D01*
X31898Y-25379D01*
X31907Y-25354D01*
X31921Y-25333D01*
X31930Y-25291D01*
X31944Y-25251D01*
X31943Y-25225D01*
X31948Y-25200D01*
X31948Y-23075D01*
X32963Y-21848D01*
X33997Y-21848D01*
X34008Y-21860D01*
X34023Y-21866D01*
X34753Y-22596D01*
X34753Y-22596D01*
X34753Y-22596D01*
X34866Y-22671D01*
X34866Y-22671D01*
X34888Y-22676D01*
X35000Y-22698D01*
X35000Y-22698D01*
X35000Y-22698D01*
X36599Y-22698D01*
X36600Y-22698D01*
X36600Y-22698D01*
X36711Y-22676D01*
X36733Y-22671D01*
X36733Y-22671D01*
X36846Y-22596D01*
X37244Y-22198D01*
X40002Y-22198D01*
X40002Y-22198D01*
G37*
G54D21*
X40002Y-22198D02*
X39975Y-22265D01*
X39975Y-22332D01*
X39973Y-22338D01*
X39951Y-22450D01*
X39951Y-22450D01*
X39951Y-26855D01*
X37105Y-29701D01*
X36302Y-29701D01*
X36291Y-29689D01*
X36134Y-29625D01*
X35965Y-29624D01*
X35809Y-29689D01*
X35689Y-29808D01*
X35625Y-29965D01*
X35624Y-30134D01*
X35652Y-30201D01*
X35194Y-30201D01*
X33996Y-29003D01*
X33883Y-28928D01*
X33861Y-28923D01*
X33750Y-28901D01*
X33749Y-28901D01*
X32544Y-28901D01*
X31898Y-28255D01*
X31898Y-27300D01*
X31898Y-27300D01*
X31898Y-27300D01*
X31871Y-27166D01*
X31796Y-27053D01*
X31796Y-27053D01*
X31746Y-27003D01*
X31633Y-26928D01*
X31611Y-26923D01*
X31530Y-26907D01*
X31549Y-26859D01*
X31550Y-26641D01*
X31466Y-26438D01*
X31311Y-26284D01*
X31230Y-26250D01*
X31311Y-26216D01*
X31465Y-26061D01*
X31549Y-25859D01*
X31550Y-25641D01*
X31524Y-25578D01*
X31684Y-25538D01*
X31707Y-25526D01*
X31733Y-25521D01*
X31768Y-25498D01*
X31807Y-25479D01*
X31824Y-25460D01*
X31846Y-25446D01*
X31870Y-25410D01*
X31898Y-25379D01*
X31907Y-25354D01*
X31921Y-25333D01*
X31930Y-25291D01*
X31944Y-25251D01*
X31943Y-25225D01*
X31948Y-25200D01*
X31948Y-23075D01*
X32963Y-21848D01*
X33997Y-21848D01*
X34008Y-21860D01*
X34023Y-21866D01*
X34753Y-22596D01*
X34753Y-22596D01*
X34753Y-22596D01*
X34866Y-22671D01*
X34866Y-22671D01*
X34888Y-22676D01*
X35000Y-22698D01*
X35000Y-22698D01*
X35000Y-22698D01*
X36599Y-22698D01*
X36600Y-22698D01*
X36600Y-22698D01*
X36711Y-22676D01*
X36733Y-22671D01*
X36733Y-22671D01*
X36846Y-22596D01*
X37244Y-22198D01*
X40002Y-22198D01*
G54D10*
G36*
X41758Y-25001D02*
X41252Y-25001D01*
X41241Y-24989D01*
X41084Y-24925D01*
X40915Y-24924D01*
X40759Y-24989D01*
X40648Y-25100D01*
X40648Y-22702D01*
X40760Y-22591D01*
X40824Y-22434D01*
X40825Y-22265D01*
X40797Y-22198D01*
X41197Y-22198D01*
X41308Y-22310D01*
X41465Y-22374D01*
X41634Y-22375D01*
X41651Y-22367D01*
X41651Y-24749D01*
X41651Y-24750D01*
X41673Y-24861D01*
X41678Y-24883D01*
X41753Y-24996D01*
X41758Y-25001D01*
X41758Y-25001D01*
G37*
G54D21*
X41758Y-25001D02*
X41252Y-25001D01*
X41241Y-24989D01*
X41084Y-24925D01*
X40915Y-24924D01*
X40759Y-24989D01*
X40648Y-25100D01*
X40648Y-22702D01*
X40760Y-22591D01*
X40824Y-22434D01*
X40825Y-22265D01*
X40797Y-22198D01*
X41197Y-22198D01*
X41308Y-22310D01*
X41465Y-22374D01*
X41634Y-22375D01*
X41651Y-22367D01*
X41651Y-24749D01*
X41651Y-24750D01*
X41673Y-24861D01*
X41678Y-24883D01*
X41753Y-24996D01*
X41758Y-25001D01*
G54D10*
G36*
X47396Y-38377D02*
X47142Y-38377D01*
X47142Y-37287D01*
X47142Y-32237D01*
X47142Y-30268D01*
X47029Y-29995D01*
X46850Y-29816D01*
X46850Y-27987D01*
X46850Y-27550D01*
X46412Y-27550D01*
X46350Y-27612D01*
X46350Y-27849D01*
X46388Y-27941D01*
X46458Y-28011D01*
X46550Y-28050D01*
X46649Y-28050D01*
X46787Y-28050D01*
X46850Y-27987D01*
X46850Y-29816D01*
X46820Y-29786D01*
X46548Y-29673D01*
X46300Y-29673D01*
X46300Y-27849D01*
X46300Y-27612D01*
X46237Y-27550D01*
X45800Y-27550D01*
X45800Y-27987D01*
X45862Y-28050D01*
X46000Y-28050D01*
X46099Y-28050D01*
X46191Y-28011D01*
X46261Y-27941D01*
X46300Y-27849D01*
X46300Y-29673D01*
X46253Y-29673D01*
X45980Y-29786D01*
X45771Y-29994D01*
X45700Y-30166D01*
X45700Y-27987D01*
X45700Y-27550D01*
X45262Y-27550D01*
X45200Y-27612D01*
X45200Y-27849D01*
X45238Y-27941D01*
X45308Y-28011D01*
X45400Y-28050D01*
X45499Y-28050D01*
X45637Y-28050D01*
X45700Y-27987D01*
X45700Y-30166D01*
X45658Y-30267D01*
X45657Y-30562D01*
X45770Y-30835D01*
X45979Y-31044D01*
X46251Y-31157D01*
X46546Y-31158D01*
X46819Y-31045D01*
X47028Y-30836D01*
X47141Y-30564D01*
X47142Y-30268D01*
X47142Y-32237D01*
X47029Y-31964D01*
X46820Y-31755D01*
X46548Y-31642D01*
X46253Y-31641D01*
X45980Y-31754D01*
X45771Y-31963D01*
X45658Y-32235D01*
X45657Y-32531D01*
X45770Y-32804D01*
X45979Y-33013D01*
X46251Y-33126D01*
X46546Y-33126D01*
X46819Y-33013D01*
X47028Y-32805D01*
X47141Y-32532D01*
X47142Y-32237D01*
X47142Y-37287D01*
X47142Y-37286D01*
X47142Y-36007D01*
X47142Y-35578D01*
X47142Y-35353D01*
X47142Y-34923D01*
X47104Y-34832D01*
X47033Y-34761D01*
X46941Y-34723D01*
X46842Y-34723D01*
X46512Y-34723D01*
X46450Y-34786D01*
X46450Y-35415D01*
X47079Y-35415D01*
X47142Y-35353D01*
X47142Y-35578D01*
X47079Y-35515D01*
X46450Y-35515D01*
X46450Y-36145D01*
X46512Y-36207D01*
X46842Y-36207D01*
X46941Y-36207D01*
X47033Y-36169D01*
X47104Y-36099D01*
X47142Y-36007D01*
X47142Y-37286D01*
X47029Y-37014D01*
X46820Y-36805D01*
X46548Y-36692D01*
X46350Y-36692D01*
X46350Y-36145D01*
X46350Y-35515D01*
X46350Y-35415D01*
X46350Y-34786D01*
X46287Y-34723D01*
X45957Y-34723D01*
X45858Y-34723D01*
X45766Y-34761D01*
X45695Y-34832D01*
X45657Y-34923D01*
X45657Y-35353D01*
X45720Y-35415D01*
X46350Y-35415D01*
X46350Y-35515D01*
X45720Y-35515D01*
X45657Y-35578D01*
X45657Y-36007D01*
X45695Y-36099D01*
X45766Y-36169D01*
X45858Y-36207D01*
X45957Y-36207D01*
X46287Y-36207D01*
X46350Y-36145D01*
X46350Y-36692D01*
X46253Y-36691D01*
X45980Y-36804D01*
X45771Y-37013D01*
X45670Y-37254D01*
X45629Y-37254D01*
X45629Y-36875D01*
X45618Y-36667D01*
X45560Y-36527D01*
X45467Y-36502D01*
X45397Y-36573D01*
X45397Y-36432D01*
X45372Y-36339D01*
X45175Y-36270D01*
X44967Y-36281D01*
X44827Y-36339D01*
X44802Y-36432D01*
X45100Y-36729D01*
X45397Y-36432D01*
X45397Y-36573D01*
X45170Y-36800D01*
X45467Y-37097D01*
X45560Y-37072D01*
X45629Y-36875D01*
X45629Y-37254D01*
X45374Y-37254D01*
X45397Y-37167D01*
X45100Y-36870D01*
X45029Y-36941D01*
X45029Y-36800D01*
X44732Y-36502D01*
X44639Y-36527D01*
X44570Y-36724D01*
X44581Y-36932D01*
X44639Y-37072D01*
X44732Y-37097D01*
X45029Y-36800D01*
X45029Y-36941D01*
X44802Y-37167D01*
X44827Y-37260D01*
X44915Y-37291D01*
X44891Y-37296D01*
X44805Y-37353D01*
X44803Y-37354D01*
X44801Y-37356D01*
X44714Y-37414D01*
X44656Y-37500D01*
X44655Y-37502D01*
X44654Y-37504D01*
X44596Y-37591D01*
X44576Y-37692D01*
X44575Y-37695D01*
X44575Y-37697D01*
X44554Y-37800D01*
X44574Y-37901D01*
X44574Y-37903D01*
X44575Y-37906D01*
X44596Y-38008D01*
X44653Y-38094D01*
X44654Y-38097D01*
X44656Y-38098D01*
X44714Y-38185D01*
X44800Y-38243D01*
X44802Y-38244D01*
X44804Y-38245D01*
X44891Y-38303D01*
X44992Y-38323D01*
X44995Y-38324D01*
X44997Y-38324D01*
X45100Y-38345D01*
X46050Y-38345D01*
X46258Y-38303D01*
X46258Y-38303D01*
X46435Y-38185D01*
X46444Y-38176D01*
X46546Y-38176D01*
X46819Y-38063D01*
X47028Y-37855D01*
X47141Y-37582D01*
X47142Y-37287D01*
X47142Y-38377D01*
X41481Y-38377D01*
X41497Y-38317D01*
X41200Y-38020D01*
X40902Y-38317D01*
X40918Y-38377D01*
X40514Y-38377D01*
X40644Y-38247D01*
X40697Y-38121D01*
X40739Y-38222D01*
X40832Y-38247D01*
X41129Y-37950D01*
X40832Y-37652D01*
X40739Y-37677D01*
X40700Y-37787D01*
X40645Y-37653D01*
X40497Y-37505D01*
X40304Y-37425D01*
X40167Y-37424D01*
X39891Y-37148D01*
X41706Y-37148D01*
X41751Y-37194D01*
X41751Y-37406D01*
X41655Y-37502D01*
X41590Y-37658D01*
X41567Y-37652D01*
X41497Y-37723D01*
X41497Y-37582D01*
X41472Y-37489D01*
X41275Y-37420D01*
X41067Y-37431D01*
X40927Y-37489D01*
X40902Y-37582D01*
X41200Y-37879D01*
X41497Y-37582D01*
X41497Y-37723D01*
X41270Y-37950D01*
X41567Y-38247D01*
X41660Y-38222D01*
X41691Y-38134D01*
X41802Y-38244D01*
X41995Y-38324D01*
X42203Y-38325D01*
X42397Y-38245D01*
X42544Y-38097D01*
X42624Y-37904D01*
X42625Y-37696D01*
X42545Y-37503D01*
X42448Y-37405D01*
X42448Y-37193D01*
X42544Y-37097D01*
X42624Y-36904D01*
X42625Y-36696D01*
X42545Y-36503D01*
X42397Y-36355D01*
X42204Y-36275D01*
X41996Y-36274D01*
X41803Y-36354D01*
X41705Y-36451D01*
X38594Y-36451D01*
X37941Y-35798D01*
X39649Y-35798D01*
X39650Y-35798D01*
X39650Y-35798D01*
X39761Y-35776D01*
X39783Y-35771D01*
X39783Y-35771D01*
X39896Y-35696D01*
X40117Y-35474D01*
X40303Y-35475D01*
X40497Y-35395D01*
X40594Y-35298D01*
X40806Y-35298D01*
X40902Y-35394D01*
X41095Y-35474D01*
X41303Y-35475D01*
X41497Y-35395D01*
X41644Y-35247D01*
X41724Y-35054D01*
X41725Y-34846D01*
X41645Y-34653D01*
X41497Y-34505D01*
X41304Y-34425D01*
X41096Y-34424D01*
X40903Y-34504D01*
X40805Y-34601D01*
X40593Y-34601D01*
X40497Y-34505D01*
X40304Y-34425D01*
X40096Y-34424D01*
X39903Y-34504D01*
X39755Y-34652D01*
X39675Y-34845D01*
X39675Y-34932D01*
X39505Y-35101D01*
X37775Y-35101D01*
X37775Y-33896D01*
X37695Y-33703D01*
X37547Y-33555D01*
X37354Y-33475D01*
X37146Y-33474D01*
X36953Y-33554D01*
X36805Y-33702D01*
X36775Y-33774D01*
X36775Y-33774D01*
X36775Y-33675D01*
X36736Y-33583D01*
X36666Y-33513D01*
X36574Y-33475D01*
X36362Y-33475D01*
X36300Y-33537D01*
X36300Y-33950D01*
X36307Y-33950D01*
X36307Y-34050D01*
X36300Y-34050D01*
X36300Y-34462D01*
X36362Y-34525D01*
X36574Y-34525D01*
X36666Y-34486D01*
X36736Y-34416D01*
X36775Y-34324D01*
X36775Y-34225D01*
X36775Y-34225D01*
X36804Y-34297D01*
X36952Y-34444D01*
X37145Y-34524D01*
X37353Y-34525D01*
X37547Y-34445D01*
X37694Y-34297D01*
X37774Y-34104D01*
X37775Y-33896D01*
X37775Y-35101D01*
X35844Y-35101D01*
X35267Y-34525D01*
X35353Y-34525D01*
X35547Y-34445D01*
X35694Y-34297D01*
X35725Y-34225D01*
X35725Y-34225D01*
X35725Y-34324D01*
X35763Y-34416D01*
X35833Y-34486D01*
X35925Y-34525D01*
X36137Y-34525D01*
X36200Y-34462D01*
X36200Y-34050D01*
X36192Y-34050D01*
X36192Y-33950D01*
X36200Y-33950D01*
X36200Y-33537D01*
X36137Y-33475D01*
X35925Y-33475D01*
X35833Y-33513D01*
X35763Y-33583D01*
X35725Y-33675D01*
X35725Y-33774D01*
X35725Y-33774D01*
X35695Y-33703D01*
X35547Y-33555D01*
X35354Y-33475D01*
X35146Y-33474D01*
X34953Y-33554D01*
X34805Y-33702D01*
X34749Y-33835D01*
X34695Y-33703D01*
X34547Y-33555D01*
X34354Y-33475D01*
X34146Y-33474D01*
X33953Y-33554D01*
X33805Y-33702D01*
X33749Y-33835D01*
X33695Y-33703D01*
X33547Y-33555D01*
X33354Y-33475D01*
X33146Y-33474D01*
X32953Y-33554D01*
X32805Y-33702D01*
X32749Y-33835D01*
X32695Y-33703D01*
X32547Y-33555D01*
X32354Y-33475D01*
X32146Y-33474D01*
X31953Y-33554D01*
X31855Y-33651D01*
X31643Y-33651D01*
X31547Y-33555D01*
X31354Y-33475D01*
X31146Y-33474D01*
X30953Y-33554D01*
X30805Y-33702D01*
X30749Y-33835D01*
X30695Y-33703D01*
X30547Y-33555D01*
X30354Y-33475D01*
X30146Y-33474D01*
X29992Y-33538D01*
X29992Y-32337D01*
X29992Y-30368D01*
X29879Y-30095D01*
X29670Y-29886D01*
X29398Y-29773D01*
X29103Y-29773D01*
X28830Y-29886D01*
X28621Y-30094D01*
X28508Y-30367D01*
X28507Y-30662D01*
X28620Y-30935D01*
X28829Y-31144D01*
X29101Y-31257D01*
X29396Y-31258D01*
X29669Y-31145D01*
X29878Y-30936D01*
X29991Y-30664D01*
X29992Y-30368D01*
X29992Y-32337D01*
X29879Y-32064D01*
X29670Y-31855D01*
X29398Y-31742D01*
X29103Y-31741D01*
X28830Y-31854D01*
X28621Y-32063D01*
X28508Y-32335D01*
X28507Y-32631D01*
X28620Y-32904D01*
X28829Y-33113D01*
X29101Y-33226D01*
X29396Y-33226D01*
X29669Y-33113D01*
X29878Y-32905D01*
X29991Y-32632D01*
X29992Y-32337D01*
X29992Y-33538D01*
X29953Y-33554D01*
X29805Y-33702D01*
X29749Y-33835D01*
X29695Y-33703D01*
X29547Y-33555D01*
X29354Y-33475D01*
X29146Y-33474D01*
X28953Y-33554D01*
X28805Y-33702D01*
X28725Y-33895D01*
X28724Y-34103D01*
X28804Y-34297D01*
X28952Y-34444D01*
X29145Y-34524D01*
X29282Y-34525D01*
X29603Y-34846D01*
X29603Y-34846D01*
X29716Y-34921D01*
X29850Y-34948D01*
X31955Y-34948D01*
X33401Y-36394D01*
X33401Y-36494D01*
X33354Y-36475D01*
X33146Y-36474D01*
X32953Y-36554D01*
X32805Y-36702D01*
X32749Y-36835D01*
X32695Y-36703D01*
X32547Y-36555D01*
X32354Y-36475D01*
X32146Y-36474D01*
X31953Y-36554D01*
X31805Y-36702D01*
X31749Y-36835D01*
X31695Y-36703D01*
X31547Y-36555D01*
X31354Y-36475D01*
X31146Y-36474D01*
X30953Y-36554D01*
X30805Y-36702D01*
X30749Y-36835D01*
X30695Y-36703D01*
X30547Y-36555D01*
X30354Y-36475D01*
X30146Y-36474D01*
X29953Y-36554D01*
X29805Y-36702D01*
X29749Y-36835D01*
X29695Y-36703D01*
X29547Y-36555D01*
X29354Y-36475D01*
X29146Y-36474D01*
X28953Y-36554D01*
X28805Y-36702D01*
X28725Y-36895D01*
X28724Y-37103D01*
X28804Y-37297D01*
X28952Y-37444D01*
X29145Y-37524D01*
X29353Y-37525D01*
X29547Y-37445D01*
X29694Y-37297D01*
X29750Y-37164D01*
X29804Y-37297D01*
X29952Y-37444D01*
X30145Y-37524D01*
X30353Y-37525D01*
X30547Y-37445D01*
X30694Y-37297D01*
X30750Y-37164D01*
X30804Y-37297D01*
X30952Y-37444D01*
X31145Y-37524D01*
X31353Y-37525D01*
X31547Y-37445D01*
X31694Y-37297D01*
X31750Y-37164D01*
X31804Y-37297D01*
X31952Y-37444D01*
X32145Y-37524D01*
X32353Y-37525D01*
X32547Y-37445D01*
X32694Y-37297D01*
X32750Y-37164D01*
X32804Y-37297D01*
X32952Y-37444D01*
X33145Y-37524D01*
X33353Y-37525D01*
X33486Y-37470D01*
X33503Y-37496D01*
X33530Y-37522D01*
X33453Y-37554D01*
X33305Y-37702D01*
X33249Y-37835D01*
X33195Y-37703D01*
X33047Y-37555D01*
X32854Y-37475D01*
X32646Y-37474D01*
X32453Y-37554D01*
X32305Y-37702D01*
X32249Y-37835D01*
X32195Y-37703D01*
X32047Y-37555D01*
X31854Y-37475D01*
X31646Y-37474D01*
X31453Y-37554D01*
X31305Y-37702D01*
X31249Y-37835D01*
X31195Y-37703D01*
X31047Y-37555D01*
X30854Y-37475D01*
X30646Y-37474D01*
X30453Y-37554D01*
X30305Y-37702D01*
X30249Y-37835D01*
X30195Y-37703D01*
X30047Y-37555D01*
X29854Y-37475D01*
X29646Y-37474D01*
X29453Y-37554D01*
X29305Y-37702D01*
X29249Y-37835D01*
X29195Y-37703D01*
X29047Y-37555D01*
X28854Y-37475D01*
X28646Y-37474D01*
X28453Y-37554D01*
X28305Y-37702D01*
X28250Y-37833D01*
X28250Y-21251D01*
X28358Y-21360D01*
X28515Y-21424D01*
X28684Y-21425D01*
X28813Y-21371D01*
X28621Y-21563D01*
X28508Y-21835D01*
X28507Y-22131D01*
X28620Y-22404D01*
X28829Y-22613D01*
X29101Y-22726D01*
X29396Y-22726D01*
X29669Y-22613D01*
X29878Y-22405D01*
X29991Y-22132D01*
X29992Y-21837D01*
X29879Y-21564D01*
X29762Y-21446D01*
X29867Y-21446D01*
X30038Y-21412D01*
X30038Y-21412D01*
X30183Y-21315D01*
X31749Y-19749D01*
X31846Y-19604D01*
X31880Y-19433D01*
X31846Y-19262D01*
X31826Y-19231D01*
X34669Y-19231D01*
X34596Y-19341D01*
X34554Y-19550D01*
X34596Y-19758D01*
X34714Y-19935D01*
X34891Y-20053D01*
X35100Y-20095D01*
X40910Y-20095D01*
X40950Y-20103D01*
X41158Y-20061D01*
X41158Y-20061D01*
X41335Y-19943D01*
X41453Y-19766D01*
X41453Y-19766D01*
X41495Y-19557D01*
X41495Y-19500D01*
X41453Y-19291D01*
X41414Y-19231D01*
X47396Y-19231D01*
X47396Y-24261D01*
X47366Y-24188D01*
X47211Y-24034D01*
X47142Y-24005D01*
X47142Y-21837D01*
X47142Y-19868D01*
X47029Y-19595D01*
X46820Y-19386D01*
X46548Y-19273D01*
X46253Y-19273D01*
X45980Y-19386D01*
X45771Y-19594D01*
X45658Y-19867D01*
X45657Y-20162D01*
X45770Y-20435D01*
X45979Y-20644D01*
X46251Y-20757D01*
X46546Y-20758D01*
X46819Y-20645D01*
X47028Y-20436D01*
X47141Y-20164D01*
X47142Y-19868D01*
X47142Y-21837D01*
X47029Y-21564D01*
X46820Y-21355D01*
X46548Y-21242D01*
X46253Y-21241D01*
X45980Y-21354D01*
X45771Y-21563D01*
X45658Y-21835D01*
X45657Y-22131D01*
X45770Y-22404D01*
X45979Y-22613D01*
X46251Y-22726D01*
X46546Y-22726D01*
X46819Y-22613D01*
X47028Y-22405D01*
X47141Y-22132D01*
X47142Y-21837D01*
X47142Y-24005D01*
X47009Y-23950D01*
X46791Y-23949D01*
X46588Y-24033D01*
X46434Y-24188D01*
X46350Y-24390D01*
X46350Y-24457D01*
X46300Y-24507D01*
X46300Y-24387D01*
X46300Y-24150D01*
X46261Y-24058D01*
X46191Y-23988D01*
X46099Y-23950D01*
X46000Y-23950D01*
X45862Y-23950D01*
X45800Y-24012D01*
X45800Y-24450D01*
X46237Y-24450D01*
X46300Y-24387D01*
X46300Y-24507D01*
X46247Y-24559D01*
X46237Y-24550D01*
X45800Y-24550D01*
X45800Y-24557D01*
X45700Y-24557D01*
X45700Y-24550D01*
X45700Y-24450D01*
X45700Y-24012D01*
X45637Y-23950D01*
X45499Y-23950D01*
X45400Y-23950D01*
X45308Y-23988D01*
X45238Y-24058D01*
X45200Y-24150D01*
X45200Y-24387D01*
X45262Y-24450D01*
X45700Y-24450D01*
X45700Y-24550D01*
X45262Y-24550D01*
X45200Y-24612D01*
X45200Y-24651D01*
X42394Y-24651D01*
X42348Y-24605D01*
X42348Y-21700D01*
X42348Y-21700D01*
X42348Y-21700D01*
X42326Y-21588D01*
X42321Y-21566D01*
X42321Y-21566D01*
X42246Y-21453D01*
X42246Y-21453D01*
X42246Y-21453D01*
X41916Y-21123D01*
X41910Y-21109D01*
X41901Y-21100D01*
X41910Y-21091D01*
X41974Y-20934D01*
X41975Y-20765D01*
X41910Y-20609D01*
X41791Y-20489D01*
X41634Y-20425D01*
X41465Y-20424D01*
X41309Y-20489D01*
X41297Y-20501D01*
X37050Y-20501D01*
X37050Y-20501D01*
X36916Y-20528D01*
X36803Y-20603D01*
X36803Y-20603D01*
X36405Y-21001D01*
X35244Y-21001D01*
X34696Y-20453D01*
X34583Y-20378D01*
X34578Y-20377D01*
X34541Y-20339D01*
X34384Y-20275D01*
X34215Y-20274D01*
X34059Y-20339D01*
X34047Y-20351D01*
X32450Y-20351D01*
X32450Y-20351D01*
X32316Y-20378D01*
X32203Y-20453D01*
X32203Y-20453D01*
X30453Y-22203D01*
X30378Y-22316D01*
X30373Y-22338D01*
X30351Y-22450D01*
X30351Y-22450D01*
X30351Y-22705D01*
X29857Y-23200D01*
X29691Y-23199D01*
X29488Y-23283D01*
X29334Y-23438D01*
X29250Y-23640D01*
X29249Y-23858D01*
X29333Y-24061D01*
X29488Y-24215D01*
X29569Y-24249D01*
X29488Y-24283D01*
X29334Y-24438D01*
X29250Y-24640D01*
X29249Y-24858D01*
X29333Y-25061D01*
X29488Y-25215D01*
X29569Y-25249D01*
X29488Y-25283D01*
X29334Y-25438D01*
X29250Y-25640D01*
X29249Y-25858D01*
X29333Y-26061D01*
X29488Y-26215D01*
X29569Y-26249D01*
X29488Y-26283D01*
X29334Y-26438D01*
X29250Y-26640D01*
X29249Y-26858D01*
X29333Y-27061D01*
X29488Y-27215D01*
X29569Y-27249D01*
X29488Y-27283D01*
X29334Y-27438D01*
X29250Y-27640D01*
X29249Y-27858D01*
X29333Y-28061D01*
X29488Y-28215D01*
X29569Y-28249D01*
X29488Y-28283D01*
X29334Y-28438D01*
X29250Y-28640D01*
X29249Y-28858D01*
X29333Y-29061D01*
X29488Y-29215D01*
X29690Y-29299D01*
X29857Y-29300D01*
X30853Y-30296D01*
X30853Y-30296D01*
X30966Y-30371D01*
X31100Y-30398D01*
X31100Y-30398D01*
X31100Y-30398D01*
X33205Y-30398D01*
X34603Y-31796D01*
X34603Y-31796D01*
X34603Y-31796D01*
X34716Y-31871D01*
X34716Y-31871D01*
X34738Y-31876D01*
X34850Y-31898D01*
X34850Y-31898D01*
X34850Y-31898D01*
X35797Y-31898D01*
X35808Y-31910D01*
X35965Y-31974D01*
X36134Y-31975D01*
X36290Y-31910D01*
X36302Y-31898D01*
X36330Y-31898D01*
X35924Y-32304D01*
X34750Y-32304D01*
X34541Y-32346D01*
X34456Y-32403D01*
X31200Y-32403D01*
X31150Y-32403D01*
X30978Y-32437D01*
X30834Y-32534D01*
X30737Y-32678D01*
X30703Y-32850D01*
X30737Y-33021D01*
X30834Y-33165D01*
X30978Y-33262D01*
X31150Y-33296D01*
X31200Y-33296D01*
X34456Y-33296D01*
X34541Y-33353D01*
X34750Y-33395D01*
X36150Y-33395D01*
X36358Y-33353D01*
X36358Y-33353D01*
X36535Y-33235D01*
X37025Y-32745D01*
X41778Y-32745D01*
X41791Y-32753D01*
X42000Y-32795D01*
X42208Y-32753D01*
X42385Y-32635D01*
X42503Y-32458D01*
X42545Y-32250D01*
X42503Y-32041D01*
X42385Y-31864D01*
X42335Y-31814D01*
X42158Y-31696D01*
X41950Y-31654D01*
X37688Y-31654D01*
X37994Y-31348D01*
X40047Y-31348D01*
X40108Y-31410D01*
X40265Y-31474D01*
X40434Y-31475D01*
X40590Y-31410D01*
X40710Y-31291D01*
X40774Y-31134D01*
X40775Y-30965D01*
X40710Y-30809D01*
X40591Y-30689D01*
X40434Y-30625D01*
X40265Y-30624D01*
X40201Y-30651D01*
X37850Y-30651D01*
X37716Y-30678D01*
X37603Y-30753D01*
X37603Y-30753D01*
X37155Y-31201D01*
X36302Y-31201D01*
X36291Y-31189D01*
X36134Y-31125D01*
X35965Y-31124D01*
X35809Y-31189D01*
X35797Y-31201D01*
X35347Y-31201D01*
X35374Y-31134D01*
X35375Y-30965D01*
X35347Y-30898D01*
X35797Y-30898D01*
X35808Y-30910D01*
X35965Y-30974D01*
X36134Y-30975D01*
X36290Y-30910D01*
X36302Y-30898D01*
X37299Y-30898D01*
X37300Y-30898D01*
X37300Y-30898D01*
X37411Y-30876D01*
X37433Y-30871D01*
X37433Y-30871D01*
X37546Y-30796D01*
X37944Y-30398D01*
X40097Y-30398D01*
X40108Y-30410D01*
X40265Y-30474D01*
X40434Y-30475D01*
X40590Y-30410D01*
X40710Y-30291D01*
X40774Y-30134D01*
X40775Y-29965D01*
X40710Y-29809D01*
X40591Y-29689D01*
X40434Y-29625D01*
X40265Y-29624D01*
X40109Y-29689D01*
X40097Y-29701D01*
X38091Y-29701D01*
X40546Y-27246D01*
X40546Y-27246D01*
X40546Y-27246D01*
X41046Y-26746D01*
X41046Y-26746D01*
X41046Y-26746D01*
X41121Y-26633D01*
X41148Y-26500D01*
X41148Y-26500D01*
X41148Y-26499D01*
X41148Y-26344D01*
X41234Y-26257D01*
X41289Y-26390D01*
X41301Y-26402D01*
X41301Y-30172D01*
X41259Y-30189D01*
X41139Y-30308D01*
X41075Y-30465D01*
X41074Y-30634D01*
X41139Y-30790D01*
X41258Y-30910D01*
X41415Y-30974D01*
X41584Y-30975D01*
X41740Y-30910D01*
X41860Y-30791D01*
X41924Y-30634D01*
X41924Y-30603D01*
X41924Y-30603D01*
X41971Y-30533D01*
X41998Y-30400D01*
X41998Y-26402D01*
X42010Y-26391D01*
X42074Y-26234D01*
X42075Y-26065D01*
X42067Y-26048D01*
X43955Y-26048D01*
X45153Y-27246D01*
X45153Y-27246D01*
X45200Y-27277D01*
X45200Y-27387D01*
X45262Y-27450D01*
X45700Y-27450D01*
X45700Y-27442D01*
X45800Y-27442D01*
X45800Y-27450D01*
X46237Y-27450D01*
X46300Y-27387D01*
X46300Y-27338D01*
X46350Y-27328D01*
X46350Y-27387D01*
X46412Y-27450D01*
X46850Y-27450D01*
X46850Y-27442D01*
X46950Y-27442D01*
X46950Y-27450D01*
X46957Y-27450D01*
X46957Y-27550D01*
X46950Y-27550D01*
X46950Y-27987D01*
X47012Y-28050D01*
X47150Y-28050D01*
X47249Y-28050D01*
X47341Y-28011D01*
X47396Y-27957D01*
X47396Y-38377D01*
X47396Y-38377D01*
G37*
G54D21*
X47396Y-38377D02*
X47142Y-38377D01*
X47142Y-37287D01*
X47142Y-32237D01*
X47142Y-30268D01*
X47029Y-29995D01*
X46850Y-29816D01*
X46850Y-27987D01*
X46850Y-27550D01*
X46412Y-27550D01*
X46350Y-27612D01*
X46350Y-27849D01*
X46388Y-27941D01*
X46458Y-28011D01*
X46550Y-28050D01*
X46649Y-28050D01*
X46787Y-28050D01*
X46850Y-27987D01*
X46850Y-29816D01*
X46820Y-29786D01*
X46548Y-29673D01*
X46300Y-29673D01*
X46300Y-27849D01*
X46300Y-27612D01*
X46237Y-27550D01*
X45800Y-27550D01*
X45800Y-27987D01*
X45862Y-28050D01*
X46000Y-28050D01*
X46099Y-28050D01*
X46191Y-28011D01*
X46261Y-27941D01*
X46300Y-27849D01*
X46300Y-29673D01*
X46253Y-29673D01*
X45980Y-29786D01*
X45771Y-29994D01*
X45700Y-30166D01*
X45700Y-27987D01*
X45700Y-27550D01*
X45262Y-27550D01*
X45200Y-27612D01*
X45200Y-27849D01*
X45238Y-27941D01*
X45308Y-28011D01*
X45400Y-28050D01*
X45499Y-28050D01*
X45637Y-28050D01*
X45700Y-27987D01*
X45700Y-30166D01*
X45658Y-30267D01*
X45657Y-30562D01*
X45770Y-30835D01*
X45979Y-31044D01*
X46251Y-31157D01*
X46546Y-31158D01*
X46819Y-31045D01*
X47028Y-30836D01*
X47141Y-30564D01*
X47142Y-30268D01*
X47142Y-32237D01*
X47029Y-31964D01*
X46820Y-31755D01*
X46548Y-31642D01*
X46253Y-31641D01*
X45980Y-31754D01*
X45771Y-31963D01*
X45658Y-32235D01*
X45657Y-32531D01*
X45770Y-32804D01*
X45979Y-33013D01*
X46251Y-33126D01*
X46546Y-33126D01*
X46819Y-33013D01*
X47028Y-32805D01*
X47141Y-32532D01*
X47142Y-32237D01*
X47142Y-37287D01*
X47142Y-37286D01*
X47142Y-36007D01*
X47142Y-35578D01*
X47142Y-35353D01*
X47142Y-34923D01*
X47104Y-34832D01*
X47033Y-34761D01*
X46941Y-34723D01*
X46842Y-34723D01*
X46512Y-34723D01*
X46450Y-34786D01*
X46450Y-35415D01*
X47079Y-35415D01*
X47142Y-35353D01*
X47142Y-35578D01*
X47079Y-35515D01*
X46450Y-35515D01*
X46450Y-36145D01*
X46512Y-36207D01*
X46842Y-36207D01*
X46941Y-36207D01*
X47033Y-36169D01*
X47104Y-36099D01*
X47142Y-36007D01*
X47142Y-37286D01*
X47029Y-37014D01*
X46820Y-36805D01*
X46548Y-36692D01*
X46350Y-36692D01*
X46350Y-36145D01*
X46350Y-35515D01*
X46350Y-35415D01*
X46350Y-34786D01*
X46287Y-34723D01*
X45957Y-34723D01*
X45858Y-34723D01*
X45766Y-34761D01*
X45695Y-34832D01*
X45657Y-34923D01*
X45657Y-35353D01*
X45720Y-35415D01*
X46350Y-35415D01*
X46350Y-35515D01*
X45720Y-35515D01*
X45657Y-35578D01*
X45657Y-36007D01*
X45695Y-36099D01*
X45766Y-36169D01*
X45858Y-36207D01*
X45957Y-36207D01*
X46287Y-36207D01*
X46350Y-36145D01*
X46350Y-36692D01*
X46253Y-36691D01*
X45980Y-36804D01*
X45771Y-37013D01*
X45670Y-37254D01*
X45629Y-37254D01*
X45629Y-36875D01*
X45618Y-36667D01*
X45560Y-36527D01*
X45467Y-36502D01*
X45397Y-36573D01*
X45397Y-36432D01*
X45372Y-36339D01*
X45175Y-36270D01*
X44967Y-36281D01*
X44827Y-36339D01*
X44802Y-36432D01*
X45100Y-36729D01*
X45397Y-36432D01*
X45397Y-36573D01*
X45170Y-36800D01*
X45467Y-37097D01*
X45560Y-37072D01*
X45629Y-36875D01*
X45629Y-37254D01*
X45374Y-37254D01*
X45397Y-37167D01*
X45100Y-36870D01*
X45029Y-36941D01*
X45029Y-36800D01*
X44732Y-36502D01*
X44639Y-36527D01*
X44570Y-36724D01*
X44581Y-36932D01*
X44639Y-37072D01*
X44732Y-37097D01*
X45029Y-36800D01*
X45029Y-36941D01*
X44802Y-37167D01*
X44827Y-37260D01*
X44915Y-37291D01*
X44891Y-37296D01*
X44805Y-37353D01*
X44803Y-37354D01*
X44801Y-37356D01*
X44714Y-37414D01*
X44656Y-37500D01*
X44655Y-37502D01*
X44654Y-37504D01*
X44596Y-37591D01*
X44576Y-37692D01*
X44575Y-37695D01*
X44575Y-37697D01*
X44554Y-37800D01*
X44574Y-37901D01*
X44574Y-37903D01*
X44575Y-37906D01*
X44596Y-38008D01*
X44653Y-38094D01*
X44654Y-38097D01*
X44656Y-38098D01*
X44714Y-38185D01*
X44800Y-38243D01*
X44802Y-38244D01*
X44804Y-38245D01*
X44891Y-38303D01*
X44992Y-38323D01*
X44995Y-38324D01*
X44997Y-38324D01*
X45100Y-38345D01*
X46050Y-38345D01*
X46258Y-38303D01*
X46258Y-38303D01*
X46435Y-38185D01*
X46444Y-38176D01*
X46546Y-38176D01*
X46819Y-38063D01*
X47028Y-37855D01*
X47141Y-37582D01*
X47142Y-37287D01*
X47142Y-38377D01*
X41481Y-38377D01*
X41497Y-38317D01*
X41200Y-38020D01*
X40902Y-38317D01*
X40918Y-38377D01*
X40514Y-38377D01*
X40644Y-38247D01*
X40697Y-38121D01*
X40739Y-38222D01*
X40832Y-38247D01*
X41129Y-37950D01*
X40832Y-37652D01*
X40739Y-37677D01*
X40700Y-37787D01*
X40645Y-37653D01*
X40497Y-37505D01*
X40304Y-37425D01*
X40167Y-37424D01*
X39891Y-37148D01*
X41706Y-37148D01*
X41751Y-37194D01*
X41751Y-37406D01*
X41655Y-37502D01*
X41590Y-37658D01*
X41567Y-37652D01*
X41497Y-37723D01*
X41497Y-37582D01*
X41472Y-37489D01*
X41275Y-37420D01*
X41067Y-37431D01*
X40927Y-37489D01*
X40902Y-37582D01*
X41200Y-37879D01*
X41497Y-37582D01*
X41497Y-37723D01*
X41270Y-37950D01*
X41567Y-38247D01*
X41660Y-38222D01*
X41691Y-38134D01*
X41802Y-38244D01*
X41995Y-38324D01*
X42203Y-38325D01*
X42397Y-38245D01*
X42544Y-38097D01*
X42624Y-37904D01*
X42625Y-37696D01*
X42545Y-37503D01*
X42448Y-37405D01*
X42448Y-37193D01*
X42544Y-37097D01*
X42624Y-36904D01*
X42625Y-36696D01*
X42545Y-36503D01*
X42397Y-36355D01*
X42204Y-36275D01*
X41996Y-36274D01*
X41803Y-36354D01*
X41705Y-36451D01*
X38594Y-36451D01*
X37941Y-35798D01*
X39649Y-35798D01*
X39650Y-35798D01*
X39650Y-35798D01*
X39761Y-35776D01*
X39783Y-35771D01*
X39783Y-35771D01*
X39896Y-35696D01*
X40117Y-35474D01*
X40303Y-35475D01*
X40497Y-35395D01*
X40594Y-35298D01*
X40806Y-35298D01*
X40902Y-35394D01*
X41095Y-35474D01*
X41303Y-35475D01*
X41497Y-35395D01*
X41644Y-35247D01*
X41724Y-35054D01*
X41725Y-34846D01*
X41645Y-34653D01*
X41497Y-34505D01*
X41304Y-34425D01*
X41096Y-34424D01*
X40903Y-34504D01*
X40805Y-34601D01*
X40593Y-34601D01*
X40497Y-34505D01*
X40304Y-34425D01*
X40096Y-34424D01*
X39903Y-34504D01*
X39755Y-34652D01*
X39675Y-34845D01*
X39675Y-34932D01*
X39505Y-35101D01*
X37775Y-35101D01*
X37775Y-33896D01*
X37695Y-33703D01*
X37547Y-33555D01*
X37354Y-33475D01*
X37146Y-33474D01*
X36953Y-33554D01*
X36805Y-33702D01*
X36775Y-33774D01*
X36775Y-33774D01*
X36775Y-33675D01*
X36736Y-33583D01*
X36666Y-33513D01*
X36574Y-33475D01*
X36362Y-33475D01*
X36300Y-33537D01*
X36300Y-33950D01*
X36307Y-33950D01*
X36307Y-34050D01*
X36300Y-34050D01*
X36300Y-34462D01*
X36362Y-34525D01*
X36574Y-34525D01*
X36666Y-34486D01*
X36736Y-34416D01*
X36775Y-34324D01*
X36775Y-34225D01*
X36775Y-34225D01*
X36804Y-34297D01*
X36952Y-34444D01*
X37145Y-34524D01*
X37353Y-34525D01*
X37547Y-34445D01*
X37694Y-34297D01*
X37774Y-34104D01*
X37775Y-33896D01*
X37775Y-35101D01*
X35844Y-35101D01*
X35267Y-34525D01*
X35353Y-34525D01*
X35547Y-34445D01*
X35694Y-34297D01*
X35725Y-34225D01*
X35725Y-34225D01*
X35725Y-34324D01*
X35763Y-34416D01*
X35833Y-34486D01*
X35925Y-34525D01*
X36137Y-34525D01*
X36200Y-34462D01*
X36200Y-34050D01*
X36192Y-34050D01*
X36192Y-33950D01*
X36200Y-33950D01*
X36200Y-33537D01*
X36137Y-33475D01*
X35925Y-33475D01*
X35833Y-33513D01*
X35763Y-33583D01*
X35725Y-33675D01*
X35725Y-33774D01*
X35725Y-33774D01*
X35695Y-33703D01*
X35547Y-33555D01*
X35354Y-33475D01*
X35146Y-33474D01*
X34953Y-33554D01*
X34805Y-33702D01*
X34749Y-33835D01*
X34695Y-33703D01*
X34547Y-33555D01*
X34354Y-33475D01*
X34146Y-33474D01*
X33953Y-33554D01*
X33805Y-33702D01*
X33749Y-33835D01*
X33695Y-33703D01*
X33547Y-33555D01*
X33354Y-33475D01*
X33146Y-33474D01*
X32953Y-33554D01*
X32805Y-33702D01*
X32749Y-33835D01*
X32695Y-33703D01*
X32547Y-33555D01*
X32354Y-33475D01*
X32146Y-33474D01*
X31953Y-33554D01*
X31855Y-33651D01*
X31643Y-33651D01*
X31547Y-33555D01*
X31354Y-33475D01*
X31146Y-33474D01*
X30953Y-33554D01*
X30805Y-33702D01*
X30749Y-33835D01*
X30695Y-33703D01*
X30547Y-33555D01*
X30354Y-33475D01*
X30146Y-33474D01*
X29992Y-33538D01*
X29992Y-32337D01*
X29992Y-30368D01*
X29879Y-30095D01*
X29670Y-29886D01*
X29398Y-29773D01*
X29103Y-29773D01*
X28830Y-29886D01*
X28621Y-30094D01*
X28508Y-30367D01*
X28507Y-30662D01*
X28620Y-30935D01*
X28829Y-31144D01*
X29101Y-31257D01*
X29396Y-31258D01*
X29669Y-31145D01*
X29878Y-30936D01*
X29991Y-30664D01*
X29992Y-30368D01*
X29992Y-32337D01*
X29879Y-32064D01*
X29670Y-31855D01*
X29398Y-31742D01*
X29103Y-31741D01*
X28830Y-31854D01*
X28621Y-32063D01*
X28508Y-32335D01*
X28507Y-32631D01*
X28620Y-32904D01*
X28829Y-33113D01*
X29101Y-33226D01*
X29396Y-33226D01*
X29669Y-33113D01*
X29878Y-32905D01*
X29991Y-32632D01*
X29992Y-32337D01*
X29992Y-33538D01*
X29953Y-33554D01*
X29805Y-33702D01*
X29749Y-33835D01*
X29695Y-33703D01*
X29547Y-33555D01*
X29354Y-33475D01*
X29146Y-33474D01*
X28953Y-33554D01*
X28805Y-33702D01*
X28725Y-33895D01*
X28724Y-34103D01*
X28804Y-34297D01*
X28952Y-34444D01*
X29145Y-34524D01*
X29282Y-34525D01*
X29603Y-34846D01*
X29603Y-34846D01*
X29716Y-34921D01*
X29850Y-34948D01*
X31955Y-34948D01*
X33401Y-36394D01*
X33401Y-36494D01*
X33354Y-36475D01*
X33146Y-36474D01*
X32953Y-36554D01*
X32805Y-36702D01*
X32749Y-36835D01*
X32695Y-36703D01*
X32547Y-36555D01*
X32354Y-36475D01*
X32146Y-36474D01*
X31953Y-36554D01*
X31805Y-36702D01*
X31749Y-36835D01*
X31695Y-36703D01*
X31547Y-36555D01*
X31354Y-36475D01*
X31146Y-36474D01*
X30953Y-36554D01*
X30805Y-36702D01*
X30749Y-36835D01*
X30695Y-36703D01*
X30547Y-36555D01*
X30354Y-36475D01*
X30146Y-36474D01*
X29953Y-36554D01*
X29805Y-36702D01*
X29749Y-36835D01*
X29695Y-36703D01*
X29547Y-36555D01*
X29354Y-36475D01*
X29146Y-36474D01*
X28953Y-36554D01*
X28805Y-36702D01*
X28725Y-36895D01*
X28724Y-37103D01*
X28804Y-37297D01*
X28952Y-37444D01*
X29145Y-37524D01*
X29353Y-37525D01*
X29547Y-37445D01*
X29694Y-37297D01*
X29750Y-37164D01*
X29804Y-37297D01*
X29952Y-37444D01*
X30145Y-37524D01*
X30353Y-37525D01*
X30547Y-37445D01*
X30694Y-37297D01*
X30750Y-37164D01*
X30804Y-37297D01*
X30952Y-37444D01*
X31145Y-37524D01*
X31353Y-37525D01*
X31547Y-37445D01*
X31694Y-37297D01*
X31750Y-37164D01*
X31804Y-37297D01*
X31952Y-37444D01*
X32145Y-37524D01*
X32353Y-37525D01*
X32547Y-37445D01*
X32694Y-37297D01*
X32750Y-37164D01*
X32804Y-37297D01*
X32952Y-37444D01*
X33145Y-37524D01*
X33353Y-37525D01*
X33486Y-37470D01*
X33503Y-37496D01*
X33530Y-37522D01*
X33453Y-37554D01*
X33305Y-37702D01*
X33249Y-37835D01*
X33195Y-37703D01*
X33047Y-37555D01*
X32854Y-37475D01*
X32646Y-37474D01*
X32453Y-37554D01*
X32305Y-37702D01*
X32249Y-37835D01*
X32195Y-37703D01*
X32047Y-37555D01*
X31854Y-37475D01*
X31646Y-37474D01*
X31453Y-37554D01*
X31305Y-37702D01*
X31249Y-37835D01*
X31195Y-37703D01*
X31047Y-37555D01*
X30854Y-37475D01*
X30646Y-37474D01*
X30453Y-37554D01*
X30305Y-37702D01*
X30249Y-37835D01*
X30195Y-37703D01*
X30047Y-37555D01*
X29854Y-37475D01*
X29646Y-37474D01*
X29453Y-37554D01*
X29305Y-37702D01*
X29249Y-37835D01*
X29195Y-37703D01*
X29047Y-37555D01*
X28854Y-37475D01*
X28646Y-37474D01*
X28453Y-37554D01*
X28305Y-37702D01*
X28250Y-37833D01*
X28250Y-21251D01*
X28358Y-21360D01*
X28515Y-21424D01*
X28684Y-21425D01*
X28813Y-21371D01*
X28621Y-21563D01*
X28508Y-21835D01*
X28507Y-22131D01*
X28620Y-22404D01*
X28829Y-22613D01*
X29101Y-22726D01*
X29396Y-22726D01*
X29669Y-22613D01*
X29878Y-22405D01*
X29991Y-22132D01*
X29992Y-21837D01*
X29879Y-21564D01*
X29762Y-21446D01*
X29867Y-21446D01*
X30038Y-21412D01*
X30038Y-21412D01*
X30183Y-21315D01*
X31749Y-19749D01*
X31846Y-19604D01*
X31880Y-19433D01*
X31846Y-19262D01*
X31826Y-19231D01*
X34669Y-19231D01*
X34596Y-19341D01*
X34554Y-19550D01*
X34596Y-19758D01*
X34714Y-19935D01*
X34891Y-20053D01*
X35100Y-20095D01*
X40910Y-20095D01*
X40950Y-20103D01*
X41158Y-20061D01*
X41158Y-20061D01*
X41335Y-19943D01*
X41453Y-19766D01*
X41453Y-19766D01*
X41495Y-19557D01*
X41495Y-19500D01*
X41453Y-19291D01*
X41414Y-19231D01*
X47396Y-19231D01*
X47396Y-24261D01*
X47366Y-24188D01*
X47211Y-24034D01*
X47142Y-24005D01*
X47142Y-21837D01*
X47142Y-19868D01*
X47029Y-19595D01*
X46820Y-19386D01*
X46548Y-19273D01*
X46253Y-19273D01*
X45980Y-19386D01*
X45771Y-19594D01*
X45658Y-19867D01*
X45657Y-20162D01*
X45770Y-20435D01*
X45979Y-20644D01*
X46251Y-20757D01*
X46546Y-20758D01*
X46819Y-20645D01*
X47028Y-20436D01*
X47141Y-20164D01*
X47142Y-19868D01*
X47142Y-21837D01*
X47029Y-21564D01*
X46820Y-21355D01*
X46548Y-21242D01*
X46253Y-21241D01*
X45980Y-21354D01*
X45771Y-21563D01*
X45658Y-21835D01*
X45657Y-22131D01*
X45770Y-22404D01*
X45979Y-22613D01*
X46251Y-22726D01*
X46546Y-22726D01*
X46819Y-22613D01*
X47028Y-22405D01*
X47141Y-22132D01*
X47142Y-21837D01*
X47142Y-24005D01*
X47009Y-23950D01*
X46791Y-23949D01*
X46588Y-24033D01*
X46434Y-24188D01*
X46350Y-24390D01*
X46350Y-24457D01*
X46300Y-24507D01*
X46300Y-24387D01*
X46300Y-24150D01*
X46261Y-24058D01*
X46191Y-23988D01*
X46099Y-23950D01*
X46000Y-23950D01*
X45862Y-23950D01*
X45800Y-24012D01*
X45800Y-24450D01*
X46237Y-24450D01*
X46300Y-24387D01*
X46300Y-24507D01*
X46247Y-24559D01*
X46237Y-24550D01*
X45800Y-24550D01*
X45800Y-24557D01*
X45700Y-24557D01*
X45700Y-24550D01*
X45700Y-24450D01*
X45700Y-24012D01*
X45637Y-23950D01*
X45499Y-23950D01*
X45400Y-23950D01*
X45308Y-23988D01*
X45238Y-24058D01*
X45200Y-24150D01*
X45200Y-24387D01*
X45262Y-24450D01*
X45700Y-24450D01*
X45700Y-24550D01*
X45262Y-24550D01*
X45200Y-24612D01*
X45200Y-24651D01*
X42394Y-24651D01*
X42348Y-24605D01*
X42348Y-21700D01*
X42348Y-21700D01*
X42348Y-21700D01*
X42326Y-21588D01*
X42321Y-21566D01*
X42321Y-21566D01*
X42246Y-21453D01*
X42246Y-21453D01*
X42246Y-21453D01*
X41916Y-21123D01*
X41910Y-21109D01*
X41901Y-21100D01*
X41910Y-21091D01*
X41974Y-20934D01*
X41975Y-20765D01*
X41910Y-20609D01*
X41791Y-20489D01*
X41634Y-20425D01*
X41465Y-20424D01*
X41309Y-20489D01*
X41297Y-20501D01*
X37050Y-20501D01*
X37050Y-20501D01*
X36916Y-20528D01*
X36803Y-20603D01*
X36803Y-20603D01*
X36405Y-21001D01*
X35244Y-21001D01*
X34696Y-20453D01*
X34583Y-20378D01*
X34578Y-20377D01*
X34541Y-20339D01*
X34384Y-20275D01*
X34215Y-20274D01*
X34059Y-20339D01*
X34047Y-20351D01*
X32450Y-20351D01*
X32450Y-20351D01*
X32316Y-20378D01*
X32203Y-20453D01*
X32203Y-20453D01*
X30453Y-22203D01*
X30378Y-22316D01*
X30373Y-22338D01*
X30351Y-22450D01*
X30351Y-22450D01*
X30351Y-22705D01*
X29857Y-23200D01*
X29691Y-23199D01*
X29488Y-23283D01*
X29334Y-23438D01*
X29250Y-23640D01*
X29249Y-23858D01*
X29333Y-24061D01*
X29488Y-24215D01*
X29569Y-24249D01*
X29488Y-24283D01*
X29334Y-24438D01*
X29250Y-24640D01*
X29249Y-24858D01*
X29333Y-25061D01*
X29488Y-25215D01*
X29569Y-25249D01*
X29488Y-25283D01*
X29334Y-25438D01*
X29250Y-25640D01*
X29249Y-25858D01*
X29333Y-26061D01*
X29488Y-26215D01*
X29569Y-26249D01*
X29488Y-26283D01*
X29334Y-26438D01*
X29250Y-26640D01*
X29249Y-26858D01*
X29333Y-27061D01*
X29488Y-27215D01*
X29569Y-27249D01*
X29488Y-27283D01*
X29334Y-27438D01*
X29250Y-27640D01*
X29249Y-27858D01*
X29333Y-28061D01*
X29488Y-28215D01*
X29569Y-28249D01*
X29488Y-28283D01*
X29334Y-28438D01*
X29250Y-28640D01*
X29249Y-28858D01*
X29333Y-29061D01*
X29488Y-29215D01*
X29690Y-29299D01*
X29857Y-29300D01*
X30853Y-30296D01*
X30853Y-30296D01*
X30966Y-30371D01*
X31100Y-30398D01*
X31100Y-30398D01*
X31100Y-30398D01*
X33205Y-30398D01*
X34603Y-31796D01*
X34603Y-31796D01*
X34603Y-31796D01*
X34716Y-31871D01*
X34716Y-31871D01*
X34738Y-31876D01*
X34850Y-31898D01*
X34850Y-31898D01*
X34850Y-31898D01*
X35797Y-31898D01*
X35808Y-31910D01*
X35965Y-31974D01*
X36134Y-31975D01*
X36290Y-31910D01*
X36302Y-31898D01*
X36330Y-31898D01*
X35924Y-32304D01*
X34750Y-32304D01*
X34541Y-32346D01*
X34456Y-32403D01*
X31200Y-32403D01*
X31150Y-32403D01*
X30978Y-32437D01*
X30834Y-32534D01*
X30737Y-32678D01*
X30703Y-32850D01*
X30737Y-33021D01*
X30834Y-33165D01*
X30978Y-33262D01*
X31150Y-33296D01*
X31200Y-33296D01*
X34456Y-33296D01*
X34541Y-33353D01*
X34750Y-33395D01*
X36150Y-33395D01*
X36358Y-33353D01*
X36358Y-33353D01*
X36535Y-33235D01*
X37025Y-32745D01*
X41778Y-32745D01*
X41791Y-32753D01*
X42000Y-32795D01*
X42208Y-32753D01*
X42385Y-32635D01*
X42503Y-32458D01*
X42545Y-32250D01*
X42503Y-32041D01*
X42385Y-31864D01*
X42335Y-31814D01*
X42158Y-31696D01*
X41950Y-31654D01*
X37688Y-31654D01*
X37994Y-31348D01*
X40047Y-31348D01*
X40108Y-31410D01*
X40265Y-31474D01*
X40434Y-31475D01*
X40590Y-31410D01*
X40710Y-31291D01*
X40774Y-31134D01*
X40775Y-30965D01*
X40710Y-30809D01*
X40591Y-30689D01*
X40434Y-30625D01*
X40265Y-30624D01*
X40201Y-30651D01*
X37850Y-30651D01*
X37716Y-30678D01*
X37603Y-30753D01*
X37603Y-30753D01*
X37155Y-31201D01*
X36302Y-31201D01*
X36291Y-31189D01*
X36134Y-31125D01*
X35965Y-31124D01*
X35809Y-31189D01*
X35797Y-31201D01*
X35347Y-31201D01*
X35374Y-31134D01*
X35375Y-30965D01*
X35347Y-30898D01*
X35797Y-30898D01*
X35808Y-30910D01*
X35965Y-30974D01*
X36134Y-30975D01*
X36290Y-30910D01*
X36302Y-30898D01*
X37299Y-30898D01*
X37300Y-30898D01*
X37300Y-30898D01*
X37411Y-30876D01*
X37433Y-30871D01*
X37433Y-30871D01*
X37546Y-30796D01*
X37944Y-30398D01*
X40097Y-30398D01*
X40108Y-30410D01*
X40265Y-30474D01*
X40434Y-30475D01*
X40590Y-30410D01*
X40710Y-30291D01*
X40774Y-30134D01*
X40775Y-29965D01*
X40710Y-29809D01*
X40591Y-29689D01*
X40434Y-29625D01*
X40265Y-29624D01*
X40109Y-29689D01*
X40097Y-29701D01*
X38091Y-29701D01*
X40546Y-27246D01*
X40546Y-27246D01*
X40546Y-27246D01*
X41046Y-26746D01*
X41046Y-26746D01*
X41046Y-26746D01*
X41121Y-26633D01*
X41148Y-26500D01*
X41148Y-26500D01*
X41148Y-26499D01*
X41148Y-26344D01*
X41234Y-26257D01*
X41289Y-26390D01*
X41301Y-26402D01*
X41301Y-30172D01*
X41259Y-30189D01*
X41139Y-30308D01*
X41075Y-30465D01*
X41074Y-30634D01*
X41139Y-30790D01*
X41258Y-30910D01*
X41415Y-30974D01*
X41584Y-30975D01*
X41740Y-30910D01*
X41860Y-30791D01*
X41924Y-30634D01*
X41924Y-30603D01*
X41924Y-30603D01*
X41971Y-30533D01*
X41998Y-30400D01*
X41998Y-26402D01*
X42010Y-26391D01*
X42074Y-26234D01*
X42075Y-26065D01*
X42067Y-26048D01*
X43955Y-26048D01*
X45153Y-27246D01*
X45153Y-27246D01*
X45200Y-27277D01*
X45200Y-27387D01*
X45262Y-27450D01*
X45700Y-27450D01*
X45700Y-27442D01*
X45800Y-27442D01*
X45800Y-27450D01*
X46237Y-27450D01*
X46300Y-27387D01*
X46300Y-27338D01*
X46350Y-27328D01*
X46350Y-27387D01*
X46412Y-27450D01*
X46850Y-27450D01*
X46850Y-27442D01*
X46950Y-27442D01*
X46950Y-27450D01*
X46957Y-27450D01*
X46957Y-27550D01*
X46950Y-27550D01*
X46950Y-27987D01*
X47012Y-28050D01*
X47150Y-28050D01*
X47249Y-28050D01*
X47341Y-28011D01*
X47396Y-27957D01*
X47396Y-38377D01*
M02*
