G04 (created by PCBNEW (2013-mar-13)-testing) date Thu 06 Mar 2014 12:46:27 CET*
%MOIN*%
G04 Gerber Fmt 3.4, Leading zero omitted, Abs format*
%FSLAX34Y34*%
G01*
G70*
G90*
G04 APERTURE LIST*
%ADD10C,0.005906*%
%ADD11R,0.082677X0.055118*%
%ADD12C,0.055000*%
%ADD13R,0.055000X0.055000*%
%ADD14R,0.196850X0.696850*%
%ADD15R,0.066929X0.027559*%
%ADD16R,0.370079X0.582677*%
%ADD17R,0.080000X0.060000*%
%ADD18R,0.060000X0.060000*%
%ADD19C,0.060000*%
%ADD20C,0.098425*%
%ADD21R,0.098425X0.098425*%
%ADD22C,0.035000*%
%ADD23C,0.019685*%
%ADD24C,0.039370*%
%ADD25C,0.059055*%
%ADD26C,0.009843*%
%ADD27C,0.010000*%
G04 APERTURE END LIST*
G54D10*
G54D11*
X42850Y-21166D03*
X42850Y-19433D03*
X42850Y-23666D03*
X42850Y-21933D03*
X32250Y-31133D03*
X32250Y-32866D03*
X32250Y-28633D03*
X32250Y-30366D03*
X44150Y-21166D03*
X44150Y-19433D03*
X44150Y-23666D03*
X44150Y-21933D03*
X33550Y-31133D03*
X33550Y-32866D03*
X33550Y-28633D03*
X33550Y-30366D03*
X44150Y-31233D03*
X44150Y-32966D03*
X44150Y-28733D03*
X44150Y-30466D03*
X32250Y-21166D03*
X32250Y-19433D03*
X32250Y-23666D03*
X32250Y-21933D03*
X42850Y-31233D03*
X42850Y-32966D03*
X42850Y-28733D03*
X42850Y-30466D03*
X33550Y-21166D03*
X33550Y-19433D03*
X33550Y-23666D03*
X33550Y-21933D03*
G54D12*
X37250Y-34000D03*
G54D13*
X36250Y-34000D03*
G54D12*
X35250Y-34000D03*
X34250Y-34000D03*
X33250Y-34000D03*
X32250Y-34000D03*
X31250Y-34000D03*
X30250Y-34000D03*
X29250Y-34000D03*
X29250Y-37000D03*
X30250Y-37000D03*
X31250Y-37000D03*
X32250Y-37000D03*
X33250Y-37000D03*
X34250Y-37000D03*
X35250Y-37000D03*
X36250Y-37000D03*
X37250Y-37000D03*
G54D14*
X38200Y-29800D03*
G54D15*
X35503Y-29550D03*
G54D16*
X38200Y-29800D03*
G54D15*
X35503Y-29050D03*
X35503Y-28550D03*
X35503Y-28050D03*
X35503Y-27550D03*
X35500Y-30050D03*
X35500Y-30550D03*
X35500Y-31050D03*
X35500Y-31550D03*
X35500Y-32050D03*
X40900Y-32050D03*
X40900Y-31550D03*
X40900Y-31050D03*
X40900Y-30550D03*
X40900Y-30050D03*
X40900Y-29550D03*
X40900Y-29050D03*
X40900Y-28550D03*
X40900Y-28050D03*
X40900Y-27550D03*
G54D14*
X38200Y-22600D03*
G54D15*
X40896Y-22850D03*
G54D16*
X38200Y-22600D03*
G54D15*
X40896Y-23350D03*
X40896Y-23850D03*
X40896Y-24350D03*
X40896Y-24850D03*
X40900Y-22350D03*
X40900Y-21850D03*
X40900Y-21350D03*
X40900Y-20850D03*
X40900Y-20350D03*
X35500Y-20350D03*
X35500Y-20850D03*
X35500Y-21350D03*
X35500Y-21850D03*
X35500Y-22350D03*
X35500Y-22850D03*
X35500Y-23350D03*
X35500Y-23850D03*
X35500Y-24350D03*
X35500Y-24850D03*
G54D17*
X42850Y-24500D03*
X42850Y-25800D03*
G54D12*
X37750Y-38000D03*
X36750Y-38000D03*
X35750Y-38000D03*
X34750Y-38000D03*
X33750Y-38000D03*
X32750Y-38000D03*
X31750Y-38000D03*
X30750Y-38000D03*
X29750Y-38000D03*
X28750Y-38000D03*
G54D18*
X46900Y-27500D03*
G54D19*
X46900Y-26500D03*
G54D17*
X33550Y-24500D03*
X33550Y-25800D03*
X33550Y-27900D03*
X33550Y-26600D03*
X42850Y-27900D03*
X42850Y-26600D03*
X44150Y-25800D03*
X44150Y-24500D03*
X32250Y-25800D03*
X32250Y-24500D03*
X44150Y-26600D03*
X44150Y-27900D03*
G54D12*
X42100Y-37800D03*
X45100Y-37800D03*
X42100Y-36800D03*
X45100Y-36800D03*
X41200Y-34950D03*
X41200Y-37950D03*
G54D17*
X32250Y-26600D03*
X32250Y-27900D03*
G54D12*
X40200Y-37950D03*
X40200Y-34950D03*
G54D20*
X29250Y-32484D03*
X29250Y-30515D03*
X46400Y-30415D03*
X46400Y-32384D03*
X46400Y-20015D03*
X46400Y-21984D03*
X29250Y-21984D03*
X29250Y-20015D03*
G54D19*
X46900Y-24500D03*
X46900Y-25500D03*
X29800Y-23750D03*
X29800Y-24750D03*
X29800Y-25750D03*
X29800Y-26750D03*
X29800Y-27750D03*
X29800Y-28750D03*
G54D18*
X45750Y-24500D03*
G54D19*
X45750Y-25500D03*
X45750Y-26500D03*
G54D18*
X45750Y-27500D03*
X31000Y-27750D03*
G54D19*
X31000Y-26750D03*
X31000Y-25750D03*
G54D18*
X31000Y-24750D03*
G54D17*
X39000Y-34850D03*
X39000Y-36150D03*
G54D21*
X46400Y-35465D03*
G54D20*
X46400Y-37434D03*
G54D18*
X38750Y-38000D03*
G54D22*
X40400Y-22350D03*
X36050Y-30050D03*
X41600Y-24850D03*
X39650Y-26200D03*
X36650Y-26200D03*
X36000Y-20150D03*
X41700Y-20150D03*
X40850Y-33150D03*
X34950Y-31050D03*
X41500Y-30550D03*
X41650Y-26150D03*
X41000Y-25350D03*
X36050Y-30550D03*
X40350Y-30050D03*
X36050Y-31550D03*
X40350Y-31050D03*
X41550Y-21350D03*
X34750Y-21550D03*
X34250Y-21500D03*
X41550Y-21950D03*
X41550Y-20850D03*
X34300Y-20700D03*
X29867Y-21000D03*
X31433Y-19433D03*
X29200Y-21000D03*
X28600Y-21000D03*
X40950Y-19500D03*
X35100Y-19550D03*
X42000Y-32250D03*
X31150Y-32850D03*
X34750Y-32850D03*
G54D23*
X40900Y-22350D02*
X40400Y-22350D01*
X36050Y-30050D02*
X35500Y-30050D01*
G54D24*
X40896Y-24850D02*
X41600Y-24850D01*
G54D25*
X33550Y-25800D02*
X33550Y-26600D01*
X32250Y-23666D02*
X33550Y-23666D01*
G54D23*
X42850Y-26600D02*
X40650Y-26600D01*
X40650Y-26600D02*
X40250Y-26200D01*
X40250Y-26200D02*
X39650Y-26200D01*
G54D25*
X42850Y-26600D02*
X42850Y-25800D01*
X42850Y-28733D02*
X44150Y-28733D01*
G54D24*
X35550Y-26600D02*
X33550Y-26600D01*
X36650Y-26200D02*
X35950Y-26200D01*
X35950Y-26200D02*
X35550Y-26600D01*
G54D23*
X40250Y-26200D02*
X39650Y-26200D01*
X40650Y-26600D02*
X40250Y-26200D01*
G54D24*
X35800Y-20350D02*
X35500Y-20350D01*
X36000Y-20150D02*
X35800Y-20350D01*
X40900Y-20350D02*
X41500Y-20350D01*
X41500Y-20350D02*
X41700Y-20150D01*
X45750Y-27500D02*
X45050Y-27500D01*
X45050Y-27500D02*
X44800Y-27250D01*
X44800Y-27250D02*
X43500Y-27250D01*
X43500Y-27250D02*
X42850Y-26600D01*
X31000Y-27750D02*
X31050Y-27750D01*
X32900Y-27250D02*
X33550Y-26600D01*
X31550Y-27250D02*
X32900Y-27250D01*
X31050Y-27750D02*
X31550Y-27250D01*
X31000Y-24750D02*
X31200Y-24750D01*
X32900Y-25150D02*
X33550Y-25800D01*
X31600Y-25150D02*
X32900Y-25150D01*
X31200Y-24750D02*
X31600Y-25150D01*
X31000Y-24750D02*
X31000Y-24400D01*
X31733Y-23666D02*
X32250Y-23666D01*
X31000Y-24400D02*
X31733Y-23666D01*
X32250Y-28633D02*
X33550Y-28633D01*
X31000Y-27750D02*
X31000Y-28050D01*
X31583Y-28633D02*
X32250Y-28633D01*
X31000Y-28050D02*
X31583Y-28633D01*
X33550Y-26600D02*
X34150Y-26600D01*
X34150Y-26600D02*
X35100Y-27550D01*
X35100Y-27550D02*
X35503Y-27550D01*
X33550Y-25800D02*
X34150Y-25800D01*
X34150Y-25800D02*
X35100Y-24850D01*
X35100Y-24850D02*
X35500Y-24850D01*
X40896Y-24850D02*
X41600Y-24850D01*
X41600Y-24850D02*
X42550Y-25800D01*
X42550Y-25800D02*
X42850Y-25800D01*
X45750Y-24500D02*
X45600Y-24500D01*
X45600Y-24500D02*
X44950Y-25150D01*
X44950Y-25150D02*
X43500Y-25150D01*
X43500Y-25150D02*
X42850Y-25800D01*
X42850Y-26600D02*
X42550Y-26600D01*
X42550Y-26600D02*
X41600Y-27550D01*
X41600Y-27550D02*
X40900Y-27550D01*
X35500Y-32050D02*
X35500Y-32550D01*
X36250Y-33300D02*
X36250Y-34000D01*
X35500Y-32550D02*
X36250Y-33300D01*
X40850Y-33150D02*
X40850Y-32100D01*
X40850Y-32100D02*
X40900Y-32050D01*
X39000Y-34850D02*
X39000Y-34100D01*
X39950Y-33150D02*
X40850Y-33150D01*
X39000Y-34100D02*
X39950Y-33150D01*
X42850Y-23666D02*
X44150Y-23666D01*
X44150Y-23666D02*
X44166Y-23650D01*
X44166Y-23650D02*
X44900Y-23650D01*
X44900Y-23650D02*
X45750Y-24500D01*
X45750Y-27500D02*
X46900Y-27500D01*
X44150Y-28733D02*
X44183Y-28700D01*
X44550Y-28700D02*
X45750Y-27500D01*
X44183Y-28700D02*
X44550Y-28700D01*
G54D23*
X35500Y-31050D02*
X34950Y-31050D01*
X40900Y-30550D02*
X41500Y-30550D01*
X41650Y-26150D02*
X41000Y-25350D01*
X41000Y-25350D02*
X41000Y-25350D01*
X40900Y-30050D02*
X40350Y-30050D01*
X36050Y-30550D02*
X35500Y-30550D01*
X40900Y-31050D02*
X40350Y-31050D01*
X36050Y-31550D02*
X35500Y-31550D01*
G54D25*
X32250Y-30366D02*
X32250Y-31133D01*
X29250Y-30515D02*
X32100Y-30515D01*
X32100Y-30515D02*
X32250Y-30366D01*
G54D24*
X32250Y-30366D02*
X32250Y-30200D01*
X34800Y-29050D02*
X35503Y-29050D01*
X34300Y-29550D02*
X34800Y-29050D01*
X32900Y-29550D02*
X34300Y-29550D01*
X32250Y-30200D02*
X32900Y-29550D01*
X32100Y-30515D02*
X32250Y-30366D01*
G54D25*
X33550Y-30366D02*
X33550Y-31133D01*
X29250Y-32484D02*
X29634Y-32100D01*
X29634Y-32100D02*
X33150Y-32100D01*
X33150Y-32100D02*
X33550Y-31700D01*
X33550Y-31700D02*
X33550Y-31133D01*
G54D24*
X33550Y-31133D02*
X33550Y-31700D01*
X33150Y-32100D02*
X29634Y-32100D01*
X33550Y-31700D02*
X33150Y-32100D01*
X33550Y-30366D02*
X34183Y-30366D01*
X35000Y-29550D02*
X35503Y-29550D01*
X34183Y-30366D02*
X35000Y-29550D01*
G54D25*
X46400Y-32384D02*
X46215Y-32200D01*
X46215Y-32200D02*
X43600Y-32200D01*
X43600Y-32200D02*
X42850Y-31450D01*
X42850Y-31450D02*
X42850Y-31233D01*
G54D24*
X42850Y-31233D02*
X42850Y-31450D01*
X43600Y-32200D02*
X46215Y-32200D01*
X42850Y-31450D02*
X43600Y-32200D01*
X42850Y-30466D02*
X42366Y-30466D01*
X41450Y-29550D02*
X40900Y-29550D01*
X42366Y-30466D02*
X41450Y-29550D01*
X42850Y-31233D02*
X42850Y-30466D01*
G54D25*
X44150Y-30466D02*
X46349Y-30466D01*
X46349Y-30466D02*
X46400Y-30415D01*
G54D24*
X44150Y-30466D02*
X44150Y-30350D01*
X41700Y-29050D02*
X40900Y-29050D01*
X42300Y-29650D02*
X41700Y-29050D01*
X43450Y-29650D02*
X42300Y-29650D01*
X44150Y-30350D02*
X43450Y-29650D01*
X44150Y-30466D02*
X44150Y-31233D01*
X32250Y-27900D02*
X33550Y-27900D01*
X35503Y-28050D02*
X34850Y-28050D01*
X34850Y-28050D02*
X34750Y-27950D01*
X34750Y-27950D02*
X33600Y-27950D01*
X33600Y-27950D02*
X33550Y-27900D01*
G54D23*
X31000Y-26750D02*
X32100Y-26750D01*
X32100Y-26750D02*
X32250Y-26600D01*
X44150Y-26600D02*
X45650Y-26600D01*
X45650Y-26600D02*
X45750Y-26500D01*
G54D24*
X42850Y-27900D02*
X44150Y-27900D01*
X40900Y-28050D02*
X42700Y-28050D01*
X42700Y-28050D02*
X42850Y-27900D01*
G54D23*
X42850Y-27900D02*
X42700Y-28050D01*
X37750Y-38000D02*
X37750Y-37500D01*
X37250Y-34500D02*
X37250Y-34000D01*
X38000Y-35250D02*
X37250Y-34500D01*
X38000Y-37250D02*
X38000Y-35250D01*
X37750Y-37500D02*
X38000Y-37250D01*
X29250Y-37000D02*
X29250Y-37500D01*
X29250Y-37500D02*
X28750Y-38000D01*
X37250Y-37000D02*
X37250Y-37500D01*
X37250Y-37500D02*
X36750Y-38000D01*
X36250Y-37000D02*
X36250Y-37500D01*
X36250Y-37500D02*
X35750Y-38000D01*
X35250Y-37000D02*
X35250Y-37500D01*
X35250Y-37500D02*
X34750Y-38000D01*
X34250Y-37000D02*
X34250Y-37500D01*
X34250Y-37500D02*
X33750Y-38000D01*
X33250Y-37000D02*
X33250Y-37500D01*
X33250Y-37500D02*
X32750Y-38000D01*
X32250Y-37000D02*
X32250Y-37500D01*
X32250Y-37500D02*
X31750Y-38000D01*
X31250Y-37000D02*
X31250Y-37500D01*
X31250Y-37500D02*
X30750Y-38000D01*
X30250Y-37000D02*
X30250Y-37500D01*
X30250Y-37500D02*
X29750Y-38000D01*
X41550Y-21350D02*
X40900Y-21350D01*
X35500Y-21850D02*
X35050Y-21850D01*
X35050Y-21850D02*
X34750Y-21550D01*
G54D26*
X35050Y-21850D02*
X34750Y-21550D01*
G54D23*
X35500Y-22350D02*
X35007Y-22350D01*
X34311Y-21561D02*
X34250Y-21500D01*
X34311Y-21654D02*
X34311Y-21561D01*
X35007Y-22350D02*
X34311Y-21654D01*
X40900Y-21850D02*
X41450Y-21850D01*
X41450Y-21850D02*
X41550Y-21950D01*
X40900Y-20850D02*
X41550Y-20850D01*
X35500Y-21350D02*
X35100Y-21350D01*
X34450Y-20700D02*
X34300Y-20700D01*
X35100Y-21350D02*
X34450Y-20700D01*
G54D25*
X44150Y-21933D02*
X44126Y-21933D01*
X44126Y-21933D02*
X43210Y-22850D01*
X46400Y-21984D02*
X44200Y-21984D01*
X44200Y-21984D02*
X44150Y-21933D01*
X44150Y-21166D02*
X44150Y-21933D01*
G54D24*
X44126Y-21933D02*
X43210Y-22850D01*
X43210Y-22850D02*
X42110Y-22850D01*
X42110Y-22850D02*
X41610Y-23350D01*
X41610Y-23350D02*
X40896Y-23350D01*
X44200Y-21984D02*
X44150Y-21933D01*
G54D25*
X42850Y-21166D02*
X42850Y-21933D01*
X46400Y-20015D02*
X46175Y-20240D01*
X46175Y-20240D02*
X43570Y-20240D01*
X43570Y-20240D02*
X42850Y-20960D01*
X42850Y-20960D02*
X42850Y-21166D01*
G54D24*
X42850Y-21166D02*
X42850Y-20960D01*
X43570Y-20240D02*
X46175Y-20240D01*
X42850Y-20960D02*
X43570Y-20240D01*
X40896Y-22850D02*
X41393Y-22850D01*
X42309Y-21933D02*
X42850Y-21933D01*
X41393Y-22850D02*
X42309Y-21933D01*
G54D25*
X33550Y-21166D02*
X33550Y-21933D01*
X29250Y-20015D02*
X29465Y-20015D01*
X29465Y-20015D02*
X29650Y-20200D01*
X29650Y-20200D02*
X33150Y-20200D01*
X33150Y-20200D02*
X33550Y-20600D01*
X33550Y-20600D02*
X33550Y-21166D01*
G54D24*
X33550Y-21933D02*
X34032Y-21933D01*
X34032Y-21933D02*
X34954Y-22856D01*
X34954Y-22856D02*
X35500Y-22856D01*
X35500Y-22856D02*
X35500Y-22850D01*
X33550Y-20600D02*
X33550Y-21166D01*
X33150Y-20200D02*
X33550Y-20600D01*
X29650Y-20200D02*
X33150Y-20200D01*
X29465Y-20015D02*
X29650Y-20200D01*
G54D25*
X32250Y-21166D02*
X32250Y-21933D01*
X29250Y-21984D02*
X29565Y-21984D01*
X29565Y-21984D02*
X29616Y-21933D01*
X29616Y-21933D02*
X32250Y-21933D01*
G54D24*
X35500Y-23350D02*
X34750Y-23350D01*
X33116Y-22800D02*
X32250Y-21933D01*
X34200Y-22800D02*
X33116Y-22800D01*
X34750Y-23350D02*
X34200Y-22800D01*
X42850Y-24500D02*
X44150Y-24500D01*
X40896Y-24350D02*
X42700Y-24350D01*
X42700Y-24350D02*
X42850Y-24500D01*
G54D23*
X42700Y-24350D02*
X42850Y-24500D01*
X44150Y-25800D02*
X45450Y-25800D01*
X45450Y-25800D02*
X45750Y-25500D01*
X31000Y-25750D02*
X32200Y-25750D01*
X32200Y-25750D02*
X32250Y-25800D01*
G54D24*
X32250Y-24500D02*
X33550Y-24500D01*
X35500Y-24350D02*
X34900Y-24350D01*
X34900Y-24350D02*
X34800Y-24450D01*
X34800Y-24450D02*
X33600Y-24450D01*
X33600Y-24450D02*
X33550Y-24500D01*
G54D23*
X34250Y-34000D02*
X34150Y-34000D01*
X30850Y-34600D02*
X30250Y-34000D01*
X33550Y-34600D02*
X30850Y-34600D01*
X34150Y-34000D02*
X33550Y-34600D01*
G54D24*
X29867Y-21000D02*
X29800Y-21000D01*
X32250Y-19433D02*
X31433Y-19433D01*
X29200Y-21000D02*
X28600Y-21000D01*
X42850Y-19433D02*
X41016Y-19433D01*
X41016Y-19433D02*
X40950Y-19500D01*
X35100Y-19550D02*
X34983Y-19433D01*
X34983Y-19433D02*
X33550Y-19433D01*
G54D25*
X42850Y-32966D02*
X42716Y-32966D01*
X42716Y-32966D02*
X42000Y-32250D01*
X31433Y-19433D02*
X32250Y-19433D01*
G54D24*
X31433Y-19433D02*
X32250Y-19433D01*
G54D25*
X32250Y-19433D02*
X33550Y-19433D01*
X34416Y-19433D02*
X33550Y-19433D01*
X44150Y-19433D02*
X42850Y-19433D01*
X42850Y-32966D02*
X44150Y-32966D01*
X45100Y-37800D02*
X44400Y-37800D01*
X44400Y-37800D02*
X42850Y-36250D01*
X42850Y-36250D02*
X42850Y-32966D01*
G54D24*
X32250Y-32866D02*
X31166Y-32866D01*
X31166Y-32866D02*
X31150Y-32850D01*
X34416Y-19433D02*
X33550Y-19433D01*
X40900Y-31550D02*
X41300Y-31550D01*
X41300Y-31550D02*
X42716Y-32966D01*
G54D23*
X35500Y-20850D02*
X35050Y-20850D01*
X33633Y-19433D02*
X33550Y-19433D01*
X35050Y-20850D02*
X33633Y-19433D01*
G54D24*
X35250Y-34000D02*
X35250Y-33350D01*
X35250Y-33350D02*
X34750Y-32850D01*
X34733Y-32866D02*
X33550Y-32866D01*
X34750Y-32850D02*
X34733Y-32866D01*
X44400Y-37800D02*
X42850Y-36250D01*
X32250Y-32866D02*
X33550Y-32866D01*
G54D23*
X42750Y-36150D02*
X39000Y-36150D01*
X44400Y-37800D02*
X42750Y-36150D01*
X35250Y-34000D02*
X34300Y-34950D01*
X30200Y-34950D02*
X29250Y-34000D01*
X34300Y-34950D02*
X30200Y-34950D01*
X38750Y-38000D02*
X38750Y-37500D01*
X38750Y-37500D02*
X39000Y-37250D01*
X39000Y-37250D02*
X39000Y-36150D01*
G54D10*
G36*
X36275Y-25753D02*
X35950Y-25753D01*
X35778Y-25787D01*
X35634Y-25884D01*
X35364Y-26153D01*
X34410Y-26153D01*
X34465Y-26115D01*
X35285Y-25296D01*
X35500Y-25296D01*
X35671Y-25262D01*
X35708Y-25237D01*
X35884Y-25237D01*
X35976Y-25199D01*
X36046Y-25129D01*
X36084Y-25037D01*
X36084Y-24938D01*
X36084Y-24662D01*
X36058Y-24600D01*
X36084Y-24537D01*
X36084Y-24438D01*
X36084Y-24162D01*
X36058Y-24100D01*
X36084Y-24037D01*
X36084Y-23938D01*
X36084Y-23662D01*
X36058Y-23600D01*
X36084Y-23537D01*
X36084Y-23438D01*
X36084Y-23162D01*
X36058Y-23100D01*
X36084Y-23037D01*
X36084Y-22938D01*
X36084Y-22662D01*
X36058Y-22600D01*
X36084Y-22537D01*
X36084Y-22438D01*
X36084Y-22162D01*
X36058Y-22100D01*
X36084Y-22037D01*
X36084Y-21938D01*
X36084Y-21662D01*
X36058Y-21600D01*
X36084Y-21537D01*
X36084Y-21438D01*
X36084Y-21162D01*
X36058Y-21100D01*
X36084Y-21037D01*
X36084Y-20962D01*
X36022Y-20900D01*
X35550Y-20900D01*
X35550Y-20907D01*
X35450Y-20907D01*
X35450Y-20900D01*
X35442Y-20900D01*
X35442Y-20800D01*
X35450Y-20800D01*
X35450Y-20792D01*
X35476Y-20792D01*
X35500Y-20796D01*
X35550Y-20796D01*
X35550Y-20800D01*
X36022Y-20800D01*
X36084Y-20737D01*
X36084Y-20686D01*
X36099Y-20676D01*
X36099Y-25563D01*
X36137Y-25654D01*
X36207Y-25725D01*
X36275Y-25753D01*
X36275Y-25753D01*
G37*
G54D27*
X36275Y-25753D02*
X35950Y-25753D01*
X35778Y-25787D01*
X35634Y-25884D01*
X35364Y-26153D01*
X34410Y-26153D01*
X34465Y-26115D01*
X35285Y-25296D01*
X35500Y-25296D01*
X35671Y-25262D01*
X35708Y-25237D01*
X35884Y-25237D01*
X35976Y-25199D01*
X36046Y-25129D01*
X36084Y-25037D01*
X36084Y-24938D01*
X36084Y-24662D01*
X36058Y-24600D01*
X36084Y-24537D01*
X36084Y-24438D01*
X36084Y-24162D01*
X36058Y-24100D01*
X36084Y-24037D01*
X36084Y-23938D01*
X36084Y-23662D01*
X36058Y-23600D01*
X36084Y-23537D01*
X36084Y-23438D01*
X36084Y-23162D01*
X36058Y-23100D01*
X36084Y-23037D01*
X36084Y-22938D01*
X36084Y-22662D01*
X36058Y-22600D01*
X36084Y-22537D01*
X36084Y-22438D01*
X36084Y-22162D01*
X36058Y-22100D01*
X36084Y-22037D01*
X36084Y-21938D01*
X36084Y-21662D01*
X36058Y-21600D01*
X36084Y-21537D01*
X36084Y-21438D01*
X36084Y-21162D01*
X36058Y-21100D01*
X36084Y-21037D01*
X36084Y-20962D01*
X36022Y-20900D01*
X35550Y-20900D01*
X35550Y-20907D01*
X35450Y-20907D01*
X35450Y-20900D01*
X35442Y-20900D01*
X35442Y-20800D01*
X35450Y-20800D01*
X35450Y-20792D01*
X35476Y-20792D01*
X35500Y-20796D01*
X35550Y-20796D01*
X35550Y-20800D01*
X36022Y-20800D01*
X36084Y-20737D01*
X36084Y-20686D01*
X36099Y-20676D01*
X36099Y-25563D01*
X36137Y-25654D01*
X36207Y-25725D01*
X36275Y-25753D01*
G54D10*
G36*
X37651Y-36659D02*
X37547Y-36555D01*
X37354Y-36475D01*
X37146Y-36474D01*
X36953Y-36554D01*
X36805Y-36702D01*
X36749Y-36835D01*
X36695Y-36703D01*
X36547Y-36555D01*
X36354Y-36475D01*
X36146Y-36474D01*
X35953Y-36554D01*
X35805Y-36702D01*
X35749Y-36835D01*
X35695Y-36703D01*
X35547Y-36555D01*
X35547Y-36554D01*
X35547Y-34367D01*
X35250Y-34070D01*
X35179Y-34141D01*
X35179Y-34000D01*
X34882Y-33702D01*
X34789Y-33727D01*
X34750Y-33837D01*
X34695Y-33703D01*
X34547Y-33555D01*
X34354Y-33475D01*
X34213Y-33474D01*
X34213Y-33191D01*
X34213Y-33092D01*
X34213Y-32978D01*
X34150Y-32916D01*
X33600Y-32916D01*
X33600Y-33329D01*
X33662Y-33391D01*
X34013Y-33391D01*
X34104Y-33353D01*
X34175Y-33283D01*
X34213Y-33191D01*
X34213Y-33474D01*
X34146Y-33474D01*
X33953Y-33554D01*
X33805Y-33702D01*
X33749Y-33835D01*
X33695Y-33703D01*
X33547Y-33555D01*
X33500Y-33535D01*
X33500Y-33329D01*
X33500Y-32916D01*
X32949Y-32916D01*
X32900Y-32965D01*
X32850Y-32916D01*
X32300Y-32916D01*
X32300Y-33329D01*
X32362Y-33391D01*
X32713Y-33391D01*
X32804Y-33353D01*
X32875Y-33283D01*
X32900Y-33223D01*
X32924Y-33283D01*
X32995Y-33353D01*
X33086Y-33391D01*
X33437Y-33391D01*
X33500Y-33329D01*
X33500Y-33535D01*
X33354Y-33475D01*
X33146Y-33474D01*
X32953Y-33554D01*
X32805Y-33702D01*
X32749Y-33835D01*
X32695Y-33703D01*
X32547Y-33555D01*
X32354Y-33475D01*
X32200Y-33474D01*
X32200Y-33329D01*
X32200Y-32916D01*
X31649Y-32916D01*
X31586Y-32978D01*
X31586Y-33092D01*
X31586Y-33191D01*
X31624Y-33283D01*
X31695Y-33353D01*
X31786Y-33391D01*
X32137Y-33391D01*
X32200Y-33329D01*
X32200Y-33474D01*
X32146Y-33474D01*
X31953Y-33554D01*
X31805Y-33702D01*
X31749Y-33835D01*
X31695Y-33703D01*
X31547Y-33555D01*
X31354Y-33475D01*
X31146Y-33474D01*
X30953Y-33554D01*
X30805Y-33702D01*
X30749Y-33835D01*
X30695Y-33703D01*
X30547Y-33555D01*
X30354Y-33475D01*
X30146Y-33474D01*
X29953Y-33554D01*
X29805Y-33702D01*
X29752Y-33828D01*
X29710Y-33727D01*
X29617Y-33702D01*
X29547Y-33773D01*
X29547Y-33632D01*
X29522Y-33539D01*
X29325Y-33470D01*
X29117Y-33481D01*
X28977Y-33539D01*
X28952Y-33632D01*
X29250Y-33929D01*
X29547Y-33632D01*
X29547Y-33773D01*
X29320Y-34000D01*
X29617Y-34297D01*
X29710Y-34272D01*
X29749Y-34162D01*
X29804Y-34297D01*
X29952Y-34444D01*
X30145Y-34524D01*
X30282Y-34525D01*
X30603Y-34846D01*
X30603Y-34846D01*
X30716Y-34921D01*
X30850Y-34948D01*
X33549Y-34948D01*
X33550Y-34948D01*
X33550Y-34948D01*
X33661Y-34926D01*
X33683Y-34921D01*
X33683Y-34921D01*
X33796Y-34846D01*
X34125Y-34516D01*
X34145Y-34524D01*
X34353Y-34525D01*
X34547Y-34445D01*
X34694Y-34297D01*
X34747Y-34171D01*
X34789Y-34272D01*
X34882Y-34297D01*
X35179Y-34000D01*
X35179Y-34141D01*
X34952Y-34367D01*
X34977Y-34460D01*
X35174Y-34529D01*
X35382Y-34518D01*
X35522Y-34460D01*
X35547Y-34367D01*
X35547Y-36554D01*
X35354Y-36475D01*
X35146Y-36474D01*
X34953Y-36554D01*
X34805Y-36702D01*
X34749Y-36835D01*
X34695Y-36703D01*
X34547Y-36555D01*
X34354Y-36475D01*
X34146Y-36474D01*
X33953Y-36554D01*
X33805Y-36702D01*
X33749Y-36835D01*
X33695Y-36703D01*
X33547Y-36555D01*
X33354Y-36475D01*
X33146Y-36474D01*
X32953Y-36554D01*
X32805Y-36702D01*
X32749Y-36835D01*
X32695Y-36703D01*
X32547Y-36555D01*
X32354Y-36475D01*
X32146Y-36474D01*
X31953Y-36554D01*
X31805Y-36702D01*
X31749Y-36835D01*
X31695Y-36703D01*
X31547Y-36555D01*
X31354Y-36475D01*
X31146Y-36474D01*
X30953Y-36554D01*
X30805Y-36702D01*
X30749Y-36835D01*
X30695Y-36703D01*
X30547Y-36555D01*
X30354Y-36475D01*
X30146Y-36474D01*
X29953Y-36554D01*
X29805Y-36702D01*
X29749Y-36835D01*
X29695Y-36703D01*
X29547Y-36555D01*
X29547Y-36554D01*
X29547Y-34367D01*
X29250Y-34070D01*
X29179Y-34141D01*
X29179Y-34000D01*
X28882Y-33702D01*
X28789Y-33727D01*
X28720Y-33924D01*
X28731Y-34132D01*
X28789Y-34272D01*
X28882Y-34297D01*
X29179Y-34000D01*
X29179Y-34141D01*
X28952Y-34367D01*
X28977Y-34460D01*
X29174Y-34529D01*
X29382Y-34518D01*
X29522Y-34460D01*
X29547Y-34367D01*
X29547Y-36554D01*
X29354Y-36475D01*
X29146Y-36474D01*
X28953Y-36554D01*
X28805Y-36702D01*
X28725Y-36895D01*
X28724Y-37103D01*
X28804Y-37297D01*
X28882Y-37374D01*
X28782Y-37475D01*
X28646Y-37474D01*
X28453Y-37554D01*
X28305Y-37702D01*
X28250Y-37833D01*
X28250Y-19231D01*
X31586Y-19231D01*
X31586Y-19321D01*
X31649Y-19383D01*
X32200Y-19383D01*
X32200Y-19375D01*
X32300Y-19375D01*
X32300Y-19383D01*
X32850Y-19383D01*
X32900Y-19334D01*
X32949Y-19383D01*
X33500Y-19383D01*
X33500Y-19375D01*
X33600Y-19375D01*
X33600Y-19383D01*
X34150Y-19383D01*
X34213Y-19321D01*
X34213Y-19231D01*
X36965Y-19231D01*
X36965Y-19436D01*
X36299Y-19436D01*
X36207Y-19474D01*
X36137Y-19545D01*
X36099Y-19636D01*
X36099Y-19722D01*
X36000Y-19703D01*
X35828Y-19737D01*
X35684Y-19834D01*
X35614Y-19903D01*
X35500Y-19903D01*
X35328Y-19937D01*
X35291Y-19962D01*
X35115Y-19962D01*
X35023Y-20000D01*
X34953Y-20070D01*
X34915Y-20162D01*
X34915Y-20261D01*
X34915Y-20537D01*
X34941Y-20600D01*
X34915Y-20662D01*
X34915Y-20672D01*
X34696Y-20453D01*
X34583Y-20378D01*
X34578Y-20377D01*
X34541Y-20339D01*
X34384Y-20275D01*
X34215Y-20274D01*
X34059Y-20339D01*
X34035Y-20363D01*
X33935Y-20214D01*
X33680Y-19959D01*
X34013Y-19959D01*
X34104Y-19921D01*
X34175Y-19851D01*
X34213Y-19759D01*
X34213Y-19659D01*
X34213Y-19546D01*
X34150Y-19483D01*
X33600Y-19483D01*
X33600Y-19491D01*
X33500Y-19491D01*
X33500Y-19483D01*
X32949Y-19483D01*
X32900Y-19532D01*
X32850Y-19483D01*
X32300Y-19483D01*
X32300Y-19491D01*
X32200Y-19491D01*
X32200Y-19483D01*
X31649Y-19483D01*
X31586Y-19546D01*
X31586Y-19654D01*
X29903Y-19654D01*
X29879Y-19595D01*
X29670Y-19386D01*
X29398Y-19273D01*
X29103Y-19273D01*
X28830Y-19386D01*
X28621Y-19594D01*
X28508Y-19867D01*
X28507Y-20162D01*
X28620Y-20435D01*
X28829Y-20644D01*
X29101Y-20757D01*
X29396Y-20758D01*
X29499Y-20715D01*
X29650Y-20745D01*
X31628Y-20745D01*
X31624Y-20748D01*
X31586Y-20840D01*
X31586Y-20940D01*
X31586Y-21388D01*
X29703Y-21388D01*
X29670Y-21355D01*
X29398Y-21242D01*
X29103Y-21241D01*
X28830Y-21354D01*
X28621Y-21563D01*
X28508Y-21835D01*
X28507Y-22131D01*
X28620Y-22404D01*
X28829Y-22613D01*
X29101Y-22726D01*
X29396Y-22726D01*
X29669Y-22613D01*
X29804Y-22479D01*
X32163Y-22479D01*
X32800Y-23115D01*
X32807Y-23120D01*
X32250Y-23120D01*
X32151Y-23140D01*
X31786Y-23140D01*
X31695Y-23178D01*
X31634Y-23239D01*
X31562Y-23253D01*
X31417Y-23350D01*
X30684Y-24084D01*
X30589Y-24225D01*
X30558Y-24238D01*
X30488Y-24308D01*
X30450Y-24400D01*
X30450Y-24499D01*
X30450Y-25099D01*
X30488Y-25191D01*
X30558Y-25261D01*
X30650Y-25300D01*
X30672Y-25300D01*
X30534Y-25438D01*
X30450Y-25640D01*
X30449Y-25858D01*
X30533Y-26061D01*
X30688Y-26215D01*
X30769Y-26249D01*
X30688Y-26283D01*
X30534Y-26438D01*
X30450Y-26640D01*
X30449Y-26858D01*
X30533Y-27061D01*
X30672Y-27200D01*
X30650Y-27200D01*
X30558Y-27238D01*
X30488Y-27308D01*
X30450Y-27400D01*
X30450Y-27499D01*
X30450Y-28099D01*
X30488Y-28191D01*
X30558Y-28261D01*
X30635Y-28294D01*
X30635Y-28294D01*
X30684Y-28365D01*
X31267Y-28949D01*
X31412Y-29046D01*
X31412Y-29046D01*
X31583Y-29080D01*
X31654Y-29080D01*
X31695Y-29121D01*
X31786Y-29159D01*
X31886Y-29159D01*
X32695Y-29159D01*
X32584Y-29234D01*
X31977Y-29840D01*
X31786Y-29840D01*
X31695Y-29878D01*
X31624Y-29948D01*
X31615Y-29970D01*
X30350Y-29970D01*
X30350Y-28641D01*
X30266Y-28438D01*
X30111Y-28284D01*
X30030Y-28250D01*
X30111Y-28216D01*
X30265Y-28061D01*
X30349Y-27859D01*
X30350Y-27641D01*
X30266Y-27438D01*
X30111Y-27284D01*
X30030Y-27250D01*
X30111Y-27216D01*
X30265Y-27061D01*
X30349Y-26859D01*
X30350Y-26641D01*
X30266Y-26438D01*
X30111Y-26284D01*
X30030Y-26250D01*
X30111Y-26216D01*
X30265Y-26061D01*
X30349Y-25859D01*
X30350Y-25641D01*
X30266Y-25438D01*
X30111Y-25284D01*
X30030Y-25250D01*
X30111Y-25216D01*
X30265Y-25061D01*
X30349Y-24859D01*
X30350Y-24641D01*
X30266Y-24438D01*
X30111Y-24284D01*
X30030Y-24250D01*
X30111Y-24216D01*
X30265Y-24061D01*
X30349Y-23859D01*
X30350Y-23641D01*
X30266Y-23438D01*
X30111Y-23284D01*
X29909Y-23200D01*
X29691Y-23199D01*
X29488Y-23283D01*
X29334Y-23438D01*
X29250Y-23640D01*
X29249Y-23858D01*
X29333Y-24061D01*
X29488Y-24215D01*
X29569Y-24249D01*
X29488Y-24283D01*
X29334Y-24438D01*
X29250Y-24640D01*
X29249Y-24858D01*
X29333Y-25061D01*
X29488Y-25215D01*
X29569Y-25249D01*
X29488Y-25283D01*
X29334Y-25438D01*
X29250Y-25640D01*
X29249Y-25858D01*
X29333Y-26061D01*
X29488Y-26215D01*
X29569Y-26249D01*
X29488Y-26283D01*
X29334Y-26438D01*
X29250Y-26640D01*
X29249Y-26858D01*
X29333Y-27061D01*
X29488Y-27215D01*
X29569Y-27249D01*
X29488Y-27283D01*
X29334Y-27438D01*
X29250Y-27640D01*
X29249Y-27858D01*
X29333Y-28061D01*
X29488Y-28215D01*
X29569Y-28249D01*
X29488Y-28283D01*
X29334Y-28438D01*
X29250Y-28640D01*
X29249Y-28858D01*
X29333Y-29061D01*
X29488Y-29215D01*
X29690Y-29299D01*
X29908Y-29300D01*
X30111Y-29216D01*
X30265Y-29061D01*
X30349Y-28859D01*
X30350Y-28641D01*
X30350Y-29970D01*
X29754Y-29970D01*
X29670Y-29886D01*
X29398Y-29773D01*
X29103Y-29773D01*
X28830Y-29886D01*
X28621Y-30094D01*
X28508Y-30367D01*
X28507Y-30662D01*
X28620Y-30935D01*
X28829Y-31144D01*
X29101Y-31257D01*
X29396Y-31258D01*
X29669Y-31145D01*
X29754Y-31061D01*
X31586Y-31061D01*
X31586Y-31459D01*
X31624Y-31551D01*
X31628Y-31554D01*
X29634Y-31554D01*
X29425Y-31596D01*
X29248Y-31714D01*
X29221Y-31742D01*
X29103Y-31741D01*
X28830Y-31854D01*
X28621Y-32063D01*
X28508Y-32335D01*
X28507Y-32631D01*
X28620Y-32904D01*
X28829Y-33113D01*
X29101Y-33226D01*
X29396Y-33226D01*
X29669Y-33113D01*
X29878Y-32905D01*
X29986Y-32645D01*
X31586Y-32645D01*
X31586Y-32753D01*
X31649Y-32816D01*
X32200Y-32816D01*
X32200Y-32808D01*
X32300Y-32808D01*
X32300Y-32816D01*
X32850Y-32816D01*
X32900Y-32767D01*
X32949Y-32816D01*
X33500Y-32816D01*
X33500Y-32808D01*
X33600Y-32808D01*
X33600Y-32816D01*
X34150Y-32816D01*
X34213Y-32753D01*
X34213Y-32640D01*
X34213Y-32540D01*
X34175Y-32448D01*
X34104Y-32378D01*
X34013Y-32340D01*
X33680Y-32340D01*
X33935Y-32085D01*
X34053Y-31908D01*
X34053Y-31908D01*
X34095Y-31700D01*
X34095Y-31625D01*
X34104Y-31621D01*
X34175Y-31551D01*
X34213Y-31459D01*
X34213Y-31359D01*
X34213Y-30808D01*
X34212Y-30807D01*
X34354Y-30778D01*
X34354Y-30778D01*
X34499Y-30682D01*
X34923Y-30258D01*
X34941Y-30299D01*
X34915Y-30362D01*
X34915Y-30461D01*
X34915Y-30624D01*
X34865Y-30624D01*
X34709Y-30689D01*
X34589Y-30808D01*
X34525Y-30965D01*
X34524Y-31134D01*
X34589Y-31290D01*
X34708Y-31410D01*
X34865Y-31474D01*
X34915Y-31474D01*
X34915Y-31737D01*
X34941Y-31799D01*
X34915Y-31862D01*
X34915Y-31961D01*
X34915Y-32237D01*
X34953Y-32329D01*
X35023Y-32399D01*
X35053Y-32411D01*
X35053Y-32550D01*
X35087Y-32721D01*
X35184Y-32865D01*
X35803Y-33485D01*
X35803Y-33543D01*
X35763Y-33583D01*
X35725Y-33675D01*
X35725Y-33762D01*
X35710Y-33727D01*
X35617Y-33702D01*
X35547Y-33773D01*
X35547Y-33632D01*
X35522Y-33539D01*
X35325Y-33470D01*
X35117Y-33481D01*
X34977Y-33539D01*
X34952Y-33632D01*
X35250Y-33929D01*
X35547Y-33632D01*
X35547Y-33773D01*
X35320Y-34000D01*
X35617Y-34297D01*
X35710Y-34272D01*
X35725Y-34231D01*
X35725Y-34324D01*
X35763Y-34416D01*
X35833Y-34486D01*
X35925Y-34525D01*
X36024Y-34525D01*
X36574Y-34525D01*
X36666Y-34486D01*
X36736Y-34416D01*
X36775Y-34324D01*
X36775Y-34225D01*
X36775Y-34225D01*
X36804Y-34297D01*
X36901Y-34394D01*
X36901Y-34499D01*
X36901Y-34500D01*
X36923Y-34611D01*
X36928Y-34633D01*
X37003Y-34746D01*
X37651Y-35394D01*
X37651Y-36659D01*
X37651Y-36659D01*
G37*
G54D27*
X37651Y-36659D02*
X37547Y-36555D01*
X37354Y-36475D01*
X37146Y-36474D01*
X36953Y-36554D01*
X36805Y-36702D01*
X36749Y-36835D01*
X36695Y-36703D01*
X36547Y-36555D01*
X36354Y-36475D01*
X36146Y-36474D01*
X35953Y-36554D01*
X35805Y-36702D01*
X35749Y-36835D01*
X35695Y-36703D01*
X35547Y-36555D01*
X35547Y-36554D01*
X35547Y-34367D01*
X35250Y-34070D01*
X35179Y-34141D01*
X35179Y-34000D01*
X34882Y-33702D01*
X34789Y-33727D01*
X34750Y-33837D01*
X34695Y-33703D01*
X34547Y-33555D01*
X34354Y-33475D01*
X34213Y-33474D01*
X34213Y-33191D01*
X34213Y-33092D01*
X34213Y-32978D01*
X34150Y-32916D01*
X33600Y-32916D01*
X33600Y-33329D01*
X33662Y-33391D01*
X34013Y-33391D01*
X34104Y-33353D01*
X34175Y-33283D01*
X34213Y-33191D01*
X34213Y-33474D01*
X34146Y-33474D01*
X33953Y-33554D01*
X33805Y-33702D01*
X33749Y-33835D01*
X33695Y-33703D01*
X33547Y-33555D01*
X33500Y-33535D01*
X33500Y-33329D01*
X33500Y-32916D01*
X32949Y-32916D01*
X32900Y-32965D01*
X32850Y-32916D01*
X32300Y-32916D01*
X32300Y-33329D01*
X32362Y-33391D01*
X32713Y-33391D01*
X32804Y-33353D01*
X32875Y-33283D01*
X32900Y-33223D01*
X32924Y-33283D01*
X32995Y-33353D01*
X33086Y-33391D01*
X33437Y-33391D01*
X33500Y-33329D01*
X33500Y-33535D01*
X33354Y-33475D01*
X33146Y-33474D01*
X32953Y-33554D01*
X32805Y-33702D01*
X32749Y-33835D01*
X32695Y-33703D01*
X32547Y-33555D01*
X32354Y-33475D01*
X32200Y-33474D01*
X32200Y-33329D01*
X32200Y-32916D01*
X31649Y-32916D01*
X31586Y-32978D01*
X31586Y-33092D01*
X31586Y-33191D01*
X31624Y-33283D01*
X31695Y-33353D01*
X31786Y-33391D01*
X32137Y-33391D01*
X32200Y-33329D01*
X32200Y-33474D01*
X32146Y-33474D01*
X31953Y-33554D01*
X31805Y-33702D01*
X31749Y-33835D01*
X31695Y-33703D01*
X31547Y-33555D01*
X31354Y-33475D01*
X31146Y-33474D01*
X30953Y-33554D01*
X30805Y-33702D01*
X30749Y-33835D01*
X30695Y-33703D01*
X30547Y-33555D01*
X30354Y-33475D01*
X30146Y-33474D01*
X29953Y-33554D01*
X29805Y-33702D01*
X29752Y-33828D01*
X29710Y-33727D01*
X29617Y-33702D01*
X29547Y-33773D01*
X29547Y-33632D01*
X29522Y-33539D01*
X29325Y-33470D01*
X29117Y-33481D01*
X28977Y-33539D01*
X28952Y-33632D01*
X29250Y-33929D01*
X29547Y-33632D01*
X29547Y-33773D01*
X29320Y-34000D01*
X29617Y-34297D01*
X29710Y-34272D01*
X29749Y-34162D01*
X29804Y-34297D01*
X29952Y-34444D01*
X30145Y-34524D01*
X30282Y-34525D01*
X30603Y-34846D01*
X30603Y-34846D01*
X30716Y-34921D01*
X30850Y-34948D01*
X33549Y-34948D01*
X33550Y-34948D01*
X33550Y-34948D01*
X33661Y-34926D01*
X33683Y-34921D01*
X33683Y-34921D01*
X33796Y-34846D01*
X34125Y-34516D01*
X34145Y-34524D01*
X34353Y-34525D01*
X34547Y-34445D01*
X34694Y-34297D01*
X34747Y-34171D01*
X34789Y-34272D01*
X34882Y-34297D01*
X35179Y-34000D01*
X35179Y-34141D01*
X34952Y-34367D01*
X34977Y-34460D01*
X35174Y-34529D01*
X35382Y-34518D01*
X35522Y-34460D01*
X35547Y-34367D01*
X35547Y-36554D01*
X35354Y-36475D01*
X35146Y-36474D01*
X34953Y-36554D01*
X34805Y-36702D01*
X34749Y-36835D01*
X34695Y-36703D01*
X34547Y-36555D01*
X34354Y-36475D01*
X34146Y-36474D01*
X33953Y-36554D01*
X33805Y-36702D01*
X33749Y-36835D01*
X33695Y-36703D01*
X33547Y-36555D01*
X33354Y-36475D01*
X33146Y-36474D01*
X32953Y-36554D01*
X32805Y-36702D01*
X32749Y-36835D01*
X32695Y-36703D01*
X32547Y-36555D01*
X32354Y-36475D01*
X32146Y-36474D01*
X31953Y-36554D01*
X31805Y-36702D01*
X31749Y-36835D01*
X31695Y-36703D01*
X31547Y-36555D01*
X31354Y-36475D01*
X31146Y-36474D01*
X30953Y-36554D01*
X30805Y-36702D01*
X30749Y-36835D01*
X30695Y-36703D01*
X30547Y-36555D01*
X30354Y-36475D01*
X30146Y-36474D01*
X29953Y-36554D01*
X29805Y-36702D01*
X29749Y-36835D01*
X29695Y-36703D01*
X29547Y-36555D01*
X29547Y-36554D01*
X29547Y-34367D01*
X29250Y-34070D01*
X29179Y-34141D01*
X29179Y-34000D01*
X28882Y-33702D01*
X28789Y-33727D01*
X28720Y-33924D01*
X28731Y-34132D01*
X28789Y-34272D01*
X28882Y-34297D01*
X29179Y-34000D01*
X29179Y-34141D01*
X28952Y-34367D01*
X28977Y-34460D01*
X29174Y-34529D01*
X29382Y-34518D01*
X29522Y-34460D01*
X29547Y-34367D01*
X29547Y-36554D01*
X29354Y-36475D01*
X29146Y-36474D01*
X28953Y-36554D01*
X28805Y-36702D01*
X28725Y-36895D01*
X28724Y-37103D01*
X28804Y-37297D01*
X28882Y-37374D01*
X28782Y-37475D01*
X28646Y-37474D01*
X28453Y-37554D01*
X28305Y-37702D01*
X28250Y-37833D01*
X28250Y-19231D01*
X31586Y-19231D01*
X31586Y-19321D01*
X31649Y-19383D01*
X32200Y-19383D01*
X32200Y-19375D01*
X32300Y-19375D01*
X32300Y-19383D01*
X32850Y-19383D01*
X32900Y-19334D01*
X32949Y-19383D01*
X33500Y-19383D01*
X33500Y-19375D01*
X33600Y-19375D01*
X33600Y-19383D01*
X34150Y-19383D01*
X34213Y-19321D01*
X34213Y-19231D01*
X36965Y-19231D01*
X36965Y-19436D01*
X36299Y-19436D01*
X36207Y-19474D01*
X36137Y-19545D01*
X36099Y-19636D01*
X36099Y-19722D01*
X36000Y-19703D01*
X35828Y-19737D01*
X35684Y-19834D01*
X35614Y-19903D01*
X35500Y-19903D01*
X35328Y-19937D01*
X35291Y-19962D01*
X35115Y-19962D01*
X35023Y-20000D01*
X34953Y-20070D01*
X34915Y-20162D01*
X34915Y-20261D01*
X34915Y-20537D01*
X34941Y-20600D01*
X34915Y-20662D01*
X34915Y-20672D01*
X34696Y-20453D01*
X34583Y-20378D01*
X34578Y-20377D01*
X34541Y-20339D01*
X34384Y-20275D01*
X34215Y-20274D01*
X34059Y-20339D01*
X34035Y-20363D01*
X33935Y-20214D01*
X33680Y-19959D01*
X34013Y-19959D01*
X34104Y-19921D01*
X34175Y-19851D01*
X34213Y-19759D01*
X34213Y-19659D01*
X34213Y-19546D01*
X34150Y-19483D01*
X33600Y-19483D01*
X33600Y-19491D01*
X33500Y-19491D01*
X33500Y-19483D01*
X32949Y-19483D01*
X32900Y-19532D01*
X32850Y-19483D01*
X32300Y-19483D01*
X32300Y-19491D01*
X32200Y-19491D01*
X32200Y-19483D01*
X31649Y-19483D01*
X31586Y-19546D01*
X31586Y-19654D01*
X29903Y-19654D01*
X29879Y-19595D01*
X29670Y-19386D01*
X29398Y-19273D01*
X29103Y-19273D01*
X28830Y-19386D01*
X28621Y-19594D01*
X28508Y-19867D01*
X28507Y-20162D01*
X28620Y-20435D01*
X28829Y-20644D01*
X29101Y-20757D01*
X29396Y-20758D01*
X29499Y-20715D01*
X29650Y-20745D01*
X31628Y-20745D01*
X31624Y-20748D01*
X31586Y-20840D01*
X31586Y-20940D01*
X31586Y-21388D01*
X29703Y-21388D01*
X29670Y-21355D01*
X29398Y-21242D01*
X29103Y-21241D01*
X28830Y-21354D01*
X28621Y-21563D01*
X28508Y-21835D01*
X28507Y-22131D01*
X28620Y-22404D01*
X28829Y-22613D01*
X29101Y-22726D01*
X29396Y-22726D01*
X29669Y-22613D01*
X29804Y-22479D01*
X32163Y-22479D01*
X32800Y-23115D01*
X32807Y-23120D01*
X32250Y-23120D01*
X32151Y-23140D01*
X31786Y-23140D01*
X31695Y-23178D01*
X31634Y-23239D01*
X31562Y-23253D01*
X31417Y-23350D01*
X30684Y-24084D01*
X30589Y-24225D01*
X30558Y-24238D01*
X30488Y-24308D01*
X30450Y-24400D01*
X30450Y-24499D01*
X30450Y-25099D01*
X30488Y-25191D01*
X30558Y-25261D01*
X30650Y-25300D01*
X30672Y-25300D01*
X30534Y-25438D01*
X30450Y-25640D01*
X30449Y-25858D01*
X30533Y-26061D01*
X30688Y-26215D01*
X30769Y-26249D01*
X30688Y-26283D01*
X30534Y-26438D01*
X30450Y-26640D01*
X30449Y-26858D01*
X30533Y-27061D01*
X30672Y-27200D01*
X30650Y-27200D01*
X30558Y-27238D01*
X30488Y-27308D01*
X30450Y-27400D01*
X30450Y-27499D01*
X30450Y-28099D01*
X30488Y-28191D01*
X30558Y-28261D01*
X30635Y-28294D01*
X30635Y-28294D01*
X30684Y-28365D01*
X31267Y-28949D01*
X31412Y-29046D01*
X31412Y-29046D01*
X31583Y-29080D01*
X31654Y-29080D01*
X31695Y-29121D01*
X31786Y-29159D01*
X31886Y-29159D01*
X32695Y-29159D01*
X32584Y-29234D01*
X31977Y-29840D01*
X31786Y-29840D01*
X31695Y-29878D01*
X31624Y-29948D01*
X31615Y-29970D01*
X30350Y-29970D01*
X30350Y-28641D01*
X30266Y-28438D01*
X30111Y-28284D01*
X30030Y-28250D01*
X30111Y-28216D01*
X30265Y-28061D01*
X30349Y-27859D01*
X30350Y-27641D01*
X30266Y-27438D01*
X30111Y-27284D01*
X30030Y-27250D01*
X30111Y-27216D01*
X30265Y-27061D01*
X30349Y-26859D01*
X30350Y-26641D01*
X30266Y-26438D01*
X30111Y-26284D01*
X30030Y-26250D01*
X30111Y-26216D01*
X30265Y-26061D01*
X30349Y-25859D01*
X30350Y-25641D01*
X30266Y-25438D01*
X30111Y-25284D01*
X30030Y-25250D01*
X30111Y-25216D01*
X30265Y-25061D01*
X30349Y-24859D01*
X30350Y-24641D01*
X30266Y-24438D01*
X30111Y-24284D01*
X30030Y-24250D01*
X30111Y-24216D01*
X30265Y-24061D01*
X30349Y-23859D01*
X30350Y-23641D01*
X30266Y-23438D01*
X30111Y-23284D01*
X29909Y-23200D01*
X29691Y-23199D01*
X29488Y-23283D01*
X29334Y-23438D01*
X29250Y-23640D01*
X29249Y-23858D01*
X29333Y-24061D01*
X29488Y-24215D01*
X29569Y-24249D01*
X29488Y-24283D01*
X29334Y-24438D01*
X29250Y-24640D01*
X29249Y-24858D01*
X29333Y-25061D01*
X29488Y-25215D01*
X29569Y-25249D01*
X29488Y-25283D01*
X29334Y-25438D01*
X29250Y-25640D01*
X29249Y-25858D01*
X29333Y-26061D01*
X29488Y-26215D01*
X29569Y-26249D01*
X29488Y-26283D01*
X29334Y-26438D01*
X29250Y-26640D01*
X29249Y-26858D01*
X29333Y-27061D01*
X29488Y-27215D01*
X29569Y-27249D01*
X29488Y-27283D01*
X29334Y-27438D01*
X29250Y-27640D01*
X29249Y-27858D01*
X29333Y-28061D01*
X29488Y-28215D01*
X29569Y-28249D01*
X29488Y-28283D01*
X29334Y-28438D01*
X29250Y-28640D01*
X29249Y-28858D01*
X29333Y-29061D01*
X29488Y-29215D01*
X29690Y-29299D01*
X29908Y-29300D01*
X30111Y-29216D01*
X30265Y-29061D01*
X30349Y-28859D01*
X30350Y-28641D01*
X30350Y-29970D01*
X29754Y-29970D01*
X29670Y-29886D01*
X29398Y-29773D01*
X29103Y-29773D01*
X28830Y-29886D01*
X28621Y-30094D01*
X28508Y-30367D01*
X28507Y-30662D01*
X28620Y-30935D01*
X28829Y-31144D01*
X29101Y-31257D01*
X29396Y-31258D01*
X29669Y-31145D01*
X29754Y-31061D01*
X31586Y-31061D01*
X31586Y-31459D01*
X31624Y-31551D01*
X31628Y-31554D01*
X29634Y-31554D01*
X29425Y-31596D01*
X29248Y-31714D01*
X29221Y-31742D01*
X29103Y-31741D01*
X28830Y-31854D01*
X28621Y-32063D01*
X28508Y-32335D01*
X28507Y-32631D01*
X28620Y-32904D01*
X28829Y-33113D01*
X29101Y-33226D01*
X29396Y-33226D01*
X29669Y-33113D01*
X29878Y-32905D01*
X29986Y-32645D01*
X31586Y-32645D01*
X31586Y-32753D01*
X31649Y-32816D01*
X32200Y-32816D01*
X32200Y-32808D01*
X32300Y-32808D01*
X32300Y-32816D01*
X32850Y-32816D01*
X32900Y-32767D01*
X32949Y-32816D01*
X33500Y-32816D01*
X33500Y-32808D01*
X33600Y-32808D01*
X33600Y-32816D01*
X34150Y-32816D01*
X34213Y-32753D01*
X34213Y-32640D01*
X34213Y-32540D01*
X34175Y-32448D01*
X34104Y-32378D01*
X34013Y-32340D01*
X33680Y-32340D01*
X33935Y-32085D01*
X34053Y-31908D01*
X34053Y-31908D01*
X34095Y-31700D01*
X34095Y-31625D01*
X34104Y-31621D01*
X34175Y-31551D01*
X34213Y-31459D01*
X34213Y-31359D01*
X34213Y-30808D01*
X34212Y-30807D01*
X34354Y-30778D01*
X34354Y-30778D01*
X34499Y-30682D01*
X34923Y-30258D01*
X34941Y-30299D01*
X34915Y-30362D01*
X34915Y-30461D01*
X34915Y-30624D01*
X34865Y-30624D01*
X34709Y-30689D01*
X34589Y-30808D01*
X34525Y-30965D01*
X34524Y-31134D01*
X34589Y-31290D01*
X34708Y-31410D01*
X34865Y-31474D01*
X34915Y-31474D01*
X34915Y-31737D01*
X34941Y-31799D01*
X34915Y-31862D01*
X34915Y-31961D01*
X34915Y-32237D01*
X34953Y-32329D01*
X35023Y-32399D01*
X35053Y-32411D01*
X35053Y-32550D01*
X35087Y-32721D01*
X35184Y-32865D01*
X35803Y-33485D01*
X35803Y-33543D01*
X35763Y-33583D01*
X35725Y-33675D01*
X35725Y-33762D01*
X35710Y-33727D01*
X35617Y-33702D01*
X35547Y-33773D01*
X35547Y-33632D01*
X35522Y-33539D01*
X35325Y-33470D01*
X35117Y-33481D01*
X34977Y-33539D01*
X34952Y-33632D01*
X35250Y-33929D01*
X35547Y-33632D01*
X35547Y-33773D01*
X35320Y-34000D01*
X35617Y-34297D01*
X35710Y-34272D01*
X35725Y-34231D01*
X35725Y-34324D01*
X35763Y-34416D01*
X35833Y-34486D01*
X35925Y-34525D01*
X36024Y-34525D01*
X36574Y-34525D01*
X36666Y-34486D01*
X36736Y-34416D01*
X36775Y-34324D01*
X36775Y-34225D01*
X36775Y-34225D01*
X36804Y-34297D01*
X36901Y-34394D01*
X36901Y-34499D01*
X36901Y-34500D01*
X36923Y-34611D01*
X36928Y-34633D01*
X37003Y-34746D01*
X37651Y-35394D01*
X37651Y-36659D01*
G54D10*
G36*
X47396Y-24261D02*
X47366Y-24188D01*
X47211Y-24034D01*
X47009Y-23950D01*
X46791Y-23949D01*
X46588Y-24033D01*
X46434Y-24188D01*
X46350Y-24390D01*
X46349Y-24608D01*
X46433Y-24811D01*
X46588Y-24965D01*
X46669Y-24999D01*
X46588Y-25033D01*
X46434Y-25188D01*
X46350Y-25390D01*
X46349Y-25608D01*
X46433Y-25811D01*
X46588Y-25965D01*
X46669Y-25999D01*
X46588Y-26033D01*
X46434Y-26188D01*
X46350Y-26390D01*
X46349Y-26608D01*
X46433Y-26811D01*
X46572Y-26950D01*
X46550Y-26950D01*
X46458Y-26988D01*
X46393Y-27053D01*
X46256Y-27053D01*
X46191Y-26988D01*
X46099Y-26950D01*
X46077Y-26950D01*
X46215Y-26811D01*
X46299Y-26609D01*
X46300Y-26391D01*
X46216Y-26188D01*
X46061Y-26034D01*
X45980Y-26000D01*
X46061Y-25966D01*
X46215Y-25811D01*
X46299Y-25609D01*
X46300Y-25391D01*
X46216Y-25188D01*
X46077Y-25050D01*
X46099Y-25050D01*
X46191Y-25011D01*
X46261Y-24941D01*
X46300Y-24849D01*
X46300Y-24750D01*
X46300Y-24150D01*
X46261Y-24058D01*
X46191Y-23988D01*
X46099Y-23950D01*
X46000Y-23950D01*
X45831Y-23950D01*
X45215Y-23334D01*
X45071Y-23237D01*
X44900Y-23203D01*
X44729Y-23203D01*
X44704Y-23178D01*
X44613Y-23140D01*
X44513Y-23140D01*
X43690Y-23140D01*
X44301Y-22529D01*
X45895Y-22529D01*
X45979Y-22613D01*
X46251Y-22726D01*
X46546Y-22726D01*
X46819Y-22613D01*
X47028Y-22405D01*
X47141Y-22132D01*
X47142Y-21837D01*
X47029Y-21564D01*
X46820Y-21355D01*
X46548Y-21242D01*
X46253Y-21241D01*
X45980Y-21354D01*
X45895Y-21438D01*
X44813Y-21438D01*
X44813Y-21392D01*
X44813Y-20840D01*
X44790Y-20785D01*
X46175Y-20785D01*
X46313Y-20757D01*
X46313Y-20757D01*
X46546Y-20758D01*
X46819Y-20645D01*
X47028Y-20436D01*
X47141Y-20164D01*
X47142Y-19868D01*
X47029Y-19595D01*
X46820Y-19386D01*
X46548Y-19273D01*
X46253Y-19273D01*
X45980Y-19386D01*
X45771Y-19594D01*
X45729Y-19694D01*
X44813Y-19694D01*
X44813Y-19659D01*
X44813Y-19546D01*
X44750Y-19483D01*
X44200Y-19483D01*
X44200Y-19491D01*
X44100Y-19491D01*
X44100Y-19483D01*
X43549Y-19483D01*
X43500Y-19532D01*
X43450Y-19483D01*
X42900Y-19483D01*
X42900Y-19896D01*
X42962Y-19959D01*
X43079Y-19959D01*
X42800Y-20238D01*
X42800Y-19896D01*
X42800Y-19483D01*
X42249Y-19483D01*
X42186Y-19546D01*
X42186Y-19659D01*
X42186Y-19759D01*
X42224Y-19851D01*
X42295Y-19921D01*
X42386Y-19959D01*
X42737Y-19959D01*
X42800Y-19896D01*
X42800Y-20238D01*
X42464Y-20574D01*
X42420Y-20640D01*
X42386Y-20640D01*
X42295Y-20678D01*
X42224Y-20748D01*
X42186Y-20840D01*
X42186Y-20940D01*
X42186Y-21491D01*
X42194Y-21509D01*
X42138Y-21521D01*
X41993Y-21617D01*
X41906Y-21705D01*
X41851Y-21650D01*
X41910Y-21591D01*
X41974Y-21434D01*
X41975Y-21265D01*
X41910Y-21109D01*
X41901Y-21100D01*
X41910Y-21091D01*
X41974Y-20934D01*
X41975Y-20765D01*
X41910Y-20609D01*
X41891Y-20590D01*
X42015Y-20465D01*
X42112Y-20321D01*
X42146Y-20150D01*
X42112Y-19978D01*
X42015Y-19834D01*
X41871Y-19737D01*
X41700Y-19703D01*
X41528Y-19737D01*
X41384Y-19834D01*
X41314Y-19903D01*
X40900Y-19903D01*
X40728Y-19937D01*
X40691Y-19962D01*
X40515Y-19962D01*
X40423Y-20000D01*
X40353Y-20070D01*
X40315Y-20162D01*
X40315Y-20261D01*
X40315Y-20537D01*
X40341Y-20599D01*
X40315Y-20662D01*
X40315Y-20761D01*
X40315Y-21037D01*
X40341Y-21099D01*
X40315Y-21162D01*
X40315Y-21261D01*
X40315Y-21537D01*
X40341Y-21599D01*
X40315Y-21662D01*
X40315Y-21761D01*
X40315Y-21925D01*
X40300Y-21931D01*
X40300Y-19636D01*
X40262Y-19545D01*
X40192Y-19474D01*
X40100Y-19436D01*
X40000Y-19436D01*
X39434Y-19436D01*
X39434Y-19231D01*
X42186Y-19231D01*
X42186Y-19321D01*
X42249Y-19383D01*
X42800Y-19383D01*
X42800Y-19375D01*
X42900Y-19375D01*
X42900Y-19383D01*
X43450Y-19383D01*
X43500Y-19334D01*
X43549Y-19383D01*
X44100Y-19383D01*
X44100Y-19375D01*
X44200Y-19375D01*
X44200Y-19383D01*
X44750Y-19383D01*
X44813Y-19321D01*
X44813Y-19231D01*
X47396Y-19231D01*
X47396Y-24261D01*
X47396Y-24261D01*
G37*
G54D27*
X47396Y-24261D02*
X47366Y-24188D01*
X47211Y-24034D01*
X47009Y-23950D01*
X46791Y-23949D01*
X46588Y-24033D01*
X46434Y-24188D01*
X46350Y-24390D01*
X46349Y-24608D01*
X46433Y-24811D01*
X46588Y-24965D01*
X46669Y-24999D01*
X46588Y-25033D01*
X46434Y-25188D01*
X46350Y-25390D01*
X46349Y-25608D01*
X46433Y-25811D01*
X46588Y-25965D01*
X46669Y-25999D01*
X46588Y-26033D01*
X46434Y-26188D01*
X46350Y-26390D01*
X46349Y-26608D01*
X46433Y-26811D01*
X46572Y-26950D01*
X46550Y-26950D01*
X46458Y-26988D01*
X46393Y-27053D01*
X46256Y-27053D01*
X46191Y-26988D01*
X46099Y-26950D01*
X46077Y-26950D01*
X46215Y-26811D01*
X46299Y-26609D01*
X46300Y-26391D01*
X46216Y-26188D01*
X46061Y-26034D01*
X45980Y-26000D01*
X46061Y-25966D01*
X46215Y-25811D01*
X46299Y-25609D01*
X46300Y-25391D01*
X46216Y-25188D01*
X46077Y-25050D01*
X46099Y-25050D01*
X46191Y-25011D01*
X46261Y-24941D01*
X46300Y-24849D01*
X46300Y-24750D01*
X46300Y-24150D01*
X46261Y-24058D01*
X46191Y-23988D01*
X46099Y-23950D01*
X46000Y-23950D01*
X45831Y-23950D01*
X45215Y-23334D01*
X45071Y-23237D01*
X44900Y-23203D01*
X44729Y-23203D01*
X44704Y-23178D01*
X44613Y-23140D01*
X44513Y-23140D01*
X43690Y-23140D01*
X44301Y-22529D01*
X45895Y-22529D01*
X45979Y-22613D01*
X46251Y-22726D01*
X46546Y-22726D01*
X46819Y-22613D01*
X47028Y-22405D01*
X47141Y-22132D01*
X47142Y-21837D01*
X47029Y-21564D01*
X46820Y-21355D01*
X46548Y-21242D01*
X46253Y-21241D01*
X45980Y-21354D01*
X45895Y-21438D01*
X44813Y-21438D01*
X44813Y-21392D01*
X44813Y-20840D01*
X44790Y-20785D01*
X46175Y-20785D01*
X46313Y-20757D01*
X46313Y-20757D01*
X46546Y-20758D01*
X46819Y-20645D01*
X47028Y-20436D01*
X47141Y-20164D01*
X47142Y-19868D01*
X47029Y-19595D01*
X46820Y-19386D01*
X46548Y-19273D01*
X46253Y-19273D01*
X45980Y-19386D01*
X45771Y-19594D01*
X45729Y-19694D01*
X44813Y-19694D01*
X44813Y-19659D01*
X44813Y-19546D01*
X44750Y-19483D01*
X44200Y-19483D01*
X44200Y-19491D01*
X44100Y-19491D01*
X44100Y-19483D01*
X43549Y-19483D01*
X43500Y-19532D01*
X43450Y-19483D01*
X42900Y-19483D01*
X42900Y-19896D01*
X42962Y-19959D01*
X43079Y-19959D01*
X42800Y-20238D01*
X42800Y-19896D01*
X42800Y-19483D01*
X42249Y-19483D01*
X42186Y-19546D01*
X42186Y-19659D01*
X42186Y-19759D01*
X42224Y-19851D01*
X42295Y-19921D01*
X42386Y-19959D01*
X42737Y-19959D01*
X42800Y-19896D01*
X42800Y-20238D01*
X42464Y-20574D01*
X42420Y-20640D01*
X42386Y-20640D01*
X42295Y-20678D01*
X42224Y-20748D01*
X42186Y-20840D01*
X42186Y-20940D01*
X42186Y-21491D01*
X42194Y-21509D01*
X42138Y-21521D01*
X41993Y-21617D01*
X41906Y-21705D01*
X41851Y-21650D01*
X41910Y-21591D01*
X41974Y-21434D01*
X41975Y-21265D01*
X41910Y-21109D01*
X41901Y-21100D01*
X41910Y-21091D01*
X41974Y-20934D01*
X41975Y-20765D01*
X41910Y-20609D01*
X41891Y-20590D01*
X42015Y-20465D01*
X42112Y-20321D01*
X42146Y-20150D01*
X42112Y-19978D01*
X42015Y-19834D01*
X41871Y-19737D01*
X41700Y-19703D01*
X41528Y-19737D01*
X41384Y-19834D01*
X41314Y-19903D01*
X40900Y-19903D01*
X40728Y-19937D01*
X40691Y-19962D01*
X40515Y-19962D01*
X40423Y-20000D01*
X40353Y-20070D01*
X40315Y-20162D01*
X40315Y-20261D01*
X40315Y-20537D01*
X40341Y-20599D01*
X40315Y-20662D01*
X40315Y-20761D01*
X40315Y-21037D01*
X40341Y-21099D01*
X40315Y-21162D01*
X40315Y-21261D01*
X40315Y-21537D01*
X40341Y-21599D01*
X40315Y-21662D01*
X40315Y-21761D01*
X40315Y-21925D01*
X40300Y-21931D01*
X40300Y-19636D01*
X40262Y-19545D01*
X40192Y-19474D01*
X40100Y-19436D01*
X40000Y-19436D01*
X39434Y-19436D01*
X39434Y-19231D01*
X42186Y-19231D01*
X42186Y-19321D01*
X42249Y-19383D01*
X42800Y-19383D01*
X42800Y-19375D01*
X42900Y-19375D01*
X42900Y-19383D01*
X43450Y-19383D01*
X43500Y-19334D01*
X43549Y-19383D01*
X44100Y-19383D01*
X44100Y-19375D01*
X44200Y-19375D01*
X44200Y-19383D01*
X44750Y-19383D01*
X44813Y-19321D01*
X44813Y-19231D01*
X47396Y-19231D01*
X47396Y-24261D01*
G54D10*
G36*
X47396Y-38377D02*
X47145Y-38377D01*
X47145Y-37561D01*
X47142Y-37424D01*
X47142Y-36007D01*
X47142Y-35908D01*
X47142Y-34923D01*
X47104Y-34832D01*
X47033Y-34761D01*
X46941Y-34723D01*
X46842Y-34723D01*
X45858Y-34723D01*
X45766Y-34761D01*
X45695Y-34832D01*
X45657Y-34923D01*
X45657Y-35023D01*
X45657Y-36007D01*
X45695Y-36099D01*
X45766Y-36169D01*
X45858Y-36207D01*
X45957Y-36207D01*
X46941Y-36207D01*
X47033Y-36169D01*
X47104Y-36099D01*
X47142Y-36007D01*
X47142Y-37424D01*
X47137Y-37266D01*
X47040Y-37030D01*
X46924Y-36980D01*
X46854Y-37050D01*
X46854Y-36909D01*
X46803Y-36794D01*
X46527Y-36688D01*
X46232Y-36696D01*
X45996Y-36794D01*
X45945Y-36909D01*
X46400Y-37363D01*
X46854Y-36909D01*
X46854Y-37050D01*
X46470Y-37434D01*
X46924Y-37888D01*
X47040Y-37837D01*
X47145Y-37561D01*
X47145Y-38377D01*
X46854Y-38377D01*
X46854Y-37959D01*
X46400Y-37504D01*
X46329Y-37575D01*
X46329Y-37434D01*
X45875Y-36980D01*
X45759Y-37030D01*
X45654Y-37306D01*
X45662Y-37601D01*
X45759Y-37837D01*
X45875Y-37888D01*
X46329Y-37434D01*
X46329Y-37575D01*
X45945Y-37959D01*
X45996Y-38074D01*
X46272Y-38180D01*
X46567Y-38172D01*
X46803Y-38074D01*
X46854Y-37959D01*
X46854Y-38377D01*
X45629Y-38377D01*
X45629Y-37875D01*
X45625Y-37787D01*
X45625Y-36696D01*
X45545Y-36503D01*
X45397Y-36355D01*
X45204Y-36275D01*
X44996Y-36274D01*
X44813Y-36350D01*
X44813Y-33291D01*
X44813Y-33192D01*
X44813Y-33078D01*
X44750Y-33016D01*
X44200Y-33016D01*
X44200Y-33429D01*
X44262Y-33491D01*
X44613Y-33491D01*
X44704Y-33453D01*
X44775Y-33383D01*
X44813Y-33291D01*
X44813Y-36350D01*
X44803Y-36354D01*
X44655Y-36502D01*
X44575Y-36695D01*
X44574Y-36903D01*
X44654Y-37097D01*
X44802Y-37244D01*
X44928Y-37297D01*
X44827Y-37339D01*
X44802Y-37432D01*
X45100Y-37729D01*
X45397Y-37432D01*
X45372Y-37339D01*
X45262Y-37300D01*
X45397Y-37245D01*
X45544Y-37097D01*
X45624Y-36904D01*
X45625Y-36696D01*
X45625Y-37787D01*
X45618Y-37667D01*
X45560Y-37527D01*
X45467Y-37502D01*
X45170Y-37800D01*
X45467Y-38097D01*
X45560Y-38072D01*
X45629Y-37875D01*
X45629Y-38377D01*
X45397Y-38377D01*
X45397Y-38167D01*
X45100Y-37870D01*
X45029Y-37941D01*
X45029Y-37800D01*
X44732Y-37502D01*
X44639Y-37527D01*
X44570Y-37724D01*
X44581Y-37932D01*
X44639Y-38072D01*
X44732Y-38097D01*
X45029Y-37800D01*
X45029Y-37941D01*
X44802Y-38167D01*
X44827Y-38260D01*
X45024Y-38329D01*
X45232Y-38318D01*
X45372Y-38260D01*
X45397Y-38167D01*
X45397Y-38377D01*
X44100Y-38377D01*
X44100Y-33429D01*
X44100Y-33016D01*
X43549Y-33016D01*
X43500Y-33065D01*
X43450Y-33016D01*
X42900Y-33016D01*
X42900Y-33429D01*
X42962Y-33491D01*
X43313Y-33491D01*
X43404Y-33453D01*
X43475Y-33383D01*
X43500Y-33323D01*
X43524Y-33383D01*
X43595Y-33453D01*
X43686Y-33491D01*
X44037Y-33491D01*
X44100Y-33429D01*
X44100Y-38377D01*
X42800Y-38377D01*
X42800Y-33429D01*
X42800Y-33016D01*
X42800Y-32916D01*
X42800Y-32503D01*
X42737Y-32440D01*
X42386Y-32440D01*
X42295Y-32478D01*
X42224Y-32548D01*
X42186Y-32640D01*
X42186Y-32740D01*
X42186Y-32853D01*
X42249Y-32916D01*
X42800Y-32916D01*
X42800Y-33016D01*
X42249Y-33016D01*
X42186Y-33078D01*
X42186Y-33192D01*
X42186Y-33291D01*
X42224Y-33383D01*
X42295Y-33453D01*
X42386Y-33491D01*
X42737Y-33491D01*
X42800Y-33429D01*
X42800Y-38377D01*
X41514Y-38377D01*
X41644Y-38247D01*
X41691Y-38134D01*
X41802Y-38244D01*
X41995Y-38324D01*
X42203Y-38325D01*
X42397Y-38245D01*
X42544Y-38097D01*
X42624Y-37904D01*
X42625Y-37696D01*
X42545Y-37503D01*
X42397Y-37355D01*
X42264Y-37299D01*
X42397Y-37245D01*
X42544Y-37097D01*
X42624Y-36904D01*
X42625Y-36696D01*
X42545Y-36503D01*
X42397Y-36355D01*
X42204Y-36275D01*
X41996Y-36274D01*
X41803Y-36354D01*
X41725Y-36432D01*
X41725Y-34846D01*
X41645Y-34653D01*
X41497Y-34505D01*
X41304Y-34425D01*
X41096Y-34424D01*
X40903Y-34504D01*
X40755Y-34652D01*
X40699Y-34785D01*
X40645Y-34653D01*
X40497Y-34505D01*
X40304Y-34425D01*
X40096Y-34424D01*
X39903Y-34504D01*
X39755Y-34652D01*
X39675Y-34845D01*
X39674Y-35053D01*
X39754Y-35247D01*
X39902Y-35394D01*
X40095Y-35474D01*
X40303Y-35475D01*
X40497Y-35395D01*
X40644Y-35247D01*
X40700Y-35114D01*
X40754Y-35247D01*
X40902Y-35394D01*
X41095Y-35474D01*
X41303Y-35475D01*
X41497Y-35395D01*
X41644Y-35247D01*
X41724Y-35054D01*
X41725Y-34846D01*
X41725Y-36432D01*
X41655Y-36502D01*
X41575Y-36695D01*
X41574Y-36903D01*
X41654Y-37097D01*
X41802Y-37244D01*
X41935Y-37300D01*
X41803Y-37354D01*
X41655Y-37502D01*
X41608Y-37615D01*
X41497Y-37505D01*
X41304Y-37425D01*
X41096Y-37424D01*
X40903Y-37504D01*
X40755Y-37652D01*
X40699Y-37785D01*
X40645Y-37653D01*
X40497Y-37505D01*
X40304Y-37425D01*
X40096Y-37424D01*
X39903Y-37504D01*
X39755Y-37652D01*
X39675Y-37845D01*
X39674Y-38053D01*
X39754Y-38247D01*
X39884Y-38377D01*
X39650Y-38377D01*
X39650Y-36499D01*
X39650Y-36262D01*
X39650Y-36037D01*
X39650Y-35800D01*
X39611Y-35708D01*
X39541Y-35638D01*
X39449Y-35600D01*
X39350Y-35600D01*
X39112Y-35600D01*
X39050Y-35662D01*
X39050Y-36100D01*
X39587Y-36100D01*
X39650Y-36037D01*
X39650Y-36262D01*
X39587Y-36200D01*
X39050Y-36200D01*
X39050Y-36637D01*
X39112Y-36700D01*
X39350Y-36700D01*
X39449Y-36700D01*
X39541Y-36661D01*
X39611Y-36591D01*
X39650Y-36499D01*
X39650Y-38377D01*
X39288Y-38377D01*
X39300Y-38349D01*
X39300Y-38250D01*
X39300Y-38112D01*
X39300Y-37887D01*
X39300Y-37749D01*
X39300Y-37650D01*
X39261Y-37558D01*
X39191Y-37488D01*
X39099Y-37450D01*
X38950Y-37450D01*
X38950Y-36637D01*
X38950Y-36200D01*
X38950Y-36100D01*
X38950Y-35662D01*
X38887Y-35600D01*
X38649Y-35600D01*
X38550Y-35600D01*
X38458Y-35638D01*
X38388Y-35708D01*
X38350Y-35800D01*
X38350Y-36037D01*
X38412Y-36100D01*
X38950Y-36100D01*
X38950Y-36200D01*
X38412Y-36200D01*
X38350Y-36262D01*
X38350Y-36499D01*
X38388Y-36591D01*
X38458Y-36661D01*
X38550Y-36700D01*
X38649Y-36700D01*
X38887Y-36700D01*
X38950Y-36637D01*
X38950Y-37450D01*
X38862Y-37450D01*
X38800Y-37512D01*
X38800Y-37950D01*
X39237Y-37950D01*
X39300Y-37887D01*
X39300Y-38112D01*
X39237Y-38050D01*
X38800Y-38050D01*
X38800Y-38057D01*
X38700Y-38057D01*
X38700Y-38050D01*
X38692Y-38050D01*
X38692Y-37950D01*
X38700Y-37950D01*
X38700Y-37512D01*
X38637Y-37450D01*
X38400Y-37450D01*
X38308Y-37488D01*
X38238Y-37558D01*
X38200Y-37650D01*
X38200Y-37714D01*
X38195Y-37703D01*
X38117Y-37625D01*
X38246Y-37496D01*
X38246Y-37496D01*
X38246Y-37496D01*
X38296Y-37420D01*
X38321Y-37383D01*
X38321Y-37383D01*
X38348Y-37250D01*
X38348Y-37250D01*
X38348Y-37249D01*
X38348Y-35250D01*
X38348Y-35250D01*
X38348Y-35250D01*
X38326Y-35138D01*
X38321Y-35116D01*
X38321Y-35116D01*
X38246Y-35003D01*
X38246Y-35003D01*
X38246Y-35003D01*
X37617Y-34374D01*
X37694Y-34297D01*
X37774Y-34104D01*
X37775Y-33896D01*
X37695Y-33703D01*
X37547Y-33555D01*
X37497Y-33534D01*
X38933Y-33534D01*
X38684Y-33784D01*
X38587Y-33928D01*
X38553Y-34100D01*
X38553Y-34300D01*
X38550Y-34300D01*
X38458Y-34338D01*
X38388Y-34408D01*
X38350Y-34500D01*
X38350Y-34599D01*
X38350Y-35199D01*
X38388Y-35291D01*
X38458Y-35361D01*
X38550Y-35400D01*
X38649Y-35400D01*
X39449Y-35400D01*
X39541Y-35361D01*
X39611Y-35291D01*
X39650Y-35199D01*
X39650Y-35100D01*
X39650Y-34500D01*
X39611Y-34408D01*
X39541Y-34338D01*
X39449Y-34300D01*
X39446Y-34300D01*
X39446Y-34285D01*
X40135Y-33596D01*
X40850Y-33596D01*
X41021Y-33562D01*
X41165Y-33465D01*
X41262Y-33321D01*
X41296Y-33150D01*
X41296Y-32432D01*
X41376Y-32399D01*
X41446Y-32329D01*
X41484Y-32237D01*
X41484Y-32138D01*
X41484Y-31862D01*
X41458Y-31800D01*
X41484Y-31737D01*
X41484Y-31662D01*
X41422Y-31600D01*
X40950Y-31600D01*
X40950Y-31607D01*
X40923Y-31607D01*
X40900Y-31603D01*
X40876Y-31607D01*
X40850Y-31607D01*
X40850Y-31600D01*
X40377Y-31600D01*
X40315Y-31662D01*
X40315Y-31737D01*
X40341Y-31799D01*
X40315Y-31862D01*
X40315Y-31961D01*
X40315Y-32237D01*
X40353Y-32329D01*
X40403Y-32379D01*
X40403Y-32703D01*
X40300Y-32703D01*
X40300Y-32663D01*
X40300Y-31474D01*
X40352Y-31475D01*
X40377Y-31500D01*
X40850Y-31500D01*
X40850Y-31492D01*
X40950Y-31492D01*
X40950Y-31500D01*
X41422Y-31500D01*
X41484Y-31437D01*
X41484Y-31362D01*
X41458Y-31300D01*
X41484Y-31237D01*
X41484Y-31138D01*
X41484Y-30974D01*
X41584Y-30975D01*
X41740Y-30910D01*
X41860Y-30791D01*
X41918Y-30650D01*
X42050Y-30782D01*
X42195Y-30878D01*
X42195Y-30878D01*
X42198Y-30879D01*
X42186Y-30908D01*
X42186Y-31007D01*
X42186Y-31559D01*
X42224Y-31651D01*
X42295Y-31721D01*
X42386Y-31759D01*
X42413Y-31759D01*
X42464Y-31835D01*
X43069Y-32440D01*
X42962Y-32440D01*
X42900Y-32503D01*
X42900Y-32916D01*
X43450Y-32916D01*
X43500Y-32867D01*
X43549Y-32916D01*
X44100Y-32916D01*
X44100Y-32908D01*
X44200Y-32908D01*
X44200Y-32916D01*
X44750Y-32916D01*
X44813Y-32853D01*
X44813Y-32745D01*
X45746Y-32745D01*
X45770Y-32804D01*
X45979Y-33013D01*
X46251Y-33126D01*
X46546Y-33126D01*
X46819Y-33013D01*
X47028Y-32805D01*
X47141Y-32532D01*
X47142Y-32237D01*
X47029Y-31964D01*
X46820Y-31755D01*
X46548Y-31642D01*
X46253Y-31641D01*
X46220Y-31655D01*
X46215Y-31654D01*
X44771Y-31654D01*
X44775Y-31651D01*
X44813Y-31559D01*
X44813Y-31459D01*
X44813Y-31011D01*
X45946Y-31011D01*
X45979Y-31044D01*
X46251Y-31157D01*
X46546Y-31158D01*
X46819Y-31045D01*
X47028Y-30836D01*
X47141Y-30564D01*
X47142Y-30268D01*
X47029Y-29995D01*
X46820Y-29786D01*
X46548Y-29673D01*
X46253Y-29673D01*
X45980Y-29786D01*
X45845Y-29920D01*
X44352Y-29920D01*
X43765Y-29334D01*
X43683Y-29279D01*
X44150Y-29279D01*
X44248Y-29259D01*
X44613Y-29259D01*
X44704Y-29221D01*
X44775Y-29151D01*
X44813Y-29059D01*
X44813Y-29051D01*
X44813Y-29051D01*
X44865Y-29015D01*
X45831Y-28050D01*
X46099Y-28050D01*
X46191Y-28011D01*
X46256Y-27946D01*
X46393Y-27946D01*
X46458Y-28011D01*
X46550Y-28050D01*
X46649Y-28050D01*
X47249Y-28050D01*
X47341Y-28011D01*
X47396Y-27957D01*
X47396Y-38377D01*
X47396Y-38377D01*
G37*
G54D27*
X47396Y-38377D02*
X47145Y-38377D01*
X47145Y-37561D01*
X47142Y-37424D01*
X47142Y-36007D01*
X47142Y-35908D01*
X47142Y-34923D01*
X47104Y-34832D01*
X47033Y-34761D01*
X46941Y-34723D01*
X46842Y-34723D01*
X45858Y-34723D01*
X45766Y-34761D01*
X45695Y-34832D01*
X45657Y-34923D01*
X45657Y-35023D01*
X45657Y-36007D01*
X45695Y-36099D01*
X45766Y-36169D01*
X45858Y-36207D01*
X45957Y-36207D01*
X46941Y-36207D01*
X47033Y-36169D01*
X47104Y-36099D01*
X47142Y-36007D01*
X47142Y-37424D01*
X47137Y-37266D01*
X47040Y-37030D01*
X46924Y-36980D01*
X46854Y-37050D01*
X46854Y-36909D01*
X46803Y-36794D01*
X46527Y-36688D01*
X46232Y-36696D01*
X45996Y-36794D01*
X45945Y-36909D01*
X46400Y-37363D01*
X46854Y-36909D01*
X46854Y-37050D01*
X46470Y-37434D01*
X46924Y-37888D01*
X47040Y-37837D01*
X47145Y-37561D01*
X47145Y-38377D01*
X46854Y-38377D01*
X46854Y-37959D01*
X46400Y-37504D01*
X46329Y-37575D01*
X46329Y-37434D01*
X45875Y-36980D01*
X45759Y-37030D01*
X45654Y-37306D01*
X45662Y-37601D01*
X45759Y-37837D01*
X45875Y-37888D01*
X46329Y-37434D01*
X46329Y-37575D01*
X45945Y-37959D01*
X45996Y-38074D01*
X46272Y-38180D01*
X46567Y-38172D01*
X46803Y-38074D01*
X46854Y-37959D01*
X46854Y-38377D01*
X45629Y-38377D01*
X45629Y-37875D01*
X45625Y-37787D01*
X45625Y-36696D01*
X45545Y-36503D01*
X45397Y-36355D01*
X45204Y-36275D01*
X44996Y-36274D01*
X44813Y-36350D01*
X44813Y-33291D01*
X44813Y-33192D01*
X44813Y-33078D01*
X44750Y-33016D01*
X44200Y-33016D01*
X44200Y-33429D01*
X44262Y-33491D01*
X44613Y-33491D01*
X44704Y-33453D01*
X44775Y-33383D01*
X44813Y-33291D01*
X44813Y-36350D01*
X44803Y-36354D01*
X44655Y-36502D01*
X44575Y-36695D01*
X44574Y-36903D01*
X44654Y-37097D01*
X44802Y-37244D01*
X44928Y-37297D01*
X44827Y-37339D01*
X44802Y-37432D01*
X45100Y-37729D01*
X45397Y-37432D01*
X45372Y-37339D01*
X45262Y-37300D01*
X45397Y-37245D01*
X45544Y-37097D01*
X45624Y-36904D01*
X45625Y-36696D01*
X45625Y-37787D01*
X45618Y-37667D01*
X45560Y-37527D01*
X45467Y-37502D01*
X45170Y-37800D01*
X45467Y-38097D01*
X45560Y-38072D01*
X45629Y-37875D01*
X45629Y-38377D01*
X45397Y-38377D01*
X45397Y-38167D01*
X45100Y-37870D01*
X45029Y-37941D01*
X45029Y-37800D01*
X44732Y-37502D01*
X44639Y-37527D01*
X44570Y-37724D01*
X44581Y-37932D01*
X44639Y-38072D01*
X44732Y-38097D01*
X45029Y-37800D01*
X45029Y-37941D01*
X44802Y-38167D01*
X44827Y-38260D01*
X45024Y-38329D01*
X45232Y-38318D01*
X45372Y-38260D01*
X45397Y-38167D01*
X45397Y-38377D01*
X44100Y-38377D01*
X44100Y-33429D01*
X44100Y-33016D01*
X43549Y-33016D01*
X43500Y-33065D01*
X43450Y-33016D01*
X42900Y-33016D01*
X42900Y-33429D01*
X42962Y-33491D01*
X43313Y-33491D01*
X43404Y-33453D01*
X43475Y-33383D01*
X43500Y-33323D01*
X43524Y-33383D01*
X43595Y-33453D01*
X43686Y-33491D01*
X44037Y-33491D01*
X44100Y-33429D01*
X44100Y-38377D01*
X42800Y-38377D01*
X42800Y-33429D01*
X42800Y-33016D01*
X42800Y-32916D01*
X42800Y-32503D01*
X42737Y-32440D01*
X42386Y-32440D01*
X42295Y-32478D01*
X42224Y-32548D01*
X42186Y-32640D01*
X42186Y-32740D01*
X42186Y-32853D01*
X42249Y-32916D01*
X42800Y-32916D01*
X42800Y-33016D01*
X42249Y-33016D01*
X42186Y-33078D01*
X42186Y-33192D01*
X42186Y-33291D01*
X42224Y-33383D01*
X42295Y-33453D01*
X42386Y-33491D01*
X42737Y-33491D01*
X42800Y-33429D01*
X42800Y-38377D01*
X41514Y-38377D01*
X41644Y-38247D01*
X41691Y-38134D01*
X41802Y-38244D01*
X41995Y-38324D01*
X42203Y-38325D01*
X42397Y-38245D01*
X42544Y-38097D01*
X42624Y-37904D01*
X42625Y-37696D01*
X42545Y-37503D01*
X42397Y-37355D01*
X42264Y-37299D01*
X42397Y-37245D01*
X42544Y-37097D01*
X42624Y-36904D01*
X42625Y-36696D01*
X42545Y-36503D01*
X42397Y-36355D01*
X42204Y-36275D01*
X41996Y-36274D01*
X41803Y-36354D01*
X41725Y-36432D01*
X41725Y-34846D01*
X41645Y-34653D01*
X41497Y-34505D01*
X41304Y-34425D01*
X41096Y-34424D01*
X40903Y-34504D01*
X40755Y-34652D01*
X40699Y-34785D01*
X40645Y-34653D01*
X40497Y-34505D01*
X40304Y-34425D01*
X40096Y-34424D01*
X39903Y-34504D01*
X39755Y-34652D01*
X39675Y-34845D01*
X39674Y-35053D01*
X39754Y-35247D01*
X39902Y-35394D01*
X40095Y-35474D01*
X40303Y-35475D01*
X40497Y-35395D01*
X40644Y-35247D01*
X40700Y-35114D01*
X40754Y-35247D01*
X40902Y-35394D01*
X41095Y-35474D01*
X41303Y-35475D01*
X41497Y-35395D01*
X41644Y-35247D01*
X41724Y-35054D01*
X41725Y-34846D01*
X41725Y-36432D01*
X41655Y-36502D01*
X41575Y-36695D01*
X41574Y-36903D01*
X41654Y-37097D01*
X41802Y-37244D01*
X41935Y-37300D01*
X41803Y-37354D01*
X41655Y-37502D01*
X41608Y-37615D01*
X41497Y-37505D01*
X41304Y-37425D01*
X41096Y-37424D01*
X40903Y-37504D01*
X40755Y-37652D01*
X40699Y-37785D01*
X40645Y-37653D01*
X40497Y-37505D01*
X40304Y-37425D01*
X40096Y-37424D01*
X39903Y-37504D01*
X39755Y-37652D01*
X39675Y-37845D01*
X39674Y-38053D01*
X39754Y-38247D01*
X39884Y-38377D01*
X39650Y-38377D01*
X39650Y-36499D01*
X39650Y-36262D01*
X39650Y-36037D01*
X39650Y-35800D01*
X39611Y-35708D01*
X39541Y-35638D01*
X39449Y-35600D01*
X39350Y-35600D01*
X39112Y-35600D01*
X39050Y-35662D01*
X39050Y-36100D01*
X39587Y-36100D01*
X39650Y-36037D01*
X39650Y-36262D01*
X39587Y-36200D01*
X39050Y-36200D01*
X39050Y-36637D01*
X39112Y-36700D01*
X39350Y-36700D01*
X39449Y-36700D01*
X39541Y-36661D01*
X39611Y-36591D01*
X39650Y-36499D01*
X39650Y-38377D01*
X39288Y-38377D01*
X39300Y-38349D01*
X39300Y-38250D01*
X39300Y-38112D01*
X39300Y-37887D01*
X39300Y-37749D01*
X39300Y-37650D01*
X39261Y-37558D01*
X39191Y-37488D01*
X39099Y-37450D01*
X38950Y-37450D01*
X38950Y-36637D01*
X38950Y-36200D01*
X38950Y-36100D01*
X38950Y-35662D01*
X38887Y-35600D01*
X38649Y-35600D01*
X38550Y-35600D01*
X38458Y-35638D01*
X38388Y-35708D01*
X38350Y-35800D01*
X38350Y-36037D01*
X38412Y-36100D01*
X38950Y-36100D01*
X38950Y-36200D01*
X38412Y-36200D01*
X38350Y-36262D01*
X38350Y-36499D01*
X38388Y-36591D01*
X38458Y-36661D01*
X38550Y-36700D01*
X38649Y-36700D01*
X38887Y-36700D01*
X38950Y-36637D01*
X38950Y-37450D01*
X38862Y-37450D01*
X38800Y-37512D01*
X38800Y-37950D01*
X39237Y-37950D01*
X39300Y-37887D01*
X39300Y-38112D01*
X39237Y-38050D01*
X38800Y-38050D01*
X38800Y-38057D01*
X38700Y-38057D01*
X38700Y-38050D01*
X38692Y-38050D01*
X38692Y-37950D01*
X38700Y-37950D01*
X38700Y-37512D01*
X38637Y-37450D01*
X38400Y-37450D01*
X38308Y-37488D01*
X38238Y-37558D01*
X38200Y-37650D01*
X38200Y-37714D01*
X38195Y-37703D01*
X38117Y-37625D01*
X38246Y-37496D01*
X38246Y-37496D01*
X38246Y-37496D01*
X38296Y-37420D01*
X38321Y-37383D01*
X38321Y-37383D01*
X38348Y-37250D01*
X38348Y-37250D01*
X38348Y-37249D01*
X38348Y-35250D01*
X38348Y-35250D01*
X38348Y-35250D01*
X38326Y-35138D01*
X38321Y-35116D01*
X38321Y-35116D01*
X38246Y-35003D01*
X38246Y-35003D01*
X38246Y-35003D01*
X37617Y-34374D01*
X37694Y-34297D01*
X37774Y-34104D01*
X37775Y-33896D01*
X37695Y-33703D01*
X37547Y-33555D01*
X37497Y-33534D01*
X38933Y-33534D01*
X38684Y-33784D01*
X38587Y-33928D01*
X38553Y-34100D01*
X38553Y-34300D01*
X38550Y-34300D01*
X38458Y-34338D01*
X38388Y-34408D01*
X38350Y-34500D01*
X38350Y-34599D01*
X38350Y-35199D01*
X38388Y-35291D01*
X38458Y-35361D01*
X38550Y-35400D01*
X38649Y-35400D01*
X39449Y-35400D01*
X39541Y-35361D01*
X39611Y-35291D01*
X39650Y-35199D01*
X39650Y-35100D01*
X39650Y-34500D01*
X39611Y-34408D01*
X39541Y-34338D01*
X39449Y-34300D01*
X39446Y-34300D01*
X39446Y-34285D01*
X40135Y-33596D01*
X40850Y-33596D01*
X41021Y-33562D01*
X41165Y-33465D01*
X41262Y-33321D01*
X41296Y-33150D01*
X41296Y-32432D01*
X41376Y-32399D01*
X41446Y-32329D01*
X41484Y-32237D01*
X41484Y-32138D01*
X41484Y-31862D01*
X41458Y-31800D01*
X41484Y-31737D01*
X41484Y-31662D01*
X41422Y-31600D01*
X40950Y-31600D01*
X40950Y-31607D01*
X40923Y-31607D01*
X40900Y-31603D01*
X40876Y-31607D01*
X40850Y-31607D01*
X40850Y-31600D01*
X40377Y-31600D01*
X40315Y-31662D01*
X40315Y-31737D01*
X40341Y-31799D01*
X40315Y-31862D01*
X40315Y-31961D01*
X40315Y-32237D01*
X40353Y-32329D01*
X40403Y-32379D01*
X40403Y-32703D01*
X40300Y-32703D01*
X40300Y-32663D01*
X40300Y-31474D01*
X40352Y-31475D01*
X40377Y-31500D01*
X40850Y-31500D01*
X40850Y-31492D01*
X40950Y-31492D01*
X40950Y-31500D01*
X41422Y-31500D01*
X41484Y-31437D01*
X41484Y-31362D01*
X41458Y-31300D01*
X41484Y-31237D01*
X41484Y-31138D01*
X41484Y-30974D01*
X41584Y-30975D01*
X41740Y-30910D01*
X41860Y-30791D01*
X41918Y-30650D01*
X42050Y-30782D01*
X42195Y-30878D01*
X42195Y-30878D01*
X42198Y-30879D01*
X42186Y-30908D01*
X42186Y-31007D01*
X42186Y-31559D01*
X42224Y-31651D01*
X42295Y-31721D01*
X42386Y-31759D01*
X42413Y-31759D01*
X42464Y-31835D01*
X43069Y-32440D01*
X42962Y-32440D01*
X42900Y-32503D01*
X42900Y-32916D01*
X43450Y-32916D01*
X43500Y-32867D01*
X43549Y-32916D01*
X44100Y-32916D01*
X44100Y-32908D01*
X44200Y-32908D01*
X44200Y-32916D01*
X44750Y-32916D01*
X44813Y-32853D01*
X44813Y-32745D01*
X45746Y-32745D01*
X45770Y-32804D01*
X45979Y-33013D01*
X46251Y-33126D01*
X46546Y-33126D01*
X46819Y-33013D01*
X47028Y-32805D01*
X47141Y-32532D01*
X47142Y-32237D01*
X47029Y-31964D01*
X46820Y-31755D01*
X46548Y-31642D01*
X46253Y-31641D01*
X46220Y-31655D01*
X46215Y-31654D01*
X44771Y-31654D01*
X44775Y-31651D01*
X44813Y-31559D01*
X44813Y-31459D01*
X44813Y-31011D01*
X45946Y-31011D01*
X45979Y-31044D01*
X46251Y-31157D01*
X46546Y-31158D01*
X46819Y-31045D01*
X47028Y-30836D01*
X47141Y-30564D01*
X47142Y-30268D01*
X47029Y-29995D01*
X46820Y-29786D01*
X46548Y-29673D01*
X46253Y-29673D01*
X45980Y-29786D01*
X45845Y-29920D01*
X44352Y-29920D01*
X43765Y-29334D01*
X43683Y-29279D01*
X44150Y-29279D01*
X44248Y-29259D01*
X44613Y-29259D01*
X44704Y-29221D01*
X44775Y-29151D01*
X44813Y-29059D01*
X44813Y-29051D01*
X44813Y-29051D01*
X44865Y-29015D01*
X45831Y-28050D01*
X46099Y-28050D01*
X46191Y-28011D01*
X46256Y-27946D01*
X46393Y-27946D01*
X46458Y-28011D01*
X46550Y-28050D01*
X46649Y-28050D01*
X47249Y-28050D01*
X47341Y-28011D01*
X47396Y-27957D01*
X47396Y-38377D01*
M02*
