G04 (created by PCBNEW (2013-mar-13)-testing) date Thu 06 Mar 2014 12:46:27 CET*
%MOIN*%
G04 Gerber Fmt 3.4, Leading zero omitted, Abs format*
%FSLAX34Y34*%
G01*
G70*
G90*
G04 APERTURE LIST*
%ADD10C,0.005906*%
%ADD11C,0.011811*%
%ADD12C,0.015000*%
%ADD13C,0.005000*%
%ADD14C,0.012000*%
%ADD15C,0.006000*%
%ADD16C,0.008000*%
%ADD17C,0.010000*%
%ADD18C,0.011250*%
%ADD19C,0.010700*%
G04 APERTURE END LIST*
G54D10*
G54D11*
X40181Y-33604D02*
X40125Y-33576D01*
X40041Y-33576D01*
X39956Y-33604D01*
X39900Y-33660D01*
X39872Y-33717D01*
X39844Y-33829D01*
X39844Y-33914D01*
X39872Y-34026D01*
X39900Y-34082D01*
X39956Y-34139D01*
X40041Y-34167D01*
X40097Y-34167D01*
X40181Y-34139D01*
X40209Y-34110D01*
X40209Y-33914D01*
X40097Y-33914D01*
X40715Y-33773D02*
X40715Y-34167D01*
X40462Y-33773D02*
X40462Y-34082D01*
X40491Y-34139D01*
X40547Y-34167D01*
X40631Y-34167D01*
X40687Y-34139D01*
X40715Y-34110D01*
X41250Y-34167D02*
X41250Y-33857D01*
X41222Y-33801D01*
X41165Y-33773D01*
X41053Y-33773D01*
X40997Y-33801D01*
X41250Y-34139D02*
X41194Y-34167D01*
X41053Y-34167D01*
X40997Y-34139D01*
X40969Y-34082D01*
X40969Y-34026D01*
X40997Y-33970D01*
X41053Y-33942D01*
X41194Y-33942D01*
X41250Y-33914D01*
X41503Y-34139D02*
X41559Y-34167D01*
X41672Y-34167D01*
X41728Y-34139D01*
X41756Y-34082D01*
X41756Y-34054D01*
X41728Y-33998D01*
X41672Y-33970D01*
X41587Y-33970D01*
X41531Y-33942D01*
X41503Y-33885D01*
X41503Y-33857D01*
X41531Y-33801D01*
X41587Y-33773D01*
X41672Y-33773D01*
X41728Y-33801D01*
X42262Y-34139D02*
X42206Y-34167D01*
X42093Y-34167D01*
X42037Y-34139D01*
X42009Y-34110D01*
X41981Y-34054D01*
X41981Y-33885D01*
X42009Y-33829D01*
X42037Y-33801D01*
X42093Y-33773D01*
X42206Y-33773D01*
X42262Y-33801D01*
X42515Y-34167D02*
X42515Y-33576D01*
X42768Y-34167D02*
X42768Y-33857D01*
X42740Y-33801D01*
X42684Y-33773D01*
X42600Y-33773D01*
X42543Y-33801D01*
X42515Y-33829D01*
X43331Y-33576D02*
X43050Y-33576D01*
X43021Y-33857D01*
X43050Y-33829D01*
X43106Y-33801D01*
X43246Y-33801D01*
X43303Y-33829D01*
X43331Y-33857D01*
X43359Y-33914D01*
X43359Y-34054D01*
X43331Y-34110D01*
X43303Y-34139D01*
X43246Y-34167D01*
X43106Y-34167D01*
X43050Y-34139D01*
X43021Y-34110D01*
X43724Y-33576D02*
X43781Y-33576D01*
X43837Y-33604D01*
X43865Y-33632D01*
X43893Y-33689D01*
X43921Y-33801D01*
X43921Y-33942D01*
X43893Y-34054D01*
X43865Y-34110D01*
X43837Y-34139D01*
X43781Y-34167D01*
X43724Y-34167D01*
X43668Y-34139D01*
X43640Y-34110D01*
X43612Y-34054D01*
X43584Y-33942D01*
X43584Y-33801D01*
X43612Y-33689D01*
X43640Y-33632D01*
X43668Y-33604D01*
X43724Y-33576D01*
X44287Y-33576D02*
X44343Y-33576D01*
X44399Y-33604D01*
X44428Y-33632D01*
X44456Y-33689D01*
X44484Y-33801D01*
X44484Y-33942D01*
X44456Y-34054D01*
X44428Y-34110D01*
X44399Y-34139D01*
X44343Y-34167D01*
X44287Y-34167D01*
X44231Y-34139D01*
X44203Y-34110D01*
X44174Y-34054D01*
X44146Y-33942D01*
X44146Y-33801D01*
X44174Y-33689D01*
X44203Y-33632D01*
X44231Y-33604D01*
X44287Y-33576D01*
X44849Y-33576D02*
X44906Y-33576D01*
X44962Y-33604D01*
X44990Y-33632D01*
X45018Y-33689D01*
X45046Y-33801D01*
X45046Y-33942D01*
X45018Y-34054D01*
X44990Y-34110D01*
X44962Y-34139D01*
X44906Y-34167D01*
X44849Y-34167D01*
X44793Y-34139D01*
X44765Y-34110D01*
X44737Y-34054D01*
X44709Y-33942D01*
X44709Y-33801D01*
X44737Y-33689D01*
X44765Y-33632D01*
X44793Y-33604D01*
X44849Y-33576D01*
X45299Y-34110D02*
X45327Y-34139D01*
X45299Y-34167D01*
X45271Y-34139D01*
X45299Y-34110D01*
X45299Y-34167D01*
X45834Y-34139D02*
X45777Y-34167D01*
X45665Y-34167D01*
X45609Y-34139D01*
X45580Y-34110D01*
X45552Y-34054D01*
X45552Y-33885D01*
X45580Y-33829D01*
X45609Y-33801D01*
X45665Y-33773D01*
X45777Y-33773D01*
X45834Y-33801D01*
X46171Y-34167D02*
X46115Y-34139D01*
X46087Y-34110D01*
X46059Y-34054D01*
X46059Y-33885D01*
X46087Y-33829D01*
X46115Y-33801D01*
X46171Y-33773D01*
X46255Y-33773D01*
X46312Y-33801D01*
X46340Y-33829D01*
X46368Y-33885D01*
X46368Y-34054D01*
X46340Y-34110D01*
X46312Y-34139D01*
X46255Y-34167D01*
X46171Y-34167D01*
X46621Y-34167D02*
X46621Y-33773D01*
X46621Y-33829D02*
X46649Y-33801D01*
X46705Y-33773D01*
X46790Y-33773D01*
X46846Y-33801D01*
X46874Y-33857D01*
X46874Y-34167D01*
X46874Y-33857D02*
X46902Y-33801D01*
X46958Y-33773D01*
X47043Y-33773D01*
X47099Y-33801D01*
X47127Y-33857D01*
X47127Y-34167D01*
X41981Y-35112D02*
X41981Y-34521D01*
X42178Y-34943D01*
X42375Y-34521D01*
X42375Y-35112D01*
X42740Y-35112D02*
X42684Y-35083D01*
X42656Y-35055D01*
X42628Y-34999D01*
X42628Y-34830D01*
X42656Y-34774D01*
X42684Y-34746D01*
X42740Y-34718D01*
X42825Y-34718D01*
X42881Y-34746D01*
X42909Y-34774D01*
X42937Y-34830D01*
X42937Y-34999D01*
X42909Y-35055D01*
X42881Y-35083D01*
X42825Y-35112D01*
X42740Y-35112D01*
X43106Y-34718D02*
X43331Y-34718D01*
X43190Y-34521D02*
X43190Y-35027D01*
X43218Y-35083D01*
X43275Y-35112D01*
X43331Y-35112D01*
X43612Y-35112D02*
X43556Y-35083D01*
X43528Y-35055D01*
X43500Y-34999D01*
X43500Y-34830D01*
X43528Y-34774D01*
X43556Y-34746D01*
X43612Y-34718D01*
X43696Y-34718D01*
X43753Y-34746D01*
X43781Y-34774D01*
X43809Y-34830D01*
X43809Y-34999D01*
X43781Y-35055D01*
X43753Y-35083D01*
X43696Y-35112D01*
X43612Y-35112D01*
X44062Y-35112D02*
X44062Y-34718D01*
X44062Y-34830D02*
X44090Y-34774D01*
X44118Y-34746D01*
X44174Y-34718D01*
X44231Y-34718D01*
X44428Y-35112D02*
X44428Y-34521D01*
X44652Y-34521D01*
X44709Y-34549D01*
X44737Y-34577D01*
X44765Y-34633D01*
X44765Y-34718D01*
X44737Y-34774D01*
X44709Y-34802D01*
X44652Y-34830D01*
X44428Y-34830D01*
X45018Y-35112D02*
X45018Y-34718D01*
X45018Y-34521D02*
X44990Y-34549D01*
X45018Y-34577D01*
X45046Y-34549D01*
X45018Y-34521D01*
X45018Y-34577D01*
X42600Y-35466D02*
X42796Y-36056D01*
X42993Y-35466D01*
X43303Y-35466D02*
X43359Y-35466D01*
X43415Y-35494D01*
X43443Y-35522D01*
X43471Y-35578D01*
X43500Y-35691D01*
X43500Y-35831D01*
X43471Y-35944D01*
X43443Y-36000D01*
X43415Y-36028D01*
X43359Y-36056D01*
X43303Y-36056D01*
X43246Y-36028D01*
X43218Y-36000D01*
X43190Y-35944D01*
X43162Y-35831D01*
X43162Y-35691D01*
X43190Y-35578D01*
X43218Y-35522D01*
X43246Y-35494D01*
X43303Y-35466D01*
X43753Y-36000D02*
X43781Y-36028D01*
X43753Y-36056D01*
X43724Y-36028D01*
X43753Y-36000D01*
X43753Y-36056D01*
X44146Y-35466D02*
X44203Y-35466D01*
X44259Y-35494D01*
X44287Y-35522D01*
X44315Y-35578D01*
X44343Y-35691D01*
X44343Y-35831D01*
X44315Y-35944D01*
X44287Y-36000D01*
X44259Y-36028D01*
X44203Y-36056D01*
X44146Y-36056D01*
X44090Y-36028D01*
X44062Y-36000D01*
X44034Y-35944D01*
X44006Y-35831D01*
X44006Y-35691D01*
X44034Y-35578D01*
X44062Y-35522D01*
X44090Y-35494D01*
X44146Y-35466D01*
G54D10*
X42250Y-20700D02*
X43450Y-20700D01*
X42250Y-21000D02*
X42250Y-19600D01*
X42250Y-19600D02*
X43450Y-19600D01*
X43450Y-19600D02*
X43450Y-21000D01*
X43450Y-21000D02*
X42250Y-21000D01*
X42250Y-23200D02*
X43450Y-23200D01*
X42250Y-23500D02*
X42250Y-22100D01*
X42250Y-22100D02*
X43450Y-22100D01*
X43450Y-22100D02*
X43450Y-23500D01*
X43450Y-23500D02*
X42250Y-23500D01*
X32850Y-31600D02*
X31650Y-31600D01*
X32850Y-31300D02*
X32850Y-32700D01*
X32850Y-32700D02*
X31650Y-32700D01*
X31650Y-32700D02*
X31650Y-31300D01*
X31650Y-31300D02*
X32850Y-31300D01*
X32850Y-29100D02*
X31650Y-29100D01*
X32850Y-28800D02*
X32850Y-30200D01*
X32850Y-30200D02*
X31650Y-30200D01*
X31650Y-30200D02*
X31650Y-28800D01*
X31650Y-28800D02*
X32850Y-28800D01*
X43550Y-20700D02*
X44750Y-20700D01*
X43550Y-21000D02*
X43550Y-19600D01*
X43550Y-19600D02*
X44750Y-19600D01*
X44750Y-19600D02*
X44750Y-21000D01*
X44750Y-21000D02*
X43550Y-21000D01*
X43550Y-23200D02*
X44750Y-23200D01*
X43550Y-23500D02*
X43550Y-22100D01*
X43550Y-22100D02*
X44750Y-22100D01*
X44750Y-22100D02*
X44750Y-23500D01*
X44750Y-23500D02*
X43550Y-23500D01*
X34150Y-31600D02*
X32950Y-31600D01*
X34150Y-31300D02*
X34150Y-32700D01*
X34150Y-32700D02*
X32950Y-32700D01*
X32950Y-32700D02*
X32950Y-31300D01*
X32950Y-31300D02*
X34150Y-31300D01*
X34150Y-29100D02*
X32950Y-29100D01*
X34150Y-28800D02*
X34150Y-30200D01*
X34150Y-30200D02*
X32950Y-30200D01*
X32950Y-30200D02*
X32950Y-28800D01*
X32950Y-28800D02*
X34150Y-28800D01*
X44750Y-31700D02*
X43550Y-31700D01*
X44750Y-31400D02*
X44750Y-32800D01*
X44750Y-32800D02*
X43550Y-32800D01*
X43550Y-32800D02*
X43550Y-31400D01*
X43550Y-31400D02*
X44750Y-31400D01*
X44750Y-29200D02*
X43550Y-29200D01*
X44750Y-28900D02*
X44750Y-30300D01*
X44750Y-30300D02*
X43550Y-30300D01*
X43550Y-30300D02*
X43550Y-28900D01*
X43550Y-28900D02*
X44750Y-28900D01*
X31650Y-20700D02*
X32850Y-20700D01*
X31650Y-21000D02*
X31650Y-19600D01*
X31650Y-19600D02*
X32850Y-19600D01*
X32850Y-19600D02*
X32850Y-21000D01*
X32850Y-21000D02*
X31650Y-21000D01*
X31650Y-23200D02*
X32850Y-23200D01*
X31650Y-23500D02*
X31650Y-22100D01*
X31650Y-22100D02*
X32850Y-22100D01*
X32850Y-22100D02*
X32850Y-23500D01*
X32850Y-23500D02*
X31650Y-23500D01*
X43450Y-31700D02*
X42250Y-31700D01*
X43450Y-31400D02*
X43450Y-32800D01*
X43450Y-32800D02*
X42250Y-32800D01*
X42250Y-32800D02*
X42250Y-31400D01*
X42250Y-31400D02*
X43450Y-31400D01*
X43450Y-29200D02*
X42250Y-29200D01*
X43450Y-28900D02*
X43450Y-30300D01*
X43450Y-30300D02*
X42250Y-30300D01*
X42250Y-30300D02*
X42250Y-28900D01*
X42250Y-28900D02*
X43450Y-28900D01*
X32950Y-20700D02*
X34150Y-20700D01*
X32950Y-21000D02*
X32950Y-19600D01*
X32950Y-19600D02*
X34150Y-19600D01*
X34150Y-19600D02*
X34150Y-21000D01*
X34150Y-21000D02*
X32950Y-21000D01*
X32950Y-23200D02*
X34150Y-23200D01*
X32950Y-23500D02*
X32950Y-22100D01*
X32950Y-22100D02*
X34150Y-22100D01*
X34150Y-22100D02*
X34150Y-23500D01*
X34150Y-23500D02*
X32950Y-23500D01*
G54D12*
X38250Y-36000D02*
X37750Y-36000D01*
X37750Y-36000D02*
X37750Y-35000D01*
X37750Y-35000D02*
X38250Y-35000D01*
X38250Y-36500D02*
X28250Y-36500D01*
X28250Y-36500D02*
X28250Y-34500D01*
X28250Y-34500D02*
X38250Y-34500D01*
X38250Y-34500D02*
X38250Y-36500D01*
G54D10*
X40400Y-26500D02*
X40400Y-33100D01*
X40400Y-33100D02*
X36000Y-33100D01*
X36000Y-33100D02*
X36000Y-26800D01*
X36000Y-26800D02*
X36300Y-26500D01*
X36300Y-26500D02*
X40400Y-26500D01*
X36000Y-25900D02*
X36000Y-19300D01*
X36000Y-19300D02*
X40400Y-19300D01*
X40400Y-19300D02*
X40400Y-25600D01*
X40400Y-25600D02*
X40100Y-25900D01*
X40100Y-25900D02*
X36000Y-25900D01*
G54D13*
X43300Y-24150D02*
X42400Y-24150D01*
X42400Y-24150D02*
X42400Y-24800D01*
X43300Y-25500D02*
X43300Y-26150D01*
X43300Y-26150D02*
X42400Y-26150D01*
X42400Y-26150D02*
X42400Y-25500D01*
X43300Y-24800D02*
X43300Y-24150D01*
G54D14*
X38250Y-37500D02*
X38250Y-38500D01*
X38250Y-38500D02*
X28250Y-38500D01*
X28250Y-38500D02*
X28250Y-37500D01*
X28250Y-37500D02*
X38250Y-37500D01*
X37250Y-37500D02*
X37250Y-38500D01*
G54D15*
X47400Y-28000D02*
X46400Y-28000D01*
X46400Y-28000D02*
X46400Y-26000D01*
X46400Y-26000D02*
X47400Y-26000D01*
X47400Y-26000D02*
X47400Y-28000D01*
G54D13*
X34000Y-24150D02*
X33100Y-24150D01*
X33100Y-24150D02*
X33100Y-24800D01*
X34000Y-25500D02*
X34000Y-26150D01*
X34000Y-26150D02*
X33100Y-26150D01*
X33100Y-26150D02*
X33100Y-25500D01*
X34000Y-24800D02*
X34000Y-24150D01*
X33100Y-28250D02*
X34000Y-28250D01*
X34000Y-28250D02*
X34000Y-27600D01*
X33100Y-26900D02*
X33100Y-26250D01*
X33100Y-26250D02*
X34000Y-26250D01*
X34000Y-26250D02*
X34000Y-26900D01*
X33100Y-27600D02*
X33100Y-28250D01*
X42400Y-28250D02*
X43300Y-28250D01*
X43300Y-28250D02*
X43300Y-27600D01*
X42400Y-26900D02*
X42400Y-26250D01*
X42400Y-26250D02*
X43300Y-26250D01*
X43300Y-26250D02*
X43300Y-26900D01*
X42400Y-27600D02*
X42400Y-28250D01*
X43700Y-26150D02*
X44600Y-26150D01*
X44600Y-26150D02*
X44600Y-25500D01*
X43700Y-24800D02*
X43700Y-24150D01*
X43700Y-24150D02*
X44600Y-24150D01*
X44600Y-24150D02*
X44600Y-24800D01*
X43700Y-25500D02*
X43700Y-26150D01*
X31800Y-26150D02*
X32700Y-26150D01*
X32700Y-26150D02*
X32700Y-25500D01*
X31800Y-24800D02*
X31800Y-24150D01*
X31800Y-24150D02*
X32700Y-24150D01*
X32700Y-24150D02*
X32700Y-24800D01*
X31800Y-25500D02*
X31800Y-26150D01*
X44600Y-26250D02*
X43700Y-26250D01*
X43700Y-26250D02*
X43700Y-26900D01*
X44600Y-27600D02*
X44600Y-28250D01*
X44600Y-28250D02*
X43700Y-28250D01*
X43700Y-28250D02*
X43700Y-27600D01*
X44600Y-26900D02*
X44600Y-26250D01*
G54D16*
X42100Y-37800D02*
X42300Y-37800D01*
X45100Y-37800D02*
X44900Y-37800D01*
X44900Y-37800D02*
X44900Y-37400D01*
X44900Y-37400D02*
X42300Y-37400D01*
X42300Y-37400D02*
X42300Y-38200D01*
X42300Y-38200D02*
X44900Y-38200D01*
X44900Y-38200D02*
X44900Y-37800D01*
X42300Y-37600D02*
X42500Y-37400D01*
X42100Y-36800D02*
X42300Y-36800D01*
X45100Y-36800D02*
X44900Y-36800D01*
X44900Y-36800D02*
X44900Y-36400D01*
X44900Y-36400D02*
X42300Y-36400D01*
X42300Y-36400D02*
X42300Y-37200D01*
X42300Y-37200D02*
X44900Y-37200D01*
X44900Y-37200D02*
X44900Y-36800D01*
X42300Y-36600D02*
X42500Y-36400D01*
X41200Y-34950D02*
X41200Y-35150D01*
X41200Y-37950D02*
X41200Y-37750D01*
X41200Y-37750D02*
X41600Y-37750D01*
X41600Y-37750D02*
X41600Y-35150D01*
X41600Y-35150D02*
X40800Y-35150D01*
X40800Y-35150D02*
X40800Y-37750D01*
X40800Y-37750D02*
X41200Y-37750D01*
X41400Y-35150D02*
X41600Y-35350D01*
G54D13*
X32700Y-26250D02*
X31800Y-26250D01*
X31800Y-26250D02*
X31800Y-26900D01*
X32700Y-27600D02*
X32700Y-28250D01*
X32700Y-28250D02*
X31800Y-28250D01*
X31800Y-28250D02*
X31800Y-27600D01*
X32700Y-26900D02*
X32700Y-26250D01*
G54D16*
X40200Y-37950D02*
X40200Y-37750D01*
X40200Y-34950D02*
X40200Y-35150D01*
X40200Y-35150D02*
X39800Y-35150D01*
X39800Y-35150D02*
X39800Y-37750D01*
X39800Y-37750D02*
X40600Y-37750D01*
X40600Y-37750D02*
X40600Y-35150D01*
X40600Y-35150D02*
X40200Y-35150D01*
X40000Y-37750D02*
X39800Y-37550D01*
G54D10*
X29250Y-31007D02*
X29250Y-30023D01*
X29742Y-30515D02*
X28757Y-30515D01*
X29742Y-32484D02*
X28757Y-32484D01*
X29250Y-31992D02*
X29250Y-32976D01*
X29780Y-30515D02*
G75*
G03X29780Y-30515I-530J0D01*
G74*
G01*
X29742Y-32484D02*
G75*
G03X29742Y-32484I-492J0D01*
G74*
G01*
X28462Y-29531D02*
X28167Y-29531D01*
X28167Y-29531D02*
X28167Y-29629D01*
X28167Y-29629D02*
X28265Y-29728D01*
X28265Y-29728D02*
X28265Y-31303D01*
X28265Y-31303D02*
X28167Y-31401D01*
X28167Y-31401D02*
X28167Y-31598D01*
X28167Y-31598D02*
X28265Y-31696D01*
X28265Y-31696D02*
X28265Y-33271D01*
X28265Y-33271D02*
X28167Y-33370D01*
X28167Y-33370D02*
X28167Y-33468D01*
X28167Y-33468D02*
X28462Y-33468D01*
X28462Y-33468D02*
X28659Y-33271D01*
X28659Y-33271D02*
X29840Y-33271D01*
X29840Y-33271D02*
X30037Y-33468D01*
X30037Y-33468D02*
X29840Y-33271D01*
X29840Y-33271D02*
X29840Y-29728D01*
X29840Y-29728D02*
X30037Y-29531D01*
X30037Y-29531D02*
X29840Y-29728D01*
X29840Y-29728D02*
X28659Y-29728D01*
X28659Y-29728D02*
X28462Y-29531D01*
X28462Y-29531D02*
X28659Y-29728D01*
X28659Y-29728D02*
X28659Y-33271D01*
X30037Y-29531D02*
X30037Y-33468D01*
X30037Y-33468D02*
X28462Y-33468D01*
X28462Y-33468D02*
X28462Y-29531D01*
X28462Y-29531D02*
X30037Y-29531D01*
X46400Y-31892D02*
X46400Y-32876D01*
X45907Y-32384D02*
X46892Y-32384D01*
X45907Y-30415D02*
X46892Y-30415D01*
X46400Y-30907D02*
X46400Y-29923D01*
X46930Y-32384D02*
G75*
G03X46930Y-32384I-530J0D01*
G74*
G01*
X46892Y-30415D02*
G75*
G03X46892Y-30415I-492J0D01*
G74*
G01*
X47187Y-33368D02*
X47482Y-33368D01*
X47482Y-33368D02*
X47482Y-33270D01*
X47482Y-33270D02*
X47384Y-33171D01*
X47384Y-33171D02*
X47384Y-31596D01*
X47384Y-31596D02*
X47482Y-31498D01*
X47482Y-31498D02*
X47482Y-31301D01*
X47482Y-31301D02*
X47384Y-31203D01*
X47384Y-31203D02*
X47384Y-29628D01*
X47384Y-29628D02*
X47482Y-29529D01*
X47482Y-29529D02*
X47482Y-29431D01*
X47482Y-29431D02*
X47187Y-29431D01*
X47187Y-29431D02*
X46990Y-29628D01*
X46990Y-29628D02*
X45809Y-29628D01*
X45809Y-29628D02*
X45612Y-29431D01*
X45612Y-29431D02*
X45809Y-29628D01*
X45809Y-29628D02*
X45809Y-33171D01*
X45809Y-33171D02*
X45612Y-33368D01*
X45612Y-33368D02*
X45809Y-33171D01*
X45809Y-33171D02*
X46990Y-33171D01*
X46990Y-33171D02*
X47187Y-33368D01*
X47187Y-33368D02*
X46990Y-33171D01*
X46990Y-33171D02*
X46990Y-29628D01*
X45612Y-33368D02*
X45612Y-29431D01*
X45612Y-29431D02*
X47187Y-29431D01*
X47187Y-29431D02*
X47187Y-33368D01*
X47187Y-33368D02*
X45612Y-33368D01*
X46400Y-21492D02*
X46400Y-22476D01*
X45907Y-21984D02*
X46892Y-21984D01*
X45907Y-20015D02*
X46892Y-20015D01*
X46400Y-20507D02*
X46400Y-19523D01*
X46930Y-21984D02*
G75*
G03X46930Y-21984I-530J0D01*
G74*
G01*
X46892Y-20015D02*
G75*
G03X46892Y-20015I-492J0D01*
G74*
G01*
X47187Y-22968D02*
X47482Y-22968D01*
X47482Y-22968D02*
X47482Y-22870D01*
X47482Y-22870D02*
X47384Y-22771D01*
X47384Y-22771D02*
X47384Y-21196D01*
X47384Y-21196D02*
X47482Y-21098D01*
X47482Y-21098D02*
X47482Y-20901D01*
X47482Y-20901D02*
X47384Y-20803D01*
X47384Y-20803D02*
X47384Y-19228D01*
X47384Y-19228D02*
X47482Y-19129D01*
X47482Y-19129D02*
X47482Y-19031D01*
X47482Y-19031D02*
X47187Y-19031D01*
X47187Y-19031D02*
X46990Y-19228D01*
X46990Y-19228D02*
X45809Y-19228D01*
X45809Y-19228D02*
X45612Y-19031D01*
X45612Y-19031D02*
X45809Y-19228D01*
X45809Y-19228D02*
X45809Y-22771D01*
X45809Y-22771D02*
X45612Y-22968D01*
X45612Y-22968D02*
X45809Y-22771D01*
X45809Y-22771D02*
X46990Y-22771D01*
X46990Y-22771D02*
X47187Y-22968D01*
X47187Y-22968D02*
X46990Y-22771D01*
X46990Y-22771D02*
X46990Y-19228D01*
X45612Y-22968D02*
X45612Y-19031D01*
X45612Y-19031D02*
X47187Y-19031D01*
X47187Y-19031D02*
X47187Y-22968D01*
X47187Y-22968D02*
X45612Y-22968D01*
X29250Y-20507D02*
X29250Y-19523D01*
X29742Y-20015D02*
X28757Y-20015D01*
X29742Y-21984D02*
X28757Y-21984D01*
X29250Y-21492D02*
X29250Y-22476D01*
X29780Y-20015D02*
G75*
G03X29780Y-20015I-530J0D01*
G74*
G01*
X29742Y-21984D02*
G75*
G03X29742Y-21984I-492J0D01*
G74*
G01*
X28462Y-19031D02*
X28167Y-19031D01*
X28167Y-19031D02*
X28167Y-19129D01*
X28167Y-19129D02*
X28265Y-19228D01*
X28265Y-19228D02*
X28265Y-20803D01*
X28265Y-20803D02*
X28167Y-20901D01*
X28167Y-20901D02*
X28167Y-21098D01*
X28167Y-21098D02*
X28265Y-21196D01*
X28265Y-21196D02*
X28265Y-22771D01*
X28265Y-22771D02*
X28167Y-22870D01*
X28167Y-22870D02*
X28167Y-22968D01*
X28167Y-22968D02*
X28462Y-22968D01*
X28462Y-22968D02*
X28659Y-22771D01*
X28659Y-22771D02*
X29840Y-22771D01*
X29840Y-22771D02*
X30037Y-22968D01*
X30037Y-22968D02*
X29840Y-22771D01*
X29840Y-22771D02*
X29840Y-19228D01*
X29840Y-19228D02*
X30037Y-19031D01*
X30037Y-19031D02*
X29840Y-19228D01*
X29840Y-19228D02*
X28659Y-19228D01*
X28659Y-19228D02*
X28462Y-19031D01*
X28462Y-19031D02*
X28659Y-19228D01*
X28659Y-19228D02*
X28659Y-22771D01*
X30037Y-19031D02*
X30037Y-22968D01*
X30037Y-22968D02*
X28462Y-22968D01*
X28462Y-22968D02*
X28462Y-19031D01*
X28462Y-19031D02*
X30037Y-19031D01*
G54D15*
X46400Y-24000D02*
X47400Y-24000D01*
X47400Y-24000D02*
X47400Y-26000D01*
X47400Y-26000D02*
X46400Y-26000D01*
X46400Y-26000D02*
X46400Y-24000D01*
G54D14*
X29300Y-23250D02*
X30300Y-23250D01*
X30300Y-23250D02*
X30300Y-29250D01*
X30300Y-29250D02*
X29300Y-29250D01*
X29300Y-29250D02*
X29300Y-23250D01*
X29300Y-24250D02*
X30300Y-24250D01*
G54D17*
X45250Y-28000D02*
X45250Y-24000D01*
X46250Y-28000D02*
X46250Y-24000D01*
X46250Y-24000D02*
X45250Y-24000D01*
X45250Y-28000D02*
X46250Y-28000D01*
X31500Y-24250D02*
X31500Y-28250D01*
X30500Y-24250D02*
X30500Y-28250D01*
X30500Y-28250D02*
X31500Y-28250D01*
X31500Y-24250D02*
X30500Y-24250D01*
G54D13*
X39450Y-34500D02*
X38550Y-34500D01*
X38550Y-34500D02*
X38550Y-35150D01*
X39450Y-35850D02*
X39450Y-36500D01*
X39450Y-36500D02*
X38550Y-36500D01*
X38550Y-36500D02*
X38550Y-35850D01*
X39450Y-35150D02*
X39450Y-34500D01*
G54D10*
X46400Y-36942D02*
X46400Y-37926D01*
X45907Y-37434D02*
X46892Y-37434D01*
X45907Y-35465D02*
X46892Y-35465D01*
X46400Y-35957D02*
X46400Y-34973D01*
X46930Y-37434D02*
G75*
G03X46930Y-37434I-530J0D01*
G74*
G01*
X46892Y-35465D02*
G75*
G03X46892Y-35465I-492J0D01*
G74*
G01*
X47187Y-38418D02*
X47482Y-38418D01*
X47482Y-38418D02*
X47482Y-38320D01*
X47482Y-38320D02*
X47384Y-38221D01*
X47384Y-38221D02*
X47384Y-36646D01*
X47384Y-36646D02*
X47482Y-36548D01*
X47482Y-36548D02*
X47482Y-36351D01*
X47482Y-36351D02*
X47384Y-36253D01*
X47384Y-36253D02*
X47384Y-34678D01*
X47384Y-34678D02*
X47482Y-34579D01*
X47482Y-34579D02*
X47482Y-34481D01*
X47482Y-34481D02*
X47187Y-34481D01*
X47187Y-34481D02*
X46990Y-34678D01*
X46990Y-34678D02*
X45809Y-34678D01*
X45809Y-34678D02*
X45612Y-34481D01*
X45612Y-34481D02*
X45809Y-34678D01*
X45809Y-34678D02*
X45809Y-38221D01*
X45809Y-38221D02*
X45612Y-38418D01*
X45612Y-38418D02*
X45809Y-38221D01*
X45809Y-38221D02*
X46990Y-38221D01*
X46990Y-38221D02*
X47187Y-38418D01*
X47187Y-38418D02*
X46990Y-38221D01*
X46990Y-38221D02*
X46990Y-34678D01*
X45612Y-38418D02*
X45612Y-34481D01*
X45612Y-34481D02*
X47187Y-34481D01*
X47187Y-34481D02*
X47187Y-38418D01*
X47187Y-38418D02*
X45612Y-38418D01*
G54D15*
X39250Y-38500D02*
X38250Y-38500D01*
X38250Y-37500D02*
X39250Y-37500D01*
X38250Y-38500D02*
X38250Y-37500D01*
X39250Y-37500D02*
X39250Y-38500D01*
G54D10*
X42559Y-20478D02*
X42559Y-20084D01*
X42653Y-20084D01*
X42709Y-20103D01*
X42746Y-20140D01*
X42765Y-20178D01*
X42784Y-20253D01*
X42784Y-20309D01*
X42765Y-20384D01*
X42746Y-20421D01*
X42709Y-20459D01*
X42653Y-20478D01*
X42559Y-20478D01*
X43159Y-20478D02*
X42934Y-20478D01*
X43046Y-20478D02*
X43046Y-20084D01*
X43009Y-20140D01*
X42971Y-20178D01*
X42934Y-20196D01*
X42559Y-22928D02*
X42559Y-22534D01*
X42653Y-22534D01*
X42709Y-22553D01*
X42746Y-22590D01*
X42765Y-22628D01*
X42784Y-22703D01*
X42784Y-22759D01*
X42765Y-22834D01*
X42746Y-22871D01*
X42709Y-22909D01*
X42653Y-22928D01*
X42559Y-22928D01*
X42934Y-22571D02*
X42953Y-22553D01*
X42990Y-22534D01*
X43084Y-22534D01*
X43121Y-22553D01*
X43140Y-22571D01*
X43159Y-22609D01*
X43159Y-22646D01*
X43140Y-22703D01*
X42915Y-22928D01*
X43159Y-22928D01*
X31909Y-32278D02*
X31909Y-31884D01*
X32003Y-31884D01*
X32059Y-31903D01*
X32096Y-31940D01*
X32115Y-31978D01*
X32134Y-32053D01*
X32134Y-32109D01*
X32115Y-32184D01*
X32096Y-32221D01*
X32059Y-32259D01*
X32003Y-32278D01*
X31909Y-32278D01*
X32265Y-31884D02*
X32509Y-31884D01*
X32378Y-32034D01*
X32434Y-32034D01*
X32471Y-32053D01*
X32490Y-32071D01*
X32509Y-32109D01*
X32509Y-32203D01*
X32490Y-32240D01*
X32471Y-32259D01*
X32434Y-32278D01*
X32321Y-32278D01*
X32284Y-32259D01*
X32265Y-32240D01*
X31959Y-29728D02*
X31959Y-29334D01*
X32053Y-29334D01*
X32109Y-29353D01*
X32146Y-29390D01*
X32165Y-29428D01*
X32184Y-29503D01*
X32184Y-29559D01*
X32165Y-29634D01*
X32146Y-29671D01*
X32109Y-29709D01*
X32053Y-29728D01*
X31959Y-29728D01*
X32521Y-29465D02*
X32521Y-29728D01*
X32428Y-29315D02*
X32334Y-29596D01*
X32578Y-29596D01*
X43809Y-20478D02*
X43809Y-20084D01*
X43903Y-20084D01*
X43959Y-20103D01*
X43996Y-20140D01*
X44015Y-20178D01*
X44034Y-20253D01*
X44034Y-20309D01*
X44015Y-20384D01*
X43996Y-20421D01*
X43959Y-20459D01*
X43903Y-20478D01*
X43809Y-20478D01*
X44390Y-20084D02*
X44203Y-20084D01*
X44184Y-20271D01*
X44203Y-20253D01*
X44240Y-20234D01*
X44334Y-20234D01*
X44371Y-20253D01*
X44390Y-20271D01*
X44409Y-20309D01*
X44409Y-20403D01*
X44390Y-20440D01*
X44371Y-20459D01*
X44334Y-20478D01*
X44240Y-20478D01*
X44203Y-20459D01*
X44184Y-20440D01*
X43859Y-22928D02*
X43859Y-22534D01*
X43953Y-22534D01*
X44009Y-22553D01*
X44046Y-22590D01*
X44065Y-22628D01*
X44084Y-22703D01*
X44084Y-22759D01*
X44065Y-22834D01*
X44046Y-22871D01*
X44009Y-22909D01*
X43953Y-22928D01*
X43859Y-22928D01*
X44421Y-22534D02*
X44346Y-22534D01*
X44309Y-22553D01*
X44290Y-22571D01*
X44253Y-22628D01*
X44234Y-22703D01*
X44234Y-22853D01*
X44253Y-22890D01*
X44271Y-22909D01*
X44309Y-22928D01*
X44384Y-22928D01*
X44421Y-22909D01*
X44440Y-22890D01*
X44459Y-22853D01*
X44459Y-22759D01*
X44440Y-22721D01*
X44421Y-22703D01*
X44384Y-22684D01*
X44309Y-22684D01*
X44271Y-22703D01*
X44253Y-22721D01*
X44234Y-22759D01*
X33209Y-32278D02*
X33209Y-31884D01*
X33303Y-31884D01*
X33359Y-31903D01*
X33396Y-31940D01*
X33415Y-31978D01*
X33434Y-32053D01*
X33434Y-32109D01*
X33415Y-32184D01*
X33396Y-32221D01*
X33359Y-32259D01*
X33303Y-32278D01*
X33209Y-32278D01*
X33565Y-31884D02*
X33828Y-31884D01*
X33659Y-32278D01*
X33259Y-28028D02*
X33259Y-27634D01*
X33353Y-27634D01*
X33409Y-27653D01*
X33446Y-27690D01*
X33465Y-27728D01*
X33484Y-27803D01*
X33484Y-27859D01*
X33465Y-27934D01*
X33446Y-27971D01*
X33409Y-28009D01*
X33353Y-28028D01*
X33259Y-28028D01*
X33709Y-27803D02*
X33671Y-27784D01*
X33653Y-27765D01*
X33634Y-27728D01*
X33634Y-27709D01*
X33653Y-27671D01*
X33671Y-27653D01*
X33709Y-27634D01*
X33784Y-27634D01*
X33821Y-27653D01*
X33840Y-27671D01*
X33859Y-27709D01*
X33859Y-27728D01*
X33840Y-27765D01*
X33821Y-27784D01*
X33784Y-27803D01*
X33709Y-27803D01*
X33671Y-27821D01*
X33653Y-27840D01*
X33634Y-27878D01*
X33634Y-27953D01*
X33653Y-27990D01*
X33671Y-28009D01*
X33709Y-28028D01*
X33784Y-28028D01*
X33821Y-28009D01*
X33840Y-27990D01*
X33859Y-27953D01*
X33859Y-27878D01*
X33840Y-27840D01*
X33821Y-27821D01*
X33784Y-27803D01*
X43809Y-32328D02*
X43809Y-31934D01*
X43903Y-31934D01*
X43959Y-31953D01*
X43996Y-31990D01*
X44015Y-32028D01*
X44034Y-32103D01*
X44034Y-32159D01*
X44015Y-32234D01*
X43996Y-32271D01*
X43959Y-32309D01*
X43903Y-32328D01*
X43809Y-32328D01*
X44221Y-32328D02*
X44296Y-32328D01*
X44334Y-32309D01*
X44353Y-32290D01*
X44390Y-32234D01*
X44409Y-32159D01*
X44409Y-32009D01*
X44390Y-31971D01*
X44371Y-31953D01*
X44334Y-31934D01*
X44259Y-31934D01*
X44221Y-31953D01*
X44203Y-31971D01*
X44184Y-32009D01*
X44184Y-32103D01*
X44203Y-32140D01*
X44221Y-32159D01*
X44259Y-32178D01*
X44334Y-32178D01*
X44371Y-32159D01*
X44390Y-32140D01*
X44409Y-32103D01*
X43671Y-29878D02*
X43671Y-29484D01*
X43765Y-29484D01*
X43821Y-29503D01*
X43859Y-29540D01*
X43878Y-29578D01*
X43896Y-29653D01*
X43896Y-29709D01*
X43878Y-29784D01*
X43859Y-29821D01*
X43821Y-29859D01*
X43765Y-29878D01*
X43671Y-29878D01*
X44271Y-29878D02*
X44046Y-29878D01*
X44159Y-29878D02*
X44159Y-29484D01*
X44121Y-29540D01*
X44084Y-29578D01*
X44046Y-29596D01*
X44515Y-29484D02*
X44553Y-29484D01*
X44590Y-29503D01*
X44609Y-29521D01*
X44628Y-29559D01*
X44646Y-29634D01*
X44646Y-29728D01*
X44628Y-29803D01*
X44609Y-29840D01*
X44590Y-29859D01*
X44553Y-29878D01*
X44515Y-29878D01*
X44478Y-29859D01*
X44459Y-29840D01*
X44440Y-29803D01*
X44421Y-29728D01*
X44421Y-29634D01*
X44440Y-29559D01*
X44459Y-29521D01*
X44478Y-29503D01*
X44515Y-29484D01*
X31771Y-20328D02*
X31771Y-19934D01*
X31865Y-19934D01*
X31921Y-19953D01*
X31959Y-19990D01*
X31978Y-20028D01*
X31996Y-20103D01*
X31996Y-20159D01*
X31978Y-20234D01*
X31959Y-20271D01*
X31921Y-20309D01*
X31865Y-20328D01*
X31771Y-20328D01*
X32371Y-20328D02*
X32146Y-20328D01*
X32259Y-20328D02*
X32259Y-19934D01*
X32221Y-19990D01*
X32184Y-20028D01*
X32146Y-20046D01*
X32746Y-20328D02*
X32521Y-20328D01*
X32634Y-20328D02*
X32634Y-19934D01*
X32596Y-19990D01*
X32559Y-20028D01*
X32521Y-20046D01*
X31771Y-22978D02*
X31771Y-22584D01*
X31865Y-22584D01*
X31921Y-22603D01*
X31959Y-22640D01*
X31978Y-22678D01*
X31996Y-22753D01*
X31996Y-22809D01*
X31978Y-22884D01*
X31959Y-22921D01*
X31921Y-22959D01*
X31865Y-22978D01*
X31771Y-22978D01*
X32371Y-22978D02*
X32146Y-22978D01*
X32259Y-22978D02*
X32259Y-22584D01*
X32221Y-22640D01*
X32184Y-22678D01*
X32146Y-22696D01*
X32521Y-22621D02*
X32540Y-22603D01*
X32578Y-22584D01*
X32671Y-22584D01*
X32709Y-22603D01*
X32728Y-22621D01*
X32746Y-22659D01*
X32746Y-22696D01*
X32728Y-22753D01*
X32503Y-22978D01*
X32746Y-22978D01*
X42371Y-32328D02*
X42371Y-31934D01*
X42465Y-31934D01*
X42521Y-31953D01*
X42559Y-31990D01*
X42578Y-32028D01*
X42596Y-32103D01*
X42596Y-32159D01*
X42578Y-32234D01*
X42559Y-32271D01*
X42521Y-32309D01*
X42465Y-32328D01*
X42371Y-32328D01*
X42971Y-32328D02*
X42746Y-32328D01*
X42859Y-32328D02*
X42859Y-31934D01*
X42821Y-31990D01*
X42784Y-32028D01*
X42746Y-32046D01*
X43103Y-31934D02*
X43346Y-31934D01*
X43215Y-32084D01*
X43271Y-32084D01*
X43309Y-32103D01*
X43328Y-32121D01*
X43346Y-32159D01*
X43346Y-32253D01*
X43328Y-32290D01*
X43309Y-32309D01*
X43271Y-32328D01*
X43159Y-32328D01*
X43121Y-32309D01*
X43103Y-32290D01*
X42371Y-29878D02*
X42371Y-29484D01*
X42465Y-29484D01*
X42521Y-29503D01*
X42559Y-29540D01*
X42578Y-29578D01*
X42596Y-29653D01*
X42596Y-29709D01*
X42578Y-29784D01*
X42559Y-29821D01*
X42521Y-29859D01*
X42465Y-29878D01*
X42371Y-29878D01*
X42971Y-29878D02*
X42746Y-29878D01*
X42859Y-29878D02*
X42859Y-29484D01*
X42821Y-29540D01*
X42784Y-29578D01*
X42746Y-29596D01*
X43309Y-29615D02*
X43309Y-29878D01*
X43215Y-29465D02*
X43121Y-29746D01*
X43365Y-29746D01*
X33021Y-20328D02*
X33021Y-19934D01*
X33115Y-19934D01*
X33171Y-19953D01*
X33209Y-19990D01*
X33228Y-20028D01*
X33246Y-20103D01*
X33246Y-20159D01*
X33228Y-20234D01*
X33209Y-20271D01*
X33171Y-20309D01*
X33115Y-20328D01*
X33021Y-20328D01*
X33621Y-20328D02*
X33396Y-20328D01*
X33509Y-20328D02*
X33509Y-19934D01*
X33471Y-19990D01*
X33434Y-20028D01*
X33396Y-20046D01*
X33978Y-19934D02*
X33790Y-19934D01*
X33771Y-20121D01*
X33790Y-20103D01*
X33828Y-20084D01*
X33921Y-20084D01*
X33959Y-20103D01*
X33978Y-20121D01*
X33996Y-20159D01*
X33996Y-20253D01*
X33978Y-20290D01*
X33959Y-20309D01*
X33921Y-20328D01*
X33828Y-20328D01*
X33790Y-20309D01*
X33771Y-20290D01*
X33071Y-22928D02*
X33071Y-22534D01*
X33165Y-22534D01*
X33221Y-22553D01*
X33259Y-22590D01*
X33278Y-22628D01*
X33296Y-22703D01*
X33296Y-22759D01*
X33278Y-22834D01*
X33259Y-22871D01*
X33221Y-22909D01*
X33165Y-22928D01*
X33071Y-22928D01*
X33671Y-22928D02*
X33446Y-22928D01*
X33559Y-22928D02*
X33559Y-22534D01*
X33521Y-22590D01*
X33484Y-22628D01*
X33446Y-22646D01*
X34009Y-22534D02*
X33934Y-22534D01*
X33896Y-22553D01*
X33878Y-22571D01*
X33840Y-22628D01*
X33821Y-22703D01*
X33821Y-22853D01*
X33840Y-22890D01*
X33859Y-22909D01*
X33896Y-22928D01*
X33971Y-22928D01*
X34009Y-22909D01*
X34028Y-22890D01*
X34046Y-22853D01*
X34046Y-22759D01*
X34028Y-22721D01*
X34009Y-22703D01*
X33971Y-22684D01*
X33896Y-22684D01*
X33859Y-22703D01*
X33840Y-22721D01*
X33821Y-22759D01*
G54D18*
X33335Y-41716D02*
X33335Y-41016D01*
X33442Y-41016D01*
X33507Y-41050D01*
X33550Y-41116D01*
X33571Y-41183D01*
X33592Y-41316D01*
X33592Y-41416D01*
X33571Y-41550D01*
X33550Y-41616D01*
X33507Y-41683D01*
X33442Y-41716D01*
X33335Y-41716D01*
X33785Y-41716D02*
X33785Y-41016D01*
X34000Y-41716D02*
X34000Y-41016D01*
X34171Y-41016D01*
X34214Y-41050D01*
X34235Y-41083D01*
X34257Y-41150D01*
X34257Y-41250D01*
X34235Y-41316D01*
X34214Y-41350D01*
X34171Y-41383D01*
X34000Y-41383D01*
X34685Y-41716D02*
X34428Y-41716D01*
X34557Y-41716D02*
X34557Y-41016D01*
X34514Y-41116D01*
X34471Y-41183D01*
X34428Y-41216D01*
G54D14*
G54D18*
X30175Y-35966D02*
X29960Y-35966D01*
X29960Y-35266D01*
X30325Y-35966D02*
X30325Y-35266D01*
X30475Y-35766D01*
X30625Y-35266D01*
X30625Y-35966D01*
X30796Y-35266D02*
X31075Y-35266D01*
X30925Y-35533D01*
X30989Y-35533D01*
X31032Y-35566D01*
X31053Y-35600D01*
X31075Y-35666D01*
X31075Y-35833D01*
X31053Y-35900D01*
X31032Y-35933D01*
X30989Y-35966D01*
X30860Y-35966D01*
X30817Y-35933D01*
X30796Y-35900D01*
X31289Y-35966D02*
X31375Y-35966D01*
X31417Y-35933D01*
X31439Y-35900D01*
X31482Y-35800D01*
X31503Y-35666D01*
X31503Y-35400D01*
X31482Y-35333D01*
X31460Y-35300D01*
X31417Y-35266D01*
X31332Y-35266D01*
X31289Y-35300D01*
X31267Y-35333D01*
X31246Y-35400D01*
X31246Y-35566D01*
X31267Y-35633D01*
X31289Y-35666D01*
X31332Y-35700D01*
X31417Y-35700D01*
X31460Y-35666D01*
X31482Y-35633D01*
X31503Y-35566D01*
X31932Y-35966D02*
X31675Y-35966D01*
X31803Y-35966D02*
X31803Y-35266D01*
X31760Y-35366D01*
X31717Y-35433D01*
X31675Y-35466D01*
X32317Y-35500D02*
X32317Y-35966D01*
X32210Y-35233D02*
X32103Y-35733D01*
X32382Y-35733D01*
G54D14*
G54D10*
X38878Y-30343D02*
X38484Y-30343D01*
X38840Y-29931D02*
X38859Y-29949D01*
X38878Y-30006D01*
X38878Y-30043D01*
X38859Y-30099D01*
X38821Y-30137D01*
X38784Y-30156D01*
X38709Y-30174D01*
X38653Y-30174D01*
X38578Y-30156D01*
X38540Y-30137D01*
X38503Y-30099D01*
X38484Y-30043D01*
X38484Y-30006D01*
X38503Y-29949D01*
X38521Y-29931D01*
X38878Y-29575D02*
X38878Y-29762D01*
X38484Y-29762D01*
X38878Y-29237D02*
X38878Y-29462D01*
X38878Y-29350D02*
X38484Y-29350D01*
X38540Y-29387D01*
X38578Y-29425D01*
X38596Y-29462D01*
X37878Y-23181D02*
X37484Y-23181D01*
X37840Y-22768D02*
X37859Y-22787D01*
X37878Y-22843D01*
X37878Y-22881D01*
X37859Y-22937D01*
X37821Y-22974D01*
X37784Y-22993D01*
X37709Y-23012D01*
X37653Y-23012D01*
X37578Y-22993D01*
X37540Y-22974D01*
X37503Y-22937D01*
X37484Y-22881D01*
X37484Y-22843D01*
X37503Y-22787D01*
X37521Y-22768D01*
X37878Y-22375D02*
X37690Y-22506D01*
X37878Y-22600D02*
X37484Y-22600D01*
X37484Y-22450D01*
X37503Y-22412D01*
X37521Y-22393D01*
X37559Y-22375D01*
X37615Y-22375D01*
X37653Y-22393D01*
X37671Y-22412D01*
X37690Y-22450D01*
X37690Y-22600D01*
X37878Y-22000D02*
X37878Y-22225D01*
X37878Y-22112D02*
X37484Y-22112D01*
X37540Y-22150D01*
X37578Y-22187D01*
X37596Y-22225D01*
G54D13*
X42800Y-25285D02*
X42700Y-25142D01*
X42628Y-25285D02*
X42628Y-24985D01*
X42742Y-24985D01*
X42771Y-25000D01*
X42785Y-25014D01*
X42800Y-25042D01*
X42800Y-25085D01*
X42785Y-25114D01*
X42771Y-25128D01*
X42742Y-25142D01*
X42628Y-25142D01*
X42914Y-25014D02*
X42928Y-25000D01*
X42957Y-24985D01*
X43028Y-24985D01*
X43057Y-25000D01*
X43071Y-25014D01*
X43085Y-25042D01*
X43085Y-25071D01*
X43071Y-25114D01*
X42900Y-25285D01*
X43085Y-25285D01*
G54D19*
X35871Y-41558D02*
X35667Y-41558D01*
X35667Y-40877D01*
X36013Y-41201D02*
X36156Y-41201D01*
X36217Y-41558D02*
X36013Y-41558D01*
X36013Y-40877D01*
X36217Y-40877D01*
X36400Y-41558D02*
X36400Y-40877D01*
X36502Y-40877D01*
X36564Y-40909D01*
X36604Y-40974D01*
X36625Y-41039D01*
X36645Y-41168D01*
X36645Y-41266D01*
X36625Y-41395D01*
X36604Y-41460D01*
X36564Y-41525D01*
X36502Y-41558D01*
X36400Y-41558D01*
X37053Y-41558D02*
X36808Y-41558D01*
X36930Y-41558D02*
X36930Y-40877D01*
X36890Y-40974D01*
X36849Y-41039D01*
X36808Y-41071D01*
G54D14*
G54D17*
X29661Y-40914D02*
X29642Y-40942D01*
X29585Y-40971D01*
X29547Y-40971D01*
X29490Y-40942D01*
X29452Y-40885D01*
X29433Y-40828D01*
X29414Y-40714D01*
X29414Y-40628D01*
X29433Y-40514D01*
X29452Y-40457D01*
X29490Y-40400D01*
X29547Y-40371D01*
X29585Y-40371D01*
X29642Y-40400D01*
X29661Y-40428D01*
X29909Y-40371D02*
X29985Y-40371D01*
X30023Y-40400D01*
X30061Y-40457D01*
X30080Y-40571D01*
X30080Y-40771D01*
X30061Y-40885D01*
X30023Y-40942D01*
X29985Y-40971D01*
X29909Y-40971D01*
X29871Y-40942D01*
X29833Y-40885D01*
X29814Y-40771D01*
X29814Y-40571D01*
X29833Y-40457D01*
X29871Y-40400D01*
X29909Y-40371D01*
X30252Y-40971D02*
X30252Y-40371D01*
X30480Y-40971D01*
X30480Y-40371D01*
X30671Y-40971D02*
X30671Y-40371D01*
X30900Y-40971D01*
X30900Y-40371D01*
X30995Y-41028D02*
X31300Y-41028D01*
X31604Y-40971D02*
X31376Y-40971D01*
X31490Y-40971D02*
X31490Y-40371D01*
X31452Y-40457D01*
X31414Y-40514D01*
X31376Y-40542D01*
X31852Y-40371D02*
X31890Y-40371D01*
X31928Y-40400D01*
X31947Y-40428D01*
X31966Y-40485D01*
X31985Y-40600D01*
X31985Y-40742D01*
X31966Y-40857D01*
X31947Y-40914D01*
X31928Y-40942D01*
X31890Y-40971D01*
X31852Y-40971D01*
X31814Y-40942D01*
X31795Y-40914D01*
X31776Y-40857D01*
X31757Y-40742D01*
X31757Y-40600D01*
X31776Y-40485D01*
X31795Y-40428D01*
X31814Y-40400D01*
X31852Y-40371D01*
G54D14*
G54D15*
X46028Y-28435D02*
X45885Y-28435D01*
X45885Y-28135D01*
X46171Y-28435D02*
X46142Y-28421D01*
X46128Y-28407D01*
X46114Y-28378D01*
X46114Y-28292D01*
X46128Y-28264D01*
X46142Y-28250D01*
X46171Y-28235D01*
X46214Y-28235D01*
X46242Y-28250D01*
X46257Y-28264D01*
X46271Y-28292D01*
X46271Y-28378D01*
X46257Y-28407D01*
X46242Y-28421D01*
X46214Y-28435D01*
X46171Y-28435D01*
X46528Y-28235D02*
X46528Y-28478D01*
X46514Y-28507D01*
X46500Y-28521D01*
X46471Y-28535D01*
X46428Y-28535D01*
X46400Y-28521D01*
X46528Y-28421D02*
X46500Y-28435D01*
X46442Y-28435D01*
X46414Y-28421D01*
X46400Y-28407D01*
X46385Y-28378D01*
X46385Y-28292D01*
X46400Y-28264D01*
X46414Y-28250D01*
X46442Y-28235D01*
X46500Y-28235D01*
X46528Y-28250D01*
X46671Y-28435D02*
X46671Y-28235D01*
X46671Y-28135D02*
X46657Y-28150D01*
X46671Y-28164D01*
X46685Y-28150D01*
X46671Y-28135D01*
X46671Y-28164D01*
X46942Y-28421D02*
X46914Y-28435D01*
X46857Y-28435D01*
X46828Y-28421D01*
X46814Y-28407D01*
X46800Y-28378D01*
X46800Y-28292D01*
X46814Y-28264D01*
X46828Y-28250D01*
X46857Y-28235D01*
X46914Y-28235D01*
X46942Y-28250D01*
X47228Y-28435D02*
X47057Y-28435D01*
X47142Y-28435D02*
X47142Y-28135D01*
X47114Y-28178D01*
X47085Y-28207D01*
X47057Y-28221D01*
G54D13*
X33500Y-25285D02*
X33400Y-25142D01*
X33328Y-25285D02*
X33328Y-24985D01*
X33442Y-24985D01*
X33471Y-25000D01*
X33485Y-25014D01*
X33500Y-25042D01*
X33500Y-25085D01*
X33485Y-25114D01*
X33471Y-25128D01*
X33442Y-25142D01*
X33328Y-25142D01*
X33600Y-24985D02*
X33785Y-24985D01*
X33685Y-25100D01*
X33728Y-25100D01*
X33757Y-25114D01*
X33771Y-25128D01*
X33785Y-25157D01*
X33785Y-25228D01*
X33771Y-25257D01*
X33757Y-25271D01*
X33728Y-25285D01*
X33642Y-25285D01*
X33614Y-25271D01*
X33600Y-25257D01*
X33500Y-27385D02*
X33400Y-27242D01*
X33328Y-27385D02*
X33328Y-27085D01*
X33442Y-27085D01*
X33471Y-27100D01*
X33485Y-27114D01*
X33500Y-27142D01*
X33500Y-27185D01*
X33485Y-27214D01*
X33471Y-27228D01*
X33442Y-27242D01*
X33328Y-27242D01*
X33642Y-27385D02*
X33700Y-27385D01*
X33728Y-27371D01*
X33742Y-27357D01*
X33771Y-27314D01*
X33785Y-27257D01*
X33785Y-27142D01*
X33771Y-27114D01*
X33757Y-27100D01*
X33728Y-27085D01*
X33671Y-27085D01*
X33642Y-27100D01*
X33628Y-27114D01*
X33614Y-27142D01*
X33614Y-27214D01*
X33628Y-27242D01*
X33642Y-27257D01*
X33671Y-27271D01*
X33728Y-27271D01*
X33757Y-27257D01*
X33771Y-27242D01*
X33785Y-27214D01*
X42657Y-27385D02*
X42557Y-27242D01*
X42485Y-27385D02*
X42485Y-27085D01*
X42600Y-27085D01*
X42628Y-27100D01*
X42642Y-27114D01*
X42657Y-27142D01*
X42657Y-27185D01*
X42642Y-27214D01*
X42628Y-27228D01*
X42600Y-27242D01*
X42485Y-27242D01*
X42942Y-27385D02*
X42771Y-27385D01*
X42857Y-27385D02*
X42857Y-27085D01*
X42828Y-27128D01*
X42800Y-27157D01*
X42771Y-27171D01*
X43228Y-27385D02*
X43057Y-27385D01*
X43142Y-27385D02*
X43142Y-27085D01*
X43114Y-27128D01*
X43085Y-27157D01*
X43057Y-27171D01*
X44100Y-25285D02*
X44000Y-25142D01*
X43928Y-25285D02*
X43928Y-24985D01*
X44042Y-24985D01*
X44071Y-25000D01*
X44085Y-25014D01*
X44100Y-25042D01*
X44100Y-25085D01*
X44085Y-25114D01*
X44071Y-25128D01*
X44042Y-25142D01*
X43928Y-25142D01*
X44385Y-25285D02*
X44214Y-25285D01*
X44300Y-25285D02*
X44300Y-24985D01*
X44271Y-25028D01*
X44242Y-25057D01*
X44214Y-25071D01*
X32200Y-25285D02*
X32100Y-25142D01*
X32028Y-25285D02*
X32028Y-24985D01*
X32142Y-24985D01*
X32171Y-25000D01*
X32185Y-25014D01*
X32200Y-25042D01*
X32200Y-25085D01*
X32185Y-25114D01*
X32171Y-25128D01*
X32142Y-25142D01*
X32028Y-25142D01*
X32457Y-25085D02*
X32457Y-25285D01*
X32385Y-24971D02*
X32314Y-25185D01*
X32500Y-25185D01*
X43957Y-27385D02*
X43857Y-27242D01*
X43785Y-27385D02*
X43785Y-27085D01*
X43900Y-27085D01*
X43928Y-27100D01*
X43942Y-27114D01*
X43957Y-27142D01*
X43957Y-27185D01*
X43942Y-27214D01*
X43928Y-27228D01*
X43900Y-27242D01*
X43785Y-27242D01*
X44242Y-27385D02*
X44071Y-27385D01*
X44157Y-27385D02*
X44157Y-27085D01*
X44128Y-27128D01*
X44100Y-27157D01*
X44071Y-27171D01*
X44357Y-27114D02*
X44371Y-27100D01*
X44400Y-27085D01*
X44471Y-27085D01*
X44500Y-27100D01*
X44514Y-27114D01*
X44528Y-27142D01*
X44528Y-27171D01*
X44514Y-27214D01*
X44342Y-27385D01*
X44528Y-27385D01*
G54D16*
X43254Y-38098D02*
X42969Y-38098D01*
X43111Y-38098D02*
X43111Y-37548D01*
X43064Y-37627D01*
X43016Y-37679D01*
X42969Y-37705D01*
X43564Y-37548D02*
X43611Y-37548D01*
X43659Y-37575D01*
X43683Y-37601D01*
X43707Y-37653D01*
X43730Y-37758D01*
X43730Y-37889D01*
X43707Y-37994D01*
X43683Y-38046D01*
X43659Y-38072D01*
X43611Y-38098D01*
X43564Y-38098D01*
X43516Y-38072D01*
X43492Y-38046D01*
X43469Y-37994D01*
X43445Y-37889D01*
X43445Y-37758D01*
X43469Y-37653D01*
X43492Y-37601D01*
X43516Y-37575D01*
X43564Y-37548D01*
X43945Y-38098D02*
X43945Y-37548D01*
X44230Y-38098D02*
X44016Y-37784D01*
X44230Y-37548D02*
X43945Y-37863D01*
X43254Y-37098D02*
X42969Y-37098D01*
X43111Y-37098D02*
X43111Y-36548D01*
X43064Y-36627D01*
X43016Y-36679D01*
X42969Y-36705D01*
X43564Y-36548D02*
X43611Y-36548D01*
X43659Y-36575D01*
X43683Y-36601D01*
X43707Y-36653D01*
X43730Y-36758D01*
X43730Y-36889D01*
X43707Y-36994D01*
X43683Y-37046D01*
X43659Y-37072D01*
X43611Y-37098D01*
X43564Y-37098D01*
X43516Y-37072D01*
X43492Y-37046D01*
X43469Y-36994D01*
X43445Y-36889D01*
X43445Y-36758D01*
X43469Y-36653D01*
X43492Y-36601D01*
X43516Y-36575D01*
X43564Y-36548D01*
X43945Y-37098D02*
X43945Y-36548D01*
X44230Y-37098D02*
X44016Y-36784D01*
X44230Y-36548D02*
X43945Y-36863D01*
X41398Y-36795D02*
X41398Y-37080D01*
X41398Y-36938D02*
X40848Y-36938D01*
X40927Y-36985D01*
X40979Y-37033D01*
X41005Y-37080D01*
X41398Y-36319D02*
X41398Y-36604D01*
X41398Y-36461D02*
X40848Y-36461D01*
X40927Y-36509D01*
X40979Y-36557D01*
X41005Y-36604D01*
X41398Y-36104D02*
X40848Y-36104D01*
X41398Y-35819D02*
X41084Y-36033D01*
X40848Y-35819D02*
X41163Y-36104D01*
G54D13*
X32200Y-27385D02*
X32100Y-27242D01*
X32028Y-27385D02*
X32028Y-27085D01*
X32142Y-27085D01*
X32171Y-27100D01*
X32185Y-27114D01*
X32200Y-27142D01*
X32200Y-27185D01*
X32185Y-27214D01*
X32171Y-27228D01*
X32142Y-27242D01*
X32028Y-27242D01*
X32371Y-27214D02*
X32342Y-27200D01*
X32328Y-27185D01*
X32314Y-27157D01*
X32314Y-27142D01*
X32328Y-27114D01*
X32342Y-27100D01*
X32371Y-27085D01*
X32428Y-27085D01*
X32457Y-27100D01*
X32471Y-27114D01*
X32485Y-27142D01*
X32485Y-27157D01*
X32471Y-27185D01*
X32457Y-27200D01*
X32428Y-27214D01*
X32371Y-27214D01*
X32342Y-27228D01*
X32328Y-27242D01*
X32314Y-27271D01*
X32314Y-27328D01*
X32328Y-27357D01*
X32342Y-27371D01*
X32371Y-27385D01*
X32428Y-27385D01*
X32457Y-27371D01*
X32471Y-27357D01*
X32485Y-27328D01*
X32485Y-27271D01*
X32471Y-27242D01*
X32457Y-27228D01*
X32428Y-27214D01*
G54D16*
X40498Y-36795D02*
X40498Y-37080D01*
X40498Y-36938D02*
X39948Y-36938D01*
X40027Y-36985D01*
X40079Y-37033D01*
X40105Y-37080D01*
X39948Y-36628D02*
X39948Y-36319D01*
X40158Y-36485D01*
X40158Y-36414D01*
X40184Y-36366D01*
X40210Y-36342D01*
X40263Y-36319D01*
X40394Y-36319D01*
X40446Y-36342D01*
X40472Y-36366D01*
X40498Y-36414D01*
X40498Y-36557D01*
X40472Y-36604D01*
X40446Y-36628D01*
X40498Y-36104D02*
X39948Y-36104D01*
X40498Y-35819D02*
X40184Y-36033D01*
X39948Y-35819D02*
X40263Y-36104D01*
G54D10*
X30371Y-32887D02*
X30371Y-33018D01*
X30578Y-33018D02*
X30184Y-33018D01*
X30184Y-32831D01*
X30578Y-32681D02*
X30315Y-32681D01*
X30390Y-32681D02*
X30353Y-32662D01*
X30334Y-32643D01*
X30315Y-32606D01*
X30315Y-32568D01*
X30578Y-32381D02*
X30559Y-32418D01*
X30540Y-32437D01*
X30503Y-32456D01*
X30390Y-32456D01*
X30353Y-32437D01*
X30334Y-32418D01*
X30315Y-32381D01*
X30315Y-32324D01*
X30334Y-32287D01*
X30353Y-32268D01*
X30390Y-32249D01*
X30503Y-32249D01*
X30540Y-32268D01*
X30559Y-32287D01*
X30578Y-32324D01*
X30578Y-32381D01*
X30315Y-32081D02*
X30578Y-32081D01*
X30353Y-32081D02*
X30334Y-32062D01*
X30315Y-32024D01*
X30315Y-31968D01*
X30334Y-31931D01*
X30371Y-31912D01*
X30578Y-31912D01*
X30315Y-31781D02*
X30315Y-31631D01*
X30184Y-31724D02*
X30521Y-31724D01*
X30559Y-31706D01*
X30578Y-31668D01*
X30578Y-31631D01*
X30578Y-31012D02*
X30578Y-31200D01*
X30184Y-31200D01*
X30559Y-30731D02*
X30578Y-30768D01*
X30578Y-30843D01*
X30559Y-30881D01*
X30521Y-30900D01*
X30371Y-30900D01*
X30334Y-30881D01*
X30315Y-30843D01*
X30315Y-30768D01*
X30334Y-30731D01*
X30371Y-30712D01*
X30409Y-30712D01*
X30446Y-30900D01*
X30315Y-30600D02*
X30315Y-30450D01*
X30578Y-30543D02*
X30240Y-30543D01*
X30203Y-30525D01*
X30184Y-30487D01*
X30184Y-30450D01*
X30315Y-30375D02*
X30315Y-30225D01*
X30184Y-30318D02*
X30521Y-30318D01*
X30559Y-30300D01*
X30578Y-30262D01*
X30578Y-30225D01*
X45171Y-31981D02*
X45190Y-31924D01*
X45209Y-31906D01*
X45246Y-31887D01*
X45303Y-31887D01*
X45340Y-31906D01*
X45359Y-31924D01*
X45378Y-31962D01*
X45378Y-32112D01*
X44984Y-32112D01*
X44984Y-31981D01*
X45003Y-31943D01*
X45021Y-31924D01*
X45059Y-31906D01*
X45096Y-31906D01*
X45134Y-31924D01*
X45153Y-31943D01*
X45171Y-31981D01*
X45171Y-32112D01*
X45378Y-31549D02*
X45171Y-31549D01*
X45134Y-31568D01*
X45115Y-31606D01*
X45115Y-31681D01*
X45134Y-31718D01*
X45359Y-31549D02*
X45378Y-31587D01*
X45378Y-31681D01*
X45359Y-31718D01*
X45321Y-31737D01*
X45284Y-31737D01*
X45246Y-31718D01*
X45228Y-31681D01*
X45228Y-31587D01*
X45209Y-31549D01*
X45359Y-31193D02*
X45378Y-31231D01*
X45378Y-31306D01*
X45359Y-31343D01*
X45340Y-31362D01*
X45303Y-31381D01*
X45190Y-31381D01*
X45153Y-31362D01*
X45134Y-31343D01*
X45115Y-31306D01*
X45115Y-31231D01*
X45134Y-31193D01*
X45378Y-31024D02*
X44984Y-31024D01*
X45228Y-30987D02*
X45378Y-30874D01*
X45115Y-30874D02*
X45265Y-31024D01*
X45378Y-30218D02*
X45378Y-30406D01*
X44984Y-30406D01*
X45359Y-29937D02*
X45378Y-29975D01*
X45378Y-30050D01*
X45359Y-30087D01*
X45321Y-30106D01*
X45171Y-30106D01*
X45134Y-30087D01*
X45115Y-30050D01*
X45115Y-29975D01*
X45134Y-29937D01*
X45171Y-29918D01*
X45209Y-29918D01*
X45246Y-30106D01*
X45115Y-29806D02*
X45115Y-29656D01*
X45378Y-29750D02*
X45040Y-29750D01*
X45003Y-29731D01*
X44984Y-29693D01*
X44984Y-29656D01*
X45115Y-29581D02*
X45115Y-29431D01*
X44984Y-29525D02*
X45321Y-29525D01*
X45359Y-29506D01*
X45378Y-29468D01*
X45378Y-29431D01*
X45271Y-22437D02*
X45290Y-22381D01*
X45309Y-22362D01*
X45346Y-22343D01*
X45403Y-22343D01*
X45440Y-22362D01*
X45459Y-22381D01*
X45478Y-22418D01*
X45478Y-22568D01*
X45084Y-22568D01*
X45084Y-22437D01*
X45103Y-22399D01*
X45121Y-22381D01*
X45159Y-22362D01*
X45196Y-22362D01*
X45234Y-22381D01*
X45253Y-22399D01*
X45271Y-22437D01*
X45271Y-22568D01*
X45478Y-22006D02*
X45271Y-22006D01*
X45234Y-22024D01*
X45215Y-22062D01*
X45215Y-22137D01*
X45234Y-22174D01*
X45459Y-22006D02*
X45478Y-22043D01*
X45478Y-22137D01*
X45459Y-22174D01*
X45421Y-22193D01*
X45384Y-22193D01*
X45346Y-22174D01*
X45328Y-22137D01*
X45328Y-22043D01*
X45309Y-22006D01*
X45459Y-21649D02*
X45478Y-21687D01*
X45478Y-21762D01*
X45459Y-21799D01*
X45440Y-21818D01*
X45403Y-21837D01*
X45290Y-21837D01*
X45253Y-21818D01*
X45234Y-21799D01*
X45215Y-21762D01*
X45215Y-21687D01*
X45234Y-21649D01*
X45478Y-21481D02*
X45084Y-21481D01*
X45328Y-21443D02*
X45478Y-21331D01*
X45215Y-21331D02*
X45365Y-21481D01*
X45478Y-20637D02*
X45290Y-20768D01*
X45478Y-20862D02*
X45084Y-20862D01*
X45084Y-20712D01*
X45103Y-20675D01*
X45121Y-20656D01*
X45159Y-20637D01*
X45215Y-20637D01*
X45253Y-20656D01*
X45271Y-20675D01*
X45290Y-20712D01*
X45290Y-20862D01*
X45478Y-20468D02*
X45215Y-20468D01*
X45084Y-20468D02*
X45103Y-20487D01*
X45121Y-20468D01*
X45103Y-20450D01*
X45084Y-20468D01*
X45121Y-20468D01*
X45215Y-20112D02*
X45534Y-20112D01*
X45571Y-20131D01*
X45590Y-20150D01*
X45609Y-20187D01*
X45609Y-20243D01*
X45590Y-20281D01*
X45459Y-20112D02*
X45478Y-20150D01*
X45478Y-20225D01*
X45459Y-20262D01*
X45440Y-20281D01*
X45403Y-20300D01*
X45290Y-20300D01*
X45253Y-20281D01*
X45234Y-20262D01*
X45215Y-20225D01*
X45215Y-20150D01*
X45234Y-20112D01*
X45478Y-19925D02*
X45084Y-19925D01*
X45478Y-19756D02*
X45271Y-19756D01*
X45234Y-19775D01*
X45215Y-19812D01*
X45215Y-19868D01*
X45234Y-19906D01*
X45253Y-19925D01*
X45215Y-19625D02*
X45215Y-19475D01*
X45084Y-19568D02*
X45421Y-19568D01*
X45459Y-19550D01*
X45478Y-19512D01*
X45478Y-19475D01*
X30371Y-22493D02*
X30371Y-22624D01*
X30578Y-22624D02*
X30184Y-22624D01*
X30184Y-22437D01*
X30578Y-22287D02*
X30315Y-22287D01*
X30390Y-22287D02*
X30353Y-22268D01*
X30334Y-22249D01*
X30315Y-22212D01*
X30315Y-22174D01*
X30578Y-21987D02*
X30559Y-22024D01*
X30540Y-22043D01*
X30503Y-22062D01*
X30390Y-22062D01*
X30353Y-22043D01*
X30334Y-22024D01*
X30315Y-21987D01*
X30315Y-21931D01*
X30334Y-21893D01*
X30353Y-21874D01*
X30390Y-21856D01*
X30503Y-21856D01*
X30540Y-21874D01*
X30559Y-21893D01*
X30578Y-21931D01*
X30578Y-21987D01*
X30315Y-21687D02*
X30578Y-21687D01*
X30353Y-21687D02*
X30334Y-21668D01*
X30315Y-21631D01*
X30315Y-21574D01*
X30334Y-21537D01*
X30371Y-21518D01*
X30578Y-21518D01*
X30315Y-21387D02*
X30315Y-21237D01*
X30184Y-21331D02*
X30521Y-21331D01*
X30559Y-21312D01*
X30578Y-21274D01*
X30578Y-21237D01*
X30578Y-20581D02*
X30390Y-20712D01*
X30578Y-20806D02*
X30184Y-20806D01*
X30184Y-20656D01*
X30203Y-20618D01*
X30221Y-20600D01*
X30259Y-20581D01*
X30315Y-20581D01*
X30353Y-20600D01*
X30371Y-20618D01*
X30390Y-20656D01*
X30390Y-20806D01*
X30578Y-20412D02*
X30315Y-20412D01*
X30184Y-20412D02*
X30203Y-20431D01*
X30221Y-20412D01*
X30203Y-20393D01*
X30184Y-20412D01*
X30221Y-20412D01*
X30315Y-20056D02*
X30634Y-20056D01*
X30671Y-20075D01*
X30690Y-20093D01*
X30709Y-20131D01*
X30709Y-20187D01*
X30690Y-20225D01*
X30559Y-20056D02*
X30578Y-20093D01*
X30578Y-20168D01*
X30559Y-20206D01*
X30540Y-20225D01*
X30503Y-20243D01*
X30390Y-20243D01*
X30353Y-20225D01*
X30334Y-20206D01*
X30315Y-20168D01*
X30315Y-20093D01*
X30334Y-20056D01*
X30578Y-19868D02*
X30184Y-19868D01*
X30578Y-19700D02*
X30371Y-19700D01*
X30334Y-19718D01*
X30315Y-19756D01*
X30315Y-19812D01*
X30334Y-19850D01*
X30353Y-19868D01*
X30315Y-19568D02*
X30315Y-19418D01*
X30184Y-19512D02*
X30521Y-19512D01*
X30559Y-19493D01*
X30578Y-19456D01*
X30578Y-19418D01*
G54D15*
X45085Y-27792D02*
X44785Y-27792D01*
X45000Y-27692D01*
X44785Y-27592D01*
X45085Y-27592D01*
X45085Y-27407D02*
X45071Y-27435D01*
X45057Y-27450D01*
X45028Y-27464D01*
X44942Y-27464D01*
X44914Y-27450D01*
X44900Y-27435D01*
X44885Y-27407D01*
X44885Y-27364D01*
X44900Y-27335D01*
X44914Y-27321D01*
X44942Y-27307D01*
X45028Y-27307D01*
X45057Y-27321D01*
X45071Y-27335D01*
X45085Y-27364D01*
X45085Y-27407D01*
X44885Y-27221D02*
X44885Y-27107D01*
X44785Y-27178D02*
X45042Y-27178D01*
X45071Y-27164D01*
X45085Y-27135D01*
X45085Y-27107D01*
X45085Y-26964D02*
X45071Y-26992D01*
X45057Y-27007D01*
X45028Y-27021D01*
X44942Y-27021D01*
X44914Y-27007D01*
X44900Y-26992D01*
X44885Y-26964D01*
X44885Y-26921D01*
X44900Y-26892D01*
X44914Y-26878D01*
X44942Y-26864D01*
X45028Y-26864D01*
X45057Y-26878D01*
X45071Y-26892D01*
X45085Y-26921D01*
X45085Y-26964D01*
X45085Y-26735D02*
X44885Y-26735D01*
X44942Y-26735D02*
X44914Y-26721D01*
X44900Y-26707D01*
X44885Y-26678D01*
X44885Y-26649D01*
X45085Y-26392D02*
X45085Y-26564D01*
X45085Y-26478D02*
X44785Y-26478D01*
X44828Y-26507D01*
X44857Y-26535D01*
X44871Y-26564D01*
G54D16*
X29080Y-28673D02*
X28680Y-28673D01*
X28966Y-28540D01*
X28680Y-28407D01*
X29080Y-28407D01*
X29080Y-28159D02*
X29061Y-28197D01*
X29042Y-28216D01*
X29004Y-28235D01*
X28890Y-28235D01*
X28852Y-28216D01*
X28833Y-28197D01*
X28814Y-28159D01*
X28814Y-28102D01*
X28833Y-28064D01*
X28852Y-28045D01*
X28890Y-28026D01*
X29004Y-28026D01*
X29042Y-28045D01*
X29061Y-28064D01*
X29080Y-28102D01*
X29080Y-28159D01*
X28814Y-27911D02*
X28814Y-27759D01*
X28680Y-27854D02*
X29023Y-27854D01*
X29061Y-27835D01*
X29080Y-27797D01*
X29080Y-27759D01*
X29080Y-27569D02*
X29061Y-27607D01*
X29042Y-27626D01*
X29004Y-27645D01*
X28890Y-27645D01*
X28852Y-27626D01*
X28833Y-27607D01*
X28814Y-27569D01*
X28814Y-27511D01*
X28833Y-27473D01*
X28852Y-27454D01*
X28890Y-27435D01*
X29004Y-27435D01*
X29042Y-27454D01*
X29061Y-27473D01*
X29080Y-27511D01*
X29080Y-27569D01*
X29080Y-27264D02*
X28814Y-27264D01*
X28890Y-27264D02*
X28852Y-27245D01*
X28833Y-27226D01*
X28814Y-27188D01*
X28814Y-27150D01*
X28719Y-27035D02*
X28700Y-27016D01*
X28680Y-26978D01*
X28680Y-26883D01*
X28700Y-26845D01*
X28719Y-26826D01*
X28757Y-26807D01*
X28795Y-26807D01*
X28852Y-26826D01*
X29080Y-27054D01*
X29080Y-26807D01*
X45111Y-26040D02*
X45130Y-25983D01*
X45130Y-25888D01*
X45111Y-25850D01*
X45092Y-25830D01*
X45054Y-25811D01*
X45016Y-25811D01*
X44978Y-25830D01*
X44959Y-25850D01*
X44940Y-25888D01*
X44921Y-25964D01*
X44902Y-26002D01*
X44883Y-26021D01*
X44845Y-26040D01*
X44807Y-26040D01*
X44769Y-26021D01*
X44750Y-26002D01*
X44730Y-25964D01*
X44730Y-25869D01*
X44750Y-25811D01*
X45111Y-25488D02*
X45130Y-25526D01*
X45130Y-25602D01*
X45111Y-25640D01*
X45073Y-25659D01*
X44921Y-25659D01*
X44883Y-25640D01*
X44864Y-25602D01*
X44864Y-25526D01*
X44883Y-25488D01*
X44921Y-25469D01*
X44959Y-25469D01*
X44997Y-25659D01*
X44864Y-25297D02*
X45130Y-25297D01*
X44902Y-25297D02*
X44883Y-25278D01*
X44864Y-25240D01*
X44864Y-25183D01*
X44883Y-25145D01*
X44921Y-25126D01*
X45130Y-25126D01*
X45111Y-24954D02*
X45130Y-24916D01*
X45130Y-24840D01*
X45111Y-24802D01*
X45073Y-24783D01*
X45054Y-24783D01*
X45016Y-24802D01*
X44997Y-24840D01*
X44997Y-24897D01*
X44978Y-24935D01*
X44940Y-24954D01*
X44921Y-24954D01*
X44883Y-24935D01*
X44864Y-24897D01*
X44864Y-24840D01*
X44883Y-24802D01*
X45111Y-24459D02*
X45130Y-24497D01*
X45130Y-24573D01*
X45111Y-24611D01*
X45073Y-24630D01*
X44921Y-24630D01*
X44883Y-24611D01*
X44864Y-24573D01*
X44864Y-24497D01*
X44883Y-24459D01*
X44921Y-24440D01*
X44959Y-24440D01*
X44997Y-24630D01*
X45130Y-24059D02*
X45130Y-24288D01*
X45130Y-24173D02*
X44730Y-24173D01*
X44788Y-24211D01*
X44826Y-24250D01*
X44845Y-24288D01*
X29061Y-25740D02*
X29080Y-25683D01*
X29080Y-25588D01*
X29061Y-25550D01*
X29042Y-25530D01*
X29004Y-25511D01*
X28966Y-25511D01*
X28928Y-25530D01*
X28909Y-25550D01*
X28890Y-25588D01*
X28871Y-25664D01*
X28852Y-25702D01*
X28833Y-25721D01*
X28795Y-25740D01*
X28757Y-25740D01*
X28719Y-25721D01*
X28700Y-25702D01*
X28680Y-25664D01*
X28680Y-25569D01*
X28700Y-25511D01*
X29061Y-25188D02*
X29080Y-25226D01*
X29080Y-25302D01*
X29061Y-25340D01*
X29023Y-25359D01*
X28871Y-25359D01*
X28833Y-25340D01*
X28814Y-25302D01*
X28814Y-25226D01*
X28833Y-25188D01*
X28871Y-25169D01*
X28909Y-25169D01*
X28947Y-25359D01*
X28814Y-24997D02*
X29080Y-24997D01*
X28852Y-24997D02*
X28833Y-24978D01*
X28814Y-24940D01*
X28814Y-24883D01*
X28833Y-24845D01*
X28871Y-24826D01*
X29080Y-24826D01*
X29061Y-24654D02*
X29080Y-24616D01*
X29080Y-24540D01*
X29061Y-24502D01*
X29023Y-24483D01*
X29004Y-24483D01*
X28966Y-24502D01*
X28947Y-24540D01*
X28947Y-24597D01*
X28928Y-24635D01*
X28890Y-24654D01*
X28871Y-24654D01*
X28833Y-24635D01*
X28814Y-24597D01*
X28814Y-24540D01*
X28833Y-24502D01*
X29061Y-24159D02*
X29080Y-24197D01*
X29080Y-24273D01*
X29061Y-24311D01*
X29023Y-24330D01*
X28871Y-24330D01*
X28833Y-24311D01*
X28814Y-24273D01*
X28814Y-24197D01*
X28833Y-24159D01*
X28871Y-24140D01*
X28909Y-24140D01*
X28947Y-24330D01*
X28719Y-23988D02*
X28700Y-23969D01*
X28680Y-23930D01*
X28680Y-23835D01*
X28700Y-23797D01*
X28719Y-23778D01*
X28757Y-23759D01*
X28795Y-23759D01*
X28852Y-23778D01*
X29080Y-24007D01*
X29080Y-23759D01*
G54D13*
X39107Y-35550D02*
X39121Y-35564D01*
X39135Y-35607D01*
X39135Y-35635D01*
X39121Y-35678D01*
X39092Y-35707D01*
X39064Y-35721D01*
X39007Y-35735D01*
X38964Y-35735D01*
X38907Y-35721D01*
X38878Y-35707D01*
X38850Y-35678D01*
X38835Y-35635D01*
X38835Y-35607D01*
X38850Y-35564D01*
X38864Y-35550D01*
X39135Y-35264D02*
X39135Y-35435D01*
X39135Y-35350D02*
X38835Y-35350D01*
X38878Y-35378D01*
X38907Y-35407D01*
X38921Y-35435D01*
G54D10*
X45121Y-35962D02*
X45140Y-35906D01*
X45159Y-35887D01*
X45196Y-35868D01*
X45253Y-35868D01*
X45290Y-35887D01*
X45309Y-35906D01*
X45328Y-35943D01*
X45328Y-36093D01*
X44934Y-36093D01*
X44934Y-35962D01*
X44953Y-35924D01*
X44971Y-35906D01*
X45009Y-35887D01*
X45046Y-35887D01*
X45084Y-35906D01*
X45103Y-35924D01*
X45121Y-35962D01*
X45121Y-36093D01*
X45328Y-35531D02*
X45121Y-35531D01*
X45084Y-35549D01*
X45065Y-35587D01*
X45065Y-35662D01*
X45084Y-35699D01*
X45309Y-35531D02*
X45328Y-35568D01*
X45328Y-35662D01*
X45309Y-35699D01*
X45271Y-35718D01*
X45234Y-35718D01*
X45196Y-35699D01*
X45178Y-35662D01*
X45178Y-35568D01*
X45159Y-35531D01*
X45065Y-35400D02*
X45065Y-35250D01*
X44934Y-35343D02*
X45271Y-35343D01*
X45309Y-35325D01*
X45328Y-35287D01*
X45328Y-35250D01*
X45065Y-35175D02*
X45065Y-35025D01*
X44934Y-35118D02*
X45271Y-35118D01*
X45309Y-35100D01*
X45328Y-35062D01*
X45328Y-35025D01*
X45328Y-34687D02*
X45328Y-34912D01*
X45328Y-34800D02*
X44934Y-34800D01*
X44990Y-34837D01*
X45028Y-34875D01*
X45046Y-34912D01*
G54D15*
X38014Y-37285D02*
X38014Y-36985D01*
X38128Y-36985D01*
X38157Y-37000D01*
X38171Y-37014D01*
X38185Y-37042D01*
X38185Y-37085D01*
X38171Y-37114D01*
X38157Y-37128D01*
X38128Y-37142D01*
X38014Y-37142D01*
X38357Y-37285D02*
X38328Y-37271D01*
X38314Y-37257D01*
X38300Y-37228D01*
X38300Y-37142D01*
X38314Y-37114D01*
X38328Y-37100D01*
X38357Y-37085D01*
X38400Y-37085D01*
X38428Y-37100D01*
X38442Y-37114D01*
X38457Y-37142D01*
X38457Y-37228D01*
X38442Y-37257D01*
X38428Y-37271D01*
X38400Y-37285D01*
X38357Y-37285D01*
X38557Y-37085D02*
X38614Y-37285D01*
X38671Y-37142D01*
X38728Y-37285D01*
X38785Y-37085D01*
X39014Y-37271D02*
X38985Y-37285D01*
X38928Y-37285D01*
X38900Y-37271D01*
X38885Y-37242D01*
X38885Y-37128D01*
X38900Y-37100D01*
X38928Y-37085D01*
X38985Y-37085D01*
X39014Y-37100D01*
X39028Y-37128D01*
X39028Y-37157D01*
X38885Y-37185D01*
X39157Y-37285D02*
X39157Y-37085D01*
X39157Y-37142D02*
X39171Y-37114D01*
X39185Y-37100D01*
X39214Y-37085D01*
X39242Y-37085D01*
X39500Y-37285D02*
X39328Y-37285D01*
X39414Y-37285D02*
X39414Y-36985D01*
X39385Y-37028D01*
X39357Y-37057D01*
X39328Y-37071D01*
M02*
